<?xml version="1.0" encoding="UTF-8"?>
<svg width="153px" height="34px" viewBox="0 0 153 34" version="1.1" xmlns="http://www.w3.org/2000/svg" xmlns:xlink="http://www.w3.org/1999/xlink">
    <!-- Generator: Sketch 48 (47235) - http://www.bohemiancoding.com/sketch -->
    <title>Group 4</title>
    <desc>Created with Sketch.</desc>
    <defs></defs>
    <g id="Page-1" stroke="none" stroke-width="1" fill="none" fill-rule="evenodd">
        <g id="Group-4" transform="translate(1.000000, 1.000000)" fill="#FFFFFF">
            <path d="M60.6029724,15.7707006 L57.0658174,15.7707006 C57.0063691,14.7402638 56.8354579,14.0937734 56.5530786,13.8312102 C56.2706992,13.568647 55.5598075,13.4373673 54.4203822,13.4373673 C53.9348879,13.4373673 53.5608647,13.4472752 53.2983015,13.4670913 C53.0357382,13.4869074 52.7830868,13.5612166 52.5403397,13.6900212 C52.2975926,13.8188258 52.1242043,13.9649673 52.0201699,14.1284501 C51.9161354,14.2919329 51.8294413,14.5817389 51.7600849,14.9978769 C51.6907286,15.4140148 51.651097,15.8450084 51.641189,16.2908705 C51.6312809,16.7367326 51.626327,17.375792 51.626327,18.2080679 C51.626327,20.3581141 51.7625606,21.6882494 52.0350318,22.1985138 C52.3075031,22.7087782 53.0728883,22.9639066 54.3312102,22.9639066 C55.6093482,22.9639066 56.3920722,22.8202421 56.6794055,22.5329087 C56.9667389,22.2455754 57.1203113,21.5569764 57.1401274,20.4670913 L60.7218684,20.4670913 C60.7218684,22.4387926 60.3156445,23.8358062 59.5031847,24.6581741 C58.6312766,25.5300822 56.9469339,25.9709837 54.4501062,25.9808917 C51.8541979,25.9808917 50.1302237,25.468158 49.2781316,24.4426752 C48.4260396,23.4171923 48,21.3414877 48,18.2154989 C48,15.0895102 48.4260396,13.0088516 49.2781316,11.9734607 C50.1302237,10.9380698 51.8541979,10.4203822 54.4501062,10.4203822 C56.9469339,10.4203822 58.6213687,10.9157771 59.4734607,11.9065817 C60.1273918,12.6794094 60.5038919,13.9674361 60.6029724,15.7707006 Z M67.7030432,22.9341826 C67.9903765,22.9539987 68.4089852,22.9639066 68.9588818,22.9639066 C69.5087784,22.9639066 69.9199562,22.9539987 70.1924275,22.9341826 C70.4648987,22.9143665 70.734889,22.8425342 71.0024062,22.7186837 C71.2699235,22.5948331 71.4532196,22.4511685 71.5523001,22.2876858 C71.6513805,22.124203 71.7405516,21.834397 71.819816,21.418259 C71.8990804,21.0021211 71.9436659,20.5760814 71.953574,20.1401274 C71.963482,19.7041733 71.968436,19.06016 71.968436,18.2080679 C71.968436,17.3559759 71.963482,16.7070086 71.953574,16.2611465 C71.9436659,15.8152844 71.8990804,15.3842908 71.819816,14.9681529 C71.7405516,14.5520149 71.6513805,14.2671628 71.5523001,14.1135881 C71.4532196,13.9600134 71.2699235,13.8188258 71.0024062,13.6900212 C70.734889,13.5612166 70.4648987,13.4869074 70.1924275,13.4670913 C69.9199562,13.4472752 69.5087784,13.4373673 68.9588818,13.4373673 C68.4089852,13.4373673 67.9928535,13.4472752 67.7104742,13.4670913 C67.4280948,13.4869074 67.1556276,13.5612166 66.8930644,13.6900212 C66.6305012,13.8188258 66.447205,13.9600134 66.3431706,14.1135881 C66.2391361,14.2671628 66.147488,14.5520149 66.0682236,14.9681529 C65.9889593,15.3842908 65.9443737,15.8152844 65.9344657,16.2611465 C65.9245576,16.7070086 65.9196037,17.3559759 65.9196037,18.2080679 C65.9196037,19.06016 65.9245576,19.7041733 65.9344657,20.1401274 C65.9443737,20.5760814 65.9889593,21.0021211 66.0682236,21.418259 C66.147488,21.834397 66.2391361,22.124203 66.3431706,22.2876858 C66.447205,22.4511685 66.6305012,22.5948331 66.8930644,22.7186837 C67.1556276,22.8425342 67.4256179,22.9143665 67.7030432,22.9341826 Z M68.9663128,25.9808917 C66.2713241,25.9808917 64.4854255,25.4731119 63.6085633,24.4575372 C62.7317012,23.4419624 62.2932767,21.3613038 62.2932767,18.2154989 C62.2932767,15.0696941 62.7292242,12.9840816 63.6011323,11.9585987 C64.4730405,10.9331159 66.2614161,10.4203822 68.9663128,10.4203822 C71.6414854,10.4203822 73.4149992,10.9331159 74.2869073,11.9585987 C75.1588154,12.9840816 75.5947629,15.0672171 75.5947629,18.2080679 C75.5947629,21.3291027 75.1588154,23.4048073 74.2869073,24.4352442 C73.4149992,25.465681 71.6414854,25.9808917 68.9663128,25.9808917 Z M90.4676575,25.6390658 L86.9899505,25.6390658 L86.9899505,24.5690021 C86.256755,25.0941286 85.578064,25.4607208 84.953857,25.6687898 C84.3296501,25.8768588 83.5469262,25.9808917 82.6056617,25.9808917 C80.6339604,25.9808917 79.2567626,25.4508192 78.4740269,24.3906582 C77.7210153,23.4196696 77.3445152,21.3588268 77.3445152,18.2080679 C77.3445152,15.1266654 77.7210153,13.0806845 78.4740269,12.0700637 C79.2666706,10.9702705 80.6587303,10.4203822 82.6502477,10.4203822 C83.561788,10.4203822 84.3321271,10.5219381 84.961288,10.7250531 C85.590449,10.928168 86.2666631,11.2823754 86.9899505,11.7876858 L86.9899505,4.32696391 L90.4676575,4.32696391 L90.4676575,25.6390658 Z M86.9899505,21.596603 L86.9899505,14.7154989 C85.9396975,13.8634069 84.7358879,13.4373673 83.3784855,13.4373673 C82.9524395,13.4373673 82.6279558,13.4472752 82.4050248,13.4670913 C82.1820937,13.4869074 81.96412,13.5612166 81.751097,13.6900212 C81.538074,13.8188258 81.3894555,13.9649673 81.3052371,14.1284501 C81.2210187,14.2919329 81.1491864,14.5817389 81.0897381,14.9978769 C81.0302899,15.4140148 80.9956122,15.8400544 80.9857042,16.2760085 C80.9757961,16.7119625 80.9708422,17.3559759 80.9708422,18.2080679 C80.9708422,19.0403439 80.9757961,19.6744493 80.9857042,20.1104034 C80.9956122,20.5463575 81.0302899,20.977351 81.0897381,21.403397 C81.1491864,21.829443 81.2210187,22.1192491 81.3052371,22.2728238 C81.3894555,22.4263985 81.538074,22.570063 81.751097,22.7038217 C81.96412,22.8375803 82.1820937,22.9143665 82.4050248,22.9341826 C82.6279558,22.9539987 82.9524395,22.9639066 83.3784855,22.9639066 C84.7358879,22.9639066 85.9396975,22.5081433 86.9899505,21.596603 Z M105.504034,19.3970276 L96.3193206,19.3970276 C96.3589528,21.2597404 96.5818805,22.3446552 96.9881104,22.6518047 C97.2952599,22.8995058 97.9838588,23.0233546 99.0539278,23.0233546 C100.351882,23.0233546 101.16433,22.9217986 101.491295,22.7186837 C101.818261,22.5155687 101.981741,21.9285257 101.981741,20.9575372 L105.504034,20.9575372 C105.484218,21.8888935 105.400001,22.6072162 105.25138,23.1125265 C105.102759,23.6178369 104.86497,24.0636923 104.538004,24.4501062 C103.666096,25.4607269 101.922306,25.9709837 99.3065817,25.9808917 C96.6710413,25.9808917 94.9148664,25.468158 94.0380042,24.4426752 C93.1611421,23.4171923 92.7227176,21.3390107 92.7227176,18.2080679 C92.7227176,15.1068493 93.1537112,13.0336216 94.0157113,11.9883227 C94.8777113,10.9430238 96.5967316,10.4203822 99.1728238,10.4203822 C101.689468,10.4203822 103.37381,10.9157771 104.225902,11.9065817 C105.117627,12.9370186 105.563482,14.9582298 105.563482,17.970276 C105.563482,18.5350347 105.543666,19.0106138 105.504034,19.3970276 Z M96.3193206,16.7515924 L102.100637,16.7515924 C102.061005,14.9681439 101.857893,13.9550614 101.491295,13.7123142 C101.124697,13.4695671 100.396467,13.3481953 99.3065817,13.3481953 C98.087892,13.3481953 97.305168,13.4670901 96.9583864,13.7048832 C96.5917887,13.9525844 96.3787689,14.9681439 96.3193206,16.7515924 Z M108.591366,25.6390658 L108.591366,13.6751592 L106.570134,13.6751592 L106.570134,10.7622081 L108.591366,10.7622081 L108.591366,8.99363057 C108.591366,7.26963045 108.99759,6.00141949 109.81005,5.18895966 C110.602693,4.39631592 111.816411,4 113.451238,4 C114.243882,4 115.05633,4.07926318 115.888606,4.23779193 L115.457608,7.1358811 C114.664964,7.03680064 114.015997,6.98726115 113.510686,6.98726115 C112.965744,6.98726115 112.596675,7.11358685 112.403468,7.36624204 C112.210261,7.61889723 112.113659,8.09695331 112.113659,8.80042463 L112.113659,10.7622081 L115.561642,10.7622081 L115.561642,13.6751592 L112.113659,13.6751592 L112.113659,25.6390658 L108.591366,25.6390658 Z M116.731776,10.7622081 L120.254069,10.7622081 L120.254069,19.8874735 C120.254069,21.1854276 120.41755,22.0275989 120.744515,22.4140127 C121.031849,22.7806105 121.611461,22.9639066 122.483369,22.9639066 C123.900219,22.9639066 125.084213,22.5180512 126.035386,21.626327 L126.035386,10.7622081 L129.572541,10.7622081 L129.572541,25.6390658 L126.094834,25.6390658 L126.094834,24.5690021 C125.421087,25.0941286 124.786981,25.4607208 124.192498,25.6687898 C123.598015,25.8768588 122.874739,25.9808917 122.022647,25.9808917 C120.140118,25.9808917 118.78769,25.4879738 117.965322,24.5021231 C117.142954,23.5162725 116.731776,21.8839463 116.731776,19.6050955 L116.731776,10.7622081 Z M135.76603,4.32696391 L135.76603,25.6390658 L132.228875,25.6390658 L132.228875,4.32696391 L135.76603,4.32696391 Z M142.895824,25.6390658 L142.345931,25.6390658 L136.995612,10.7622081 L140.830007,10.7622081 L144.263128,21.9830149 L144.367162,21.9830149 L147.532767,10.7622081 L151.233404,10.7622081 L145.91281,27.2887473 C145.546212,28.4281727 145.308422,29.1489723 145.199434,29.4511677 C145.090445,29.7533632 144.922011,30.0530771 144.694126,30.3503185 C143.881666,31.4501117 142.593639,32 140.830007,32 C140.245432,32 139.606373,31.9207368 138.91281,31.7622081 L139.373531,28.8641189 C139.878842,28.9631994 140.344513,29.0127389 140.770559,29.0127389 C141.256053,29.0127389 141.615215,28.8467816 141.848054,28.514862 C142.080893,28.1829424 142.380607,27.3977415 142.747205,26.1592357 L142.895824,25.6390658 Z" id="codefuly"></path>
            <g id="Group" fill-rule="nonzero">
                <path d="M27.2,0 L4.8,0 C2.1536,0 0,2.1536 0,4.8 L0,27.2 C0,29.8464 2.1536,32 4.8,32 L27.2,32 C29.8464,32 32,29.8464 32,27.2 L32,4.8 C32,2.1536 29.8464,0 27.2,0 Z M4.8,3.2 L27.2,3.2 C28.0816,3.2 28.8,3.9168 28.8,4.8 L28.8,9.6 L3.2,9.6 L3.2,4.8 C3.2,3.9168 3.9184,3.2 4.8,3.2 Z M27.2,28.8 L4.8,28.8 C3.9184,28.8 3.2,28.0832 3.2,27.2 L3.2,12.8 L28.8,12.8 L28.8,27.2 C28.8,28.0832 28.0816,28.8 27.2,28.8 Z" id="Shape" stroke="#FFFFFF"></path>
                <rect id="Rectangle-path" x="6.4" y="4.8" width="3.2" height="3.2"></rect>
                <rect id="Rectangle-path" x="12.8" y="4.8" width="3.2" height="3.2"></rect>
            </g>
        </g>
    </g>
</svg>