<?xml version="1.0" encoding="UTF-8"?>
<svg width="100px" height="92px" viewBox="0 0 100 92" version="1.1" xmlns="http://www.w3.org/2000/svg" xmlns:xlink="http://www.w3.org/1999/xlink">
    <!-- Generator: Sketch 48 (47235) - http://www.bohemiancoding.com/sketch -->
    <title>Page 1</title>
    <desc>Created with Sketch.</desc>
    <defs>
        <polygon id="path-1" points="0.8418 0.5953 97.978 0.5953 97.978 20.9993 0.8418 20.9993"></polygon>
        <polygon id="path-3" points="0.9288 0.417 6.2458 0.417 6.2458 7.8775 0.9288 7.8775"></polygon>
        <polygon id="path-5" points="0.5645 0.417 6.8405 0.417 6.8405 4.5962 0.5645 4.5962"></polygon>
        <polygon id="path-7" points="0.941 0.417 7.56 0.417 7.56 7.8775 0.941 7.8775"></polygon>
        <polygon id="path-9" points="0 92.583 99.978 92.583 99.978 1 0 1"></polygon>
    </defs>
    <g id="Page-1" stroke="none" stroke-width="1" fill="none" fill-rule="evenodd">
        <g transform="translate(0.000000, -1.000000)">
            <g id="Group-3" transform="translate(2.000000, 71.583000)">
                <mask id="mask-2" fill="white">
                    <use xlink:href="#path-1"></use>
                </mask>
                <g id="Clip-2"></g>
                <path d="M0.8418,18.5513 L2.3288,18.5513 C2.8188,18.5513 3.2178,18.0023 3.2178,17.3243 L3.2178,4.2673 C3.2178,3.5953 2.8188,3.0433 2.3288,3.0433 L0.8418,3.0433 L0.8418,0.5953 L95.3058,0.5953 C96.7808,0.5953 97.9788,2.2413 97.9788,4.2673 L97.9788,17.3243 C97.9788,19.3543 96.7808,20.9993 95.3058,20.9993 L0.8418,20.9993 L0.8418,18.5513 Z" id="Fill-1" fill="#136FB7" mask="url(#mask-2)"></path>
            </g>
            <path d="M2.8418,90.1343 L4.3288,90.1343 C4.8188,90.1343 5.2178,89.5853 5.2178,88.9073 L5.2178,75.8503 C5.2178,75.1783 4.8188,74.6263 4.3288,74.6263 L2.8418,74.6263 L2.8418,72.1783 L51.8548,72.1783 L51.8548,92.5823 L2.8418,92.5823 L2.8418,90.1343 Z" id="Fill-4" fill="#1386B7"></path>
            <path d="M5.2178,88.9077 L5.2178,75.8497 C5.2178,75.1787 4.8188,74.6267 4.3288,74.6267 L97.3058,74.6267 C97.7948,74.6267 98.1948,75.1787 98.1948,75.8497 L98.1948,88.9077 C98.1948,89.5857 97.7948,90.1347 97.3058,90.1347 L4.3288,90.1347 C4.8188,90.1347 5.2178,89.5857 5.2178,88.9077" id="Fill-6" fill="#BCD0E2"></path>
            <path d="M5.2178,88.9077 L5.2178,75.8497 C5.2178,75.1787 4.8188,74.6267 4.3288,74.6267 L53.6378,74.6267 C54.1298,74.6267 54.5288,75.1787 54.5288,75.8497 L54.5288,88.9077 C54.5288,89.5857 54.1298,90.1347 53.6378,90.1347 L4.3288,90.1347 C4.8188,90.1347 5.2178,89.5857 5.2178,88.9077" id="Fill-8" fill="#D8E8ED"></path>
            <path d="M8.6197,70.7534 L9.9307,70.7534 C10.3617,70.7534 10.7147,70.4254 10.7147,70.0224 L10.7147,62.2284 C10.7147,61.8274 10.3617,61.4944 9.9307,61.4944 L8.6197,61.4944 L8.6197,60.0354 L91.8467,60.0354 C93.1477,60.0354 94.2027,61.0204 94.2027,62.2284 L94.2027,70.0224 C94.2027,71.2324 93.1477,72.2164 91.8467,72.2164 L8.6197,72.2164 L8.6197,70.7534 Z" id="Fill-10" fill="#E2B348"></path>
            <path d="M8.6197,70.7534 L9.9307,70.7534 C10.3617,70.7534 10.7147,70.4254 10.7147,70.0224 L10.7147,62.2284 C10.7147,61.8274 10.3617,61.4944 9.9307,61.4944 L8.6197,61.4944 L8.6197,60.0354 L51.8037,60.0354 L51.8037,72.2164 L8.6197,72.2164 L8.6197,70.7534 Z" id="Fill-12" fill="#F8C44F"></path>
            <path d="M10.7149,70.022 L10.7149,62.228 C10.7149,61.828 10.3619,61.495 9.9309,61.495 L91.8469,61.495 C92.2789,61.495 92.6309,61.828 92.6309,62.228 L92.6309,70.022 C92.6309,70.425 92.2789,70.753 91.8469,70.753 L9.9309,70.753 C10.3619,70.753 10.7149,70.425 10.7149,70.022" id="Fill-14" fill="#BCD0E2"></path>
            <path d="M10.7149,70.022 L10.7149,62.228 C10.7149,61.828 10.3619,61.495 9.9309,61.495 L53.3739,61.495 C53.8089,61.495 54.1579,61.828 54.1579,62.228 L54.1579,70.022 C54.1579,70.425 53.8089,70.753 53.3739,70.753 L9.9309,70.753 C10.3619,70.753 10.7149,70.425 10.7149,70.022" id="Fill-16" fill="#D8E8ED"></path>
            <path d="M96.1158,49.6724 C95.6328,52.2354 95.3718,45.3194 95.3718,48.1464 C95.3718,51.3274 95.7058,54.3824 96.3128,57.2224 L22.7948,57.2224 L22.7948,49.6724 L96.1158,49.6724 Z" id="Fill-18" fill="#BCD0E2"></path>
            <path d="M96.1158,49.6724 C96.0038,50.2624 95.9068,50.8614 95.8178,51.4674 L29.5068,51.4674 L29.5068,49.6724 L96.1158,49.6724 Z" id="Fill-20" fill="#2E95D1"></path>
            <path d="M19.8584,46.9781 L96.9104,46.9781 C97.3724,46.9781 97.7494,47.3241 97.7494,47.7481 L97.7494,49.6721 L62.3704,49.6721 L62.3704,57.2221 L97.7494,57.2221 L97.7494,59.1461 C97.7494,59.5711 97.3724,59.9161 96.9104,59.9161 L19.8584,59.9161 C19.3944,59.9161 19.0184,59.5711 19.0184,59.1461 L19.0184,47.7481 C19.0184,47.3241 19.3944,46.9781 19.8584,46.9781" id="Fill-22" fill="#06597D"></path>
            <path d="M0.8394,46.9781 L60.4124,46.9781 C59.9464,46.9781 59.5714,47.3241 59.5714,47.7481 L59.5714,59.1461 C59.5714,59.5711 59.9464,59.9161 60.4124,59.9161 L0.8394,59.9161 C0.3764,59.9161 0.0004,59.5711 0.0004,59.1461 L0.0004,47.7481 C0.0004,47.3241 0.3764,46.9781 0.8394,46.9781" id="Fill-24" fill="#1386B7"></path>
            <path d="M0.8394,46.9781 L60.4124,46.9781 C59.9464,46.9781 59.5714,47.3241 59.5714,47.7481 L59.5714,50.3141 L0.0004,50.3141 L0.0004,47.7481 C0.0004,47.3241 0.3764,46.9781 0.8394,46.9781" id="Fill-26" fill="#1592C7"></path>
            <path d="M26.3907,48.0943 C26.3907,48.0943 42.3157,48.1283 48.4617,48.2243 C52.7127,48.2863 53.1027,42.2243 51.4247,41.3113 C46.3327,38.5363 30.4417,37.1153 30.4417,37.1153 L19.6317,47.0393 C19.6317,47.0393 20.2377,47.0243 26.3907,48.0943" id="Fill-28" fill="#3C463B"></path>
            <path d="M41.4048,15.6001 C41.4048,15.6001 45.4978,14.4541 47.2798,19.8001 C50.0158,28.0051 49.7738,35.5311 49.3948,37.1351 C49.2188,37.8711 48.6938,40.4221 44.1178,40.5211 C42.2628,40.5611 43.0038,36.5851 43.0038,36.5851 C43.0038,36.5851 41.8138,33.2111 40.5478,27.4981 C39.2808,21.7871 41.4048,15.6001 41.4048,15.6001" id="Fill-30" fill="#B0BFDE"></path>
            <path d="M44.6446,16.062 L34.1446,12.666 L26.1946,12.131 L17.4876,14.767 C17.4876,14.767 14.6386,16.732 17.2826,23.043 C19.9296,29.358 18.9116,39.249 18.9116,39.249 L41.3786,39.969 C41.3786,39.969 41.8036,30.826 43.2916,21.677 C43.6246,19.637 43.6646,17.235 44.6446,16.062" id="Fill-32" fill="#BCD0E2"></path>
            <path d="M29.232,39.5279 L30.378,39.5279 C31.574,30.6959 31.518,21.5869 30.201,12.7889 C29.855,12.9959 29.509,13.2029 29.164,13.4059 C29.454,22.4039 28.96,31.4029 29.232,39.5279" id="Fill-34" fill="#B0BFDE"></path>
            <path d="M33.6968,15.1411 C33.5418,16.3541 32.5488,17.4091 31.5068,17.4571 L28.5378,17.4571 C27.4948,17.4091 26.5028,16.3541 26.3498,15.1411 C26.1078,13.1381 25.8618,11.1391 25.6218,9.1341 C25.4588,7.9331 26.1698,5.5261 27.7508,4.8101 C29.1948,4.1781 30.8508,4.1781 32.2958,4.8101 C33.8748,5.5231 34.5888,7.9331 34.4238,9.1341 C34.1818,11.1391 33.9398,13.1381 33.6968,15.1411" id="Fill-36" fill="#EDEEF0"></path>
            <polygon id="Fill-38" fill="#B0BFDE" points="29.9029 17.606 28.0209 20.698 24.5669 16.379 25.1109 14.108 26.2289 13.187 26.2449 14.896"></polygon>
            <polygon id="Fill-40" fill="#B0BFDE" points="30.1329 17.606 32.0179 20.698 35.2319 16.674 34.7049 14.207 33.8969 13.17 33.5719 15.191"></polygon>
            <g id="Group-44" transform="translate(24.000000, 0.583000)">
                <mask id="mask-4" fill="white">
                    <use xlink:href="#path-3"></use>
                </mask>
                <g id="Clip-43"></g>
                <path d="M5.5748,0.4165 C4.7408,0.4165 4.0088,0.8445 3.5858,1.4905 L2.7718,1.4905 C1.7548,1.4905 0.9288,2.3155 0.9288,3.3335 L0.9288,7.8775 L2.2248,7.8775 L2.2248,6.0285 C2.2248,5.3125 2.8068,4.7335 3.5208,4.7335 L4.2768,4.7335 L3.0788,4.7335 L3.8698,4.7335 C5.1838,4.7335 6.2458,3.6705 6.2458,2.3585 L6.2458,0.4165 L5.5748,0.4165 Z" id="Fill-42" fill="#163F59" mask="url(#mask-4)"></path>
            </g>
            <path d="M27.2798,10.1529 C27.2798,10.7759 26.7738,11.2809 26.1518,11.2809 L26.0578,11.2809 C25.4348,11.2809 24.9288,10.7759 24.9288,10.1529 L24.9288,8.7839 C24.9288,8.1649 25.4348,7.6579 26.0578,7.6579 L26.1518,7.6579 C26.6128,7.6579 27.0088,7.9359 27.1838,8.3329" id="Fill-45" fill="#E4EEF3"></path>
            <g id="Group-49" transform="translate(28.000000, 0.583000)">
                <mask id="mask-6" fill="white">
                    <use xlink:href="#path-5"></use>
                </mask>
                <g id="Clip-48"></g>
                <path d="M0.5645,2.2242 L0.5645,0.4162 L1.3115,0.4162 L3.2775,0.4162 L4.4645,0.4162 C5.7765,0.4162 6.8405,1.4812 6.8405,2.7922 L6.8405,4.5962 L6.0915,4.5962 L4.1275,4.5962 L2.9395,4.5962 C1.6265,4.5962 0.5645,3.5342 0.5645,2.2242" id="Fill-47" fill="#163F59" mask="url(#mask-6)"></path>
            </g>
            <path d="M34.5035,11.8794 C34.5005,12.8224 33.7795,14.4244 32.5835,14.9284 C30.9575,15.6004 29.0335,15.6004 27.4105,14.9284 C26.2105,14.4244 25.4945,12.8244 25.4865,11.8794 L25.4865,3.8404 C25.4815,2.8904 26.4275,2.0914 27.6005,2.0664 L32.3935,2.0664 C33.5635,2.0894 34.5135,2.8884 34.5035,3.8404 L34.5035,11.8794 Z" id="Fill-50" fill="#FFFFFF"></path>
            <g id="Group-54" transform="translate(28.000000, 0.583000)">
                <mask id="mask-8" fill="white">
                    <use xlink:href="#path-7"></use>
                </mask>
                <g id="Clip-53"></g>
                <path d="M2.92,0.4165 C3.75,0.4165 4.481,0.8445 4.906,1.4905 L5.722,1.4905 C6.737,1.4905 7.56,2.3155 7.56,3.3335 L7.56,7.8775 L6.265,7.8775 L6.265,6.0285 C6.265,5.3125 5.685,4.7335 4.971,4.7335 L4.959,4.7335 L5.413,4.7335 L3.318,4.7335 C2.006,4.7335 0.941,3.6705 0.941,2.3585 L0.941,0.4165 L2.92,0.4165 Z" id="Fill-52" fill="#163F59" mask="url(#mask-8)"></path>
            </g>
            <path d="M33.2334,8.7827 C33.2334,8.1627 33.7354,7.6577 34.3574,7.6577 L34.4534,7.6577 C35.0754,7.6577 35.5784,8.1627 35.5784,8.7827 L35.5784,10.1497 C35.5784,10.7757 35.0754,11.2807 34.4534,11.2807 L34.3574,11.2807 C33.8974,11.2807 33.5024,11.0027 33.3264,10.6077" id="Fill-55" fill="#FFFFFF"></path>
            <path d="M28.9415,3.271 C28.9715,3.123 28.9885,2.968 28.9885,2.807 L28.9885,1 L28.2405,1 L27.3055,1 C25.9935,1 24.9295,2.064 24.9295,3.375 L24.9295,5.179 L25.4255,5.179 L25.6785,5.179 L26.6155,5.179 C26.7785,5.179 26.9445,5.163 27.1025,5.128 C27.2865,4.2 28.0135,3.466 28.9415,3.271" id="Fill-57" fill="#163F59"></path>
            <path d="M8.0904,78.5454 C7.8464,78.8414 8.0274,79.6224 8.0274,79.6224 C8.0274,79.6224 12.3144,80.1014 13.6904,79.7764 C14.0494,79.6914 14.6564,79.3814 15.2254,79.0584 C15.3214,79.0014 15.4944,78.6734 15.5864,78.6174 C15.7574,78.5144 15.8474,78.6864 15.9934,78.5944 C16.3774,78.3564 16.6464,78.1644 16.6524,78.1414 C17.0264,76.1754 16.5264,75.3854 16.5264,75.3854 C16.5264,75.3854 12.8764,74.1704 12.1944,75.0144 C10.5814,77.0084 8.6294,77.8934 8.0904,78.5454" id="Fill-59" fill="#161711"></path>
            <path d="M48.1539,76.4068 L48.4509,79.6448 L51.6949,79.9618 C51.6949,79.9618 51.9189,79.5278 52.1949,79.5548 C52.4229,79.5788 52.6789,80.0568 52.9919,80.0868 C53.6749,80.1578 54.4329,80.2278 54.7329,80.2578 C55.3429,80.3188 61.2379,80.8948 61.2379,80.8948 C61.2379,80.8948 61.4519,80.2398 61.2929,79.9938 C61.2139,79.8668 60.6929,79.6048 60.3409,79.4698 C58.7119,78.8378 54.0649,76.8958 53.3839,75.2168 C52.5629,73.1708 48.1539,76.4068 48.1539,76.4068" id="Fill-61" fill="#161711"></path>
            <path d="M43.252,35.4116 L32.291,39.8866 C32.291,39.8866 40.067,40.9956 44.928,40.0076 C48.215,39.3346 43.404,35.2676 43.252,35.4116" id="Fill-63" fill="#FFFFFF"></path>
            <path d="M18.3731,42.231 C18.3731,42.231 17.3161,52.24 17.4701,57.531 C17.5811,61.523 17.5931,69.172 16.6411,75.691 C16.5841,76.091 11.4841,75.79 11.4841,75.79 C11.4841,75.79 9.6551,50.975 9.1111,46.891 C8.5721,42.802 10.1511,39.854 18.3731,42.231" id="Fill-65" fill="#3C463B"></path>
            <path d="M50.4395,44.645 C50.4395,44.645 48.7965,47.24 44.2905,47.851 C42.6615,48.074 46.9165,76.899 46.9165,76.899 L53.5765,74.766 L52.2885,42.891 L50.4395,44.645 Z" id="Fill-67" fill="#323B31"></path>
            <path d="M32.0699,47.8511 C32.0699,47.8511 23.3649,49.0951 17.5559,49.7041 C15.4259,49.9281 13.5809,43.9611 13.3339,43.7041 C11.7789,42.0771 10.2439,42.2841 10.2979,42.2241 C11.5559,40.8621 18.0759,39.5991 24.8879,38.0001 C31.6989,36.4041 32.7369,37.4121 32.7369,37.4121 L32.0699,47.8511 Z" id="Fill-69" fill="#323B31"></path>
            <path d="M24.8882,38.0005 C18.0762,39.5995 11.5552,40.8615 10.2982,42.2245 C10.2442,42.2835 11.7792,42.0765 13.3332,43.7035 C13.4032,43.7765 13.7912,45.6885 14.0752,46.3725 C12.9642,44.3725 28.9722,38.7285 32.4312,37.2665 C31.7882,37.0625 29.9032,36.8265 24.8882,38.0005" id="Fill-71" fill="#3C463B"></path>
            <polygon id="Fill-73" fill="#323B31" points="17.4087 47.7779 16.7427 67.2569 16.0727 71.7709 16.0007 67.2569 16.1477 64.4409 14.5927 60.0739 13.7797 49.9279 14.9647 50.3699 14.8147 45.9249"></polygon>
            <path d="M50.2149,42.2241 L51.8439,42.6691 L52.4369,66.0701 L49.0289,74.4371 L50.6579,68.7371 L49.9929,56.9621 C49.9929,56.9621 47.6229,62.6611 47.6229,62.3691 C47.6229,62.0701 49.6229,49.9981 49.6229,49.9981 C49.6229,49.9981 47.3989,51.8521 47.6229,51.7751 C47.8429,51.7031 48.9579,43.3321 50.2149,42.2241" id="Fill-75" fill="#3C463B"></path>
            <path d="M22.2999,14.8628 C22.2999,14.8628 18.8009,12.1218 15.3769,17.2108 C10.3609,24.6658 8.1839,32.5958 7.3839,34.8908 C6.7759,36.6538 7.1119,41.6288 9.1609,43.6818 C9.6549,44.1748 12.6179,43.7778 12.6179,43.7778 L14.5639,42.4328 L13.7479,40.8688 L13.7039,39.6338 C13.7039,39.6338 16.1909,33.6348 19.2459,27.9628 C22.2999,22.2958 22.2999,14.8628 22.2999,14.8628" id="Fill-77" fill="#BCD0E2"></path>
            <path d="M13.7461,37.6587 L25.1031,38.2537 C25.1031,38.2537 14.1651,43.2717 13.8041,42.4077 C11.7511,37.5037 13.7461,37.6587 13.7461,37.6587" id="Fill-79" fill="#FFFFFF"></path>
            <path d="M19.9976,37.3111 C20.6606,36.9911 20.6016,36.9871 20.6016,36.9871 C20.6016,36.9871 21.2076,37.7071 22.0866,37.8411 C22.5216,37.9081 23.9306,37.9261 23.9306,37.9261 L26.0226,37.9781 L26.9926,37.9241 C26.9926,37.9241 27.5406,37.8521 27.6866,37.9471 C28.1096,38.2161 27.7476,38.4331 27.7476,38.4331 L23.9996,38.9651 L27.6036,39.4121 C27.6036,39.4121 28.0556,39.5451 28.0766,39.7901 C28.0946,40.0191 27.9446,40.0111 27.9446,40.0111 L23.7586,40.4611 L25.5946,40.8951 C25.5946,40.8951 26.0336,41.0361 26.0666,41.2761 C26.1026,41.5341 26.1196,41.6071 26.1196,41.6071 L22.2706,41.2281 C22.2706,41.2281 19.3316,37.6311 19.9976,37.3111" id="Fill-81" fill="#FFFFFF"></path>
            <path d="M24.1504,39.6284 L26.6714,40.0874 C26.6714,40.0874 27.2444,40.1284 27.4994,40.3134 C27.7924,40.5244 27.6204,40.7824 27.6204,40.7824 L23.7584,40.4614 L24.1504,39.6284 Z" id="Fill-83" fill="#FFFFFF"></path>
            <path d="M39.9449,41.6099 C39.9479,41.6019 39.9539,41.5929 39.9579,41.5869 L39.9449,40.8689 L17.5629,40.8689 L17.5629,41.5869 C17.5629,41.5869 17.5609,41.6019 17.5629,41.6099 L17.6389,41.7449 C18.0199,42.3659 18.7049,42.4769 19.4869,42.4769 L38.0189,42.4769 C38.8019,42.4769 39.4859,42.3659 39.8669,41.7449 L39.9449,41.6099 Z" id="Fill-85" fill="#B6C2C9"></path>
            <mask id="mask-10" fill="white">
                <use xlink:href="#path-9"></use>
            </mask>
            <g id="Clip-88"></g>
            <polygon id="Fill-87" fill="#879BA6" mask="url(#mask-10)" points="21.349 41.541 36.169 41.541 36.169 41.036 21.349 41.036"></polygon>
            <path d="M39.9278,40.9478 L39.9898,26.2728 C39.9918,25.8858 39.6818,25.5748 39.2918,25.5748 L18.3448,25.5748 C17.9548,25.5748 17.6418,25.8858 17.6408,26.2728 L17.5818,40.9478 L39.9278,40.9478 Z" id="Fill-89" fill="#E4EEF3" mask="url(#mask-10)"></path>
            <path d="M30.1426,33.2603 C30.1416,34.0073 29.5286,34.6163 28.7816,34.6163 C28.0306,34.6163 27.4276,34.0073 27.4306,33.2603 C27.4336,32.5113 28.0436,31.9063 28.7926,31.9063 C29.5416,31.9063 30.1466,32.5113 30.1426,33.2603" id="Fill-90" fill="#B6C2C9" mask="url(#mask-10)"></path>
            <polygon id="Fill-91" fill="#B0BFDE" mask="url(#mask-10)" points="12.2701 43.3325 11.4911 38.3535 12.7871 37.0225 15.6551 37.4805 15.0671 42.9945"></polygon>
            <polygon id="Fill-92" fill="#BCD0E2" mask="url(#mask-10)" points="47.1021 39.7593 47.3991 37.9293 43.7721 34.6703 41.8091 35.5573 44.3751 40.4713"></polygon>
        </g>
    </g>
</svg>