<?xml version="1.0" encoding="UTF-8"?>
<svg width="76px" height="72px" viewBox="0 0 76 72" version="1.1" xmlns="http://www.w3.org/2000/svg" xmlns:xlink="http://www.w3.org/1999/xlink">
    <!-- Generator: Sketch 48 (47235) - http://www.bohemiancoding.com/sketch -->
    <title>noun_774056_cc</title>
    <desc>Created with Sketch.</desc>
    <defs></defs>
    <g id="Page-1" stroke="none" stroke-width="1" fill="none" fill-rule="evenodd">
        <g id="noun_774056_cc" transform="translate(0.000000, -1.000000)" fill="#000000" fill-rule="nonzero">
            <g id="Group" transform="translate(0.000000, 0.637820)">
                <path d="M2e-06,0.36217 L2e-06,22.3622 L22.000002,22.3622 L22.000002,0.36217 L2e-06,0.36217 Z M26.000002,0.36217 L26.000002,22.3622 L75.999998,22.3622 L75.999998,0.36217 L26.000002,0.36217 Z M2e-06,26.3622 L2e-06,46.3622 L22.000002,46.3622 L22.000002,26.3622 L2e-06,26.3622 Z M26.000002,26.3622 L26.000002,46.3622 L75.999998,46.3622 L75.999998,26.3622 L26.000002,26.3622 Z M2e-06,50.3622 L2e-06,72.3622 L22.000002,72.3622 L22.000002,50.3622 L2e-06,50.3622 Z M26.000002,50.3622 L26.000002,72.3622 L75.999998,72.3622 L75.999998,50.3622 L26.000002,50.3622 Z" id="Shape"></path>
            </g>
        </g>
    </g>
</svg>