<?xml version="1.0" encoding="UTF-8"?>
<svg width="98px" height="97px" viewBox="0 0 98 97" version="1.1" xmlns="http://www.w3.org/2000/svg" xmlns:xlink="http://www.w3.org/1999/xlink">
    <!-- Generator: Sketch 48 (47235) - http://www.bohemiancoding.com/sketch -->
    <title>noun_801657_cc</title>
    <desc>Created with Sketch.</desc>
    <defs></defs>
    <g id="Page-1" stroke="none" stroke-width="1" fill="none" fill-rule="evenodd">
        <g id="noun_801657_cc" fill="#000000" fill-rule="nonzero">
            <path d="M94.6,24.6 C94.6,24.6 91.5,9.8 78.1,4.6 C71.8,2.1 60.3,1 49,0.9 C37.7,1 26.2,2.1 19.9,4.5 C6.5,9.7 3.4,24.5 3.4,24.5 C1.4,32.9 0.7,41.4 0.8,48.9 C0.7,56.4 1.3,65 3.4,73.3 C3.4,73.3 6.5,88.1 19.9,93.3 C26.2,95.7 37.7,96.9 49,97 C60.3,96.9 71.8,95.8 78.1,93.3 C91.5,88.1 94.6,73.3 94.6,73.3 C96.6,64.9 97.3,56.4 97.2,48.9 C97.3,41.5 96.7,32.9 94.6,24.6 Z M69.4,69.1 L28.6,69.1 L28.6,63 L69.5,63 L69.5,69.1 L69.4,69.1 Z M69.4,51.7 L28.6,51.7 L28.6,45.6 L69.5,45.6 L69.5,51.7 L69.4,51.7 Z M69.4,35 L28.6,35 L28.6,28.9 L69.5,28.9 L69.5,35 L69.4,35 Z" id="Shape"></path>
        </g>
    </g>
</svg>