<?xml version="1.0" encoding="UTF-8"?>
<svg width="43px" height="32px" viewBox="0 0 43 32" version="1.1" xmlns="http://www.w3.org/2000/svg" xmlns:xlink="http://www.w3.org/1999/xlink">
    <!-- Generator: Sketch 48 (47235) - http://www.bohemiancoding.com/sketch -->
    <title>noun_948807_cc</title>
    <desc>Created with Sketch.</desc>
    <defs></defs>
    <g id="Page-1" stroke="none" stroke-width="1" fill="none" fill-rule="evenodd">
        <g id="noun_948807_cc" fill="#000000" fill-rule="nonzero">
            <g id="Group" transform="translate(0.042415, 0.003610)">
                <path d="M8.132585,28.796392 L8.132585,25.671392 L25.53884,25.671392 L42.94509,25.671392 L42.94509,28.796392 L42.94509,31.921392 L25.53884,31.921392 L8.132585,31.921392 L8.132585,28.796392 Z M0.007585,28.733892 L0.007585,25.608892 L3.132585,25.608892 L6.257585,25.608892 L6.257585,28.733892 L6.257585,31.858892 L3.132585,31.858892 L0.007585,31.858892 L0.007585,28.733892 Z M8.132585,16.046391 L8.132585,12.921391 L21.57009,12.921391 L35.00759,12.921391 L35.00759,16.046391 L35.00759,19.171391 L21.57009,19.171391 L8.132585,19.171391 L8.132585,16.046391 Z M0.007585,15.983891 L0.007585,12.858891 L3.132585,12.858891 L6.257585,12.858891 L6.257585,15.983891 L6.257585,19.108891 L3.132585,19.108891 L0.007585,19.108891 L0.007585,15.983891 Z M8.132585,3.23389 L8.132585,0.10889 L25.53884,0.10889 L42.94509,0.10889 L42.94509,3.23389 L42.94509,6.35889 L25.53884,6.35889 L8.132585,6.35889 L8.132585,3.23389 Z M0.007585,3.17139 L0.007585,0.04639 L3.132585,0.04639 L6.257585,0.04639 L6.257585,3.17139 L6.257585,6.29639 L3.132585,6.29639 L0.007585,6.29639 L0.007585,3.17139 Z" id="Shape"></path>
            </g>
        </g>
    </g>
</svg>