<?xml version="1.0" encoding="UTF-8"?>
<svg width="81px" height="81px" viewBox="0 0 81 81" version="1.1" xmlns="http://www.w3.org/2000/svg" xmlns:xlink="http://www.w3.org/1999/xlink">
    <!-- Generator: Sketch 48 (47235) - http://www.bohemiancoding.com/sketch -->
    <title>noun_480037_cc</title>
    <desc>Created with Sketch.</desc>
    <defs></defs>
    <g id="Page-1" stroke="none" stroke-width="1" fill="none" fill-rule="evenodd">
        <g id="noun_480037_cc" fill="#000000" fill-rule="nonzero">
            <g id="Group">
                <path d="M72.95,3.41 C75.643,3.41 77.836,5.601 77.836,8.295 L77.836,73.639 C77.836,76.333 75.644,78.524 72.95,78.524 L7.606,78.524 C4.913,78.524 2.72,76.333 2.72,73.639 L2.72,8.295 C2.72,5.601 4.912,3.41 7.606,3.41 L72.95,3.41 Z M72.95,0.967 L7.606,0.967 C3.558,0.967 0.278,4.248 0.278,8.295 L0.278,73.639 C0.278,77.686 3.558,80.967 7.606,80.967 L72.95,80.967 C76.997,80.967 80.278,77.686 80.278,73.639 L80.278,8.295 C80.278,4.248 76.997,0.967 72.95,0.967 Z" id="Shape"></path>
                <path d="M64.036,28.162 C64.036,28.937 63.408,29.565 62.634,29.565 L17.644,29.565 C16.869,29.565 16.241,28.937 16.241,28.162 C16.241,27.387 16.869,26.759 17.644,26.759 L62.634,26.759 C63.408,26.759 64.036,27.387 64.036,28.162 Z" id="Shape"></path>
                <path d="M64.315,40.967 C64.315,41.742 63.687,42.37 62.913,42.37 L17.923,42.37 C17.148,42.37 16.52,41.742 16.52,40.967 C16.52,40.192 17.148,39.564 17.923,39.564 L62.913,39.564 C63.688,39.564 64.315,40.192 64.315,40.967 Z" id="Shape"></path>
                <path d="M64.315,53.773 C64.315,54.548 63.687,55.176 62.913,55.176 L17.923,55.176 C17.148,55.176 16.52,54.548 16.52,53.773 C16.52,52.998 17.148,52.37 17.923,52.37 L62.913,52.37 C63.688,52.37 64.315,52.998 64.315,53.773 Z" id="Shape"></path>
            </g>
        </g>
    </g>
</svg>