<?xml version="1.0" encoding="UTF-8"?>
<svg width="150px" height="20px" viewBox="0 0 150 20" version="1.1" xmlns="http://www.w3.org/2000/svg" xmlns:xlink="http://www.w3.org/1999/xlink">
    <!-- Generator: Sketch 48 (47235) - http://www.bohemiancoding.com/sketch -->
    <title>codewhile_red</title>
    <desc>Created with Sketch.</desc>
    <defs></defs>
    <g id="codewhile_light" stroke="none" stroke-width="1" fill="none" fill-rule="evenodd">
        <g id="codewhile_red" fill-rule="nonzero">
            <path d="M11.64,5.76 C11.2916464,4.93189055 10.7002739,4.22893835 9.944,3.744 L5.944,3.744 C5.46593135,4.1054035 5.04518663,4.53693654 4.696,5.024 L4.696,14.56 C5.01645865,15.0445123 5.44330374,15.4494679 5.944,15.744 L10.008,15.744 C10.68476,15.2385805 11.2329048,14.5808068 11.608,13.824 L15.256,14.72 C14.9916918,15.4505428 14.6253983,16.1400363 14.168,16.768 C13.368,17.856 11.896,19.488 9.944,19.488 L5.752,19.488 C5.00822557,19.4651865 4.28205961,19.2561387 3.64,18.88 C2.76596809,18.2178191 1.98320241,17.4431232 1.312,16.576 C0.951311041,15.9774295 0.763048969,15.2908266 0.768,14.592 L0.768,4.896 C0.739046677,4.19423735 0.929167981,3.50085377 1.312,2.912 C1.99520779,2.04471267 2.7885587,1.27018704 3.672,0.608 C4.30665256,0.241718881 5.01998695,0.0332057517 5.752,2.84217094e-14 L9.944,2.84217094e-14 C11.896,2.84217094e-14 13.368,1.6 14.136,2.688 C14.5903988,3.317835 14.956462,4.00689516 15.224,4.736 L11.64,5.76 Z" id="Shape" fill="#D4145A"></path>
            <path d="M32.824,16.544 C32.1528644,17.4232452 31.3672452,18.2088644 30.488,18.88 C29.8464873,19.2574124 29.1199884,19.466556 28.376,19.488 L23.512,19.488 C22.767302,19.471157 22.0396673,19.2616864 21.4,18.88 C20.5156881,18.2173519 19.7316105,17.43058 19.072,16.544 C18.6930046,15.9534303 18.5032219,15.2612818 18.528,14.56 L18.528,4.96 C18.4992114,4.24821536 18.6890538,3.54468159 19.072,2.944 C19.7412024,2.07510827 20.5242204,1.30016261 21.4,0.64 C22.0396673,0.258313644 22.767302,0.0488430478 23.512,0.032 L28.376,0.032 C29.1199884,0.0534440309 29.8464873,0.262587636 30.488,0.64 C31.3588034,1.30861031 32.1434428,2.0825012 32.824,2.944 C33.2069462,3.54468159 33.3967886,4.24821536 33.368,4.96 L33.368,14.56 C33.3927781,15.2612818 33.2029954,15.9534303 32.824,16.544 Z M29.472,4.928 C29.1639936,4.46591693 28.7734727,4.06454826 28.32,3.744 L23.616,3.744 C23.1668416,4.09245337 22.7683541,4.50171088 22.432,4.96 L22.432,14.56 C22.7577086,15.0074691 23.1456206,15.4061565 23.584,15.744 L28.288,15.744 C28.7221466,15.3908933 29.1188933,14.9941466 29.472,14.56 L29.472,4.928 Z" id="Shape" fill="#D4145A"></path>
            <path d="M50.904,16.472 C50.227022,17.3495355 49.4172859,18.1160856 48.504,18.744 C47.8776844,19.1026606 47.1765635,19.3108058 46.456,19.352 L37.184,19.352 L37.184,0.152 L46.488,0.152 C47.2305395,0.153927998 47.9592948,0.352679451 48.6,0.728 C49.4527158,1.4078473 50.2160969,2.19273216 50.872,3.064 C51.2614032,3.64988313 51.4521206,4.34544098 51.416,5.048 L51.416,14.52 C51.424382,15.20492 51.2474769,15.8793709 50.904,16.472 Z M47.512,5.208 C47.2874105,4.64284952 46.8672114,4.17722344 46.328,3.896 L41.08,3.896 L41.08,15.608 L46.328,15.608 C46.8352488,15.3300053 47.2476283,14.9064803 47.512,14.392 L47.512,5.208 Z" id="Shape" fill="#D4145A"></path>
            <polygon id="Shape" fill="#D4145A" points="55.224 19.328 55.224 0.128 67.872 0.128 67.872 3.872 59.128 3.872 59.128 7.808 67.544 7.808 67.544 11.552 59.128 11.552 59.128 15.552 67.872 15.552 67.872 19.296"></polygon>
            <path d="M88.728,19.328 L84.536,19.328 L81.752,8.128 C80.856,11.84 79.896,15.648 79,19.328 L74.808,19.328 L70.424,0.128 L74.424,0.128 L76.952,11.968 C77.848,8.064 78.84,3.968 79.736,0.128 L83.736,0.128 L86.52,11.968 C87.32,8.064 88.184,3.968 89.016,0.128 L93.176,0.128 L88.728,19.328 Z" id="Shape" fill="#F4F4F4"></path>
            <polygon id="Shape" fill="#F4F4F4" points="105.784 19.328 105.784 11.584 99.384 11.584 99.384 19.328 95.48 19.328 95.48 0.128 99.384 0.128 99.384 7.84 105.784 7.84 105.784 0.128 109.688 0.128 109.688 19.328"></polygon>
            <polygon id="Shape" fill="#F4F4F4" points="113.752 19.328 113.752 0.128 117.688 0.128 117.688 19.328"></polygon>
            <polygon id="Shape" fill="#F4F4F4" points="121.784 19.328 121.784 0.128 125.688 0.128 125.688 15.552 134.2 15.552 134.2 19.328"></polygon>
            <polygon id="Shape" fill="#F4F4F4" points="136.792 19.328 136.792 0.128 149.4 0.128 149.4 3.872 140.672 3.872 140.672 7.808 149.088 7.808 149.088 11.552 140.672 11.552 140.672 15.552 149.376 15.552 149.376 19.296"></polygon>
        </g>
    </g>
</svg>