<?xml version="1.0" encoding="UTF-8"?>
<svg width="155px" height="30px" viewBox="0 0 155 30" version="1.1" xmlns="http://www.w3.org/2000/svg" xmlns:xlink="http://www.w3.org/1999/xlink">
    <!-- Generator: Sketch 48 (47235) - http://www.bohemiancoding.com/sketch -->
    <title>Group 2</title>
    <desc>Created with Sketch.</desc>
    <defs>
        <linearGradient x1="100%" y1="50%" x2="0%" y2="50%" id="linearGradient-1">
            <stop stop-color="#EE0979" offset="0%"></stop>
            <stop stop-color="#FF6A00" offset="100%"></stop>
        </linearGradient>
    </defs>
    <g id="Page-1" stroke="none" stroke-width="1" fill="none" fill-rule="evenodd">
        <g id="Group-2">
            <g id="noun_964207_cc" fill="url(#linearGradient-1)" fill-rule="nonzero">
                <g id="Group">
                    <path d="M0,0 L0,5.00095369 L30,5.00095369 L30,0 L0,0 Z M3.74801638,3.12595369 L2.49801638,3.12595369 L2.49801638,1.87595369 L3.74801638,1.87595369 L3.74801638,3.12595369 Z M6.24801637,3.12595369 L4.99801637,3.12595369 L4.99801637,1.87595369 L6.24801637,1.87595369 L6.24801637,3.12595369 Z M8.74801637,3.12595369 L7.49801637,3.12595369 L7.49801637,1.87595369 L8.74801637,1.87595369 L8.74801637,3.12595369 Z" id="Shape"></path>
                    <circle id="Oval" cx="9.37296869" cy="21.2508964" r="2.03866006"></circle>
                    <path d="M0,30 L30,30 L30,6.25095369 L0,6.25095369 L0,30 Z M23.2225037,9.900856 L24.1062927,9.01706694 L27.7568054,12.6675796 L24.1062927,16.3180923 L23.2225037,15.4343032 L25.9892273,12.6675796 L23.2225037,9.900856 Z M23.0351257,8.32126619 L18.9097596,18.404274 L17.752533,17.9306412 L21.8778992,7.84763338 L23.0351257,8.32126619 Z M17.1391296,9.01706694 L18.0229187,9.900856 L15.2568054,12.6675796 L18.0229187,15.4343032 L17.1391296,16.3180923 L13.4892272,12.6675796 L17.1391296,9.01706694 Z M3.12297819,20.4356766 L4.60052487,20.1893997 C4.72537994,19.6258926 4.94808194,19.1002655 5.24887081,18.6283492 L4.37709806,17.4079513 L5.530014,16.2550354 L6.75048825,17.1267319 C7.22240444,16.8260193 7.74795531,16.6032791 8.3115005,16.4784622 L8.55777737,15.0009156 L10.188179,15.0009156 L10.4344177,16.4784622 C10.9979629,16.6032791 11.5235519,16.8260193 11.9954681,17.1267319 L13.2159424,16.2550354 L14.3688583,17.4079513 L13.4970856,18.6283492 C13.7978744,19.1002654 14.0205764,19.6258926 14.1454315,20.1893997 L15.6229782,20.4356766 L15.6229782,22.0661163 L14.1454315,22.312355 C14.0205764,22.8759003 13.7978744,23.4014892 13.4970856,23.8734436 L14.3688583,25.0938797 L13.2159424,26.2467194 L11.9954681,25.3750229 C11.5235519,25.6758118 10.9979629,25.8985138 10.4344177,26.0233307 L10.188179,27.5009155 L8.55777737,27.5009155 L8.3115005,26.0233307 C7.74795525,25.8985138 7.22240444,25.6758118 6.75048825,25.3750229 L5.530014,26.2467194 L4.37709806,25.0938797 L5.24887081,23.8734436 C4.94808194,23.4014892 4.72537994,22.8759003 4.60052487,22.312355 L3.12297819,22.0661163 L3.12297819,20.4356766 Z" id="Shape"></path>
                </g>
            </g>
            <path d="M50.6163522,23.9685535 C49.7358491,24.6477987 48.4779874,25 46.8176101,25 C42.1383648,25 40,20.7735849 40,16.0943396 C40,11.490566 42.1886792,7.18867925 46.8427673,7.18867925 C48.5283019,7.18867925 49.7358491,7.56603774 50.591195,8.19496855 L49.7610063,10.6603774 C49.2830189,10.3584906 48.6792453,10.1320755 47.7232704,10.1320755 C45.0566038,10.1320755 44.2012579,13.1006289 44.2012579,16.0691824 C44.2012579,19.0125786 45.1823899,21.8805031 47.6981132,21.8805031 C48.6540881,21.8805031 49.1320755,21.6792453 49.6855346,21.3522013 L50.6163522,23.9685535 Z M63.6981132,17.9559748 C63.6981132,22.0062893 61.6352201,25 57.7106918,25 C53.7861635,25 51.7232704,22.0062893 51.7232704,17.9559748 C51.7232704,13.9056604 53.7861635,10.9371069 57.6855346,10.9371069 C61.6352201,10.9371069 63.6981132,13.9056604 63.6981132,17.9559748 Z M59.7987421,17.9056604 C59.7987421,15.490566 59.4465409,13.3773585 57.7106918,13.3773585 C55.9748428,13.3773585 55.6226415,15.490566 55.6226415,17.9056604 C55.6226415,20.3459119 56,22.3333333 57.7106918,22.3333333 C59.4465409,22.3333333 59.7987421,20.3459119 59.7987421,17.9056604 Z M77.5597484,23.9937107 C76.327044,24.6477987 74.7169811,25 72.3773585,25 C68.2767296,25 65.7106918,22.5849057 65.7106918,18.0566038 C65.7106918,13.7044025 68.1761006,11.0377358 71.672956,11.0377358 C72.4779874,11.0377358 73.1572327,11.1383648 73.6603774,11.2641509 L73.6603774,5 L77.5597484,5 L77.5597484,23.9937107 Z M73.6603774,22.3081761 L73.6603774,13.3773585 C73.3333333,13.2767296 72.9811321,13.2264151 72.5786164,13.2264151 C70.4150943,13.2264151 69.5849057,15.0880503 69.5849057,17.8805031 C69.5849057,20.8238994 70.4654088,22.509434 72.4528302,22.509434 C72.9811321,22.509434 73.3836478,22.4591195 73.6603774,22.3081761 Z M91.8993711,18.1823899 L83.7735849,19.3396226 C84.0503145,21.327044 85.0566038,22.3081761 87.0440252,22.3081761 C88.6289308,22.3081761 89.836478,21.9559748 90.5660377,21.5786164 L91.4465409,24.0188679 C90.3899371,24.5471698 88.8805031,25 86.591195,25 C82.4402516,25 80.0503145,22.2578616 80.0503145,17.9308176 C80.0503145,13.6792453 82.2641509,10.9371069 86.163522,10.9371069 C90.0880503,10.9371069 92.0754717,13.6037736 91.8993711,18.1823899 Z M88.2515723,16.7232704 C88.2515723,14.3081761 87.4465409,13.2515723 86.0125786,13.2515723 C84.4025157,13.2515723 83.3962264,14.6352201 83.5220126,17.427673 L88.2515723,16.7232704 Z M112.301887,11.1886792 L108.578616,24.7484277 L104.955975,24.7484277 L103.018868,17.4025157 C102.792453,16.4968553 102.742138,15.5408805 102.742138,15.5408805 L102.716981,15.5408805 C102.716981,15.5408805 102.666667,16.4968553 102.415094,17.4025157 L100.427673,24.7484277 L96.8301887,24.7484277 L93.1069182,11.1886792 L97.0062893,11.1886792 L98.6415094,19.0125786 C98.8679245,20.1194969 98.8930818,20.9748428 98.8930818,20.9748428 L98.9433962,20.9748428 C98.9433962,20.9748428 98.9685535,20.1446541 99.2704403,19.0125786 L101.333333,11.1886792 L104.553459,11.1886792 L106.490566,19.0125786 C106.716981,19.9685535 106.81761,20.9748428 106.81761,20.9748428 L106.867925,20.9748428 C106.867925,20.9748428 106.893082,19.9685535 107.119497,18.9874214 L108.855346,11.1886792 L112.301887,11.1886792 Z M125.811321,24.7484277 L121.886792,24.7484277 L121.886792,15.3144654 C121.886792,14.2578616 121.408805,13.4025157 119.874214,13.4025157 C119.245283,13.4025157 118.742138,13.5031447 118.213836,13.7798742 L118.213836,24.7484277 L114.289308,24.7484277 L114.289308,5 L118.213836,5 L118.213836,11.6415094 C119.119497,11.2389937 120.075472,11.0125786 121.132075,11.0125786 C124.528302,11.0125786 125.811321,12.9748428 125.811321,15.2389937 L125.811321,24.7484277 Z M132.90566,7.28930818 C132.90566,8.32075472 131.974843,9.12578616 130.81761,9.12578616 C129.660377,9.12578616 128.72956,8.32075472 128.72956,7.28930818 C128.72956,6.28301887 129.660377,5.45283019 130.81761,5.45283019 C131.974843,5.45283019 132.90566,6.28301887 132.90566,7.28930818 Z M132.779874,24.7484277 L128.855346,24.7484277 L128.855346,11.1886792 L132.779874,11.1886792 L132.779874,24.7484277 Z M139.823899,24.7484277 L135.899371,24.7484277 L135.899371,5 L139.823899,5 L139.823899,24.7484277 Z M154.238994,18.1823899 L146.113208,19.3396226 C146.389937,21.327044 147.396226,22.3081761 149.383648,22.3081761 C150.968553,22.3081761 152.176101,21.9559748 152.90566,21.5786164 L153.786164,24.0188679 C152.72956,24.5471698 151.220126,25 148.930818,25 C144.779874,25 142.389937,22.2578616 142.389937,17.9308176 C142.389937,13.6792453 144.603774,10.9371069 148.503145,10.9371069 C152.427673,10.9371069 154.415094,13.6037736 154.238994,18.1823899 Z M150.591195,16.7232704 C150.591195,14.3081761 149.786164,13.2515723 148.352201,13.2515723 C146.742138,13.2515723 145.735849,14.6352201 145.861635,17.427673 L150.591195,16.7232704 Z" id="Codewhile" fill="#FFFFFF"></path>
        </g>
    </g>
</svg>