<?xml version="1.0" encoding="UTF-8"?>
<svg width="229px" height="42px" viewBox="0 0 229 42" version="1.1" xmlns="http://www.w3.org/2000/svg" xmlns:xlink="http://www.w3.org/1999/xlink">
    <!-- Generator: Sketch 48 (47235) - http://www.bohemiancoding.com/sketch -->
    <title>Group 2</title>
    <desc>Created with Sketch.</desc>
    <defs>
        <linearGradient x1="100%" y1="50%" x2="0%" y2="50%" id="linearGradient-1">
            <stop stop-color="#EE0979" offset="0%"></stop>
            <stop stop-color="#FF6A00" offset="100%"></stop>
        </linearGradient>
    </defs>
    <g id="Page-1" stroke="none" stroke-width="1" fill="none" fill-rule="evenodd">
        <g id="Group-2" transform="translate(1.000000, 1.000000)">
            <path d="M70.9245283,33.4528302 C69.6037736,34.4716981 67.7169811,35 65.2264151,35 C58.2075472,35 55,28.6603774 55,21.6415094 C55,14.7358491 58.2830189,8.28301887 65.2641509,8.28301887 C67.7924528,8.28301887 69.6037736,8.8490566 70.8867925,9.79245283 L69.6415094,13.490566 C68.9245283,13.0377358 68.0188679,12.6981132 66.5849057,12.6981132 C62.5849057,12.6981132 61.3018868,17.1509434 61.3018868,21.6037736 C61.3018868,26.0188679 62.7735849,30.3207547 66.5471698,30.3207547 C67.9811321,30.3207547 68.6981132,30.0188679 69.5283019,29.5283019 L70.9245283,33.4528302 Z M91.3396226,24.4339623 C91.3396226,30.509434 88.245283,35 82.3584906,35 C76.4716981,35 73.3773585,30.509434 73.3773585,24.4339623 C73.3773585,18.3584906 76.4716981,13.9056604 82.3207547,13.9056604 C88.245283,13.9056604 91.3396226,18.3584906 91.3396226,24.4339623 Z M85.490566,24.3584906 C85.490566,20.7358491 84.9622642,17.5660377 82.3584906,17.5660377 C79.754717,17.5660377 79.2264151,20.7358491 79.2264151,24.3584906 C79.2264151,28.0188679 79.7924528,31 82.3584906,31 C84.9622642,31 85.490566,28.0188679 85.490566,24.3584906 Z M112.132075,33.490566 C110.283019,34.4716981 107.867925,35 104.358491,35 C98.2075472,35 94.3584906,31.3773585 94.3584906,24.5849057 C94.3584906,18.0566038 98.0566038,14.0566038 103.301887,14.0566038 C104.509434,14.0566038 105.528302,14.2075472 106.283019,14.3962264 L106.283019,5 L112.132075,5 L112.132075,33.490566 Z M106.283019,30.9622642 L106.283019,17.5660377 C105.792453,17.4150943 105.264151,17.3396226 104.660377,17.3396226 C101.415094,17.3396226 100.169811,20.1320755 100.169811,24.3207547 C100.169811,28.7358491 101.490566,31.2641509 104.471698,31.2641509 C105.264151,31.2641509 105.867925,31.1886792 106.283019,30.9622642 Z M133.641509,24.7735849 L121.45283,26.509434 C121.867925,29.490566 123.377358,30.9622642 126.358491,30.9622642 C128.735849,30.9622642 130.54717,30.4339623 131.641509,29.8679245 L132.962264,33.5283019 C131.377358,34.3207547 129.113208,35 125.679245,35 C119.45283,35 115.867925,30.8867925 115.867925,24.3962264 C115.867925,18.0188679 119.188679,13.9056604 125.037736,13.9056604 C130.924528,13.9056604 133.90566,17.9056604 133.641509,24.7735849 Z M128.169811,22.5849057 C128.169811,18.9622642 126.962264,17.3773585 124.811321,17.3773585 C122.396226,17.3773585 120.886792,19.4528302 121.075472,23.6415094 L128.169811,22.5849057 Z M164.735849,14.2830189 L159.150943,34.6226415 L153.716981,34.6226415 L150.811321,23.6037736 C150.471698,22.245283 150.396226,20.8113208 150.396226,20.8113208 L150.358491,20.8113208 C150.358491,20.8113208 150.283019,22.245283 149.90566,23.6037736 L146.924528,34.6226415 L141.528302,34.6226415 L135.943396,14.2830189 L141.792453,14.2830189 L144.245283,26.0188679 C144.584906,27.6792453 144.622642,28.9622642 144.622642,28.9622642 L144.698113,28.9622642 C144.698113,28.9622642 144.735849,27.7169811 145.188679,26.0188679 L148.283019,14.2830189 L153.113208,14.2830189 L156.018868,26.0188679 C156.358491,27.4528302 156.509434,28.9622642 156.509434,28.9622642 L156.584906,28.9622642 C156.584906,28.9622642 156.622642,27.4528302 156.962264,25.9811321 L159.566038,14.2830189 L164.735849,14.2830189 Z M185,34.6226415 L179.113208,34.6226415 L179.113208,20.4716981 C179.113208,18.8867925 178.396226,17.6037736 176.09434,17.6037736 C175.150943,17.6037736 174.396226,17.754717 173.603774,18.1698113 L173.603774,34.6226415 L167.716981,34.6226415 L167.716981,5 L173.603774,5 L173.603774,14.9622642 C174.962264,14.3584906 176.396226,14.0188679 177.981132,14.0188679 C183.075472,14.0188679 185,16.9622642 185,20.3584906 L185,34.6226415 Z M195.641509,8.43396226 C195.641509,9.98113208 194.245283,11.1886792 192.509434,11.1886792 C190.773585,11.1886792 189.377358,9.98113208 189.377358,8.43396226 C189.377358,6.9245283 190.773585,5.67924528 192.509434,5.67924528 C194.245283,5.67924528 195.641509,6.9245283 195.641509,8.43396226 Z M195.45283,34.6226415 L189.566038,34.6226415 L189.566038,14.2830189 L195.45283,14.2830189 L195.45283,34.6226415 Z M206.018868,34.6226415 L200.132075,34.6226415 L200.132075,5 L206.018868,5 L206.018868,34.6226415 Z M227.641509,24.7735849 L215.45283,26.509434 C215.867925,29.490566 217.377358,30.9622642 220.358491,30.9622642 C222.735849,30.9622642 224.54717,30.4339623 225.641509,29.8679245 L226.962264,33.5283019 C225.377358,34.3207547 223.113208,35 219.679245,35 C213.45283,35 209.867925,30.8867925 209.867925,24.3962264 C209.867925,18.0188679 213.188679,13.9056604 219.037736,13.9056604 C224.924528,13.9056604 227.90566,17.9056604 227.641509,24.7735849 Z M222.169811,22.5849057 C222.169811,18.9622642 220.962264,17.3773585 218.811321,17.3773585 C216.396226,17.3773585 214.886792,19.4528302 215.075472,23.6415094 L222.169811,22.5849057 Z" id="Codewhile" fill="#000000"></path>
            <g id="noun_891321_cc">
                <rect id="Rectangle-path" x="0" y="0" width="40" height="40"></rect>
                <path d="M30.3004444,0.00577777778 L9.69955556,0.00577777778 C4.35466667,0.00577777778 0.00577777778,4.35422222 0.00577777778,9.69955556 L0.00577777778,30.3004444 C0.00577777778,35.6448889 4.35422222,39.9942222 9.69955556,39.9942222 L30.3004444,39.9942222 C35.6453333,39.9942222 39.9942222,35.6453333 39.9942222,30.3004444 L39.9942222,9.69955556 C39.9937778,4.35422222 35.6453333,0.00577777778 30.3004444,0.00577777778 Z M31.2417778,21.6008889 C31.0466667,22.8831111 30.6377778,24.1097778 30.0262222,25.2475556 C29.3937778,26.4253333 28.5608889,27.476 27.5511111,28.368 C26.4075556,29.3791111 25.0986667,30.1364444 23.6622222,30.6186667 C22.5013333,31.0084444 21.292,31.2062222 20.0688889,31.2062222 C19.8351111,31.2062222 19.5973333,31.1982222 19.3626667,31.1844444 C17.8964444,31.0942222 16.484,30.728 15.1648889,30.096 C13.7982222,29.4413333 12.592,28.5293333 11.5813333,27.3857778 C10.5702222,26.2417778 9.81288889,24.9333333 9.33066667,23.4968889 C8.86533333,22.1097778 8.67466667,20.6626667 8.76533333,19.1968889 C8.85555556,17.7311111 9.22177778,16.3182222 9.85377778,14.9991111 C10.5084444,13.6324444 11.4204444,12.4266667 12.564,11.4155556 C13.708,10.4044444 15.0164444,9.64711111 16.4528889,9.16488889 C17.6142222,8.77511111 18.8231111,8.57777778 20.0462222,8.57777778 C20.28,8.57777778 20.5182222,8.58533333 20.7528889,8.59955556 C22.2186667,8.68977778 23.6311111,9.056 24.9506667,9.688 C25.9088889,10.1466667 26.7937778,10.7373333 27.5862222,11.4453333 L27.5884444,8.14711111 C27.5888889,7.38266667 28.2106667,6.76133333 28.9746667,6.76133333 C29.7404444,6.76222222 30.3617778,7.38444444 30.3613333,8.14888889 L30.3555556,14.7386667 C30.3551111,15.5026667 29.7333333,16.124 28.9693333,16.124 L22.608,16.1208889 C22.2111111,16.1204444 21.8328889,15.9497778 21.5697778,15.652 C21.3453333,15.3986667 21.2222222,15.0724444 21.2222222,14.7337778 C21.2226667,13.9693333 21.8444444,13.348 22.6088889,13.348 L25.5484444,13.3493333 C24.0151111,12.0604444 22.0777778,11.3546667 20.0515556,11.3546667 C17.9666667,11.3546667 15.9591111,12.1142222 14.3995556,13.4933333 C10.8711111,16.6133333 10.5382222,22.0213333 13.6577778,25.5497778 C15.276,27.3795556 17.6102222,28.4297778 20.0617778,28.4297778 C22.1466667,28.4297778 24.1546667,27.6702222 25.7142222,26.2906667 C27.2106667,24.9675556 28.2,23.1533333 28.5004444,21.1831111 C28.6026667,20.5111111 29.1915556,20.0053333 29.8693333,20.0053333 C29.9391111,20.0053333 30.0097778,20.0106667 30.08,20.0208889 C30.8355556,20.1364444 31.3568889,20.8444444 31.2417778,21.6008889 Z" id="Shape" stroke="#FFFFFF" fill="url(#linearGradient-1)" fill-rule="nonzero"></path>
            </g>
        </g>
    </g>
</svg>