<svg id="Layer_1" data-name="Layer 1" xmlns="http://www.w3.org/2000/svg" viewBox="0 0 144.65 144.06">
  <defs>
    <style>
      .cls-1 {
        fill: #363636;
      }
    </style>
  </defs>
  <title>branding</title>
  <path class="cls-1" d="M390.06,320.89a75.52,75.52,0,0,1-8.39-.45,1.5,1.5,0,0,1-.75-2.66s2.87-2.58,5.36-12.77c3-12.23,29.89-9.12,31-9a1.5,1.5,0,0,1,.78,2.65c-.1.09-2.93,2.73-5.38,12.79C410.76,319.45,398.58,320.89,390.06,320.89Zm-5.36-3.17c8.25.59,23.35.18,25.1-7,1.52-6.26,3.22-9.93,4.49-12-8.25-.6-23.35-.18-25.1,7C387.66,312,386,315.64,384.7,317.72Z" transform="translate(-348.74 -201.14)"/>
  <path class="cls-1" d="M381.85,320.45a1.5,1.5,0,0,1-.78-2.78l35.29-21.44a1.5,1.5,0,1,1,1.55,2.57l-35.28,21.43A1.46,1.46,0,0,1,381.85,320.45Z" transform="translate(-348.74 -201.14)"/>
  <path class="cls-1" d="M400.5,315.55l-.23,0-8.2-1.3a1.5,1.5,0,0,1-1.25-1.72l1.3-8.19a1.5,1.5,0,1,1,3,.47L394,311.5l6.72,1.06a1.51,1.51,0,0,1-.24,3Z" transform="translate(-348.74 -201.14)"/>
  <path class="cls-1" d="M408.57,308.78a.86.86,0,0,1-.23,0l-6-.95a1.5,1.5,0,0,1-1.25-1.71l.95-6a1.5,1.5,0,1,1,3,.46l-.71,4.54,4.53.72a1.5,1.5,0,0,1-.23,3Z" transform="translate(-348.74 -201.14)"/>
  <path class="cls-1" d="M491.9,345.2H350.24a1.5,1.5,0,0,1-1.5-1.5V327a1.5,1.5,0,0,1,1.5-1.5H491.9a1.5,1.5,0,0,1,1.5,1.5V343.7A1.5,1.5,0,0,1,491.9,345.2Zm-140.16-3H490.4V328.52H351.74Z" transform="translate(-348.74 -201.14)"/>
  <path class="cls-1" d="M429.38,328.52H360.75a1.5,1.5,0,0,1-1.5-1.5v-83.5a1.5,1.5,0,1,1,3,0v82h67.13a1.5,1.5,0,0,1,0,3Z" transform="translate(-348.74 -201.14)"/>
  <path class="cls-1" d="M439,278.45a1.5,1.5,0,0,1-1.5-1.5V243.52a1.5,1.5,0,0,1,3,0V277A1.5,1.5,0,0,1,439,278.45Z" transform="translate(-348.74 -201.14)"/>
  <path class="cls-1" d="M475,234.62H458.76a1.5,1.5,0,0,1-1.5-1.5v-15.5a1.5,1.5,0,0,1,1.5-1.5H475a1.5,1.5,0,0,1,1.5,1.5v15.5A1.5,1.5,0,0,1,475,234.62Zm-14.74-3H473.5v-12.5H460.26Z" transform="translate(-348.74 -201.14)"/>
  <path class="cls-1" d="M384.23,249a1.65,1.65,0,0,1-.68-.16l-7.14-3.63-7.16,3.63a1.53,1.53,0,0,1-1.35,0l-7.83-4a1.5,1.5,0,0,1,1.36-2.68l7.15,3.63,7.15-3.63a1.46,1.46,0,0,1,1.35,0l7.15,3.63,7.15-3.63a1.48,1.48,0,0,1,1.36,0l7.14,3.63L407,242.2a1.48,1.48,0,0,1,1.36,0l7.15,3.63,7.15-3.63a1.46,1.46,0,0,1,1.35,0l7.16,3.63,7.16-3.63a1.5,1.5,0,0,1,1.35,2.68l-7.83,4a1.55,1.55,0,0,1-1.36,0l-7.15-3.63-7.15,3.63a1.55,1.55,0,0,1-1.36,0l-7.15-3.63-7.15,3.63a1.53,1.53,0,0,1-1.35,0l-7.15-3.63-7.15,3.63A1.65,1.65,0,0,1,384.23,249Z" transform="translate(-348.74 -201.14)"/>
  <path class="cls-1" d="M421.11,258.57a1.5,1.5,0,0,1-1.5-1.5V222.38a18.24,18.24,0,0,0-36.48,0v34.69a1.5,1.5,0,1,1-3,0V222.38a21.24,21.24,0,0,1,42.48,0v34.69A1.5,1.5,0,0,1,421.11,258.57Z" transform="translate(-348.74 -201.14)"/>
  <path class="cls-1" d="M381.63,266.65a5.54,5.54,0,1,1,5.54-5.54A5.54,5.54,0,0,1,381.63,266.65Zm0-8.08a2.54,2.54,0,1,0,2.54,2.54A2.54,2.54,0,0,0,381.63,258.57Z" transform="translate(-348.74 -201.14)"/>
  <path class="cls-1" d="M421.13,266.65a5.54,5.54,0,1,1,5.54-5.54A5.54,5.54,0,0,1,421.13,266.65Zm0-8.08a2.54,2.54,0,1,0,2.54,2.54A2.54,2.54,0,0,0,421.13,258.57Z" transform="translate(-348.74 -201.14)"/>
  <path class="cls-1" d="M377.14,321.8a12.5,12.5,0,0,1-11.4-7.36,10.29,10.29,0,0,1,5.16-13.59,8.54,8.54,0,0,1,11.28,4.28,7.11,7.11,0,0,1-3.58,9.41,6,6,0,0,1-7.93-3,1.5,1.5,0,0,1,2.74-1.23,3,3,0,0,0,4,1.51,4.13,4.13,0,0,0,2.07-5.45,5.53,5.53,0,0,0-7.31-2.77,7.27,7.27,0,0,0-3.65,9.62A9.49,9.49,0,0,0,381,318a1.5,1.5,0,0,1,1.23,2.74A12.48,12.48,0,0,1,377.14,321.8Z" transform="translate(-348.74 -201.14)"/>
  <path class="cls-1" d="M477.14,291.92a11,11,0,0,1-2.33-.25,12.3,12.3,0,0,1-8.44-6.7,9,9,0,0,1,4.52-11.91,7.51,7.51,0,0,1,9.93,3.77,6.33,6.33,0,0,1-3.17,8.34,5.33,5.33,0,0,1-7.06-2.69,1.5,1.5,0,1,1,2.73-1.23,2.3,2.3,0,0,0,1.31,1.23,2.27,2.27,0,0,0,1.79-.05,3.31,3.31,0,0,0,1.66-4.37,4.52,4.52,0,0,0-6-2.26,6,6,0,0,0-3,7.94,9.33,9.33,0,0,0,6.33,5,8.63,8.63,0,0,0,7.69-2.34,1.5,1.5,0,1,1,2,2.24A11.79,11.79,0,0,1,477.14,291.92Z" transform="translate(-348.74 -201.14)"/>
  <path class="cls-1" d="M466.23,271.79a1.5,1.5,0,0,1-1.38-2.09h0s.3-1.26-.55-4.5c-1.34-5.12,7.35-8.83,9.1-9.53a1.51,1.51,0,0,1,2,1.92c0,.12-.31,1.39.52,4.57,1.34,5.12-7.35,8.83-9.1,9.52A1.54,1.54,0,0,1,466.23,271.79Zm6.11-12.33c-2.82,1.46-5.52,3.53-5.14,5a21,21,0,0,1,.64,3.46c2.82-1.46,5.52-3.53,5.14-5A21.38,21.38,0,0,1,472.34,259.46Z" transform="translate(-348.74 -201.14)"/>
  <path class="cls-1" d="M463,273.55a5.51,5.51,0,0,1-3.37-1.14,4.76,4.76,0,0,1-.9-6.67,1.5,1.5,0,0,1,2.39,1.82,1.75,1.75,0,0,0,.33,2.46,2.56,2.56,0,0,0,3.6-.48,1.5,1.5,0,1,1,2.38,1.82A5.53,5.53,0,0,1,463,273.55Z" transform="translate(-348.74 -201.14)"/>
  <path class="cls-1" d="M440.48,308.31a1.5,1.5,0,0,1-1.38-2.09h0s.46-1.65-.69-6c-1.66-6.33,10-11.15,11.38-11.68a1.5,1.5,0,0,1,2,1.93c0,.12-.47,1.79.66,6.08,1.66,6.33-10,11.14-11.38,11.67A1.54,1.54,0,0,1,440.48,308.31Zm8.18-16c-3.55,1.75-8,4.71-7.35,7.12a24.61,24.61,0,0,1,.85,5c3.55-1.76,8-4.71,7.35-7.12A24.72,24.72,0,0,1,448.66,292.32Z" transform="translate(-348.74 -201.14)"/>
  <path class="cls-1" d="M436.32,310.56a6.64,6.64,0,0,1-4.05-1.37,5.68,5.68,0,0,1-1.07-7.94,1.5,1.5,0,0,1,2.39,1.82,2.66,2.66,0,0,0,.5,3.73,3.69,3.69,0,0,0,5.18-.69,1.5,1.5,0,0,1,2.39,1.82,6.64,6.64,0,0,1-4.44,2.57A6.8,6.8,0,0,1,436.32,310.56Z" transform="translate(-348.74 -201.14)"/>
  <path class="cls-1" d="M484.13,253.51h-34.5a1.5,1.5,0,0,1-1.5-1.5v-7.19a13,13,0,0,1,13-13h11.48a13,13,0,0,1,13,13V252A1.5,1.5,0,0,1,484.13,253.51Zm-33-3h31.5v-5.69a10,10,0,0,0-10-10H461.14a10,10,0,0,0-10,10Z" transform="translate(-348.74 -201.14)"/>
  <path class="cls-1" d="M478.38,328.1a7.25,7.25,0,0,1-5.75-2.84,7.24,7.24,0,0,1-11.5,0,7.2,7.2,0,0,1-7.44,2.63,1.5,1.5,0,0,1-1.14-1.64l1.3-10.78a1.48,1.48,0,0,1,1.42-1.32A16.41,16.41,0,0,0,471,297.74a5.16,5.16,0,0,0-1.17-3.28,1.51,1.51,0,0,1,.22-2.11,1.49,1.49,0,0,1,2.11.22,8.23,8.23,0,0,1,1.84,5.17,19.41,19.41,0,0,1-17.28,19.31l-1,8a4.25,4.25,0,0,0,3.92-4.23,1.5,1.5,0,0,1,3,0,4.25,4.25,0,0,0,8.5,0,1.5,1.5,0,0,1,3,0,4.25,4.25,0,0,0,8.5,0V293.51a1.5,1.5,0,0,1,3,0v27.34A7.26,7.26,0,0,1,478.38,328.1Z" transform="translate(-348.74 -201.14)"/>
  <path class="cls-1" d="M471,295a1.52,1.52,0,0,1-1.17-.55,5.2,5.2,0,0,0-4.05-1.94h-7.45a1.5,1.5,0,0,1-1.12-.5,1.53,1.53,0,0,1-.37-1.18l1.49-12.39h-8.66a1.5,1.5,0,0,1-1.5-1.5V252a1.5,1.5,0,0,1,1.5-1.5h34.5a1.5,1.5,0,0,1,1.5,1.5v41.5a1.5,1.5,0,0,1-3,0v-40h-31.5v21.94H460a1.53,1.53,0,0,1,1.13.51,1.5,1.5,0,0,1,.36,1.17L460,289.52h5.76a8.17,8.17,0,0,1,6.38,3.05A1.49,1.49,0,0,1,471,295Z" transform="translate(-348.74 -201.14)"/>
  <path class="cls-1" d="M455.33,317.15a1.55,1.55,0,0,1-1.1-.48,1.5,1.5,0,0,1-.38-1.2l2.95-24.63a1.51,1.51,0,0,1,1.49-1.32h7.45a8.17,8.17,0,0,1,6.38,3.05h0a8.23,8.23,0,0,1,1.84,5.17,19.41,19.41,0,0,1-18.56,19.41Zm4.29-24.63L457.05,314A16.4,16.4,0,0,0,471,297.74a5.16,5.16,0,0,0-1.17-3.28h0a5.2,5.2,0,0,0-4.05-1.94Z" transform="translate(-348.74 -201.14)"/>
  <path class="cls-1" d="M454,328.1H428.59a1.5,1.5,0,0,1-1.49-1.33l-6-49.64a1.47,1.47,0,0,1,.37-1.17,1.49,1.49,0,0,1,1.12-.51H460a1.53,1.53,0,0,1,1.13.51,1.5,1.5,0,0,1,.36,1.17l-6,49.64A1.51,1.51,0,0,1,454,328.1Zm-24.1-3h22.77l5.6-46.65h-34Z" transform="translate(-348.74 -201.14)"/>
  <path class="cls-1" d="M483.84,298.36H472.39a1.5,1.5,0,0,1,0-3h11.45a1.5,1.5,0,1,1,0,3Z" transform="translate(-348.74 -201.14)"/>
  <path class="cls-1" d="M359,345.2a1.5,1.5,0,0,1-1.5-1.5v-6a1.5,1.5,0,0,1,3,0v6A1.5,1.5,0,0,1,359,345.2Z" transform="translate(-348.74 -201.14)"/>
  <path class="cls-1" d="M372.79,345.2a1.5,1.5,0,0,1-1.5-1.5v-6a1.5,1.5,0,0,1,3,0v6A1.5,1.5,0,0,1,372.79,345.2Z" transform="translate(-348.74 -201.14)"/>
  <path class="cls-1" d="M386.63,345.2a1.5,1.5,0,0,1-1.5-1.5v-6a1.5,1.5,0,1,1,3,0v6A1.5,1.5,0,0,1,386.63,345.2Z" transform="translate(-348.74 -201.14)"/>
  <path class="cls-1" d="M400.46,345.2a1.5,1.5,0,0,1-1.5-1.5v-6a1.5,1.5,0,0,1,3,0v6A1.5,1.5,0,0,1,400.46,345.2Z" transform="translate(-348.74 -201.14)"/>
  <path class="cls-1" d="M414.29,345.2a1.5,1.5,0,0,1-1.5-1.5v-6a1.5,1.5,0,0,1,3,0v6A1.5,1.5,0,0,1,414.29,345.2Z" transform="translate(-348.74 -201.14)"/>
  <path class="cls-1" d="M428.13,345.2a1.5,1.5,0,0,1-1.5-1.5v-6a1.5,1.5,0,1,1,3,0v6A1.5,1.5,0,0,1,428.13,345.2Z" transform="translate(-348.74 -201.14)"/>
  <path class="cls-1" d="M442,345.2a1.5,1.5,0,0,1-1.5-1.5v-6a1.5,1.5,0,0,1,3,0v6A1.5,1.5,0,0,1,442,345.2Z" transform="translate(-348.74 -201.14)"/>
  <path class="cls-1" d="M455.79,345.2a1.5,1.5,0,0,1-1.5-1.5v-6a1.5,1.5,0,0,1,3,0v6A1.5,1.5,0,0,1,455.79,345.2Z" transform="translate(-348.74 -201.14)"/>
  <path class="cls-1" d="M469.63,345.2a1.5,1.5,0,0,1-1.5-1.5v-6a1.5,1.5,0,1,1,3,0v6A1.5,1.5,0,0,1,469.63,345.2Z" transform="translate(-348.74 -201.14)"/>
  <path class="cls-1" d="M483.46,345.2a1.5,1.5,0,0,1-1.5-1.5v-6a1.5,1.5,0,0,1,3,0v6A1.5,1.5,0,0,1,483.46,345.2Z" transform="translate(-348.74 -201.14)"/>
</svg>
