<svg id="Layer_1" data-name="Layer 1" xmlns="http://www.w3.org/2000/svg" viewBox="0 0 144.14 142.79">
  <defs>
    <style>
      .cls-1 {
        fill: none;
      }

      .cls-2 {
        fill: #363636;
      }
    </style>
  </defs>
  <title>ecommerce</title>
  <polygon class="cls-1" points="108.67 74.55 110.08 68.71 102.42 68.71 101.57 74.55 108.67 74.55"/>
  <polygon class="cls-1" points="102.26 37.05 91.45 37.05 91.17 42.88 101.41 42.88 102.26 37.05"/>
  <polygon class="cls-1" points="97.65 68.71 89.92 68.71 89.63 74.55 96.8 74.55 97.65 68.71"/>
  <polygon class="cls-1" points="100.72 47.6 90.94 47.6 90.66 53.44 99.88 53.44 100.72 47.6"/>
  <polygon class="cls-1" points="112.65 58.16 103.96 58.16 103.11 63.99 111.23 63.99 112.65 58.16"/>
  <polygon class="cls-1" points="99.19 58.16 90.43 58.16 90.14 63.99 98.34 63.99 99.19 58.16"/>
  <polygon class="cls-1" points="96.11 79.27 89.4 79.27 89.12 85.1 95.26 85.1 96.11 79.27"/>
  <polygon class="cls-1" points="77.72 74.55 84.91 74.55 85.19 68.71 77.44 68.71 77.72 74.55"/>
  <polygon class="cls-1" points="78.23 85.1 84.39 85.1 84.68 79.27 77.95 79.27 78.23 85.1"/>
  <polygon class="cls-1" points="77.21 63.99 85.42 63.99 85.7 58.16 76.92 58.16 77.21 63.99"/>
  <polygon class="cls-1" points="117.78 37.05 107.03 37.05 106.18 42.88 116.36 42.88 117.78 37.05"/>
  <polygon class="cls-1" points="76.69 53.44 85.93 53.44 86.22 47.6 76.41 47.6 76.69 53.44"/>
  <polygon class="cls-1" points="115.21 47.6 105.49 47.6 104.64 53.44 113.79 53.44 115.21 47.6"/>
  <polygon class="cls-1" points="100.03 85.1 106.1 85.1 107.52 79.27 100.88 79.27 100.03 85.1"/>
  <polygon class="cls-1" points="72.2 58.16 63.44 58.16 64.29 63.99 72.48 63.99 72.2 58.16"/>
  <polygon class="cls-1" points="71.69 47.6 61.9 47.6 62.75 53.44 71.97 53.44 71.69 47.6"/>
  <polygon class="cls-1" points="73 74.55 72.71 68.71 64.98 68.71 65.83 74.55 73 74.55"/>
  <polygon class="cls-1" points="86.45 42.88 86.73 37.05 75.9 37.05 76.18 42.88 86.45 42.88"/>
  <polygon class="cls-1" points="55.11 79.27 56.53 85.1 62.6 85.1 61.75 79.27 55.11 79.27"/>
  <polygon class="cls-1" points="60.21 68.71 52.55 68.71 53.96 74.55 61.06 74.55 60.21 68.71"/>
  <polygon class="cls-1" points="55.59 37.05 44.85 37.05 46.27 42.88 56.45 42.88 55.59 37.05"/>
  <polygon class="cls-1" points="71.46 42.88 71.17 37.05 60.36 37.05 61.22 42.88 71.46 42.88"/>
  <polygon class="cls-1" points="67.37 85.1 73.51 85.1 73.23 79.27 66.52 79.27 67.37 85.1"/>
  <polygon class="cls-1" points="58.67 58.16 49.98 58.16 51.4 63.99 59.52 63.99 58.67 58.16"/>
  <polygon class="cls-1" points="57.13 47.6 47.42 47.6 48.84 53.44 57.98 53.44 57.13 47.6"/>
  <path class="cls-2" d="M459,316.38h-49.3a3.85,3.85,0,0,1-3.38-2,3.75,3.75,0,0,1-.43-1L401,294.07a3.76,3.76,0,0,1-.27-.75l-12.38-50.93a3.94,3.94,0,0,1-.43-1l-7-27.44H379a1.5,1.5,0,0,1-1.5-1.5v-4.72a1.5,1.5,0,0,1,1.5-1.5h4.93l.3,0,.39,0,.31.08a2.09,2.09,0,0,1,.4.13,2.37,2.37,0,0,1,.32.14l.35.19.27.2.31.25.23.25a3.05,3.05,0,0,1,.26.31,3.21,3.21,0,0,1,.19.31,2.94,2.94,0,0,1,.18.34,2.46,2.46,0,0,1,.14.38,1.69,1.69,0,0,1,.1.27l6.78,26.67h76.12a3.84,3.84,0,0,1,3,1.48,3.8,3.8,0,0,1,.71,3.3l-12.82,52.77a3.85,3.85,0,0,1-3.75,2.95H409.54l3.15,12.39H459a3.86,3.86,0,1,1,0,7.72ZM380.51,210.91h1.6a1.49,1.49,0,0,1,1.45,1.13l7.27,28.57a1,1,0,0,0,.14.29,1.52,1.52,0,0,1,.25.53l12.43,51.18.09.2a1.51,1.51,0,0,1,.14.35l4.94,19.43a.86.86,0,0,0,.11.24l.05.09a.87.87,0,0,0,.75.46H459a.86.86,0,0,0,0-1.72h-47.5a1.5,1.5,0,0,1-1.46-1.13l-3.91-15.39a1.46,1.46,0,0,1,.27-1.29,1.48,1.48,0,0,1,1.18-.58h50.16a.87.87,0,0,0,.84-.66l12.82-52.77a.89.89,0,0,0-.16-.74.85.85,0,0,0-.68-.33H393.31a1.5,1.5,0,0,1-1.46-1.13l-7.06-27.74s0-.08,0-.12l-.12-.24-.24-.22-.15-.08-.12,0h-3.61Zm75.41,80.64h-6.08a1.5,1.5,0,0,1-1.48-1.72l.85-5.84a1.5,1.5,0,0,1,1.48-1.28h6.64a1.5,1.5,0,0,1,1.46,1.86l-1.42,5.83A1.5,1.5,0,0,1,455.92,291.55Zm-4.34-3h3.16l.69-2.84H452Zm-6.51,3h-6.13a1.48,1.48,0,0,1-1.09-.47,1.52,1.52,0,0,1-.41-1.11l.28-5.83a1.5,1.5,0,0,1,1.5-1.43h6.7a1.51,1.51,0,0,1,1.14.52,1.54,1.54,0,0,1,.35,1.2l-.85,5.83A1.51,1.51,0,0,1,445.07,291.55Zm-4.56-3h3.27l.41-2.84h-3.54Zm-6.3,3h-6.16a1.5,1.5,0,0,1-1.5-1.43l-.28-5.84a1.48,1.48,0,0,1,.41-1.1,1.5,1.5,0,0,1,1.09-.47h6.72a1.5,1.5,0,0,1,1.09.47,1.48,1.48,0,0,1,.41,1.1l-.28,5.84A1.5,1.5,0,0,1,434.21,291.55Zm-4.73-3h3.3l.14-2.84h-3.58Zm-6.15,3h-6.14a1.51,1.51,0,0,1-1.49-1.29l-.85-5.83a1.54,1.54,0,0,1,.35-1.2,1.51,1.51,0,0,1,1.14-.52H423a1.5,1.5,0,0,1,1.5,1.43l.28,5.83a1.52,1.52,0,0,1-.41,1.11A1.48,1.48,0,0,1,423.33,291.55Zm-4.85-3h3.27l-.14-2.84h-3.54Zm-6.06,3h-6.08a1.5,1.5,0,0,1-1.45-1.15l-1.42-5.83a1.5,1.5,0,0,1,1.46-1.86h6.64a1.5,1.5,0,0,1,1.48,1.28l.85,5.84a1.46,1.46,0,0,1-.35,1.2A1.49,1.49,0,0,1,412.42,291.55Zm-4.9-3h3.16l-.41-2.84h-3.43Zm51-7.56h-7.1a1.49,1.49,0,0,1-1.13-.52,1.44,1.44,0,0,1-.35-1.19l.85-5.84a1.5,1.5,0,0,1,1.48-1.28h7.67a1.5,1.5,0,0,1,1.46,1.85l-1.42,5.84A1.5,1.5,0,0,1,458.48,281Zm-5.36-3h4.18l.69-2.83h-4.46Zm-6.51,3h-7.16a1.55,1.55,0,0,1-1.09-.46,1.52,1.52,0,0,1-.41-1.11l.28-5.84a1.5,1.5,0,0,1,1.5-1.42h7.73a1.5,1.5,0,0,1,1.49,1.71l-.85,5.84A1.5,1.5,0,0,1,446.61,281ZM441,278h4.3l.41-2.83h-4.57Zm-6.3,3h-7.18a1.5,1.5,0,0,1-1.5-1.43l-.28-5.83a1.49,1.49,0,0,1,1.49-1.57H435a1.47,1.47,0,0,1,1.08.46,1.53,1.53,0,0,1,.42,1.11l-.29,5.83A1.5,1.5,0,0,1,434.72,281ZM429,278h4.32l.14-2.83h-4.6Zm-6.16,3h-7.16a1.5,1.5,0,0,1-1.49-1.28l-.85-5.84a1.5,1.5,0,0,1,1.49-1.71h7.73a1.5,1.5,0,0,1,1.5,1.42l.28,5.84a1.49,1.49,0,0,1-1.5,1.57Zm-5.87-3h4.3l-.14-2.83h-4.57Zm-6.06,3h-7.1a1.51,1.51,0,0,1-1.46-1.14L400.9,274a1.54,1.54,0,0,1,.28-1.28,1.51,1.51,0,0,1,1.18-.57H410a1.5,1.5,0,0,1,1.48,1.28l.85,5.84a1.44,1.44,0,0,1-.35,1.19A1.49,1.49,0,0,1,410.88,281ZM405,278h4.18l-.41-2.83h-4.46Zm56.09-7.55h-8.13a1.49,1.49,0,0,1-1.13-.52,1.46,1.46,0,0,1-.35-1.2l.85-5.83a1.5,1.5,0,0,1,1.48-1.29h8.69a1.5,1.5,0,0,1,1.46,1.86l-1.42,5.83A1.5,1.5,0,0,1,461.05,270.44Zm-6.39-3h5.21l.69-2.84h-5.49Zm-6.51,3H440a1.52,1.52,0,0,1-1.5-1.58l.29-5.83a1.5,1.5,0,0,1,1.5-1.43H449a1.51,1.51,0,0,1,1.14.52,1.54,1.54,0,0,1,.35,1.2l-.85,5.83A1.51,1.51,0,0,1,448.15,270.44Zm-6.61-3h5.31l.42-2.84h-5.6Zm-6.3,3H427a1.49,1.49,0,0,1-1.49-1.43l-.29-5.84a1.48,1.48,0,0,1,.41-1.1,1.51,1.51,0,0,1,1.09-.47h8.78a1.51,1.51,0,0,1,1.09.47,1.5,1.5,0,0,1,.41,1.1l-.29,5.84A1.49,1.49,0,0,1,435.24,270.44Zm-6.79-3h5.36l.14-2.84h-5.63Zm-6.15,3h-8.19a1.51,1.51,0,0,1-1.49-1.29l-.85-5.83a1.54,1.54,0,0,1,.35-1.2,1.51,1.51,0,0,1,1.14-.52H422a1.49,1.49,0,0,1,1.49,1.43l.29,5.83a1.5,1.5,0,0,1-1.5,1.58Zm-6.89-3h5.31l-.13-2.84H415Zm-6.07,3h-8.12a1.5,1.5,0,0,1-1.46-1.15l-1.42-5.83a1.5,1.5,0,0,1,1.46-1.86h8.69a1.5,1.5,0,0,1,1.48,1.29l.85,5.83a1.5,1.5,0,0,1-1.48,1.72Zm-6.95-3h5.22l-.42-2.84h-5.48Zm61.22-7.56h-9.15a1.51,1.51,0,0,1-1.14-.52,1.47,1.47,0,0,1-.34-1.19l.85-5.84a1.49,1.49,0,0,1,1.48-1.28H465a1.51,1.51,0,0,1,1.18.57,1.55,1.55,0,0,1,.28,1.28l-1.42,5.84A1.51,1.51,0,0,1,463.61,259.88Zm-7.42-3h6.24l.69-2.83h-6.51Zm-6.5,3h-9.22a1.47,1.47,0,0,1-1.08-.46,1.52,1.52,0,0,1-.41-1.11l.28-5.83a1.5,1.5,0,0,1,1.5-1.43h9.78a1.5,1.5,0,0,1,1.49,1.71l-.86,5.84A1.48,1.48,0,0,1,449.69,259.88Zm-7.64-3h6.34l.42-2.83h-6.62Zm-6.3,3h-9.24a1.5,1.5,0,0,1-1.5-1.42l-.28-5.84a1.49,1.49,0,0,1,1.5-1.57H436a1.49,1.49,0,0,1,1.5,1.57l-.28,5.84A1.5,1.5,0,0,1,435.75,259.88Zm-7.81-3h6.38l.14-2.83H427.8Zm-6.15,3h-9.22a1.49,1.49,0,0,1-1.48-1.28l-.85-5.84a1.47,1.47,0,0,1,.34-1.19,1.51,1.51,0,0,1,1.14-.52h9.78a1.5,1.5,0,0,1,1.5,1.43l.28,5.83a1.49,1.49,0,0,1-1.49,1.57Zm-7.92-3h6.34l-.14-2.83h-6.62Zm-6.07,3h-9.15a1.51,1.51,0,0,1-1.46-1.14l-1.42-5.84a1.55,1.55,0,0,1,.28-1.28,1.51,1.51,0,0,1,1.18-.57H407a1.49,1.49,0,0,1,1.48,1.28l.86,5.84a1.5,1.5,0,0,1-1.49,1.71Zm-8-3h6.24l-.42-2.83h-6.51Zm66.34-7.55H456a1.51,1.51,0,0,1-1.14-.52,1.54,1.54,0,0,1-.35-1.2l.85-5.83a1.51,1.51,0,0,1,1.49-1.29h10.74a1.51,1.51,0,0,1,1.18.58,1.47,1.47,0,0,1,.28,1.28l-1.42,5.83A1.5,1.5,0,0,1,466.17,249.33Zm-8.44-3H465l.68-2.84h-7.53Zm-6.5,3H441a1.5,1.5,0,0,1-1.09-.47,1.48,1.48,0,0,1-.41-1.1l.28-5.84a1.5,1.5,0,0,1,1.5-1.43h10.81a1.51,1.51,0,0,1,1.14.52,1.49,1.49,0,0,1,.34,1.2l-.85,5.83A1.5,1.5,0,0,1,451.23,249.33Zm-8.67-3h7.37l.42-2.84H442.7Zm-6.3,3H426a1.5,1.5,0,0,1-1.5-1.43l-.28-5.83a1.52,1.52,0,0,1,.41-1.11,1.48,1.48,0,0,1,1.09-.47h10.83a1.5,1.5,0,0,1,1.49,1.58l-.28,5.83A1.5,1.5,0,0,1,436.26,249.33Zm-8.83-3h7.4l.14-2.84h-7.68Zm-6.16,3H411a1.5,1.5,0,0,1-1.48-1.29l-.85-5.83a1.5,1.5,0,0,1,1.48-1.72H421a1.5,1.5,0,0,1,1.5,1.43l.28,5.84a1.48,1.48,0,0,1-.41,1.1A1.5,1.5,0,0,1,421.27,249.33Zm-8.94-3h7.37l-.14-2.84h-7.64Zm-6.07,3H396.09a1.49,1.49,0,0,1-1.46-1.15l-1.42-5.83a1.47,1.47,0,0,1,.28-1.28,1.51,1.51,0,0,1,1.18-.58h10.74a1.51,1.51,0,0,1,1.49,1.29l.85,5.83a1.54,1.54,0,0,1-.35,1.2A1.51,1.51,0,0,1,406.26,249.33Zm-9-3h7.26l-.42-2.84h-7.53Z" transform="translate(-349.82 -204.94)"/>
  <path class="cls-2" d="M379,215.15H351.72a1.5,1.5,0,0,1-1.5-1.5v-7.21a1.5,1.5,0,0,1,1.5-1.5H379a1.5,1.5,0,0,1,1.5,1.5v7.21A1.5,1.5,0,0,1,379,215.15Zm-25.79-3h24.29v-4.21H353.22Z" transform="translate(-349.82 -204.94)"/>
  <path class="cls-2" d="M419.85,336.66a11.38,11.38,0,1,1,11.38-11.37A11.38,11.38,0,0,1,419.85,336.66Zm0-19.75a8.38,8.38,0,1,0,8.38,8.38A8.38,8.38,0,0,0,419.85,316.91Z" transform="translate(-349.82 -204.94)"/>
  <path class="cls-2" d="M419.85,332.28a6.85,6.85,0,0,1-6.84-6.84,1.5,1.5,0,0,1,3,0,3.85,3.85,0,1,0,3.84-3.84,1.5,1.5,0,0,1,0-3,6.84,6.84,0,1,1,0,13.68Z" transform="translate(-349.82 -204.94)"/>
  <path class="cls-2" d="M492.45,347.73H351.32a1.5,1.5,0,0,1-1.5-1.5V336a1.5,1.5,0,0,1,1.5-1.5H492.45A1.5,1.5,0,0,1,494,336v10.23A1.5,1.5,0,0,1,492.45,347.73Zm-139.63-3H491V337.5H352.82Z" transform="translate(-349.82 -204.94)"/>
  <g>
    <path class="cls-2" d="M356.88,342.61a1.29,1.29,0,0,1-.29,0,1.61,1.61,0,0,1-.29-.09,1.19,1.19,0,0,1-.25-.13,1.45,1.45,0,0,1-.23-.19,1.52,1.52,0,0,1-.44-1.06,1.5,1.5,0,0,1,.44-1.06,1.55,1.55,0,0,1,2.12,0,1.45,1.45,0,0,1,.19.23,1.19,1.19,0,0,1,.13.25,1.61,1.61,0,0,1,.09.29,1.36,1.36,0,0,1,0,.29,1.5,1.5,0,0,1-1.5,1.5Z" transform="translate(-349.82 -204.94)"/>
    <path class="cls-2" d="M473.12,341.11a1.5,1.5,0,0,1,1.5-1.5h0a1.5,1.5,0,0,1,1.5,1.5h0a1.5,1.5,0,0,1-1.5,1.5h0A1.5,1.5,0,0,1,473.12,341.11Zm-11.78,0a1.5,1.5,0,0,1,1.5-1.5h0a1.5,1.5,0,0,1,1.5,1.5h0a1.5,1.5,0,0,1-1.5,1.5h0A1.5,1.5,0,0,1,461.34,341.11Zm-11.77,0a1.5,1.5,0,0,1,1.5-1.5h0a1.5,1.5,0,0,1,1.5,1.5h0a1.5,1.5,0,0,1-1.5,1.5h0A1.5,1.5,0,0,1,449.57,341.11Zm-11.78,0a1.5,1.5,0,0,1,1.5-1.5h0a1.5,1.5,0,0,1,1.5,1.5h0a1.5,1.5,0,0,1-1.5,1.5h0A1.5,1.5,0,0,1,437.79,341.11Zm-11.77,0a1.5,1.5,0,0,1,1.5-1.5h0a1.5,1.5,0,0,1,1.5,1.5h0a1.5,1.5,0,0,1-1.5,1.5h0A1.5,1.5,0,0,1,426,341.11Zm-11.77,0a1.5,1.5,0,0,1,1.5-1.5h0a1.5,1.5,0,0,1,1.5,1.5h0a1.5,1.5,0,0,1-1.5,1.5h0A1.5,1.5,0,0,1,414.25,341.11Zm-11.78,0a1.5,1.5,0,0,1,1.5-1.5h0a1.5,1.5,0,0,1,1.5,1.5h0a1.5,1.5,0,0,1-1.5,1.5h0A1.5,1.5,0,0,1,402.47,341.11Zm-11.77,0a1.5,1.5,0,0,1,1.5-1.5h0a1.5,1.5,0,0,1,1.5,1.5h0a1.5,1.5,0,0,1-1.5,1.5h0A1.5,1.5,0,0,1,390.7,341.11Zm-11.77,0a1.5,1.5,0,0,1,1.5-1.5h0a1.5,1.5,0,0,1,1.5,1.5h0a1.5,1.5,0,0,1-1.5,1.5h0A1.5,1.5,0,0,1,378.93,341.11Zm-11.78,0a1.5,1.5,0,0,1,1.5-1.5h0a1.5,1.5,0,0,1,1.5,1.5h0a1.5,1.5,0,0,1-1.5,1.5h0A1.5,1.5,0,0,1,367.15,341.11Z" transform="translate(-349.82 -204.94)"/>
    <path class="cls-2" d="M486.39,342.61a1.52,1.52,0,0,1-1.06-.44,2.11,2.11,0,0,1-.19-.23,1.26,1.26,0,0,1-.13-.26,1.31,1.31,0,0,1-.09-.28,1.36,1.36,0,0,1,0-.29,1.5,1.5,0,0,1,.44-1.06,1.55,1.55,0,0,1,2.12,0,1.5,1.5,0,0,1,.44,1.06,1.36,1.36,0,0,1,0,.29,1.31,1.31,0,0,1-.09.28,1.26,1.26,0,0,1-.13.26,2.11,2.11,0,0,1-.19.23A1.53,1.53,0,0,1,486.39,342.61Z" transform="translate(-349.82 -204.94)"/>
  </g>
  <path class="cls-2" d="M418.36,325.44a1.49,1.49,0,0,1,1.5-1.5h0a1.5,1.5,0,0,1,1.5,1.5h0a1.5,1.5,0,0,1-1.5,1.5h0A1.5,1.5,0,0,1,418.36,325.44Z" transform="translate(-349.82 -204.94)"/>
  <path class="cls-2" d="M447.79,336.81a11.38,11.38,0,1,1,11.37-11.37A11.39,11.39,0,0,1,447.79,336.81Zm0-19.75a8.38,8.38,0,1,0,8.37,8.38A8.39,8.39,0,0,0,447.79,317.06Z" transform="translate(-349.82 -204.94)"/>
  <path class="cls-2" d="M447.79,332.43a6.85,6.85,0,0,1-6.84-6.84,1.5,1.5,0,0,1,3,0,3.84,3.84,0,1,0,3.84-3.84,1.5,1.5,0,1,1,0-3,6.84,6.84,0,1,1,0,13.68Z" transform="translate(-349.82 -204.94)"/>
  <path class="cls-2" d="M446.3,325.59a1.5,1.5,0,0,1,1.49-1.5h0a1.5,1.5,0,0,1,1.5,1.5h0a1.5,1.5,0,0,1-1.5,1.5h0A1.5,1.5,0,0,1,446.3,325.59Z" transform="translate(-349.82 -204.94)"/>
  <path class="cls-2" d="M423.12,228.76H405.9a1.5,1.5,0,0,1-1.5-1.5V210.05a1.5,1.5,0,0,1,1.5-1.5h17.22a1.5,1.5,0,0,1,1.5,1.5v17.21A1.5,1.5,0,0,1,423.12,228.76Zm-15.72-3h14.22V211.55H407.4Z" transform="translate(-349.82 -204.94)"/>
  <path class="cls-2" d="M446.23,229.75H431.64a1.5,1.5,0,0,1-1.5-1.5v-14.6a1.5,1.5,0,0,1,1.5-1.5h14.59a1.5,1.5,0,0,1,1.5,1.5v14.6A1.5,1.5,0,0,1,446.23,229.75Zm-13.09-3h11.59v-11.6H433.14Z" transform="translate(-349.82 -204.94)"/>
  <path class="cls-2" d="M446.23,220.16H432a1.5,1.5,0,0,1,0-3h14.28a1.5,1.5,0,0,1,0,3Z" transform="translate(-349.82 -204.94)"/>
  <path class="cls-2" d="M489.74,309.38H469.35a1.5,1.5,0,0,1-1.5-1.5V287.49a1.5,1.5,0,0,1,1.5-1.5h20.39a1.5,1.5,0,0,1,1.5,1.5v20.39A1.5,1.5,0,0,1,489.74,309.38Zm-18.89-3h17.39V289H470.85Z" transform="translate(-349.82 -204.94)"/>
  <path class="cls-2" d="M489.74,296h-20a1.5,1.5,0,0,1,0-3h20a1.5,1.5,0,0,1,0,3Z" transform="translate(-349.82 -204.94)"/>
  <path class="cls-2" d="M423.12,218H405.9a1.5,1.5,0,0,1,0-3h17.22a1.5,1.5,0,0,1,0,3Z" transform="translate(-349.82 -204.94)"/>
  <path class="cls-2" d="M396.43,305.25h-39a1.5,1.5,0,0,1-1.5-1.5v-6.32a1.5,1.5,0,0,1,1.5-1.5h39a1.5,1.5,0,0,1,1.5,1.5v6.32A1.5,1.5,0,0,1,396.43,305.25Zm-37.5-3h36v-3.32h-36Z" transform="translate(-349.82 -204.94)"/>
  <path class="cls-2" d="M393.05,337.5H360.8a1.5,1.5,0,0,1-1.5-1.5V303.75a1.5,1.5,0,0,1,1.5-1.5h32.25a1.5,1.5,0,0,1,1.5,1.5V336A1.5,1.5,0,0,1,393.05,337.5Zm-30.75-3h29.25V305.25H362.3Z" transform="translate(-349.82 -204.94)"/>
  <path class="cls-2" d="M376.93,298.48a1.67,1.67,0,0,1-.44-.06c-2.15-.65-13-4-15.55-6.57A7.68,7.68,0,0,1,371.79,281c2.55,2.55,5.92,13.41,6.57,15.56a1.49,1.49,0,0,1-1.43,1.93Zm-10.56-16.73a4.68,4.68,0,0,0-4.68,4.67,4.68,4.68,0,0,0,1.37,3.31c1.29,1.28,7,3.44,11.56,4.95-1.51-4.59-3.66-10.28-4.95-11.56A4.6,4.6,0,0,0,366.37,281.75Z" transform="translate(-349.82 -204.94)"/>
  <path class="cls-2" d="M376.93,298.48a1.46,1.46,0,0,1-1.06-.44,1.5,1.5,0,0,1-.38-1.49c.65-2.15,4-13,6.57-15.56a7.68,7.68,0,0,1,10.85,10.86c-2.54,2.55-13.4,5.92-15.55,6.57A1.59,1.59,0,0,1,376.93,298.48Zm10.56-16.73a4.62,4.62,0,0,0-3.31,1.37c-1.29,1.28-3.44,7-4.95,11.56,4.59-1.51,10.28-3.67,11.56-4.95a4.68,4.68,0,0,0,0-6.61A4.6,4.6,0,0,0,387.49,281.75Z" transform="translate(-349.82 -204.94)"/>
  <path class="cls-2" d="M479.76,288.69a1.29,1.29,0,0,1-.43-.07c-1.84-.55-6.25-2-7.49-3.22a4.34,4.34,0,1,1,6.14-6.14h0c1.24,1.24,2.66,5.65,3.22,7.49a1.51,1.51,0,0,1-1.44,1.94Zm-4.85-7.7a1.34,1.34,0,0,0-1,.39,1.36,1.36,0,0,0-.39.95,1.34,1.34,0,0,0,.39.95,15.58,15.58,0,0,0,3.44,1.54,15.21,15.21,0,0,0-1.55-3.44A1.32,1.32,0,0,0,474.91,281Z" transform="translate(-349.82 -204.94)"/>
  <path class="cls-2" d="M479.76,288.69a1.53,1.53,0,0,1-1.06-.44,1.51,1.51,0,0,1-.37-1.5c.55-1.84,2-6.25,3.22-7.49a4.34,4.34,0,0,1,6.14,6.14c-1.24,1.24-5.65,2.67-7.49,3.22A1.35,1.35,0,0,1,479.76,288.69Zm3.91-7.31a15.82,15.82,0,0,0-1.54,3.44,15.58,15.58,0,0,0,3.44-1.54,1.34,1.34,0,0,0,.39-.95,1.36,1.36,0,0,0-.39-.95A1.39,1.39,0,0,0,483.67,281.38Zm-1.06-1.06h0Z" transform="translate(-349.82 -204.94)"/>
  <g>
    <path class="cls-2" d="M365.89,311.91a1.5,1.5,0,1,1,.29-3,1.52,1.52,0,0,1,.28.09,1.26,1.26,0,0,1,.26.13,2.11,2.11,0,0,1,.23.19,1.5,1.5,0,0,1,0,2.12,2.11,2.11,0,0,1-.23.19l-.26.14-.28.08A1.36,1.36,0,0,1,365.89,311.91Z" transform="translate(-349.82 -204.94)"/>
    <path class="cls-2" d="M375.8,310.41a1.5,1.5,0,0,1,1.5-1.5h0a1.5,1.5,0,0,1,1.5,1.5h0a1.5,1.5,0,0,1-1.5,1.5h0A1.5,1.5,0,0,1,375.8,310.41Z" transform="translate(-349.82 -204.94)"/>
    <path class="cls-2" d="M388.71,311.91a1.5,1.5,0,0,1-1.5-1.5,1.52,1.52,0,0,1,.44-1.06,1.55,1.55,0,0,1,2.12,0,1.52,1.52,0,0,1,.44,1.06,1.5,1.5,0,0,1-.44,1.06A1.52,1.52,0,0,1,388.71,311.91Z" transform="translate(-349.82 -204.94)"/>
  </g>
  <g>
    <path class="cls-2" d="M365.89,332.28a1.5,1.5,0,0,1-1.06-.44,2.11,2.11,0,0,1-.19-.23,1.26,1.26,0,0,1-.13-.26,1.31,1.31,0,0,1-.09-.28,1.36,1.36,0,0,1,0-.29,1.5,1.5,0,0,1,1.79-1.47l.28.08.26.14a2.11,2.11,0,0,1,.23.19,1.5,1.5,0,0,1,.44,1.06,1.36,1.36,0,0,1,0,.29,1.31,1.31,0,0,1-.09.28,1.26,1.26,0,0,1-.13.26,1.57,1.57,0,0,1-.42.42,1.26,1.26,0,0,1-.26.13,1.52,1.52,0,0,1-.28.09A1.36,1.36,0,0,1,365.89,332.28Z" transform="translate(-349.82 -204.94)"/>
    <path class="cls-2" d="M375.8,330.78a1.5,1.5,0,0,1,1.5-1.5h0a1.5,1.5,0,0,1,1.5,1.5h0a1.5,1.5,0,0,1-1.5,1.5h0A1.5,1.5,0,0,1,375.8,330.78Z" transform="translate(-349.82 -204.94)"/>
    <path class="cls-2" d="M388.71,332.28a1.5,1.5,0,0,1-1.06-.44,1.52,1.52,0,0,1-.44-1.06,1.5,1.5,0,0,1,.44-1.06,1.55,1.55,0,0,1,2.12,0,1.5,1.5,0,0,1,.44,1.06,1.5,1.5,0,0,1-1.5,1.5Z" transform="translate(-349.82 -204.94)"/>
  </g>
  <path class="cls-2" d="M459.84,232.19a9.26,9.26,0,1,1,9.25-9.26A9.27,9.27,0,0,1,459.84,232.19Zm0-15.52a6.26,6.26,0,1,0,6.25,6.26A6.27,6.27,0,0,0,459.84,216.67Z" transform="translate(-349.82 -204.94)"/>
  <path class="cls-2" d="M459.84,216.75a1.5,1.5,0,0,1-1.5-1.5v-7.56a1.5,1.5,0,0,1,3,0v7.56A1.5,1.5,0,0,1,459.84,216.75Z" transform="translate(-349.82 -204.94)"/>
  <path class="cls-2" d="M370.52,275.21a15.78,15.78,0,1,1,15.78-15.77A15.78,15.78,0,0,1,370.52,275.21Zm0-28.55a12.78,12.78,0,1,0,12.78,12.78A12.79,12.79,0,0,0,370.52,246.66Z" transform="translate(-349.82 -204.94)"/>
  <path class="cls-2" d="M370.52,246.81a1.5,1.5,0,0,1-1.5-1.5V231.38a1.5,1.5,0,0,1,3,0v13.93A1.5,1.5,0,0,1,370.52,246.81Z" transform="translate(-349.82 -204.94)"/>
  <path class="cls-2" d="M366.81,259.63a4.79,4.79,0,1,1,4.79-4.79A4.8,4.8,0,0,1,366.81,259.63Zm0-6.58a1.79,1.79,0,1,0,1.79,1.79A1.79,1.79,0,0,0,366.81,253.05Z" transform="translate(-349.82 -204.94)"/>
</svg>
