<svg id="Layer_1" data-name="Layer 1" xmlns="http://www.w3.org/2000/svg" viewBox="0 0 144.11 144.09">
  <defs>
    <style>
      .cls-1 {
        fill: #363636;
      }

      .cls-2 {
        fill: none;
        stroke: #363636;
        stroke-linecap: round;
        stroke-linejoin: round;
        stroke-width: 3px;
      }
    </style>
  </defs>
  <title>outsourcing</title>
  <path class="cls-1" d="M456.76,276.51a1.5,1.5,0,0,1-1.5-1.5V247.38a1.79,1.79,0,0,0-1.79-1.79h-.28a1.79,1.79,0,0,0-1.79,1.79V275a1.5,1.5,0,0,1-3,0V247.38a4.8,4.8,0,0,1,4.79-4.79h.28a4.8,4.8,0,0,1,4.79,4.79V275A1.5,1.5,0,0,1,456.76,276.51Z" transform="translate(-349.56 -193.53)"/>
  <path class="cls-1" d="M463.61,276.51a1.5,1.5,0,0,1-1.5-1.5V251.67a1.79,1.79,0,0,0-1.79-1.79H460a1.79,1.79,0,0,0-1.78,1.79V275a1.5,1.5,0,0,1-3,0V251.67a4.79,4.79,0,0,1,4.78-4.79h.28a4.8,4.8,0,0,1,4.79,4.79V275A1.5,1.5,0,0,1,463.61,276.51Z" transform="translate(-349.56 -193.53)"/>
  <path class="cls-1" d="M470.44,277.25a1.32,1.32,0,0,1-.34,0,1.49,1.49,0,0,1-1.16-1.44V275a1.79,1.79,0,0,1,0-.23v-19.3a1.8,1.8,0,0,0-1.84-1.73H467a1.8,1.8,0,0,0-1.84,1.73V275a1.5,1.5,0,0,1-3,0V255.48a4.79,4.79,0,0,1,4.84-4.73h.17a4.79,4.79,0,0,1,4.84,4.73v20.25a1.5,1.5,0,0,1-.17.69A1.53,1.53,0,0,1,470.44,277.25Z" transform="translate(-349.56 -193.53)"/>
  <path class="cls-2" d="M449.9,275" transform="translate(-349.56 -193.53)"/>
  <path class="cls-2" d="M456.76,275" transform="translate(-349.56 -193.53)"/>
  <path class="cls-2" d="M463.61,275" transform="translate(-349.56 -193.53)"/>
  <path class="cls-1" d="M463,304.56H442.3a1.5,1.5,0,0,1-1.5-1.5v-9.89a19.65,19.65,0,0,1-9.91-17.37V275a1.49,1.49,0,0,1,0-.21c0-.14,0-.28,0-.43V262.08a1.5,1.5,0,0,1,1.5-1.5h1.9a7.19,7.19,0,0,1,7.18,7.18v4.71l.08,0V253.19a4.79,4.79,0,0,1,4.79-4.78h.28a4.78,4.78,0,0,1,4.78,4.78V275a1.5,1.5,0,0,1-3,0V253.19a1.78,1.78,0,0,0-1.78-1.78h-.28a1.79,1.79,0,0,0-1.79,1.78V275a1.5,1.5,0,0,1-2.2,1.32l-3.08-1.63a1.48,1.48,0,0,1-.8-1.32v-5.62a4.19,4.19,0,0,0-4.18-4.18h-.4v10.79c0,.16,0,.32,0,.47a1.39,1.39,0,0,1,0,.5v.46c0,6.46,3.45,12.33,8.78,15l.28.13a1.51,1.51,0,0,1,.85,1.36v9.31h17.74V290.44a1.44,1.44,0,0,1,.38-1l.12-.14a1.36,1.36,0,0,1,.37-.31c4.14-2.39,6.52-7.19,6.53-13.16V275a1.5,1.5,0,0,1,3,0v.79c0,6.82-2.7,12.37-7.4,15.41v11.85A1.5,1.5,0,0,1,463,304.56Z" transform="translate(-349.56 -193.53)"/>
  <path class="cls-1" d="M409.61,303.12h-.27a4.8,4.8,0,0,1-4.79-4.79V270.7a1.5,1.5,0,0,1,3,0v27.63a1.79,1.79,0,0,0,1.79,1.79h.27a1.79,1.79,0,0,0,1.79-1.79V270.7a1.5,1.5,0,1,1,3,0v27.63A4.8,4.8,0,0,1,409.61,303.12Z" transform="translate(-349.56 -193.53)"/>
  <path class="cls-1" d="M416.46,298.83h-.27A4.8,4.8,0,0,1,411.4,294V270.7a1.5,1.5,0,1,1,3,0V294a1.79,1.79,0,0,0,1.79,1.79h.27a1.79,1.79,0,0,0,1.79-1.79V270.7a1.5,1.5,0,0,1,3,0V294A4.8,4.8,0,0,1,416.46,298.83Z" transform="translate(-349.56 -193.53)"/>
  <path class="cls-1" d="M423.26,295h-.16a4.8,4.8,0,0,1-4.85-4.73V270.7a1.5,1.5,0,0,1,3,0v19.53A1.79,1.79,0,0,0,423.1,292h.16a1.78,1.78,0,0,0,1.84-1.73v-19.3a1.77,1.77,0,0,1,0-.23V270a1.53,1.53,0,0,1,1.14-1.48,1.48,1.48,0,0,1,1.69.76,1.63,1.63,0,0,1,.18.72v20.25A4.79,4.79,0,0,1,423.26,295Z" transform="translate(-349.56 -193.53)"/>
  <path class="cls-2" d="M406.05,270.7" transform="translate(-349.56 -193.53)"/>
  <path class="cls-2" d="M412.9,270.7" transform="translate(-349.56 -193.53)"/>
  <path class="cls-2" d="M419.75,270.7" transform="translate(-349.56 -193.53)"/>
  <path class="cls-1" d="M402.76,297.31h-.27a4.8,4.8,0,0,1-4.79-4.79V273.19l-.09.05V278a7.19,7.19,0,0,1-7.18,7.18h-1.89a1.5,1.5,0,0,1-1.5-1.5V271.34c0-.15,0-.29,0-.43a1.48,1.48,0,0,1,0-.21v-.79A19.64,19.64,0,0,1,397,252.54V245a1.5,1.5,0,0,1,1.5-1.5h20.74a1.51,1.51,0,0,1,1.5,1.5v9.49c4.7,3,7.38,8.59,7.4,15.37v.83a1.5,1.5,0,0,1-3,0v-.79c0-6-2.39-10.81-6.53-13.2a1.57,1.57,0,0,1-.38-.3l-.12-.14a1.53,1.53,0,0,1-.37-1v-8.76H400v7a1.5,1.5,0,0,1-.85,1.35l-.3.14c-5.32,2.62-8.76,8.49-8.76,15v.49a1.47,1.47,0,0,1,0,.47,3.59,3.59,0,0,0,0,.47v10.79h.39a4.18,4.18,0,0,0,4.18-4.18v-5.62a1.5,1.5,0,0,1,.8-1.32l3.09-1.63a1.48,1.48,0,0,1,1.47,0,1.5,1.5,0,0,1,.73,1.28v21.82a1.79,1.79,0,0,0,1.79,1.79h.27a1.79,1.79,0,0,0,1.79-1.79V270.7a1.5,1.5,0,0,1,3,0v21.82A4.8,4.8,0,0,1,402.76,297.31Z" transform="translate(-349.56 -193.53)"/>
  <path class="cls-1" d="M438.36,314.27H409.61a1.5,1.5,0,0,1-1.5-1.5V301.62a1.5,1.5,0,0,1,3,0v9.65h27.25a1.5,1.5,0,0,1,0,3Z" transform="translate(-349.56 -193.53)"/>
  <path class="cls-1" d="M414.21,309.43a1.47,1.47,0,0,1-1.06-.44l-3.67-3.67L405.8,309a1.5,1.5,0,0,1-2.12-2.12l4.73-4.74a1.52,1.52,0,0,1,2.13,0l4.73,4.74a1.49,1.49,0,0,1,0,2.12A1.45,1.45,0,0,1,414.21,309.43Z" transform="translate(-349.56 -193.53)"/>
  <path class="cls-1" d="M453.07,245.59a1.5,1.5,0,0,1-1.5-1.5v-9.64h-28a1.5,1.5,0,0,1,0-3h29.53a1.5,1.5,0,0,1,1.5,1.5v11.14A1.5,1.5,0,0,1,453.07,245.59Z" transform="translate(-349.56 -193.53)"/>
  <path class="cls-1" d="M453.07,245.59a1.48,1.48,0,0,1-1.06-.44l-4.73-4.73a1.5,1.5,0,0,1,2.12-2.13l3.67,3.68,3.68-3.68a1.5,1.5,0,1,1,2.12,2.13l-4.74,4.73A1.45,1.45,0,0,1,453.07,245.59Z" transform="translate(-349.56 -193.53)"/>
  <path class="cls-1" d="M492.17,232.39H472.35a1.5,1.5,0,0,1-1.5-1.5V211.07a1.51,1.51,0,0,1,.93-1.39,1.5,1.5,0,0,1,1.63.33l19.82,19.82a1.5,1.5,0,0,1,.33,1.63A1.51,1.51,0,0,1,492.17,232.39Zm-18.32-3h14.7l-14.7-14.7Z" transform="translate(-349.56 -193.53)"/>
  <path class="cls-1" d="M377.27,219.13a1.5,1.5,0,0,1-1.5-1.5v-6.56a1.5,1.5,0,1,1,3,0v6.56A1.5,1.5,0,0,1,377.27,219.13Z" transform="translate(-349.56 -193.53)"/>
  <path class="cls-1" d="M389.7,219.13a1.5,1.5,0,0,1-1.5-1.5v-6.56a1.5,1.5,0,0,1,3,0v6.56A1.5,1.5,0,0,1,389.7,219.13Z" transform="translate(-349.56 -193.53)"/>
  <path class="cls-1" d="M402.13,219.13a1.5,1.5,0,0,1-1.5-1.5v-6.56a1.5,1.5,0,0,1,3,0v6.56A1.5,1.5,0,0,1,402.13,219.13Z" transform="translate(-349.56 -193.53)"/>
  <path class="cls-1" d="M414.56,219.13a1.5,1.5,0,0,1-1.5-1.5v-6.56a1.5,1.5,0,0,1,3,0v6.56A1.5,1.5,0,0,1,414.56,219.13Z" transform="translate(-349.56 -193.53)"/>
  <path class="cls-1" d="M427,219.13a1.5,1.5,0,0,1-1.5-1.5v-6.56a1.5,1.5,0,1,1,3,0v6.56A1.5,1.5,0,0,1,427,219.13Z" transform="translate(-349.56 -193.53)"/>
  <path class="cls-1" d="M439.41,219.13a1.5,1.5,0,0,1-1.5-1.5v-6.56a1.5,1.5,0,0,1,3,0v6.56A1.5,1.5,0,0,1,439.41,219.13Z" transform="translate(-349.56 -193.53)"/>
  <path class="cls-1" d="M451.84,219.13a1.5,1.5,0,0,1-1.5-1.5v-6.56a1.5,1.5,0,0,1,3,0v6.56A1.5,1.5,0,0,1,451.84,219.13Z" transform="translate(-349.56 -193.53)"/>
  <path class="cls-1" d="M464.27,219.13a1.5,1.5,0,0,1-1.5-1.5v-6.56a1.5,1.5,0,1,1,3,0v6.56A1.5,1.5,0,0,1,464.27,219.13Z" transform="translate(-349.56 -193.53)"/>
  <path class="cls-1" d="M423.18,246.29h-29a1.5,1.5,0,0,1-1.5-1.5v-14a1.5,1.5,0,0,1,1.5-1.5h29a1.5,1.5,0,0,1,1.5,1.5v14A1.5,1.5,0,0,1,423.18,246.29Zm-27.52-3h26v-11h-26Z" transform="translate(-349.56 -193.53)"/>
  <path class="cls-1" d="M467.36,318.67h-29a1.5,1.5,0,0,1-1.5-1.5v-14a1.5,1.5,0,0,1,1.5-1.5h29a1.5,1.5,0,0,1,1.5,1.5v14A1.5,1.5,0,0,1,467.36,318.67Zm-27.52-3h26v-11h-26Z" transform="translate(-349.56 -193.53)"/>
  <path class="cls-1" d="M443.91,318.67a1.5,1.5,0,0,1-1.5-1.5V313.9a1.5,1.5,0,0,1,3,0v3.27A1.5,1.5,0,0,1,443.91,318.67Z" transform="translate(-349.56 -193.53)"/>
  <path class="cls-1" d="M450.07,318.67a1.5,1.5,0,0,1-1.5-1.5V313.9a1.5,1.5,0,0,1,3,0v3.27A1.5,1.5,0,0,1,450.07,318.67Z" transform="translate(-349.56 -193.53)"/>
  <path class="cls-1" d="M456.23,318.67a1.5,1.5,0,0,1-1.5-1.5V313.9a1.5,1.5,0,0,1,3,0v3.27A1.5,1.5,0,0,1,456.23,318.67Z" transform="translate(-349.56 -193.53)"/>
  <path class="cls-1" d="M462.39,318.67a1.5,1.5,0,0,1-1.5-1.5V313.9a1.5,1.5,0,0,1,3,0v3.27A1.5,1.5,0,0,1,462.39,318.67Z" transform="translate(-349.56 -193.53)"/>
  <path class="cls-1" d="M400.23,236.55a1.5,1.5,0,0,1-1.5-1.5v-3.27a1.5,1.5,0,1,1,3,0v3.27A1.5,1.5,0,0,1,400.23,236.55Z" transform="translate(-349.56 -193.53)"/>
  <path class="cls-1" d="M406.39,236.55a1.51,1.51,0,0,1-1.5-1.5v-3.27a1.5,1.5,0,1,1,3,0v3.27A1.5,1.5,0,0,1,406.39,236.55Z" transform="translate(-349.56 -193.53)"/>
  <path class="cls-1" d="M412.56,236.55a1.5,1.5,0,0,1-1.5-1.5v-3.27a1.5,1.5,0,0,1,3,0v3.27A1.51,1.51,0,0,1,412.56,236.55Z" transform="translate(-349.56 -193.53)"/>
  <path class="cls-1" d="M418.72,236.55a1.5,1.5,0,0,1-1.5-1.5v-3.27a1.5,1.5,0,1,1,3,0v3.27A1.5,1.5,0,0,1,418.72,236.55Z" transform="translate(-349.56 -193.53)"/>
  <path class="cls-1" d="M377.43,337.36a1.5,1.5,0,0,1-1.5-1.5V329.7a1.5,1.5,0,0,1,3,0v6.16A1.5,1.5,0,0,1,377.43,337.36Z" transform="translate(-349.56 -193.53)"/>
  <path class="cls-1" d="M390.63,337.36a1.5,1.5,0,0,1-1.5-1.5V329.7a1.5,1.5,0,1,1,3,0v6.16A1.5,1.5,0,0,1,390.63,337.36Z" transform="translate(-349.56 -193.53)"/>
  <path class="cls-1" d="M403.83,337.36a1.5,1.5,0,0,1-1.5-1.5V329.7a1.5,1.5,0,0,1,3,0v6.16A1.5,1.5,0,0,1,403.83,337.36Z" transform="translate(-349.56 -193.53)"/>
  <path class="cls-1" d="M417,337.36a1.5,1.5,0,0,1-1.5-1.5V329.7a1.5,1.5,0,0,1,3,0v6.16A1.5,1.5,0,0,1,417,337.36Z" transform="translate(-349.56 -193.53)"/>
  <path class="cls-1" d="M430.23,337.36a1.5,1.5,0,0,1-1.5-1.5V329.7a1.5,1.5,0,0,1,3,0v6.16A1.5,1.5,0,0,1,430.23,337.36Z" transform="translate(-349.56 -193.53)"/>
  <path class="cls-1" d="M443.43,337.36a1.5,1.5,0,0,1-1.5-1.5V329.7a1.5,1.5,0,0,1,3,0v6.16A1.5,1.5,0,0,1,443.43,337.36Z" transform="translate(-349.56 -193.53)"/>
  <path class="cls-1" d="M456.63,337.36a1.5,1.5,0,0,1-1.5-1.5V329.7a1.5,1.5,0,1,1,3,0v6.16A1.5,1.5,0,0,1,456.63,337.36Z" transform="translate(-349.56 -193.53)"/>
  <path class="cls-1" d="M469.83,337.36a1.5,1.5,0,0,1-1.5-1.5V329.7a1.5,1.5,0,0,1,3,0v6.16A1.5,1.5,0,0,1,469.83,337.36Z" transform="translate(-349.56 -193.53)"/>
  <path class="cls-1" d="M483,337.36a1.5,1.5,0,0,1-1.5-1.5V329.7a1.5,1.5,0,0,1,3,0v6.16A1.5,1.5,0,0,1,483,337.36Z" transform="translate(-349.56 -193.53)"/>
  <path class="cls-1" d="M367.12,319.19H351.06a1.5,1.5,0,0,1-1.5-1.5V195a1.5,1.5,0,0,1,1.5-1.5H462.53A1.5,1.5,0,0,1,464,195v16a1.5,1.5,0,0,1-1.5,1.5H368.62V317.69A1.5,1.5,0,0,1,367.12,319.19Zm-14.56-3h13.06V211.07a1.5,1.5,0,0,1,1.5-1.5H461v-13H352.56Z" transform="translate(-349.56 -193.53)"/>
  <path class="cls-1" d="M492.17,337.62h-125a1.5,1.5,0,0,1-1.5-1.5v-125a1.5,1.5,0,0,1,1.5-1.5H472.35a1.5,1.5,0,0,1,1.5,1.5v18.32h18.32a1.5,1.5,0,0,1,1.5,1.5V336.12A1.5,1.5,0,0,1,492.17,337.62Zm-123.55-3H490.67V232.39H472.35a1.5,1.5,0,0,1-1.5-1.5V212.57H368.62Z" transform="translate(-349.56 -193.53)"/>
</svg>
