<?xml version="1.0" encoding="UTF-8"?>
<svg width="146px" height="129px" viewBox="0 0 146 129" version="1.1" xmlns="http://www.w3.org/2000/svg" xmlns:xlink="http://www.w3.org/1999/xlink">
    <!-- Generator: Sketch 48 (47235) - http://www.bohemiancoding.com/sketch -->
    <title>Page 1</title>
    <desc>Created with Sketch.</desc>
    <defs></defs>
    <g id="Page-1" stroke="none" stroke-width="1" fill="none" fill-rule="evenodd">
        <g>
            <path d="M36.6417,120.1473 C36.8207,120.3653 36.6887,120.9373 36.6887,120.9373 C36.6887,120.9373 33.5537,121.2863 32.5437,121.0493 C32.2827,120.9873 31.8387,120.7613 31.4217,120.5223 C31.3517,120.4823 31.2277,120.2413 31.1597,120.2013 C31.0327,120.1263 30.9667,120.2513 30.8597,120.1843 C30.5797,120.0073 30.3827,119.8703 30.3797,119.8533 C30.1047,118.4143 30.4707,117.8343 30.4707,117.8343 C30.4707,117.8343 33.1417,116.9463 33.6417,117.5653 C34.8197,119.0223 36.2487,119.6713 36.6417,120.1473" id="Fill-1" fill="#3C463B"></path>
            <path d="M52.1901,116.6507 L52.6381,118.9867 L55.0211,118.9867 C55.0211,118.9867 55.1531,118.6557 55.3551,118.6557 C55.5241,118.6557 55.7441,118.9867 55.9751,118.9867 L57.2551,118.9867 L62.0361,118.9867 C62.0361,118.9867 62.1451,118.4957 62.0131,118.3267 C61.9451,118.2397 61.5471,118.0877 61.2811,118.0137 C60.0501,117.6677 56.5261,116.5877 55.9141,115.4117 C55.1701,113.9807 52.1901,116.6507 52.1901,116.6507" id="Fill-3" fill="#3C463B"></path>
            <path d="M54.1974,45.2137 L70.2874,49.8907 C70.2874,49.8907 61.0674,41.6097 55.7104,41.1697 C50.3544,40.7277 54.1974,45.2137 54.1974,45.2137" id="Fill-5" fill="#E2C59C"></path>
            <path d="M68.1154,48.3548 C68.1154,48.3548 68.2094,46.7698 69.6894,46.7728 C71.1704,46.7748 74.4474,48.6338 74.4474,48.6338 C74.4474,48.6338 73.6684,48.7828 72.5884,48.8538 C71.5074,48.9238 70.2234,48.9088 70.2234,48.9088 L68.1154,48.3548 Z" id="Fill-7" fill="#E2C59C"></path>
            <path d="M66.8322,48.3392 C67.3012,49.4932 70.9612,54.1882 70.9612,54.1882 L71.8452,54.1312 L70.7282,52.1312 L73.5342,54.3172 L74.0072,53.9902 L71.4572,51.1962 L73.7332,52.8242 L74.3042,52.4912 L70.0932,48.4232 L66.8322,48.3392 Z" id="Fill-9" fill="#E2C59C"></path>
            <polygon id="Fill-11" fill="#FFC40E" points="46.2521 29.5101 53.3241 38.6921 55.2271 39.4361 55.3521 39.2291 57.7091 40.8841 55.9301 46.2601 52.7041 45.4741 52.7451 45.2261 51.8771 44.9371 51.4221 44.8951 47.6171 42.2071 45.6321 38.8571"></polygon>
            <path d="M39.1339,75.179 C39.1339,75.179 39.8969,74.521 49.0559,88.694 C53.9459,96.26 55.1109,87.783 55.5749,87.965 C56.0409,88.147 47.8259,64.973 47.8259,64.791 C47.8259,64.427 46.8959,59.688 46.8959,59.688 L41.1519,59.324 L39.1339,75.179 Z" id="Fill-13" fill="#163F59"></path>
            <path d="M44.255,58.8763 C44.255,58.8763 39.017,91.5173 38.133,93.3803 C37.248,95.2433 34.405,98.6093 33.227,96.7473 C32.048,94.8833 31.119,81.7923 30.088,70.8223 C29.057,59.8533 30.701,58.4623 30.701,58.4623 L44.255,58.8763 Z" id="Fill-15" fill="#194866"></path>
            <polygon id="Fill-17" fill="#FFC40E" points="27.6554 28.3108 46.3324 29.4578 47.9484 64.0438 28.5374 61.3968"></polygon>
            <path d="M16.0079,18.2347 L5.7699,6.6167 C5.7699,6.6167 9.5099,19.0227 12.0699,21.7787 C14.6299,24.5357 16.0079,18.2347 16.0079,18.2347" id="Fill-19" fill="#FFFFFF"></path>
            <polygon id="Fill-21" fill="#FFC40E" points="31.9025 29.3875 22.5825 23.3475 18.6115 18.1645 15.7985 15.8485 10.2295 20.9215 12.6615 24.7325 13.7575 23.8045 15.2205 22.5665 13.5935 24.8365 16.4025 28.8675 19.3555 30.2455 28.9785 39.5595"></polygon>
            <path d="M7.6651,9.5755 C7.6651,9.5755 8.4271,7.2085 8.0331,6.6175 C7.6401,6.0265 6.0531,3.9585 6.0531,3.9585 L5.5981,3.4685 C5.5981,3.4685 4.7731,3.6635 5.8551,5.0415 C6.9381,6.4205 6.0391,6.0325 6.0391,6.0325 L4.5781,5.1535 L2.7021,4.2125 L1.9241,3.6915 C1.9241,3.6915 1.5061,3.3625 1.3391,3.3675 C0.8541,3.3855 1.0481,3.7435 1.0481,3.7435 L3.8981,6.0265 L0.6891,4.6275 C0.6891,4.6275 0.2491,4.5165 0.1111,4.7095 C-0.0189,4.8905 0.1111,4.9575 0.1111,4.9575 L3.3641,7.3835 L1.6271,6.8465 C1.6271,6.8465 1.1921,6.7475 1.0481,6.9285 C0.8911,7.1265 0.8411,7.1775 0.8411,7.1775 L7.2461,10.1615 L7.6651,9.5755 Z" id="Fill-23" fill="#FFFFFF"></path>
            <polygon id="Fill-25" fill="#194866" points="38.5704 94.1526 35.3724 117.9746 32.3974 118.8576 28.7544 118.3056 30.1884 98.1226 31.7324 85.5496 39.6764 82.3516"></polygon>
            <polygon id="Fill-27" fill="#163F59" points="55.5577 87.866 56.8777 116.431 51.6947 116.652 48.2797 87.425"></polygon>
            <path d="M3.4474,6.5018 L1.1314,5.6468 C1.1314,5.6468 0.6344,5.3988 0.3314,5.4258 C-0.0156,5.4578 0.0004,5.7568 0.0004,5.7568 L3.3644,7.3838 L3.4474,6.5018 Z" id="Fill-29" fill="#FFFFFF"></path>
            <path d="M35.3361,31.9241 C37.8831,32.5041 40.2651,31.4221 40.5861,30.0071 C40.6621,29.6751 40.6131,29.3561 40.4691,29.0521 L31.0581,28.4001 C30.8831,29.7851 32.8671,31.3621 35.3361,31.9241" id="Fill-31" fill="#FBE305"></path>
            <path d="M38.5763,24.1136 C38.5763,24.1136 37.9283,28.2726 39.6973,29.2626 C40.5583,29.7446 39.1113,31.1556 37.5493,31.2586 C35.4303,31.3996 32.0063,29.7746 31.8513,28.8426 C31.7773,28.3936 32.2323,28.6826 32.6493,27.8696 C33.2443,26.7086 32.8793,22.0586 32.8323,21.4986 C32.7853,20.9386 38.5293,22.2926 38.5763,24.1136" id="Fill-33" fill="#FFFFFF"></path>
            <path d="M39.1071,28.7581 C38.0901,27.4831 38.5761,24.1131 38.5761,24.1131 C38.5371,22.6041 34.5901,21.4181 33.2641,21.3731 C33.2601,22.3361 33.2781,23.2911 33.3461,23.9271 C33.5321,25.7021 34.8871,26.5431 35.7281,27.1971 C36.5011,27.7991 38.2481,28.9541 39.1071,28.7581" id="Fill-35" fill="#E4EEF3"></path>
            <path d="M39.8839,15.8948 L39.8839,24.1608 C39.8839,24.1608 39.8839,26.1228 39.1369,26.4028 C38.3899,26.6838 36.3819,26.5428 35.5399,25.8898 C34.6999,25.2358 33.3459,24.3948 33.1589,22.6198 C32.9719,20.8458 33.1589,16.5958 33.1589,16.5958 C33.1589,16.5958 33.7659,15.1948 36.3819,16.0348 C38.9969,16.8758 39.8839,15.8948 39.8839,15.8948" id="Fill-37" fill="#FFFFFF"></path>
            <path d="M39.6036,13.8875 C39.9626,13.9875 40.5706,14.2685 40.7156,14.8865 C40.8646,15.5225 40.2766,16.4695 39.7236,16.6025 C39.1716,16.7365 35.6226,16.7585 35.1886,16.6025 C34.7556,16.4475 33.9336,16.2725 33.5566,15.5975 C33.3106,15.1585 34.6536,14.2145 35.4476,14.4485 C37.4656,15.0415 38.2606,13.5165 39.6036,13.8875" id="Fill-39" fill="#194866"></path>
            <path d="M34.4669,15.6385 L34.4669,19.2105 L34.1859,21.1025 L33.7659,21.1025 L32.9949,21.1025 C32.9949,21.1025 31.7349,16.1985 32.9259,15.6385 C34.1159,15.0775 34.3969,15.3585 34.4669,15.6385" id="Fill-41" fill="#194866"></path>
            <path d="M33.7198,21.4524 C33.7198,21.7624 33.4688,22.0134 33.1588,22.0134 L32.8318,22.0134 C32.5218,22.0134 32.2718,21.7624 32.2718,21.4524 L32.2718,20.1454 C32.2718,19.8354 32.5218,19.5844 32.8318,19.5844 L33.1588,19.5844 C33.4688,19.5844 33.7198,19.8354 33.7198,20.1454 L33.7198,21.4524 Z" id="Fill-43" fill="#FFFFFF"></path>
            <polygon id="Fill-45" fill="#C9C8B6" points="119.2159 32.5335 107.9729 49.0155 89.8679 48.0825 92.4449 45.1845 104.9539 43.0375 111.0609 27.3185"></polygon>
            <path d="M85.297,123.4432 C85.297,123.4432 84.91,123.0972 83.739,122.4382 C83.055,122.0522 82.498,121.8692 82.328,121.5062 C82.047,120.9072 82.339,119.2782 82.109,119.2572 C80.995,119.1462 80.414,122.0692 80.641,122.5622 C80.939,123.2092 84.691,123.8162 84.979,123.8882 C85.267,123.9622 85.405,123.4082 85.297,123.4432" id="Fill-47" fill="#DBE4E9"></path>
            <path d="M88.9376,93.5999 C88.4376,93.3229 89.1406,91.2299 88.0386,92.5539 C86.2396,94.7109 84.4396,99.8039 83.9666,102.6029 C83.2156,107.0409 81.9346,114.0829 81.5276,117.0919 C81.1616,119.8039 79.8456,122.9429 81.9206,122.6439 C82.1516,118.8019 83.8436,113.3599 85.0406,110.4729 C89.1246,100.6169 90.4746,94.4489 88.9376,93.5999" id="Fill-49" fill="#DBE4E9"></path>
            <path d="M85.2941,123.4339 C84.6331,124.2199 82.2871,122.8439 81.6141,122.5919 C80.4351,122.1519 80.5921,121.6589 80.5861,121.6789 C80.4361,122.1259 80.2301,122.7449 80.8691,123.1449 C81.4501,123.5079 82.1911,123.6389 82.7721,123.9309 C83.3821,124.2389 86.8521,125.5579 87.1281,125.0889 C87.4961,124.4639 85.3081,123.4189 85.2941,123.4339" id="Fill-51" fill="#194866"></path>
            <path d="M93.4821,64.3113 C92.6111,63.9673 92.5001,64.7513 91.6211,66.6363 C89.8971,70.3303 88.5051,75.9373 88.2311,82.0563 C87.9111,89.2233 88.3881,95.5653 89.3901,99.6373 C90.9281,96.9653 91.9691,95.4533 93.3741,89.3183 C96.4861,75.7303 96.1621,65.3663 93.4821,64.3113" id="Fill-53" fill="#DBE4E9"></path>
            <path d="M90.2321,90.5911 C89.7811,90.2751 88.7781,91.4031 88.0091,92.5261 C86.5001,94.7281 85.7401,97.5691 84.7221,101.4951 C83.5271,106.0951 82.9061,110.2471 82.9080952,112.9901 C84.1101,111.0521 85.1861,108.5021 86.6071,105.8941 C95.2071,90.1271 91.6191,91.5631 90.2321,90.5911" id="Fill-55" fill="#DBE4E9"></path>
            <path d="M86.5763,50.8924 C85.2543,50.6344 84.0393,51.6024 82.6063,54.9454 C81.3653,57.8404 78.4013,65.0994 78.6363,74.7084 C78.8843,84.8884 81.1723,92.2764 82.0083,94.8144 C82.4003,96.0054 84.8213,93.9714 85.2533,94.9464 C84.0953,90.9174 85.5013,83.1524 85.9973,78.4364 C88.5073,54.5934 90.6443,51.6834 86.5763,50.8924" id="Fill-57" fill="#FFFFFF"></path>
            <path d="M93.775,63.4607 C92.904,63.1647 92.822,63.8827 92.023,65.6207 C90.458,69.0287 89.289,74.1767 89.242,79.7697 C89.196,84.9997 89.633,89.7377 90.389,93.3197 C90.58,94.2247 91.562,94.3367 91.804,93.5507 C92.565,91.0717 93.147,88.2487 93.705,85.1927 C95.994,72.6717 96.456,64.3707 93.775,63.4607" id="Fill-59" fill="#FFFFFF"></path>
            <path d="M81.5079,92.3753 C81.3939,91.5553 81.2879,90.7463 81.1879,89.9463 C81.3269,88.6273 81.5739,87.8403 81.9369,87.7423 C83.3069,87.3733 86.5189,92.7413 87.4629,109.0923 C87.5109,109.9133 89.1889,123.7023 89.0429,123.4233 C87.2399,119.9733 83.1889,104.5343 81.5079,92.3753" id="Fill-61" fill="#FFFFFF"></path>
            <path d="M90.4083,124.6922 C90.7313,126.6812 90.5673,128.3622 90.0423,128.4462 C89.5163,128.5322 88.8283,126.9902 88.5063,125.0012 C88.1823,123.0132 88.3463,121.3332 88.8723,121.2472 C89.3973,121.1612 90.0863,122.7042 90.4083,124.6922" id="Fill-63" fill="#194866"></path>
            <path d="M89.775,123.2977 C90.173,124.7297 89.925,126.1177 89.397,126.1837 C88.868,126.2497 88.672,125.4197 88.397,123.8477 C88.071,121.9967 87.949,121.1717 87.597,120.0437 C87.306,119.1127 87.764,118.4387 88.579,119.9917 C88.787,120.3877 88.543,120.6617 89.267,121.6467 C89.472,121.9247 89.6,122.6647 89.775,123.2977" id="Fill-65" fill="#FFFFFF"></path>
            <path d="M82.84,20.2801 C82.84,23.2911 85.871,25.7331 89.611,25.7331 C93.351,25.7331 96.383,23.2911 96.383,20.2801 C96.383,17.2681 93.351,14.8271 89.611,14.8271 C85.871,14.8271 82.84,17.2681 82.84,20.2801" id="Fill-67" fill="#954F3F"></path>
            <path d="M88.4728,23.6233 C88.4728,25.6493 90.5118,27.2903 93.0278,27.2903 C95.5418,27.2903 97.5808,25.6493 97.5808,23.6233 C97.5808,21.5983 95.5418,19.9563 93.0278,19.9563 C90.5118,19.9563 88.4728,21.5983 88.4728,23.6233" id="Fill-69" fill="#954F3F"></path>
            <path d="M87.6339,26.4998 C87.6339,28.5248 89.6729,30.1668 92.1879,30.1668 C94.7029,30.1668 96.7419,28.5248 96.7419,26.4998 C96.7419,24.4748 94.7029,22.8318 92.1879,22.8318 C89.6729,22.8318 87.6339,24.4748 87.6339,26.4998" id="Fill-71" fill="#954F3F"></path>
            <path d="M91.9484,25.5408 C91.9484,27.5658 93.9874,29.2078 96.5024,29.2078 C99.0174,29.2078 101.0564,27.5658 101.0564,25.5408 C101.0564,23.5158 99.0174,21.8738 96.5024,21.8738 C93.9874,21.8738 91.9484,23.5158 91.9484,25.5408" id="Fill-73" fill="#954F3F"></path>
            <path d="M79.9708,46.8934 C79.9708,46.8934 80.4658,47.5974 76.7288,50.2724 C72.9918,52.9474 67.5038,55.7874 67.5038,55.7874 L74.9648,49.1554 C74.9648,49.1554 76.7778,47.4644 77.8918,46.8394 C78.8798,46.2844 79.1258,46.7794 79.9708,46.8934" id="Fill-75" fill="#194866"></path>
            <path d="M92.6573,49.7703 C91.6973,51.7953 86.5323,51.7953 85.5723,49.7703 L80.0873,35.1563 C79.1283,33.1313 80.1763,31.4733 82.4183,31.4733 L95.0933,31.4733 C97.3343,31.4733 98.3823,33.1313 97.4233,35.1563 L92.6573,49.7703 Z" id="Fill-77" fill="#194866"></path>
            <path d="M97.3859,78.5604 C97.4929,78.1054 97.5539,77.6444 97.5679,77.2084 C97.4669,72.7494 98.3649,66.2614 93.3309,52.0874 C93.0869,51.3504 92.7819,50.7044 92.4319,50.1454 C90.0269,49.6834 87.5719,49.1874 85.0579,48.7474 C84.1439,49.5354 83.3559,50.6954 82.8229,52.2304 C77.6229,66.1504 78.1329,72.5284 77.5579,76.7204 C83.9949,77.2644 90.6019,77.9304 97.3859,78.5604" id="Fill-79" fill="#AD5C49"></path>
            <path d="M84.1837,49.6736 C87.1217,50.1496 90.0787,50.8906 93.0557,51.3616 C92.9907,51.2066 92.9217,51.0556 92.8507,50.9086 C90.0457,50.4546 87.2587,49.7716 84.4907,49.3086 C84.3857,49.4236 84.2847,49.5466 84.1837,49.6736" id="Fill-81" fill="#194866"></path>
            <path d="M94.1007,54.3396 C94.0527,54.1946 94.0037,54.0476 93.9547,53.9016 C90.2477,53.4116 86.5707,52.4346 82.9197,51.9716 C82.8877,52.0586 82.8527,52.1416 82.8227,52.2306 C82.8047,52.2766 82.7887,52.3206 82.7717,52.3666 C86.5187,52.8306 90.2947,53.8476 94.1007,54.3396" id="Fill-83" fill="#194866"></path>
            <path d="M95.0177,57.2732 C94.9757,57.1302 94.9327,56.9862 94.8897,56.8422 C90.5297,56.3862 86.2037,55.1662 81.9117,54.7552 C81.8647,54.8902 81.8227,55.0202 81.7747,55.1532 C86.1547,55.5602 90.5687,56.8202 95.0177,57.2732" id="Fill-85" fill="#194866"></path>
            <path d="M95.8107,60.1727 C95.7747,60.0317 95.7377,59.8867 95.7007,59.7437 C90.7557,59.3517 85.8497,57.8847 80.9827,57.5637 C80.9407,57.6967 80.8987,57.8317 80.8577,57.9647 C85.8017,58.2767 90.7877,59.7857 95.8107,60.1727" id="Fill-87" fill="#194866"></path>
            <path d="M96.4728,63.0525 C96.4438,62.9115 96.4138,62.7695 96.3828,62.6255 C90.9278,62.3105 85.5138,60.6015 80.1428,60.3955 C80.1048,60.5325 80.0698,60.6655 80.0338,60.8015 C85.4698,60.9955 90.9498,62.7425 96.4728,63.0525" id="Fill-89" fill="#194866"></path>
            <path d="M96.922,65.492 C91.041,65.251 85.204,63.329 79.41,63.246 C79.378,63.385 79.348,63.517 79.318,63.653 C85.164,63.724 91.056,65.678 96.99,65.915 C96.969,65.776 96.945,65.633 96.922,65.492" id="Fill-91" fill="#194866"></path>
            <path d="M97.3458,68.7674 C97.3318,68.6274 97.3198,68.4884 97.3048,68.3464 C91.0948,68.1604 84.9278,66.0744 78.8028,66.1054 C78.7778,66.2424 78.7508,66.3784 78.7268,66.5134 C84.8898,66.4724 91.0958,68.5804 97.3458,68.7674" id="Fill-93" fill="#194866"></path>
            <path d="M97.5343,71.616 C97.5293,71.478 97.5233,71.336 97.5163,71.194 C91.0813,71.033 84.6863,68.845 78.3333,68.965 C78.3133,69.102 78.2953,69.238 78.2773,69.372 C84.6553,69.247 91.0743,71.45 97.5343,71.616" id="Fill-95" fill="#194866"></path>
            <path d="M97.5704,74.4617 C97.5714,74.3237 97.5714,74.1827 97.5724,74.0407 C91.0104,73.8727 84.4874,71.6487 78.0024,71.8217 C77.9884,71.9607 77.9764,72.0957 77.9654,72.2297 C84.4624,72.0547 90.9984,74.2847 97.5704,74.4617" id="Fill-97" fill="#194866"></path>
            <path d="M77.7657,74.6687 C77.7547,74.8067 77.7437,74.9427 77.7307,75.0757 C84.3077,74.8747 90.9157,77.1137 97.5597,77.3127 C97.5607,77.2777 97.5657,77.2417 97.5677,77.2087 C97.5647,77.1047 97.5647,76.9977 97.5637,76.8917 C90.9297,76.7017 84.3297,74.4667 77.7657,74.6687" id="Fill-99" fill="#194866"></path>
            <path d="M80.1251,32.4881 C78.1411,35.6801 77.7681,47.9561 77.7681,47.9561 C77.7681,47.9561 78.9911,48.9031 80.0001,47.0871 C80.4141,46.3421 81.4911,41.9531 82.2201,36.3081 C82.8231,31.6301 80.6141,31.7001 80.1251,32.4881" id="Fill-101" fill="#194866"></path>
            <path d="M97.7023,33.0252 L98.9833,49.3622 C98.7243,49.5352 98.2573,51.3162 97.6193,50.1072 C96.8273,48.6032 95.6143,43.9472 94.7653,36.9552 C94.1093,31.5502 96.9083,32.4712 97.7023,33.0252" id="Fill-103" fill="#194866"></path>
            <path d="M98.2355,63.3279 C99.0545,60.8279 99.4635,56.7699 99.2245,52.2139 C99.1545,50.8609 99.0305,49.5569 98.8645,48.3299 C98.4385,48.7879 97.9745,48.0829 97.6605,49.0729 C96.8635,51.5789 96.5555,57.0519 96.7915,61.5459 C96.8275,62.2529 96.8805,62.9449 96.9445,63.6199 C97.3735,63.5539 97.8045,63.4559 98.2355,63.3279" id="Fill-105" fill="#194866"></path>
            <path d="M98.0948,63.0311 C98.0948,63.0311 98.6618,66.9161 98.9098,67.8591 C99.1568,68.8021 98.8808,69.3591 98.8808,69.3591 L97.6068,70.6311 L95.6458,71.5861 C95.6458,71.5861 95.4548,71.0481 96.9558,70.2871 C97.6988,69.9111 97.7838,69.1521 97.7838,69.1521 C97.7838,69.1521 97.7838,67.4151 97.3288,68.0561 C96.6808,68.9701 96.5718,69.7531 96.0968,70.1881 C95.6218,70.6241 96.1878,69.2171 96.1878,69.2171 C96.1878,69.2171 96.4718,67.1531 96.8148,66.5011 C97.1578,65.8491 97.1098,63.1891 97.1098,63.1891 C97.1098,63.1891 97.2448,62.8511 97.6398,62.8441 C97.9908,62.8391 98.0948,63.0311 98.0948,63.0311" id="Fill-107" fill="#FFFFFF"></path>
            <path d="M89.7306,31.7732 C89.7326,31.9242 89.6776,32.2032 89.5786,32.3562 C88.9816,33.2732 87.7726,33.1962 87.1736,32.1562 C87.0736,31.9822 87.0176,31.6982 87.0206,31.5592 C87.0676,29.9532 87.1146,28.3472 87.1606,26.7412 C87.1646,26.6012 87.2566,26.4802 87.3686,26.4692 C88.0386,26.4152 88.7096,26.3462 89.3816,26.2922 C89.4936,26.2852 89.5866,26.4012 89.5906,26.5532 C89.6366,28.2932 89.6836,30.0332 89.7306,31.7732" id="Fill-109" fill="#FFFFFF"></path>
            <path d="M91.7247,25.8455 C91.7327,26.1165 91.5957,26.6175 91.3527,26.8925 C89.8917,28.5435 86.9237,28.4045 85.4547,26.5335 C85.2107,26.2205 85.0717,25.7105 85.0807,25.4605 C85.1957,22.5715 85.3087,19.6825 85.4227,16.7925 C85.4317,16.5425 85.6617,16.3245 85.9337,16.3045 C87.5757,16.2065 89.2207,16.0835 90.8707,15.9855 C91.1447,15.9715 91.3737,16.1835 91.3827,16.4555 C91.4967,19.5855 91.6107,22.7155 91.7247,25.8455" id="Fill-111" fill="#FFFFFF"></path>
            <path d="M96.1891,18.847 C95.4011,20.849 92.1661,21.45 88.9641,20.189 C85.7611,18.929 83.8041,16.284 84.5921,14.282 C85.3791,12.28 88.6141,11.68 91.8171,12.94 C95.0201,14.201 96.9781,16.846 96.1891,18.847" id="Fill-113" fill="#AD5C49"></path>
            <path d="M96.3136,17.5813 C94.3346,16.8023 92.0906,17.7923 91.3026,19.7943 C91.2026,20.0513 91.1306,20.3113 91.0856,20.5723 C91.4316,20.6053 91.7796,20.6843 92.1196,20.8173 C93.8446,21.4973 94.7986,23.2973 94.4936,25.0743 C96.1666,25.2363 97.8176,24.2743 98.4706,22.6163 C99.2586,20.6153 98.2926,18.3603 96.3136,17.5813" id="Fill-115" fill="#AD5C49"></path>
            <path d="M100.8907,22.6727 C99.6787,22.1957 98.8497,21.1657 98.5677,19.9797 C96.8767,19.7937 95.1987,20.7567 94.5377,22.4317 C93.7497,24.4327 94.7157,26.6877 96.6957,27.4657 C98.6747,28.2457 100.9177,27.2547 101.7057,25.2527 C102.0117,24.4767 102.0507,23.6627 101.8717,22.9117 C101.5427,22.8757 101.2127,22.7997 100.8907,22.6727" id="Fill-117" fill="#AD5C49"></path>
            <path d="M105.2072,21.597 C104.1592,22.802 102.4452,23.285 100.8912,22.673 C100.3662,22.466 99.9152,22.154 99.5472,21.773 C99.2612,22.102 99.0222,22.481 98.8532,22.911 C98.0642,24.913 99.0302,27.167 101.0102,27.946 C102.9892,28.725 105.2322,27.734 106.0202,25.732 C106.6002,24.261 106.2282,22.655 105.2072,21.597" id="Fill-119" fill="#AD5C49"></path>
            <path d="M94.1036,31.4539 C92.6146,31.2059 90.5466,31.1229 88.5206,31.1639 C87.1556,31.1919 83.4736,31.3469 83.1846,31.4959 C82.5066,34.9759 85.9516,36.0809 88.9336,35.6729 C91.9536,35.2589 94.4166,31.3259 94.1036,31.4539" id="Fill-121" fill="#FFFFFF"></path>
            <path d="M76.4904,14.0359 C76.4904,14.0359 78.3224,9.5029 78.3674,9.0379 C78.4114,8.5739 78.0864,8.3729 77.7744,7.3919 C77.4654,6.4109 77.4534,6.2159 77.2534,5.4299 C77.0514,4.6399 77.0514,4.5459 77.0514,4.5459 C77.0514,4.5459 77.5054,4.4929 77.6584,4.7819 C77.7964,5.0399 77.9634,5.7079 78.0864,5.9239 C78.2104,6.1389 77.9554,5.3599 77.9134,4.1499 C77.8714,2.9409 77.9844,1.7469 78.0674,1.2339 C78.1194,0.9099 78.1344,0.8659 78.1494,0.8649 C78.2954,0.8479 78.4314,0.8429 78.4754,0.9849 C78.5134,1.1099 78.5324,1.5689 78.5514,1.5399 C78.6214,1.4269 78.7764,0.6859 78.7934,0.5599 C78.8094,0.4269 78.8274,0.2439 78.8524,0.1319 C78.9034,-0.0981 79.1834,-0.0271 79.3364,0.3439 C79.3384,0.3489 79.5344,0.4119 79.5874,0.5219 C79.6144,0.5799 79.6354,0.6199 79.6594,0.6789 C79.6864,0.7439 79.6964,0.8249 79.7194,0.8909 C79.8094,1.1409 79.8734,1.3959 79.9194,1.6429 C79.9374,1.7439 79.9724,2.6479 80.0294,2.6419 C80.0354,2.6409 80.1064,1.9199 80.1614,1.9259 C80.2854,1.9409 80.4484,2.0569 80.4524,2.1819 C80.4584,2.4129 80.4744,2.7599 80.4654,3.7119 C80.4544,4.7639 80.3724,4.9919 80.6884,6.2999 C80.9644,7.4409 80.9294,7.9549 80.5794,8.7689 C80.2724,9.4829 80.0174,9.4149 79.7264,10.5309 C79.2074,12.5199 79.1604,15.0589 78.9044,15.5729 C78.5064,16.3729 76.4904,14.0359 76.4904,14.0359" id="Fill-123" fill="#FFFFFF"></path>
            <path d="M75.8683,13.3753 L74.5733,18.9513 C74.5733,18.9513 68.1853,29.7663 68.6803,31.2583 C69.2653,33.0283 71.0963,35.3123 71.0963,35.3123 L78.6183,22.0773 L80.9893,16.0103 L75.8683,13.3753 Z" id="Fill-125" fill="#B0BFDE"></path>
            <path d="M69.464,27.1912 C69.464,31.1312 66.201,34.3252 62.178,34.3252 C58.154,34.3252 54.892,31.1312 54.892,27.1912 C54.892,23.2522 58.154,20.0572 62.178,20.0572 C66.201,20.0572 69.464,23.2522 69.464,27.1912" id="Fill-127" fill="#282723"></path>
            <path d="M66.1349,32.9866 C66.1349,36.3546 63.3469,39.0836 59.9079,39.0836 C56.4699,39.0836 53.6809,36.3546 53.6809,32.9866 C53.6809,29.6196 56.4699,26.8896 59.9079,26.8896 C63.3469,26.8896 66.1349,29.6196 66.1349,32.9866" id="Fill-129" fill="#282723"></path>
            <path d="M72.0157,19.5599 C72.0157,22.7719 69.5767,25.3759 66.5677,25.3759 C63.5587,25.3759 61.1197,22.7719 61.1197,19.5599 C61.1197,16.3479 63.5587,13.7439 66.5677,13.7439 C69.5767,13.7439 72.0157,16.3479 72.0157,19.5599" id="Fill-131" fill="#282723"></path>
            <path d="M62.358,29.4778 C62.358,29.4778 69.856,29.6808 70.028,29.3088 C70.2,28.9358 70.976,28.0908 69.964,27.5158 C68.951,26.9398 66.839,26.7038 65.633,26.7378 C64.426,26.7708 61.529,26.8468 61.529,27.2138 C61.529,28.4818 62.013,29.2408 62.358,29.4778" id="Fill-133" fill="#D1DBEA"></path>
            <path d="M59.5626,28.9656 C59.5626,28.9656 62.1346,33.9816 65.1626,34.6736 C68.1886,35.3646 72.3826,34.7166 72.8146,33.5056 C73.2486,32.2946 72.1886,29.9166 71.4976,29.3116 C70.8046,28.7056 68.5566,28.1006 67.9516,26.9766 C67.4586,26.0596 67.6056,24.3816 67.9516,23.0846 C68.2966,21.7866 69.3346,21.7006 68.2966,21.0946 C67.2596,20.4896 67.6906,19.8846 66.6546,20.0576 C65.6166,20.2306 65.0106,19.8416 65.0106,20.8356 C65.0106,22.6526 65.1596,25.2016 64.1456,26.3706 C63.0216,27.6676 61.3776,27.4086 59.5626,28.9656" id="Fill-135" fill="#FFFFFF"></path>
            <path d="M68.6124,16.1028 C68.5234,16.0778 68.4334,16.0568 68.3414,16.0408 C68.1534,17.1108 67.3024,18.3738 65.9864,19.3698 C65.6664,19.6108 65.3394,19.8178 65.0094,19.9978 L65.0094,21.0008 C65.0094,22.4858 66.2684,23.6898 67.8214,23.6898 C69.3734,23.6898 70.6324,22.4858 70.6324,21.0008 L70.6324,18.7388 C69.8604,18.2258 69.1214,17.2918 68.6124,16.1028" id="Fill-137" fill="#FFFFFF"></path>
            <path d="M60.7257,111.2122 C60.7257,111.2122 61.1627,116.2502 61.0177,117.3692 C60.8517,118.6362 60.6617,118.6712 60.6617,118.6712 C60.6617,118.6712 63.3207,121.9142 64.2927,122.4332 C65.2657,122.9522 65.1357,122.4982 65.0717,122.2382 C65.0067,121.9792 63.4937,120.0652 63.1257,119.0602 C61.8987,115.7142 63.4507,111.6662 63.3847,111.3412 C63.3207,111.0172 60.7257,111.2122 60.7257,111.2122" id="Fill-139" fill="#FFFFFF"></path>
            <path d="M59.9904,59.5809 L61.8104,88.2069 C61.8104,88.2069 60.3864,94.7419 60.2014,96.9439 C59.8864,100.7149 60.2504,112.0769 60.2504,112.0769 L64.0544,112.2499 C64.0544,112.2499 66.7354,86.5639 67.0824,84.3149 C67.4274,82.0669 71.3204,63.7319 69.0714,59.2349 C66.8224,54.7379 59.9904,59.5809 59.9904,59.5809" id="Fill-141" fill="#3C463B"></path>
            <path d="M60.7413,118.2508 C60.7413,118.2508 60.3363,118.7358 60.4103,119.2158 C60.4703,119.6058 60.7903,120.7468 60.7903,120.7468 L61.5043,121.0708 L61.5043,120.5528 C61.5043,120.5528 62.8013,122.1088 63.4503,122.5628 C64.0983,123.0178 65.4583,124.1478 66.2383,123.8608 C66.4463,123.7848 66.4983,123.5358 66.4983,123.5358 C66.4983,123.5358 65.2653,122.1738 65.0713,121.9798 C64.8773,121.7848 64.4233,122.1738 63.9043,121.8498 C63.3853,121.5258 61.9023,120.1088 61.5043,119.6448 C60.9853,119.0388 60.7413,118.2508 60.7413,118.2508" id="Fill-143" fill="#161711"></path>
            <path d="M67.7999,109.3172 C67.7999,109.3172 67.9859,114.1262 67.9649,115.4932 C67.9519,116.3762 67.7959,116.9842 67.7959,116.9842 C67.7959,116.9842 70.4549,120.2282 71.4279,120.7472 C72.3999,121.2662 72.2719,120.8122 72.2059,120.5522 C72.1419,120.2932 70.7029,118.3482 70.2609,117.3742 C68.9029,114.3902 70.5849,109.9802 70.5199,109.6552 C70.4549,109.3312 67.7999,109.3172 67.7999,109.3172" id="Fill-145" fill="#FFFFFF"></path>
            <path d="M68.941,58.2835 L68.509,85.0945 L67.645,110.7795 L71.449,110.9525 C71.449,110.9525 74.131,85.0075 74.477,82.7585 C74.822,80.5105 78.715,62.4345 76.466,57.9375 C74.217,53.4405 68.941,58.2835 68.941,58.2835" id="Fill-147" fill="#3C463B"></path>
            <path d="M71.8693,59.9246 L68.8523,63.8206 L68.5943,79.8236 C69.6663,77.6456 70.4593,76.0546 70.7103,75.5966 C71.1213,74.8436 72.7723,72.1506 74.6403,68.8186 C74.6583,67.6676 74.6703,66.5086 74.6703,65.3516 C73.7483,63.3366 72.8093,61.4956 71.8693,59.9246" id="Fill-149" fill="#323B31"></path>
            <path d="M67.7306,116.596 C67.7306,116.596 67.4716,117.05 67.5446,117.53 C67.6056,117.919 67.9246,119.06 67.9246,119.06 L68.6386,119.385 L68.6386,118.866 C68.6386,118.866 69.9366,120.423 70.5846,120.877 C71.2326,121.331 72.5926,122.462 73.3746,122.174 C73.5816,122.098 73.6336,121.85 73.6336,121.85 C73.6336,121.85 72.3996,120.487 72.2066,120.293 C72.0116,120.098 71.5576,120.487 71.0396,120.163 C70.5196,119.839 69.0376,118.422 68.6386,117.958 C68.1206,117.353 67.7306,116.596 67.7306,116.596" id="Fill-151" fill="#161711"></path>
            <path d="M76.0157,59.0408 L62.0707,59.0408 L64.0837,47.2198 L63.6267,33.3538 C63.6267,33.3538 66.2217,34.3538 68.4917,34.4958 C69.9807,34.5898 73.1617,33.3538 73.1617,33.3538 L76.0157,59.0408 Z" id="Fill-153" fill="#AD5C49"></path>
            <path d="M68.4698,59.6673 C68.4698,59.6673 65.7028,38.6513 64.9248,37.0953 C64.1458,35.5383 63.5398,31.9053 63.5398,31.9053 L63.3668,28.5333 L61.9828,27.4083 C61.9828,27.4083 58.6108,28.8783 58.0048,29.7443 C57.3988,30.6083 59.1298,34.7593 59.5628,36.0573 C59.9948,37.3543 61.8108,41.5923 61.8968,42.5433 C61.9828,43.4953 61.8788,45.6823 61.4648,46.6943 C58.1778,54.7373 58.1528,60.0623 58.2648,60.0133 C60.8598,58.8893 68.4698,59.6673 68.4698,59.6673" id="Fill-155" fill="#D1DBEA"></path>
            <path d="M57.9572,45.158 C57.9572,45.158 59.0022,45.293 58.4532,50.894 C57.9042,56.494 55.8372,64.597 55.8372,64.597 L56.0062,51.567 C56.0062,51.567 56.2872,46.585 57.9572,45.158" id="Fill-157" fill="#FFFFFF"></path>
            <path d="M59.9445,38.0896 L58.4535,53.2026 L58.4535,54.1106 L53.9775,53.8516 C53.9775,53.8516 55.2745,41.7866 55.4695,41.2026 C55.6645,40.6186 56.1175,35.5596 56.0525,34.6516 C55.9885,33.7426 57.6435,27.6496 59.3885,30.1756 C61.8975,33.8086 59.9445,38.0896 59.9445,38.0896" id="Fill-159" fill="#B0BFDE"></path>
            <path d="M56.6447,60.2259 C56.4577,62.8969 57.5937,64.1189 57.8967,65.2019 C58.2007,66.2839 58.7037,67.3829 58.6937,67.3759 C57.6967,66.7159 57.7267,65.8509 57.4197,65.3979 C57.1137,64.9449 57.2747,65.0679 57.1447,66.0139 C57.0697,66.5529 57.8707,67.5579 58.3017,68.2719 C58.6747,68.8919 58.6837,69.2649 58.6837,69.2649 C58.6837,69.2649 57.8557,68.5189 57.2117,67.5919 C56.4367,66.4739 55.8137,65.1139 55.7247,64.7949 C55.5617,64.2119 55.6307,62.4229 55.8737,61.1609 C56.1477,59.7369 56.7797,58.3019 56.6447,60.2259" id="Fill-161" fill="#FFFFFF"></path>
            <path d="M55.8263,65.0984 C55.8263,65.0984 56.1123,66.7294 56.3323,67.1044 C56.4853,67.3644 57.4093,68.4714 57.4093,68.4714 C57.4093,68.4714 57.3493,67.7014 57.0043,67.2344 C56.6593,66.7684 55.8263,65.0984 55.8263,65.0984" id="Fill-163" fill="#E2C59C"></path>
            <path d="M70.0265,27.7547 C70.0265,27.7547 71.6305,29.0467 72.8145,30.5167 C73.3595,31.1937 74.6105,36.0567 74.8705,39.9487 C75.1295,43.8407 74.8705,44.8787 75.3885,47.6457 C75.9075,50.4137 76.6805,50.8827 77.2045,54.3047 C77.6155,56.9867 77.7235,59.4077 77.7235,59.4077 C77.7235,59.4077 76.5995,60.0127 75.4745,59.2347 C74.3505,58.4567 72.6215,49.2027 72.4485,46.8677 C72.2745,44.5327 72.0675,38.3487 71.8425,36.7487 C71.1605,31.8957 68.4065,28.6887 68.0165,28.2557 C67.0455,27.1757 69.8535,27.9277 70.0265,27.7547" id="Fill-165" fill="#D1DBEA"></path>
            <path d="M61.9181,27.0408 L63.3891,28.5328 C63.3891,28.5328 63.0221,28.2998 62.7511,29.0628 C62.5571,29.6128 62.2971,30.2948 62.2971,30.2948 L60.8701,27.9238 C60.8701,27.9238 61.4651,26.7818 61.9181,27.0408" id="Fill-167" fill="#B0BFDE"></path>
            <path d="M68.5304,26.6419 C68.5304,26.6419 68.4554,26.8949 68.3134,27.0639 C68.0484,27.3809 67.7614,27.9359 67.7614,27.9359 C67.7614,27.9359 68.1974,27.5569 68.5094,27.9359 C68.8914,28.4029 69.3704,29.5649 69.3704,29.5649 C69.3704,29.5649 69.8724,27.7769 69.5164,27.3499 C68.8744,26.5809 68.5304,26.6419 68.5304,26.6419" id="Fill-169" fill="#B0BFDE"></path>
            <path d="M131.4659,120.5887 C131.6189,120.8257 131.5139,121.3787 131.5139,121.3787 C131.5139,121.3787 128.3779,121.7277 127.3689,121.4897 C127.1059,121.4287 126.6639,121.2027 126.2459,120.9637 C126.1759,120.9237 126.0519,120.6827 125.9829,120.6427 C125.8569,120.5677 125.7909,120.6927 125.6839,120.6257 C125.4039,120.4487 125.2069,120.3117 125.2039,120.2937 C124.9289,118.8557 125.2949,118.2757 125.2949,118.2757 C125.2949,118.2757 127.3049,117.3887 127.8049,118.0077 C128.9819,119.4637 131.0219,119.9047 131.4659,120.5887" id="Fill-171" fill="#DBDAC6"></path>
            <path d="M111.963,118.636 L111.516,120.972 L109.133,120.972 C109.133,120.972 109.001,120.642 108.799,120.642 C108.629,120.642 108.409,120.972 108.179,120.972 L106.898,120.972 L102.117,120.972 C102.117,120.972 102.008,120.481 102.141,120.311 C102.208,120.224 102.606,120.073 102.872,119.999 C104.104,119.653 107.626,118.573 108.239,117.396 C108.983,115.966 111.963,118.636 111.963,118.636" id="Fill-173" fill="#DBDAC6"></path>
            <path d="M125.2628,57.7781 C125.2628,57.7781 120.2768,79.2021 116.6058,85.7411 C112.9368,92.2811 110.0028,91.1531 110.0028,91.1531 L114.7218,51.2381 L122.2848,50.5621 C122.2848,50.5621 127.0108,50.7871 125.2628,57.7781" id="Fill-175" fill="#323B31"></path>
            <path d="M118.5831,50.8924 L114.7221,51.2384 L110.2481,89.0794 C114.1411,81.3514 119.6601,58.3694 119.6601,58.3694 C120.8191,53.8364 119.7141,51.8024 118.5831,50.8924" id="Fill-177" fill="#3C463B"></path>
            <polygon id="Fill-179" fill="#3C463B" points="123.4962 69.8895 113.2392 64.4305 114.0652 58.1435 122.1722 55.9935 126.9702 56.8205"></polygon>
            <path d="M116.9933,76.721 C116.9933,76.721 117.8673,77.172 115.7703,92.958 C113.6733,108.744 111.9253,118.666 111.9253,118.666 L107.7313,117.855 L110.0033,91.154 L116.9933,76.721 Z" id="Fill-181" fill="#323B31"></path>
            <path d="M119.1779,50.6492 C119.1779,50.6492 121.7969,86.1282 122.2369,87.9252 C123.7219,94.0032 127.5659,90.3562 128.0909,88.3302 C128.6149,86.3042 129.4889,71.3132 129.3139,60.3732 L129.1389,49.4342 L119.1779,50.6492 Z" id="Fill-183" fill="#3C463B"></path>
            <path d="M124.6827,82.2918 C124.6827,82.2918 119.5797,77.2788 122.9357,93.1048 C124.3077,99.5798 124.3837,109.4538 124.9947,118.2878 C125.0327,118.8288 128.3147,118.4198 128.3147,118.4198 C128.3147,118.4198 129.1567,100.7658 129.5057,95.2288 C129.8557,89.6898 127.3037,78.3358 124.6827,82.2918" id="Fill-185" fill="#3C463B"></path>
            <path d="M135.961,18.3787 L134.929,17.0027 C134.929,17.0027 131.602,15.3967 131.373,14.5937 C131.144,13.7907 129.996,12.6437 129.996,12.6437 C129.996,12.6437 129.882,11.9557 131.258,12.5287 L132.635,13.1027 C132.635,13.1027 135.158,13.3317 135.502,13.9047 C135.846,14.4787 137.107,18.4937 137.107,18.4937 L135.961,18.3787 Z" id="Fill-187" fill="#FFFFFF"></path>
            <path d="M137.9112,16.7728 L137.2232,15.0528 C137.2232,15.0528 137.1072,13.9048 136.5342,12.6438 C135.9612,11.3818 134.8132,11.1518 133.5522,11.4968 C132.2902,11.8408 131.8312,12.4138 131.8312,12.4138 C131.8312,12.4138 131.6012,14.1348 132.8642,14.7088 C134.1252,15.2818 135.9612,18.1488 136.4202,17.8048 C136.8782,17.4608 137.9112,16.7728 137.9112,16.7728" id="Fill-189" fill="#FFFFFF"></path>
            <polygon id="Fill-191" fill="#FFFFFF" points="131.7169 13.1409 131.0289 10.5409 130.4929 8.0939 131.0289 8.1699 131.6399 9.8519 133.7809 11.9169 133.0919 12.3259"></polygon>
            <polygon id="Fill-193" fill="#FFFFFF" points="132.5577 9.6995 132.7107 7.4815 133.2457 7.4055 133.4757 9.6225 134.4697 11.7645 133.0917 12.3255"></polygon>
            <polygon id="Fill-195" fill="#FFFFFF" points="134.1642 7.5584 133.9352 9.3174 133.6282 10.4644 134.0872 11.6874 135.3102 11.6114 134.7752 10.3114 134.6992 7.9404"></polygon>
            <polygon id="Fill-197" fill="#FFFFFF" points="135.7696 8.1702 134.8516 11.2292 135.2346 12.0702 136.0756 12.0702 135.9986 10.5412 136.0756 8.6292"></polygon>
            <path d="M125.0402,33.1087 L144.0932,30.9207 C144.0932,30.9207 147.6232,30.0377 145.0742,26.5087 C141.7632,21.9237 138.5052,16.4107 138.5052,16.4107 L134.8782,17.7827 L138.9352,25.5817 L121.3992,25.1677 L125.0402,33.1087 Z" id="Fill-199" fill="#DBDAC6"></path>
            <path d="M110.9191,27.3929 L112.4201,61.6799 L130.1681,58.9159 L128.1061,28.1229 C128.1061,28.1229 121.7151,21.6519 110.9191,27.3929" id="Fill-201" fill="#DBDAC6"></path>
            <path d="M120.6281,25.0433 C120.6281,26.4213 119.5111,27.5393 118.1321,27.5393 L117.1611,27.5393 C115.7831,27.5393 114.6661,26.4213 114.6661,25.0433 L114.6661,20.3293 C114.6661,18.9503 115.7831,17.8333 117.1611,17.8333 L118.1321,17.8333 C119.5111,17.8333 120.6281,18.9503 120.6281,20.3293 L120.6281,25.0433 Z" id="Fill-203" fill="#FFFFFF"></path>
            <path d="M102.0958,120.4148 C102.0418,120.6258 102.1168,120.9728 102.1168,120.9728 L106.8978,120.9728 L108.1788,120.9728 C108.4088,120.9728 108.6288,120.6418 108.7988,120.6418 C109.0008,120.6418 109.1328,120.9728 109.1328,120.9728 L111.5158,120.9728 L111.6228,120.4148 L102.0958,120.4148 Z" id="Fill-205" fill="#FFFFFF"></path>
            <path d="M131.5567,120.8963 C130.5887,121.0213 128.5577,121.2693 128.1827,121.2013 C126.6517,120.9223 125.7367,120.1183 125.1147,119.6233 C125.1287,119.8223 125.1567,120.0443 125.2037,120.2933 C125.2067,120.3113 125.4047,120.4493 125.6837,120.6253 C125.7907,120.6923 125.8567,120.5673 125.9827,120.6433 C126.0517,120.6833 126.1757,120.9233 126.2457,120.9633 C126.6637,121.2033 127.1057,121.4283 127.3697,121.4903 C128.3777,121.7283 131.5137,121.3783 131.5137,121.3783 C131.5137,121.3783 131.5697,121.1283 131.5567,120.8963" id="Fill-207" fill="#FFFFFF"></path>
            <path d="M106.5099,119.3763 C106.4569,119.4453 106.3209,119.3673 106.1409,119.2303 C105.7059,118.8973 105.7459,118.9343 105.8579,118.8783 C105.9369,118.8403 106.0299,118.8023 106.2809,119.0023 C106.4569,119.1423 106.5629,119.3073 106.5099,119.3763" id="Fill-209" fill="#FFFFFF"></path>
            <path d="M107.1544,119.0936 C107.1014,119.1626 106.9654,119.0836 106.7864,118.9476 C106.3504,118.6146 106.3904,118.6506 106.5034,118.5956 C106.5814,118.5576 106.6744,118.5196 106.9254,118.7196 C107.1014,118.8596 107.2074,119.0246 107.1544,119.0936" id="Fill-211" fill="#FFFFFF"></path>
            <path d="M107.7472,118.7713 C107.6942,118.8403 107.5572,118.7623 107.3782,118.6253 C106.9432,118.2923 106.9822,118.3293 107.0952,118.2733 C107.1732,118.2353 107.2662,118.1973 107.5172,118.3973 C107.6932,118.5373 107.7992,118.7023 107.7472,118.7713" id="Fill-213" fill="#FFFFFF"></path>
            <path d="M129.8517,119.532 C129.8657,119.594 129.7347,119.627 129.5587,119.619 C129.2037,119.601 128.8417,119.618 128.4807,119.671 C128.3007,119.697 128.1487,119.675 128.1417,119.608 C128.1347,119.542 128.2727,119.459 128.4507,119.434 C128.8077,119.385 129.1647,119.37 129.5147,119.391 C129.6877,119.401 129.8367,119.47 129.8517,119.532" id="Fill-215" fill="#FFFFFF"></path>
            <path d="M129.2472,119.1043 C129.2592,119.1673 129.1272,119.2153 128.9522,119.2213 C128.6012,119.2343 128.2442,119.2813 127.8882,119.3643 C127.7122,119.4053 127.5632,119.3933 127.5582,119.3243 C127.5542,119.2563 127.6902,119.1593 127.8642,119.1203 C128.2172,119.0423 128.5692,118.9983 128.9172,118.9883 C129.0892,118.9843 129.2352,119.0423 129.2472,119.1043" id="Fill-217" fill="#FFFFFF"></path>
            <path d="M128.6612,118.7137 C128.6712,118.7777 128.5382,118.8387 128.3652,118.8597 C128.0162,118.9017 127.6662,118.9787 127.3152,119.0897 C127.1432,119.1447 126.9982,119.1427 126.9952,119.0717 C126.9912,119.0007 127.1272,118.8907 127.2982,118.8387 C127.6442,118.7317 127.9932,118.6587 128.3372,118.6207 C128.5082,118.6017 128.6512,118.6497 128.6612,118.7137" id="Fill-219" fill="#FFFFFF"></path>
            <path d="M112.9679,22.8631 C112.9679,23.5231 113.5029,24.0581 114.1619,24.0581 L119.5389,24.0581 C120.1979,24.0581 120.7329,23.5231 120.7329,22.8631 L120.7329,14.8981 C120.7329,14.2381 120.1979,13.7041 119.5389,13.7041 L114.1619,13.7041 C113.5029,13.7041 112.9679,14.2381 112.9679,14.8981 L112.9679,22.8631 Z" id="Fill-221" fill="#FFFFFF"></path>
            <path d="M112.9591,16.5408 C112.9591,16.5408 112.2371,15.7698 112.1051,15.2968 C112.0371,15.0578 112.2711,14.1508 112.8681,13.8028 C113.4661,13.4548 113.9631,14.1018 113.9631,14.1018 C113.9631,14.1018 113.0091,14.6328 112.9591,14.8318 C112.9091,15.0308 112.9591,16.5408 112.9591,16.5408" id="Fill-223" fill="#163F59"></path>
            <path d="M121.2804,18.4822 C121.2804,18.4822 122.0934,15.4202 121.9444,14.5242 C121.7954,13.6282 121.6954,13.0062 120.6004,12.9072 C118.9614,12.7582 118.9414,13.1062 118.1444,12.6082 C117.3484,12.1102 115.9174,10.9112 115.4234,10.7912 C114.6014,10.5922 113.3164,10.8662 113.2664,12.4092 C113.2294,13.5482 112.5114,13.8282 112.5304,13.8702 C112.5944,14.0092 112.8944,14.1402 113.4164,14.4002 C114.9094,15.1472 115.8054,15.2962 116.9504,14.9972 C118.0944,14.6992 120.2264,14.0522 120.4754,14.8982 C120.7244,15.7442 120.6254,18.3332 120.7244,18.5322 C120.8244,18.7312 121.0824,18.6312 121.2804,18.4822" id="Fill-225" fill="#194866"></path>
            <path d="M119.588,20.8719 C119.588,21.0919 119.767,21.2699 119.986,21.2699 L121.147,21.2699 C121.368,21.2699 121.546,21.0919 121.546,20.8719 L121.546,18.7479 C121.546,18.5279 121.368,18.3499 121.147,18.3499 L119.986,18.3499 C119.767,18.3499 119.588,18.5279 119.588,18.7479 L119.588,20.8719 Z" id="Fill-227" fill="#FFFFFF"></path>
            <path d="M112.6603,20.8719 C112.6603,21.0919 112.8393,21.2699 113.0583,21.2699 L114.2213,21.2699 C114.4403,21.2699 114.6183,21.0919 114.6183,20.8719 L114.6183,18.7479 C114.6183,18.5279 114.4403,18.3499 114.2213,18.3499 L113.0583,18.3499 C112.8393,18.3499 112.6603,18.5279 112.6603,18.7479 L112.6603,20.8719 Z" id="Fill-229" fill="#FFFFFF"></path>
            <path d="M120.7667,19.1795 L120.7667,23.3615 C120.7667,24.3065 120.3897,26.3805 115.0497,26.3805 C111.8887,26.3805 112.0057,24.0575 112.0057,23.2945 C112.0057,22.7135 112.6627,20.9725 112.9957,20.6395 C113.0067,20.6295 112.9957,21.9335 112.9957,21.9335 C112.9957,21.9335 113.6537,20.6735 115.1567,20.6735 C117.5797,20.6735 118.1307,22.0915 119.1997,22.0675 C120.0207,22.0475 120.6387,20.7065 120.7667,19.1795" id="Fill-231" fill="#194866"></path>
            <path d="M116.1534,22.7303 L114.4944,22.7303 C114.2744,22.7303 114.0954,22.5513 114.0954,22.3323 L114.0954,22.1003 L116.5514,22.1003 L116.5514,22.3323 C116.5514,22.5513 116.3734,22.7303 116.1534,22.7303" id="Fill-233" fill="#FFFFFF"></path>
            <path d="M5.9249,63.6365 L5.3559,63.7355 C5.3399,63.8425 5.3309,63.9075 5.3309,63.9075 L5.3009,65.7685 L5.7199,66.8365 C5.7199,66.8365 6.1439,67.3995 6.2849,67.5865 C6.3549,67.6795 6.4449,67.5875 6.4779,67.4685 C6.5079,67.3635 6.3619,67.1355 6.3619,67.1355 C6.3619,67.1355 6.1529,66.8575 6.0629,66.6395 C5.9999,66.4855 6.0019,66.3655 5.9389,66.1325 C5.9069,66.0185 5.8329,65.8295 5.8359,65.7605 C5.8479,65.3065 5.9619,64.7615 6.0549,64.3845 L5.9249,63.6365 Z" id="Fill-235" fill="#E4EEF3"></path>
            <path d="M23.6061,80.3553 C23.1071,80.0473 21.4031,81.9463 20.6801,83.6263 C19.2601,86.9173 18.8961,88.7393 18.3451,92.3703 C17.4721,98.1283 15.9951,107.2733 15.5081,111.1673 C15.0671,114.6763 13.6561,118.8263 15.7661,118.2413 C15.7331,113.4243 17.9481,106.1623 19.2321,102.3483 C23.6181,89.3253 25.1421,81.2933 23.6061,80.3553" id="Fill-237" fill="#DBE4E9"></path>
            <path d="M13.5831,83.4466 C13.7701,82.5226 13.9601,81.6136 14.1541,80.7186 C14.8081,79.4136 15.3781,78.7286 15.8131,78.8306 C17.4591,79.2176 18.9491,86.6606 13.7781,104.3396 C13.5191,105.2286 10.0491,120.6386 10.0721,120.2596 C10.6711,110.3646 10.8141,97.1466 13.5831,83.4466" id="Fill-239" fill="#FFFFFF"></path>
            <path d="M9.9025,121.3992 C9.0095,123.2042 7.8985,124.4772 7.4225,124.2412 C6.9445,124.0052 7.2815,122.3502 8.1735,120.5442 C9.0665,118.7382 10.1775,117.4652 10.6545,117.7022 C11.1315,117.9382 10.7955,119.5932 9.9025,121.3992" id="Fill-241" fill="#AD5C49"></path>
            <path d="M10.1749,120.3279 C9.7169,121.7419 8.7459,122.7639 8.2689,122.5279 C7.7919,122.2909 7.9669,121.0789 8.6839,119.7789 C9.5909,118.1319 9.9369,117.6609 10.0149,116.4809 C10.0869,115.3739 11.8959,115.0139 10.1749,120.3279" id="Fill-243" fill="#FFFFFF"></path>
            <path d="M24.6827,24.4661 C24.6827,27.3181 22.3707,29.6311 19.5187,29.6311 L18.2277,27.1771 C15.3747,27.1771 13.0637,22.8801 13.0637,20.0281 L13.0637,18.0911 C13.0637,15.2391 15.3747,12.9271 18.2277,12.9271 L19.5187,12.9271 C22.3707,12.9271 24.6827,15.2391 24.6827,18.0911 L24.6827,24.4661 Z" id="Fill-245" fill="#AD5C49"></path>
            <path d="M13.8927,18.0149 C13.6107,18.0149 13.3327,18.0369 13.0597,18.0689 C13.1137,18.4109 13.1497,18.7579 13.1497,19.1139 C13.1497,22.5509 10.5157,25.3799 7.1167,25.7839 C7.6307,28.9999 10.4637,31.4629 13.8927,31.4629 C17.6857,31.4629 20.7597,28.4519 20.7597,24.7389 C20.7597,21.0249 17.6857,18.0149 13.8927,18.0149" id="Fill-247" fill="#AD5C49"></path>
            <path d="M22.6192,14.8875 C22.6132,15.3625 22.5722,15.8485 22.4952,16.3425 C21.9732,19.6585 19.9582,22.1765 17.7562,22.4875 C17.6862,23.9885 17.3842,25.3395 17.0232,26.4875 C16.6122,27.7945 15.0802,29.1775 15.0802,29.1775 C14.7072,31.4925 22.5892,34.8925 22.4022,34.5185 C22.2162,34.1455 20.2722,31.4185 19.6382,28.9155 C19.1952,27.1715 19.7652,25.7335 20.4302,24.7405 C21.6612,23.2905 23.4482,23.3125 23.4482,23.3125 C23.6202,23.3125 23.7742,23.2385 23.8842,23.1215 C23.9892,22.7805 24.0462,22.4175 24.0462,22.0415 L24.0462,17.7835 C24.0462,16.6035 23.4852,15.5565 22.6192,14.8875" id="Fill-249" fill="#FFFFFF"></path>
            <path d="M21.4151,48.9129 C20.5441,51.0499 15.1921,51.7109 14.3211,49.5749 L9.3411,33.4939 C8.4701,31.3569 9.4221,29.6079 11.4571,29.6079 L15.8541,29.6079 L17.8391,30.6009 L19.5351,29.6079 L22.9651,29.6079 C25.0001,29.6079 25.9521,31.3569 25.0811,33.4939 L21.4151,48.9129 Z" id="Fill-251" fill="#DBDAC6"></path>
            <path d="M15.4571,54.3665 C14.0111,54.1305 13.9981,54.9645 13.0021,57.0565 C11.0481,61.1575 10.0171,67.2075 10.8541,73.6345 C11.8361,81.1625 13.9021,87.7175 16.3301,91.8275 C17.7251,88.2875 18.3771,84.0365 18.8981,79.3265 C20.5221,64.6765 19.9031,55.0905 15.4571,54.3665" id="Fill-253" fill="#FFFFFF"></path>
            <path d="M9.3077,46.9261 C9.3077,46.9261 8.1587,46.8261 7.3077,51.6431 C6.9447,53.6981 6.7447,56.0641 6.6347,58.1011 C6.4887,60.8381 8.0737,58.0021 8.0737,58.0021 L9.7417,52.7071 C9.7417,52.7071 10.7197,48.4651 9.3077,46.9261" id="Fill-255" fill="#DBDAC6"></path>
            <path d="M9.3614,30.6268 C7.2674,34.9988 8.1304,50.8058 8.1304,50.8058 C8.1304,50.8058 9.6324,56.6988 11.8954,35.3788 C12.5464,29.2618 9.8774,29.5478 9.3614,30.6268" id="Fill-257" fill="#DBDAC6"></path>
            <path d="M25.3692,31.3372 L26.9772,49.1662 C26.9772,49.1662 23.9872,48.7272 21.9752,35.4142 C21.1132,29.7122 24.3262,30.7522 25.3692,31.3372" id="Fill-259" fill="#DBDAC6"></path>
            <path d="M6.1192,68.1556 C5.9782,67.9676 5.5542,67.4056 5.5542,67.4056 L5.1362,66.3376 L5.1662,64.4756 C5.1662,64.4756 5.4412,62.5106 5.8102,61.8066 C6.1812,61.1026 6.6372,58.1716 6.7802,57.8226 C6.9232,57.4746 8.0242,57.5006 8.0242,57.5006 C8.0242,57.5006 7.4632,60.1616 7.1312,61.3696 C6.7992,62.5776 6.9192,64.4666 6.8062,64.9446 C6.7212,65.3106 6.5982,65.6366 6.4882,65.8846 C6.3522,66.1926 6.2492,66.1656 6.2672,65.8846 C6.2932,65.4746 6.3322,64.9276 6.3682,64.7236 C6.4272,64.3816 6.0132,64.4966 6.0132,64.4966 C6.0132,64.4966 5.6902,65.5496 5.6702,66.3296 C5.6682,66.3986 5.7422,66.5876 5.7732,66.7006 C5.8372,66.9346 5.8342,67.0536 5.8972,67.2076 C5.9872,67.4266 6.1972,67.7036 6.1972,67.7036 C6.1972,67.7036 6.3422,67.9326 6.3122,68.0366 C6.2792,68.1566 6.1892,68.2476 6.1192,68.1556" id="Fill-261" fill="#FFFFFF"></path>
            <polygon id="Fill-263" fill="#C9C8B6" points="17.6329 30.3372 16.6399 31.6192 14.2059 29.7672 15.0919 28.4582"></polygon>
            <polygon id="Fill-265" fill="#C9C8B6" points="19.7833 28.6414 18.2943 30.2134 19.3283 31.4544 20.6923 29.5104"></polygon>
            <path d="M17.8898,49.388 C18.1798,49.308 18.4708,49.229 18.7608,49.149 C20.2298,42.829 20.1078,36.202 18.4188,30.255 C18.1378,30.19 17.8138,30.334 17.5328,30.269 C19.2468,36.348 19.4048,42.916 17.8898,49.388" id="Fill-267" fill="#C9C8B6"></path>
            <path d="M27.4278,91.9578 C27.5318,91.4528 27.5858,90.8738 27.5888,90.2558 C27.4678,86.8008 27.6078,83.2908 27.0488,76.7268 C26.4968,70.3518 25.2438,60.9218 22.5448,50.0168 C22.2838,48.9038 21.9638,47.9458 21.5988,47.1658 C19.1468,46.8248 16.6538,48.4928 14.1108,49.2128 C13.1798,50.9438 12.3658,53.0178 11.7998,55.5198 C9.0368,66.8128 7.6568,73.3398 6.9248,78.8178 C6.1848,84.1258 6.0968,88.3868 5.7218,91.2178 C12.7368,102.8918 19.9648,81.1648 27.4278,91.9578" id="Fill-269" fill="#3C463B"></path>
            <path d="M28.1114,65.2103 C28.1114,65.2103 27.8484,67.3433 27.6364,67.7343 C27.4894,68.0053 26.5844,69.1713 26.5844,69.1713 C26.5844,69.1713 26.6174,68.3813 26.9544,67.8923 C27.2914,67.4023 28.1114,65.2103 28.1114,65.2103" id="Fill-271" fill="#E2C59C"></path>
            <path d="M25.1847,45.3401 C25.1847,45.3401 24.1197,45.5161 24.8827,51.2261 C25.6467,56.9361 28.0527,65.1511 28.0527,65.1511 L27.4117,51.8261 C27.4117,51.8261 26.9447,46.7401 25.1847,45.3401" id="Fill-273" fill="#FFFFFF"></path>
            <path d="M27.0694,60.7088 C27.3564,63.4338 26.2384,64.7258 25.9664,65.8438 C25.6954,66.9618 25.2204,68.1048 25.2304,68.0978 C26.2274,67.3858 26.1654,66.5018 26.4634,66.0278 C26.7594,65.5538 26.5984,65.6858 26.7664,66.6478 C26.8634,67.1958 26.0804,68.2538 25.6644,69.0008 C25.3034,69.6468 25.3084,70.0298 25.3084,70.0298 C25.3084,70.0298 26.1304,69.2368 26.7544,68.2648 C27.5074,67.0928 28.0954,65.6788 28.1744,65.3498 C28.3214,64.7478 28.1864,62.9198 27.8914,61.6368 C27.5604,60.1898 26.8624,58.7448 27.0694,60.7088" id="Fill-275" fill="#FFFFFF"></path>
            <path d="M27.94,58.0716 C28.315,55.3216 27.635,51.0316 26.522,46.3496 C26.19,44.9586 25.815,43.6306 25.408,42.3876 C24.152,44.3526 24.238,50.0546 25.772,56.4966 C25.943,57.2236 26.13,57.9316 26.325,58.6216 C26.757,58.4706 27.518,58.2866 27.94,58.0716" id="Fill-277" fill="#DBDAC6"></path>
            <path d="M19.4239,117.5833 C19.4239,117.5833 18.9459,117.3783 17.6259,117.1283 C16.8549,116.9823 16.2689,116.9863 15.9909,116.6973 C15.5329,116.2193 15.7869,115.0603 15.5639,115.1123 C14.4709,115.3633 14.0929,117.9173 14.7309,118.2363 C15.3669,118.5553 18.9689,118.1293 19.2649,118.1073 C19.5609,118.0843 19.5149,117.5153 19.4239,117.5833" id="Fill-279" fill="#DBE4E9"></path>
            <path d="M18.673,117.3514 C18.877,118.2114 16.238,117.8654 15.556,117.6404 C14.903,117.4274 14.486,117.3594 14.486,117.3594 C14.459,117.3594 14.433,117.3554 14.405,117.3544 C14.402,117.3744 14.396,117.3964 14.396,117.4164 C14.396,117.8884 14.188,118.5174 14.942,118.5174 L19.674,118.5174 C23.542,118.5174 18.668,117.3314 18.673,117.3514" id="Fill-281" fill="#AD5C49"></path>
        </g>
    </g>
</svg>