<svg id="Layer_1" data-name="Layer 1" xmlns="http://www.w3.org/2000/svg" viewBox="0 0 141.5 141.28">
  <defs>
    <style>
      .cls-1 {
        fill: #363636;
      }
    </style>
  </defs>
  <title>social_media_advertising</title>
  <path class="cls-1" d="M442.46,334.34H400.81a1.5,1.5,0,0,1-1.5-1.5v-9.45a1.5,1.5,0,0,1,1.5-1.5h41.65a1.5,1.5,0,0,1,1.5,1.5v9.45A1.5,1.5,0,0,1,442.46,334.34Zm-40.15-3H441v-6.45H402.31Z" transform="translate(-350.82 -208.76)"/>
  <path class="cls-1" d="M427,324.54H416a1.5,1.5,0,0,1-1.5-1.5v-19a1.5,1.5,0,0,1,1.5-1.5h11a1.5,1.5,0,0,1,1.5,1.5v19A1.5,1.5,0,0,1,427,324.54Zm-9.55-3h8v-16h-8Z" transform="translate(-350.82 -208.76)"/>
  <path class="cls-1" d="M484.08,305.56h-125a1.5,1.5,0,0,1-1.5-1.5V215a1.5,1.5,0,0,1,1.5-1.5h12.79a1.5,1.5,0,0,1,1.5,1.5v3.75H394.1V215a1.5,1.5,0,0,1,1.5-1.5h51.81a1.5,1.5,0,0,1,1.5,1.5v3.75h20.75V215a1.5,1.5,0,0,1,1.5-1.5h12.92a1.5,1.5,0,0,1,1.5,1.5v89A1.5,1.5,0,0,1,484.08,305.56Zm-123.52-3h122v-86h-9.92v3.75a1.5,1.5,0,0,1-1.5,1.5H447.41a1.5,1.5,0,0,1-1.5-1.5v-3.75H397.1v3.75a1.5,1.5,0,0,1-1.5,1.5H371.85a1.5,1.5,0,0,1-1.5-1.5v-3.75h-9.79Z" transform="translate(-350.82 -208.76)"/>
  <path class="cls-1" d="M395.6,221.79H371.85a1.5,1.5,0,0,1-1.5-1.5v-10a1.5,1.5,0,0,1,1.5-1.5H395.6a1.5,1.5,0,0,1,1.5,1.5v10A1.5,1.5,0,0,1,395.6,221.79Zm-22.25-3H394.1v-7H373.35Z" transform="translate(-350.82 -208.76)"/>
  <path class="cls-1" d="M471.16,221.79H447.41a1.5,1.5,0,0,1-1.5-1.5v-10a1.5,1.5,0,0,1,1.5-1.5h23.75a1.5,1.5,0,0,1,1.5,1.5v10A1.5,1.5,0,0,1,471.16,221.79Zm-22.25-3h20.75v-7H448.91Z" transform="translate(-350.82 -208.76)"/>
  <path class="cls-1" d="M490.82,350H352.32a1.5,1.5,0,0,1-1.5-1.5v-15.7a1.5,1.5,0,0,1,1.5-1.5h138.5a1.5,1.5,0,0,1,1.5,1.5v15.7A1.5,1.5,0,0,1,490.82,350Zm-137-3h135.5v-12.7H353.82Z" transform="translate(-350.82 -208.76)"/>
  <path class="cls-1" d="M364,350a1.5,1.5,0,0,1-1.5-1.5v-2.71a1.5,1.5,0,1,1,3,0v2.71A1.5,1.5,0,0,1,364,350Z" transform="translate(-350.82 -208.76)"/>
  <path class="cls-1" d="M376.65,350a1.5,1.5,0,0,1-1.5-1.5v-2.71a1.5,1.5,0,0,1,3,0v2.71A1.5,1.5,0,0,1,376.65,350Z" transform="translate(-350.82 -208.76)"/>
  <path class="cls-1" d="M389.32,350a1.5,1.5,0,0,1-1.5-1.5v-2.71a1.5,1.5,0,0,1,3,0v2.71A1.5,1.5,0,0,1,389.32,350Z" transform="translate(-350.82 -208.76)"/>
  <path class="cls-1" d="M402,350a1.5,1.5,0,0,1-1.5-1.5v-2.71a1.5,1.5,0,1,1,3,0v2.71A1.5,1.5,0,0,1,402,350Z" transform="translate(-350.82 -208.76)"/>
  <path class="cls-1" d="M414.65,350a1.5,1.5,0,0,1-1.5-1.5v-2.71a1.5,1.5,0,0,1,3,0v2.71A1.5,1.5,0,0,1,414.65,350Z" transform="translate(-350.82 -208.76)"/>
  <path class="cls-1" d="M427.32,350a1.5,1.5,0,0,1-1.5-1.5v-2.71a1.5,1.5,0,0,1,3,0v2.71A1.5,1.5,0,0,1,427.32,350Z" transform="translate(-350.82 -208.76)"/>
  <path class="cls-1" d="M440,350a1.5,1.5,0,0,1-1.5-1.5v-2.71a1.5,1.5,0,1,1,3,0v2.71A1.5,1.5,0,0,1,440,350Z" transform="translate(-350.82 -208.76)"/>
  <path class="cls-1" d="M452.65,350a1.5,1.5,0,0,1-1.5-1.5v-2.71a1.5,1.5,0,0,1,3,0v2.71A1.5,1.5,0,0,1,452.65,350Z" transform="translate(-350.82 -208.76)"/>
  <path class="cls-1" d="M465.32,350a1.5,1.5,0,0,1-1.5-1.5v-2.71a1.5,1.5,0,0,1,3,0v2.71A1.5,1.5,0,0,1,465.32,350Z" transform="translate(-350.82 -208.76)"/>
  <path class="cls-1" d="M478,350a1.5,1.5,0,0,1-1.5-1.5v-2.71a1.5,1.5,0,1,1,3,0v2.71A1.5,1.5,0,0,1,478,350Z" transform="translate(-350.82 -208.76)"/>
  <path class="cls-1" d="M360.38,326.22c-3.86,0-7-3.81-7-8.5s3.14-8.5,7-8.5,7,3.82,7,8.5S364.24,326.22,360.38,326.22Zm0-14c-2.17,0-4,2.52-4,5.5s1.83,5.5,4,5.5,4-2.52,4-5.5S362.55,312.22,360.38,312.22Z" transform="translate(-350.82 -208.76)"/>
  <path class="cls-1" d="M383.85,327.4a7.91,7.91,0,0,1-3.15-.66,8,8,0,0,1-3.15.66,7.79,7.79,0,0,1-4.6-14.09,7.79,7.79,0,0,1,14.5-.62,7.79,7.79,0,0,1-3.6,14.71Zm-3.15-3.85a1.44,1.44,0,0,1,.75.21,4.8,4.8,0,1,0,4.24-8.59,1.51,1.51,0,0,1-.84-.89,4.79,4.79,0,0,0-9.17.35,1.47,1.47,0,0,1-.66.9,4.79,4.79,0,0,0,4.92,8.23A1.48,1.48,0,0,1,380.7,323.55Z" transform="translate(-350.82 -208.76)"/>
  <path class="cls-1" d="M380.7,334.34a1.5,1.5,0,0,1-1.5-1.5V319a1.5,1.5,0,0,1,3,0v13.87A1.51,1.51,0,0,1,380.7,334.34Z" transform="translate(-350.82 -208.76)"/>
  <path class="cls-1" d="M360.38,334.34a1.5,1.5,0,0,1-1.5-1.5V319a1.5,1.5,0,0,1,3,0v13.87A1.5,1.5,0,0,1,360.38,334.34Z" transform="translate(-350.82 -208.76)"/>
  <path class="cls-1" d="M459,326.22c-3.86,0-7-3.81-7-8.5s3.14-8.5,7-8.5,7,3.82,7,8.5S462.89,326.22,459,326.22Zm0-14c-2.17,0-4,2.52-4,5.5s1.83,5.5,4,5.5,4-2.52,4-5.5S461.2,312.22,459,312.22Z" transform="translate(-350.82 -208.76)"/>
  <path class="cls-1" d="M482.49,327.4a8,8,0,0,1-3.15-.66,7.91,7.91,0,0,1-3.15.66,7.79,7.79,0,0,1-4.59-14.09,7.79,7.79,0,0,1,14.5-.62,7.8,7.8,0,0,1-3.61,14.71Zm-3.15-3.85a1.5,1.5,0,0,1,.76.21,4.8,4.8,0,1,0,4.24-8.59,1.51,1.51,0,0,1-.84-.89,4.79,4.79,0,0,0-9.17.35,1.47,1.47,0,0,1-.66.9,4.79,4.79,0,0,0,4.92,8.23A1.44,1.44,0,0,1,479.34,323.55Z" transform="translate(-350.82 -208.76)"/>
  <path class="cls-1" d="M479.34,334.34a1.51,1.51,0,0,1-1.5-1.5V319a1.5,1.5,0,0,1,3,0v13.87A1.5,1.5,0,0,1,479.34,334.34Z" transform="translate(-350.82 -208.76)"/>
  <path class="cls-1" d="M459,334.34a1.5,1.5,0,0,1-1.5-1.5V319a1.5,1.5,0,0,1,3,0v13.87A1.5,1.5,0,0,1,459,334.34Z" transform="translate(-350.82 -208.76)"/>
  <path class="cls-1" d="M484.08,276.51H443.76a1.5,1.5,0,0,1-.5-2.92l4.83-1.69-2.51-5.24a1.48,1.48,0,0,1,.35-1.76l4.32-3.88-4.32-3.89a1.48,1.48,0,0,1-.35-1.76l2.51-5.23-5.48-1.93a1.49,1.49,0,0,1-1-1.49l.06-1.19a1.5,1.5,0,0,1,1.5-1.42h40.91a1.5,1.5,0,0,1,1.5,1.5V275A1.5,1.5,0,0,1,484.08,276.51Zm-32.62-3h31.12v-26.4H448.51l2.15.75a1.51,1.51,0,0,1,.89.84,1.52,1.52,0,0,1,0,1.22l-2.75,5.73,4.72,4.25A1.5,1.5,0,0,1,454,261a1.48,1.48,0,0,1-.5,1.11l-4.72,4.25,2.74,5.73a1.48,1.48,0,0,1,0,1.22Z" transform="translate(-350.82 -208.76)"/>
  <path class="cls-1" d="M399.89,276.51H359.06a1.5,1.5,0,0,1-1.5-1.5v-29.4a1.5,1.5,0,0,1,1.5-1.5h41.41a1.5,1.5,0,0,1,1.5,1.42l.06,1.19a1.49,1.49,0,0,1-1,1.49l-5.48,1.92,2.52,5.24a1.51,1.51,0,0,1-.35,1.76L393.39,261l4.33,3.88a1.51,1.51,0,0,1,.35,1.76l-2.52,5.24,4.83,1.69a1.5,1.5,0,0,1-.49,2.92Zm-39.33-3h31.62l-.09-.18a1.52,1.52,0,0,1,0-1.22l2.75-5.73-4.72-4.25a1.48,1.48,0,0,1-.5-1.11,1.5,1.5,0,0,1,.5-1.12l4.72-4.25-2.74-5.73a1.48,1.48,0,0,1,0-1.22,1.53,1.53,0,0,1,.89-.84l2.14-.75H360.56Z" transform="translate(-350.82 -208.76)"/>
  <path class="cls-1" d="M421.82,293.19a1.5,1.5,0,0,1-1.12-.5L416.46,288l-5.73,2.75a1.51,1.51,0,0,1-1.23,0,1.49,1.49,0,0,1-.84-.88l-2.1-6-6.35.34a1.56,1.56,0,0,1-1.14-.44,1.51,1.51,0,0,1-.44-1.14l.35-6.34-6-2.11a1.48,1.48,0,0,1-.89-.84,1.52,1.52,0,0,1,0-1.22l2.75-5.73-4.72-4.25a1.48,1.48,0,0,1-.5-1.11,1.5,1.5,0,0,1,.5-1.12l4.72-4.25-2.74-5.73a1.48,1.48,0,0,1,0-1.22,1.53,1.53,0,0,1,.89-.84l6-2.11-.34-6.34a1.46,1.46,0,0,1,.43-1.14,1.56,1.56,0,0,1,1.14-.44l6.35.34,2.1-6a1.51,1.51,0,0,1,2.07-.86l5.73,2.75,4.24-4.73a1.56,1.56,0,0,1,2.24,0l4.24,4.73,5.73-2.75a1.51,1.51,0,0,1,1.23,0,1.48,1.48,0,0,1,.84.89l2.1,6,6.35-.34a1.51,1.51,0,0,1,1.58,1.58l-.35,6.34,6,2.11a1.51,1.51,0,0,1,.89.84,1.52,1.52,0,0,1,0,1.22l-2.75,5.73,4.72,4.25A1.5,1.5,0,0,1,454,261a1.48,1.48,0,0,1-.5,1.11l-4.72,4.25,2.74,5.73a1.48,1.48,0,0,1,0,1.22,1.5,1.5,0,0,1-.89.84l-6,2.11.35,6.34a1.51,1.51,0,0,1-.44,1.14,1.47,1.47,0,0,1-1.14.44l-6.35-.34-2.1,6a1.51,1.51,0,0,1-2.07.85L427.18,288l-4.24,4.73A1.5,1.5,0,0,1,421.82,293.19Zm-5-8.57a1.52,1.52,0,0,1,1.12.5l3.88,4.32,3.88-4.32a1.51,1.51,0,0,1,1.77-.35l5.23,2.51,1.92-5.48a1.55,1.55,0,0,1,1.5-1l5.8.32-.31-5.8a1.49,1.49,0,0,1,1-1.5l5.48-1.92-2.51-5.24a1.48,1.48,0,0,1,.35-1.76l4.32-3.88-4.32-3.89a1.48,1.48,0,0,1-.35-1.76l2.51-5.23-5.48-1.93a1.49,1.49,0,0,1-1-1.49l.31-5.8-5.8.31a1.52,1.52,0,0,1-1.5-1l-1.92-5.48-5.23,2.51a1.5,1.5,0,0,1-1.77-.35l-3.88-4.32-3.88,4.32a1.5,1.5,0,0,1-1.77.35l-5.23-2.51L409,240.23a1.51,1.51,0,0,1-1.5,1l-5.8-.31.31,5.8a1.49,1.49,0,0,1-1,1.49l-5.48,1.92,2.52,5.24a1.51,1.51,0,0,1-.35,1.76L393.39,261l4.33,3.88a1.51,1.51,0,0,1,.35,1.76l-2.52,5.24,5.48,1.92a1.49,1.49,0,0,1,1,1.5l-.31,5.8,5.8-.32a1.54,1.54,0,0,1,1.5,1l1.92,5.48,5.23-2.51A1.51,1.51,0,0,1,416.82,284.62Z" transform="translate(-350.82 -208.76)"/>
  <path class="cls-1" d="M415.25,280.17h0a1.5,1.5,0,0,1-1-1.89h0a1.5,1.5,0,0,1,1.89-1h0a1.49,1.49,0,0,1,1,1.89h0a1.48,1.48,0,0,1-1.42,1h0A1.47,1.47,0,0,1,415.25,280.17Zm10.54-1a1.5,1.5,0,0,1,1-1.89h0a1.49,1.49,0,0,1,1.89,1h0a1.49,1.49,0,0,1-1,1.89h0a1.47,1.47,0,0,1-.46.07h0A1.51,1.51,0,0,1,425.79,279.2Zm-20.61-6.33a1.49,1.49,0,0,1,.32-2.09h0a1.51,1.51,0,0,1,2.1.32h0a1.5,1.5,0,0,1-.33,2.1h0a1.52,1.52,0,0,1-.88.29h0A1.48,1.48,0,0,1,405.18,272.87Zm30.46.3a1.49,1.49,0,0,1-.33-2.09h0a1.5,1.5,0,0,1,2.1-.33h0a1.5,1.5,0,0,1,.33,2.09h0a1.49,1.49,0,0,1-1.22.62h0A1.47,1.47,0,0,1,435.64,273.17Zm-34.33-12.11a1.51,1.51,0,0,1,1.5-1.51h0a1.5,1.5,0,0,1,1.5,1.5h0a1.5,1.5,0,0,1-1.49,1.5h0A1.51,1.51,0,0,1,401.31,261.06Zm37.27,0s0,0,0-.08h0a1.5,1.5,0,0,1,1.5-1.5h0a1.5,1.5,0,0,1,1.51,1.49h0a.09.09,0,0,1,0,.05h0a0,0,0,0,1,0,0h0a1.52,1.52,0,0,1-1.51,1.51h0A1.5,1.5,0,0,1,438.58,261Zm3-.09Zm-36.12-9.62a1.49,1.49,0,0,1-.33-2.09h0a1.5,1.5,0,0,1,2.09-.34h0a1.51,1.51,0,0,1,.34,2.1h0a1.52,1.52,0,0,1-1.22.62h0A1.47,1.47,0,0,1,405.46,251.31Zm29.81-.42a1.49,1.49,0,0,1,.32-2.09h0a1.5,1.5,0,0,1,2.1.32h0a1.5,1.5,0,0,1-.33,2.1h0a1.5,1.5,0,0,1-.88.29h0A1.48,1.48,0,0,1,435.27,250.89Zm-21.06-7.12a1.5,1.5,0,0,1,1-1.89h0a1.49,1.49,0,0,1,1.89,1h0a1.5,1.5,0,0,1-1,1.89h0a1.48,1.48,0,0,1-.46.08h0A1.52,1.52,0,0,1,414.21,243.77Zm12.48.93a1.5,1.5,0,0,1-1-1.89h0a1.5,1.5,0,0,1,1.88-1h0a1.51,1.51,0,0,1,1,1.89h0a1.51,1.51,0,0,1-1.43,1h0A1.47,1.47,0,0,1,426.69,244.7Z" transform="translate(-350.82 -208.76)"/>
  <g>
    <path class="cls-1" d="M366.23,299a1.47,1.47,0,0,1-.58-.12,1.39,1.39,0,0,1-.48-.32,1.47,1.47,0,0,1-.44-1.06,1.53,1.53,0,0,1,0-.3,1.47,1.47,0,0,1,.08-.28c0-.09.09-.17.14-.26a1.3,1.3,0,0,1,.19-.22,1,1,0,0,1,.22-.19l.26-.14a1.47,1.47,0,0,1,.28-.08,1.52,1.52,0,0,1,1.36.41,1.24,1.24,0,0,1,.18.22,1.65,1.65,0,0,1,.14.26,1.41,1.41,0,0,1,.12.58,1.39,1.39,0,0,1-.12.57,1.42,1.42,0,0,1-.81.81A1.39,1.39,0,0,1,366.23,299Z" transform="translate(-350.82 -208.76)"/>
    <path class="cls-1" d="M462.89,297.46a1.5,1.5,0,0,1,1.5-1.5h0a1.5,1.5,0,0,1,1.5,1.5h0a1.5,1.5,0,0,1-1.5,1.5h0A1.5,1.5,0,0,1,462.89,297.46Zm-12.27,0a1.5,1.5,0,0,1,1.5-1.5h0a1.5,1.5,0,0,1,1.5,1.5h0a1.5,1.5,0,0,1-1.5,1.5h0A1.5,1.5,0,0,1,450.62,297.46Zm-12.27,0a1.5,1.5,0,0,1,1.5-1.5h0a1.5,1.5,0,0,1,1.5,1.5h0a1.5,1.5,0,0,1-1.5,1.5h0A1.5,1.5,0,0,1,438.35,297.46Zm-12.27,0a1.5,1.5,0,0,1,1.5-1.5h0a1.5,1.5,0,0,1,1.5,1.5h0a1.5,1.5,0,0,1-1.5,1.5h0A1.5,1.5,0,0,1,426.08,297.46Zm-12.27,0a1.5,1.5,0,0,1,1.5-1.5h0a1.5,1.5,0,0,1,1.5,1.5h0a1.5,1.5,0,0,1-1.5,1.5h0A1.5,1.5,0,0,1,413.81,297.46Zm-12.27,0A1.5,1.5,0,0,1,403,296h0a1.5,1.5,0,0,1,1.5,1.5h0A1.5,1.5,0,0,1,403,299h0A1.5,1.5,0,0,1,401.54,297.46Zm-12.27,0a1.5,1.5,0,0,1,1.5-1.5h0a1.5,1.5,0,0,1,1.5,1.5h0a1.5,1.5,0,0,1-1.5,1.5h0A1.5,1.5,0,0,1,389.27,297.46Zm-12.27,0a1.5,1.5,0,0,1,1.5-1.5h0a1.5,1.5,0,0,1,1.5,1.5h0a1.5,1.5,0,0,1-1.5,1.5h0A1.5,1.5,0,0,1,377,297.46Z" transform="translate(-350.82 -208.76)"/>
    <path class="cls-1" d="M476.66,299a1.49,1.49,0,0,1-1.38-2.08,1.1,1.1,0,0,1,.14-.26,1.24,1.24,0,0,1,.18-.22,1.55,1.55,0,0,1,2.12,0,1.3,1.3,0,0,1,.19.22c0,.09.1.17.14.26a1.47,1.47,0,0,1,.08.28,1.53,1.53,0,0,1,0,.3,1.47,1.47,0,0,1-.44,1.06,1.39,1.39,0,0,1-.48.32A1.47,1.47,0,0,1,476.66,299Z" transform="translate(-350.82 -208.76)"/>
  </g>
  <g>
    <path class="cls-1" d="M367,226.7a1.5,1.5,0,0,1-1.5-1.5,1.41,1.41,0,0,1,.12-.58,1.58,1.58,0,0,1,.13-.26,2,2,0,0,1,.19-.22,1.37,1.37,0,0,1,.23-.19l.26-.14a1.29,1.29,0,0,1,.28-.08,1.5,1.5,0,0,1,1.35.41,2,2,0,0,1,.19.22c0,.09.1.17.14.26s.06.19.08.28a1.5,1.5,0,0,1-.41,1.36,1.34,1.34,0,0,1-.49.32A1.39,1.39,0,0,1,367,226.7Z" transform="translate(-350.82 -208.76)"/>
    <path class="cls-1" d="M462.58,225.2a1.5,1.5,0,0,1,1.5-1.5h0a1.5,1.5,0,0,1,1.5,1.5h0a1.5,1.5,0,0,1-1.5,1.5h0A1.5,1.5,0,0,1,462.58,225.2Zm-12.14,0a1.5,1.5,0,0,1,1.5-1.5h0a1.5,1.5,0,0,1,1.5,1.5h0a1.5,1.5,0,0,1-1.5,1.5h0A1.5,1.5,0,0,1,450.44,225.2Zm-12.14,0a1.5,1.5,0,0,1,1.5-1.5h0a1.5,1.5,0,0,1,1.5,1.5h0a1.5,1.5,0,0,1-1.5,1.5h0A1.5,1.5,0,0,1,438.3,225.2Zm-12.14,0a1.5,1.5,0,0,1,1.5-1.5h0a1.5,1.5,0,0,1,1.5,1.5h0a1.5,1.5,0,0,1-1.5,1.5h0A1.5,1.5,0,0,1,426.16,225.2Zm-12.14,0a1.51,1.51,0,0,1,1.51-1.5h0a1.5,1.5,0,0,1,1.5,1.5h0a1.5,1.5,0,0,1-1.5,1.5h0A1.51,1.51,0,0,1,414,225.2Zm-12.13,0a1.5,1.5,0,0,1,1.5-1.5h0a1.5,1.5,0,0,1,1.5,1.5h0a1.5,1.5,0,0,1-1.5,1.5h0A1.5,1.5,0,0,1,401.89,225.2Zm-12.14,0a1.5,1.5,0,0,1,1.5-1.5h0a1.5,1.5,0,0,1,1.5,1.5h0a1.5,1.5,0,0,1-1.5,1.5h0A1.5,1.5,0,0,1,389.75,225.2Zm-12.14,0a1.5,1.5,0,0,1,1.5-1.5h0a1.5,1.5,0,0,1,1.5,1.5h0a1.5,1.5,0,0,1-1.5,1.5h0A1.5,1.5,0,0,1,377.61,225.2Z" transform="translate(-350.82 -208.76)"/>
    <path class="cls-1" d="M476.22,226.7a1.5,1.5,0,0,1-1.5-1.5,1.41,1.41,0,0,1,.12-.58,1.58,1.58,0,0,1,.13-.26,2,2,0,0,1,.19-.22,1.5,1.5,0,0,1,1.35-.41,1.29,1.29,0,0,1,.28.08l.26.14a1.37,1.37,0,0,1,.23.19,2,2,0,0,1,.19.22,1.58,1.58,0,0,1,.13.26,1.49,1.49,0,0,1-.32,1.64,1.34,1.34,0,0,1-.49.32A1.39,1.39,0,0,1,476.22,226.7Z" transform="translate(-350.82 -208.76)"/>
  </g>
  <path class="cls-1" d="M421.21,269.88h0a1.47,1.47,0,0,1-1.28-.79l-4.26-7.93a1.5,1.5,0,1,1,2.64-1.42l3,5.6,6.34-10.64a1.5,1.5,0,0,1,2.58,1.53l-7.7,12.92A1.52,1.52,0,0,1,421.21,269.88Z" transform="translate(-350.82 -208.76)"/>
  <path class="cls-1" d="M490.82,342.3H352.32a1.5,1.5,0,0,1,0-3h138.5a1.5,1.5,0,0,1,0,3Z" transform="translate(-350.82 -208.76)"/>
</svg>
