<?xml version="1.0" encoding="UTF-8"?>
<svg width="117px" height="176px" viewBox="0 0 117 176" version="1.1" xmlns="http://www.w3.org/2000/svg" xmlns:xlink="http://www.w3.org/1999/xlink">
    <!-- Generator: Sketch 48 (47235) - http://www.bohemiancoding.com/sketch -->
    <title>Page 1</title>
    <desc>Created with Sketch.</desc>
    <defs>
        <polygon id="path-1" points="0 175.667 116.492 175.667 116.492 0 0 0"></polygon>
    </defs>
    <g id="Page-1" stroke="none" stroke-width="1" fill="none" fill-rule="evenodd">
        <g>
            <path d="M90.9591,174.9839 C90.9591,175.3589 90.6521,175.6669 90.2751,175.6669 L0.6851,175.6669 C0.3051,175.6669 0.0001,175.3589 0.0001,174.9839 L0.0001,47.3819 C0.0001,47.0039 0.3051,46.6989 0.6851,46.6989 L90.2751,46.6989 C90.6521,46.6989 90.9591,47.0039 90.9591,47.3819 L90.9591,174.9839 Z" id="Fill-1" fill="#E5E8EC"></path>
            <path d="M90.9591,53.9829 L90.9591,47.3819 C90.9591,47.0039 90.6521,46.6989 90.2751,46.6989 L0.6851,46.6989 C0.3051,46.6989 0.0001,47.0039 0.0001,47.3819 L0.0001,53.9829 L90.9591,53.9829 Z" id="Fill-3" fill="#B7BEC0"></path>
            <path d="M0.0001,159.7661 L0.0001,174.9841 C0.0001,175.3611 0.3051,175.6661 0.6851,175.6661 L90.2751,175.6661 C90.6521,175.6661 90.9591,175.3611 90.9591,174.9841 L90.9591,159.7661 L0.0001,159.7661 Z" id="Fill-5" fill="#CDD5D7"></path>
            <mask id="mask-2" fill="white">
                <use xlink:href="#path-1"></use>
            </mask>
            <g id="Clip-8"></g>
            <polygon id="Fill-7" fill="#FF876C" mask="url(#mask-2)" points="0 112.103 90.959 112.103 90.959 77.707 0 77.707"></polygon>
            <polygon id="Fill-9" fill="#FFFFFF" mask="url(#mask-2)" points="20.677 91.6 70.103 91.6 70.103 88.354 20.677 88.354"></polygon>
            <polygon id="Fill-10" fill="#FFFFFF" mask="url(#mask-2)" points="15.404 95.575 75.377 95.575 75.377 94.763 15.404 94.763"></polygon>
            <polygon id="Fill-11" fill="#FFFFFF" mask="url(#mask-2)" points="12.972 98.516 77.809 98.516 77.809 97.704 12.972 97.704"></polygon>
            <polygon id="Fill-12" fill="#FFFFFF" mask="url(#mask-2)" points="20.92 101.457 69.86 101.457 69.86 100.645 20.92 100.645"></polygon>
            <polygon id="Fill-13" fill="#484F59" mask="url(#mask-2)" points="40.312 65.25 57.647 65.25 57.647 62.999 40.312 62.999"></polygon>
            <polygon id="Fill-14" fill="#484F59" mask="url(#mask-2)" points="33.311 66.999 38.59 66.999 38.59 61.25 33.311 61.25"></polygon>
            <polygon id="Fill-15" fill="#B7BEC0" mask="url(#mask-2)" points="11.598 71.018 23.642 71.018 23.642 70.206 11.598 70.206"></polygon>
            <polygon id="Fill-16" fill="#B7BEC0" mask="url(#mask-2)" points="25.529 71.018 37.57 71.018 37.57 70.206 25.529 70.206"></polygon>
            <polygon id="Fill-17" fill="#B7BEC0" mask="url(#mask-2)" points="39.457 71.018 51.502 71.018 51.502 70.206 39.457 70.206"></polygon>
            <polygon id="Fill-18" fill="#B7BEC0" mask="url(#mask-2)" points="53.387 71.018 65.43 71.018 65.43 70.206 53.387 70.206"></polygon>
            <polygon id="Fill-19" fill="#B7BEC0" mask="url(#mask-2)" points="67.314 71.018 79.361 71.018 79.361 70.206 67.314 70.206"></polygon>
            <polyline id="Stroke-20" stroke="#FFFFFF" stroke-width="0.649" mask="url(#mask-2)" points="85.9659 96.4146 87.0609 94.9046 85.9659 93.3966"></polyline>
            <path d="M87.0606,94.9048 L83.7216,94.9048" id="Stroke-21" stroke="#FFFFFF" stroke-width="0.649" mask="url(#mask-2)"></path>
            <polyline id="Stroke-22" stroke="#FFFFFF" stroke-width="0.649" mask="url(#mask-2)" points="4.9952 96.4146 3.8962 94.9046 4.9952 93.3966"></polyline>
            <path d="M3.8966,94.9048 L7.2386,94.9048" id="Stroke-23" stroke="#FFFFFF" stroke-width="0.649" mask="url(#mask-2)"></path>
            <polygon id="Fill-24" fill="#BCD0E2" mask="url(#mask-2)" points="7.27 139.211 30.035 139.211 30.035 116.446 7.27 116.446"></polygon>
            <polygon id="Fill-25" fill="#BCD0E2" mask="url(#mask-2)" points="34.097 139.211 56.861 139.211 56.861 116.446 34.097 116.446"></polygon>
            <polygon id="Fill-26" fill="#BCD0E2" mask="url(#mask-2)" points="60.922 139.211 83.687 139.211 83.687 116.446 60.922 116.446"></polygon>
            <polygon id="Fill-27" fill="#B7BEC0" mask="url(#mask-2)" points="7.271 144.665 29.569 144.665 29.569 143.853 7.271 143.853"></polygon>
            <polygon id="Fill-28" fill="#B7BEC0" mask="url(#mask-2)" points="7.271 146.773 27.559 146.773 27.559 145.962 7.271 145.962"></polygon>
            <polygon id="Fill-29" fill="#B7BEC0" mask="url(#mask-2)" points="7.271 148.882 29.569 148.882 29.569 148.07 7.271 148.07"></polygon>
            <polygon id="Fill-30" fill="#B7BEC0" mask="url(#mask-2)" points="7.271 150.993 25.066 150.993 25.066 150.181 7.271 150.181"></polygon>
            <polygon id="Fill-31" fill="#B7BEC0" mask="url(#mask-2)" points="7.271 142.657 19.313 142.657 19.313 141.845 7.271 141.845"></polygon>
            <polygon id="Fill-32" fill="#B7BEC0" mask="url(#mask-2)" points="7.271 167.826 29.569 167.826 29.569 167.016 7.271 167.016"></polygon>
            <polygon id="Fill-33" fill="#B7BEC0" mask="url(#mask-2)" points="7.271 169.409 27.559 169.409 27.559 168.597 7.271 168.597"></polygon>
            <polygon id="Fill-34" fill="#B7BEC0" mask="url(#mask-2)" points="7.271 165.819 19.313 165.819 19.313 165.007 7.271 165.007"></polygon>
            <polygon id="Fill-35" fill="#B7BEC0" mask="url(#mask-2)" points="34.097 144.665 56.397 144.665 56.397 143.853 34.097 143.853"></polygon>
            <polygon id="Fill-36" fill="#B7BEC0" mask="url(#mask-2)" points="34.097 146.773 54.39 146.773 54.39 145.962 34.097 145.962"></polygon>
            <polygon id="Fill-37" fill="#B7BEC0" mask="url(#mask-2)" points="34.097 148.882 56.397 148.882 56.397 148.07 34.097 148.07"></polygon>
            <polygon id="Fill-38" fill="#B7BEC0" mask="url(#mask-2)" points="34.097 150.993 51.892 150.993 51.892 150.181 34.097 150.181"></polygon>
            <polygon id="Fill-39" fill="#B7BEC0" mask="url(#mask-2)" points="34.097 142.657 46.14 142.657 46.14 141.845 34.097 141.845"></polygon>
            <polygon id="Fill-40" fill="#B7BEC0" mask="url(#mask-2)" points="60.922 144.665 83.223 144.665 83.223 143.853 60.922 143.853"></polygon>
            <polygon id="Fill-41" fill="#B7BEC0" mask="url(#mask-2)" points="60.922 146.773 81.216 146.773 81.216 145.962 60.922 145.962"></polygon>
            <polygon id="Fill-42" fill="#B7BEC0" mask="url(#mask-2)" points="60.922 148.882 83.223 148.882 83.223 148.07 60.922 148.07"></polygon>
            <polygon id="Fill-43" fill="#B7BEC0" mask="url(#mask-2)" points="60.922 150.993 78.72 150.993 78.72 150.181 60.922 150.181"></polygon>
            <polygon id="Fill-44" fill="#B7BEC0" mask="url(#mask-2)" points="60.922 142.657 72.969 142.657 72.969 141.845 60.922 141.845"></polygon>
            <path d="M83.6895,167.2085 C83.6895,168.2515 82.8465,169.0945 81.8025,169.0945 C80.7605,169.0945 79.9185,168.2515 79.9185,167.2085 C79.9185,166.1675 80.7605,165.3235 81.8025,165.3235 C82.8465,165.3235 83.6895,166.1675 83.6895,167.2085" id="Fill-45" fill="#B7BEC0" mask="url(#mask-2)"></path>
            <path d="M78.8223,167.2085 C78.8223,168.2515 77.9783,169.0945 76.9353,169.0945 C75.8953,169.0945 75.0483,168.2515 75.0483,167.2085 C75.0483,166.1675 75.8953,165.3235 76.9353,165.3235 C77.9783,165.3235 78.8223,166.1675 78.8223,167.2085" id="Fill-46" fill="#B7BEC0" mask="url(#mask-2)"></path>
            <path d="M73.9552,167.2085 C73.9552,168.2515 73.1102,169.0945 72.0662,169.0945 C71.0282,169.0945 70.1812,168.2515 70.1812,167.2085 C70.1812,166.1675 71.0282,165.3235 72.0662,165.3235 C73.1102,165.3235 73.9552,166.1675 73.9552,167.2085" id="Fill-47" fill="#B7BEC0" mask="url(#mask-2)"></path>
            <path d="M11.752,50.2769 C11.752,50.9209 11.23,51.4419 10.587,51.4419 C9.942,51.4419 9.419,50.9209 9.419,50.2769 C9.419,49.6309 9.942,49.1109 10.587,49.1109 C11.23,49.1109 11.752,49.6309 11.752,50.2769" id="Fill-48" fill="#FFFFFF" mask="url(#mask-2)"></path>
            <path d="M7.942,50.2769 C7.942,50.9209 7.422,51.4419 6.778,51.4419 C6.133,51.4419 5.613,50.9209 5.613,50.2769 C5.613,49.6309 6.133,49.1109 6.778,49.1109 C7.422,49.1109 7.942,49.6309 7.942,50.2769" id="Fill-49" fill="#FFFFFF" mask="url(#mask-2)"></path>
            <path d="M4.1383,50.2769 C4.1383,50.9209 3.6153,51.4419 2.9703,51.4419 C2.3253,51.4419 1.8043,50.9209 1.8043,50.2769 C1.8043,49.6309 2.3253,49.1109 2.9703,49.1109 C3.6153,49.1109 4.1383,49.6309 4.1383,50.2769" id="Fill-50" fill="#FFFFFF" mask="url(#mask-2)"></path>
            <polygon id="Fill-51" fill="#30363D" mask="url(#mask-2)" points="74.225 175.168 116.492 175.168 116.492 138.684 74.225 138.684"></polygon>
            <polygon id="Fill-52" fill="#282D33" mask="url(#mask-2)" points="74.225 140.479 116.492 140.479 116.492 138.545 74.225 138.545"></polygon>
            <polygon id="Fill-53" fill="#282D33" mask="url(#mask-2)" points="87.906 142.592 116.492 142.592 116.492 140.058 87.906 140.058"></polygon>
            <polygon id="Fill-54" fill="#B7BEC0" mask="url(#mask-2)" points="75.172 141.817 83.005 141.817 83.005 141.446 75.172 141.446"></polygon>
            <polygon id="Fill-55" fill="#B7BEC0" mask="url(#mask-2)" points="75.172 173.751 83.005 173.751 83.005 173.38 75.172 173.38"></polygon>
            <polygon id="Fill-56" fill="#596273" mask="url(#mask-2)" points="88.835 141.817 94.008 141.817 94.008 141.446 88.835 141.446"></polygon>
            <polygon id="Fill-57" fill="#596273" mask="url(#mask-2)" points="96.845 141.817 102.018 141.817 102.018 141.446 96.845 141.446"></polygon>
            <polygon id="Fill-58" fill="#596273" mask="url(#mask-2)" points="74.756 139.866 75.36 139.866 75.36 139.208 74.756 139.208"></polygon>
            <polygon id="Fill-59" fill="#484F59" mask="url(#mask-2)" points="75.229 146.794 78.161 146.794 78.161 143.862 75.229 143.862"></polygon>
            <polygon id="Fill-60" fill="#484F59" mask="url(#mask-2)" points="78.475 146.794 81.406 146.794 81.406 143.862 78.475 143.862"></polygon>
            <polygon id="Fill-61" fill="#596273" mask="url(#mask-2)" points="81.406 146.794 81.72 146.794 81.72 143.862 81.406 143.862"></polygon>
            <polygon id="Fill-62" fill="#596273" mask="url(#mask-2)" points="76.091 145.99 77.298 145.99 77.298 144.671 76.091 144.671"></polygon>
            <polygon id="Fill-63" fill="#484F59" mask="url(#mask-2)" points="82.032 146.794 115.642 146.794 115.642 143.862 82.032 143.862"></polygon>
            <polygon id="Fill-64" fill="#CDD5D7" mask="url(#mask-2)" points="83.964 146.537 86.177 146.537 86.177 144.121 83.964 144.121"></polygon>
            <polygon id="Fill-65" fill="#596273" mask="url(#mask-2)" points="111.936 174.225 113.144 174.225 113.144 172.905 111.936 172.905"></polygon>
            <polygon id="Fill-66" fill="#596273" mask="url(#mask-2)" points="109.842 174.225 111.05 174.225 111.05 172.905 109.842 172.905"></polygon>
            <polygon id="Fill-67" fill="#596273" mask="url(#mask-2)" points="107.748 174.225 108.956 174.225 108.956 172.905 107.748 172.905"></polygon>
            <polygon id="Fill-68" fill="#596273" mask="url(#mask-2)" points="105.655 174.225 106.862 174.225 106.862 172.905 105.655 172.905"></polygon>
            <polygon id="Fill-69" fill="#B7BEC0" mask="url(#mask-2)" points="82.582 145.528 83.241 145.528 83.241 144.924 82.582 144.924"></polygon>
            <polygon id="Fill-70" fill="#B7BEC0" mask="url(#mask-2)" points="113.887 145.528 114.545 145.528 114.545 144.924 113.887 144.924"></polygon>
            <polygon id="Fill-71" fill="#B7BEC0" mask="url(#mask-2)" points="87.306 145.516 99.33 145.516 99.33 144.912 87.306 144.912"></polygon>
            <polygon id="Fill-72" fill="#596273" mask="url(#mask-2)" points="112.106 145.528 112.765 145.528 112.765 144.924 112.106 144.924"></polygon>
            <polygon id="Fill-73" fill="#282D33" mask="url(#mask-2)" points="75.229 150.041 78.161 150.041 78.161 147.109 75.229 147.109"></polygon>
            <polygon id="Fill-74" fill="#282D33" mask="url(#mask-2)" points="78.475 150.041 81.406 150.041 81.406 147.109 78.475 147.109"></polygon>
            <polygon id="Fill-75" fill="#CDD5D7" mask="url(#mask-2)" points="81.406 150.041 81.72 150.041 81.72 147.109 81.406 147.109"></polygon>
            <polygon id="Fill-76" fill="#596273" mask="url(#mask-2)" points="76.091 149.237 77.298 149.237 77.298 147.916 76.091 147.916"></polygon>
            <polygon id="Fill-77" fill="#282D33" mask="url(#mask-2)" points="83.709 150.041 111.245 150.041 111.245 147.109 83.709 147.109"></polygon>
            <polygon id="Fill-78" fill="#CDD5D7" mask="url(#mask-2)" points="83.964 149.783 86.177 149.783 86.177 147.366 83.964 147.366"></polygon>
            <polygon id="Fill-79" fill="#B7BEC0" mask="url(#mask-2)" points="82.582 148.773 83.241 148.773 83.241 148.169 82.582 148.169"></polygon>
            <polygon id="Fill-80" fill="#B7BEC0" mask="url(#mask-2)" points="87.308 148.762 94.22 148.762 94.22 148.158 87.308 148.158"></polygon>
            <polygon id="Fill-81" fill="#596273" mask="url(#mask-2)" points="112.106 148.773 112.765 148.773 112.765 148.169 112.106 148.169"></polygon>
            <polygon id="Fill-82" fill="#282D33" mask="url(#mask-2)" points="75.229 153.287 78.161 153.287 78.161 150.354 75.229 150.354"></polygon>
            <polygon id="Fill-83" fill="#282D33" mask="url(#mask-2)" points="78.475 153.287 81.406 153.287 81.406 150.354 78.475 150.354"></polygon>
            <polygon id="Fill-84" fill="#B7BEC0" mask="url(#mask-2)" points="81.406 153.287 81.72 153.287 81.72 150.354 81.406 150.354"></polygon>
            <polygon id="Fill-85" fill="#596273" mask="url(#mask-2)" points="76.091 152.48 77.298 152.48 77.298 151.162 76.091 151.162"></polygon>
            <polygon id="Fill-86" fill="#282D33" mask="url(#mask-2)" points="83.709 153.287 111.245 153.287 111.245 150.354 83.709 150.354"></polygon>
            <polygon id="Fill-87" fill="#CDD5D7" mask="url(#mask-2)" points="83.964 153.028 86.177 153.028 86.177 150.612 83.964 150.612"></polygon>
            <polygon id="Fill-88" fill="#B7BEC0" mask="url(#mask-2)" points="82.582 152.019 83.241 152.019 83.241 151.417 82.582 151.417"></polygon>
            <polygon id="Fill-89" fill="#B7BEC0" mask="url(#mask-2)" points="87.306 152.008 99.33 152.008 99.33 151.404 87.306 151.404"></polygon>
            <polygon id="Fill-90" fill="#596273" mask="url(#mask-2)" points="112.106 152.019 112.765 152.019 112.765 151.417 112.106 151.417"></polygon>
            <polygon id="Fill-91" fill="#282D33" mask="url(#mask-2)" points="75.229 156.533 78.161 156.533 78.161 153.6 75.229 153.6"></polygon>
            <polygon id="Fill-92" fill="#282D33" mask="url(#mask-2)" points="78.475 156.533 81.406 156.533 81.406 153.6 78.475 153.6"></polygon>
            <polygon id="Fill-93" fill="#596273" mask="url(#mask-2)" points="81.406 156.533 81.72 156.533 81.72 153.6 81.406 153.6"></polygon>
            <polygon id="Fill-94" fill="#596273" mask="url(#mask-2)" points="76.091 155.725 77.298 155.725 77.298 154.406 76.091 154.406"></polygon>
            <polygon id="Fill-95" fill="#596273" mask="url(#mask-2)" points="79.338 152.48 80.545 152.48 80.545 151.162 79.338 151.162"></polygon>
            <polygon id="Fill-96" fill="#596273" mask="url(#mask-2)" points="79.338 155.725 80.545 155.725 80.545 154.406 79.338 154.406"></polygon>
            <polygon id="Fill-97" fill="#282D33" mask="url(#mask-2)" points="83.709 156.533 111.245 156.533 111.245 153.6 83.709 153.6"></polygon>
            <polygon id="Fill-98" fill="#CDD5D7" mask="url(#mask-2)" points="83.964 156.275 86.177 156.275 86.177 153.857 83.964 153.857"></polygon>
            <polygon id="Fill-99" fill="#B7BEC0" mask="url(#mask-2)" points="82.582 155.266 83.241 155.266 83.241 154.661 82.582 154.661"></polygon>
            <polygon id="Fill-100" fill="#B7BEC0" mask="url(#mask-2)" points="87.306 155.254 99.33 155.254 99.33 154.65 87.306 154.65"></polygon>
            <polygon id="Fill-101" fill="#596273" mask="url(#mask-2)" points="112.106 155.266 112.765 155.266 112.765 154.661 112.106 154.661"></polygon>
            <path d="M89.4512,112.1763 C90.7612,114.8643 94.0472,115.9573 96.7912,114.6203 C99.5352,113.2823 100.7002,110.0213 99.3902,107.3333 C98.0802,104.6463 94.7942,103.5523 92.0492,104.8903 C89.3052,106.2263 88.1422,109.4883 89.4512,112.1763" id="Fill-102" fill="#282723" mask="url(#mask-2)"></path>
            <path d="M86.6754,119.0786 C88.3294,122.4716 92.4784,123.8526 95.9434,122.1646 C99.4084,120.4756 100.8774,116.3576 99.2244,112.9646 C97.5714,109.5706 93.4214,108.1896 89.9564,109.8786 C86.4914,111.5666 85.0234,115.6856 86.6754,119.0786" id="Fill-103" fill="#282723" mask="url(#mask-2)"></path>
            <path d="M92.4884,126.5767 C92.4884,126.5767 92.6914,127.4827 88.3274,128.5907 C83.9644,129.6987 77.2834,130.2447 77.2834,130.2447 L87.1124,126.7467 C87.1124,126.7467 90.9334,125.5897 92.4884,126.5767" id="Fill-104" fill="#E4EEF3" mask="url(#mask-2)"></path>
            <path d="M80.7984,129.6939 C78.7394,130.2839 78.1524,131.5689 77.4274,132.1239 C76.7024,132.6769 76.0234,133.4019 76.0264,133.3909 C76.2324,132.3799 76.8894,132.1639 77.1404,131.7829 C77.3924,131.4019 77.3464,131.5699 76.5984,131.7249 C76.1724,131.8139 75.6504,132.7589 75.2394,133.3179 C74.8834,133.7989 74.6054,133.9119 74.6054,133.9119 C74.6054,133.9119 74.9254,133.0149 75.4344,132.2229 C76.0484,131.2659 76.8884,130.3709 77.1014,130.2079 C77.4914,129.9099 78.8554,129.4659 79.8724,129.3159 C81.0214,129.1459 82.2804,129.2689 80.7984,129.6939" id="Fill-105" fill="#E4EEF3" mask="url(#mask-2)"></path>
            <path d="M77.2227,130.2163 C77.2227,130.2163 75.7617,131.0693 75.5447,131.3563 C75.3937,131.5543 74.8307,132.6323 74.8307,132.6323 C74.8307,132.6323 75.3927,132.3673 75.6417,131.9493 C75.8907,131.5333 77.2227,130.2163 77.2227,130.2163" id="Fill-106" fill="#E4EEF3" mask="url(#mask-2)"></path>
            <path d="M90.0513,125.2476 C90.0513,125.2476 94.1053,124.3446 94.5153,126.7846 C94.7483,128.1706 93.9753,128.8986 92.7443,129.1516 C90.4563,129.6186 87.8293,130.0266 87.8293,130.0266 L85.6343,126.6846 L90.0513,125.2476 Z" id="Fill-107" fill="#B0BFDE" mask="url(#mask-2)"></path>
            <path d="M89.8219,123.232 L90.9519,112.151 C90.9519,112.151 90.8709,109.251 91.9159,109.312 C93.4219,109.398 93.7099,111.9 93.8409,112.798 C94.1069,114.629 94.4919,115.349 94.4629,119.961 C94.4449,122.802 94.6469,126.012 94.4679,127.931 C94.3449,129.252 93.0569,127.783 91.7159,127.658 C89.2149,127.422 89.8219,123.232 89.8219,123.232" id="Fill-108" fill="#B0BFDE" mask="url(#mask-2)"></path>
            <polygon id="Fill-109" fill="#E4EEF3" mask="url(#mask-2)" points="65.5015 154.2779 61.7995 162.3039 56.6675 162.4179 54.0725 161.8919 59.6545 160.5659 62.6445 153.1129"></polygon>
            <path d="M61.233,163.5718 L60.551,163.4118 L60.171,162.5798 L56.03,162.7618 L52.695,162.1448 C52.695,162.1448 52.761,161.8908 52.918,161.8048 C53.507,161.4918 56.097,161.3368 56.097,161.3368 C56.097,161.3368 55.825,162.0568 56.119,162.2078 C56.413,162.3578 59.609,162.1618 60.377,162.0528 C61.696,161.8658 62.379,161.5328 62.32,161.7088 C62.234,161.9658 61.233,163.5718 61.233,163.5718" id="Fill-110" fill="#161711" mask="url(#mask-2)"></path>
            <path d="M85.9991,137.9566 L73.8961,137.6346 L64.8801,157.3706 L61.1461,155.8956 L69.9421,132.1476 C69.9421,132.1476 70.6391,130.6446 74.2951,130.6446 C77.8521,130.6446 92.2091,130.2536 93.8401,130.7066 C97.7091,131.7836 85.3331,134.6776 85.9991,137.9566" id="Fill-111" fill="#854638" mask="url(#mask-2)"></path>
            <path d="M94.607,105.145 C95.917,107.833 99.203,108.926 101.947,107.59 C104.692,106.253 105.855,102.99 104.545,100.303 C103.236,97.616 99.95,96.521 97.206,97.858 C94.461,99.196 93.298,102.457 94.607,105.145" id="Fill-112" fill="#282723" mask="url(#mask-2)"></path>
            <path d="M88.963,103.4058 C89.969,105.4688 92.457,106.3258 94.521,105.3198 L94.591,103.0918 C96.654,102.0848 97.512,99.5958 96.506,97.5338 L95.824,96.1338 C94.818,94.0678 92.33,93.2098 90.266,94.2168 L89.332,94.6708 C87.268,95.6768 86.41,98.1658 87.416,100.2288 L88.963,103.4058 Z" id="Fill-113" fill="#282723" mask="url(#mask-2)"></path>
            <path d="M87.7799,97.1822 C87.9509,97.5242 88.1519,97.8622 88.3819,98.1922 C89.9289,100.4082 92.2759,101.5192 93.9789,100.9662 C94.5569,102.0302 95.2529,102.9002 95.9189,103.6032 C96.6769,104.4042 98.2719,104.8652 98.2719,104.8652 C99.3589,106.4092 98.7439,110.8552 94.8579,111.3112 C92.5229,111.5872 93.0009,109.1252 93.8159,107.5902 C94.1989,106.8702 94.5659,106.0402 94.4819,105.6352 C94.1869,104.2182 93.6689,104.0252 92.8379,103.5402 C91.4349,102.9252 90.1499,103.5712 90.1499,103.5712 C90.0249,103.6312 89.8869,103.6332 89.7669,103.5862 C89.5709,103.3772 89.4009,103.1362 89.2689,102.8632 L87.7679,99.7812 C87.3519,98.9282 87.3889,97.9732 87.7799,97.1822" id="Fill-114" fill="#FFFFFF" mask="url(#mask-2)"></path>
            <path d="M99.9698,134.0474 C99.9698,134.0474 98.1958,134.4134 97.7028,134.5984 C97.0448,134.8464 95.1178,134.5334 95.1178,134.5334 C95.1178,134.5334 94.8718,125.0244 94.4068,121.7044 C93.9428,118.3874 93.0818,117.4854 93.0888,116.4474 C93.0988,114.7894 93.2348,114.4014 93.5268,113.1154 C93.8198,111.8274 92.9638,110.1164 93.2548,110.4444 C93.7228,110.9714 95.4808,111.7914 97.1218,109.9754 C97.4038,109.6624 99.9698,134.0474 99.9698,134.0474" id="Fill-115" fill="#194866" mask="url(#mask-2)"></path>
            <path d="M93.6744,106.5874 C93.6744,106.5874 91.2604,109.0204 91.3584,109.8194 C91.4554,110.6194 91.2104,113.9754 91.7644,117.5484 C92.3184,121.1204 92.7624,122.0084 92.8544,124.6164 C92.9454,127.2254 92.3414,127.8074 92.5604,131.0104 C92.7324,133.5194 93.1254,135.7314 93.1254,135.7314 C93.1254,135.7314 94.2644,136.0514 95.1244,135.1194 C95.9844,134.1874 95.6744,125.4644 95.3564,123.3164 C95.0404,121.1694 93.7784,115.5344 93.8534,114.0404 C93.9294,112.5434 94.4144,108.9704 94.6784,108.5004 C95.3394,107.3264 93.8654,106.7104 93.6744,106.5874" id="Fill-116" fill="#D1DBEA" mask="url(#mask-2)"></path>
            <path d="M93.6651,106.3638 C93.6651,106.3638 93.7951,106.5728 93.9631,106.6878 C94.2801,106.9048 94.6731,107.3318 94.6731,107.3318 C94.6731,107.3318 94.1901,107.0988 94.0051,107.5158 C93.7791,108.0278 93.6401,109.1838 93.6401,109.1838 C93.6401,109.1838 92.7481,107.7118 92.9591,107.2438 C93.3431,106.3958 93.6651,106.3638 93.6651,106.3638" id="Fill-117" fill="#B0BFDE" mask="url(#mask-2)"></path>
            <path d="M96.9742,112.1548 C97.9012,115.1358 101.1202,116.7868 104.1652,115.8418 C107.2102,114.8928 108.9272,111.7118 108.0002,108.7288 C107.0752,105.7478 103.8552,104.0968 100.8102,105.0438 C97.7652,105.9908 96.0472,109.1738 96.9742,112.1548" id="Fill-118" fill="#282723" mask="url(#mask-2)"></path>
            <polygon id="Fill-119" fill="#E4EEF3" mask="url(#mask-2)" points="77.44 156.0269 77.259 161.6499 76.114 162.9989 73.062 164.7579 70.797 164.3479 74.787 161.3759 75.08 155.4759"></polygon>
            <path d="M77.0836,162.8814 L76.0586,163.6144 L75.7436,163.3654 L72.9146,165.1584 C72.9146,165.1584 70.3376,165.8314 69.8406,165.2454 C69.6796,165.0574 70.0936,164.7434 70.6676,164.3174 C71.1226,163.9804 71.4006,163.8484 71.4006,163.8484 C71.4006,163.8484 71.5186,164.2874 72.5366,164.4564 C72.8626,164.5104 74.8816,163.1734 75.5746,162.8284 C76.8196,162.2074 77.3146,161.3354 77.3776,161.4164 C77.5416,161.6304 77.0836,162.8814 77.0836,162.8814" id="Fill-120" fill="#161711" mask="url(#mask-2)"></path>
            <path d="M101.3951,126.3863 L99.9341,129.8363 L97.4251,130.1443 L77.1721,131.4333 C77.1721,131.4333 75.3601,130.8733 74.2071,133.7373 C72.5641,137.8123 74.7111,158.2123 74.7111,158.2123 L77.7091,158.1663 L79.3291,138.9323 C79.3291,138.9323 98.7951,142.3383 104.4011,140.6163 C106.5531,139.9553 108.1971,136.1563 107.8901,132.3183 C107.6491,129.3103 105.6411,126.5443 105.6411,126.5443 L101.3951,126.3863 Z" id="Fill-121" fill="#AD5C49" mask="url(#mask-2)"></path>
            <path d="M98.6402,133.6294 C98.6402,133.6294 97.7002,125.1404 97.1662,121.1204 C96.6332,117.1034 96.7502,110.3594 96.6282,109.3934 C96.5062,108.4274 95.9992,107.0354 95.9992,107.0354 C95.9992,107.0354 96.9762,104.8424 98.2542,104.9134 C99.3792,104.9784 102.9252,106.1654 104.6432,106.8624 C105.8302,107.3464 105.2072,120.8794 105.3142,121.5924 C105.6982,124.1614 106.9602,127.1084 107.7782,129.1434 C108.4292,130.7604 108.9332,133.1754 108.9332,133.1754 C108.9332,133.1754 102.4492,132.4104 98.6402,133.6294" id="Fill-122" fill="#D1DBEA" mask="url(#mask-2)"></path>
            <path d="M98.0152,104.2486 L97.0622,105.3236 C97.0622,105.3236 95.7302,107.1626 96.1632,106.9046 C96.7122,106.5766 97.3422,108.4966 97.3422,108.4966 L99.1142,104.8626 L98.0152,104.2486 Z" id="Fill-123" fill="#B0BFDE" mask="url(#mask-2)"></path>
            <path d="M105.7799,124.8784 C105.7799,124.8784 107.2609,125.9294 101.6629,126.5064 C96.0649,127.0814 87.7139,126.6684 87.7139,126.6684 L100.5179,124.2414 C100.5179,124.2414 104.0489,123.5254 105.7799,124.8784" id="Fill-124" fill="#FFFFFF" mask="url(#mask-2)"></path>
            <path d="M92.1578,126.5894 C89.5028,126.9374 88.5308,128.2944 87.5308,128.8074 C86.5298,129.3194 85.5538,130.0294 85.5578,130.0194 C86.0058,128.9104 86.8598,128.7694 87.2428,128.3784 C87.6258,127.9874 87.5368,128.1704 86.5838,128.2304 C86.0418,128.2644 85.2158,129.2494 84.6018,129.8154 C84.0698,130.3034 83.7038,130.3864 83.7038,130.3864 C83.7038,130.3864 84.2708,129.4264 85.0508,128.6104 C85.9938,127.6284 87.2018,126.7484 87.4958,126.5974 C88.0348,126.3204 89.8028,126.0324 91.0888,126.0204 C92.5378,126.0054 94.0698,126.3394 92.1578,126.5894" id="Fill-125" fill="#FFFFFF" mask="url(#mask-2)"></path>
            <path d="M87.6441,126.6265 C87.6441,126.6265 85.6781,127.3605 85.3541,127.6515 C85.1291,127.8545 84.2281,128.9805 84.2281,128.9805 C84.2281,128.9805 84.9721,128.7675 85.3601,128.3365 C85.7481,127.9045 87.6441,126.6265 87.6441,126.6265" id="Fill-126" fill="#EDEEF0" mask="url(#mask-2)"></path>
            <path d="M102.4674,123.2906 L100.6474,110.9606 C100.6474,110.9606 101.0984,108.4206 101.8864,107.5506 C102.8214,106.5196 104.6024,106.8256 104.6024,106.8256 C104.6024,106.8256 106.6864,108.5326 106.8354,118.2976 C106.9384,124.9786 107.5504,127.7266 104.6714,128.0166 C101.9844,128.2876 98.9164,128.4546 98.9164,128.4546 L96.8784,124.4226 L102.4674,123.2906 Z" id="Fill-127" fill="#B0BFDE" mask="url(#mask-2)"></path>
            <polygon id="Fill-128" fill="#CDD5D7" mask="url(#mask-2)" points="69.601 130.326 87.271 130.326 87.271 129.962 69.601 129.962"></polygon>
            <path d="M79.4718,129.9409 C79.4718,130.2209 79.2708,130.4509 79.0248,130.4509 L69.9628,130.4509 C69.7178,130.4509 69.3818,130.2709 69.0808,129.5569 L64.6008,121.3779 C64.6008,121.0199 64.8778,120.8069 65.1238,120.8649 L74.4208,121.1449 C74.6678,121.2029 74.8688,121.3899 75.0088,121.7639 L79.4718,129.9409 Z" id="Fill-129" fill="#CDD5D7" mask="url(#mask-2)"></path>
            <path d="M78.3756,130.3257 L78.4676,130.3257 L87.3136,130.3257 C86.9976,130.4927 86.4676,130.6047 85.8666,130.6047 L78.4676,130.6047 L78.3756,130.6047 L70.9766,130.6047 C70.3756,130.6047 69.8456,130.4927 69.5286,130.3257 L78.3756,130.3257 Z" id="Fill-130" fill="#B7BEC0" mask="url(#mask-2)"></path>
            <path d="M33.2193,45.4322 C33.2193,45.4322 48.5813,45.4652 54.5113,45.5542 C58.6133,45.6162 58.9873,39.7672 57.3683,38.8872 C52.4563,36.2122 37.1273,34.8382 37.1273,34.8382 L26.6993,44.4142 C26.6993,44.4142 27.2853,44.3992 33.2193,45.4322" id="Fill-131" fill="#3C463B" mask="url(#mask-2)"></path>
            <path d="M47.7037,14.0835 C47.7037,14.0835 51.6527,12.9795 53.3717,18.1375 C56.0107,26.0535 55.7777,33.3115 55.4107,34.8575 C55.2407,35.5695 54.7337,38.0305 50.3197,38.1245 C48.5317,38.1625 49.2467,34.3285 49.2467,34.3285 C49.2467,34.3285 48.0987,31.0725 46.8767,25.5625 C45.6547,20.0505 47.7037,14.0835 47.7037,14.0835" id="Fill-132" fill="#854638" mask="url(#mask-2)"></path>
            <path d="M50.8282,14.5288 L40.6982,11.2538 L33.0312,10.7378 L24.6302,13.2818 C24.6302,13.2818 21.8812,15.1748 24.4332,21.2658 C26.9862,27.3558 26.0052,36.8968 26.0052,36.8968 L47.6772,37.5908 C47.6772,37.5908 48.0872,28.7708 49.5232,19.9488 C49.8432,17.9788 49.8832,15.6618 50.8282,14.5288" id="Fill-133" fill="#AD5C49" mask="url(#mask-2)"></path>
            <path d="M35.9605,37.1665 L37.0655,37.1665 C38.2205,28.6475 38.1655,19.8585 36.8945,11.3735 C36.5615,11.5725 36.2285,11.7705 35.8955,11.9675 C36.1745,20.6475 35.6985,29.3285 35.9605,37.1665" id="Fill-134" fill="#854638" mask="url(#mask-2)"></path>
            <path d="M40.2667,13.6402 C40.1177,14.8132 39.1607,15.8282 38.1547,15.8752 L35.2917,15.8752 C34.2857,15.8282 33.3277,14.8132 33.1797,13.6402 C32.9457,11.7082 32.7107,9.7792 32.4757,7.8452 C32.3187,6.6882 33.0067,4.3632 34.5307,3.6752 C35.9237,3.0642 37.5217,3.0642 38.9147,3.6752 C40.4387,4.3622 41.1267,6.6882 40.9697,7.8452 C40.7357,9.7792 40.5017,11.7082 40.2667,13.6402" id="Fill-135" fill="#EDEEF0" mask="url(#mask-2)"></path>
            <polygon id="Fill-136" fill="#854638" mask="url(#mask-2)" points="36.6095 16.02 34.7915 19 31.4595 14.835 31.9835 12.644 33.0645 11.756 33.0785 13.406"></polygon>
            <polygon id="Fill-137" fill="#854638" mask="url(#mask-2)" points="36.8292 16.02 38.6472 19 41.7472 15.121 41.2382 12.742 40.4612 11.74 40.1462 13.687"></polygon>
            <path d="M36.2891,-0.0005 C35.4871,-0.0005 34.7821,0.4115 34.3731,1.0355 L33.5871,1.0355 C32.6061,1.0355 31.8101,1.8315 31.8101,2.8115 L31.8101,7.1965 L33.0601,7.1965 L33.0601,5.4125 C33.0601,4.7245 33.6211,4.1655 34.3101,4.1655 L35.0391,4.1655 L33.8831,4.1655 L34.6471,4.1655 C35.9131,4.1655 36.9381,3.1385 36.9381,1.8735 L36.9381,-0.0005 L36.2891,-0.0005 Z" id="Fill-138" fill="#163F59" mask="url(#mask-2)"></path>
            <path d="M34.0762,8.8296 C34.0762,9.4306 33.5902,9.9166 32.9892,9.9166 L32.8982,9.9166 C32.2982,9.9166 31.8102,9.4306 31.8102,8.8296 L31.8102,7.5106 C31.8102,6.9116 32.2982,6.4236 32.8982,6.4236 L32.9892,6.4236 C33.4332,6.4236 33.8142,6.6896 33.9842,7.0706" id="Fill-139" fill="#E4EEF3" mask="url(#mask-2)"></path>
            <path d="M35.3165,1.7417 L35.3165,-0.0003 L36.0365,-0.0003 L37.9335,-0.0003 L39.0785,-0.0003 C40.3445,-0.0003 41.3695,1.0257 41.3695,2.2917 L41.3695,4.0327 L40.6485,4.0327 L38.7525,4.0327 L37.6075,4.0327 C36.3415,4.0327 35.3165,3.0077 35.3165,1.7417" id="Fill-140" fill="#163F59" mask="url(#mask-2)"></path>
            <path d="M41.047,10.4956 C41.043,11.4066 40.348,12.9496 39.193,13.4366 C37.625,14.0836 35.769,14.0836 34.202,13.4366 C33.047,12.9496 32.355,11.4076 32.349,10.4956 L32.349,2.7396 C32.342,1.8226 33.256,1.0526 34.385,1.0286 L39.01,1.0286 C40.138,1.0506 41.054,1.8206 41.047,2.7396 L41.047,10.4956 Z" id="Fill-141" fill="#FFFFFF" mask="url(#mask-2)"></path>
            <path d="M37.588,-0.0005 C38.39,-0.0005 39.095,0.4115 39.504,1.0355 L40.29,1.0355 C41.271,1.0355 42.066,1.8315 42.066,2.8115 L42.066,7.1965 L40.817,7.1965 L40.817,5.4125 C40.817,4.7245 40.256,4.1655 39.567,4.1655 L39.555,4.1655 L39.994,4.1655 L37.972,4.1655 C36.706,4.1655 35.681,3.1385 35.681,1.8735 L35.681,-0.0005 L37.588,-0.0005 Z" id="Fill-142" fill="#163F59" mask="url(#mask-2)"></path>
            <path d="M39.8184,7.5103 C39.8184,6.9093 40.3044,6.4233 40.9054,6.4233 L40.9964,6.4233 C41.5954,6.4233 42.0834,6.9093 42.0834,7.5103 L42.0834,8.8283 C42.0834,9.4293 41.5954,9.9163 40.9964,9.9163 L40.9054,9.9163 C40.4614,9.9163 40.0794,9.6503 39.9104,9.2693" id="Fill-143" fill="#FFFFFF" mask="url(#mask-2)"></path>
            <path d="M35.6798,2.1919 C35.7088,2.0459 35.7248,1.8949 35.7248,1.7419 L35.7248,-0.0001 L35.0048,-0.0001 L34.1028,-0.0001 C32.8368,-0.0001 31.8108,1.0259 31.8108,2.2919 L31.8108,4.0329 L32.2878,4.0329 L32.5328,4.0329 L33.4348,4.0329 C33.5958,4.0329 33.7528,4.0139 33.9048,3.9829 C34.0838,3.0869 34.7848,2.3789 35.6798,2.1919" id="Fill-144" fill="#163F59" mask="url(#mask-2)"></path>
            <path d="M15.5665,74.8052 C15.3305,75.0912 15.5035,75.8452 15.5035,75.8452 C15.5035,75.8452 19.6385,76.3072 20.9685,75.9932 C21.3145,75.9122 21.8995,75.6152 22.4485,75.2992 C22.5425,75.2452 22.7055,74.9292 22.7955,74.8752 C22.9625,74.7772 23.0485,74.9412 23.1915,74.8532 C23.5595,74.6202 23.8185,74.4402 23.8235,74.4162 C24.1855,72.5202 23.7025,71.7542 23.7025,71.7542 C23.7025,71.7542 20.1815,70.5852 19.5225,71.4002 C17.9695,73.3232 16.0845,74.1772 15.5665,74.8052" id="Fill-145" fill="#161711" mask="url(#mask-2)"></path>
            <path d="M54.2154,72.7417 L54.5024,75.8657 L57.6294,76.1717 C57.6294,76.1717 57.8454,75.7547 58.1104,75.7797 C58.3334,75.8027 58.5784,76.2647 58.8824,76.2947 C59.5394,76.3587 60.2694,76.4297 60.5614,76.4577 C61.1484,76.5157 66.8374,77.0727 66.8374,77.0727 C66.8374,77.0727 67.0424,76.4417 66.8904,76.2027 C66.8134,76.0807 66.3094,75.8297 65.9704,75.6977 C64.3994,75.0867 59.9144,73.2167 59.2614,71.5947 C58.4674,69.6207 54.2154,72.7417 54.2154,72.7417" id="Fill-146" fill="#161711" mask="url(#mask-2)"></path>
            <path d="M49.4859,33.1948 L38.9119,37.5128 C38.9119,37.5128 46.4129,38.5838 51.1019,37.6288 C54.2729,36.9818 49.6309,33.0568 49.4859,33.1948" id="Fill-147" fill="#FFFFFF" mask="url(#mask-2)"></path>
            <path d="M25.4845,39.7739 C25.4845,39.7739 24.4655,49.4289 24.6115,54.5339 C24.7215,58.3829 24.7325,65.7639 23.8165,72.0529 C23.7595,72.4379 18.8405,72.1479 18.8405,72.1479 C18.8405,72.1479 17.0765,48.2119 16.5515,44.2679 C16.0285,40.3249 17.5525,37.4819 25.4845,39.7739" id="Fill-148" fill="#3C463B" mask="url(#mask-2)"></path>
            <path d="M56.418,42.1021 C56.418,42.1021 54.834,44.6041 50.486,45.1981 C48.915,45.4111 53.02,73.2161 53.02,73.2161 L59.443,71.1621 L58.202,40.4111 L56.418,42.1021 Z" id="Fill-149" fill="#323B31" mask="url(#mask-2)"></path>
            <path d="M38.6983,45.1978 C38.6983,45.1978 30.3023,46.3948 24.6963,46.9828 C22.6413,47.1978 20.8623,41.4458 20.6243,41.1958 C19.1243,39.6248 17.6433,39.8238 17.6953,39.7668 C18.9083,38.4548 25.1973,37.2358 31.7683,35.6948 C38.3403,34.1538 39.3423,35.1248 39.3423,35.1248 L38.6983,45.1978 Z" id="Fill-150" fill="#323B31" mask="url(#mask-2)"></path>
            <path d="M31.7686,35.6948 C25.1976,37.2358 18.9086,38.4548 17.6956,39.7668 C17.6436,39.8238 19.1236,39.6248 20.6246,41.1958 C20.6896,41.2648 21.0666,43.1078 21.3386,43.7688 C20.2676,41.8398 35.7096,36.3948 39.0476,34.9858 C38.4246,34.7868 36.6076,34.5588 31.7686,35.6948" id="Fill-151" fill="#3C463B" mask="url(#mask-2)"></path>
            <polygon id="Fill-152" fill="#323B31" mask="url(#mask-2)" points="24.5533 45.1245 23.9103 63.9155 23.2673 68.2725 23.1963 63.9155 23.3393 61.1995 21.8393 56.9845 21.0533 47.1975 22.1963 47.6255 22.0533 43.3395"></polygon>
            <path d="M56.2017,39.7671 L57.7737,40.1961 L58.3447,62.7711 L55.0587,70.8441 L56.6297,65.3431 L55.9877,53.9841 C55.9877,53.9841 53.7017,59.4861 53.7017,59.2001 C53.7017,58.9131 55.6297,47.2691 55.6297,47.2691 C55.6297,47.2691 53.4867,49.0541 53.7017,48.9831 C53.9147,48.9121 54.9877,40.8391 56.2017,39.7671" id="Fill-153" fill="#3C463B" mask="url(#mask-2)"></path>
            <path d="M29.2725,13.3736 C29.2725,13.3736 25.8965,10.7286 22.5945,15.6376 C17.7555,22.8286 15.6545,30.4806 14.8845,32.6946 C14.2965,34.3946 14.6215,39.1936 16.5995,41.1736 C17.0765,41.6486 19.9335,41.2676 19.9335,41.2676 L21.8095,39.9706 L21.0235,38.4596 L20.9805,37.2676 C20.9805,37.2676 23.3795,31.4816 26.3265,26.0116 C29.2725,20.5416 29.2725,13.3736 29.2725,13.3736" id="Fill-154" fill="#AD5C49" mask="url(#mask-2)"></path>
            <path d="M21.0211,35.3648 L31.9791,35.9368 C31.9791,35.9368 21.4241,40.7788 21.0761,39.9448 C19.0981,35.2158 21.0211,35.3648 21.0211,35.3648" id="Fill-155" fill="#FFFFFF" mask="url(#mask-2)"></path>
            <path d="M27.0509,35.0279 C27.6909,34.7199 27.6329,34.7149 27.6329,34.7149 C27.6329,34.7149 28.2189,35.4109 29.0659,35.5399 C29.4869,35.6039 30.8469,35.6219 30.8469,35.6219 L32.8649,35.6709 L33.8009,35.6189 C33.8009,35.6189 34.3299,35.5489 34.4699,35.6389 C34.8779,35.9009 34.5289,36.1109 34.5289,36.1109 L30.9119,36.6239 L34.3879,37.0549 C34.3879,37.0549 34.8239,37.1829 34.8449,37.4209 C34.8629,37.6409 34.7179,37.6329 34.7179,37.6329 L30.6809,38.0659 L32.4509,38.4869 C32.4509,38.4869 32.8749,38.6239 32.9059,38.8539 C32.9429,39.1039 32.9589,39.1719 32.9589,39.1719 L29.2449,38.8079 C29.2449,38.8079 26.4099,35.3369 27.0509,35.0279" id="Fill-156" fill="#FFFFFF" mask="url(#mask-2)"></path>
            <path d="M31.0592,37.2632 L33.4892,37.7072 C33.4892,37.7072 34.0432,37.7452 34.2902,37.9242 C34.5722,38.1282 34.4062,38.3782 34.4062,38.3782 L30.6812,38.0662 L31.0592,37.2632 Z" id="Fill-157" fill="#FFFFFF" mask="url(#mask-2)"></path>
            <path d="M46.2945,39.1743 C46.2985,39.1663 46.3025,39.1603 46.3065,39.1533 L46.2945,38.4623 L24.7035,38.4623 L24.7035,39.1533 C24.7035,39.1533 24.6995,39.1663 24.7035,39.1743 L24.7775,39.3043 C25.1455,39.9033 25.8045,40.0103 26.5595,40.0103 L44.4385,40.0103 C45.1925,40.0103 45.8525,39.9033 46.2205,39.3043 L46.2945,39.1743 Z" id="Fill-158" fill="#B6C2C9" mask="url(#mask-2)"></path>
            <polygon id="Fill-159" fill="#879BA6" mask="url(#mask-2)" points="28.356 39.109 42.652 39.109 42.652 38.622 28.356 38.622"></polygon>
            <path d="M46.2808,38.5366 L46.3398,24.3796 C46.3408,24.0076 46.0398,23.7046 45.6658,23.7046 L25.4568,23.7046 C25.0828,23.7046 24.7808,24.0076 24.7778,24.3796 L24.7198,38.5366 L46.2808,38.5366 Z" id="Fill-160" fill="#E4EEF3" mask="url(#mask-2)"></path>
            <path d="M36.8394,31.1197 C36.8364,31.8427 36.2484,32.4297 35.5254,32.4297 C34.8024,32.4297 34.2194,31.8427 34.2224,31.1197 C34.2254,30.3987 34.8134,29.8117 35.5364,29.8117 C36.2584,29.8117 36.8424,30.3987 36.8394,31.1197" id="Fill-161" fill="#B6C2C9" mask="url(#mask-2)"></path>
            <polygon id="Fill-162" fill="#854638" mask="url(#mask-2)" points="19.5987 40.8394 18.8467 36.0334 20.0947 34.7494 22.8627 35.1924 22.2967 40.5114"></polygon>
            <polygon id="Fill-163" fill="#AD5C49" mask="url(#mask-2)" points="53.1993 37.3911 53.4863 35.6241 49.9863 32.4811 48.0933 33.3361 50.5693 38.0761"></polygon>
        </g>
    </g>
</svg>