<svg id="Layer_1" data-name="Layer 1" xmlns="http://www.w3.org/2000/svg" viewBox="0 0 143.96 142.52">
  <defs>
    <style>
      .cls-1 {
        fill: #363636;
      }
    </style>
  </defs>
  <title>technology_consulting</title>
  <path class="cls-1" d="M395,325.92H354.71a1.51,1.51,0,0,1-1.12-.49,1.53,1.53,0,0,1-.38-1.17l1.52-13.86a5.91,5.91,0,0,1,5.89-5.8h9v-3.69a1.52,1.52,0,0,1,.75-1.3,1.5,1.5,0,0,1,1.49,0,5.63,5.63,0,0,0,5.89-.11,1.53,1.53,0,0,1,1.52,0,1.51,1.51,0,0,1,.76,1.31v3.82h9a5.9,5.9,0,0,1,5.89,5.8l1.52,13.86a1.52,1.52,0,0,1-.37,1.17A1.55,1.55,0,0,1,395,325.92Zm-38.59-3h36.91L392,310.65a.81.81,0,0,1,0-.16,2.9,2.9,0,0,0-2.89-2.89H378.54a1.5,1.5,0,0,1-1.5-1.5v-3a8.57,8.57,0,0,1-4.41.06v3a1.5,1.5,0,0,1-1.5,1.5H360.62a2.9,2.9,0,0,0-2.89,2.89.81.81,0,0,1,0,.16Z" transform="translate(-348.85 -206.91)"/>
  <path class="cls-1" d="M491.32,349.43h-141a1.5,1.5,0,0,1-1.5-1.5V324.42a1.5,1.5,0,0,1,1.5-1.5h141a1.51,1.51,0,0,1,1.5,1.5v23.51A1.5,1.5,0,0,1,491.32,349.43Zm-139.47-3h138V325.92h-138Z" transform="translate(-348.85 -206.91)"/>
  <path class="cls-1" d="M441.08,325.93H400.82a1.5,1.5,0,0,1-1.12-.5,1.49,1.49,0,0,1-.37-1.16l1.52-13.86a5.89,5.89,0,0,1,5.89-5.8h9v-3.69a1.5,1.5,0,0,1,2.24-1.31,5.62,5.62,0,0,0,5.9-.1,1.49,1.49,0,0,1,2.27,1.28v3.82h9a5.89,5.89,0,0,1,5.89,5.8l1.52,13.86a1.49,1.49,0,0,1-.37,1.16A1.5,1.5,0,0,1,441.08,325.93Zm-38.59-3h36.92l-1.35-12.27c0-.05,0-.11,0-.16a2.89,2.89,0,0,0-2.89-2.89H424.65a1.5,1.5,0,0,1-1.5-1.5v-3a8.46,8.46,0,0,1-4.41.05v3a1.5,1.5,0,0,1-1.5,1.5h-10.5a2.89,2.89,0,0,0-2.89,2.89c0,.05,0,.11,0,.16Z" transform="translate(-348.85 -206.91)"/>
  <path class="cls-1" d="M487.83,325.92H447.57a1.53,1.53,0,0,1-1.12-.49,1.51,1.51,0,0,1-.37-1.17l1.52-13.86a5.89,5.89,0,0,1,5.89-5.8h9v-3.69a1.52,1.52,0,0,1,.75-1.3,1.5,1.5,0,0,1,1.49,0,5.65,5.65,0,0,0,5.9-.11,1.5,1.5,0,0,1,2.28,1.28v3.82h9a5.9,5.9,0,0,1,5.89,5.8l1.52,13.86a1.48,1.48,0,0,1-1.49,1.66Zm-38.59-3h36.92l-1.35-12.27s0-.1,0-.16a2.89,2.89,0,0,0-2.89-2.89h-10.5a1.5,1.5,0,0,1-1.5-1.5v-3a8.6,8.6,0,0,1-4.42.06v3a1.5,1.5,0,0,1-1.5,1.5h-10.5a2.89,2.89,0,0,0-2.89,2.89c0,.06,0,.11,0,.16Z" transform="translate(-348.85 -206.91)"/>
  <path class="cls-1" d="M484,285.15h-7.95a1.5,1.5,0,0,1-1.42-1c-1.33-3.85-4.1-6.33-7.06-6.33s-5.73,2.48-7.06,6.33a1.5,1.5,0,0,1-1.42,1h-29.8a1.5,1.5,0,0,1-1.42-1c-1.33-3.84-4.1-6.32-7-6.32s-5.73,2.48-7.06,6.32a1.5,1.5,0,0,1-1.42,1H383.21a1.47,1.47,0,0,1-1.41-1c-1.33-3.85-4.11-6.33-7.07-6.33s-5.73,2.48-7.06,6.33a1.49,1.49,0,0,1-1.41,1h-8.7a1.5,1.5,0,0,1-1.5-1.5V215a1.51,1.51,0,0,1,1.5-1.5H484a1.5,1.5,0,0,1,1.5,1.5v68.68A1.5,1.5,0,0,1,484,285.15Zm-6.92-3h5.42V216.47H359.06v65.68h6.16c1.9-4.49,5.55-7.34,9.51-7.34s7.62,2.85,9.51,7.34h27.1c1.9-4.49,5.54-7.33,9.51-7.33s7.6,2.84,9.5,7.33h27.74c1.9-4.49,5.54-7.34,9.51-7.34S475.21,277.66,477.11,282.15Z" transform="translate(-348.85 -206.91)"/>
  <path class="cls-1" d="M374.73,303.39a8.61,8.61,0,0,1-4.34-1.18c-4-2.25-6.54-7.4-6.54-13.11,0-.45,0-.9,0-1.34a17.83,17.83,0,0,1,.94-4.6c1.75-5.07,5.64-8.35,9.89-8.35s8.15,3.28,9.9,8.35a17.37,17.37,0,0,1,.82,3.54h0a18.67,18.67,0,0,1,.17,2.4c0,5.55-2.48,10.64-6.3,13A8.75,8.75,0,0,1,374.73,303.39Zm0-25.58c-3,0-5.73,2.48-7.06,6.33a15.52,15.52,0,0,0-.78,3.83c0,.37,0,.75,0,1.13,0,4.58,2,8.8,5,10.51a5.63,5.63,0,0,0,5.89-.11c2.95-1.79,4.86-5.87,4.86-10.4a16.22,16.22,0,0,0-.14-2h0a15.15,15.15,0,0,0-.68-2.94C380.47,280.29,377.69,277.81,374.73,277.81Z" transform="translate(-348.85 -206.91)"/>
  <path class="cls-1" d="M420.85,303.4a8.75,8.75,0,0,1-4.35-1.18c-4-2.25-6.54-7.4-6.54-13.11,0-.45,0-.9.05-1.34a18,18,0,0,1,.94-4.61c1.76-5.07,5.64-8.34,9.9-8.34s8.13,3.27,9.89,8.34a18,18,0,0,1,.83,3.55h0a18.47,18.47,0,0,1,.16,2.4c0,5.55-2.47,10.64-6.3,13A8.74,8.74,0,0,1,420.85,303.4Zm0-25.58c-3,0-5.73,2.48-7.06,6.32A14.64,14.64,0,0,0,413,288c0,.37-.05.75-.05,1.13,0,4.58,2,8.8,5,10.5a5.62,5.62,0,0,0,5.9-.1c2.94-1.79,4.85-5.87,4.85-10.4a16.22,16.22,0,0,0-.14-2h0a14.41,14.41,0,0,0-.69-2.95C426.57,280.3,423.8,277.82,420.85,277.82Z" transform="translate(-348.85 -206.91)"/>
  <path class="cls-1" d="M467.6,303.39a8.65,8.65,0,0,1-4.35-1.18c-4-2.25-6.54-7.4-6.54-13.11,0-.45,0-.9.05-1.34a17.83,17.83,0,0,1,.94-4.6c1.76-5.07,5.64-8.35,9.9-8.35s8.14,3.28,9.89,8.35a18.07,18.07,0,0,1,.83,3.54h0a18.36,18.36,0,0,1,.16,2.4c0,5.55-2.47,10.64-6.3,13A8.74,8.74,0,0,1,467.6,303.39Zm0-25.58c-3,0-5.73,2.48-7.06,6.33a14.65,14.65,0,0,0-.78,3.83c0,.37-.05.75-.05,1.13,0,4.58,2,8.8,5,10.51a5.65,5.65,0,0,0,5.9-.11c2.94-1.79,4.85-5.87,4.85-10.4a16.22,16.22,0,0,0-.14-2h0a15.15,15.15,0,0,0-.68-2.94C473.33,280.29,470.56,277.81,467.6,277.81Z" transform="translate(-348.85 -206.91)"/>
  <path class="cls-1" d="M432.12,216.47H409.48A1.5,1.5,0,0,1,408,215v-6.56a1.5,1.5,0,0,1,1.5-1.5h22.64a1.5,1.5,0,0,1,1.5,1.5V215A1.5,1.5,0,0,1,432.12,216.47Zm-21.14-3h19.64v-3.56H411Z" transform="translate(-348.85 -206.91)"/>
  <path class="cls-1" d="M473.83,264.52H371.21a1.5,1.5,0,0,1-1.5-1.5V226.37a1.5,1.5,0,1,1,3,0v35.15H473.83a1.5,1.5,0,0,1,0,3Z" transform="translate(-348.85 -206.91)"/>
  <path class="cls-1" d="M378.32,234.45a1.53,1.53,0,0,1-1.06-.44l-6.05-6-6,6a1.51,1.51,0,0,1-2.12,0,1.49,1.49,0,0,1,0-2.12l7.11-7.11a1.49,1.49,0,0,1,2.12,0l7.11,7.11a1.5,1.5,0,0,1-1.06,2.56Z" transform="translate(-348.85 -206.91)"/>
  <path class="cls-1" d="M467.16,270.82a1.52,1.52,0,0,1-1.13-.5,1.5,1.5,0,0,1,.13-2.12L472,263l-5.85-5.18a1.5,1.5,0,1,1,2-2.25l7.11,6.31a1.48,1.48,0,0,1,0,2.24l-7.11,6.31A1.49,1.49,0,0,1,467.16,270.82Z" transform="translate(-348.85 -206.91)"/>
  <path class="cls-1" d="M395.23,259.14h-9.92a1.5,1.5,0,0,1-1.5-1.5V230.56a1.5,1.5,0,0,1,1.5-1.5h9.92a1.5,1.5,0,0,1,1.5,1.5v27.08A1.5,1.5,0,0,1,395.23,259.14Zm-8.42-3h6.92V232.06h-6.92Z" transform="translate(-348.85 -206.91)"/>
  <path class="cls-1" d="M412.39,259.14h-9.93a1.5,1.5,0,0,1-1.5-1.5V242.71a1.5,1.5,0,0,1,1.5-1.5h9.93a1.5,1.5,0,0,1,1.5,1.5v14.93A1.51,1.51,0,0,1,412.39,259.14Zm-8.43-3h6.93V244.21H404Z" transform="translate(-348.85 -206.91)"/>
  <path class="cls-1" d="M429.54,259.14h-9.93a1.5,1.5,0,0,1-1.5-1.5V230.56a1.5,1.5,0,0,1,1.5-1.5h9.93a1.5,1.5,0,0,1,1.5,1.5v27.08A1.5,1.5,0,0,1,429.54,259.14Zm-8.43-3H428V232.06h-6.93Z" transform="translate(-348.85 -206.91)"/>
  <path class="cls-1" d="M446,259.36h-9.92a1.5,1.5,0,0,1-1.5-1.5V238.19a1.5,1.5,0,0,1,1.5-1.5H446a1.5,1.5,0,0,1,1.5,1.5v19.67A1.5,1.5,0,0,1,446,259.36Zm-8.42-3h6.92V239.69h-6.92Z" transform="translate(-348.85 -206.91)"/>
  <path class="cls-1" d="M462.55,259.58h-9.93a1.5,1.5,0,0,1-1.5-1.5V231a1.5,1.5,0,0,1,1.5-1.5h9.93a1.5,1.5,0,0,1,1.5,1.5v27.08A1.5,1.5,0,0,1,462.55,259.58Zm-8.43-3h6.93V232.5h-6.93Z" transform="translate(-348.85 -206.91)"/>
  <path class="cls-1" d="M364.62,220.94a1.5,1.5,0,0,1-1.5-1.5V215a1.5,1.5,0,0,1,3,0v4.47A1.5,1.5,0,0,1,364.62,220.94Z" transform="translate(-348.85 -206.91)"/>
  <path class="cls-1" d="M375.87,220.94a1.5,1.5,0,0,1-1.5-1.5V215a1.5,1.5,0,0,1,3,0v4.47A1.5,1.5,0,0,1,375.87,220.94Z" transform="translate(-348.85 -206.91)"/>
  <path class="cls-1" d="M387.12,220.94a1.5,1.5,0,0,1-1.5-1.5V215a1.5,1.5,0,0,1,3,0v4.47A1.5,1.5,0,0,1,387.12,220.94Z" transform="translate(-348.85 -206.91)"/>
  <path class="cls-1" d="M398.37,220.94a1.5,1.5,0,0,1-1.5-1.5V215a1.5,1.5,0,0,1,3,0v4.47A1.5,1.5,0,0,1,398.37,220.94Z" transform="translate(-348.85 -206.91)"/>
  <path class="cls-1" d="M409.62,220.94a1.5,1.5,0,0,1-1.5-1.5V215a1.5,1.5,0,0,1,3,0v4.47A1.5,1.5,0,0,1,409.62,220.94Z" transform="translate(-348.85 -206.91)"/>
  <path class="cls-1" d="M420.87,220.94a1.5,1.5,0,0,1-1.5-1.5V215a1.5,1.5,0,0,1,3,0v4.47A1.5,1.5,0,0,1,420.87,220.94Z" transform="translate(-348.85 -206.91)"/>
  <path class="cls-1" d="M432.12,220.94a1.5,1.5,0,0,1-1.5-1.5V215a1.5,1.5,0,0,1,3,0v4.47A1.5,1.5,0,0,1,432.12,220.94Z" transform="translate(-348.85 -206.91)"/>
  <path class="cls-1" d="M443.37,220.94a1.5,1.5,0,0,1-1.5-1.5V215a1.5,1.5,0,0,1,3,0v4.47A1.5,1.5,0,0,1,443.37,220.94Z" transform="translate(-348.85 -206.91)"/>
  <path class="cls-1" d="M454.62,220.94a1.5,1.5,0,0,1-1.5-1.5V215a1.5,1.5,0,0,1,3,0v4.47A1.5,1.5,0,0,1,454.62,220.94Z" transform="translate(-348.85 -206.91)"/>
  <path class="cls-1" d="M465.87,220.94a1.5,1.5,0,0,1-1.5-1.5V215a1.5,1.5,0,0,1,3,0v4.47A1.5,1.5,0,0,1,465.87,220.94Z" transform="translate(-348.85 -206.91)"/>
  <path class="cls-1" d="M477.12,220.94a1.5,1.5,0,0,1-1.5-1.5V215a1.5,1.5,0,0,1,3,0v4.47A1.5,1.5,0,0,1,477.12,220.94Z" transform="translate(-348.85 -206.91)"/>
  <g>
    <path class="cls-1" d="M390.27,236.94a1.5,1.5,0,0,1-1.06-.44,1.34,1.34,0,0,1-.32-.49,1.39,1.39,0,0,1-.12-.57,1.36,1.36,0,0,1,0-.29,1.31,1.31,0,0,1,.09-.28,1.26,1.26,0,0,1,.13-.26,1.57,1.57,0,0,1,.42-.42l.26-.14L390,234a1.42,1.42,0,0,1,.58,0l.29.08a2,2,0,0,1,.25.14,1.45,1.45,0,0,1,.23.19,2.11,2.11,0,0,1,.19.23,2.15,2.15,0,0,1,.14.26,2.29,2.29,0,0,1,.08.28,1.36,1.36,0,0,1,0,.29,1.56,1.56,0,0,1-.11.57,1.51,1.51,0,0,1-.33.49,1.58,1.58,0,0,1-.48.33A1.66,1.66,0,0,1,390.27,236.94Z" transform="translate(-348.85 -206.91)"/>
    <path class="cls-1" d="M388.77,243.94a1.5,1.5,0,0,1,1.5-1.5h0a1.5,1.5,0,0,1,1.5,1.5h0a1.5,1.5,0,0,1-1.5,1.5h0A1.5,1.5,0,0,1,388.77,243.94Z" transform="translate(-348.85 -206.91)"/>
    <path class="cls-1" d="M390.27,253.94a1.5,1.5,0,0,1-1.06-.44,1.34,1.34,0,0,1-.32-.49,1.39,1.39,0,0,1-.12-.57,1.5,1.5,0,0,1,1.79-1.47l.28.08.26.14a2.11,2.11,0,0,1,.23.19,1.5,1.5,0,0,1,0,2.12,1.58,1.58,0,0,1-.48.33A1.66,1.66,0,0,1,390.27,253.94Z" transform="translate(-348.85 -206.91)"/>
  </g>
  <g>
    <path class="cls-1" d="M424.58,236.17a1.47,1.47,0,0,1-.58-.12,1.39,1.39,0,0,1-.48-.32,1.63,1.63,0,0,1-.33-.49,1.56,1.56,0,0,1-.11-.57,1.5,1.5,0,0,1,1.79-1.47.9.9,0,0,1,.28.08l.26.14a1.37,1.37,0,0,1,.23.19,1.5,1.5,0,0,1,.44,1.06,1.56,1.56,0,0,1-.11.57,1.63,1.63,0,0,1-.33.49A1.5,1.5,0,0,1,424.58,236.17Z" transform="translate(-348.85 -206.91)"/>
    <path class="cls-1" d="M423.08,243.55a1.5,1.5,0,0,1,1.5-1.5h0a1.5,1.5,0,0,1,1.5,1.5h0a1.5,1.5,0,0,1-1.5,1.5h0A1.5,1.5,0,0,1,423.08,243.55Z" transform="translate(-348.85 -206.91)"/>
    <path class="cls-1" d="M424.58,253.94a1.5,1.5,0,0,1-1.06-.44,1.46,1.46,0,0,1-.44-1.06,1.52,1.52,0,0,1,.44-1.06,1.55,1.55,0,0,1,2.12,0,1.52,1.52,0,0,1,.44,1.06,1.5,1.5,0,0,1-1.5,1.5Z" transform="translate(-348.85 -206.91)"/>
  </g>
  <g>
    <path class="cls-1" d="M457.59,236.17a1.43,1.43,0,0,1-.58-.12,1.39,1.39,0,0,1-.48-.32,1.33,1.33,0,0,1-.33-.49,1.39,1.39,0,0,1-.12-.57c0-.1,0-.2,0-.3a1.52,1.52,0,0,1,.09-.28,1.65,1.65,0,0,1,.14-.26,2,2,0,0,1,.41-.41l.26-.14a1,1,0,0,1,.28-.08,1.47,1.47,0,0,1,.59,0,1,1,0,0,1,.28.08l.26.14a1.37,1.37,0,0,1,.23.19,1.48,1.48,0,0,1,.44,1.06,1.39,1.39,0,0,1-.12.57,1.42,1.42,0,0,1-.81.81A1.39,1.39,0,0,1,457.59,236.17Z" transform="translate(-348.85 -206.91)"/>
    <path class="cls-1" d="M456.09,244.38a1.5,1.5,0,0,1,1.5-1.5h0a1.5,1.5,0,0,1,1.5,1.5h0a1.5,1.5,0,0,1-1.5,1.5h0A1.5,1.5,0,0,1,456.09,244.38Z" transform="translate(-348.85 -206.91)"/>
    <path class="cls-1" d="M457.59,255.59a1.49,1.49,0,0,1-1.5-1.5,1.5,1.5,0,0,1,2.56-1.06,1.52,1.52,0,0,1,.44,1.06,1.5,1.5,0,0,1-.44,1.06A1.47,1.47,0,0,1,457.59,255.59Z" transform="translate(-348.85 -206.91)"/>
  </g>
  <path class="cls-1" d="M491.32,339.85h-141a1.5,1.5,0,0,1,0-3h141a1.5,1.5,0,1,1,0,3Z" transform="translate(-348.85 -206.91)"/>
  <path class="cls-1" d="M358.62,349.07a1.5,1.5,0,0,1-1.5-1.5v-4.38a1.5,1.5,0,1,1,3,0v4.38A1.5,1.5,0,0,1,358.62,349.07Z" transform="translate(-348.85 -206.91)"/>
  <path class="cls-1" d="M371.09,349.07a1.5,1.5,0,0,1-1.5-1.5v-4.38a1.5,1.5,0,0,1,3,0v4.38A1.5,1.5,0,0,1,371.09,349.07Z" transform="translate(-348.85 -206.91)"/>
  <path class="cls-1" d="M383.55,349.07a1.5,1.5,0,0,1-1.5-1.5v-4.38a1.5,1.5,0,0,1,3,0v4.38A1.5,1.5,0,0,1,383.55,349.07Z" transform="translate(-348.85 -206.91)"/>
  <path class="cls-1" d="M396,349.07a1.5,1.5,0,0,1-1.5-1.5v-4.38a1.5,1.5,0,0,1,3,0v4.38A1.5,1.5,0,0,1,396,349.07Z" transform="translate(-348.85 -206.91)"/>
  <path class="cls-1" d="M408.48,349.07a1.5,1.5,0,0,1-1.5-1.5v-4.38a1.5,1.5,0,0,1,3,0v4.38A1.5,1.5,0,0,1,408.48,349.07Z" transform="translate(-348.85 -206.91)"/>
  <path class="cls-1" d="M421,349.07a1.5,1.5,0,0,1-1.5-1.5v-4.38a1.5,1.5,0,0,1,3,0v4.38A1.5,1.5,0,0,1,421,349.07Z" transform="translate(-348.85 -206.91)"/>
  <path class="cls-1" d="M433.41,349.07a1.5,1.5,0,0,1-1.5-1.5v-4.38a1.5,1.5,0,0,1,3,0v4.38A1.5,1.5,0,0,1,433.41,349.07Z" transform="translate(-348.85 -206.91)"/>
  <path class="cls-1" d="M445.88,349.07a1.5,1.5,0,0,1-1.5-1.5v-4.38a1.5,1.5,0,1,1,3,0v4.38A1.5,1.5,0,0,1,445.88,349.07Z" transform="translate(-348.85 -206.91)"/>
  <path class="cls-1" d="M458.35,349.07a1.5,1.5,0,0,1-1.5-1.5v-4.38a1.5,1.5,0,1,1,3,0v4.38A1.5,1.5,0,0,1,458.35,349.07Z" transform="translate(-348.85 -206.91)"/>
  <path class="cls-1" d="M470.81,349.07a1.5,1.5,0,0,1-1.5-1.5v-4.38a1.5,1.5,0,0,1,3,0v4.38A1.5,1.5,0,0,1,470.81,349.07Z" transform="translate(-348.85 -206.91)"/>
  <path class="cls-1" d="M483.28,349.07a1.5,1.5,0,0,1-1.5-1.5v-4.38a1.5,1.5,0,0,1,3,0v4.38A1.5,1.5,0,0,1,483.28,349.07Z" transform="translate(-348.85 -206.91)"/>
  <g>
    <path class="cls-1" d="M361.49,320.94a1.52,1.52,0,0,1-1.06-.44,1.52,1.52,0,0,1,0-2.12,2.11,2.11,0,0,1,.23-.19l.26-.14.28-.08a1.5,1.5,0,0,1,1.79,1.47,1.38,1.38,0,0,1-.11.57,1.25,1.25,0,0,1-.33.49,1.58,1.58,0,0,1-.48.33A1.62,1.62,0,0,1,361.49,320.94Z" transform="translate(-348.85 -206.91)"/>
    <path class="cls-1" d="M373,319.44a1.5,1.5,0,0,1,1.5-1.5h0a1.5,1.5,0,0,1,1.5,1.5h0a1.5,1.5,0,0,1-1.5,1.5h0A1.5,1.5,0,0,1,373,319.44Z" transform="translate(-348.85 -206.91)"/>
    <path class="cls-1" d="M387.45,320.94a1.56,1.56,0,0,1-.57-.11,1.54,1.54,0,0,1-.82-.82,1.56,1.56,0,0,1-.11-.57,1.5,1.5,0,0,1,.44-1.06,1.55,1.55,0,0,1,2.12,0,1.5,1.5,0,0,1,0,2.12,1.63,1.63,0,0,1-.49.33A1.56,1.56,0,0,1,387.45,320.94Z" transform="translate(-348.85 -206.91)"/>
  </g>
  <g>
    <path class="cls-1" d="M407.8,321a1.66,1.66,0,0,1-.58-.11,1.6,1.6,0,0,1-.81-.81,1.62,1.62,0,0,1-.11-.58,1.5,1.5,0,0,1,0-.29,2.29,2.29,0,0,1,.08-.28,2.15,2.15,0,0,1,.14-.26,2.11,2.11,0,0,1,.19-.23,1.56,1.56,0,0,1,2.12,0,1.52,1.52,0,0,1,.44,1.06,1.62,1.62,0,0,1-.11.58,1.58,1.58,0,0,1-.33.48A1.46,1.46,0,0,1,407.8,321Z" transform="translate(-348.85 -206.91)"/>
    <path class="cls-1" d="M419.28,319.53a1.5,1.5,0,0,1,1.5-1.5h0a1.5,1.5,0,0,1,1.5,1.5h0a1.5,1.5,0,0,1-1.5,1.5h0A1.5,1.5,0,0,1,419.28,319.53Z" transform="translate(-348.85 -206.91)"/>
    <path class="cls-1" d="M433.76,321a1.62,1.62,0,0,1-.58-.11,1.76,1.76,0,0,1-.49-.33,1.39,1.39,0,0,1-.32-.48,1.43,1.43,0,0,1-.12-.58,1.5,1.5,0,0,1,0-.29,1.61,1.61,0,0,1,.23-.54,2,2,0,0,1,.18-.23,1.56,1.56,0,0,1,2.12,0,1.53,1.53,0,0,1,.45,1.06,1.43,1.43,0,0,1-.12.58,1.29,1.29,0,0,1-.33.48A1.45,1.45,0,0,1,433.76,321Z" transform="translate(-348.85 -206.91)"/>
  </g>
  <g>
    <path class="cls-1" d="M455.1,321.12a1.38,1.38,0,0,1-.57-.11,1.42,1.42,0,0,1-.48-.33,1.29,1.29,0,0,1-.33-.48,1.43,1.43,0,0,1-.11-.58,1.52,1.52,0,0,1,.44-1.06,1.49,1.49,0,0,1,2.55,1.06,1.43,1.43,0,0,1-.11.58,1.39,1.39,0,0,1-.32.48A1.48,1.48,0,0,1,455.1,321.12Z" transform="translate(-348.85 -206.91)"/>
    <path class="cls-1" d="M466.58,319.62a1.5,1.5,0,0,1,1.5-1.49h0a1.5,1.5,0,0,1,1.5,1.49h0a1.51,1.51,0,0,1-1.5,1.51h0A1.51,1.51,0,0,1,466.58,319.62Z" transform="translate(-348.85 -206.91)"/>
    <path class="cls-1" d="M481.06,321.12a1.38,1.38,0,0,1-.57-.11,1.46,1.46,0,0,1-.49-.33,1.58,1.58,0,0,1-.33-.48,1.62,1.62,0,0,1-.11-.58,1.52,1.52,0,0,1,.44-1.06,1.56,1.56,0,0,1,2.12,0,1.52,1.52,0,0,1,.44,1.06,1.62,1.62,0,0,1-.11.58,1.58,1.58,0,0,1-.33.48A1.46,1.46,0,0,1,481.06,321.12Z" transform="translate(-348.85 -206.91)"/>
  </g>
</svg>
