<?xml version="1.0" encoding="UTF-8"?>
<svg width="119px" height="121px" viewBox="0 0 119 121" version="1.1" xmlns="http://www.w3.org/2000/svg" xmlns:xlink="http://www.w3.org/1999/xlink">
    <!-- Generator: Sketch 48 (47235) - http://www.bohemiancoding.com/sketch -->
    <title>Page 1</title>
    <desc>Created with Sketch.</desc>
    <defs>
        <polygon id="path-1" points="0.6641 0.8184 90.753 0.8184 90.753 66.3214 0.6641 66.3214"></polygon>
        <path d="M0.664,0.819 L0.664,63.63 C0.664,65.117 1.87,66.322 3.357,66.322 L88.06,66.322 C89.548,66.322 90.753,65.117 90.753,63.63 L90.753,0.819 L0.664,0.819 Z" id="path-3"></path>
        <path d="M0.664,0.819 L0.664,63.63 C0.664,65.117 1.87,66.322 3.357,66.322 L88.06,66.322 C89.548,66.322 90.753,65.117 90.753,63.63 L90.753,0.819 L0.664,0.819 Z" id="path-5"></path>
        <path d="M0.664,0.819 L0.664,63.63 C0.664,65.117 1.87,66.322 3.357,66.322 L88.06,66.322 C89.548,66.322 90.753,65.117 90.753,63.63 L90.753,0.819" id="path-7"></path>
        <path d="M0.664,0.819 L0.664,63.63 C0.664,65.117 1.87,66.322 3.357,66.322 L88.06,66.322 C89.548,66.322 90.753,65.117 90.753,63.63 L90.753,0.819 L0.664,0.819 Z" id="path-9"></path>
        <path d="M0.664,0.819 L0.664,63.63 C0.664,65.117 1.87,66.322 3.357,66.322 L88.06,66.322 C89.548,66.322 90.753,65.117 90.753,63.63 L90.753,0.819 L0.664,0.819 Z" id="path-11"></path>
        <path d="M0.664,0.819 L0.664,63.63 C0.664,65.117 1.87,66.322 3.357,66.322 L88.06,66.322 C89.548,66.322 90.753,65.117 90.753,63.63 L90.753,0.819 L0.664,0.819 Z" id="path-13"></path>
        <path d="M0.664,0.819 L0.664,63.63 C0.664,65.117 1.87,66.322 3.357,66.322 L88.06,66.322 C89.548,66.322 90.753,65.117 90.753,63.63 L90.753,0.819 L0.664,0.819 Z" id="path-15"></path>
        <path d="M0.664,0.819 L0.664,63.63 C0.664,65.117 1.87,66.322 3.357,66.322 L88.06,66.322 C89.548,66.322 90.753,65.117 90.753,63.63 L90.753,0.819" id="path-17"></path>
        <path d="M0.664,0.819 L0.664,63.63 C0.664,65.117 1.87,66.322 3.357,66.322 L88.06,66.322 C89.548,66.322 90.753,65.117 90.753,63.63 L90.753,0.819 L0.664,0.819 Z" id="path-19"></path>
        <path d="M0.664,0.819 L0.664,63.63 C0.664,65.117 1.87,66.322 3.357,66.322 L88.06,66.322 C89.548,66.322 90.753,65.117 90.753,63.63 L90.753,0.819" id="path-21"></path>
        <path d="M0.664,0.819 L0.664,63.63 C0.664,65.117 1.87,66.322 3.357,66.322 L88.06,66.322 C89.548,66.322 90.753,65.117 90.753,63.63 L90.753,0.819 L0.664,0.819 Z" id="path-23"></path>
        <path d="M0.664,0.819 L0.664,63.63 C0.664,65.117 1.87,66.322 3.357,66.322 L88.06,66.322 C89.548,66.322 90.753,65.117 90.753,63.63 L90.753,0.819 L0.664,0.819 Z" id="path-25"></path>
        <path d="M0.664,0.819 L0.664,63.63 C0.664,65.117 1.87,66.322 3.357,66.322 L88.06,66.322 C89.548,66.322 90.753,65.117 90.753,63.63 L90.753,0.819" id="path-27"></path>
        <path d="M0.664,0.819 L0.664,63.63 C0.664,65.117 1.87,66.322 3.357,66.322 L88.06,66.322 C89.548,66.322 90.753,65.117 90.753,63.63 L90.753,0.819" id="path-29"></path>
        <path d="M0.664,0.819 L0.664,63.63 C0.664,65.117 1.87,66.322 3.357,66.322 L88.06,66.322 C89.548,66.322 90.753,65.117 90.753,63.63 L90.753,0.819 L0.664,0.819 Z" id="path-31"></path>
        <path d="M0.664,0.819 L0.664,63.63 C0.664,65.117 1.87,66.322 3.357,66.322 L88.06,66.322 C89.548,66.322 90.753,65.117 90.753,63.63 L90.753,0.819 L0.664,0.819 Z" id="path-33"></path>
        <path d="M0.664,0.819 L0.664,63.63 C0.664,65.117 1.87,66.322 3.357,66.322 L88.06,66.322 C89.548,66.322 90.753,65.117 90.753,63.63 L90.753,0.819" id="path-35"></path>
        <path d="M0.664,0.819 L0.664,63.63 C0.664,65.117 1.87,66.322 3.357,66.322 L88.06,66.322 C89.548,66.322 90.753,65.117 90.753,63.63 L90.753,0.819" id="path-37"></path>
        <polygon id="path-39" points="0 121 118.753 121 118.753 0.111 0 0.111"></polygon>
        <polygon id="path-41" points="0.145926344 0.834 7.05047071 0.834 7.05047071 4.771 0.145926344 4.771"></polygon>
        <polygon id="path-43" points="0.394 0.0664091561 2.13836263 0.0664091561 2.13836263 3.771 0.394 3.771"></polygon>
        <polygon id="path-45" points="0.85983312 0.262635403 2.5116 0.262635403 2.5116 3.771 0.85983312 3.771"></polygon>
        <polygon id="path-47" points="0.246276758 0.976674509 2.316 0.976674509 2.316 3.771 0.246276758 3.771"></polygon>
        <polygon id="path-49" points="0.196754973 0.328279087 1.363453 0.328279087 1.363453 3.771 0.196754973 3.771"></polygon>
        <polygon id="path-51" points="0.707974108 0.136251138 5.19280371 0.136251138 5.19280371 2.771 0.707974108 2.771"></polygon>
        <polygon id="path-53" points="0.4113 0.0889 5.5493 0.0889 5.5493 6.771 0.4113 6.771"></polygon>
        <polygon id="path-55" points="0.352668561 0.753828604 2.58238615 0.753828604 2.58238615 6.771 0.352668561 6.771"></polygon>
        <polygon id="path-57" points="0.391703349 0.0081390355 2.4636754 0.0081390355 2.4636754 7.771 0.391703349 7.771"></polygon>
        <polygon id="path-59" points="0.659590427 0.0692819624 4.42780342 0.0692819624 4.42780342 0.771 0.659590427 0.771"></polygon>
        <polygon id="path-61" points="0.252393127 0.1091 6.59060018 0.1091 6.59060018 7.771 0.252393127 7.771"></polygon>
    </defs>
    <g id="Page-1" stroke="none" stroke-width="1" fill="none" fill-rule="evenodd">
        <g transform="translate(0.000000, -1.000000)">
            <g id="Group-3" transform="translate(28.000000, 6.889000)">
                <mask id="mask-2" fill="white">
                    <use xlink:href="#path-1"></use>
                </mask>
                <g id="Clip-2"></g>
                <path d="M0.6641,0.8184 L0.6641,63.6304 C0.6641,65.1164 1.8701,66.3214 3.3561,66.3214 L88.0601,66.3214 C89.5481,66.3214 90.7531,65.1164 90.7531,63.6304 L90.7531,0.8184 L0.6641,0.8184 Z" id="Fill-1" fill="#D1DBEA" mask="url(#mask-2)"></path>
            </g>
            <g id="Group-58" transform="translate(28.000000, 6.889000)">
                <g id="Group-6">
                    <mask id="mask-4" fill="white">
                        <use xlink:href="#path-3"></use>
                    </mask>
                    <g id="Clip-5"></g>
                    <polygon id="Fill-4" fill="#954F3F" mask="url(#mask-4)" points="38.711 27.6739 28.344 52.5329 42.736 72.3299 44.114 67.2779 37.33 51.5459 50.617 33.0579"></polygon>
                </g>
                <g id="Group-9">
                    <mask id="mask-6" fill="white">
                        <use xlink:href="#path-5"></use>
                    </mask>
                    <g id="Clip-8"></g>
                    <path d="M71.4151,31.9561 L71.4351,29.6341 C71.4351,29.6341 73.7651,25.2261 73.3711,24.1691 C72.9771,23.1131 73.3051,20.9481 73.3051,20.9481 C73.3051,20.9481 72.8791,20.1081 71.8431,21.8331 L70.8051,23.5591 C70.8051,23.5591 68.2461,25.8291 68.3311,26.7281 C68.4171,27.6261 70.2601,33.0001 70.2601,33.0001 L71.4151,31.9561 Z" id="Fill-7" fill="#FFFFFF" mask="url(#mask-6)"></path>
                </g>
                <g id="Group-12">
                    <mask id="mask-8" fill="white">
                        <use xlink:href="#path-7"></use>
                    </mask>
                    <g id="Clip-11"></g>
                    <path d="M68.0098,31.774 L67.3798,29.353 C67.3798,29.353 66.5858,28.013 66.1988,26.182 C65.8128,24.353 66.8748,23.184 68.5218,22.548 C70.1698,21.912 71.1268,22.168 71.1268,22.168 C71.1268,22.168 72.7548,23.855 71.8418,25.487 C70.9298,27.122 71.2318,31.708 70.4568,31.701 C69.6828,31.694 68.0098,31.774 68.0098,31.774" id="Fill-10" fill="#FFFFFF" mask="url(#mask-8)"></path>
                </g>
                <g id="Group-15">
                    <mask id="mask-10" fill="white">
                        <use xlink:href="#path-9"></use>
                    </mask>
                    <g id="Clip-14"></g>
                    <polygon id="Fill-13" fill="#FFFFFF" mask="url(#mask-10)" points="71.8341 22.8662 70.4991 19.4882 69.1221 16.4002 68.6021 16.9132 69.2841 19.2312 68.6081 23.1892 69.6861 23.0812"></polygon>
                </g>
                <g id="Group-18">
                    <mask id="mask-12" fill="white">
                        <use xlink:href="#path-11"></use>
                    </mask>
                    <g id="Clip-17"></g>
                    <polygon id="Fill-16" fill="#FFFFFF" mask="url(#mask-12)" points="68.1641 19.7993 66.2231 17.5113 65.5791 17.8563 67.1051 20.4513 67.7391 23.5733 69.6851 23.0813"></polygon>
                </g>
                <g id="Group-21">
                    <mask id="mask-14" fill="white">
                        <use xlink:href="#path-13"></use>
                    </mask>
                    <g id="Clip-20"></g>
                    <polygon id="Fill-19" fill="#FFFFFF" mask="url(#mask-14)" points="64.7042 18.7578 66.3622 20.4858 67.6132 21.4868 68.0932 23.1848 66.7042 24.0818 66.2442 22.2398 64.4292 19.6018"></polygon>
                </g>
                <g id="Group-24">
                    <mask id="mask-16" fill="white">
                        <use xlink:href="#path-15"></use>
                    </mask>
                    <g id="Clip-23"></g>
                    <polygon id="Fill-22" fill="#FFFFFF" mask="url(#mask-16)" points="63.4483 20.709 66.8953 23.298 67.1533 24.519 66.2383 25.192 65.0963 23.469 63.4833 21.452"></polygon>
                </g>
                <g id="Group-27">
                    <mask id="mask-18" fill="white">
                        <use xlink:href="#path-17"></use>
                    </mask>
                    <g id="Clip-26"></g>
                    <path d="M72.9747,52.3409 C72.9747,52.3409 68.0757,53.9669 68.0197,48.0909 C67.9477,40.4549 67.0737,31.8549 67.0737,31.8549 L72.1157,30.4429 C72.1157,30.4429 73.3787,39.2559 73.9497,42.1669 C74.8867,46.9719 72.9747,52.3409 72.9747,52.3409" id="Fill-25" fill="#AD5C49" mask="url(#mask-18)"></path>
                </g>
                <g id="Group-30">
                    <mask id="mask-20" fill="white">
                        <use xlink:href="#path-19"></use>
                    </mask>
                    <g id="Clip-29"></g>
                    <path d="M54.7442,39.3985 L68.4712,54.7165 C68.4712,54.7165 71.2542,56.5235 73.2672,51.5265 C74.0252,49.6445 71.4242,46.1385 71.4242,46.1385 L61.5212,30.2285 L54.7442,39.3985 Z" id="Fill-28" fill="#AD5C49" mask="url(#mask-20)"></path>
                </g>
                <g id="Group-33">
                    <mask id="mask-22" fill="white">
                        <use xlink:href="#path-21"></use>
                    </mask>
                    <g id="Clip-32"></g>
                    <path d="M38.5841,27.8614 L37.2921,74.1754 L61.4581,72.1674 L61.6571,30.5054 C61.6571,30.5054 53.6761,21.1744 38.5841,27.8614" id="Fill-31" fill="#AD5C49" mask="url(#mask-22)"></path>
                </g>
                <g id="Group-36">
                    <mask id="mask-24" fill="white">
                        <use xlink:href="#path-23"></use>
                    </mask>
                    <g id="Clip-35"></g>
                    <path d="M51.8848,25.6358 C51.7518,27.4918 50.1398,28.8888 48.2838,28.7558 L46.9768,28.6608 C45.1208,28.5288 43.7238,26.9158 43.8568,25.0598 L44.3128,18.7128 C44.4458,16.8558 46.0578,15.4598 47.9128,15.5928 L49.2218,15.6868 C51.0758,15.8208 52.4748,17.4318 52.3398,19.2888 L51.8848,25.6358 Z" id="Fill-34" fill="#FFFFFF" mask="url(#mask-24)"></path>
                </g>
                <g id="Group-39">
                    <mask id="mask-26" fill="white">
                        <use xlink:href="#path-25"></use>
                    </mask>
                    <g id="Clip-38"></g>
                    <path d="M41.7803,21.9605 C41.7183,22.8495 42.3853,23.6205 43.2733,23.6845 L50.5133,24.2035 C51.4003,24.2675 52.1743,23.5995 52.2373,22.7105 L53.0073,11.9855 C53.0703,11.0975 52.4023,10.3255 51.5133,10.2615 L44.2743,9.7425 C43.3853,9.6785 42.6133,10.3465 42.5503,11.2355 L41.7803,21.9605 Z" id="Fill-37" fill="#FFFFFF" mask="url(#mask-26)"></path>
                </g>
                <g id="Group-42">
                    <mask id="mask-28" fill="white">
                        <use xlink:href="#path-27"></use>
                    </mask>
                    <g id="Clip-41"></g>
                    <path d="M42.3809,13.4463 C42.3809,13.4463 41.4839,12.3373 41.3509,11.6883 C41.2829,11.3603 41.6839,10.1623 42.5219,9.7503 C43.3599,9.3403 43.9679,10.2593 43.9679,10.2593 C43.9679,10.2593 42.6319,10.8823 42.5459,11.1453 C42.4589,11.4083 42.3809,13.4463 42.3809,13.4463" id="Fill-40" fill="#163F59" mask="url(#mask-28)"></path>
                </g>
                <g id="Group-45">
                    <mask id="mask-30" fill="white">
                        <use xlink:href="#path-29"></use>
                    </mask>
                    <g id="Clip-44"></g>
                    <path d="M53.3975,16.8633 C53.3975,16.8633 54.7895,12.8203 54.6735,11.5983 C54.5585,10.3803 54.4855,9.5313 53.0205,9.2913 C50.8285,8.9323 50.7675,9.4003 49.7425,8.6523 C48.7175,7.9053 46.9075,6.1523 46.2535,5.9423 C45.1685,5.5943 43.4095,5.8393 43.1935,7.9123 C43.0335,9.4423 42.0395,9.7503 42.0615,9.8093 C42.1335,10.0023 42.5245,10.2063 43.2025,10.6093 C45.1405,11.7583 46.3325,12.0463 47.9035,11.7543 C49.4735,11.4623 52.4075,10.7963 52.6595,11.9593 C52.9145,13.1243 52.5295,16.5993 52.6435,16.8773 C52.7595,17.1553 53.1165,17.0473 53.3975,16.8633" id="Fill-43" fill="#194866" mask="url(#mask-30)"></path>
                </g>
                <g id="Group-48">
                    <mask id="mask-32" fill="white">
                        <use xlink:href="#path-31"></use>
                    </mask>
                    <g id="Clip-47"></g>
                    <path d="M50.8878,19.919 C50.8668,20.214 51.0898,20.473 51.3858,20.494 L52.9508,20.606 C53.2458,20.626 53.5038,20.403 53.5238,20.108 L53.7298,17.247 C53.7498,16.952 53.5288,16.694 53.2328,16.673 L51.6668,16.561 C51.3708,16.54 51.1148,16.763 51.0928,17.058 L50.8878,19.919 Z" id="Fill-46" fill="#FFFFFF" mask="url(#mask-32)"></path>
                </g>
                <g id="Group-51">
                    <mask id="mask-34" fill="white">
                        <use xlink:href="#path-33"></use>
                    </mask>
                    <g id="Clip-50"></g>
                    <path d="M41.5596,19.2486 C41.5386,19.5456 41.7606,19.8026 42.0576,19.8256 L43.6216,19.9366 C43.9166,19.9576 44.1746,19.7346 44.1966,19.4386 L44.4026,16.5786 C44.4226,16.2826 44.1996,16.0246 43.9026,16.0036 L42.3396,15.8916 C42.0426,15.8696 41.7866,16.0936 41.7656,16.3886 L41.5596,19.2486 Z" id="Fill-49" fill="#FFFFFF" mask="url(#mask-34)"></path>
                </g>
                <g id="Group-54">
                    <mask id="mask-36" fill="white">
                        <use xlink:href="#path-35"></use>
                    </mask>
                    <g id="Clip-53"></g>
                    <path d="M52.6387,17.753 C52.6387,17.753 52.3347,21.977 52.2337,23.384 C52.1427,24.657 51.4357,27.413 44.2447,26.898 C39.9887,26.593 40.3687,23.476 40.4417,22.448 C40.4987,21.666 41.5527,19.385 42.0347,18.969 C42.0497,18.956 41.9097,20.711 41.9097,20.711 C41.9097,20.711 42.9147,19.077 44.9397,19.223 C48.2027,19.457 48.8077,21.42 50.2487,21.489 C51.3567,21.544 52.3187,19.797 52.6387,17.753" id="Fill-52" fill="#194866" mask="url(#mask-36)"></path>
                </g>
                <g id="Group-57">
                    <mask id="mask-38" fill="white">
                        <use xlink:href="#path-37"></use>
                    </mask>
                    <g id="Clip-56"></g>
                    <path d="M46.0831,22.0889 L43.8491,21.9289 C43.5531,21.9079 43.3301,21.6499 43.3511,21.3539 L43.3741,21.0409 L46.6811,21.2779 L46.6571,21.5909 C46.6371,21.8869 46.3801,22.1109 46.0831,22.0889" id="Fill-55" fill="#FFFFFF" mask="url(#mask-38)"></path>
                </g>
            </g>
            <g id="Group-109" transform="translate(0.000000, 0.889000)">
                <path d="M101.3497,108.2408 C101.3497,108.2408 102.8917,102.7298 105.3167,100.8558 C107.7417,98.9828 109.5037,96.3378 112.7007,95.1258 C115.8967,93.9128 116.6677,91.7088 115.4547,90.9378 C114.2437,90.1658 110.2757,87.9618 105.4267,93.0318 C100.5777,98.1008 99.3657,102.0678 99.4757,106.8068 C99.5857,111.5468 101.1287,110.9948 101.3497,108.2408" id="Fill-59" fill="#A3CF6F"></path>
                <path d="M113.6915,91.7823 C113.6915,91.7823 108.8425,93.2153 106.6385,94.8683 C104.4345,96.5223 100.3575,101.1493 100.1365,105.6683" id="Stroke-61" stroke="#98C168" stroke-width="0.788"></path>
                <path d="M100.0255,110.003 C100.0255,110.003 97.5285,102.95 96.4995,100.746 C95.4715,98.542 95.6195,93.251 97.2355,91.194 C98.8505,89.138 101.4965,86.052 100.3205,81.497 C99.1455,76.941 99.7325,74.15 101.9375,75.912 C104.1415,77.676 108.0125,81.565 108.1085,87.815 C108.1815,92.591 106.7735,95.386 104.1415,98.836 C102.0095,101.628 99.8795,106.771 100.0255,110.003" id="Fill-63" fill="#F8C44F"></path>
                <path d="M99.255,108.314 C99.255,108.314 97.933,101.26 99.255,98.395 C100.577,95.53 103.731,90.231 103.994,86.713 C104.325,82.305 101.569,78.117 101.569,78.117" id="Stroke-65" stroke="#E2B348" stroke-width="0.788"></path>
                <path d="M90.2178,99.5337 C87.3528,98.9827 87.1328,95.6757 89.3358,95.0147 C91.5398,94.3537 95.1778,94.4647 96.9418,96.7787 C98.9858,99.4617 99.8058,104.2717 99.1458,107.6897 C98.4838,111.1057 99.1458,106.3657 97.7118,104.0527 C96.2798,101.7377 92.5818,99.9887 90.2178,99.5337" id="Fill-67" fill="#194866"></path>
                <path d="M88.8956,96.8521 C88.8956,96.8521 92.8636,96.0811 95.6196,98.7261 C98.0026,101.0151 99.0356,103.8681 99.4756,106.8071" id="Stroke-69" stroke="#161711" stroke-width="0.589"></path>
                <polygon id="Fill-71" fill="#1370B5" points="104.7657 116.6885 96.8297 116.6885 95.5077 103.9055 106.0877 103.9055"></polygon>
                <path d="M118.753,7.1104 L118.753,2.8034 C118.753,1.3164 117.548,0.1114 116.061,0.1114 L31.357,0.1114 C29.87,0.1114 28.664,1.3164 28.664,2.8034 L28.664,7.1104 L118.753,7.1104 Z" id="Fill-73" fill="#F1F0F6"></path>
                <path d="M34.0489,3.6104 C34.0489,4.4034 33.4049,5.0464 32.6129,5.0464 C31.8179,5.0464 31.1769,4.4034 31.1769,3.6104 C31.1769,2.8184 31.8179,2.1744 32.6129,2.1744 C33.4049,2.1744 34.0489,2.8184 34.0489,3.6104" id="Fill-75" fill="#F46E74"></path>
                <path d="M38.6251,3.6104 C38.6251,4.4034 37.9811,5.0464 37.1891,5.0464 C36.3961,5.0464 35.7531,4.4034 35.7531,3.6104 C35.7531,2.8184 36.3961,2.1744 37.1891,2.1744 C37.9811,2.1744 38.6251,2.8184 38.6251,3.6104" id="Fill-77" fill="#E8CB81"></path>
                <path d="M43.2012,3.6104 C43.2012,4.4034 42.5572,5.0464 41.7642,5.0464 C40.9722,5.0464 40.3292,4.4034 40.3292,3.6104 C40.3292,2.8184 40.9722,2.1744 41.7642,2.1744 C42.5572,2.1744 43.2012,2.8184 43.2012,3.6104" id="Fill-79" fill="#A3CF6F"></path>
                <path d="M7.0177,117.6875 C7.2027,117.4405 7.0287,116.8195 7.0287,116.8195 C7.0287,116.8195 3.5717,116.6045 2.4787,116.9165 C2.1947,116.9985 1.7207,117.2695 1.2757,117.5535 C1.2007,117.6015 1.0767,117.8725 1.0047,117.9205 C0.8707,118.0085 0.7907,117.8745 0.6767,117.9555 C0.3797,118.1625 0.1717,118.3235 0.1687,118.3435 C-0.0573,119.9345 0.3747,120.5505 0.3747,120.5505 C0.3747,120.5505 3.2477,121.2935 3.8667,120.6765 C5.4337,119.1155 6.6127,118.2305 7.0177,117.6875" id="Fill-81" fill="#161711"></path>
                <path d="M17.961,118.4619 L18.575,120.9999 L21.188,120.8739 C21.188,120.8739 21.315,120.5039 21.535,120.4929 C21.722,120.4829 21.98,120.8349 22.233,120.8229 C22.783,120.7959 23.392,120.7669 23.637,120.7539 C24.126,120.7309 28.879,120.5009 28.879,120.5009 C28.879,120.5009 28.971,119.9549 28.816,119.7769 C28.739,119.6869 28.294,119.5409 27.998,119.4739 C26.631,119.1589 22.711,118.1629 21.977,116.9039 C21.084,115.3769 17.961,118.4619 17.961,118.4619" id="Fill-83" fill="#161711"></path>
                <path d="M17.547,32.1895 L18.171,29.0815 C18.171,29.0815 20.379,29.2505 20.811,28.0615 C21.675,25.6775 20.95,21.8685 20.427,20.8005 C18.94,17.7625 18.309,12.4365 11.347,16.6695 C8.7,18.2805 12.788,26.0875 13.093,27.7755 C13.397,29.4655 12.492,31.4125 12.492,31.4125 L14.122,32.6325 L17.547,32.1895 Z" id="Fill-85" fill="#DCE5EA"></path>
                <path d="M5.1661,61.6065 L4.9371,71.4075 C4.9371,71.4075 1.2451,67.3355 0.8871,62.7015 C0.5291,58.0695 4.9371,61.2445 5.1661,61.6065" id="Fill-87" fill="#DCE5EA"></path>
                <path d="M10.0343,81.9561 C10.0343,81.9561 11.0743,82.3501 8.7633,96.7261 C7.0983,107.0781 5.6173,114.6661 4.9173,118.1021 C4.6443,119.4371 4.2583,119.2181 4.2583,119.2181 L1.4163,119.6731 L0.0003,118.5611 L2.9583,95.1391 L10.0343,81.9561 Z" id="Fill-89" fill="#163F59"></path>
                <path d="M28.0372,55.2217 L22.1812,66.4557 C22.1812,66.4557 33.3572,58.3697 32.6552,53.9217 C31.9542,49.4717 28.0372,55.2217 28.0372,55.2217" id="Fill-91" fill="#DCE5EA"></path>
                <path d="M5.1026,35.2198 C5.1026,35.2198 2.7286,36.6708 1.0206,48.4628 C-0.6894,60.2548 0.3986,59.8068 0.3986,59.8068 L0.7076,62.4928 L5.1486,62.9698 L7.5456,52.7908 L5.1026,35.2198 Z" id="Fill-93" fill="#98C168"></path>
                <path d="M15.9464,65.6919 C15.9464,65.6919 10.7174,93.1079 6.1674,105.5039 C3.5014,112.7649 2.8134,99.1089 2.8134,99.1089 L5.5844,59.5299 L19.2114,58.2079 C19.2114,58.2079 17.6854,58.7639 15.9464,65.6919" id="Fill-95" fill="#163F59"></path>
                <path d="M10.8331,58.6909 C10.8331,58.6909 17.4761,93.5329 18.0731,95.0929 C20.0911,100.3639 22.4621,93.2099 22.9971,91.3939 C23.5311,89.5779 23.9261,76.3149 23.2511,66.6809 L22.5781,57.0489 L10.8331,58.6909 Z" id="Fill-97" fill="#163F59"></path>
                <path d="M17.1505,86.3418 C17.1505,86.3418 16.6055,90.5628 16.2445,95.9378 C15.9785,99.8858 16.5065,111.0988 17.6085,118.8498 C17.6755,119.3248 22.5565,117.6358 22.5565,117.6358 C22.5565,117.6358 23.3085,95.7508 23.4875,90.8488 C23.6645,85.9478 20.0865,82.7048 17.1505,86.3418" id="Fill-99" fill="#163F59"></path>
                <path d="M4.9571,35.2427 L10.8041,32.5887 L12.4161,31.0637 L18.6321,30.9137 L19.7211,32.7067 L24.5381,34.7957 C24.5381,34.7957 25.7271,36.6647 24.6911,43.6017 C23.5471,51.2877 23.3061,62.9097 23.3061,62.9097 L5.0871,63.7857 C5.0871,63.7857 6.6671,38.9737 4.9571,35.2427" id="Fill-101" fill="#A3CF6F"></path>
                <path d="M22.9874,34.8116 C22.9874,34.8116 24.0724,33.6016 26.7144,36.8846 C31.2164,42.4816 33.3954,49.4226 33.8624,50.7656 C34.3274,52.1096 34.9254,54.0116 33.0854,56.2456 C31.6754,57.9526 31.2194,58.5276 31.2194,58.5276 L27.1774,56.0096 L27.8134,54.7986 L28.2664,54.1986 C28.2664,54.1986 26.0914,49.4226 23.7604,45.0946 C21.4294,40.7666 22.9874,34.8116 22.9874,34.8116" id="Fill-103" fill="#A3CF6F"></path>
                <path d="M18.463,21.6929 C18.463,21.6929 17.677,21.2079 17.556,21.8139 C17.434,22.4189 17.858,23.7509 18.221,23.8709 C18.585,23.9929 18.705,25.6259 18.705,25.6259 L17.737,27.4429 L12.835,27.4429 C12.835,27.4429 11.321,26.7759 11.2,25.6879 C11.079,24.5979 9.869,16.9119 9.869,16.9119 L13.319,15.0949 C13.319,15.0949 15.135,14.1879 16.405,13.8249 C18.358,13.2679 18.767,14.3089 18.705,14.8529 C18.646,15.3979 19.25,15.4589 20.037,15.4589 C20.824,15.4589 21.792,16.0639 21.368,16.4269 C21.194,16.5779 21.975,17.0559 21.665,17.6339 C21.222,18.4599 19.734,18.7269 19.613,20.0589 C19.559,20.6639 19.311,22.6619 18.463,21.6929" id="Fill-105" fill="#194866"></path>
                <mask id="mask-40" fill="white">
                    <use xlink:href="#path-39"></use>
                </mask>
                <g id="Clip-108"></g>
                <polygon id="Fill-107" fill="#1370B5" mask="url(#mask-40)" points="63.345 65.771 82.996 65.771 82.996 53.119 63.345 53.119"></polygon>
            </g>
            <g id="Group-141" transform="translate(69.000000, 54.889000)">
                <path d="M2.335,3.5503 C2.335,4.7023 3.495,5.6383 4.926,5.6383 C6.356,5.6383 7.517,4.7023 7.517,3.5503 C7.517,2.3983 6.356,1.4653 4.926,1.4653 C3.495,1.4653 2.335,2.3983 2.335,3.5503" id="Fill-110" fill="#C7C6B4"></path>
                <path d="M4.4913,4.8301 C4.4913,5.6051 5.2703,6.2321 6.2323,6.2321 C7.1943,6.2321 7.9753,5.6051 7.9753,4.8301 C7.9753,4.0551 7.1943,3.4271 6.2323,3.4271 C5.2703,3.4271 4.4913,4.0551 4.4913,4.8301" id="Fill-112" fill="#C7C6B4"></path>
                <path d="M4.169,5.9307 C4.169,6.7047 4.949,7.3327 5.912,7.3327 C6.874,7.3327 7.653,6.7047 7.653,5.9307 C7.653,5.1557 6.874,4.5277 5.912,4.5277 C4.949,4.5277 4.169,5.1557 4.169,5.9307" id="Fill-114" fill="#C7C6B4"></path>
                <path d="M5.8204,5.5635 C5.8204,6.3385 6.6004,6.9665 7.5624,6.9665 C8.5244,6.9665 9.3044,6.3385 9.3044,5.5635 C9.3044,4.7885 8.5244,4.1605 7.5624,4.1605 C6.6004,4.1605 5.8204,4.7885 5.8204,5.5635" id="Fill-116" fill="#C7C6B4"></path>
                <g id="Group-120" transform="translate(1.000000, 7.000000)">
                    <mask id="mask-42" fill="white">
                        <use xlink:href="#path-41"></use>
                    </mask>
                    <g id="Clip-119"></g>
                    <path d="M5.0909,7.834 C4.7249,8.609 2.7479,8.609 2.3809,7.834 L0.2819,2.243 C-0.0851,1.467 0.3169,0.834 1.1739,0.834 L6.0239,0.834 C6.8799,0.834 7.2819,1.467 6.9139,2.243 L5.0909,7.834 Z" id="Fill-118" fill="#194866" mask="url(#mask-42)"></path>
                </g>
                <g id="Group-123" transform="translate(0.000000, 8.000000)">
                    <mask id="mask-44" fill="white">
                        <use xlink:href="#path-43"></use>
                    </mask>
                    <g id="Clip-122"></g>
                    <path d="M1.297,0.2217 C0.537,1.4417 0.394,6.1397 0.394,6.1397 C0.394,6.1397 0.863,6.5007 1.249,5.8077 C1.407,5.5227 1.819,3.8417 2.099,1.6827 C2.329,-0.1063 1.484,-0.0793 1.297,0.2217" id="Fill-121" fill="#194866" mask="url(#mask-44)"></path>
                </g>
                <g id="Group-126" transform="translate(6.000000, 8.000000)">
                    <mask id="mask-46" fill="white">
                        <use xlink:href="#path-45"></use>
                    </mask>
                    <g id="Clip-125"></g>
                    <path d="M2.0216,0.4263 L2.5116,6.6773 C2.4126,6.7433 2.2336,7.4253 1.9896,6.9633 C1.6866,6.3863 1.2226,4.6053 0.8976,1.9293 C0.6466,-0.1367 1.7176,0.2153 2.0216,0.4263" id="Fill-124" fill="#194866" mask="url(#mask-46)"></path>
                </g>
                <path d="M4.9718,7.9483 C4.9728,8.0063 4.9508,8.1133 4.9128,8.1703 C4.6848,8.5233 4.2228,8.4923 3.9928,8.0953 C3.9548,8.0283 3.9338,7.9193 3.9348,7.8663 C3.9528,7.2513 3.9708,6.6373 3.9888,6.0223 C3.9898,5.9693 4.0248,5.9233 4.0688,5.9193 C4.3238,5.8983 4.5808,5.8713 4.8388,5.8513 C4.8808,5.8473 4.9168,5.8933 4.9178,5.9503 C4.9358,6.6163 4.9528,7.2813 4.9718,7.9483" id="Fill-127" fill="#FFFFFF"></path>
                <path d="M5.7335,5.6797 C5.7385,5.7837 5.6855,5.9747 5.5915,6.0807 C5.0335,6.7117 3.8975,6.6587 3.3365,5.9437 C3.2425,5.8247 3.1885,5.6277 3.1915,5.5337 C3.2365,4.4277 3.2795,3.3217 3.3235,2.2157 C3.3265,2.1197 3.4145,2.0377 3.5195,2.0297 C4.1475,1.9917 4.7775,1.9447 5.4075,1.9087 C5.5115,1.9027 5.5995,1.9837 5.6035,2.0877 C5.6465,3.2847 5.6905,4.4827 5.7335,5.6797" id="Fill-129" fill="#FFFFFF"></path>
                <path d="M7.4415,3.0039 C7.1415,3.7689 5.9025,3.9979 4.6785,3.5159 C3.4525,3.0339 2.7045,2.0219 3.0045,1.2559 C3.3065,0.4899 4.5455,0.2599 5.7695,0.7419 C6.9945,1.2249 7.7445,2.2369 7.4415,3.0039" id="Fill-131" fill="#D9D8C4"></path>
                <path d="M7.4903,2.5181 C6.7323,2.2211 5.8743,2.5991 5.5733,3.3651 C5.5343,3.4631 5.5073,3.5631 5.4903,3.6621 C5.6233,3.6751 5.7553,3.7041 5.8863,3.7561 C6.5453,4.0161 6.9113,4.7051 6.7933,5.3851 C7.4333,5.4471 8.0663,5.0791 8.3153,4.4441 C8.6173,3.6791 8.2473,2.8161 7.4903,2.5181" id="Fill-133" fill="#D9D8C4"></path>
                <path d="M9.2413,4.4668 C8.7783,4.2828 8.4603,3.8888 8.3523,3.4358 C7.7063,3.3638 7.0633,3.7338 6.8103,4.3738 C6.5103,5.1388 6.8793,6.0028 7.6373,6.2998 C8.3933,6.5988 9.2523,6.2188 9.5533,5.4528 C9.6703,5.1558 9.6853,4.8448 9.6163,4.5578 C9.4903,4.5438 9.3653,4.5158 9.2413,4.4668" id="Fill-135" fill="#D9D8C4"></path>
                <path d="M10.8927,4.0547 C10.4927,4.5157 9.8357,4.7007 9.2417,4.4667 C9.0407,4.3877 8.8687,4.2677 8.7277,4.1217 C8.6187,4.2467 8.5257,4.3927 8.4617,4.5577 C8.1607,5.3237 8.5297,6.1847 9.2877,6.4837 C10.0447,6.7817 10.9027,6.4017 11.2047,5.6377 C11.4257,5.0737 11.2847,4.4587 10.8927,4.0547" id="Fill-137" fill="#D9D8C4"></path>
                <path d="M6.6446,7.8262 C6.0756,7.7312 5.2846,7.6992 4.5076,7.7152 C3.9866,7.7252 2.5776,7.7842 2.4676,7.8412 C2.2076,9.1752 3.5256,9.5962 4.6666,9.4402 C5.8226,9.2812 6.7646,7.7762 6.6446,7.8262" id="Fill-139" fill="#FFFFFF"></path>
            </g>
            <polygon id="Fill-142" fill="#F8C44F" points="39.926 66.66 59.576 66.66 59.576 54.008 39.926 54.008"></polygon>
            <g id="Group-185" transform="translate(41.000000, 54.889000)">
                <path d="M8.5274,3.0308 L8.3574,0.8448 C7.9874,0.4018 7.4944,0.1438 6.9704,0.1848 C5.9624,0.2638 5.2314,1.4178 5.3354,2.7628 C5.4404,4.1068 6.3424,5.1348 7.3504,5.0558 C8.0554,5.0008 8.6264,4.4188 8.8694,3.6138 C8.6764,3.4788 8.5474,3.2718 8.5274,3.0308" id="Fill-144" fill="#194866"></path>
                <path d="M4.4796,4.0191 C4.4176,4.3621 4.7616,4.7111 5.2466,4.7971 L6.3506,4.9931 C6.8346,5.0791 7.2776,4.8701 7.3376,4.5261 L7.8936,1.3941 C7.9546,1.0501 7.6116,0.7021 7.1266,0.6151 L6.0226,0.4201 C5.5386,0.3341 5.0956,0.5431 5.0356,0.8861 L4.4796,4.0191 Z" id="Fill-146" fill="#194866"></path>
                <path d="M7.2901,5.5659 C7.9321,5.8949 7.3821,5.8969 7.3381,5.9429 C7.0751,6.2249 4.4171,5.6699 4.2751,5.2739 C4.2511,5.2079 5.5201,5.1059 5.5301,5.0589 C5.6441,4.5069 5.7061,4.0369 5.5921,3.4029 C5.6011,3.3559 5.6411,3.3189 5.6801,3.3229 C5.9141,3.3449 6.1501,3.3619 6.3861,3.3849 C6.4251,3.3899 6.8791,3.5219 6.7621,3.7349 C6.6711,4.3399 6.6121,5.2179 7.2901,5.5659" id="Fill-148" fill="#FFFFFF"></path>
                <path d="M7.0255,3.8799 C7.0435,3.8609 7.0575,3.8409 7.0745,3.8209 C7.0785,3.8139 7.0825,3.8089 7.0875,3.8009 C7.1075,3.7759 7.1265,3.7499 7.1435,3.7219 C7.1495,3.7149 7.1535,3.7089 7.1585,3.7009 C7.1715,3.6809 7.1855,3.6599 7.1995,3.6389 C7.2065,3.6259 7.2135,3.6149 7.2205,3.6039 C7.2305,3.5849 7.2425,3.5669 7.2535,3.5479 C7.2595,3.5349 7.2675,3.5219 7.2755,3.5099 C7.2885,3.4849 7.3015,3.4609 7.3155,3.4359 C7.3255,3.4159 7.3355,3.3979 7.3445,3.3769 C7.3535,3.3609 7.3615,3.3429 7.3695,3.3259 C7.3785,3.3089 7.3865,3.2899 7.3955,3.2719 C7.4025,3.2559 7.4095,3.2399 7.4165,3.2249 C7.4215,3.2119 7.4275,3.1999 7.4335,3.1879 L7.4335,3.1849 C7.5275,2.9669 7.7185,1.8709 7.6715,1.3129 C7.6675,1.2459 7.6155,1.1809 7.5245,1.1689 C6.9805,1.0959 5.3875,0.6089 5.4245,2.2549 L5.4245,2.2559 C5.4235,2.2609 5.4145,2.3979 5.4125,2.4619 L5.4125,2.4799 C5.4095,2.5429 5.4095,2.6069 5.4105,2.6689 C5.4105,2.6729 5.4105,2.6769 5.4115,2.6809 C5.4115,2.7449 5.4145,2.8069 5.4185,2.8699 C5.4185,2.8709 5.4195,2.8739 5.4195,2.8749 C5.4695,3.6589 5.7565,4.2409 6.1915,4.3179 C6.4465,4.3619 6.7125,4.2299 6.9515,3.9669 C6.9535,3.9659 6.9555,3.9639 6.9575,3.9619 C6.9745,3.9409 6.9935,3.9209 7.0105,3.8999 C7.0165,3.8939 7.0215,3.8879 7.0255,3.8799" id="Fill-150" fill="#FFFFFF"></path>
                <path d="M6.7178,1.3008 C6.6138,1.1508 6.1178,0.9758 6.1178,0.9758 C6.1078,0.7978 6.2288,0.7448 6.3838,0.6198 C6.6858,0.3808 7.1868,0.4168 7.5038,0.6998 C7.8208,0.9848 7.8328,1.4078 7.5308,1.6468 C7.3208,1.8148 7.0128,1.8468 6.7378,1.7538 C6.7568,1.6798 6.8928,1.5548 6.7178,1.3008" id="Fill-152" fill="#194866"></path>
                <path d="M14.3819,8.0049 C14.3819,8.0049 14.4629,8.1039 14.5449,8.0449 C14.6779,7.9469 14.8429,7.6579 14.8979,7.5519 C14.9569,7.4359 15.1509,6.8359 15.1509,6.8359 C15.1509,6.8359 14.9509,6.9609 14.8729,7.2029 C14.7589,7.5529 14.3819,8.0049 14.3819,8.0049" id="Fill-154" fill="#DCE5EA"></path>
                <path d="M14.4288,7.9326 C14.6138,7.7836 14.6778,7.5146 14.6758,7.1816 C14.6748,6.8666 14.8378,6.7436 14.8378,6.7436 C14.8378,6.7436 14.8618,6.9476 14.8108,7.4376 C14.7958,7.5756 14.7728,7.7256 14.7098,7.8466 C14.5218,8.2156 13.9518,8.3166 14.4288,7.9326" id="Fill-156" fill="#DCE5EA"></path>
                <g id="Group-160" transform="translate(0.000000, 8.000000)">
                    <mask id="mask-48" fill="white">
                        <use xlink:href="#path-47"></use>
                    </mask>
                    <g id="Clip-159"></g>
                    <path d="M0.793,1.0406 C1.593,1.7716 2.316,5.0966 2.316,5.0966 C2.316,5.0966 2.223,6.4146 0.446,2.2506 C-0.088,1.0006 0.596,0.8606 0.793,1.0406" id="Fill-158" fill="#FFFFFF" mask="url(#mask-48)"></path>
                </g>
                <g id="Group-163" transform="translate(8.000000, 8.000000)">
                    <mask id="mask-50" fill="white">
                        <use xlink:href="#path-49"></use>
                    </mask>
                    <g id="Clip-162"></g>
                    <path d="M1.0596,0.4737 C1.6636,1.4397 1.1806,4.8097 1.1806,4.8097 C1.1806,4.8097 0.5656,6.0127 0.2066,1.4857 C0.0986,0.1267 0.9116,0.2357 1.0596,0.4737" id="Fill-161" fill="#FFFFFF" mask="url(#mask-50)"></path>
                </g>
                <g id="Group-166" transform="translate(8.000000, 9.000000)">
                    <mask id="mask-52" fill="white">
                        <use xlink:href="#path-51"></use>
                    </mask>
                    <g id="Clip-165"></g>
                    <path d="M0.7335,3.5157 C1.2955,2.3187 4.9065,0.1517 4.9065,0.1517 C4.9065,0.1517 6.4755,-0.2793 2.2675,3.4117 C1.0045,4.5217 0.5955,3.8117 0.7335,3.5157" id="Fill-164" fill="#FFFFFF" mask="url(#mask-52)"></path>
                </g>
                <path d="M14.5333,7.6949 L14.5983,7.7939 L14.4903,8.1899 C14.4903,8.1899 14.0233,8.7639 13.7693,8.9169 C13.5153,9.0699 12.8243,9.9699 12.7103,10.0529 C12.5983,10.1369 12.0083,9.8569 12.0083,9.8569 C12.0083,9.8569 12.9263,9.1229 13.2643,8.8019 C13.6023,8.4799 13.9293,7.8549 14.0573,7.7249 C14.2753,7.5009 14.3743,7.3749 14.3743,7.3749 C14.3743,7.3749 14.4773,7.5089 14.1553,7.8799 C14.0693,7.9769 14.2243,8.0209 14.2243,8.0209 L14.5333,7.6949 Z" id="Fill-167" fill="#FFFFFF"></path>
                <g id="Group-171" transform="translate(3.000000, 5.000000)">
                    <mask id="mask-54" fill="white">
                        <use xlink:href="#path-53"></use>
                    </mask>
                    <g id="Clip-170"></g>
                    <polygon id="Fill-169" fill="#CFD9E8" mask="url(#mask-54)" points="4.4923 7.2969 0.5013 7.8279 0.4113 0.0889 5.5493 0.8899"></polygon>
                </g>
                <path d="M1.1905,9.7168 L4.1555,5.5758 C4.1115,5.4538 4.0315,5.3448 3.9195,5.2628 L3.8425,5.2078 C3.5455,4.9958 3.1335,5.0648 2.9215,5.3618 L0.3315,8.9818 L1.1905,9.7168 Z" id="Fill-172" fill="#CFD9E8"></path>
                <path d="M8.3555,11.0972 L7.9005,6.0232 C8.0005,5.9422 8.1245,5.8872 8.2625,5.8742 L8.3565,5.8662 C8.7185,5.8342 9.0405,6.1012 9.0725,6.4642 L9.4695,10.8982 L8.3555,11.0972 Z" id="Fill-174" fill="#CFD9E8"></path>
                <g id="Group-178" transform="translate(1.000000, 12.000000)" fill="#FFFFFF">
                    <path d="M1.3292,1.9825 C1.3062,2.0565 1.2272,2.0985 1.1522,2.0745 L0.9732,2.0185 C0.8972,1.9955 0.8562,1.9165 0.8792,1.8405 L1.1332,1.0315 C1.1562,0.9575 1.2362,0.9165 1.3102,0.9385 L1.4902,0.9965 C1.5652,1.0195 1.6052,1.0975 1.5832,1.1725 L1.3292,1.9825 Z" id="Fill-176"></path>
                </g>
                <path d="M14.3448,8.1709 C14.3448,8.1709 14.6008,7.8939 14.6238,7.7049 C14.6398,7.5739 14.6148,6.9429 14.6148,6.9429 C14.6148,6.9429 14.4718,7.1289 14.4818,7.3819 C14.4948,7.7519 14.3448,8.1709 14.3448,8.1709" id="Fill-179" fill="#FFFFFF"></path>
                <path d="M14.2247,8.0205 C14.2247,8.0205 14.1187,7.9985 14.1007,7.9535 C14.0847,7.9845 14.0777,8.0205 14.0677,8.0475 C14.0487,8.1075 13.8387,8.4785 13.8387,8.4785 C13.8387,8.4785 14.0417,8.2385 14.1157,8.1825 C14.1627,8.1475 14.2427,8.0445 14.3107,7.9595 C14.3177,7.9485 14.3237,7.9255 14.3337,7.9045 L14.2247,8.0205 Z" id="Fill-181" fill="#DCE5EA"></path>
                <path d="M14.1553,7.8794 C14.3723,7.6294 14.3963,7.4884 14.3893,7.4214 C14.3383,7.4814 14.2543,7.5754 14.1313,7.7004 C14.0863,7.7464 14.0173,7.8514 13.9333,7.9824 C13.9173,8.0084 14.0073,8.0804 13.9383,8.3304 C13.9263,8.3764 14.1193,8.1594 14.2043,8.0124 C14.1653,7.9974 14.0903,7.9554 14.1553,7.8794" id="Fill-183" fill="#DCE5EA"></path>
            </g>
            <polygon id="Fill-186" fill="#AEBDDC" points="86.765 66.66 106.415 66.66 106.415 54.008 86.765 54.008"></polygon>
            <g id="Group-222" transform="translate(92.000000, 53.889000)">
                <path d="M0.7032,8.1724 C0.3962,9.8854 1.5662,11.5284 3.3162,11.8414 C5.0662,12.1544 6.7332,11.0204 7.0402,9.3064 C7.3472,7.5924 6.1772,5.9494 4.4272,5.6364 C2.6772,5.3234 1.0102,6.4584 0.7032,8.1724" id="Fill-188" fill="#194866"></path>
                <path d="M3.5762,5.458 C3.2932,7.044 4.3762,8.564 5.9962,8.854 C7.6162,9.144 9.1592,8.093 9.4432,6.506 C9.7262,4.921 8.6432,3.4 7.0232,3.11 C5.4032,2.821 3.8602,3.871 3.5762,5.458" id="Fill-190" fill="#194866"></path>
                <path d="M4.9825,3.0728 C4.7115,4.5858 5.6415,6.0188 7.0585,6.2718 C8.4755,6.5248 9.8445,5.5038 10.1155,3.9918 C10.3855,2.4788 9.4565,1.0468 8.0395,0.7928 C6.6225,0.5378 5.2535,1.5608 4.9825,3.0728" id="Fill-192" fill="#194866"></path>
                <path d="M4.9415,6.7784 C4.5975,8.7064 5.9145,10.5544 7.8825,10.9054 C9.8515,11.2584 11.7265,9.9824 12.0715,8.0544 C12.4175,6.1264 11.0995,4.2794 9.1315,3.9254 C7.1635,3.5744 5.2875,4.8504 4.9415,6.7784" id="Fill-194" fill="#163F59"></path>
                <path d="M1.9454,7.9073 C1.7154,9.1953 2.5944,10.4303 3.9104,10.6663 C5.2264,10.9023 6.4794,10.0483 6.7114,8.7603 C6.9414,7.4713 6.0614,6.2353 4.7454,6.0003 C3.4294,5.7643 2.1754,6.6183 1.9454,7.9073" id="Fill-196" fill="#163F59"></path>
                <path d="M4.0557,5.8379 C3.8257,7.1269 4.7047,8.3619 6.0217,8.5979 C7.3367,8.8329 8.5917,7.9789 8.8217,6.6899 C9.0527,5.4009 8.1717,4.1669 6.8567,3.9309 C5.5397,3.6949 4.2857,4.5499 4.0557,5.8379" id="Fill-198" fill="#163F59"></path>
                <path d="M6.877,1.7315 C6.921,1.7275 6.965,1.7255 7.01,1.7255 C7.008,2.2445 7.303,2.9125 7.839,3.4915 C7.969,3.6315 8.106,3.7575 8.245,3.8695 L8.161,4.3405 C8.036,5.0415 7.341,5.5025 6.61,5.3715 C5.88,5.2405 5.388,4.5675 5.513,3.8685 L5.703,2.8025 C6.108,2.6265 6.537,2.2485 6.877,1.7315" id="Fill-200" fill="#FFFFFF"></path>
                <g id="Group-204" transform="translate(2.000000, 6.000000)">
                    <mask id="mask-56" fill="white">
                        <use xlink:href="#path-55"></use>
                    </mask>
                    <g id="Clip-203"></g>
                    <path d="M2.5792,1.417 C2.5442,1.104 2.3432,0.557 1.8492,0.826 C1.3312,1.11 0.9862,1.822 0.9182,3.779 C0.8512,5.735 0.5822,7.289 0.3812,8.368 C0.1792,9.447 1.0982,11.54 1.6142,10.257 C2.1312,8.975 2.4212,5.769 2.4672,4.893 C2.5122,4.016 2.6002,1.62 2.5792,1.417" id="Fill-202" fill="#FFFFFF" mask="url(#mask-56)"></path>
                </g>
                <g id="Group-207" transform="translate(8.000000, 5.000000)">
                    <mask id="mask-58" fill="white">
                        <use xlink:href="#path-57"></use>
                    </mask>
                    <g id="Clip-206"></g>
                    <path d="M1.1534,0.1089 C1.1534,0.1089 0.0094,4.5269 0.5254,7.2859 C0.8904,9.2359 1.5954,7.9159 2.1744,7.7229 C2.1744,7.7229 2.1404,7.4759 2.1404,6.5669 C2.1404,5.0629 2.1914,3.6799 2.3204,2.8449 C2.5214,1.5219 2.5214,0.6919 2.2534,0.3779 C1.9834,0.0629 1.7594,-0.1161 1.1534,0.1089" id="Fill-205" fill="#FFFFFF" mask="url(#mask-58)"></path>
                </g>
                <g id="Group-210" transform="translate(8.000000, 12.000000)">
                    <mask id="mask-60" fill="white">
                        <use xlink:href="#path-59"></use>
                    </mask>
                    <g id="Clip-209"></g>
                    <path d="M1.9386,0.1944 C1.9386,0.1944 1.9836,-0.1636 2.4766,1.8774 C2.9696,3.9194 3.2846,7.4394 3.7996,8.1124 C4.3156,8.7854 4.4956,8.3824 4.4056,8.4714 C4.0866,8.7904 3.9576,9.0994 3.6216,9.0324 C3.2846,8.9654 2.5436,7.6194 1.7816,5.2864 C1.0186,2.9544 0.5476,1.3624 0.6826,0.6444 C0.8166,-0.0726 1.8716,0.0164 1.9386,0.1944" id="Fill-208" fill="#FFFFFF" mask="url(#mask-60)"></path>
                </g>
                <path d="M5.6221,6.835 C5.6221,6.835 7.3811,6.239 7.6241,6.1 C7.8661,5.961 6.9701,6.1 7.7171,4.631 C7.7261,4.613 6.3621,3.827 6.2411,3.804 C6.1201,3.781 5.9981,4.105 5.9981,4.105 C5.9981,4.105 6.2891,5.5 5.6221,6.835" id="Fill-211" fill="#FFFFFF"></path>
                <g id="Group-215" transform="translate(10.000000, 19.000000)" fill="#FFFFFF">
                    <path d="M0.9034,1.0674 C0.9034,1.0674 1.2394,1.8974 1.4414,1.9644 C1.6424,2.0324 2.1814,1.9644 2.5174,1.8524 C2.8534,1.7404 3.1004,1.5834 3.2794,1.5604 C3.4604,1.5384 4.4684,1.8614 4.7594,1.8754 C5.0664,1.8894 5.1564,1.8904 5.3214,1.8314 C5.4864,1.7704 5.4254,1.6504 5.4254,1.6504 C5.4254,1.6504 5.2834,1.6364 4.8424,1.5464 C4.2214,1.4204 3.3624,0.9944 3.1374,0.8744 C2.7494,0.6634 2.7214,0.6334 2.4954,0.7234 C2.2334,0.8284 1.8884,0.9094 1.5684,0.9784 C1.1494,1.0674 0.9034,1.0674 0.9034,1.0674" id="Fill-213"></path>
                </g>
                <g id="Group-218" transform="translate(11.000000, 20.000000)" fill="#FFFFFF">
                    <path d="M0.2247,0.6958 C0.2247,0.6958 0.3657,1.0948 0.9567,1.3088 C1.3907,1.4658 1.4637,1.4348 1.6897,1.4288 C1.9137,1.4208 1.9887,1.3978 1.9887,1.3978 C1.9887,1.3978 2.0277,1.2038 1.7487,1.1748 C1.5937,1.1578 1.3007,0.9648 1.4357,0.8748 C1.5697,0.7858 0.2247,0.6958 0.2247,0.6958" id="Fill-216"></path>
                </g>
                <g id="Group-221" transform="translate(3.000000, 5.000000)">
                    <mask id="mask-62" fill="white">
                        <use xlink:href="#path-61"></use>
                    </mask>
                    <g id="Clip-220"></g>
                    <path d="M1.2647,11.7041 C1.2647,11.7041 0.8167,9.9991 0.7937,9.0351 C0.7707,8.0701 0.8837,6.3661 0.8607,6.2981 C0.8377,6.2321 0.2097,5.8051 0.2547,5.3571 C0.2997,4.9081 0.8837,3.7201 0.9957,3.3601 C1.1067,3.0011 1.1067,1.7461 1.1067,1.7461 C1.1067,1.7461 2.1397,1.9921 3.3727,1.5441 C4.6067,1.0961 6.1537,0.1091 6.1537,0.1091 C6.1537,0.1091 6.9837,0.1991 6.3557,3.9441 C5.7267,7.6881 5.5337,7.9121 5.5027,9.0131 C5.4587,10.6271 6.4467,12.4431 6.5357,13.8111 C6.6247,15.1791 1.5787,12.1971 1.2647,11.7041" id="Fill-219" fill="#A3CF6F" mask="url(#mask-62)"></path>
                </g>
            </g>
        </g>
    </g>
</svg>