<svg id="Layer_1" data-name="Layer 1" xmlns="http://www.w3.org/2000/svg" viewBox="0 0 143.38 143.51">
  <defs>
    <style>
      .cls-1 {
        fill: #363636;
      }
    </style>
  </defs>
  <title>web_design</title>
  <path class="cls-1" d="M469,347.28H390a1.5,1.5,0,0,1-1.5-1.5V325.92a1.5,1.5,0,0,1,1.5-1.5h54.47l25.91-25.82V244.16a1.5,1.5,0,0,1,1.5-1.5h19.73a1.5,1.5,0,0,1,1.5,1.5V323.3a1.5,1.5,0,0,1-1.5,1.5H470.5v21A1.5,1.5,0,0,1,469,347.28Zm-77.55-3H467.5v-21a1.5,1.5,0,0,1,1.5-1.5h21.06V245.66H473.33v53.57a1.5,1.5,0,0,1-.44,1.06L446.1,327a1.5,1.5,0,0,1-1.06.44H391.45Zm80.38-45h0Z" transform="translate(-349.68 -203.77)"/>
  <path class="cls-1" d="M445,327.42H351.18a1.5,1.5,0,0,1-1.5-1.5V205.27a1.5,1.5,0,0,1,1.5-1.5H471.83a1.5,1.5,0,0,1,1.5,1.5v94a1.5,1.5,0,0,1-1.5,1.5H446.54v25.19A1.5,1.5,0,0,1,445,327.42Zm-92.36-3h90.86V299.23a1.5,1.5,0,0,1,1.5-1.5h25.29v-91H352.68Z" transform="translate(-349.68 -203.77)"/>
  <path class="cls-1" d="M445,327.42a1.46,1.46,0,0,1-.57-.12,1.5,1.5,0,0,1-.93-1.38V299.23a1.5,1.5,0,0,1,1.5-1.5h26.79a1.5,1.5,0,0,1,1.06,2.56L446.1,327A1.47,1.47,0,0,1,445,327.42Zm1.5-26.69v21.58l21.66-21.58Z" transform="translate(-349.68 -203.77)"/>
  <path class="cls-1" d="M469,347.28a1.51,1.51,0,0,1-1.5-1.5V323.3a1.5,1.5,0,0,1,1.5-1.5h22.56a1.5,1.5,0,0,1,1.06,2.56l-22.56,22.48A1.53,1.53,0,0,1,469,347.28Zm1.5-22.48v17.36l17.43-17.36Z" transform="translate(-349.68 -203.77)"/>
  <path class="cls-1" d="M401.62,306.44H368.31a4.42,4.42,0,0,1-4.4-4.41v-9.71a4.41,4.41,0,0,1,4.4-4.4h33.31a4.41,4.41,0,0,1,4.4,4.4V302A4.42,4.42,0,0,1,401.62,306.44Zm-33.31-15.52a1.4,1.4,0,0,0-1.4,1.4V302a1.41,1.41,0,0,0,1.4,1.41h33.31A1.41,1.41,0,0,0,403,302v-9.71a1.4,1.4,0,0,0-1.4-1.4Z" transform="translate(-349.68 -203.77)"/>
  <path class="cls-1" d="M395.49,290.92H374.56a1.5,1.5,0,0,1-1.46-1.18l-7.36-33.47a1.5,1.5,0,0,1,.06-.84l11.06-29.83a1.5,1.5,0,0,1,1.41-1h13.52a1.49,1.49,0,0,1,1.4,1l11.06,29.83a1.5,1.5,0,0,1,.06.84L397,289.74A1.5,1.5,0,0,1,395.49,290.92Zm-19.72-3h18.52l7-31.86-10.55-28.44H379.31l-10.54,28.44Z" transform="translate(-349.68 -203.77)"/>
  <path class="cls-1" d="M385.08,263.93a6.16,6.16,0,1,1,6.16-6.16A6.16,6.16,0,0,1,385.08,263.93Zm0-9.32a3.16,3.16,0,1,0,3.16,3.16A3.17,3.17,0,0,0,385.08,254.61Z" transform="translate(-349.68 -203.77)"/>
  <path class="cls-1" d="M385.08,254.61a1.5,1.5,0,0,1-1.5-1.5v-27a1.5,1.5,0,0,1,3,0v27A1.5,1.5,0,0,1,385.08,254.61Z" transform="translate(-349.68 -203.77)"/>
  <path class="cls-1" d="M361.34,213.53a1.5,1.5,0,0,1-1.5-1.5v-6.76a1.5,1.5,0,0,1,3,0V212A1.5,1.5,0,0,1,361.34,213.53Z" transform="translate(-349.68 -203.77)"/>
  <path class="cls-1" d="M373.48,213.53A1.5,1.5,0,0,1,372,212v-6.76a1.5,1.5,0,1,1,3,0V212A1.5,1.5,0,0,1,373.48,213.53Z" transform="translate(-349.68 -203.77)"/>
  <path class="cls-1" d="M385.62,213.53a1.5,1.5,0,0,1-1.5-1.5v-6.76a1.5,1.5,0,1,1,3,0V212A1.5,1.5,0,0,1,385.62,213.53Z" transform="translate(-349.68 -203.77)"/>
  <path class="cls-1" d="M397.76,213.53a1.5,1.5,0,0,1-1.5-1.5v-6.76a1.5,1.5,0,1,1,3,0V212A1.5,1.5,0,0,1,397.76,213.53Z" transform="translate(-349.68 -203.77)"/>
  <path class="cls-1" d="M409.9,213.53a1.5,1.5,0,0,1-1.5-1.5v-6.76a1.5,1.5,0,1,1,3,0V212A1.5,1.5,0,0,1,409.9,213.53Z" transform="translate(-349.68 -203.77)"/>
  <path class="cls-1" d="M422,213.53a1.5,1.5,0,0,1-1.5-1.5v-6.76a1.5,1.5,0,0,1,3,0V212A1.5,1.5,0,0,1,422,213.53Z" transform="translate(-349.68 -203.77)"/>
  <path class="cls-1" d="M434.18,213.53a1.5,1.5,0,0,1-1.5-1.5v-6.76a1.5,1.5,0,0,1,3,0V212A1.5,1.5,0,0,1,434.18,213.53Z" transform="translate(-349.68 -203.77)"/>
  <path class="cls-1" d="M446.32,213.53a1.5,1.5,0,0,1-1.5-1.5v-6.76a1.5,1.5,0,0,1,3,0V212A1.5,1.5,0,0,1,446.32,213.53Z" transform="translate(-349.68 -203.77)"/>
  <path class="cls-1" d="M458.46,213.53A1.5,1.5,0,0,1,457,212v-6.76a1.5,1.5,0,0,1,3,0V212A1.5,1.5,0,0,1,458.46,213.53Z" transform="translate(-349.68 -203.77)"/>
  <path class="cls-1" d="M360.68,327.29a1.5,1.5,0,0,1-1.5-1.5V319a1.5,1.5,0,0,1,3,0v6.76A1.5,1.5,0,0,1,360.68,327.29Z" transform="translate(-349.68 -203.77)"/>
  <path class="cls-1" d="M372.82,327.29a1.5,1.5,0,0,1-1.5-1.5V319a1.5,1.5,0,0,1,3,0v6.76A1.5,1.5,0,0,1,372.82,327.29Z" transform="translate(-349.68 -203.77)"/>
  <path class="cls-1" d="M385,327.29a1.5,1.5,0,0,1-1.5-1.5V319a1.5,1.5,0,0,1,3,0v6.76A1.5,1.5,0,0,1,385,327.29Z" transform="translate(-349.68 -203.77)"/>
  <path class="cls-1" d="M397.1,327.29a1.5,1.5,0,0,1-1.5-1.5V319a1.5,1.5,0,0,1,3,0v6.76A1.5,1.5,0,0,1,397.1,327.29Z" transform="translate(-349.68 -203.77)"/>
  <path class="cls-1" d="M409.24,327.29a1.5,1.5,0,0,1-1.5-1.5V319a1.5,1.5,0,0,1,3,0v6.76A1.5,1.5,0,0,1,409.24,327.29Z" transform="translate(-349.68 -203.77)"/>
  <path class="cls-1" d="M421.38,327.29a1.5,1.5,0,0,1-1.5-1.5V319a1.5,1.5,0,0,1,3,0v6.76A1.5,1.5,0,0,1,421.38,327.29Z" transform="translate(-349.68 -203.77)"/>
  <path class="cls-1" d="M433.52,327.29a1.5,1.5,0,0,1-1.5-1.5V319a1.5,1.5,0,0,1,3,0v6.76A1.5,1.5,0,0,1,433.52,327.29Z" transform="translate(-349.68 -203.77)"/>
  <path class="cls-1" d="M433,245H415.81a1.5,1.5,0,0,1-1.5-1.5V226.37a1.5,1.5,0,0,1,1.5-1.5H433a1.5,1.5,0,0,1,1.5,1.5v17.16A1.5,1.5,0,0,1,433,245Zm-15.66-3h14.16V227.87H417.31Z" transform="translate(-349.68 -203.77)"/>
  <g>
    <path class="cls-1" d="M457,245a1.36,1.36,0,0,1-.29,0,1.31,1.31,0,0,1-.28-.09.94.94,0,0,1-.26-.14,1,1,0,0,1-.23-.18,1.47,1.47,0,0,1-.32-1.64,1.58,1.58,0,0,1,.13-.26,2,2,0,0,1,.19-.22,2.11,2.11,0,0,1,.23-.19l.26-.14a1.29,1.29,0,0,1,.28-.08,1.42,1.42,0,0,1,.58,0,1.29,1.29,0,0,1,.28.08l.26.14a2.11,2.11,0,0,1,.23.19,2,2,0,0,1,.19.22,1.58,1.58,0,0,1,.13.26,1.49,1.49,0,0,1-.32,1.64,1,1,0,0,1-.23.18.94.94,0,0,1-.26.14,1.31,1.31,0,0,1-.28.09A1.36,1.36,0,0,1,457,245Z" transform="translate(-349.68 -203.77)"/>
    <path class="cls-1" d="M446.9,243.53a1.5,1.5,0,0,1,1.5-1.5h0a1.5,1.5,0,0,1,1.5,1.5h0a1.5,1.5,0,0,1-1.5,1.5h0A1.5,1.5,0,0,1,446.9,243.53Z" transform="translate(-349.68 -203.77)"/>
    <path class="cls-1" d="M439.82,245a1.53,1.53,0,0,1-.3,0l-.28-.09a1.23,1.23,0,0,1-.25-.14,1,1,0,0,1-.23-.18,1.52,1.52,0,0,1-.44-1.06,1.48,1.48,0,0,1,.44-1.06,1.06,1.06,0,0,1,.23-.19,2,2,0,0,1,.25-.14,1.72,1.72,0,0,1,.28-.08,1.52,1.52,0,0,1,1.36.41,1.48,1.48,0,0,1,.44,1.06,1.5,1.5,0,0,1-1.5,1.5Z" transform="translate(-349.68 -203.77)"/>
    <path class="cls-1" d="M438.32,235a1.5,1.5,0,0,1,1.5-1.5h0a1.5,1.5,0,0,1,1.5,1.5h0a1.5,1.5,0,0,1-1.5,1.5h0A1.5,1.5,0,0,1,438.32,235Z" transform="translate(-349.68 -203.77)"/>
    <path class="cls-1" d="M439.82,227.87a1.53,1.53,0,0,1-.3,0l-.28-.09a1.23,1.23,0,0,1-.25-.14,1.41,1.41,0,0,1-.23-.18,1.51,1.51,0,0,1,0-2.13,1.41,1.41,0,0,1,.23-.18,1.23,1.23,0,0,1,.25-.14l.28-.09a1.57,1.57,0,0,1,1.36.41,1.51,1.51,0,0,1-1.06,2.57Z" transform="translate(-349.68 -203.77)"/>
    <path class="cls-1" d="M446.9,226.36a1.5,1.5,0,0,1,1.5-1.49h0a1.5,1.5,0,0,1,1.5,1.49h0a1.51,1.51,0,0,1-1.5,1.51h0A1.51,1.51,0,0,1,446.9,226.36Z" transform="translate(-349.68 -203.77)"/>
    <path class="cls-1" d="M457,227.87a1.36,1.36,0,0,1-.29,0,1.61,1.61,0,0,1-.54-.23,2,2,0,0,1-.23-.18,1.51,1.51,0,0,1,0-2.13,1,1,0,0,1,.23-.18,1.61,1.61,0,0,1,.54-.23,1.88,1.88,0,0,1,.58,0,1.61,1.61,0,0,1,.54.23,1,1,0,0,1,.23.18,1.51,1.51,0,0,1,0,2.13,2,2,0,0,1-.23.18,1.61,1.61,0,0,1-.54.23A1.36,1.36,0,0,1,457,227.87Z" transform="translate(-349.68 -203.77)"/>
    <path class="cls-1" d="M455.48,235a1.5,1.5,0,0,1,1.5-1.5h0a1.5,1.5,0,0,1,1.5,1.5h0a1.5,1.5,0,0,1-1.5,1.5h0A1.5,1.5,0,0,1,455.48,235Z" transform="translate(-349.68 -203.77)"/>
  </g>
  <g>
    <path class="cls-1" d="M433,268.87a1.41,1.41,0,0,1-.58-.12,1.26,1.26,0,0,1-.26-.13,2.11,2.11,0,0,1-.23-.19,1.52,1.52,0,0,1-.44-1.06,1.5,1.5,0,0,1,.44-1.06,1.56,1.56,0,0,1,2.13,0,1.41,1.41,0,0,1,.18.23,1.23,1.23,0,0,1,.14.25,1,1,0,0,1,.08.29,1.36,1.36,0,0,1,0,.29,1.53,1.53,0,0,1-.43,1.06A1.52,1.52,0,0,1,433,268.87Z" transform="translate(-349.68 -203.77)"/>
    <path class="cls-1" d="M422.89,267.37a1.51,1.51,0,0,1,1.51-1.5h0a1.5,1.5,0,0,1,1.49,1.5h0a1.5,1.5,0,0,1-1.49,1.5h0A1.51,1.51,0,0,1,422.89,267.37Z" transform="translate(-349.68 -203.77)"/>
    <path class="cls-1" d="M415.81,268.87l-.29,0a1.31,1.31,0,0,1-.28-.09,1.26,1.26,0,0,1-.26-.13,2.11,2.11,0,0,1-.23-.19,1.65,1.65,0,0,1-.41-.77,1.42,1.42,0,0,1,0-.58,1.61,1.61,0,0,1,.23-.54,1,1,0,0,1,.18-.23,1.52,1.52,0,0,1,1.36-.41l.28.08.26.14a1.37,1.37,0,0,1,.22.19,1.06,1.06,0,0,1,.19.23,1.61,1.61,0,0,1,.23.54,2.11,2.11,0,0,1,0,.58,1.61,1.61,0,0,1-.23.54,1.76,1.76,0,0,1-.41.42,1.58,1.58,0,0,1-.26.13,1.41,1.41,0,0,1-.58.12Z" transform="translate(-349.68 -203.77)"/>
    <path class="cls-1" d="M414.31,258.79a1.5,1.5,0,0,1,1.5-1.5h0a1.5,1.5,0,0,1,1.5,1.5h0a1.5,1.5,0,0,1-1.5,1.5h0A1.5,1.5,0,0,1,414.31,258.79Z" transform="translate(-349.68 -203.77)"/>
    <path class="cls-1" d="M415.81,251.71l-.29,0a1.31,1.31,0,0,1-.28-.09.94.94,0,0,1-.26-.14,1.56,1.56,0,0,1-.64-.95,1.43,1.43,0,0,1,0-.29,1.41,1.41,0,0,1,.12-.58,1.23,1.23,0,0,1,.14-.25,1,1,0,0,1,.18-.23,1.52,1.52,0,0,1,1.36-.41l.28.08.26.14a1,1,0,0,1,.22.19,1.06,1.06,0,0,1,.19.23,1.23,1.23,0,0,1,.14.25,1.52,1.52,0,0,1,.09.28c0,.1,0,.2,0,.3a2.83,2.83,0,0,1,0,.29,1.61,1.61,0,0,1-.23.54,1.37,1.37,0,0,1-.19.23,1,1,0,0,1-.22.18,1.1,1.1,0,0,1-.26.14,1.52,1.52,0,0,1-.28.09Z" transform="translate(-349.68 -203.77)"/>
    <path class="cls-1" d="M422.89,250.21a1.51,1.51,0,0,1,1.51-1.5h0a1.5,1.5,0,0,1,1.49,1.5h0a1.5,1.5,0,0,1-1.49,1.5h0A1.51,1.51,0,0,1,422.89,250.21Z" transform="translate(-349.68 -203.77)"/>
    <path class="cls-1" d="M433,251.71a1.54,1.54,0,0,1-1.07-.44,1.52,1.52,0,0,1-.44-1.06,1.5,1.5,0,0,1,.44-1.06,1.56,1.56,0,0,1,2.13,0,1.92,1.92,0,0,1,.18.22,1.65,1.65,0,0,1,.14.26,1,1,0,0,1,.08.28,1.49,1.49,0,0,1-1.46,1.8Z" transform="translate(-349.68 -203.77)"/>
    <path class="cls-1" d="M431.48,258.79a1.5,1.5,0,0,1,1.49-1.5h0a1.51,1.51,0,0,1,1.51,1.5h0a1.51,1.51,0,0,1-1.51,1.5h0A1.5,1.5,0,0,1,431.48,258.79Z" transform="translate(-349.68 -203.77)"/>
  </g>
  <path class="cls-1" d="M457,268.87H439.82a1.5,1.5,0,0,1-1.5-1.5V250.21a1.5,1.5,0,0,1,1.5-1.5H457a1.5,1.5,0,0,1,1.5,1.5v17.16A1.5,1.5,0,0,1,457,268.87Zm-15.66-3h14.16V251.71H441.32Z" transform="translate(-349.68 -203.77)"/>
  <path class="cls-1" d="M433,292.72H415.81a1.5,1.5,0,0,1-1.5-1.5V274.05a1.5,1.5,0,0,1,1.5-1.5H433a1.5,1.5,0,0,1,1.5,1.5v17.17A1.5,1.5,0,0,1,433,292.72Zm-15.66-3h14.16V275.55H417.31Z" transform="translate(-349.68 -203.77)"/>
  <g>
    <path class="cls-1" d="M457,292.71a1.36,1.36,0,0,1-.29,0l-.28-.08-.26-.14a1.45,1.45,0,0,1-.23-.19,1.5,1.5,0,0,1-.44-1.06,1.43,1.43,0,0,1,0-.29,1.31,1.31,0,0,1,.09-.28,1.26,1.26,0,0,1,.13-.26,1.57,1.57,0,0,1,.42-.42,1.26,1.26,0,0,1,.26-.13,1.31,1.31,0,0,1,.28-.09,1.42,1.42,0,0,1,.58,0,1.31,1.31,0,0,1,.28.09,1.26,1.26,0,0,1,.26.13,1.57,1.57,0,0,1,.42.42,1.26,1.26,0,0,1,.13.26,1.31,1.31,0,0,1,.09.28,1.43,1.43,0,0,1,0,.29,1.5,1.5,0,0,1-.44,1.06,1.45,1.45,0,0,1-.23.19l-.26.14-.28.08A1.36,1.36,0,0,1,457,292.71Z" transform="translate(-349.68 -203.77)"/>
    <path class="cls-1" d="M446.9,291.21a1.5,1.5,0,0,1,1.5-1.5h0a1.5,1.5,0,0,1,1.5,1.5h0a1.5,1.5,0,0,1-1.5,1.5h0A1.5,1.5,0,0,1,446.9,291.21Z" transform="translate(-349.68 -203.77)"/>
    <path class="cls-1" d="M439.82,292.71l-.3,0-.28-.08a2,2,0,0,1-.25-.14,1.57,1.57,0,0,1-.42-.42,2,2,0,0,1-.14-.25c0-.1-.06-.19-.08-.29a1.36,1.36,0,0,1,0-.29,1.52,1.52,0,0,1,.44-1.06A1.45,1.45,0,0,1,439,290a1.19,1.19,0,0,1,.25-.13,1.5,1.5,0,0,1,2.08,1.38,1.36,1.36,0,0,1,0,.29,1.61,1.61,0,0,1-.09.29,1.19,1.19,0,0,1-.13.25,1.45,1.45,0,0,1-.19.23A1.52,1.52,0,0,1,439.82,292.71Z" transform="translate(-349.68 -203.77)"/>
    <path class="cls-1" d="M438.32,282.63a1.5,1.5,0,0,1,1.5-1.5h0a1.5,1.5,0,0,1,1.5,1.5h0a1.5,1.5,0,0,1-1.5,1.5h0A1.5,1.5,0,0,1,438.32,282.63Z" transform="translate(-349.68 -203.77)"/>
    <path class="cls-1" d="M439.82,275.55a1.41,1.41,0,0,1-.58-.12,1.19,1.19,0,0,1-.25-.13,1.45,1.45,0,0,1-.23-.19,1.52,1.52,0,0,1-.44-1.06,1.5,1.5,0,0,1,.44-1.06,1.45,1.45,0,0,1,.23-.19,1.19,1.19,0,0,1,.25-.13,1.47,1.47,0,0,1,1.64.32,1.5,1.5,0,0,1,0,2.12A1.52,1.52,0,0,1,439.82,275.55Z" transform="translate(-349.68 -203.77)"/>
    <path class="cls-1" d="M446.9,274.05a1.5,1.5,0,0,1,1.5-1.5h0a1.5,1.5,0,0,1,1.5,1.5h0a1.5,1.5,0,0,1-1.5,1.5h0A1.5,1.5,0,0,1,446.9,274.05Z" transform="translate(-349.68 -203.77)"/>
    <path class="cls-1" d="M457,275.55a1.36,1.36,0,0,1-.29,0,1.31,1.31,0,0,1-.28-.09,1.26,1.26,0,0,1-.26-.13,1.57,1.57,0,0,1-.42-.42,1.26,1.26,0,0,1-.13-.26,1.31,1.31,0,0,1-.09-.28,1.36,1.36,0,0,1,0-.29,1.5,1.5,0,0,1,.44-1.06,1.45,1.45,0,0,1,.23-.19l.26-.14.28-.08a1.42,1.42,0,0,1,.58,0l.28.08.26.14a1.45,1.45,0,0,1,.23.19,1.5,1.5,0,0,1,.44,1.06,1.36,1.36,0,0,1,0,.29,1.31,1.31,0,0,1-.09.28,1.26,1.26,0,0,1-.13.26,1.57,1.57,0,0,1-.42.42,1.26,1.26,0,0,1-.26.13,1.31,1.31,0,0,1-.28.09A1.36,1.36,0,0,1,457,275.55Z" transform="translate(-349.68 -203.77)"/>
    <path class="cls-1" d="M455.48,282.63a1.5,1.5,0,0,1,1.5-1.5h0a1.5,1.5,0,0,1,1.5,1.5h0a1.5,1.5,0,0,1-1.5,1.5h0A1.5,1.5,0,0,1,455.48,282.63Z" transform="translate(-349.68 -203.77)"/>
  </g>
  <g>
    <path class="cls-1" d="M397.11,340.44l-.3,0a1.52,1.52,0,0,1-.28-.09,1.26,1.26,0,0,1-.26-.13A2.11,2.11,0,0,1,396,340a2,2,0,0,1-.18-.23,1.61,1.61,0,0,1-.23-.54,2.11,2.11,0,0,1,0-.58,1.61,1.61,0,0,1,.23-.54,2,2,0,0,1,.18-.23,2.11,2.11,0,0,1,.23-.19,1.26,1.26,0,0,1,.26-.13,1.52,1.52,0,0,1,.28-.09,1.47,1.47,0,0,1,.59,0,1.52,1.52,0,0,1,.28.09,1.26,1.26,0,0,1,.26.13,2.11,2.11,0,0,1,.23.19,2,2,0,0,1,.18.23,1.61,1.61,0,0,1,.23.54,2.11,2.11,0,0,1,0,.58,1.61,1.61,0,0,1-.23.54,2,2,0,0,1-.18.23,2.11,2.11,0,0,1-.23.19,1.26,1.26,0,0,1-.26.13,1.52,1.52,0,0,1-.28.09Z" transform="translate(-349.68 -203.77)"/>
    <path class="cls-1" d="M446.3,338.94a1.51,1.51,0,0,1,1.51-1.5h0a1.5,1.5,0,0,1,1.49,1.5h0a1.5,1.5,0,0,1-1.49,1.5h0A1.51,1.51,0,0,1,446.3,338.94Zm-12.67,0a1.5,1.5,0,0,1,1.5-1.5h0a1.5,1.5,0,0,1,1.5,1.5h0a1.5,1.5,0,0,1-1.5,1.5h0A1.5,1.5,0,0,1,433.63,338.94Zm-12.68,0a1.51,1.51,0,0,1,1.51-1.5h0a1.5,1.5,0,0,1,1.49,1.5h0a1.5,1.5,0,0,1-1.49,1.5h0A1.51,1.51,0,0,1,421,338.94Zm-12.67,0a1.5,1.5,0,0,1,1.5-1.5h0a1.5,1.5,0,0,1,1.5,1.5h0a1.5,1.5,0,0,1-1.5,1.5h0A1.5,1.5,0,0,1,408.28,338.94Z" transform="translate(-349.68 -203.77)"/>
    <path class="cls-1" d="M460.48,340.44a1.36,1.36,0,0,1-.29,0l-.28-.08-.26-.14a2.11,2.11,0,0,1-.23-.19,1.45,1.45,0,0,1-.19-.23,1.26,1.26,0,0,1-.13-.26,1.31,1.31,0,0,1-.09-.28,1.36,1.36,0,0,1,0-.29,1.52,1.52,0,0,1,.44-1.06,2.11,2.11,0,0,1,.23-.19,1.26,1.26,0,0,1,.26-.13,1.31,1.31,0,0,1,.28-.09,1.42,1.42,0,0,1,.58,0,1.31,1.31,0,0,1,.28.09,1.26,1.26,0,0,1,.26.13,2.11,2.11,0,0,1,.23.19,1.52,1.52,0,0,1,.44,1.06,1.36,1.36,0,0,1,0,.29,2.29,2.29,0,0,1-.08.28,2.15,2.15,0,0,1-.14.26,1.45,1.45,0,0,1-.19.23,2.11,2.11,0,0,1-.23.19l-.26.14-.28.08A1.36,1.36,0,0,1,460.48,340.44Z" transform="translate(-349.68 -203.77)"/>
  </g>
  <g>
    <path class="cls-1" d="M482.16,253.71a1.36,1.36,0,0,1-.29,0,1.31,1.31,0,0,1-.28-.09,1.26,1.26,0,0,1-.26-.13,2.11,2.11,0,0,1-.23-.19,1.52,1.52,0,0,1-.44-1.06,1.36,1.36,0,0,1,0-.29,1.61,1.61,0,0,1,.09-.29,1.19,1.19,0,0,1,.13-.25,1.45,1.45,0,0,1,.19-.23,1.55,1.55,0,0,1,2.12,0,1.45,1.45,0,0,1,.19.23,2,2,0,0,1,.14.25c0,.1.06.19.08.29a1.36,1.36,0,0,1,0,.29,1.5,1.5,0,0,1-1.5,1.5Z" transform="translate(-349.68 -203.77)"/>
    <path class="cls-1" d="M480.66,301.59a1.5,1.5,0,0,1,1.5-1.5h0a1.5,1.5,0,0,1,1.5,1.5h0a1.5,1.5,0,0,1-1.5,1.5h0A1.5,1.5,0,0,1,480.66,301.59Zm0-12.34a1.5,1.5,0,0,1,1.5-1.5h0a1.5,1.5,0,0,1,1.5,1.5h0a1.5,1.5,0,0,1-1.5,1.5h0A1.5,1.5,0,0,1,480.66,289.25Zm0-12.35a1.5,1.5,0,0,1,1.5-1.5h0a1.5,1.5,0,0,1,1.5,1.5h0a1.5,1.5,0,0,1-1.5,1.5h0A1.5,1.5,0,0,1,480.66,276.9Zm0-12.34a1.51,1.51,0,0,1,1.5-1.51h0a1.51,1.51,0,0,1,1.5,1.51h0a1.5,1.5,0,0,1-1.5,1.5h0A1.5,1.5,0,0,1,480.66,264.56Z" transform="translate(-349.68 -203.77)"/>
    <path class="cls-1" d="M482.16,315.44a1.5,1.5,0,0,1-1.5-1.5,1.52,1.52,0,0,1,.44-1.06,1.55,1.55,0,0,1,2.12,0,1.52,1.52,0,0,1,.44,1.06,1.5,1.5,0,0,1-1.5,1.5Z" transform="translate(-349.68 -203.77)"/>
  </g>
  <path class="cls-1" d="M371.79,306.44a1.51,1.51,0,0,1-1.5-1.5v-3.58a1.5,1.5,0,0,1,3,0v3.58A1.5,1.5,0,0,1,371.79,306.44Z" transform="translate(-349.68 -203.77)"/>
  <path class="cls-1" d="M377.05,306.44a1.5,1.5,0,0,1-1.5-1.5v-3.58a1.5,1.5,0,0,1,3,0v3.58A1.5,1.5,0,0,1,377.05,306.44Z" transform="translate(-349.68 -203.77)"/>
  <path class="cls-1" d="M382.31,306.44a1.5,1.5,0,0,1-1.5-1.5v-3.58a1.5,1.5,0,0,1,3,0v3.58A1.5,1.5,0,0,1,382.31,306.44Z" transform="translate(-349.68 -203.77)"/>
  <path class="cls-1" d="M387.56,306.44a1.5,1.5,0,0,1-1.5-1.5v-3.58a1.5,1.5,0,0,1,3,0v3.58A1.5,1.5,0,0,1,387.56,306.44Z" transform="translate(-349.68 -203.77)"/>
  <path class="cls-1" d="M392.82,306.44a1.5,1.5,0,0,1-1.5-1.5v-3.58a1.5,1.5,0,0,1,3,0v3.58A1.5,1.5,0,0,1,392.82,306.44Z" transform="translate(-349.68 -203.77)"/>
  <path class="cls-1" d="M398.08,306.44a1.5,1.5,0,0,1-1.5-1.5v-3.58a1.5,1.5,0,0,1,3,0v3.58A1.51,1.51,0,0,1,398.08,306.44Z" transform="translate(-349.68 -203.77)"/>
</svg>
