<?xml version="1.0" encoding="UTF-8"?>
<svg width="344px" height="400px" viewBox="0 0 344 400" version="1.1" xmlns="http://www.w3.org/2000/svg" xmlns:xlink="http://www.w3.org/1999/xlink">
    <!-- Generator: Sketch 48 (47235) - http://www.bohemiancoding.com/sketch -->
    <title>Page 1</title>
    <desc>Created with Sketch.</desc>
    <defs>
        <polygon id="path-1" points="1.60958084 0.901077844 344.086228 0.901077844 344.086228 177.245509 1.60958084 177.245509"></polygon>
    </defs>
    <g id="Desktop-HD" stroke="none" stroke-width="1" fill="none" fill-rule="evenodd" transform="translate(-129.000000, -1603.000000)">
        <g id="Services" transform="translate(-7.000000, 133.000000)">
            <g id="service/content/left" transform="translate(10.000000, 1431.000000)">
                <g id="Page-1" transform="translate(126.000000, 39.000000)">
                    <path d="M0.000239520958,337.647665 L120.92479,247.669222 C120.92479,247.669222 177.547545,263.805749 197.32479,267.094371 C252.714012,276.299162 342.122395,292.004551 342.122395,292.004551 L233.178683,398.208144 C233.178683,398.208144 106.00982,360.430898 80.1679042,352.869222 C37.8708982,340.464431 0.000239520958,337.647665 0.000239520958,337.647665" id="Fill-1" fill="#163F59"></path>
                    <g id="Group-5" transform="translate(0.000000, 222.062275)">
                        <mask id="mask-2" fill="white">
                            <use xlink:href="#path-1"></use>
                        </mask>
                        <g id="Clip-4"></g>
                        <path d="M1.60958084,105.866347 L136.249102,0.901077844 C136.249102,0.901077844 189.82515,28.4411976 209.173653,35.8735329 C263.386826,56.697485 344.086228,54.5633533 344.086228,54.5633533 L217.267066,177.245988 C217.267066,177.245988 103.949701,150.52503 79.554491,137.758563 C39.6287425,116.857964 1.60958084,105.866347 1.60958084,105.866347" id="Fill-3" fill="#E4EEF3" mask="url(#mask-2)"></path>
                    </g>
                    <path d="M152.338204,104.625629 C153.641198,102.474731 155.485509,100.604072 157.825629,99.245988 C165.162156,94.9681437 174.501078,97.3274251 178.687904,104.513054 C182.874731,111.698683 180.321437,120.98491 172.982515,125.260359 C165.804072,129.442395 156.719042,127.260359 152.41006,120.436407 C154.726228,115.521437 154.845988,109.72024 152.338204,104.625629" id="Fill-6" fill="#282723"></path>
                    <path d="M165.214611,117.227305 C163.878084,115.957844 159.612216,117.62012 157.693653,119.600958 C148.00024,129.612934 133.748743,147.900359 133.748743,147.900359 C133.748743,147.900359 137.731976,155.299162 139.686467,153.244072 C143.643353,149.088383 152.74515,145.577006 163.236168,129.299162 C166.266108,124.59976 167.478084,119.368623 165.214611,117.227305" id="Fill-8" fill="#975140"></path>
                    <path d="M125.07976,192.308024 C125.07976,192.308024 124.080958,195.206228 124.502515,196.681677 C124.801916,197.711617 127.005509,202.317605 127.005509,202.317605 C127.005509,202.317605 127.472575,200.480479 126.598323,198.626587 C125.312096,195.917605 125.07976,192.308024 125.07976,192.308024" id="Fill-10" fill="#E2C59C"></path>
                    <path d="M125.471617,195.781557 C124.664431,197.527665 125.162635,199.70012 126.36503,202.114491 C127.497964,204.409102 126.753054,205.884551 126.753054,205.884551 C126.753054,205.884551 125.857246,204.488144 124.468024,200.73485 C124.07521,199.688144 123.730299,198.600719 123.418922,197.53485 C122.398563,194.011497 127.56024,191.290539 125.471617,195.781557" id="Fill-12" fill="#E2C59C"></path>
                    <path d="M129.984671,173.989701 C127.833772,178.571737 125.263713,183.776527 125.139162,186.717844 C124.952335,190.902275 126.696048,193.141796 125.472096,195.781317 C125.340359,196.068743 125.275689,196.38012 125.172695,196.681916 C124.918802,197.496287 124.482874,198.358563 124.422994,198.705868 C124.346347,199.105868 124.272096,200.245988 124.121198,199.781317 C122.743952,195.63521 121.608623,190.868743 121.814611,189.831617 C122.231377,187.702275 125.052934,176.030419 126.995449,171.910659 C129.184671,167.266347 132.885269,167.802874 129.984671,173.989701" id="Fill-14" fill="#FFFFFF"></path>
                    <path d="M125.102036,195.579401 C125.102036,195.579401 124.151138,195.148263 123.777485,195.869222 C123.164311,197.05485 122.994251,199.744671 122.977485,200.700359 C122.963114,201.766228 123.705629,206.817725 123.705629,206.817725 C123.705629,206.817725 124.699641,205.205749 124.407425,203.16982 C123.978683,200.204551 125.102036,195.579401 125.102036,195.579401" id="Fill-16" fill="#FFFFFF"></path>
                    <path d="M128.642156,164.42994 C131.696048,162.767665 136.783473,154.413174 138.206228,155.562874 C136.69485,165.483832 122.268503,187.874251 122.268503,187.874251 L128.642156,164.42994 Z" id="Fill-18" fill="#FFFFFF"></path>
                    <path d="M132.859401,177.152096 C129.692934,177.633533 127.168383,176.239521 124.468982,175.044311 C125.774371,168.091018 130.107305,152.840719 134.540838,146.912575 C138.203114,142.014371 140.478563,139.590419 141.072575,146.11976 C141.352814,149.226347 139.077365,158.51018 137.556407,163.897006 C136.167186,168.807186 135.221078,174.107784 132.859401,177.152096" id="Fill-20" fill="#975140"></path>
                    <path d="M172.290299,92.0495808 C173.26515,91.4843114 174.266347,91.0292216 175.286707,90.6531737 C175.650778,91.6735329 176.101078,92.679521 176.666347,93.651976 C181.198084,101.431617 190.702275,104.533413 199.025629,101.448383 C201.95497,109.618443 198.637605,119.048383 190.711856,123.663952 C181.796886,128.859162 170.443593,125.994491 165.356168,117.263952 C160.268743,108.535808 163.375329,97.2447904 172.290299,92.0495808" id="Fill-22" fill="#282723"></path>
                    <path d="M184.405509,115.040479 C184.405509,115.040479 180.702515,128.463234 173.732455,131.651257 C166.762395,134.846467 162.942036,134.003353 161.289341,131.289581 C159.636647,128.580599 158.156407,122.889581 159.524072,121.081198 C160.891737,119.270419 162.225868,117.466826 163.126467,114.441677 C163.859401,111.979401 162.659401,107.998563 161.171976,105.033293 C159.684551,102.07521 157.133653,102.381796 159.337246,100.400958 C161.543234,98.4177246 160.192335,97.1698204 162.788743,97.0644311 C165.38515,96.9614371 166.654611,95.7207186 167.152814,98.1231138 C168.062994,102.513533 168.987545,108.750659 172.022275,111.069222 C175.38994,113.641677 178.24982,114.039281 184.405509,115.040479" id="Fill-24" fill="#FFFFFF"></path>
                    <path d="M161.405509,135.729581 C161.235449,129.842156 157.403114,126.043353 159.623473,120.440958 C160.10491,119.231377 161.13006,119.013413 161.288144,117.94515 C164.96479,131.171497 179.302515,120.711617 177.350419,115.276886 C180.624671,117.518802 188.488144,118.649341 188.629461,119.20503 C190.126467,125.300838 191.110898,131.514012 192.557605,137.624192 C193.187545,140.225389 192.406707,142.927186 191.218683,144.972695 C191.441437,145.415808 191.630659,145.899641 191.76,146.433772 L192.689341,149.353533 C193.280958,151.799042 199.542036,159.243353 198.035449,159.679281 L176.988743,163.185868 C175.771976,162.215808 174.315689,160.170299 171.942036,156.40982 C170.507305,154.136766 166.016287,147.43976 166.016287,147.43976 C165.965988,147.226587 165.937246,147.018204 165.903713,146.807425 C163.824671,145.020599 161.47497,138.704431 161.405509,135.729581" id="Fill-26" fill="#DBDAC6"></path>
                    <path d="M174.892695,112.598323 C174.892695,112.598323 183.575329,109.87976 186.708263,113.436647 C190.859162,118.152814 191.292695,124.025868 191.539401,127.954012 C191.826826,132.519281 193.292695,138.205509 193.496287,144.131257 C193.745389,151.328862 200.787305,156.258204 199.371737,155.383952 C199.084311,155.209102 190.583713,157.039042 185.659162,155.968383 C180.727425,154.892934 181.728623,146.550419 181.532216,143.942036 C181.086707,138.04982 173.692695,127.862994 173.52982,123.108503 C173.357365,118.059401 174.892695,112.598323 174.892695,112.598323" id="Fill-28" fill="#AD5C49"></path>
                    <path d="M157.333174,127.791856 C157.199042,125.995449 157.757126,123.875689 158.614611,121.252934 C159.316407,119.109222 163.172695,115.765509 162.506826,116.151138 C162.413413,116.208623 158.207425,119.736766 163.40982,135.607425 C164.300838,138.318802 168.106826,144.23976 170.32,148.206228 C172.535569,152.177485 175.867305,159.770299 175.867305,159.770299 C175.867305,159.770299 171.658922,162.103234 171.658922,162.838563 C171.661317,163.578683 171.043353,156.769102 167.725988,151.224192 C159.759521,137.897246 157.922395,135.751138 157.333174,127.791856" id="Fill-30" fill="#AD5C49"></path>
                    <path d="M156.246707,1.49125749 L154.838323,10.6553293 L171.056287,13.1559281 L172.469461,3.99185629 C172.615569,3.02419162 171.937725,2.12359281 170.960479,1.97508982 L158.294611,0.022994012 C157.312575,-0.132694611 156.39521,0.523592814 156.246707,1.49125749" id="Fill-32" fill="#FF876C"></path>
                    <path d="M158.43018,2.00479042 L157.045749,10.994012 L163.931976,12.0550898 L165.318802,3.06586826 C165.393054,2.58922156 165.062515,2.14371257 164.573892,2.07185629 L159.436168,1.27664671 C158.952335,1.20958084 158.502036,1.52814371 158.43018,2.00479042" id="Fill-34" fill="#FFA38F"></path>
                    <path d="M167.267305,12.5702994 L171.056527,13.1547305 L172.469701,3.99065868 C172.615808,3.02538922 171.937964,2.12479042 170.960719,1.97389222 L168.948743,1.66251497 L167.267305,12.5702994 Z" id="Fill-36" fill="#E36E54"></path>
                    <path d="M149.845749,41.6215569 L110.09006,299.26236 C112.128383,299.274251 113.917605,298.014371 114.458922,296.162874 L153.644551,42.2083832 L149.845749,41.6215569 Z" id="Fill-38" fill="#C9C8B6"></path>
                    <path d="M162.681437,43.5968862 L153.644311,42.2076647 L114.458683,296.162156 C114.453892,296.174132 114.461078,296.193293 114.461078,296.21006 C114.461078,296.193293 114.475449,296.174132 114.473054,296.162156 C114.417964,298.308263 116.08024,300.234012 118.398802,300.598084 C120.71497,300.95497 122.875449,299.613653 123.474251,297.551377 C123.474251,297.560958 123.471856,297.587305 123.479042,297.592096 C123.479042,297.589701 123.488623,297.568144 123.493413,297.556168 L162.681437,43.5968862 Z" id="Fill-40" fill="#DBDAC6"></path>
                    <path d="M123.492695,297.555928 C123.454371,299.484072 124.778922,301.227784 126.716647,301.824192 L166.477126,44.1858683 L162.680719,43.5966467 L123.492695,297.555928 Z" id="Fill-42" fill="#C9C8B6"></path>
                    <path d="M126.72982,301.824671 C124.782515,301.230659 123.453174,299.482156 123.491497,297.556407 C123.486707,297.568383 123.479521,297.587545 123.479521,297.592335 C123.472335,297.58515 123.474731,297.561198 123.474731,297.551617 C122.875928,299.613892 120.715449,300.95521 118.399281,300.598323 C116.080719,300.234251 114.416048,298.308503 114.473533,296.162395 C114.473533,296.174371 114.459162,296.193533 114.459162,296.210299 C114.459162,296.193533 114.454371,296.174371 114.456766,296.162395 C113.913054,298.016287 112.121437,299.280958 110.083114,299.264192 L113.146587,334.682156 L126.72982,301.824671 Z" id="Fill-44" fill="#FFFFFF"></path>
                    <path d="M126.72982,301.824671 C124.782515,301.230659 123.453174,299.482156 123.491497,297.556407 C123.486707,297.568383 123.479521,297.587545 123.479521,297.592335 C123.472335,297.58515 123.474731,297.561198 123.474731,297.551617 C122.875928,299.613892 113.146587,334.682156 113.146587,334.682156 L126.72982,301.824671 Z" id="Fill-46" fill="#D1DBEA"></path>
                    <polygon id="Fill-48" fill="#F0CA67" points="149.926467 41.6380838 166.379162 44.1698204 171.207904 12.8452695 154.750419 10.3111377"></polygon>
                    <polygon id="Fill-50" fill="#F4DA80" points="155.383473 42.4788024 158.741557 42.9937725 163.570299 11.6764072 160.207425 11.1542515"></polygon>
                    <path d="M117.242635,324.78491 C116.485749,324.545389 115.714491,324.353772 114.907305,324.226826 C114.006707,324.090299 113.113293,324.04479 112.227066,324.051976 L113.146826,334.681916 L117.242635,324.78491 Z" id="Fill-52" fill="#C9C8B6"></path>
                    <polygon id="Fill-54" fill="#F4DA80" points="152.611737 34.0747305 151.924311 38.5873054 150.863234 38.4244311 151.555449 33.9118563"></polygon>
                    <polygon id="Fill-56" fill="#F4DA80" points="155.03497 34.4500599 154.340359 38.9626347 153.281677 38.7997605 153.976287 34.2871856"></polygon>
                    <polygon id="Fill-58" fill="#F0CA67" points="157.453653 34.8220359 156.761437 39.3322156 155.697964 39.1669461 156.39018 34.6543713"></polygon>
                    <polygon id="Fill-60" fill="#F0CA67" points="159.873293 35.1925749 159.178683 39.7051497 158.117605 39.5422754 158.812216 35.0297006"></polygon>
                    <polygon id="Fill-62" fill="#F4DA80" points="162.289581 35.5681437 161.592575 40.0783234 160.536287 39.9106587 161.233293 35.4052695"></polygon>
                    <polygon id="Fill-64" fill="#F4DA80" points="164.710659 35.9434731 164.013653 40.4512575 162.95497 40.285988 163.651976 35.7758084"></polygon>
                    <polygon id="Fill-66" fill="#F4DA80" points="167.128144 36.3097006 166.433533 40.8222754 165.377246 40.657006 166.071856 36.1468263"></polygon>
                    <polygon id="Fill-68" fill="#F4DA80" points="155.574132 14.8766467 154.879521 19.3892216 153.823234 19.2215569 154.517844 14.7113772"></polygon>
                    <polygon id="Fill-70" fill="#F4DA80" points="157.994012 15.2474251 157.297006 19.7552096 156.238323 19.5947305 156.935329 15.0845509"></polygon>
                    <polygon id="Fill-72" fill="#F0CA67" points="160.418443 15.6227545 159.719042 20.1329341 158.660359 19.9676647 159.352575 15.457485"></polygon>
                    <polygon id="Fill-74" fill="#F0CA67" points="162.832335 15.9911377 162.135329 20.4989222 161.076647 20.3408383 161.771257 15.8282635"></polygon>
                    <polygon id="Fill-76" fill="#F4DA80" points="165.251018 16.3667066 164.554012 20.874491 163.497725 20.714012 164.192335 16.1990419"></polygon>
                    <polygon id="Fill-78" fill="#F4DA80" points="167.670659 16.7350898 166.973653 21.2476647 165.91497 21.0847904 166.607186 16.5746108"></polygon>
                    <polygon id="Fill-80" fill="#F4DA80" points="170.088144 17.1104192 169.391138 21.622994 168.33485 21.4577246 169.029461 16.9475449"></polygon>
                    <path d="M188.942275,115.487186 C188.350659,113.729102 186.915928,112.45006 184.089581,111.856048 C176.614132,110.28 174.566228,137.285988 174.566228,137.285988 C174.566228,137.285988 175.902754,149.815329 177.852455,148.775808 C185.22012,144.852455 184.580599,143.832096 188.175808,130.330299 C189.708743,124.56982 189.938683,118.464431 188.942275,115.487186" id="Fill-82" fill="#975140"></path>
                    <path d="M156.561198,133.423234 C156.561198,133.423234 150.422275,128.577725 149.979162,127.964551 C149.536048,127.351377 149.698922,126.805269 149.325269,125.181317 C148.961198,123.55497 148.81988,123.272335 148.453413,122.01006 C148.089341,120.738204 148.012695,120.604072 148.012695,120.604072 C148.012695,120.604072 147.33485,120.903473 147.356407,121.43521 C147.377964,121.907066 147.691737,122.977725 147.694132,123.38012 C147.694132,123.78491 147.416287,122.486707 146.482156,120.762156 C145.55521,119.03521 144.41509,117.456766 143.883353,116.807665 C143.545629,116.395689 143.490539,116.347784 143.466587,116.357365 C143.246228,116.455569 143.052216,116.560958 143.107305,116.793293 C143.15521,116.996886 143.507305,117.660359 143.457006,117.634012 C143.265389,117.528623 142.443832,116.620838 142.316886,116.457964 C142.18515,116.283114 142.010299,116.043593 141.883353,115.907066 C141.61988,115.624431 141.291737,115.957365 141.377964,116.599281 C141.382754,116.608862 141.157605,116.855569 141.176766,117.054371 C141.181557,117.15497 141.186347,117.226826 141.198323,117.334611 C141.217485,117.44479 141.267784,117.566946 141.289341,117.677126 C141.370778,118.103473 141.488144,118.513054 141.624671,118.898683 C141.686946,119.051976 142.376766,120.342994 142.290539,120.378922 C142.280958,120.386108 141.591138,119.432814 141.519281,119.490299 C141.358802,119.61006 141.224671,119.907066 141.322874,120.089102 C141.502515,120.41485 141.763593,120.908263 142.558802,122.232814 C143.428263,123.693892 143.727665,123.945389 144.36,126.036407 C144.908503,127.859162 145.44024,128.285509 146.657006,129.059162 C150.843832,131.696287 156.975569,138.151377 158.192335,138.941796 C159.404311,139.737006 156.561198,133.423234 156.561198,133.423234" id="Fill-84" fill="#FFFFFF"></path>
                    <path d="M151.194251,135.993772 C152.327186,132.997365 154.195449,132.515928 156.564311,130.750659 C161.984671,135.299162 170.243353,135.656048 177.467305,138.417725 C180.044551,139.402156 184.854132,142.432096 183.378683,144.547066 C181.591856,147.107545 176.892455,151.10994 169.943952,147.778204 C165.728383,145.759042 151.838563,136.242874 151.194251,135.993772" id="Fill-86" fill="#975140"></path>
                    <path d="M164.454371,97.4728144 C169.077126,96.5123353 171.893892,103.700359 175.577725,100.572216 C176.291497,98.2440719 176.459162,95.6811976 175.922635,93.0847904 C174.308263,85.3171257 167.103473,80.2512575 159.829222,81.7578443 C152.55497,83.2692216 147.963353,90.7877844 149.577725,98.5554491 C150.38012,102.423713 152.569341,105.621317 155.46515,107.669222 C164.504671,116.301557 158.89509,98.6273054 164.454371,97.4728144" id="Fill-88" fill="#282723"></path>
                    <path d="M156.07018,88.4871856 C156.271377,88.3841916 156.47976,88.2883832 156.690539,88.1997605 C157.682156,90.6931737 160.374371,93.3231138 164.058204,95.0668263 C164.951617,95.4883832 165.84982,95.8237126 166.731257,96.0967665 L167.234251,98.5183234 C167.979162,102.111138 165.543234,105.653653 161.78994,106.432096 C158.039042,107.212934 154.388743,104.930299 153.643832,101.342275 L152.510898,95.874012 C154.118084,94.2452695 155.435449,91.6177246 156.07018,88.4871856" id="Fill-90" fill="#FFFFFF"></path>
                    <path d="M182.546108,330.875928 C182.546108,330.875928 183.928144,330.231617 187.77485,329.390898 C190.023952,328.89509 191.741317,328.856766 192.529341,327.987305 C193.827545,326.545389 193.331737,321.623234 193.635928,321.671138 C196.874251,322.224431 197.88503,332.284311 196.356886,332.389701 C194.270659,332.528623 183.925749,332.437605 183.056287,332.396886 C182.189222,332.356168 182.273054,330.684311 182.546108,330.875928" id="Fill-92" fill="#FFFFFF"></path>
                    <path d="M190.502275,245.137246 C191.663952,246.342036 195.98012,249.575569 197.139401,253.611497 C199.429222,261.520479 200.166946,265.642635 199.764551,273.951617 C199.12982,287.127665 197.69509,308.183952 196.971737,317.053413 C196.317844,325.051018 198.111856,334.864192 192.360958,332.703713 C195.084311,321.98994 192.274731,304.974371 191.067545,295.898922 C182.832814,233.932455 188.432814,242.988743 190.502275,245.137246" id="Fill-94" fill="#FFFFFF"></path>
                    <path d="M184.727186,330.132216 C184.20024,332.671138 191.903234,331.428024 193.886467,330.711856 C195.778683,330.034012 196.995449,329.794491 196.995449,329.794491 C197.074491,329.792096 197.151138,329.782515 197.23018,329.775329 C197.23976,329.83521 197.261317,329.897485 197.263713,329.962156 C197.302036,331.341796 197.967904,333.164551 195.757126,333.226826 L181.891257,333.631617 C170.557126,333.962156 184.736766,330.074731 184.727186,330.132216" id="Fill-96" fill="#AD5C49"></path>
                    <path d="M184.858204,160.923593 C187.442635,159.996647 187.698922,162.303234 190.101317,167.905629 C194.81509,178.887665 198.379162,195.445749 198.621078,213.395449 C198.901317,234.425389 197.514491,255.663713 194.201916,267.498443 C189.940838,259.531976 186.443832,252.308024 182.886946,234.202635 C175.011497,194.106826 176.910898,163.766707 184.858204,160.923593" id="Fill-98" fill="#FFFFFF"></path>
                    <path d="M184.241916,163.938683 C186.608383,163.217725 186.766467,165.150659 188.768862,169.888383 C192.687425,179.177006 195.394012,193.10515 195.053892,208.13509 C194.653892,225.742275 192.529341,245.387784 187.892216,245.967425 C186.112575,246.19018 184.244311,233.208144 182.605988,222.331497 C177.504192,188.496766 176.965269,166.156647 184.241916,163.938683" id="Fill-100" fill="#FFFFFF"></path>
                    <path d="M220.027305,331.83018 C220.027305,331.83018 221.521916,331.272096 224.915928,330.182275 C227.291976,329.415808 228.470419,328.943952 228.954251,327.918802 C229.747066,326.222994 228.920719,321.619401 229.567425,321.559521 C232.719521,321.243353 234.362635,329.509222 233.720719,330.900838 C232.877605,332.730778 222.678802,334.381078 221.033293,333.696048 C220.259641,333.37509 219.723114,331.731976 220.027305,331.83018" id="Fill-102" fill="#FFFFFF"></path>
                    <path d="M210.267545,249.031856 C211.683114,248.248623 209.692695,242.33485 212.811257,246.078563 C217.893892,252.171976 222.981317,266.569581 224.32024,274.483353 C226.44479,287.029461 230.066347,306.936048 231.216048,315.439042 C232.250778,323.103713 235.968144,331.977964 230.102275,331.13006 C229.450778,320.27018 224.66515,304.890539 221.287904,296.727665 C209.738204,268.866587 205.922635,251.431856 210.267545,249.031856" id="Fill-104" fill="#FFFFFF"></path>
                    <path d="M220.035449,331.806946 C223.379162,334.748263 229.118084,331.917126 230.971976,330.987784 C234.152814,329.39018 233.858204,328.348263 233.87497,328.405749 C234.303713,329.668024 234.967186,331.512335 233.158802,332.645269 C231.518084,333.668024 229.604311,333.775808 227.501317,334.262036 C225.621078,334.695569 214.569581,336.685988 214.083353,335.311138 C213.400719,333.375808 219.992335,331.768623 220.035449,331.806946" id="Fill-106" fill="#AD5C49"></path>
                    <path d="M197.42012,166.242635 C199.887186,165.272575 200.200958,167.485749 202.68479,172.812695 C207.559042,183.258204 211.491976,199.10491 212.265629,216.403114 C213.171018,236.661796 211.82491,254.592335 208.988982,266.101317 C204.641677,258.546826 201.700359,254.271377 197.726707,236.93006 C188.929102,198.520479 189.846467,169.21988 197.42012,166.242635" id="Fill-108" fill="#FFFFFF"></path>
                    <path d="M206.608144,240.529341 C207.887186,239.633533 210.715928,242.823952 212.895569,245.997605 C217.159042,252.222754 219.307545,260.251497 222.188982,271.350898 C225.563832,284.354491 227.317126,296.091018 227.314733,303.844311 C223.913533,298.366467 220.876407,291.159281 216.852455,283.784431 C192.548263,239.216766 202.687186,243.274251 206.608144,240.529341" id="Fill-110" fill="#FFFFFF"></path>
                    <path d="M196.593293,163.838084 C199.057964,163.002156 199.287904,165.028503 201.546587,169.941078 C205.972934,179.577006 209.273533,194.127904 209.41006,209.938683 C209.537006,224.721916 208.303473,238.118323 206.166946,248.240479 C205.625629,250.800958 202.849581,251.114731 202.169341,248.894371 C200.016048,241.890778 198.375329,233.90515 196.792096,225.270419 C190.322635,189.876407 189.017246,166.410539 196.593293,163.838084" id="Fill-112" fill="#FFFFFF"></path>
                    <path d="M182.875928,239.125749 C182.310659,237.985629 181.855569,236.862275 181.539401,235.827545 C178.804072,224.091018 172.78491,213.216766 175.18012,170.785629 C175.256766,168.524551 175.948982,164.898204 176.404072,162.924551 C181.819641,158.488623 191.702275,161.525749 197.668743,157.794012 C200.49509,159.295808 203.077126,160.716168 206.581317,164.268263 C227.311856,185.286228 226.032814,221.101796 230.212455,233.576048 C215.867545,238.864671 199.673533,241.384431 182.875928,239.125749" id="Fill-114" fill="#AD5C49"></path>
                    <path d="M176.153293,163.15497 C176.203593,163.344192 177.453892,163.226826 178.953293,162.893892 L195.894611,159.128623 C197.391617,158.795689 198.562874,158.374132 198.51497,158.182515 L198.328144,157.466347 C198.282635,157.277126 197.027545,157.394491 195.528144,157.72503 L178.591617,161.490299 C177.094611,161.823234 175.920958,162.247186 175.968862,162.436407 L176.153293,163.15497 Z" id="Fill-116" fill="#15100C"></path>
                    <path d="M125.967425,189.357365 C126.779401,190.43521 126.623713,192.983713 127.311138,193.474731 C129.301557,194.892695 130.805749,195.053174 130.784192,195.074731 C128.729102,197.036407 125.656048,194.425629 123.917126,194.38012 C122.180599,194.327425 123.862036,186.571737 125.967425,189.357365" id="Fill-118" fill="#FFFFFF"></path>
                </g>
            </g>
        </g>
    </g>
</svg>