<?xml version="1.0" encoding="UTF-8"?>
<svg width="204px" height="143px" viewBox="0 0 204 143" version="1.1" xmlns="http://www.w3.org/2000/svg" xmlns:xlink="http://www.w3.org/1999/xlink">
    <!-- Generator: Sketch 48 (47235) - http://www.bohemiancoding.com/sketch -->
    <title>Page 1</title>
    <desc>Created with Sketch.</desc>
    <defs>
        <polygon id="path-1" points="0 143 203.065 143 203.065 0.312 0 0.312"></polygon>
    </defs>
    <g id="Page-1" stroke="none" stroke-width="1" fill="none" fill-rule="evenodd">
        <g transform="translate(0.000000, -1.000000)">
            <polygon id="Fill-1" fill="#CDD5D7" points="139.451 121.8051 34.422 132.5401 27.33 63.1351 132.358 52.4001"></polygon>
            <polygon id="Fill-2" fill="#01BACC" points="38.8318 127.1234 32.7458 67.5454 127.9458 57.8154 134.0358 117.3944"></polygon>
            <polygon id="Fill-3" fill="#E5E8EC" points="31.836 129.824 137.413 129.824 137.413 60.056 31.836 60.056"></polygon>
            <polygon id="Fill-4" fill="#01C6DA" points="36.775 124.883 132.472 124.883 132.472 64.995 36.775 64.995"></polygon>
            <g id="Group-100" transform="translate(0.000000, 0.688000)">
                <path d="M119.5086,80.3602 C119.5086,84.4522 116.1926,87.7682 112.1006,87.7682 C108.0066,87.7682 104.6896,84.4522 104.6896,80.3602 C104.6896,76.2682 108.0066,72.9512 112.1006,72.9512 C116.1926,72.9512 119.5086,76.2682 119.5086,80.3602" id="Fill-5" fill="#F4DA80"></path>
                <polygon id="Fill-7" fill="#7AC286" points="78.7098 81.5448 91.6688 98.7968 104.6258 116.0498 78.7098 116.0498 52.7968 116.0498 65.7518 98.7968"></polygon>
                <mask id="mask-2" fill="white">
                    <use xlink:href="#path-1"></use>
                </mask>
                <g id="Clip-10"></g>
                <polygon id="Fill-9" fill="#82CF8F" mask="url(#mask-2)" points="36.775 124.195 132.472 124.195 132.472 102.587 36.775 102.587"></polygon>
                <polygon id="Fill-11" fill="#82CF8F" mask="url(#mask-2)" points="52.7967 74.1444 68.8157 95.4764 84.8377 116.8064 52.7967 116.8064 36.7757 116.8064 36.7757 95.4764"></polygon>
                <path d="M68.5594,12.0399 C68.5594,14.9389 70.9104,17.2879 73.8094,17.2879 L75.1214,14.7949 C78.0194,14.7949 80.3694,10.4269 80.3694,7.5289 L80.3694,5.5599 C80.3694,2.6619 78.0194,0.3119 75.1214,0.3119 L73.8094,0.3119 C70.9104,0.3119 68.5594,2.6619 68.5594,5.5599 L68.5594,12.0399 Z" id="Fill-12" fill="#AD5C49" mask="url(#mask-2)"></path>
                <path d="M79.3221,5.4017 C79.6861,5.3477 80.0491,5.3267 80.4081,5.3177 C80.3991,5.7687 80.4171,6.2217 80.4841,6.6827 C81.1191,11.1137 85.0411,14.2767 89.4991,14.1697 C89.4291,18.4127 86.2301,22.1147 81.8081,22.7457 C76.9181,23.4477 72.3951,20.1337 71.7081,15.3457 C71.0211,10.5547 74.4301,6.1027 79.3221,5.4017" id="Fill-13" fill="#AD5C49" mask="url(#mask-2)"></path>
                <path d="M70.658,2.3051 C70.664,2.7861 70.704,3.2821 70.784,3.7821 C71.313,7.1541 73.363,9.7131 75.6,10.0281 C75.671,11.5551 76.21,12.8791 76.345,14.0941 C76.636,16.7411 79.567,17.0221 79.567,17.0221 C79.946,19.3761 70.688,22.6361 70.877,22.2571 C71.067,21.8781 73.042,19.1061 73.688,16.5621 C74.138,14.7891 73.558,13.3271 72.882,12.3181 C71.631,10.8441 69.815,10.8681 69.815,10.8681 C69.64,10.8681 69.484,10.7911 69.372,10.6721 C69.264,10.3261 69.207,9.9571 69.207,9.5761 L69.207,5.2491 C69.207,4.0491 69.778,2.9851 70.658,2.3051" id="Fill-14" fill="#FFFFFF" mask="url(#mask-2)"></path>
                <path d="M64.9608,50.5736 C64.9538,50.5496 64.9458,50.5216 64.9398,50.5006 C64.9558,50.4806 64.9698,50.4616 64.9838,50.4426 C65.7018,46.7306 66.8098,43.1156 68.5008,39.8466 C69.6948,37.5416 72.1028,35.3556 73.1638,34.2516 C75.8998,35.7436 78.6058,35.0516 81.1648,36.9866 C81.4958,38.0366 81.7648,39.1856 81.9588,40.4306 C82.3488,42.6646 82.6838,44.7426 82.9708,46.6846 C86.9388,47.0586 96.7328,47.8096 100.4178,48.5326 C102.6018,49.0376 102.7288,49.8856 103.0688,50.1606 C102.8758,53.7236 99.9838,55.7376 98.2338,58.5916 C97.9218,59.0976 74.4848,58.6596 70.4588,58.8636 C71.0048,59.1366 62.5438,59.2056 64.9608,50.5736" id="Fill-15" fill="#194866" mask="url(#mask-2)"></path>
                <path d="M101.5594,55.2133 C102.2034,54.4683 102.5604,53.5383 103.0384,52.7103 C103.4134,51.1183 103.4064,50.0473 102.9514,49.6683 C101.2164,48.2383 95.3064,51.2183 80.4424,73.5043 C77.2054,78.3553 70.4994,87.7463 72.5034,86.4713 C75.9264,84.2923 76.7874,81.6203 78.9634,79.3593 C96.7624,60.8793 98.6724,58.5593 101.5594,55.2133" id="Fill-16" fill="#DBE4E9" mask="url(#mask-2)"></path>
                <path d="M71.6824,85.7782 L74.3174,81.5592 C74.5774,81.1432 74.9874,80.9312 75.3814,80.9542 L73.3524,84.2002 C72.9594,84.8302 73.0564,85.6762 73.5694,86.0892 C73.7404,86.2302 73.9394,86.2972 74.1424,86.3082 L73.5364,87.2782 C73.1434,87.9062 72.4104,88.0802 71.8994,87.6672 C71.3864,87.2512 71.2914,86.4062 71.6824,85.7782" id="Fill-17" fill="#163F59" mask="url(#mask-2)"></path>
                <path d="M71.1756,30.6713 L67.0856,23.4163 C65.5696,21.2603 66.3286,18.4883 68.7676,17.8733 L81.5656,14.8963 C83.1016,14.6433 85.6656,16.7613 85.2156,19.4123 L82.6006,28.1233 L71.1756,30.6713 Z" id="Fill-18" fill="#FFFFFF" mask="url(#mask-2)"></path>
                <path d="M83.5975,16.4242 C81.8915,24.3442 86.1555,38.4462 86.1555,38.4462 C86.1555,38.4462 88.6065,38.9482 89.0715,37.6112 C89.6625,35.9162 88.1395,31.8652 87.1885,20.8332 C86.5965,14.0022 83.8845,15.1022 83.5975,16.4242" id="Fill-19" fill="#163F59" mask="url(#mask-2)"></path>
                <path d="M66.3006,19.6683 C65.2066,29.3293 62.5396,41.7423 62.5396,41.7423 C62.5396,41.7423 65.1936,43.8843 66.0476,42.6863 C67.1336,41.1673 68.1446,35.5493 69.3246,24.8763 C70.0566,18.2673 66.4546,18.3063 66.3006,19.6683" id="Fill-20" fill="#163F59" mask="url(#mask-2)"></path>
                <path d="M81.618,33.4515 C81.639,34.4475 80.92,36.7085 80.162,36.7215 L72.582,36.1305 C71.827,36.1435 69.96,35.4935 69.938,34.4945 L69.878,31.1435 C69.858,30.1475 70.455,29.3275 71.21,29.3125 L80.61,26.6835 C81.367,26.6695 81.998,27.4645 82.018,28.4615 L81.618,33.4515 Z" id="Fill-21" fill="#DBDAC6" mask="url(#mask-2)"></path>
                <path d="M81.0301,36.8402 C81.0231,36.9492 80.4971,37.0062 79.8541,36.9662 L72.5741,36.5122 C71.9311,36.4732 71.4151,36.3512 71.4231,36.2412 L71.4461,35.8262 C71.4541,35.7172 71.9801,35.6622 72.6241,35.7002 L79.9011,36.1542 C80.5471,36.1942 81.0611,36.3162 81.0541,36.4252 L81.0301,36.8402 Z" id="Fill-22" fill="#15100C" mask="url(#mask-2)"></path>
                <path d="M83.6092,18.6005 C83.4662,18.1185 83.2672,17.6815 83.0422,17.3065 C76.4722,22.3625 71.6102,20.5145 68.1312,19.8355 C68.1062,20.0405 68.0902,20.2525 68.0852,20.4715 C68.0512,22.8575 68.3132,25.2375 68.3062,27.6225 C68.2892,29.5205 71.0212,31.0755 72.3042,31.0765 C77.0852,31.0985 78.1592,30.7715 82.7052,29.3525 C83.9212,28.9715 86.1302,26.8755 85.5862,25.1515 C84.9132,22.9745 84.2552,20.7895 83.6092,18.6005" id="Fill-23" fill="#DBDAC6" mask="url(#mask-2)"></path>
                <path d="M71.619,17.2206 C71.619,17.2206 67.122,17.2616 66.34,19.6866 C65.557,22.1146 67.315,25.5146 67.315,25.5146 C67.315,25.5146 68.758,29.9006 69.2,32.2936 C69.643,34.6856 68.201,37.0276 68.656,36.5406 C68.748,36.4406 69.884,36.5056 71.649,35.5926 C73.417,34.6786 72.293,31.4376 72.073,30.3866 C71.856,29.3336 70.77,24.1686 70.935,23.3006 C71.1,22.4286 71.619,17.2206 71.619,17.2206" id="Fill-24" fill="#194866" mask="url(#mask-2)"></path>
                <path d="M86.1678,18.1683 C86.1678,18.1683 86.5238,16.1553 85.5518,15.3973 C84.1238,14.2813 80.8008,14.5643 79.7338,14.8833 C78.6668,15.1993 77.9498,15.5323 77.9498,15.5323 C77.9498,15.5323 81.7718,16.7253 81.9058,23.5763 C81.9298,24.7453 81.6808,27.1423 81.3038,28.9793 C80.9238,30.8173 80.9128,34.3763 80.9128,34.3763 C80.9128,34.3763 83.1798,34.6993 83.2928,34.9833 C83.4108,35.2693 83.4508,32.8643 84.8918,30.5163 C86.3318,28.1673 86.1678,18.1683 86.1678,18.1683" id="Fill-25" fill="#194866" mask="url(#mask-2)"></path>
                <path d="M81.6727,14.64 C83.5727,16.099 84.7377,17.366 84.7697,25.335 C84.7737,26.626 84.4267,28.994 84.2587,31.208 C84.3597,30.977 85.0777,29.813 85.2027,29.58 C86.4587,27.236 86.1787,18.168 86.1787,18.168 C86.1787,18.168 86.3397,16.359 85.4837,15.597 C84.5737,14.786 82.9407,14.504 81.6727,14.64" id="Fill-26" fill="#163F59" mask="url(#mask-2)"></path>
                <path d="M97.4305,56.8612 C97.9435,56.0512 98.1005,55.0782 98.4155,54.1992 C98.4895,52.5932 98.2115,51.6602 97.7715,51.2602 C95.7765,49.4472 91.3855,52.8082 84.2775,67.4282 C80.6955,74.7992 77.8295,81.6572 72.9865,85.6022 C72.2805,86.1782 72.0945,86.2572 71.8655,86.9252 C71.1605,89.0002 71.4755,91.5862 71.5605,91.5062 C72.6335,90.5232 74.5905,87.2442 77.1725,84.0432 C82.7515,77.1262 90.9585,67.0942 97.4305,56.8612" id="Fill-27" fill="#FFFFFF" mask="url(#mask-2)"></path>
                <path d="M70.1717,89.9779 L72.4567,85.5599 C72.6827,85.1239 73.0727,84.8799 73.4687,84.8689 L71.7087,88.2729 C71.3677,88.9289 71.5337,89.7649 72.0777,90.1369 C72.2607,90.2619 72.4637,90.3139 72.6647,90.3079 L72.1427,91.3239 C71.8007,91.9819 71.0837,92.2139 70.5397,91.8429 C69.9957,91.4709 69.8317,90.6369 70.1717,89.9779" id="Fill-28" fill="#194866" mask="url(#mask-2)"></path>
                <path d="M51.9139,57.1478 C51.9139,57.1478 51.1339,57.9108 51.0349,58.4478 C50.9669,58.8238 50.9349,60.6378 50.9349,60.6378 C50.9349,60.6378 51.3759,60.1288 51.3919,59.3988 C51.4119,58.3328 51.9139,57.1478 51.9139,57.1478" id="Fill-29" fill="#E2C59C" mask="url(#mask-2)"></path>
                <path d="M51.4871,58.3138 C50.9521,58.7418 50.7641,59.5128 50.7621,60.4708 C50.7581,61.3808 50.2881,61.7328 50.2881,61.7328 C50.2881,61.7328 50.2261,61.1458 50.3791,59.7318 C50.4211,59.3348 50.4821,58.9338 50.5541,58.5458 C50.7891,57.2628 52.8651,57.2158 51.4871,58.3138" id="Fill-30" fill="#E2C59C" mask="url(#mask-2)"></path>
                <path d="M52.6658,56.3495 C52.7528,56.8215 52.2968,57.6075 52.4378,57.8715 C52.8468,58.6395 53.2988,58.9295 53.2878,58.9335 C52.3238,59.2305 51.7608,57.9115 51.2128,57.6205 C50.6688,57.3285 52.4378,55.1275 52.6658,56.3495" id="Fill-31" fill="#FFFFFF" mask="url(#mask-2)"></path>
                <path d="M56.3865,52.0966 C54.9735,53.2126 53.3295,54.4616 52.8215,55.3766 C52.0965,56.6786 52.2965,57.6696 51.4875,58.3136 C51.3995,58.3856 51.3275,58.4726 51.2485,58.5546 C51.0375,58.7726 50.7625,58.9766 50.6855,59.0786 C50.5995,59.1926 50.3965,59.5456 50.4185,59.3726 C50.6405,57.8346 51.0375,56.1386 51.2685,55.8406 C51.7385,55.2286 54.4925,51.9636 55.7655,50.9606 C57.1995,49.8316 58.2915,50.5876 56.3865,52.0966" id="Fill-32" fill="#FFFFFF" mask="url(#mask-2)"></path>
                <path d="M51.4022,58.1908 C51.4022,58.1908 51.1672,57.9018 50.9332,58.0728 C50.5502,58.3518 50.0692,59.1818 49.9112,59.4838 C49.7362,59.8198 49.1692,61.5458 49.1692,61.5458 C49.1692,61.5458 49.7432,61.1908 49.9732,60.4978 C50.3072,59.4838 51.4022,58.1908 51.4022,58.1908" id="Fill-33" fill="#FFFFFF" mask="url(#mask-2)"></path>
                <path d="M57.4783,48.8402 C58.7133,48.7982 61.6603,46.9472 61.9303,47.5382 C59.8733,50.4582 51.7223,55.2882 51.7223,55.2882 L57.4783,48.8402 Z" id="Fill-34" fill="#FFFFFF" mask="url(#mask-2)"></path>
                <path d="M56.782,50.5145 C57.263,50.7375 57.484,51.0775 57.494,51.6765 C59.648,50.0315 65.655,45.4205 66.196,42.3735 C66.358,41.4545 64.584,39.1235 61.802,42.4575 C58.387,46.5495 56.748,48.8935 56.113,50.3315 C56.321,50.3135 56.59,50.4265 56.782,50.5145" id="Fill-35" fill="#163F59" mask="url(#mask-2)"></path>
                <path d="M93.3699,22.1659 C93.3699,22.1659 93.7129,22.3079 93.8379,22.0459 C94.0469,21.6149 94.0759,20.6529 94.0709,20.3109 C94.0669,19.9289 93.7469,18.1319 93.7469,18.1319 C93.7469,18.1319 93.4089,18.7209 93.5359,19.4429 C93.7199,20.4979 93.3699,22.1659 93.3699,22.1659" id="Fill-36" fill="#E2C59C" mask="url(#mask-2)"></path>
                <path d="M93.3895,21.9164 C93.6595,21.2824 93.4585,20.5124 93.0035,19.6594 C92.5715,18.8544 92.8255,18.3194 92.8255,18.3194 C92.8255,18.3194 93.1575,18.8104 93.6965,20.1344 C93.8465,20.5054 93.9905,20.9204 93.9955,21.3164 C94.0135,22.5154 92.6935,23.5444 93.3895,21.9164" id="Fill-37" fill="#E2C59C" mask="url(#mask-2)"></path>
                <path d="M87.1717,36.8422 C86.9997,34.1112 91.5797,26.9062 91.5797,26.9062 C91.5797,26.9062 94.0987,24.7342 89.9607,35.3142 C88.7177,38.4892 87.2147,37.5152 87.1717,36.8422" id="Fill-38" fill="#FFFFFF" mask="url(#mask-2)"></path>
                <path d="M93.3348,21.1654 L93.6388,21.3324 L93.8968,22.4934 C93.8968,22.4934 93.4838,24.5944 93.0428,25.3314 C92.6028,26.0674 92.0528,29.3074 91.8778,29.6734 C91.7038,30.0404 89.8138,30.1244 89.8138,30.1244 C89.8138,30.1244 91.1648,27.0044 91.5938,25.7214 C92.0248,24.4394 92.0068,22.3974 92.1578,21.8884 C92.4148,21.0204 92.4968,20.5654 92.4968,20.5654 C92.4968,20.5654 92.9418,20.7674 92.6178,22.1524 C92.5328,22.5184 92.9868,22.4194 92.9868,22.4194 L93.3348,21.1654 Z" id="Fill-39" fill="#FFFFFF" mask="url(#mask-2)"></path>
                <path d="M93.5027,22.6429 C93.5027,22.6429 93.7757,21.5819 93.5807,21.0669 C93.4437,20.7109 92.5237,19.1339 92.5237,19.1339 C92.5237,19.1339 92.4117,19.8019 92.7777,20.4369 C93.3167,21.3639 93.5027,22.6429 93.5027,22.6429" id="Fill-40" fill="#FFFFFF" mask="url(#mask-2)"></path>
                <path d="M92.9871,22.4198 C92.9871,22.4198 92.6861,22.5068 92.5811,22.4158 C92.5821,22.5188 92.6131,22.6198 92.6271,22.7008 C92.6551,22.8798 92.6231,24.1108 92.6231,24.1108 C92.6231,24.1108 92.8191,23.2278 92.9301,22.9818 C93.0011,22.8278 93.0661,22.4568 93.1231,22.1468 C93.1321,22.1078 93.1111,22.0428 93.1111,21.9708 L92.9871,22.4198 Z" id="Fill-41" fill="#E2C59C" mask="url(#mask-2)"></path>
                <path d="M92.618,22.1527 C92.834,21.2207 92.705,20.8247 92.597,20.6657 C92.545,20.8837 92.459,21.2377 92.314,21.7287 C92.263,21.9047 92.23,22.2687 92.191,22.7207 C92.184,22.8037 92.514,22.8677 92.678,23.5997 C92.709,23.7327 92.911,22.9167 92.924,22.4277 C92.805,22.4407 92.554,22.4347 92.618,22.1527" id="Fill-42" fill="#E2C59C" mask="url(#mask-2)"></path>
                <path d="M90.6414,33.3041 C90.6474,32.9241 88.5734,32.4261 88.2164,33.0451 L87.8864,33.4881 C87.8864,33.4881 85.2134,37.4061 87.3634,38.5911 C87.3634,38.5911 89.8644,38.8481 90.6414,33.3041" id="Fill-43" fill="#163F59" mask="url(#mask-2)"></path>
                <polygon id="Fill-44" fill="#CDD5D7" mask="url(#mask-2)" points="77.1 48.62 99.455 48.62 99.455 48.16 77.1 48.16"></polygon>
                <path d="M86.9676,48.1327 C86.9676,48.4887 87.2206,48.7787 87.5316,48.7787 L98.9966,48.7787 C99.3086,48.7787 99.7336,48.5507 100.1136,47.6467 L105.7806,37.2987 C105.7806,36.8487 105.4316,36.5777 105.1196,36.6497 L93.3576,37.0047 C93.0456,37.0777 92.7896,37.3157 92.6136,37.7877 L86.9676,48.1327 Z" id="Fill-45" fill="#CDD5D7" mask="url(#mask-2)"></path>
                <path d="M88.3543,48.6195 L88.2383,48.6195 L77.0453,48.6195 C77.4473,48.8325 78.1173,48.9735 78.8753,48.9735 L88.2383,48.9735 L88.3543,48.9735 L97.7153,48.9735 C98.4763,48.9735 99.1453,48.8325 99.5463,48.6195 L88.3543,48.6195 Z" id="Fill-46" fill="#B7BEC0" mask="url(#mask-2)"></path>
                <path d="M153.7742,88.0018 C155.9382,91.9158 161.3902,93.3018 165.9522,91.0978 C170.5122,88.8918 172.4532,83.9258 170.2882,80.0118 C168.1232,76.0948 162.6692,74.7088 158.1102,76.9148 C153.5482,79.1208 151.6082,84.0848 153.7742,88.0018" id="Fill-47" fill="#163F59" mask="url(#mask-2)"></path>
                <path d="M163.2752,88.7889 C164.5302,91.2029 167.9782,91.8969 170.9782,90.3399 C173.9752,88.7839 175.3902,85.5629 174.1342,83.1469 C172.8812,80.7299 169.4332,80.0369 166.4342,81.5959 C163.4352,83.1539 162.0212,86.3749 163.2752,88.7889" id="Fill-48" fill="#163F59" mask="url(#mask-2)"></path>
                <path d="M159.5799,93.8348 C161.3169,96.9088 165.5589,98.0708 169.0529,96.4308 C172.5469,94.7928 173.9699,90.9728 172.2299,87.8978 C170.4939,84.8208 166.2509,83.6578 162.7599,85.2968 C159.2649,86.9388 157.8429,90.7588 159.5799,93.8348" id="Fill-49" fill="#163F59" mask="url(#mask-2)"></path>
                <path d="M168.6072,88.9208 C169.8612,91.3378 173.3092,92.0318 176.3092,90.4748 C179.3062,88.9158 180.7192,85.6958 179.4672,83.2808 C178.2112,80.8668 174.7642,80.1718 171.7642,81.7288 C168.7672,83.2878 167.3522,86.5088 168.6072,88.9208" id="Fill-50" fill="#163F59" mask="url(#mask-2)"></path>
                <path d="M165.5057,91.8597 L163.2607,121.9187 C163.2607,121.9187 164.3227,124.2327 165.8007,121.3687 C167.2787,118.5027 169.1737,110.4557 170.5007,99.7827 C171.6337,90.6427 168.7457,88.5907 165.5057,91.8597" id="Fill-51" fill="#C9C8B6" mask="url(#mask-2)"></path>
                <path d="M170.6805,121.205 C170.6805,121.205 170.7915,122.612 163.2915,123.435 C155.7875,124.256 144.5835,123.774 144.5835,123.774 L161.7325,120.408 C161.7325,120.408 168.3495,119.405 170.6805,121.205" id="Fill-52" fill="#FFFFFF" mask="url(#mask-2)"></path>
                <path d="M150.5418,123.6307 C146.9858,124.1197 145.6938,125.9477 144.3578,126.6447 C143.0188,127.3407 141.7158,128.3037 141.7218,128.2877 C142.3128,126.7977 143.4568,126.6007 143.9678,126.0727 C144.4768,125.5457 144.3618,125.7917 143.0818,125.8777 C142.3548,125.9297 141.2558,127.2587 140.4378,128.0207 C139.7288,128.6807 139.2398,128.7947 139.2398,128.7947 C139.2398,128.7947 139.9888,127.5037 141.0298,126.4037 C142.2858,125.0787 143.8978,123.8837 144.2928,123.6817 C145.0128,123.3047 147.3788,122.9047 149.1038,122.8747 C151.0478,122.8437 153.1048,123.2767 150.5418,123.6307" id="Fill-53" fill="#FFFFFF" mask="url(#mask-2)"></path>
                <path d="M144.4891,123.7206 C144.4891,123.7206 141.8591,124.7226 141.4291,125.1146 C141.1291,125.3886 139.9321,126.9076 139.9321,126.9076 C139.9321,126.9076 140.9261,126.6156 141.4431,126.0326 C141.9601,125.4496 144.4891,123.7206 144.4891,123.7206" id="Fill-54" fill="#FFFFFF" mask="url(#mask-2)"></path>
                <path d="M153.8504,121.8173 C157.3424,120.7143 162.6724,119.8743 168.9774,119.8193 C170.8514,119.8033 172.4054,120.4303 174.1154,120.5573 C173.4904,121.2153 172.9964,122.0273 171.5894,122.4923 C168.2574,123.5943 162.4064,123.9083 156.3064,123.9613 C155.3294,123.9663 154.3704,123.9543 153.4334,123.9223 C153.4864,123.3253 153.7094,122.4223 153.8504,121.8173" id="Fill-55" fill="#C9C8B6" mask="url(#mask-2)"></path>
                <path d="M163.618,111.6385 L164.171,125.8085 L158.461,125.3925 L157.014,106.1335 C157.014,106.1335 157.973,102.3575 160.55,103.4015 C162.206,104.0715 163.618,111.6385 163.618,111.6385" id="Fill-56" fill="#854638" mask="url(#mask-2)"></path>
                <path d="M165.5096,107.307 L175.6926,122.397 C175.6926,122.397 177.8816,126.682 176.5436,127.616 C174.6136,128.965 168.3396,127.172 167.2676,126.224 C165.1456,124.348 167.3066,125.396 162.2676,116.702 C157.6606,108.756 155.6726,105.529 159.1976,103.261 C162.4846,101.144 165.5096,107.307 165.5096,107.307" id="Fill-57" fill="#854638" mask="url(#mask-2)"></path>
                <path d="M195.3016,131.1786 C195.3016,131.1786 181.3116,131.2926 181.6396,131.3256 C181.9676,131.3616 183.9626,127.8156 183.9626,127.8156 L193.4206,129.4566 L195.3016,131.1786 Z" id="Fill-58" fill="#EDEEF0" mask="url(#mask-2)"></path>
                <polygon id="Fill-59" fill="#EDEEF0" mask="url(#mask-2)" points="191.5027 130.8475 192.6397 128.5155 198.5767 129.9155 201.4057 131.2955 194.5887 131.1545"></polygon>
                <path d="M193.2645,127.121 L194.4065,127.614 L194.5965,128.683 L199.4135,129.71 L203.0655,131.416 C203.0655,131.416 202.9135,131.688 202.7055,131.736 C201.9355,131.925 198.9115,131.329 198.9115,131.329 C198.9115,131.329 199.4385,130.583 199.1445,130.321 C198.8515,130.06 195.1155,129.334 194.2015,129.229 C192.6265,129.05 192.1135,129.3 192.0715,129.186 C191.9595,128.885 193.2645,127.121 193.2645,127.121" id="Fill-60" fill="#161711" mask="url(#mask-2)"></path>
                <path d="M164.2762,125.1786 L185.9542,126.7986 L184.0482,132.0706 L156.6882,130.9626 C156.6882,130.9626 152.9862,128.4906 154.7232,125.8526 C155.7342,124.3216 164.2762,125.1786 164.2762,125.1786" id="Fill-61" fill="#AD5C49" mask="url(#mask-2)"></path>
                <path d="M159.4627,122.954 L179.7677,118.373 C179.7677,118.373 182.5837,117.559 183.3797,119.156 C184.5297,121.46 184.0797,124.692 182.6857,125.531 C179.9267,127.19 181.5697,125.838 169.9387,128.678 C159.3057,131.271 154.9607,132.445 153.0927,128.29 C151.3497,124.414 159.4627,122.954 159.4627,122.954" id="Fill-62" fill="#AD5C49" mask="url(#mask-2)"></path>
                <path d="M172.1854,120.078 C175.7454,118.221 182.2684,127.214 185.5914,123.968 C185.5914,123.968 182.8984,118.745 182.2004,112.155 C181.7794,108.202 182.1884,100.978 181.0134,96.873 C178.1934,87.015 176.3654,88.821 171.8754,89.286 L169.8994,89.276 L168.4934,90.524 L168.3684,89.895 L168.4724,89.44 C165.9314,90.244 166.3504,93.09 166.2254,96.111 C165.8424,105.378 172.1854,120.078 172.1854,120.078" id="Fill-63" fill="#DBDAC6" mask="url(#mask-2)"></path>
                <path d="M176.4901,120.9515 C176.4901,120.9515 175.9571,119.1485 168.2571,121.3175 C164.9691,122.2415 161.3171,123.6375 158.2091,124.9325 C154.0351,126.6705 159.2111,127.0305 159.2111,127.0305 L168.1151,125.7515 C168.1151,125.7515 175.0301,124.1865 176.4901,120.9515" id="Fill-64" fill="#C9C8B6" mask="url(#mask-2)"></path>
                <path d="M178.5018,91.1356 C180.8338,96.7256 176.5248,120.8226 176.5248,120.8226 C176.5248,120.8226 172.1978,125.9386 171.7088,120.9156 C171.4228,117.9746 172.9268,106.6046 173.0378,98.8946 C173.1498,91.1876 177.9238,89.7576 178.5018,91.1356" id="Fill-65" fill="#C9C8B6" mask="url(#mask-2)"></path>
                <path d="M145.2127,130.4423 L146.1137,128.8413 L147.1767,127.7793 L149.4267,126.8383 C149.4267,126.8383 151.9317,126.1403 152.9697,126.2153 C154.0107,126.2903 157.7677,125.3023 158.2637,125.2883 C158.7557,125.2773 159.3007,126.6163 159.3007,126.6163 C159.3007,126.6163 155.8117,127.3363 154.1857,127.5703 C152.5637,127.8053 150.3587,128.9403 149.7257,129.0563 C149.2857,129.1363 148.8707,129.1623 148.5317,129.1653 C148.0337,129.1703 148.1057,128.9743 148.5657,128.8103 C149.0247,128.6453 149.5377,128.4673 149.7597,128.4133 C150.2017,128.3033 149.8467,127.8663 149.8467,127.8663 C149.8467,127.8663 147.5387,128.4643 147.0037,128.8703 C146.4687,129.2793 146.3047,129.5523 146.1377,129.8283 C145.7217,130.5123 145.2127,130.4423 145.2127,130.4423" id="Fill-66" fill="#FFFFFF" mask="url(#mask-2)"></path>
                <path d="M155.702,81.3788 C156.003,81.7938 156.343,82.1998 156.719,82.5888 C159.249,85.1948 162.603,86.1648 164.743,85.0668 C165.741,86.3498 166.85,87.3568 167.887,88.1448 C169.066,89.0468 171.281,89.3128 171.281,89.3128 C173.056,91.1268 168.209,99.0498 168.14,98.6058 C168.072,98.1578 168.088,94.5348 167.089,91.9238 C166.392,90.1058 164.992,89.1898 163.784,88.7268 C161.79,88.2138 160.223,89.3468 160.223,89.3468 C160.072,89.4538 159.889,89.4848 159.72,89.4498 C159.413,89.2148 159.138,88.9288 158.902,88.5958 L156.247,84.8288 C155.511,83.7858 155.354,82.5098 155.702,81.3788" id="Fill-67" fill="#FFFFFF" mask="url(#mask-2)"></path>
                <path d="M158.0984,130.3671 C158.1044,130.3571 158.1094,130.3501 158.1124,130.3421 L158.0984,129.5631 L125.8604,129.5631 L125.8604,130.3421 C125.8604,130.3421 125.8584,130.3571 125.8604,130.3671 L125.9434,130.5121 C126.3594,131.1881 127.1014,131.3081 127.9524,131.3081 L156.0074,131.3081 C156.8584,131.3081 157.6014,131.1881 158.0174,130.5121 L158.0984,130.3671 Z" id="Fill-68" fill="#B6C2C9" mask="url(#mask-2)"></path>
                <path d="M150.3299,130.4989 C150.3299,130.4989 150.3259,130.5119 150.3299,130.5189 L150.4089,130.6369 C150.5359,130.8119 150.6969,130.9389 150.8809,131.0339 L155.7849,131.0339 C156.6019,131.0339 157.3159,130.9359 157.7159,130.3899 L157.7939,130.2719 C157.7989,130.2649 157.8049,130.2589 157.8089,130.2509 L157.8009,129.8679 L150.3299,129.8679 L150.3299,130.4989 Z" id="Fill-69" fill="#D8E5ED" mask="url(#mask-2)"></path>
                <polygon id="Fill-70" fill="#879BA6" mask="url(#mask-2)" points="129.871 130.294 145.979 130.294 145.979 129.744 129.871 129.744"></polygon>
                <path d="M150.1512,129.535 L145.9712,113.692 C145.8612,113.275 145.4342,112.937 145.0152,112.937 L122.3982,112.937 C121.9802,112.937 121.7312,113.275 121.8412,113.692 L126.0212,129.535 L150.1512,129.535 Z" id="Fill-71" fill="#D9E1E4" mask="url(#mask-2)"></path>
                <path d="M137.3602,121.2352 C137.5742,122.0452 137.0912,122.6992 136.2822,122.6992 C135.4732,122.6992 134.6442,122.0452 134.4302,121.2352 C134.2182,120.4262 134.7012,119.7712 135.5102,119.7712 C136.3182,119.7712 137.1472,120.4262 137.3602,121.2352" id="Fill-72" fill="#B6C2C9" mask="url(#mask-2)"></path>
                <path d="M169.5193,78.3153 C169.8173,81.1903 166.3323,83.9093 161.7343,84.3913 C157.1333,84.8703 153.1633,82.9293 152.8623,80.0573 C152.5603,77.1803 156.0463,74.4613 160.6463,73.9793 C165.2453,73.5003 169.2173,75.4393 169.5193,78.3153" id="Fill-73" fill="#194866" mask="url(#mask-2)"></path>
                <path d="M168.8817,76.7279 C166.0407,77.0259 163.9787,79.5959 164.2787,82.4719 C164.3177,82.8379 164.3927,83.1939 164.5007,83.5329 C164.9357,83.3579 165.3977,83.2369 165.8857,83.1849 C168.3627,82.9239 170.6167,84.4829 171.3517,86.7899 C173.4467,85.9459 174.8207,83.7769 174.5717,81.3949 C174.2727,78.5229 171.7237,76.4319 168.8817,76.7279" id="Fill-74" fill="#194866" mask="url(#mask-2)"></path>
                <path d="M177.493,79.9647 C175.751,80.1457 174.126,79.4287 173.055,78.1927 C170.924,79.0177 169.519,81.2057 169.768,83.6107 C170.068,86.4857 172.617,88.5757 175.46,88.2787 C178.303,87.9817 180.363,85.4107 180.063,82.5357 C179.946,81.4207 179.489,80.4247 178.809,79.6397 C178.395,79.8017 177.955,79.9157 177.493,79.9647" id="Fill-75" fill="#194866" mask="url(#mask-2)"></path>
                <path d="M24.1815,96.0316 C23.2855,101.0476 26.7095,105.8566 31.8315,106.7726 C36.9545,107.6886 41.8335,104.3646 42.7315,99.3506 C43.6275,94.3346 40.2025,89.5266 35.0805,88.6096 C29.9585,87.6936 25.0785,91.0166 24.1815,96.0316" id="Fill-76" fill="#194866" mask="url(#mask-2)"></path>
                <path d="M32.5926,88.0858 C31.7616,92.7278 34.9316,97.1798 39.6736,98.0278 C44.4146,98.8768 48.9326,95.7998 49.7626,91.1568 C50.5926,86.5138 47.4216,82.0628 42.6806,81.2138 C37.9396,80.3668 33.4226,83.4428 32.5926,88.0858" id="Fill-77" fill="#194866" mask="url(#mask-2)"></path>
                <path d="M36.7068,81.1053 C35.9148,85.5343 38.6358,89.7263 42.7848,90.4683 C46.9338,91.2093 50.9378,88.2213 51.7308,83.7933 C52.5228,79.3643 49.8018,75.1723 45.6538,74.4303 C41.5048,73.6883 37.4988,76.6773 36.7068,81.1053" id="Fill-78" fill="#194866" mask="url(#mask-2)"></path>
                <path d="M36.5906,91.9525 C35.5806,97.5945 39.4346,103.0035 45.1956,104.0355 C50.9586,105.0655 56.4476,101.3275 57.4566,95.6845 C58.4676,90.0425 54.6126,84.6335 48.8516,83.6025 C43.0886,82.5735 37.6006,86.3105 36.5906,91.9525" id="Fill-79" fill="#163F59" mask="url(#mask-2)"></path>
                <path d="M27.8172,95.2552 C27.1422,99.0272 29.7172,102.6432 33.5702,103.3332 C37.4212,104.0222 41.0922,101.5222 41.7672,97.7502 C42.4422,93.9792 39.8652,90.3632 36.0132,89.6732 C32.1622,88.9842 28.4912,91.4842 27.8172,95.2552" id="Fill-80" fill="#163F59" mask="url(#mask-2)"></path>
                <path d="M33.994,89.1986 C33.32,92.9706 35.895,96.5866 39.747,97.2766 C43.599,97.9646 47.269,95.4656 47.943,91.6946 C48.618,87.9226 46.043,84.3056 42.191,83.6166 C38.339,82.9276 34.669,85.4266 33.994,89.1986" id="Fill-81" fill="#163F59" mask="url(#mask-2)"></path>
                <path d="M42.2518,77.1786 C42.3798,77.1666 42.5098,77.1596 42.6408,77.1586 C42.6378,78.6806 43.4968,80.6336 45.0668,82.3306 C45.4478,82.7406 45.8508,83.1086 46.2578,83.4356 L46.0108,84.8196 C45.6438,86.8666 43.6118,88.2176 41.4718,87.8336 C39.3318,87.4506 37.8928,85.4806 38.2598,83.4326 L38.8168,80.3156 C40.0068,79.7966 41.2578,78.6926 42.2518,77.1786" id="Fill-82" fill="#FFFFFF" mask="url(#mask-2)"></path>
                <path d="M35.5242,93.1688 C35.4222,92.5588 34.8352,91.4948 33.3912,92.0208 C31.8742,92.5728 30.8632,93.9578 30.6672,97.7648 C30.4692,101.5728 29.6812,104.5918 29.0912,106.6918 C28.5012,108.7928 31.1922,112.8638 32.7022,110.3688 C34.2122,107.8748 35.0652,101.6388 35.1962,99.9308 C35.3272,98.2248 35.5892,93.5638 35.5242,93.1688" id="Fill-83" fill="#FFFFFF" mask="url(#mask-2)"></path>
                <path d="M48.9168,87.0643 C48.9168,87.0643 45.5678,99.9973 47.0778,108.0713 C48.1458,113.7793 50.2088,109.9163 51.9028,109.3513 C51.9028,109.3513 51.8048,108.6283 51.8048,105.9713 C51.8048,101.5643 51.9568,97.5173 52.3298,95.0733 C52.9218,91.2003 52.9218,88.7713 52.1338,87.8523 C51.3448,86.9333 50.6878,86.4073 48.9168,87.0643" id="Fill-84" fill="#FFFFFF" mask="url(#mask-2)"></path>
                <path d="M51.2147,107.8085 C51.2147,107.8085 51.3447,106.7595 52.7887,112.7325 C54.2337,118.7055 55.1527,129.0115 56.6627,130.9815 C58.1727,132.9525 58.6967,131.7705 58.4347,132.0325 C57.5027,132.9645 57.1217,133.8705 56.1387,133.6715 C55.1527,133.4755 52.9857,129.5375 50.7547,122.7105 C48.5227,115.8835 47.1437,111.2225 47.5377,109.1215 C47.9317,107.0205 51.0167,107.2835 51.2147,107.8085" id="Fill-85" fill="#FFFFFF" mask="url(#mask-2)"></path>
                <path d="M38.5799,92.12 C38.5799,92.12 43.7269,90.374 44.4379,89.968 C45.1479,89.56 42.5249,89.968 44.7119,85.667 C44.7379,85.615 40.7469,83.313 40.3919,83.245 C40.0369,83.177 39.6809,84.125 39.6809,84.125 C39.6809,84.125 40.5319,88.211 38.5799,92.12" id="Fill-86" fill="#FFFFFF" mask="url(#mask-2)"></path>
                <path d="M54.0369,130.8495 C54.0369,130.8495 55.0209,133.2795 55.6109,133.4755 C56.2029,133.6715 57.7789,133.4755 58.7629,133.1475 C59.7479,132.8205 60.4699,132.3605 60.9949,132.2945 C61.5209,132.2285 64.4749,133.1715 65.3269,133.2125 C66.2249,133.2575 66.4879,133.2575 66.9689,133.0825 C67.4499,132.9085 67.2749,132.5575 67.2749,132.5575 C67.2749,132.5575 66.8589,132.5135 65.5679,132.2515 C63.7509,131.8825 61.2349,130.6345 60.5799,130.2825 C59.4419,129.6685 59.3589,129.5785 58.6969,129.8435 C57.9319,130.1505 56.9229,130.3865 55.9839,130.5875 C54.7589,130.8515 54.0369,130.8495 54.0369,130.8495" id="Fill-87" fill="#FFFFFF" mask="url(#mask-2)"></path>
                <path d="M54.9774,132.6893 C54.9774,132.6893 55.3894,133.8563 57.1224,134.4833 C58.3914,134.9413 58.6054,134.8543 59.2674,134.8333 C59.9234,134.8103 60.1414,134.7463 60.1414,134.7463 C60.1414,134.7463 60.2504,134.1773 59.4424,134.0883 C58.9884,134.0403 58.1284,133.4753 58.5224,133.2123 C58.9164,132.9523 54.9774,132.6893 54.9774,132.6893" id="Fill-88" fill="#FFFFFF" mask="url(#mask-2)"></path>
                <path d="M34.6053,121.0033 C34.6053,121.0033 33.2923,116.0143 33.2263,113.1913 C33.1613,110.3693 33.4893,105.3803 33.4233,105.1823 C33.3593,104.9863 31.5193,103.7383 31.6513,102.4253 C31.7823,101.1123 33.4893,97.6333 33.8173,96.5833 C34.1453,95.5333 34.1453,91.8573 34.1453,91.8573 C34.1453,91.8573 37.1663,92.5783 40.7763,91.2663 C44.3873,89.9523 48.9173,87.0643 48.9173,87.0643 C48.9173,87.0643 51.3443,87.3263 49.5053,98.2893 C47.6683,109.2533 47.1013,109.9033 47.0133,113.1263 C46.8803,117.8523 49.7693,123.1703 50.0323,127.1743 C50.2943,131.1783 35.5243,122.4483 34.6053,121.0033" id="Fill-89" fill="#AD5C49" mask="url(#mask-2)"></path>
                <path d="M37.034,120.4125 C31.858,118.3285 28.501,118.5095 16.159,119.8225 C13.331,120.1235 7.585,120.5125 4.736,122.1205 C2.176,123.5635 1.457,127.3435 14.271,129.8695 C25.976,132.1765 41.088,133.2675 44.976,130.1275 C48.868,126.9885 42.089,122.4485 37.034,120.4125" id="Fill-90" fill="#AEC4DB" mask="url(#mask-2)"></path>
                <path d="M34.3426,134.9208 C34.3426,134.9208 34.8666,135.2488 35.1306,135.0518 C35.3926,134.8548 36.1146,134.0008 37.2966,134.6578 C38.4786,135.3158 38.8066,136.1028 39.9226,136.1678 C41.0376,136.2328 43.7966,135.7738 44.5836,136.4308 C45.3716,137.0868 46.6176,139.5158 46.2896,141.2228 C45.9626,142.9288 45.4366,143.1258 44.9116,142.3378 C44.3876,141.5508 43.9276,141.0908 43.6636,140.9598 C43.4016,140.8288 40.4476,139.7128 39.4626,139.1878 C38.4786,138.6618 37.1006,138.0708 36.7056,137.9408 C36.3116,137.8088 34.1456,137.4148 33.9496,137.4148 C33.7516,137.4148 34.3426,134.9208 34.3426,134.9208" id="Fill-91" fill="#E4EEF3" mask="url(#mask-2)"></path>
                <path d="M44.5838,136.4305 C43.7968,135.7735 41.0378,136.2335 39.9228,136.1675 C38.8068,136.1025 38.4788,135.3155 37.2968,134.6585 C36.3618,134.1395 35.7128,134.4435 35.1228,135.0315 C35.1388,135.0415 35.3258,134.9355 35.4798,134.9535 C36.1298,135.0315 37.5438,136.1655 38.5758,136.5955 C39.6918,137.0605 41.7358,137.4315 42.6178,138.0365 C43.1808,138.4195 43.4548,139.7545 43.5188,140.8955 C43.5858,140.9245 43.6398,140.9485 43.6638,140.9595 C43.9278,141.0905 44.3878,141.5505 44.9118,142.3375 C45.4368,143.1255 45.9628,142.9285 46.2898,141.2225 C46.6178,139.5155 45.3718,137.0865 44.5838,136.4305" id="Fill-92" fill="#AD5C49" mask="url(#mask-2)"></path>
                <path d="M34.6053,137.743 C34.6053,137.743 15.7383,133.95 11.4983,132.295 C7.2583,130.639 0.6003,129.537 2.3213,124.922 C3.8793,120.737 8.5803,120.247 14.7623,122.835 C20.9423,125.423 21.0173,125.598 25.6123,128.421 C31.4643,132.016 34.8673,135.117 34.8673,135.117 L34.6053,137.743 Z" id="Fill-93" fill="#C4D1E1" mask="url(#mask-2)"></path>
                <polygon id="Fill-94" fill="#163F59" mask="url(#mask-2)" points="44.1668 105.2303 44.7118 105.7743 42.4718 109.4083 39.0518 109.5063 38.5188 108.8073 40.5318 106.0183"></polygon>
                <path d="M33.0975,108.3202 L37.7625,107.0782 L39.4555,107.2352 L38.7175,108.4492 L40.2355,109.3732 L42.0045,109.1992 L42.9955,108.3892 L43.0755,109.5592 C43.0755,109.5592 42.8395,110.0822 42.3015,110.4212 C41.7635,110.7582 39.6775,112.8182 39.6775,112.8182 L38.5235,112.3242 L35.9345,111.0432 L33.9065,111.8472 L33.0975,108.3202 Z" id="Fill-95" fill="#FFFFFF" mask="url(#mask-2)"></path>
                <path d="M10.907,133.0829 C10.907,133.0829 10.448,133.5419 10.776,134.0659 C11.104,134.5919 11.761,134.9859 11.63,135.6429 C11.498,136.2999 11.367,136.4309 10.644,136.9539 C9.923,137.4809 8.675,138.1379 7.953,139.6459 C7.231,141.1569 6.247,142.6019 4.473,142.8629 C2.701,143.1259 1.323,142.9949 0.469,142.6019 C-0.384,142.2069 0.076,141.7479 0.667,141.4849 C1.257,141.2229 2.505,140.5659 3.358,139.2539 C4.211,137.9399 5.13,136.8239 5.721,135.7729 C6.311,134.7239 7.034,133.6069 7.625,132.5579 C8.216,131.5079 10.907,132.3599 10.907,133.0829" id="Fill-96" fill="#FFFFFF" mask="url(#mask-2)"></path>
                <path d="M8.5106,136.8583 C7.3416,138.0553 6.7046,139.3823 5.0316,140.0773 C4.1646,140.4353 3.0336,140.4523 2.5936,140.1803 C1.8726,140.8903 1.0966,141.2943 0.6666,141.4853 C0.0756,141.7483 -0.3844,142.2073 0.4696,142.6013 C1.3236,142.9953 2.7006,143.1263 4.4736,142.8633 C6.2466,142.6013 7.2316,141.1573 7.9526,139.6463 C8.6746,138.1373 9.9226,137.4813 10.6446,136.9543 C11.3666,136.4303 11.4976,136.2993 11.6296,135.6423 C11.7386,135.0993 11.3096,134.7363 10.9716,134.3293 C10.5606,134.9693 9.6306,135.7123 8.5106,136.8583" id="Fill-97" fill="#AD5C49" mask="url(#mask-2)"></path>
                <path d="M49.5057,123.8925 C49.5057,123.8925 42.5477,113.6515 36.9017,110.3695 C31.2567,107.0865 16.9457,95.1395 27.1877,115.8835 C32.4687,126.5805 36.1147,133.0825 40.9737,134.2635 C45.8297,135.4465 54.6267,134.2635 49.5057,123.8925" id="Fill-98" fill="#E4EEF3" mask="url(#mask-2)"></path>
                <path d="M6.0506,133.6073 C6.0506,133.6073 14.8466,116.4083 17.3416,112.6013 C19.8346,108.7933 24.1666,101.1783 26.0056,105.2483 C27.8436,109.3183 29.2876,112.3383 25.4816,117.8523 C21.6726,123.3663 21.6726,123.3663 16.8146,128.2243 C11.9576,133.0833 10.3816,134.0013 10.3816,134.0013 L6.0506,133.6073 Z" id="Fill-99" fill="#E4EEF3" mask="url(#mask-2)"></path>
            </g>
        </g>
    </g>
</svg>