<?xml version="1.0" encoding="UTF-8"?>
<svg width="153px" height="110px" viewBox="0 0 153 110" version="1.1" xmlns="http://www.w3.org/2000/svg" xmlns:xlink="http://www.w3.org/1999/xlink">
    <!-- Generator: Sketch 48 (47235) - http://www.bohemiancoding.com/sketch -->
    <title>Page 1</title>
    <desc>Created with Sketch.</desc>
    <defs>
        <polygon id="path-1" points="0.6609 0.2812 49.3009 0.2812 49.3009 2 0.6609 2"></polygon>
        <polygon id="path-3" points="0 0.142 133.9619 0.142 133.9619 84.5137 0 84.5137"></polygon>
        <polygon id="path-5" points="0 110 155.487 110 155.487 0.142 0 0.142"></polygon>
        <path d="M3.334,0.141 C1.491,0.141 0,1.635 0,3.477 L0,97.206 L133.962,97.206 L133.962,3.477 C133.962,1.635 132.466,0.141 130.626,0.141" id="path-7"></path>
        <path d="M3.334,0.141 C1.491,0.141 0,1.635 0,3.477 L0,97.206 L133.962,97.206 L133.962,3.477 C133.962,1.635 132.466,0.141 130.626,0.141" id="path-9"></path>
        <polygon id="path-11" points="0 110 155.487 110 155.487 0.142 0 0.142"></polygon>
    </defs>
    <g id="Page-1" stroke="none" stroke-width="1" fill="none" fill-rule="evenodd">
        <g transform="translate(0.000000, -1.000000)">
            <g id="Group-41" transform="translate(0.000000, 0.858000)">
                <path d="M51.4072,91.2724 C49.9922,97.0614 48.5772,102.8494 47.1612,108.6384 L86.8032,108.6384 C85.3862,102.8494 83.9712,97.0614 82.5552,91.2724 L51.4072,91.2724 Z" id="Fill-1" fill="#CDD5D8"></path>
                <g id="Group-5" transform="translate(42.000000, 108.000000)">
                    <mask id="mask-2" fill="white">
                        <use xlink:href="#path-1"></use>
                    </mask>
                    <g id="Clip-4"></g>
                    <path d="M47.2529,0.2812 L2.7069,0.2812 C1.5789,0.2812 0.6609,0.8412 0.6609,1.5312 L0.6609,2.0002 L49.3009,2.0002 L49.3009,1.5312 C49.3009,0.8412 48.3859,0.2812 47.2529,0.2812" id="Fill-3" fill="#F6F2F1" mask="url(#mask-2)"></path>
                </g>
                <path d="M0,84.5137 L0,94.0817 C0,95.9267 1.491,97.4177 3.334,97.4177 L130.626,97.4177 C132.467,97.4177 133.962,95.9267 133.962,94.0817 L133.962,84.5137 L0,84.5137 Z" id="Fill-6" fill="#F6F2F1"></path>
                <g id="Group-10">
                    <mask id="mask-4" fill="white">
                        <use xlink:href="#path-3"></use>
                    </mask>
                    <g id="Clip-9"></g>
                    <path d="M133.9619,84.5137 L133.9619,3.4767 C133.9619,1.6347 132.4669,0.1417 130.6259,0.1417 L3.3339,0.1417 C1.4909,0.1417 -0.0001,1.6347 -0.0001,3.4767 L-0.0001,84.5137 L133.9619,84.5137 Z" id="Fill-8" fill="#30363D" mask="url(#mask-4)"></path>
                </g>
                <mask id="mask-6" fill="white">
                    <use xlink:href="#path-5"></use>
                </mask>
                <g id="Clip-12"></g>
                <polygon id="Fill-11" fill="#FFFFFF" mask="url(#mask-6)" points="5.487 78.981 128.474 78.981 128.474 5.353 5.487 5.353"></polygon>
                <polygon id="Fill-13" fill="#72BCC5" mask="url(#mask-6)" points="12.782 43.001 46.143 43.001 46.143 25.623 12.782 25.623"></polygon>
                <polygon id="Fill-14" fill="#EC8558" mask="url(#mask-6)" points="50.301 43.001 83.661 43.001 83.661 25.623 50.301 25.623"></polygon>
                <polygon id="Fill-15" fill="#CDD5D8" mask="url(#mask-6)" points="87.82 43.001 121.179 43.001 121.179 25.623 87.82 25.623"></polygon>
                <polygon id="Fill-16" fill="#CDD5D8" mask="url(#mask-6)" points="21.953 17.658 44.16 17.658 44.16 15.245 21.953 15.245"></polygon>
                <path d="M19.0585,16.4512 C19.0585,18.1832 17.6535,19.5892 15.9205,19.5892 C14.1885,19.5892 12.7815,18.1832 12.7815,16.4512 C12.7815,14.7192 14.1885,13.3142 15.9205,13.3142 C17.6535,13.3142 19.0585,14.7192 19.0585,16.4512" id="Fill-17" fill="#CDD5D8" mask="url(#mask-6)"></path>
                <polygon id="Fill-18" fill="#CDD5D8" mask="url(#mask-6)" points="110.132 16.942 121.18 16.942 121.18 15.961 110.132 15.961"></polygon>
                <polygon id="Fill-19" fill="#CDD5D8" mask="url(#mask-6)" points="97.741 16.942 108.79 16.942 108.79 15.961 97.741 15.961"></polygon>
                <polygon id="Fill-20" fill="#CDD5D8" mask="url(#mask-6)" points="85.352 16.942 96.399 16.942 96.399 15.961 85.352 15.961"></polygon>
                <polygon id="Fill-21" fill="#CDD5D8" mask="url(#mask-6)" points="72.963 16.942 84.011 16.942 84.011 15.961 72.963 15.961"></polygon>
                <polygon id="Fill-22" fill="#CDD5D8" mask="url(#mask-6)" points="60.573 16.942 71.62 16.942 71.62 15.961 60.573 15.961"></polygon>
                <polygon id="Fill-23" fill="#CDD5D8" mask="url(#mask-6)" points="12.782 54.915 46.143 54.915 46.143 53.935 12.782 53.935"></polygon>
                <polygon id="Fill-24" fill="#CDD5D8" mask="url(#mask-6)" points="12.782 58.295 46.143 58.295 46.143 57.316 12.782 57.316"></polygon>
                <polygon id="Fill-25" fill="#CDD5D8" mask="url(#mask-6)" points="12.782 61.673 46.143 61.673 46.143 60.693 12.782 60.693"></polygon>
                <polygon id="Fill-26" fill="#CDD5D8" mask="url(#mask-6)" points="12.782 65.053 46.143 65.053 46.143 64.073 12.782 64.073"></polygon>
                <polygon id="Fill-27" fill="#CDD5D8" mask="url(#mask-6)" points="12.782 68.432 36.597 68.432 36.597 67.452 12.782 67.452"></polygon>
                <polygon id="Fill-28" fill="#CDD5D8" mask="url(#mask-6)" points="12.781 50.66 34.987 50.66 34.987 48.246 12.781 48.246"></polygon>
                <polygon id="Fill-29" fill="#CDD5D8" mask="url(#mask-6)" points="50.301 54.915 83.661 54.915 83.661 53.935 50.301 53.935"></polygon>
                <polygon id="Fill-30" fill="#CDD5D8" mask="url(#mask-6)" points="50.301 58.295 83.661 58.295 83.661 57.316 50.301 57.316"></polygon>
                <polygon id="Fill-31" fill="#CDD5D8" mask="url(#mask-6)" points="50.301 61.673 83.661 61.673 83.661 60.693 50.301 60.693"></polygon>
                <polygon id="Fill-32" fill="#CDD5D8" mask="url(#mask-6)" points="50.301 65.053 83.661 65.053 83.661 64.073 50.301 64.073"></polygon>
                <polygon id="Fill-33" fill="#CDD5D8" mask="url(#mask-6)" points="50.301 68.432 74.116 68.432 74.116 67.452 50.301 67.452"></polygon>
                <polygon id="Fill-34" fill="#CDD5D8" mask="url(#mask-6)" points="50.301 50.66 72.507 50.66 72.507 48.246 50.301 48.246"></polygon>
                <polygon id="Fill-35" fill="#CDD5D8" mask="url(#mask-6)" points="87.82 54.915 121.179 54.915 121.179 53.935 87.82 53.935"></polygon>
                <polygon id="Fill-36" fill="#CDD5D8" mask="url(#mask-6)" points="87.82 58.295 121.179 58.295 121.179 57.316 87.82 57.316"></polygon>
                <polygon id="Fill-37" fill="#CDD5D8" mask="url(#mask-6)" points="87.82 61.673 121.179 61.673 121.179 60.693 87.82 60.693"></polygon>
                <polygon id="Fill-38" fill="#CDD5D8" mask="url(#mask-6)" points="87.82 65.053 121.179 65.053 121.179 64.073 87.82 64.073"></polygon>
                <polygon id="Fill-39" fill="#CDD5D8" mask="url(#mask-6)" points="87.82 68.432 111.635 68.432 111.635 67.452 87.82 67.452"></polygon>
                <polygon id="Fill-40" fill="#CDD5D8" mask="url(#mask-6)" points="87.819 50.66 110.026 50.66 110.026 48.246 87.819 48.246"></polygon>
            </g>
            <g id="Group-48" transform="translate(0.000000, 0.858000)">
                <g id="Group-44">
                    <mask id="mask-8" fill="white">
                        <use xlink:href="#path-7"></use>
                    </mask>
                    <g id="Clip-43"></g>
                    <path d="M36.5908,61.623 L20.1678,61.623 C18.1788,61.623 16.5648,63.238 16.5648,65.225 L16.5648,104.519 C16.5648,106.506 18.1788,108.119 20.1678,108.119 L36.5908,108.119 C38.5788,108.119 40.1918,106.506 40.1918,104.519 L40.1918,65.225 C40.1918,63.238 38.5788,61.623 36.5908,61.623" id="Fill-42" fill="#DCE4E7" mask="url(#mask-8)"></path>
                </g>
                <g id="Group-47">
                    <mask id="mask-10" fill="white">
                        <use xlink:href="#path-9"></use>
                    </mask>
                    <g id="Clip-46"></g>
                    <path d="M152.3994,45.6943 L109.9974,45.6943 C108.2884,45.6943 106.9054,47.0803 106.9054,48.7873 L106.9054,104.6123 C106.9054,106.3183 108.2884,107.7003 109.9974,107.7003 L152.3994,107.7003 C154.1044,107.7003 155.4874,106.3183 155.4874,104.6123 L155.4874,48.7873 C155.4874,47.0803 154.1044,45.6943 152.3994,45.6943" id="Fill-45" fill="#DCE4E7" mask="url(#mask-10)"></path>
                </g>
            </g>
            <g id="Group-89" transform="translate(0.000000, 0.858000)">
                <path d="M33.038,63.5058 L16.613,63.5058 C14.625,63.5058 13.012,65.1188 13.012,67.1058 L13.012,106.3998 C13.012,108.3878 14.625,109.9998 16.613,109.9998 L33.038,109.9998 C35.026,109.9998 36.638,108.3878 36.638,106.3998 L36.638,67.1058 C36.638,65.1188 35.026,63.5058 33.038,63.5058" id="Fill-49" fill="#474F59"></path>
                <path d="M21.7285,66.2851 L27.9185,66.2851 C28.0935,66.2851 28.2345,66.4271 28.2345,66.6001 C28.2345,66.7761 28.0935,66.9201 27.9185,66.9201 L21.7285,66.9201 C21.5535,66.9201 21.4145,66.7761 21.4145,66.6001 C21.4145,66.4271 21.5535,66.2851 21.7285,66.2851" id="Fill-51" fill="#FFFFFF"></path>
                <path d="M24.8242,107.3476 C23.6752,107.3476 22.7402,106.4116 22.7402,105.2626 C22.7402,104.1116 23.6752,103.1776 24.8242,103.1776 C25.9752,103.1776 26.9072,104.1116 26.9072,105.2626 C26.9072,106.4116 25.9752,107.3476 24.8242,107.3476" id="Fill-53" fill="#30363D"></path>
                <mask id="mask-12" fill="white">
                    <use xlink:href="#path-11"></use>
                </mask>
                <g id="Clip-56"></g>
                <polygon id="Fill-55" fill="#FFFFFF" mask="url(#mask-12)" points="14.591 100.904 35.058 100.904 35.058 70.583 14.591 70.583"></polygon>
                <polygon id="Fill-57" fill="#72BCC5" mask="url(#mask-12)" points="15.763 86.896 33.872 86.896 33.872 77.581 15.763 77.581"></polygon>
                <polygon id="Fill-58" fill="#CDD5D8" mask="url(#mask-12)" points="20.741 74.885 33.843 74.885 33.843 73.575 20.741 73.575"></polygon>
                <path d="M19.1709,74.2295 C19.1709,75.1715 18.4069,75.9335 17.4659,75.9335 C16.5259,75.9335 15.7629,75.1715 15.7629,74.2295 C15.7629,73.2895 16.5259,72.5275 17.4659,72.5275 C18.4069,72.5275 19.1709,73.2895 19.1709,74.2295" id="Fill-59" fill="#CDD5D8" mask="url(#mask-12)"></path>
                <polygon id="Fill-60" fill="#CDD5D8" mask="url(#mask-12)" points="15.763 93.406 33.872 93.406 33.872 92.873 15.763 92.873"></polygon>
                <polygon id="Fill-61" fill="#CDD5D8" mask="url(#mask-12)" points="15.763 95.241 33.872 95.241 33.872 94.708 15.763 94.708"></polygon>
                <polygon id="Fill-62" fill="#CDD5D8" mask="url(#mask-12)" points="15.763 97.074 33.872 97.074 33.872 96.542 15.763 96.542"></polygon>
                <polygon id="Fill-63" fill="#CDD5D8" mask="url(#mask-12)" points="15.762 98.908 28.907 98.908 28.907 98.376 15.762 98.376"></polygon>
                <polygon id="Fill-64" fill="#CDD5D8" mask="url(#mask-12)" points="15.762 90.63 27.816 90.63 27.816 89.319 15.762 89.319"></polygon>
                <path d="M149.0556,47.9941 L106.6506,47.9941 C104.9436,47.9941 103.5606,49.3791 103.5606,51.0871 L103.5606,106.9111 C103.5606,108.6181 104.9436,110.0001 106.6506,110.0001 L149.0556,110.0001 C150.7606,110.0001 152.1436,108.6181 152.1436,106.9111 L152.1436,51.0871 C152.1436,49.3791 150.7606,47.9941 149.0556,47.9941" id="Fill-65" fill="#474F59" mask="url(#mask-12)"></path>
                <path d="M127.8525,108.4219 C127.1655,108.4219 126.6085,107.8669 126.6085,107.1809 C126.6085,106.4909 127.1655,105.9389 127.8525,105.9389 C128.5385,105.9389 129.0955,106.4909 129.0955,107.1809 C129.0955,107.8669 128.5385,108.4219 127.8525,108.4219" id="Fill-66" fill="#30363D" mask="url(#mask-12)"></path>
                <polygon id="Fill-67" fill="#FFFFFF" mask="url(#mask-12)" points="109.073 104.007 146.629 104.007 146.629 53.987 109.073 53.987"></polygon>
                <polygon id="Fill-68" fill="#CDD5D8" mask="url(#mask-12)" points="123.77 60.117 137.617 60.117 137.617 58.612 123.77 58.612"></polygon>
                <path d="M121.9648,59.3652 C121.9648,60.4442 121.0908,61.3212 120.0088,61.3212 C118.9278,61.3212 118.0528,60.4442 118.0528,59.3652 C118.0528,58.2852 118.9278,57.4082 120.0088,57.4082 C121.0908,57.4082 121.9648,58.2852 121.9648,59.3652" id="Fill-69" fill="#CDD5D8" mask="url(#mask-12)"></path>
                <polygon id="Fill-70" fill="#CDD5D8" mask="url(#mask-12)" points="137.353 65.338 142.816 65.338 142.816 64.601 137.353 64.601"></polygon>
                <polygon id="Fill-71" fill="#CDD5D8" mask="url(#mask-12)" points="131.228 65.338 136.69 65.338 136.69 64.601 131.228 64.601"></polygon>
                <polygon id="Fill-72" fill="#CDD5D8" mask="url(#mask-12)" points="125.104 65.338 130.564 65.338 130.564 64.601 125.104 64.601"></polygon>
                <polygon id="Fill-73" fill="#CDD5D8" mask="url(#mask-12)" points="118.979 65.338 124.44 65.338 124.44 64.601 118.979 64.601"></polygon>
                <polygon id="Fill-74" fill="#CDD5D8" mask="url(#mask-12)" points="112.854 65.338 118.316 65.338 118.316 64.601 112.854 64.601"></polygon>
                <polygon id="Fill-75" fill="#72BCC5" mask="url(#mask-12)" points="110.973 81.144 126.845 81.144 126.845 68.081 110.973 68.081"></polygon>
                <polygon id="Fill-76" fill="#EC8558" mask="url(#mask-12)" points="128.823 81.144 144.695 81.144 144.695 68.081 128.823 68.081"></polygon>
                <polygon id="Fill-77" fill="#CDD5D8" mask="url(#mask-12)" points="110.973 90.1 126.845 90.1 126.845 89.363 110.973 89.363"></polygon>
                <polygon id="Fill-78" fill="#CDD5D8" mask="url(#mask-12)" points="110.973 92.639 126.845 92.639 126.845 91.903 110.973 91.903"></polygon>
                <polygon id="Fill-79" fill="#CDD5D8" mask="url(#mask-12)" points="110.973 95.179 126.845 95.179 126.845 94.443 110.973 94.443"></polygon>
                <polygon id="Fill-80" fill="#CDD5D8" mask="url(#mask-12)" points="110.973 97.719 126.845 97.719 126.845 96.982 110.973 96.982"></polygon>
                <polygon id="Fill-81" fill="#CDD5D8" mask="url(#mask-12)" points="110.973 100.26 122.304 100.26 122.304 99.523 110.973 99.523"></polygon>
                <polygon id="Fill-82" fill="#CDD5D8" mask="url(#mask-12)" points="110.973 86.899 121.538 86.899 121.538 85.086 110.973 85.086"></polygon>
                <polygon id="Fill-83" fill="#CDD5D8" mask="url(#mask-12)" points="128.823 90.1 144.695 90.1 144.695 89.363 128.823 89.363"></polygon>
                <polygon id="Fill-84" fill="#CDD5D8" mask="url(#mask-12)" points="128.823 92.639 144.695 92.639 144.695 91.903 128.823 91.903"></polygon>
                <polygon id="Fill-85" fill="#CDD5D8" mask="url(#mask-12)" points="128.823 95.179 144.695 95.179 144.695 94.443 128.823 94.443"></polygon>
                <polygon id="Fill-86" fill="#CDD5D8" mask="url(#mask-12)" points="128.823 97.719 144.695 97.719 144.695 96.982 128.823 96.982"></polygon>
                <polygon id="Fill-87" fill="#CDD5D8" mask="url(#mask-12)" points="128.823 100.26 140.155 100.26 140.155 99.523 128.823 99.523"></polygon>
                <polygon id="Fill-88" fill="#CDD5D8" mask="url(#mask-12)" points="128.824 86.899 139.39 86.899 139.39 85.086 128.824 85.086"></polygon>
            </g>
        </g>
    </g>
</svg>