<svg id="Layer_1" data-name="Layer 1" xmlns="http://www.w3.org/2000/svg" viewBox="0 0 144.73 146.12">
  <defs>
    <style>
      .cls-1 {
        fill: #363636;
      }
    </style>
  </defs>
  <title>application_development</title>
  <path class="cls-1" d="M474.62,286.33H368.76a5.78,5.78,0,0,1-5.77-5.77V208.38a5.78,5.78,0,0,1,5.77-5.77H474.62a5.78,5.78,0,0,1,5.77,5.77v72.18A5.78,5.78,0,0,1,474.62,286.33ZM368.76,205.61a2.77,2.77,0,0,0-2.77,2.77v72.18a2.78,2.78,0,0,0,2.77,2.77H474.62a2.78,2.78,0,0,0,2.77-2.77V208.38a2.78,2.78,0,0,0-2.77-2.77Zm101.58,72.17H373a1.5,1.5,0,0,1-1.5-1.5V212.66a1.5,1.5,0,0,1,1.5-1.5h97.3a1.5,1.5,0,0,1,1.5,1.5v63.62A1.5,1.5,0,0,1,470.34,277.78Zm-95.8-3h94.3V214.16h-94.3Z" transform="translate(-349.32 -202.61)"/>
  <path class="cls-1" d="M447.28,304.32H396a1.5,1.5,0,0,1-1.17-2.44l5.08-6.36a1.49,1.49,0,0,1,1.17-.57H442.2a1.51,1.51,0,0,1,1.18.57l5.07,6.36a1.5,1.5,0,0,1-1.17,2.44Zm-48.12-3h45L441.48,298H401.84Z" transform="translate(-349.32 -202.61)"/>
  <path class="cls-1" d="M421.71,250.6a9,9,0,0,1-9-9,1.5,1.5,0,0,1,3,0,6,6,0,1,0,6-6,1.5,1.5,0,0,1,0-3,9,9,0,1,1,0,18.07Z" transform="translate(-349.32 -202.61)"/>
  <path class="cls-1" d="M421.71,262.6a21.24,21.24,0,0,1-3.65-.31,1.51,1.51,0,0,1-1.22-1.74l.54-3.08a16.52,16.52,0,0,1-2.63-1l-1.56,2.71a1.5,1.5,0,0,1-2.05.55,21.1,21.1,0,0,1-5.63-4.72,1.5,1.5,0,0,1-.35-1.09,1.45,1.45,0,0,1,.53-1l2.39-2a16.46,16.46,0,0,1-1.4-2.41l-2.94,1.08a1.5,1.5,0,0,1-1.92-.9,21.16,21.16,0,0,1-1.29-7.24A1.5,1.5,0,0,1,402,240h3.11c.05-.48.11-1,.2-1.44s.18-.87.29-1.31l-2.94-1.06a1.53,1.53,0,0,1-.85-.77,1.48,1.48,0,0,1,0-1.15,21,21,0,0,1,3.67-6.38,1.49,1.49,0,0,1,2.11-.18l2.4,2a16,16,0,0,1,2.13-1.8l-1.57-2.7a1.49,1.49,0,0,1,.54-2,20.85,20.85,0,0,1,6.91-2.54,1.48,1.48,0,0,1,1.12.25,1.46,1.46,0,0,1,.62,1l.55,3.07a14.45,14.45,0,0,1,2.79,0l.53-3.08a1.5,1.5,0,0,1,1.73-1.22,21.25,21.25,0,0,1,6.93,2.49,1.51,1.51,0,0,1,.55,2.05l-1.56,2.71a16.87,16.87,0,0,1,2.15,1.79l2.39-2a1.49,1.49,0,0,1,2.11.18,21,21,0,0,1,3.7,6.35,1.49,1.49,0,0,1-.89,1.92l-2.93,1.09c.12.46.23.93.31,1.4a13.07,13.07,0,0,1,.19,1.38l3.11,0a1.47,1.47,0,0,1,1.07.43,1.5,1.5,0,0,1,.44,1.07,21.09,21.09,0,0,1-1.27,7.31,1.5,1.5,0,0,1-1.92.89l-2.95-1.07a15.65,15.65,0,0,1-1.39,2.42l2.4,2a1.55,1.55,0,0,1,.53,1,1.48,1.48,0,0,1-.35,1.09,21.1,21.1,0,0,1-5.62,4.73,1.51,1.51,0,0,1-2.05-.55l-1.57-2.71a15.53,15.53,0,0,1-2.62,1l.54,3.08a1.47,1.47,0,0,1-.25,1.12,1.5,1.5,0,0,1-1,.62A21.63,21.63,0,0,1,421.71,262.6Zm-1.64-3.07a17.64,17.64,0,0,0,3.33,0l-.52-2.95a1.49,1.49,0,0,1,1.21-1.73,13.57,13.57,0,0,0,4.44-1.63,1.55,1.55,0,0,1,1.14-.15,1.52,1.52,0,0,1,.91.7l1.5,2.6a17.49,17.49,0,0,0,2.55-2.15l-2.29-1.92a1.5,1.5,0,0,1-.19-2.11,13.5,13.5,0,0,0,2.36-4.1,1.51,1.51,0,0,1,1.93-.9l2.82,1a18.83,18.83,0,0,0,.58-3.34l-3,0a1.56,1.56,0,0,1-1.07-.43,1.54,1.54,0,0,1-.44-1.07,13.68,13.68,0,0,0-.86-4.69,1.5,1.5,0,0,1,.05-1.14,1.53,1.53,0,0,1,.84-.78l2.82-1a18,18,0,0,0-1.68-2.88l-2.29,1.94a1.5,1.5,0,0,1-2.11-.18,13.81,13.81,0,0,0-3.64-3,1.5,1.5,0,0,1-.55-2l1.49-2.6a18.37,18.37,0,0,0-3.14-1.13l-.51,3A1.49,1.49,0,0,1,424,228a12.54,12.54,0,0,0-4.73,0,1.49,1.49,0,0,1-1.74-1.21l-.53-3a17.25,17.25,0,0,0-3.13,1.15l1.51,2.59a1.51,1.51,0,0,1-.54,2,13.74,13.74,0,0,0-3.63,3.05,1.5,1.5,0,0,1-2.11.19l-2.3-1.92a18,18,0,0,0-1.66,2.89l2.82,1a1.5,1.5,0,0,1,.85.77,1.48,1.48,0,0,1,0,1.15,15.11,15.11,0,0,0-.61,2.26,13.47,13.47,0,0,0-.21,2.37,1.52,1.52,0,0,1-1.5,1.53h-3a17.34,17.34,0,0,0,.58,3.28l2.82-1a1.49,1.49,0,0,1,1.92.89,13.56,13.56,0,0,0,2.37,4.09,1.5,1.5,0,0,1-.18,2.12l-2.29,1.93a18.65,18.65,0,0,0,2.55,2.14l1.5-2.6a1.48,1.48,0,0,1,.91-.7,1.46,1.46,0,0,1,1.14.15,13.76,13.76,0,0,0,4.44,1.61,1.5,1.5,0,0,1,1.22,1.73Z" transform="translate(-349.32 -202.61)"/>
  <path class="cls-1" d="M420.21,241.56a1.5,1.5,0,0,1,1.5-1.5h0a1.5,1.5,0,0,1,1.5,1.5h0a1.5,1.5,0,0,1-1.5,1.5h0A1.5,1.5,0,0,1,420.21,241.56Z" transform="translate(-349.32 -202.61)"/>
  <path class="cls-1" d="M446.76,339.76H369.62a6.63,6.63,0,0,1-6.63-6.63V314.71a6.64,6.64,0,0,1,6.63-6.64h77.14a6.65,6.65,0,0,1,6.63,6.64v18.42A6.64,6.64,0,0,1,446.76,339.76Zm-77.14-28.69a3.64,3.64,0,0,0-3.63,3.64v18.42a3.64,3.64,0,0,0,3.63,3.63h77.14a3.64,3.64,0,0,0,3.63-3.63V314.71a3.64,3.64,0,0,0-3.63-3.64Z" transform="translate(-349.32 -202.61)"/>
  <path class="cls-1" d="M379.35,323.23H373a1.5,1.5,0,0,1-1.5-1.5v-6.31a1.51,1.51,0,0,1,1.5-1.5h6.31a1.5,1.5,0,0,1,1.5,1.5v6.31A1.5,1.5,0,0,1,379.35,323.23Zm-4.81-3h3.31v-3.31h-3.31Z" transform="translate(-349.32 -202.61)"/>
  <path class="cls-1" d="M392.15,323.23h-6.31a1.5,1.5,0,0,1-1.5-1.5v-6.31a1.5,1.5,0,0,1,1.5-1.5h6.31a1.5,1.5,0,0,1,1.5,1.5v6.31A1.5,1.5,0,0,1,392.15,323.23Zm-4.81-3h3.31v-3.31h-3.31Z" transform="translate(-349.32 -202.61)"/>
  <path class="cls-1" d="M405,323.23h-6.31a1.5,1.5,0,0,1-1.5-1.5v-6.31a1.5,1.5,0,0,1,1.5-1.5H405a1.51,1.51,0,0,1,1.5,1.5v6.31A1.5,1.5,0,0,1,405,323.23Zm-4.81-3h3.31v-3.31h-3.31Z" transform="translate(-349.32 -202.61)"/>
  <path class="cls-1" d="M417.74,323.23h-6.31a1.5,1.5,0,0,1-1.5-1.5v-6.31a1.5,1.5,0,0,1,1.5-1.5h6.31a1.5,1.5,0,0,1,1.5,1.5v6.31A1.5,1.5,0,0,1,417.74,323.23Zm-4.81-3h3.31v-3.31h-3.31Z" transform="translate(-349.32 -202.61)"/>
  <path class="cls-1" d="M430.54,323.23h-6.31a1.5,1.5,0,0,1-1.5-1.5v-6.31a1.5,1.5,0,0,1,1.5-1.5h6.31a1.5,1.5,0,0,1,1.5,1.5v6.31A1.5,1.5,0,0,1,430.54,323.23Zm-4.81-3H429v-3.31h-3.31Z" transform="translate(-349.32 -202.61)"/>
  <path class="cls-1" d="M443.33,323.23H437a1.5,1.5,0,0,1-1.5-1.5v-6.31a1.5,1.5,0,0,1,1.5-1.5h6.3a1.5,1.5,0,0,1,1.5,1.5v6.31A1.5,1.5,0,0,1,443.33,323.23Zm-4.8-3h3.3v-3.31h-3.3Z" transform="translate(-349.32 -202.61)"/>
  <path class="cls-1" d="M379.48,334.6h-6.31a1.5,1.5,0,0,1-1.5-1.5v-6.31a1.5,1.5,0,0,1,1.5-1.5h6.31a1.5,1.5,0,0,1,1.5,1.5v6.31A1.5,1.5,0,0,1,379.48,334.6Zm-4.81-3H378v-3.31h-3.31Z" transform="translate(-349.32 -202.61)"/>
  <path class="cls-1" d="M392.28,334.6H386a1.5,1.5,0,0,1-1.5-1.5v-6.31a1.5,1.5,0,0,1,1.5-1.5h6.31a1.5,1.5,0,0,1,1.5,1.5v6.31A1.5,1.5,0,0,1,392.28,334.6Zm-4.81-3h3.31v-3.31h-3.31Z" transform="translate(-349.32 -202.61)"/>
  <path class="cls-1" d="M405.08,334.6h-6.31a1.5,1.5,0,0,1-1.5-1.5v-6.31a1.5,1.5,0,0,1,1.5-1.5h6.31a1.5,1.5,0,0,1,1.5,1.5v6.31A1.5,1.5,0,0,1,405.08,334.6Zm-4.81-3h3.31v-3.31h-3.31Z" transform="translate(-349.32 -202.61)"/>
  <path class="cls-1" d="M417.87,334.6h-6.31a1.5,1.5,0,0,1-1.5-1.5v-6.31a1.5,1.5,0,0,1,1.5-1.5h6.31a1.5,1.5,0,0,1,1.5,1.5v6.31A1.5,1.5,0,0,1,417.87,334.6Zm-4.81-3h3.31v-3.31h-3.31Z" transform="translate(-349.32 -202.61)"/>
  <path class="cls-1" d="M430.67,334.6h-6.31a1.5,1.5,0,0,1-1.5-1.5v-6.31a1.5,1.5,0,0,1,1.5-1.5h6.31a1.5,1.5,0,0,1,1.5,1.5v6.31A1.5,1.5,0,0,1,430.67,334.6Zm-4.81-3h3.31v-3.31h-3.31Z" transform="translate(-349.32 -202.61)"/>
  <path class="cls-1" d="M443.46,334.6h-6.3a1.5,1.5,0,0,1-1.5-1.5v-6.31a1.5,1.5,0,0,1,1.5-1.5h6.3a1.5,1.5,0,0,1,1.5,1.5v6.31A1.5,1.5,0,0,1,443.46,334.6Zm-4.8-3H442v-3.31h-3.3Z" transform="translate(-349.32 -202.61)"/>
  <path class="cls-1" d="M475.09,325.42h-23.2a1.5,1.5,0,0,1,0-3h23.2c5,0,9-4.33,9-9.64s-4.05-9.64-9-9.64H444.83a1.5,1.5,0,0,1,0-3h30.27c6.63,0,12,5.67,12,12.64S481.72,325.42,475.09,325.42Z" transform="translate(-349.32 -202.61)"/>
  <path class="cls-1" d="M381.42,277.78a1.5,1.5,0,0,1-1.5-1.5v-5.53a1.5,1.5,0,0,1,3,0v5.53A1.5,1.5,0,0,1,381.42,277.78Z" transform="translate(-349.32 -202.61)"/>
  <path class="cls-1" d="M391.79,277.78a1.5,1.5,0,0,1-1.5-1.5v-5.53a1.5,1.5,0,0,1,3,0v5.53A1.5,1.5,0,0,1,391.79,277.78Z" transform="translate(-349.32 -202.61)"/>
  <path class="cls-1" d="M402.17,277.78a1.5,1.5,0,0,1-1.5-1.5v-5.53a1.5,1.5,0,0,1,3,0v5.53A1.5,1.5,0,0,1,402.17,277.78Z" transform="translate(-349.32 -202.61)"/>
  <path class="cls-1" d="M412.54,277.78a1.5,1.5,0,0,1-1.5-1.5v-5.53a1.5,1.5,0,0,1,3,0v5.53A1.5,1.5,0,0,1,412.54,277.78Z" transform="translate(-349.32 -202.61)"/>
  <path class="cls-1" d="M422.92,277.78a1.5,1.5,0,0,1-1.5-1.5v-5.53a1.5,1.5,0,0,1,3,0v5.53A1.5,1.5,0,0,1,422.92,277.78Z" transform="translate(-349.32 -202.61)"/>
  <path class="cls-1" d="M433.29,277.78a1.5,1.5,0,0,1-1.5-1.5v-5.53a1.5,1.5,0,0,1,3,0v5.53A1.5,1.5,0,0,1,433.29,277.78Z" transform="translate(-349.32 -202.61)"/>
  <path class="cls-1" d="M443.67,277.78a1.5,1.5,0,0,1-1.5-1.5v-5.53a1.5,1.5,0,0,1,3,0v5.53A1.5,1.5,0,0,1,443.67,277.78Z" transform="translate(-349.32 -202.61)"/>
  <path class="cls-1" d="M454,277.78a1.5,1.5,0,0,1-1.5-1.5v-5.53a1.5,1.5,0,0,1,3,0v5.53A1.5,1.5,0,0,1,454,277.78Z" transform="translate(-349.32 -202.61)"/>
  <path class="cls-1" d="M464.42,277.78a1.5,1.5,0,0,1-1.5-1.5v-5.53a1.5,1.5,0,0,1,3,0v5.53A1.5,1.5,0,0,1,464.42,277.78Z" transform="translate(-349.32 -202.61)"/>
  <path class="cls-1" d="M492.55,348.73H350.82a1.5,1.5,0,0,1-1.5-1.5v-57a1.5,1.5,0,0,1,1.5-1.5h62.25a1.5,1.5,0,0,1,1.5,1.5V295h13.69v-4.72a1.5,1.5,0,0,1,1.5-1.5h62.79a1.5,1.5,0,0,1,1.5,1.5v57A1.5,1.5,0,0,1,492.55,348.73Zm-140.23-3H491.05v-54H431.26v4.72a1.5,1.5,0,0,1-1.5,1.5H413.07a1.5,1.5,0,0,1-1.5-1.5v-4.72H352.32Z" transform="translate(-349.32 -202.61)"/>
  <path class="cls-1" d="M429.76,298H413.07a1.5,1.5,0,0,1-1.5-1.5V285a1.5,1.5,0,0,1,1.5-1.5h16.69a1.5,1.5,0,0,1,1.5,1.5v11.5A1.5,1.5,0,0,1,429.76,298Zm-15.19-3h13.69v-8.5H414.57Z" transform="translate(-349.32 -202.61)"/>
  <path class="cls-1" d="M357.48,348.73a1.5,1.5,0,0,1-1.5-1.5v-4.12a1.5,1.5,0,0,1,3,0v4.12A1.5,1.5,0,0,1,357.48,348.73Z" transform="translate(-349.32 -202.61)"/>
  <path class="cls-1" d="M367.36,348.73a1.5,1.5,0,0,1-1.5-1.5v-4.12a1.5,1.5,0,0,1,3,0v4.12A1.5,1.5,0,0,1,367.36,348.73Z" transform="translate(-349.32 -202.61)"/>
  <path class="cls-1" d="M377.23,348.73a1.5,1.5,0,0,1-1.5-1.5v-4.12a1.5,1.5,0,0,1,3,0v4.12A1.5,1.5,0,0,1,377.23,348.73Z" transform="translate(-349.32 -202.61)"/>
  <path class="cls-1" d="M387.11,348.73a1.5,1.5,0,0,1-1.5-1.5v-4.12a1.5,1.5,0,0,1,3,0v4.12A1.5,1.5,0,0,1,387.11,348.73Z" transform="translate(-349.32 -202.61)"/>
  <path class="cls-1" d="M397,348.73a1.5,1.5,0,0,1-1.5-1.5v-4.12a1.5,1.5,0,0,1,3,0v4.12A1.5,1.5,0,0,1,397,348.73Z" transform="translate(-349.32 -202.61)"/>
  <path class="cls-1" d="M406.86,348.73a1.5,1.5,0,0,1-1.5-1.5v-4.12a1.5,1.5,0,0,1,3,0v4.12A1.5,1.5,0,0,1,406.86,348.73Z" transform="translate(-349.32 -202.61)"/>
  <path class="cls-1" d="M416.73,348.73a1.5,1.5,0,0,1-1.5-1.5v-4.12a1.5,1.5,0,0,1,3,0v4.12A1.5,1.5,0,0,1,416.73,348.73Z" transform="translate(-349.32 -202.61)"/>
  <path class="cls-1" d="M426.61,348.73a1.5,1.5,0,0,1-1.5-1.5v-4.12a1.5,1.5,0,0,1,3,0v4.12A1.5,1.5,0,0,1,426.61,348.73Z" transform="translate(-349.32 -202.61)"/>
  <path class="cls-1" d="M436.48,348.73a1.5,1.5,0,0,1-1.5-1.5v-4.12a1.5,1.5,0,0,1,3,0v4.12A1.5,1.5,0,0,1,436.48,348.73Z" transform="translate(-349.32 -202.61)"/>
  <path class="cls-1" d="M446.36,348.73a1.5,1.5,0,0,1-1.5-1.5v-4.12a1.5,1.5,0,0,1,3,0v4.12A1.5,1.5,0,0,1,446.36,348.73Z" transform="translate(-349.32 -202.61)"/>
  <path class="cls-1" d="M456.23,348.73a1.5,1.5,0,0,1-1.5-1.5v-4.12a1.5,1.5,0,0,1,3,0v4.12A1.5,1.5,0,0,1,456.23,348.73Z" transform="translate(-349.32 -202.61)"/>
  <path class="cls-1" d="M466.11,348.73a1.5,1.5,0,0,1-1.5-1.5v-4.12a1.5,1.5,0,0,1,3,0v4.12A1.5,1.5,0,0,1,466.11,348.73Z" transform="translate(-349.32 -202.61)"/>
  <path class="cls-1" d="M476,348.73a1.5,1.5,0,0,1-1.5-1.5v-4.12a1.5,1.5,0,0,1,3,0v4.12A1.5,1.5,0,0,1,476,348.73Z" transform="translate(-349.32 -202.61)"/>
  <path class="cls-1" d="M485.86,348.73a1.5,1.5,0,0,1-1.5-1.5v-4.12a1.5,1.5,0,0,1,3,0v4.12A1.5,1.5,0,0,1,485.86,348.73Z" transform="translate(-349.32 -202.61)"/>
</svg>
