<?xml version="1.0" encoding="UTF-8"?>
<svg width="83px" height="139px" viewBox="0 0 83 139" version="1.1" xmlns="http://www.w3.org/2000/svg" xmlns:xlink="http://www.w3.org/1999/xlink">
    <!-- Generator: Sketch 48 (47235) - http://www.bohemiancoding.com/sketch -->
    <title>Page 1</title>
    <desc>Created with Sketch.</desc>
    <defs>
        <polygon id="path-1" points="0.24227566 0.165 1.31849043 0.165 1.31849043 6.23799111 0.24227566 6.23799111"></polygon>
    </defs>
    <g id="Page-1" stroke="none" stroke-width="1" fill="none" fill-rule="evenodd">
        <g transform="translate(0.000000, -1.000000)">
            <polygon id="Fill-1" fill="#C9C18E" points="0 102.8981 1.561 104.7261 66.844 112.4561 78.58 13.3601 77.018 11.5351 11.736 3.8041"></polygon>
            <polygon id="Fill-2" fill="#DED59D" points="66.8437 112.4563 66.8437 112.4563 65.2817 110.6303 11.7367 3.8043 77.0177 11.5343 78.5797 13.3593"></polygon>
            <polygon id="Fill-3" fill="#F7EDAF" points="0 102.8981 65.281 110.6301 77.018 11.5351 11.736 3.8041"></polygon>
            <g id="Group-237" transform="translate(0.000000, 0.835000)">
                <path d="M16.0273,5.2873 C15.4223,5.2153 14.8733,5.6493 14.8013,6.2563 C14.7313,6.8583 15.1623,7.4083 15.7673,7.4803 C16.3743,7.5523 16.9233,7.1183 16.9943,6.5163 C17.0663,5.9103 16.6333,5.3573 16.0273,5.2873" id="Fill-4" fill="#C9C18E"></path>
                <path d="M21.6548,5.9533 C21.0498,5.8813 20.4998,6.3163 20.4278,6.9213 C20.3568,7.5243 20.7898,8.0753 21.3948,8.1463 C22.0028,8.2193 22.5508,7.7853 22.6228,7.1823 C22.6948,6.5763 22.2618,6.0243 21.6548,5.9533" id="Fill-6" fill="#C9C18E"></path>
                <path d="M27.2837,6.6194 C26.6767,6.5484 26.1287,6.9824 26.0567,7.5884 C25.9857,8.1914 26.4167,8.7414 27.0237,8.8134 C27.6297,8.8864 28.1777,8.4504 28.2487,7.8484 C28.3207,7.2424 27.8897,6.6914 27.2837,6.6194" id="Fill-8" fill="#C9C18E"></path>
                <path d="M32.9101,7.2863 C32.3051,7.2143 31.7561,7.6493 31.6841,8.2543 C31.6131,8.8573 32.0451,9.4083 32.6501,9.4793 C33.2561,9.5523 33.8051,9.1173 33.8771,8.5153 C33.9491,7.9083 33.5151,7.3573 32.9101,7.2863" id="Fill-10" fill="#C9C18E"></path>
                <path d="M38.5381,7.9524 C37.9331,7.8814 37.3851,8.3164 37.3131,8.9214 C37.2421,9.5244 37.6731,10.0744 38.2781,10.1454 C38.8851,10.2194 39.4341,9.7844 39.5051,9.1814 C39.5771,8.5754 39.1441,8.0244 38.5381,7.9524" id="Fill-12" fill="#C9C18E"></path>
                <path d="M44.1675,8.6194 C43.5615,8.5464 43.0105,8.9824 42.9385,9.5874 C42.8675,10.1914 43.3015,10.7414 43.9075,10.8124 C44.5125,10.8844 45.0605,10.4504 45.1325,9.8484 C45.2045,9.2424 44.7725,8.6904 44.1675,8.6194" id="Fill-14" fill="#C9C18E"></path>
                <path d="M49.7939,9.2854 C49.1889,9.2134 48.6399,9.6494 48.5679,10.2544 C48.4969,10.8574 48.9289,11.4084 49.5339,11.4794 C50.1389,11.5514 50.6889,11.1174 50.7599,10.5144 C50.8309,9.9084 50.3979,9.3564 49.7939,9.2854" id="Fill-16" fill="#C9C18E"></path>
                <path d="M55.4219,9.9524 C54.8159,9.8814 54.2669,10.3154 54.1949,10.9204 C54.1239,11.5244 54.5559,12.0744 55.1619,12.1454 C55.7679,12.2184 56.3179,11.7834 56.3879,11.1804 C56.4609,10.5754 56.0279,10.0244 55.4219,9.9524" id="Fill-18" fill="#C9C18E"></path>
                <path d="M61.0488,10.6184 C60.4438,10.5464 59.8928,10.9814 59.8208,11.5874 C59.7498,12.1904 60.1838,12.7414 60.7888,12.8114 C61.3948,12.8844 61.9448,12.4494 62.0158,11.8474 C62.0878,11.2414 61.6538,10.6904 61.0488,10.6184" id="Fill-20" fill="#C9C18E"></path>
                <path d="M66.6787,11.2854 C66.0727,11.2134 65.5217,11.6484 65.4497,12.2544 C65.3787,12.8574 65.8127,13.4074 66.4187,13.4784 C67.0237,13.5504 67.5717,13.1164 67.6427,12.5134 C67.7147,11.9084 67.2827,11.3564 66.6787,11.2854" id="Fill-22" fill="#C9C18E"></path>
                <path d="M72.3037,11.9514 C71.6987,11.8794 71.1507,12.3154 71.0797,12.9204 C71.0077,13.5234 71.4387,14.0744 72.0437,14.1454 C72.6497,14.2174 73.1997,13.7834 73.2707,13.1804 C73.3427,12.5744 72.9087,12.0224 72.3037,11.9514" id="Fill-24" fill="#C9C18E"></path>
                <g id="Group-28" transform="translate(15.000000, 0.000000)">
                    <mask id="mask-2" fill="white">
                        <use xlink:href="#path-1"></use>
                    </mask>
                    <g id="Clip-27"></g>
                    <path d="M1.3169,0.3918 C1.3309,0.2788 1.2509,0.1788 1.1389,0.1658 C1.0259,0.1538 0.9279,0.2318 0.9139,0.3448 L0.2439,6.0078 C0.2299,6.1208 0.3079,6.2228 0.4199,6.2368 C0.5309,6.2488 0.6319,6.1688 0.6459,6.0568 L1.3169,0.3918 Z" id="Fill-26" fill="#484F59" mask="url(#mask-2)"></path>
                </g>
                <path d="M17.2773,0.5061 C17.2913,0.3941 17.2113,0.2941 17.0983,0.2801 C16.9873,0.2671 16.8853,0.3451 16.8733,0.4581 L16.2023,6.1221 C16.1883,6.2351 16.2683,6.3371 16.3803,6.3501 C16.4913,6.3621 16.5923,6.2831 16.6063,6.1701 L17.2773,0.5061 Z" id="Fill-29" fill="#484F59"></path>
                <path d="M21.9306,1.0578 C21.9446,0.9448 21.8636,0.8448 21.7506,0.8318 C21.6396,0.8188 21.5396,0.8958 21.5266,1.0088 L20.8556,6.6738 C20.8426,6.7868 20.9206,6.8868 21.0326,6.9008 C21.1446,6.9128 21.2466,6.8338 21.2596,6.7208 L21.9306,1.0578 Z" id="Fill-31" fill="#484F59"></path>
                <path d="M22.8931,1.1711 C22.9061,1.0581 22.8241,0.9581 22.7141,0.9451 C22.6011,0.9331 22.5011,1.0101 22.4881,1.1231 L21.8171,6.7871 C21.8041,6.9001 21.8831,7.0021 21.9951,7.0151 C22.1051,7.0281 22.2081,6.9481 22.2221,6.8351 L22.8931,1.1711 Z" id="Fill-33" fill="#484F59"></path>
                <path d="M27.5449,1.7229 C27.5589,1.6089 27.4789,1.5089 27.3679,1.4959 C27.2549,1.4829 27.1559,1.5619 27.1419,1.6749 L26.4709,7.3379 C26.4579,7.4519 26.5359,7.5529 26.6489,7.5669 C26.7599,7.5789 26.8599,7.4989 26.8739,7.3859 L27.5449,1.7229 Z" id="Fill-35" fill="#484F59"></path>
                <path d="M28.5063,1.8362 C28.5193,1.7232 28.4393,1.6232 28.3303,1.6102 C28.2163,1.5972 28.1143,1.6752 28.1003,1.7882 L27.4293,7.4522 C27.4163,7.5652 27.4973,7.6662 27.6103,7.6802 C27.7203,7.6932 27.8223,7.6122 27.8353,7.4992 L28.5063,1.8362 Z" id="Fill-37" fill="#484F59"></path>
                <path d="M33.1606,2.3869 C33.1736,2.2749 33.0936,2.1749 32.9826,2.1619 C32.8696,2.1489 32.7676,2.2259 32.7546,2.3389 L32.0836,8.0029 C32.0706,8.1159 32.1516,8.2169 32.2636,8.2319 C32.3746,8.2439 32.4756,8.1629 32.4896,8.0519 L33.1606,2.3869 Z" id="Fill-39" fill="#484F59"></path>
                <path d="M34.1206,2.5002 C34.1336,2.3882 34.0536,2.2882 33.9426,2.2742 C33.8306,2.2622 33.7296,2.3402 33.7166,2.4532 L33.0456,8.1162 C33.0316,8.2292 33.1116,8.3312 33.2236,8.3452 C33.3346,8.3572 33.4356,8.2782 33.4496,8.1652 L34.1206,2.5002 Z" id="Fill-41" fill="#484F59"></path>
                <path d="M38.7739,3.052 C38.7869,2.94 38.7059,2.84 38.5939,2.826 C38.4819,2.813 38.3829,2.892 38.3699,3.004 L37.6989,8.667 C37.6859,8.781 37.7639,8.883 37.8749,8.896 C37.9869,8.908 38.0899,8.829 38.1029,8.716 L38.7739,3.052 Z" id="Fill-43" fill="#484F59"></path>
                <path d="M39.7348,3.1662 C39.7478,3.0532 39.6678,2.9532 39.5568,2.9402 C39.4438,2.9272 39.3438,3.0042 39.3298,3.1172 L38.6598,8.7822 C38.6458,8.8952 38.7258,8.9952 38.8378,9.0092 C38.9488,9.0222 39.0498,8.9432 39.0638,8.8292 L39.7348,3.1662 Z" id="Fill-45" fill="#484F59"></path>
                <path d="M44.3882,3.717 C44.4012,3.604 44.3212,3.504 44.2082,3.491 C44.0982,3.479 43.9972,3.557 43.9842,3.669 L43.3132,9.333 C43.2992,9.446 43.3802,9.548 43.4892,9.561 C43.6032,9.574 43.7032,9.494 43.7172,9.381 L44.3882,3.717 Z" id="Fill-47" fill="#484F59"></path>
                <path d="M45.3501,3.8313 C45.3631,3.7173 45.2831,3.6173 45.1711,3.6043 C45.0591,3.5913 44.9571,3.6703 44.9441,3.7833 L44.2731,9.4463 C44.2591,9.5603 44.3411,9.6623 44.4521,9.6743 C44.5641,9.6873 44.6661,9.6073 44.6801,9.4953 L45.3501,3.8313 Z" id="Fill-49" fill="#484F59"></path>
                <path d="M50.0019,4.382 C50.0159,4.269 49.9369,4.17 49.8249,4.156 C49.7139,4.143 49.6109,4.221 49.5979,4.333 L48.9269,9.998 C48.9139,10.111 48.9949,10.212 49.1059,10.226 C49.2179,10.239 49.3179,10.158 49.3319,10.045 L50.0019,4.382 Z" id="Fill-51" fill="#484F59"></path>
                <path d="M50.9639,4.4953 C50.9779,4.3833 50.8979,4.2833 50.7849,4.2703 C50.6739,4.2573 50.5719,4.3343 50.5599,4.4483 L49.8889,10.1123 C49.8749,10.2243 49.9549,10.3253 50.0669,10.3393 C50.1779,10.3523 50.2789,10.2723 50.2929,10.1603 L50.9639,4.4953 Z" id="Fill-53" fill="#484F59"></path>
                <path d="M55.6177,5.0471 C55.6317,4.9341 55.5497,4.8341 55.4377,4.8201 C55.3257,4.8081 55.2267,4.8861 55.2137,4.9991 L54.5427,10.6621 C54.5297,10.7761 54.6077,10.8771 54.7187,10.8911 C54.8307,10.9031 54.9327,10.8241 54.9467,10.7111 L55.6177,5.0471 Z" id="Fill-55" fill="#484F59"></path>
                <path d="M56.5776,5.1613 C56.5906,5.0483 56.5106,4.9483 56.3996,4.9353 C56.2876,4.9213 56.1886,4.9993 56.1746,5.1123 L55.5036,10.7763 C55.4906,10.8903 55.5686,10.9913 55.6806,11.0043 C55.7916,11.0163 55.8936,10.9373 55.9076,10.8243 L56.5776,5.1613 Z" id="Fill-57" fill="#484F59"></path>
                <path d="M61.2314,5.7121 C61.2444,5.5991 61.1634,5.4991 61.0534,5.4861 C60.9404,5.4731 60.8394,5.5501 60.8264,5.6631 L60.1554,11.3281 C60.1414,11.4411 60.2204,11.5421 60.3354,11.5551 C60.4444,11.5681 60.5464,11.4891 60.5604,11.3751 L61.2314,5.7121 Z" id="Fill-59" fill="#484F59"></path>
                <path d="M62.1933,5.8254 C62.2073,5.7124 62.1243,5.6124 62.0133,5.5994 C61.9003,5.5874 61.8003,5.6654 61.7873,5.7784 L61.1163,11.4414 C61.1033,11.5544 61.1813,11.6564 61.2943,11.6694 C61.4043,11.6824 61.5093,11.6024 61.5233,11.4894 L62.1933,5.8254 Z" id="Fill-61" fill="#484F59"></path>
                <path d="M66.8452,6.3772 C66.8582,6.2632 66.7772,6.1632 66.6682,6.1502 C66.5532,6.1372 66.4542,6.2162 66.4412,6.3292 L65.7702,11.9922 C65.7572,12.1062 65.8352,12.2072 65.9502,12.2212 C66.0582,12.2322 66.1612,12.1532 66.1752,12.0412 L66.8452,6.3772 Z" id="Fill-63" fill="#484F59"></path>
                <path d="M67.8056,6.4904 C67.8196,6.3784 67.7396,6.2784 67.6286,6.2644 C67.5156,6.2524 67.4136,6.3294 67.4006,6.4414 L66.7306,12.1064 C66.7166,12.2194 66.7966,12.3204 66.9096,12.3344 C67.0196,12.3474 67.1206,12.2664 67.1346,12.1544 L67.8056,6.4904 Z" id="Fill-65" fill="#484F59"></path>
                <path d="M72.4595,7.0412 C72.4735,6.9292 72.3935,6.8292 72.2815,6.8162 C72.1695,6.8032 72.0685,6.8812 72.0555,6.9942 L71.3845,12.6582 C71.3715,12.7702 71.4515,12.8722 71.5625,12.8862 C71.6735,12.8982 71.7755,12.8192 71.7885,12.7062 L72.4595,7.0412 Z" id="Fill-67" fill="#484F59"></path>
                <path d="M73.4199,7.1555 C73.4329,7.0425 73.3549,6.9435 73.2429,6.9295 C73.1309,6.9165 73.0279,6.9945 73.0149,7.1075 L72.3439,12.7705 C72.3309,12.8845 72.4119,12.9865 72.5239,12.9995 C72.6359,13.0115 72.7349,12.9325 72.7489,12.8195 L73.4199,7.1555 Z" id="Fill-69" fill="#484F59"></path>
                <polygon id="Fill-71" fill="#DBECAE" points="10.4931 13.927 10.4601 14.196 75.7041 21.923 75.7361 21.654"></polygon>
                <polygon id="Fill-73" fill="#DBECAE" points="10.0215 17.9045 9.9895 18.1755 75.2335 25.9005 75.2655 25.6325"></polygon>
                <polygon id="Fill-75" fill="#DBECAE" points="9.5503 21.884 9.5183 22.154 74.7613 29.879 74.7943 29.612"></polygon>
                <polygon id="Fill-77" fill="#DBECAE" points="9.0791 25.8625 9.0471 26.1335 74.2911 33.8605 74.3231 33.5905"></polygon>
                <polygon id="Fill-79" fill="#DBECAE" points="8.6079 29.841 8.5749 30.112 73.8189 37.84 73.8509 37.569"></polygon>
                <polygon id="Fill-81" fill="#DBECAE" points="8.1367 33.8205 8.1047 34.0915 73.3487 41.8165 73.3807 41.5465"></polygon>
                <polygon id="Fill-83" fill="#DBECAE" points="7.6655 37.799 7.6335 38.07 72.8765 45.798 72.9095 45.525"></polygon>
                <polygon id="Fill-85" fill="#DBECAE" points="7.1943 41.7776 7.1613 42.0486 72.4053 49.7756 72.4383 49.5046"></polygon>
                <polygon id="Fill-87" fill="#DBECAE" points="6.7226 45.758 6.6906 46.028 71.9346 53.754 71.9666 53.486"></polygon>
                <polygon id="Fill-89" fill="#DBECAE" points="6.2514 49.7385 6.2194 50.0045 71.4634 57.7325 71.4954 57.4665"></polygon>
                <polygon id="Fill-91" fill="#DBECAE" points="5.7798 53.716 5.7478 53.984 70.9918 61.711 71.0238 61.443"></polygon>
                <polygon id="Fill-93" fill="#DBECAE" points="5.3091 57.6926 5.2771 57.9626 70.5211 65.6886 70.5531 65.4206"></polygon>
                <polygon id="Fill-95" fill="#DBECAE" points="4.8379 61.6711 4.8059 61.9421 70.0499 69.6671 70.0819 69.3991"></polygon>
                <polygon id="Fill-97" fill="#DBECAE" points="4.3672 65.6496 4.3352 65.9206 69.5782 73.6466 69.6102 73.3776"></polygon>
                <polygon id="Fill-99" fill="#DBECAE" points="3.8955 69.6291 3.8635 69.8981 69.1075 77.6241 69.1395 77.3571"></polygon>
                <polygon id="Fill-101" fill="#DBECAE" points="3.4243 73.6076 3.3923 73.8786 68.6363 81.6046 68.6683 81.3336"></polygon>
                <polygon id="Fill-103" fill="#DBECAE" points="2.9531 77.5842 2.9211 77.8562 68.1651 85.5832 68.1971 85.3122"></polygon>
                <polygon id="Fill-105" fill="#DBECAE" points="2.4819 81.5666 2.4499 81.8346 67.6939 89.5616 67.7249 89.2936"></polygon>
                <polygon id="Fill-107" fill="#DBECAE" points="2.0107 85.5451 1.9787 85.8151 67.2217 93.5411 67.2547 93.2721"></polygon>
                <polygon id="Fill-109" fill="#DBECAE" points="1.5395 89.5237 1.5075 89.7927 66.7515 97.5197 66.7835 97.2507"></polygon>
                <polygon id="Fill-111" fill="#DBECAE" points="1.0683 93.5022 1.0363 93.7712 66.2803 101.4982 66.3123 101.2292"></polygon>
                <polygon id="Fill-113" fill="#DBECAE" points="0.5972 97.4797 0.5652 97.7497 65.8092 105.4767 65.8412 105.2067"></polygon>
                <polygon id="Fill-115" fill="#F7D8AF" points="10.4936 103.3049 10.8526 103.3479 21.9226 9.8789 21.5636 9.8359"></polygon>
                <path d="M19.4443,23.1174 C19.7253,23.5064 19.8763,23.7694 20.0723,23.9734 C20.9293,24.8794 21.4053,26.0164 21.7153,27.2644 C21.8173,27.6824 21.9293,28.1074 22.0883,28.5044 C22.1623,28.6864 22.3553,28.8144 22.5913,28.8994 C22.4763,27.0684 22.1313,25.3464 21.0203,23.7414 C21.4183,23.6524 21.6753,23.5464 21.9363,23.5394 C25.3493,23.4364 28.7633,23.3414 32.1773,23.2564 C33.3473,23.2244 34.5183,23.2044 35.6873,23.2204 C36.5403,23.2294 37.3943,23.2644 38.2423,23.3714 C38.6283,23.4174 38.9373,23.3714 39.1873,23.0704 C39.2783,22.9584 39.3383,22.7274 39.2983,22.5924 C39.2573,22.4574 39.0903,22.3204 38.9553,22.2824 C38.7763,22.2294 38.5803,22.2744 38.3903,22.2784 C35.6093,22.3484 32.8273,22.4004 30.0483,22.4904 C26.7933,22.5984 23.5393,22.7334 20.2883,22.8704 C20.0593,22.8794 19.8373,22.9994 19.4443,23.1174" id="Fill-117" fill="#484F59"></path>
                <path d="M16.6113,39.966 C16.9653,40.56 17.3473,40.526 17.7323,40.529 C18.7143,40.545 19.6953,40.554 20.6753,40.604 C21.1163,40.625 21.5523,40.783 21.9913,40.8 C22.6453,40.824 23.3033,40.792 23.9573,40.757 C24.5863,40.72 25.2143,40.607 25.8453,40.596 C32.2193,40.478 38.5703,40.849 44.8803,42.21 C46.6893,42.602 48.5033,42.963 50.3133,43.34 C50.4393,43.366 50.5653,43.396 50.6913,43.41 C51.0213,43.455 51.4813,43.662 51.5253,43.083 C51.5583,42.62 51.1373,42.456 50.7833,42.392 C49.4633,42.16 48.1433,41.937 46.8203,41.725 C44.0553,41.277 41.2943,40.783 38.5213,40.412 C35.1133,39.954 31.6983,39.761 28.2743,39.841 C25.7443,39.897 23.2133,39.855 20.6803,39.812 C20.1853,39.805 19.6863,39.579 19.1873,39.479 C18.3013,39.302 17.4473,39.334 16.6113,39.966" id="Fill-119" fill="#484F59"></path>
                <path d="M16.1933,46.6535 C16.6153,46.7785 16.8913,46.9235 17.1723,46.9445 C18.1503,47.0075 19.1313,47.0705 20.1103,47.0515 C20.6993,47.0415 21.2783,46.8235 21.8693,46.8105 C23.2263,46.7835 24.5913,46.7585 25.9493,46.8475 C28.3163,47.0075 30.6833,47.2235 33.0473,47.4775 C35.4453,47.7355 37.8393,48.0665 40.2323,48.3695 C41.8103,48.5685 43.3853,48.7965 44.9613,48.9725 C45.7803,49.0625 46.6053,49.1035 47.4243,49.0975 C47.7673,49.0955 48.1043,48.9115 48.4433,48.8085 C48.4433,48.7275 48.4443,48.6415 48.4443,48.5605 C48.2653,48.4565 48.0973,48.3115 47.9083,48.2595 C47.4143,48.1225 46.9143,48.0045 46.4133,47.9175 C45.9353,47.8375 45.4443,47.6035 44.9963,48.0975 C44.8663,48.2455 44.5113,48.1585 44.2623,48.1295 C40.4503,47.6435 36.6353,47.1415 32.8223,46.6655 C29.0683,46.1935 25.3063,45.9745 21.5423,45.9545 C20.2143,45.9465 18.8883,45.9615 17.5623,45.9995 C17.1403,46.0075 16.6723,45.9615 16.1933,46.6535" id="Fill-121" fill="#484F59"></path>
                <path d="M49.8349,35.9133 C49.3129,35.7633 48.9309,35.5993 48.5409,35.5543 C46.0449,35.2753 43.5479,35.0133 41.0479,34.7633 C35.1299,34.1693 29.2109,33.9493 23.2949,34.3163 C21.8429,34.4043 20.3829,34.3743 18.9309,34.4703 C18.3809,34.5083 17.7119,34.2853 17.2949,35.0063 C17.6089,35.5423 18.0419,35.4163 18.4299,35.3923 C19.9739,35.2983 21.5129,35.1283 23.0579,35.0953 C26.7279,35.0063 30.4029,34.8263 34.0729,34.9703 C37.7759,35.1143 41.4779,35.5873 45.1759,35.9543 C45.7859,36.0173 46.3719,36.2463 47.0119,36.1713 C47.3779,36.1283 47.7929,36.4043 48.1689,36.5843 C48.7179,36.8473 49.2839,36.6903 49.8349,35.9133" id="Fill-123" fill="#484F59"></path>
                <path d="M42.1221,22.7287 C41.9271,22.9387 41.7951,23.0137 41.7721,23.1207 C41.7301,23.3247 41.7311,23.5507 41.7501,23.7627 C41.9171,25.6967 41.9661,25.9377 39.9521,26.0437 C38.4441,26.1267 36.9191,25.8467 35.4001,25.8037 C34.2011,25.7667 32.9981,25.8027 31.8061,25.8917 C29.6321,26.0517 27.4621,26.2677 25.2911,26.4787 C24.7711,26.5287 24.2161,26.5197 23.8191,27.0967 C24.0471,27.5327 24.3781,27.5447 24.7261,27.5037 C27.1431,27.2147 29.5621,26.9587 31.9741,26.6287 C33.6491,26.4027 35.3171,26.5107 36.9941,26.6577 C38.0681,26.7497 39.1451,26.8067 40.2221,26.8167 C40.7521,26.8207 41.2881,26.7147 41.8111,26.5947 C42.2511,26.4987 42.5011,26.1527 42.5361,25.6127 C42.5991,24.6767 42.6141,23.7487 42.1221,22.7287" id="Fill-125" fill="#484F59"></path>
                <path d="M22.625,53.593 C22.835,54.199 23.206,54.114 23.596,54.062 C25.32,53.82 27.049,53.612 28.798,53.834 C30.689,54.075 32.582,54.337 34.474,54.579 C36.112,54.788 37.753,54.998 39.394,55.182 C39.787,55.225 40.232,55.283 40.533,54.623 C39.712,54.077 38.831,53.754 37.915,53.394 C38.044,53.64 38.175,53.89 38.402,54.322 C37.301,54.19 36.336,54.083 35.375,53.956 C32.979,53.638 30.587,53.197 28.188,53.029 C26.526,52.912 24.849,53.17 23.178,53.267 C23.058,53.275 22.936,53.337 22.826,53.4 C22.746,53.445 22.686,53.534 22.625,53.593" id="Fill-127" fill="#484F59"></path>
                <path d="M82.0498,130.9787 L81.6768,128.0867 L76.5618,128.7487 L76.9348,131.6367 C76.9728,131.9437 77.2568,132.1577 77.5638,132.1167 L81.5608,131.6007 C81.8718,131.5617 82.0908,131.2847 82.0498,130.9787" id="Fill-129" fill="#FF876C"></path>
                <path d="M81.3467,131.0149 L80.9817,128.1789 L78.8097,128.4589 L79.1747,131.2929 C79.1927,131.4449 79.3317,131.5489 79.4867,131.5319 L81.1047,131.3199 C81.2597,131.2989 81.3677,131.1629 81.3467,131.0149" id="Fill-131" fill="#FFA38F"></path>
                <path d="M77.7588,128.594 L76.5618,128.748 L76.9348,131.637 C76.9728,131.944 77.2568,132.157 77.5638,132.116 L78.2008,132.033 L77.7588,128.594 Z" id="Fill-133" fill="#E36E54"></path>
                <path d="M80.4853,118.3 L68.7283,30.989 C68.1103,31.164 67.6823,31.7 67.6783,32.307 L79.2853,118.454 L80.4853,118.3 Z" id="Fill-135" fill="#954F3F"></path>
                <path d="M76.4355,118.8215 L79.2855,118.4545 L67.6785,32.3065 C67.6785,32.3005 67.6735,32.2965 67.6735,32.2965 L67.6735,32.3075 C67.5025,31.6535 66.8335,31.2165 66.1025,31.3085 C65.3715,31.4075 64.8365,31.9995 64.8365,32.6705 C64.8345,32.6685 64.8345,32.6625 64.8305,32.6575 C64.8315,32.6625 64.8305,32.6685 64.8305,32.6685 L64.8305,32.6735 L76.4355,118.8215 Z" id="Fill-137" fill="#AD5C49"></path>
                <path d="M64.8306,32.6731 C64.6716,32.0871 64.1216,31.6751 63.4826,31.6631 L75.2396,118.9791 L76.4356,118.8211 L64.8306,32.6731 Z" id="Fill-139" fill="#954F3F"></path>
                <path d="M63.4785,31.6633 C64.1175,31.6753 64.6715,32.0873 64.8305,32.6733 C64.8305,32.6733 64.8325,32.6623 64.8305,32.6573 C64.8345,32.6623 64.8345,32.6683 64.8365,32.6703 C64.8365,31.9993 65.3715,31.4073 66.1025,31.3093 C66.8335,31.2163 67.5025,31.6533 67.6735,32.3083 L67.6735,32.2943 C67.6735,32.2943 67.6785,32.3003 67.6785,32.3073 C67.6845,31.6983 68.1135,31.1583 68.7315,30.9893 L64.7145,20.5593 L63.4785,31.6633 Z" id="Fill-141" fill="#E5E8EC"></path>
                <path d="M63.4785,31.6633 C64.1175,31.6753 64.6715,32.0873 64.8305,32.6733 C64.8305,32.6733 64.8325,32.6623 64.8305,32.6573 C64.8345,32.6623 64.8345,32.6683 64.8365,32.6703 C64.8365,31.9993 64.7145,20.5593 64.7145,20.5593 L63.4785,31.6633 Z" id="Fill-143" fill="#CDD5D7"></path>
                <polygon id="Fill-145" fill="#F0CA67" points="80.458 118.302 75.269 118.973 76.542 128.854 81.731 128.183"></polygon>
                <polygon id="Fill-147" fill="#F4DA80" points="78.7388 118.5246 77.6768 118.6616 78.9488 128.5426 80.0098 128.4036"></polygon>
                <path d="M64.3447,23.9065 C64.5927,23.9085 64.8427,23.9025 65.0967,23.8715 C65.3787,23.8345 65.6557,23.7685 65.9207,23.6885 L64.7147,20.5585 L64.3447,23.9065 Z" id="Fill-149" fill="#30363D"></path>
                <polygon id="Fill-151" fill="#F4DA80" points="80.3056 120.8205 80.1206 119.3965 80.4556 119.3525 80.6426 120.7765"></polygon>
                <polygon id="Fill-153" fill="#F4DA80" points="79.543 120.9162 79.36 119.4952 79.693 119.4512 79.878 120.8762"></polygon>
                <polygon id="Fill-155" fill="#F0CA67" points="78.7788 121.0158 78.5968 119.5948 78.9298 119.5498 79.1138 120.9738"></polygon>
                <polygon id="Fill-157" fill="#F0CA67" points="78.0166 121.1154 77.8336 119.6914 78.1666 119.6484 78.3516 121.0744"></polygon>
                <polygon id="Fill-159" fill="#F4DA80" points="77.2549 121.2121 77.0709 119.7901 77.4039 119.7471 77.5889 121.1701"></polygon>
                <polygon id="Fill-161" fill="#F4DA80" points="76.4907 121.3127 76.3057 119.8887 76.6417 119.8457 76.8237 121.2697"></polygon>
                <polygon id="Fill-163" fill="#F4DA80" points="75.7275 121.4094 75.5445 119.9874 75.8775 119.9454 76.0605 121.3694"></polygon>
                <polygon id="Fill-165" fill="#F4DA80" points="81.0864 126.8762 80.9034 125.4542 81.2364 125.4122 81.4194 126.8362"></polygon>
                <polygon id="Fill-167" fill="#F4DA80" points="80.3242 126.9768 80.1402 125.5528 80.4752 125.5108 80.6592 126.9318"></polygon>
                <polygon id="Fill-169" fill="#F0CA67" points="79.5591 127.0744 79.3751 125.6494 79.7111 125.6074 79.8941 127.0324"></polygon>
                <polygon id="Fill-171" fill="#F0CA67" points="78.7969 127.175 78.6149 125.749 78.9479 125.708 79.1319 127.133"></polygon>
                <polygon id="Fill-173" fill="#F4DA80" points="78.0351 127.2737 77.8511 125.8477 78.1841 125.8037 78.3681 127.2297"></polygon>
                <polygon id="Fill-175" fill="#F4DA80" points="77.271 127.3694 77.087 125.9464 77.421 125.9034 77.605 127.3254"></polygon>
                <polygon id="Fill-177" fill="#F4DA80" points="76.5098 127.469 76.3258 126.045 76.6568 126.002 76.8418 127.425"></polygon>
                <path d="M51.3535,42.0529 C53.0415,42.8189 51.6275,42.8949 51.5215,43.0199 C50.8815,43.7709 43.9785,42.6729 43.5575,41.6749 C43.4925,41.5039 46.7445,41.0879 46.7635,40.9659 C46.9905,39.5319 47.0905,38.3169 46.7165,36.6999 C46.7365,36.5739 46.8335,36.4789 46.9335,36.4829 C47.5395,36.5079 48.1485,36.5259 48.7585,36.5539 C48.8565,36.5589 50.0435,36.8439 49.7685,37.4119 C49.6125,38.9779 49.5685,41.2409 51.3535,42.0529" id="Fill-179" fill="#FFFFFF"></path>
                <path d="M50.4668,37.7492 C50.5058,37.6962 50.5448,37.6452 50.5818,37.5922 C50.5908,37.5742 50.6038,37.5582 50.6138,37.5412 C50.6618,37.4732 50.7058,37.4012 50.7528,37.3282 C50.7618,37.3112 50.7718,37.2912 50.7858,37.2702 C50.8158,37.2172 50.8468,37.1622 50.8818,37.1052 C50.8968,37.0742 50.9148,37.0452 50.9318,37.0122 C50.9578,36.9642 50.9818,36.9162 51.0098,36.8662 C51.0248,36.8342 51.0438,36.8002 51.0608,36.7652 C51.0928,36.7002 51.1248,36.6382 51.1538,36.5702 C51.1778,36.5202 51.2008,36.4712 51.2228,36.4192 C51.2418,36.3712 51.2638,36.3252 51.2818,36.2802 C51.3028,36.2362 51.3208,36.1872 51.3408,36.1402 C51.3568,36.0992 51.3728,36.0582 51.3898,36.0172 C51.4008,35.9812 51.4138,35.9482 51.4278,35.9172 L51.4278,35.9122 C51.6428,35.3372 51.9998,32.4952 51.8128,31.0662 C51.7898,30.8922 51.6498,30.7332 51.4138,30.7122 C50.0048,30.5942 45.8488,29.5392 46.1478,33.7652 C46.1468,33.7672 46.1468,33.7672 46.1468,33.7702 C46.1468,33.7782 46.1398,34.1382 46.1398,34.3022 C46.1418,34.3152 46.1418,34.3292 46.1418,34.3442 C46.1458,34.5092 46.1528,34.6732 46.1598,34.8342 C46.1618,34.8452 46.1618,34.8532 46.1638,34.8622 C46.1738,35.0282 46.1878,35.1902 46.2048,35.3462 C46.2048,35.3532 46.2048,35.3572 46.2078,35.3632 C46.4398,37.3702 47.2448,38.8332 48.3738,38.9782 C49.0348,39.0622 49.6988,38.6862 50.2848,37.9822 C50.2908,37.9782 50.2938,37.9742 50.2988,37.9662 C50.3428,37.9142 50.3858,37.8582 50.4288,37.8002 C50.4438,37.7832 50.4538,37.7662 50.4668,37.7492" id="Fill-181" fill="#FFFFFF"></path>
                <path d="M49.3555,31.1535 C49.0695,30.7785 47.7775,30.3915 47.7775,30.3915 C47.7245,29.9355 48.0285,29.7825 48.4135,29.4435 C49.1585,28.7915 50.4525,28.8235 51.3025,29.5125 C52.1515,30.2035 52.2365,31.2935 51.4925,31.9435 C50.9705,32.4015 50.1805,32.5215 49.4625,32.3185 C49.5005,32.1245 49.8365,31.7835 49.3555,31.1535" id="Fill-183" fill="#FF8800"></path>
                <path d="M69.8931,47.4514 C69.8931,47.4514 70.1171,47.6964 70.3171,47.5354 C70.6491,47.2644 71.0371,46.5034 71.1631,46.2254 C71.3051,45.9164 71.7271,44.3494 71.7271,44.3494 C71.7271,44.3494 71.2321,44.6974 71.0601,45.3264 C70.8091,46.2454 69.8931,47.4514 69.8931,47.4514" id="Fill-185" fill="#E2C59C"></path>
                <path d="M70.0049,47.258 C70.4619,46.854 70.5929,46.155 70.5489,45.3 C70.5079,44.487 70.9139,44.153 70.9139,44.153 C70.9139,44.153 70.9959,44.675 70.9269,45.943 C70.9089,46.298 70.8659,46.687 70.7199,47.007 C70.2799,47.977 68.8279,48.306 70.0049,47.258" id="Fill-187" fill="#E2C59C"></path>
                <path d="M55.7881,133.0959 C55.7881,133.0959 55.1391,132.8509 53.3651,132.6009 C52.3301,132.4569 51.5501,132.4999 51.1601,132.1339 C50.5221,131.5249 50.8141,129.4989 50.5171,129.5829 C49.0811,129.9849 48.7001,133.4629 49.5691,133.8479 C50.4381,134.2319 55.2171,133.8509 55.6111,133.8019 C56.0011,133.7519 55.9051,132.9999 55.7881,133.0959" id="Fill-189" fill="#FFFFFF"></path>
                <path d="M43.2754,99.2883 C43.3524,98.4113 43.4384,97.5453 43.5274,96.6943 C44.0464,95.3843 44.5554,94.6573 45.0234,94.6663 C46.7894,94.7193 49.2864,101.2363 46.1164,118.3113 C45.9574,119.1713 44.3564,133.8453 44.2534,133.5163 C42.9684,129.4093 42.1124,112.2983 43.2754,99.2883" id="Fill-191" fill="#FFFFFF"></path>
                <path d="M44.0005,70.1037 C45.3765,69.8087 45.4275,70.6077 46.4775,72.5697 C48.5385,76.4107 49.8065,82.1667 49.2955,88.3677 C48.7045,95.6287 47.0225,102.0067 44.8845,106.0597 C43.3845,102.7317 42.5635,98.6847 41.8475,94.1917 C39.6185,80.2187 39.7715,70.9997 44.0005,70.1037" id="Fill-193" fill="#FFFFFF"></path>
                <path d="M46.168,86.132 C44.302,85.752 42.467,85.653 40.748,85.769 C40.971,88.129 41.307,90.717 41.74,93.503 C43.7,91.192 47.757,92.212 48.713,93.272 C48.962,91.695 49.158,90.055 49.296,88.367 C49.338,87.879 49.365,87.396 49.382,86.913 C48.35,86.617 47.275,86.354 46.168,86.132" id="Fill-195" fill="#E4EEF3"></path>
                <path d="M35.0703,51.7912 C37.2153,53.5702 39.4863,62.0362 39.4863,62.0362 C39.4863,62.0362 39.4063,65.4372 34.3263,54.9472 C32.7993,51.7952 34.5413,51.3512 35.0703,51.7912" id="Fill-197" fill="#FFFFFF"></path>
                <path d="M56.2627,49.3117 C57.9367,51.7247 57.1087,60.4517 57.1087,60.4517 C57.1087,60.4517 55.6737,63.6217 54.1927,52.0217 C53.7497,48.5407 55.8497,48.7197 56.2627,49.3117" id="Fill-199" fill="#FFFFFF"></path>
                <path d="M55.9219,59.7492 C57.2229,56.6062 66.2419,50.5842 66.2419,50.5842 C66.2419,50.5842 70.2229,49.2822 59.8559,59.2972 C56.7409,62.3062 55.6019,60.5292 55.9219,59.7492" id="Fill-201" fill="#FFFFFF"></path>
                <path d="M70.2461,46.635 L70.4271,46.883 L70.1951,47.916 C70.1951,47.916 69.0661,49.448 68.4311,49.874 C67.7981,50.302 66.1291,52.697 65.8481,52.927 C65.5691,53.156 64.0161,52.504 64.0161,52.504 C64.0161,52.504 66.2851,50.509 67.1191,49.639 C67.9501,48.775 68.7101,47.121 69.0241,46.773 C69.5591,46.169 69.7971,45.836 69.7971,45.836 C69.7971,45.836 70.0801,46.166 69.2931,47.158 C69.0871,47.419 69.4901,47.512 69.4901,47.512 L70.2461,46.635 Z" id="Fill-203" fill="#FFFFFF"></path>
                <path d="M54.6255,72.9006 C53.5905,72.6456 53.5505,73.3916 52.7535,75.2396 C51.1915,78.8546 50.2195,84.2506 50.5845,90.0356 C51.0115,96.8126 52.2585,102.7526 53.8565,106.5076 C54.9945,103.3796 55.6255,99.5876 56.1775,95.3816 C57.8955,82.2956 57.8055,73.6816 54.6255,72.9006" id="Fill-205" fill="#FFFFFF"></path>
                <path d="M54.5039,88.5754 C54.5889,86.2764 54.6219,84.1954 54.6019,82.3494 C54.2459,81.9534 54.0649,82.1914 53.4739,82.4284 C52.3279,82.8844 51.2099,84.1164 50.4829,86.0504 C50.4759,87.3454 50.5059,88.6784 50.5829,90.0354 C50.6689,91.5374 50.7809,92.9934 50.9109,94.3994 C51.3539,93.8834 51.7819,93.2844 52.2139,92.6344 C53.1749,91.1864 53.9529,89.8244 54.5039,88.5754" id="Fill-207" fill="#E4EEF3"></path>
                <path d="M53.3467,95.8635 C52.6527,95.5495 51.4577,96.4665 50.6857,98.2115 C49.1657,101.6295 48.8567,106.2325 48.8287,111.9085 C48.7987,117.9115 49.0017,122.3735 49.2637,126.0605 C49.5207,129.6985 48.2267,134.8625 50.9517,134.2485 C50.3887,129.2505 50.8677,121.7865 52.1517,117.8245 C56.5407,104.2965 55.4787,96.8335 53.3467,95.8635" id="Fill-209" fill="#FFFFFF"></path>
                <polygon id="Fill-211" fill="#194866" points="53.0952 53.7834 42.4292 53.5234 41.3172 41.3024 54.6312 42.7304"></polygon>
                <path d="M39.4599,90.2619 C45.5039,89.4719 51.5479,88.6839 57.5919,87.8959 C60.8619,76.8869 58.0079,64.5469 53.1199,53.6499 C49.5369,53.5289 45.9509,53.4069 42.3669,53.2839 C38.7099,64.9759 35.3939,78.4539 39.4599,90.2619" id="Fill-213" fill="#194866"></path>
                <path d="M36.1748,53.4826 L43.2898,42.4616 C43.1628,42.1576 42.9438,41.8856 42.6438,41.6906 L42.4428,41.5566 C41.6498,41.0486 40.5998,41.2726 40.0918,42.0666 L33.8738,51.6916 L36.1748,53.4826 Z" id="Fill-215" fill="#194866"></path>
                <path d="M54.7749,56.1496 L52.9789,43.1536 C53.2249,42.9306 53.5389,42.7746 53.8929,42.7286 L54.1319,42.6936 C55.0609,42.5656 55.9189,43.2156 56.0459,44.1446 L57.6159,55.4976 L54.7749,56.1496 Z" id="Fill-217" fill="#194866"></path>
                <path d="M39.6299,64.3147 C39.5789,64.5067 39.3809,64.6227 39.1839,64.5717 L38.7159,64.4497 C38.5219,64.3987 38.4039,64.1997 38.4549,64.0037 L39.0069,61.8917 C39.0599,61.6977 39.2569,61.5817 39.4509,61.6317 L39.9209,61.7537 C40.1149,61.8087 40.2319,62.0027 40.1839,62.1997 L39.6299,64.3147 Z" id="Fill-219" fill="#FFFFFF"></path>
                <path d="M44.2666,134.9621 C43.5106,137.3831 42.3786,139.1831 41.7406,138.9851 C41.1006,138.7831 41.1936,136.6611 41.9486,134.2391 C42.7046,131.8201 43.8336,130.0231 44.4746,130.2211 C45.1116,130.4201 45.0196,132.5431 44.2666,134.9621" id="Fill-221" fill="#AD5C49"></path>
                <path d="M49.6357,131.4153 C49.6357,131.4483 49.6637,131.4733 49.6987,131.4733 L49.8207,131.4693 C49.8537,131.4663 49.8787,131.4373 49.8767,131.4033 C49.8737,131.3703 49.8467,131.3453 49.8147,131.3463 L49.6937,131.3533 C49.6577,131.3563 49.6317,131.3813 49.6357,131.4153" id="Fill-223" fill="#FFFFFF"></path>
                <path d="M54.7749,132.8342 C55.1009,133.9662 51.5649,133.6732 50.6419,133.4172 C49.7599,133.1772 49.1989,133.1102 49.1989,133.1102 C49.1639,133.1132 49.1279,133.1102 49.0919,133.1102 C49.0909,133.1382 49.0809,133.1652 49.0809,133.1932 C49.1129,133.8222 48.8759,134.6702 49.8789,134.6232 L56.1809,134.3202 C61.3319,134.0742 54.7659,132.8072 54.7749,132.8342" id="Fill-225" fill="#AD5C49"></path>
                <path d="M69.8218,47.8869 C69.8218,47.8869 70.4428,47.1399 70.4798,46.6499 C70.5078,46.3109 70.3638,44.6929 70.3638,44.6929 C70.3638,44.6929 70.0178,45.1909 70.0738,45.8379 C70.1548,46.7869 69.8218,47.8869 69.8218,47.8869" id="Fill-227" fill="#FFFFFF"></path>
                <path d="M69.4902,47.5119 C69.4902,47.5119 69.2162,47.4689 69.1662,47.3549 C69.1272,47.4399 69.1152,47.5309 69.0932,47.5999 C69.0492,47.7569 68.5552,48.7359 68.5552,48.7359 C68.5552,48.7359 69.0472,48.0959 69.2312,47.9439 C69.3472,47.8459 69.5392,47.5739 69.7042,47.3439 C69.7242,47.3169 69.7312,47.2559 69.7612,47.1999 L69.4902,47.5119 Z" id="Fill-229" fill="#E2C59C"></path>
                <path d="M69.293,47.1584 C69.824,46.4904 69.868,46.1214 69.841,45.9524 C69.716,46.1104 69.514,46.3604 69.213,46.6994 C69.103,46.8234 68.939,47.1004 68.738,47.4514 C68.698,47.5164 68.939,47.6904 68.794,48.3434 C68.77,48.4634 69.24,47.8844 69.438,47.4964 C69.336,47.4594 69.138,47.3574 69.293,47.1584" id="Fill-231" fill="#E2C59C"></path>
                <path d="M54.2256,35.3801 L53.5166,29.7781 C52.5106,28.6831 51.2066,28.0831 49.8686,28.2491 C47.2856,28.5791 45.5426,31.6371 45.9796,35.0831 C46.4156,38.5281 48.8626,41.0571 51.4446,40.7341 C53.2516,40.5061 54.6476,38.9411 55.1706,36.8381 C54.6626,36.5121 54.3026,35.9961 54.2256,35.3801" id="Fill-233" fill="#AD5C49"></path>
                <path d="M43.9326,38.4221 C43.8176,39.3131 44.7446,40.1661 45.9996,40.3271 L48.8646,40.6951 C50.1226,40.8551 51.2336,40.2651 51.3466,39.3731 L52.3906,31.2461 C52.5046,30.3571 51.5796,29.5031 50.3226,29.3401 L47.4586,28.9751 C46.1996,28.8121 45.0906,29.4011 44.9776,30.2921 L43.9326,38.4221 Z" id="Fill-235" fill="#AD5C49"></path>
            </g>
        </g>
    </g>
</svg>