<?xml version="1.0" encoding="UTF-8"?>
<svg width="78px" height="155px" viewBox="0 0 78 155" version="1.1" xmlns="http://www.w3.org/2000/svg" xmlns:xlink="http://www.w3.org/1999/xlink">
    <!-- Generator: Sketch 48 (47235) - http://www.bohemiancoding.com/sketch -->
    <title>Page 1</title>
    <desc>Created with Sketch.</desc>
    <defs>
        <polygon id="path-1" points="0 154.414 77.189 154.414 77.189 -2.84217094e-14 0 -2.84217094e-14"></polygon>
    </defs>
    <g id="Page-1" stroke="none" stroke-width="1" fill="none" fill-rule="evenodd">
        <g>
            <path d="M59.1831,71.0175 C59.1831,71.0175 50.0261,85.7645 46.0971,86.8785 C42.2671,87.9635 44.7881,84.6685 46.2341,81.9265 C47.6791,79.1875 53.2911,71.8435 54.0301,70.8125 C54.9501,69.5265 56.3901,69.7685 59.1831,71.0175" id="Fill-1" fill="#163F59"></path>
            <path d="M64.896,95.4599 L55.752,127.3739 C55.752,127.3739 49.64,129.5579 49.718,122.1319 C49.796,114.7039 51.331,96.2269 51.331,96.2269 L64.896,95.4599 Z" id="Fill-3" fill="#163F59"></path>
            <path d="M72.9468,70.1543 C72.9468,70.1543 70.4638,72.3683 70.3448,75.8883 C70.2288,79.4093 63.1668,72.8613 63.1668,72.8613 C63.1668,72.8613 67.0718,71.7163 63.9048,67.6213 C62.2198,65.4393 72.9208,68.6603 72.9468,70.1543" id="Fill-5" fill="#EDEEF0"></path>
            <path d="M72.5689,78.206 C72.5689,78.206 70.7819,76.196 66.4049,74.092 C62.3079,72.121 57.8969,70.675 57.0309,70.788 C55.2409,71.022 53.3749,79.511 52.4749,86.766 C51.9059,91.358 50.7459,94.978 50.7459,94.978 C50.7459,94.978 62.3399,105.137 63.3589,105.276 C64.3789,105.417 67.5689,103.361 67.8259,101.143 C68.0809,98.926 69.6259,86.238 71.7889,84.683 C73.9509,83.125 74.9829,79.256 72.5689,78.206" id="Fill-7" fill="#D1DBEA"></path>
            <path d="M55.4702,97.3056 C54.9372,97.1666 54.4042,97.0276 53.8702,96.8876 C56.1572,88.2246 60.2022,80.1306 65.7572,73.1066 C66.1272,73.3956 66.4962,73.6836 66.8672,73.9726 C61.5022,80.8876 57.6242,88.8286 55.4702,97.3056" id="Fill-9" fill="#B0BFDE"></path>
            <mask id="mask-2" fill="white">
                <use xlink:href="#path-1"></use>
            </mask>
            <g id="Clip-12"></g>
            <polygon id="Fill-11" fill="#593446" mask="url(#mask-2)" points="50.412 151.654 54.433 151.654 54.433 145.527 50.412 145.527"></polygon>
            <polygon id="Fill-13" fill="#593446" mask="url(#mask-2)" points="71.8111 147.2216 72.3881 151.1306 68.0651 152.3146 68.3171 146.3686"></polygon>
            <path d="M56.2837,122.5537 L54.8397,149.9327 L49.9887,149.6757 C49.9887,149.6757 48.6257,121.7877 50.4127,120.7667 C52.1997,119.7457 56.2837,121.2777 56.2837,122.5537" id="Fill-14" fill="#163F59" mask="url(#mask-2)"></path>
            <path d="M68.6646,98.4365 L68.9666,126.7405 C68.9666,126.7405 65.3296,129.2015 63.6806,127.7965 C62.4016,126.7075 58.9346,114.0725 57.4266,105.8785 C56.9896,103.4955 52.9766,99.9335 53.2346,97.7835 C53.3576,96.7765 68.6646,98.4365 68.6646,98.4365" id="Fill-15" fill="#194866" mask="url(#mask-2)"></path>
            <path d="M68.8599,122.0888 L72.7159,149.3738 L67.5879,149.4618 C67.5879,149.4618 59.7689,119.0228 63.0469,119.3398 C66.1669,119.6428 68.6929,121.1968 68.8599,122.0888" id="Fill-16" fill="#194866" mask="url(#mask-2)"></path>
            <path d="M54.2417,153.4394 L51.3047,153.4394 L51.3047,152.5464 L50.0287,153.4394 L42.6267,153.4394 C42.6267,153.4394 42.7547,152.2284 47.7307,152.0374 C49.0087,151.9874 49.9017,150.2514 49.9017,150.2514 C49.9017,150.2514 50.5407,149.6754 51.4967,151.0164 C51.7467,151.3644 54.4327,150.6974 54.4327,150.6974 C54.4327,150.6974 54.6877,152.4834 54.2417,153.4394" id="Fill-17" fill="#081832" mask="url(#mask-2)"></path>
            <path d="M72.3628,153.4795 L69.4248,153.6095 L69.3928,152.7055 L68.1478,153.6665 L60.7438,153.9995 C60.7438,153.9995 60.8268,152.7645 65.7998,152.3475 C67.0758,152.2405 67.9048,150.4385 67.9048,150.4385 C67.9048,150.4385 68.5208,149.8295 69.5288,151.1445 C69.7898,151.4865 72.4538,150.6895 72.4538,150.6895 C72.4538,150.6895 72.7748,152.4885 72.3628,153.4795" id="Fill-18" fill="#081832" mask="url(#mask-2)"></path>
            <path d="M74.0835,67.3349 C74.9855,65.1599 73.2585,60.3139 71.8545,60.5009 C71.2505,60.5819 70.7005,60.7449 70.2675,60.9879 C69.7585,61.3019 69.2535,61.6089 68.7585,61.9089 C68.6435,61.9739 68.5405,62.0559 68.4415,62.1449 C68.4335,62.1499 68.4225,62.1509 68.4145,62.1589 L63.3885,66.5109 C63.2325,66.6459 63.2175,66.8789 63.3505,67.0329 L66.2095,70.3349 C66.3315,70.4769 69.4885,70.9439 70.1135,70.9139 C70.8295,70.9269 71.4335,71.0799 71.9205,70.9679 C72.5425,70.8219 73.2725,69.2849 74.0835,67.3349" id="Fill-19" fill="#EDEEF0" mask="url(#mask-2)"></path>
            <polygon id="Fill-20" fill="#EDEEF0" mask="url(#mask-2)" points="70.9751 62.3916 69.9391 65.3716 68.9071 68.3556 66.8421 65.9686 64.7771 63.5836 67.8751 62.9876"></polygon>
            <path d="M72.0298,71.3916 L75.8168,66.7866 C75.8168,66.7866 76.4098,65.9246 74.7428,63.2536 C73.0748,60.5826 71.9828,60.1216 71.9828,60.1216 L70.4788,59.6436 L69.8378,61.1526 L72.4068,63.6606 L70.2258,64.6946 L68.7918,66.9266 L69.3218,67.6096 L69.3008,67.6786 C69.3008,67.6786 70.2588,66.5516 71.3078,66.7326 C72.3578,66.9136 72.1968,68.0456 71.2668,68.4046 C70.3388,68.7626 70.1838,69.0436 70.1838,69.0436 L70.2558,70.5706 L72.0298,71.3916 Z" id="Fill-21" fill="#194866" mask="url(#mask-2)"></path>
            <polygon id="Fill-22" fill="#B0BFDE" mask="url(#mask-2)" points="66.479 72.7392 65.545 73.9542 63.211 74.8962 62.705 72.4142 64.534 71.0842"></polygon>
            <polygon id="Fill-23" fill="#B0BFDE" mask="url(#mask-2)" points="71.1802 74.582 70.9792 76.52 66.7382 76.802 65.5452 73.954 66.4792 72.739"></polygon>
            <path d="M68.6646,98.3974 C68.6646,98.3974 66.8916,98.2234 64.5486,98.0304 C65.7626,102.1414 64.9616,103.8534 64.1886,106.2564 C63.3116,108.9994 63.9586,112.2184 63.9586,112.2184 L68.7926,109.3434 L68.6646,98.3974 Z" id="Fill-24" fill="#163F59" mask="url(#mask-2)"></path>
            <polygon id="Fill-25" fill="#AD5C49" mask="url(#mask-2)" points="68.3921 99.3515 50.7751 97.2695 50.9551 95.7475 68.5721 97.8305"></polygon>
            <polygon id="Fill-26" fill="#163F59" mask="url(#mask-2)" points="53.0005 97.8388 52.3665 97.7648 52.6075 95.7268 53.2415 95.8018"></polygon>
            <polygon id="Fill-27" fill="#163F59" mask="url(#mask-2)" points="58.7427 98.5175 58.1087 98.4425 58.3497 96.4055 58.9837 96.4805"></polygon>
            <polygon id="Fill-28" fill="#163F59" mask="url(#mask-2)" points="65.9038 99.3632 65.2688 99.2892 65.5098 97.2522 66.1438 97.3262"></polygon>
            <path d="M76.7105,79.4482 L70.9795,76.5202 C70.9795,76.5202 63.4165,86.1472 65.3945,92.9962 C67.1995,99.2432 66.5485,101.1292 65.6705,104.1552 C64.7915,107.1832 65.4385,110.7392 65.4385,110.7392 L73.5695,105.3982 C73.5695,105.3982 74.9695,103.5772 74.4555,101.7332 C73.9395,99.8882 72.1805,95.4772 73.1845,90.6132 C74.1885,85.7492 75.8085,80.2042 76.7105,79.4482" id="Fill-29" fill="#194866" mask="url(#mask-2)"></path>
            <path d="M74.5044,78.4257 L72.2334,82.6357 L69.5634,83.8057 L70.2724,86.4427 C70.2724,86.4427 67.1924,87.6987 66.6094,96.0237 C66.5874,96.3477 62.8874,89.5827 67.9294,81.7427 C69.6544,79.0597 70.9794,76.5207 70.9794,76.5207 L74.5044,78.4257 Z" id="Fill-30" fill="#163F59" mask="url(#mask-2)"></path>
            <path d="M49.2886,104.3369 C49.2886,104.3369 54.0556,84.9509 55.3376,82.2049 C56.5296,79.6499 62.7046,72.4139 62.7046,72.4139 L56.8926,70.1459 C56.8926,70.1459 50.5206,78.7369 50.4136,81.3899 C50.3816,82.1899 49.6676,88.0609 49.5016,90.4679 C49.4086,91.7909 46.6246,98.7449 47.3296,99.9469 C48.1276,101.3139 49.6266,104.5379 49.2886,104.3369" id="Fill-31" fill="#194866" mask="url(#mask-2)"></path>
            <path d="M53.8755,84.9453 C53.8755,84.9453 54.9725,82.8893 57.1275,79.8783 C59.2815,76.8663 62.7045,72.4143 62.7045,72.4143 L58.9915,71.1693 L56.2225,74.3523 L57.3055,75.6683 L54.7065,77.3723 C54.7065,77.3723 53.9695,81.4733 53.8755,84.9453" id="Fill-32" fill="#163F59" mask="url(#mask-2)"></path>
            <path d="M39.5464,70.7246 L39.0704,67.7286 L37.6274,66.5716 L36.0354,68.1256 L35.1144,69.4536 L35.2984,70.6356 C35.2984,70.6356 37.0094,72.3466 38.3484,72.2846 C39.6874,72.2206 39.5464,70.7246 39.5464,70.7246" id="Fill-33" fill="#EDEEF0" mask="url(#mask-2)"></path>
            <path d="M46.8706,83.792 C46.8706,83.792 47.2746,86.235 45.7296,87.083 C44.1866,87.932 41.7796,85.188 39.9416,80.801 C38.1036,76.412 37.0866,72.505 37.0866,72.505 L39.3876,70.997 C39.3876,70.997 47.2006,82.458 46.8706,83.792" id="Fill-34" fill="#194866" mask="url(#mask-2)"></path>
            <path d="M22.2964,94.6845 L47.1594,94.3815 C48.0334,94.3725 48.7374,93.6595 48.7284,92.7795 C48.7174,91.9005 47.9954,91.1985 47.1204,91.2085 L22.2564,91.5105 C21.3774,91.5225 20.6774,92.2415 20.6884,93.1205 C20.7004,93.9985 21.4164,94.6955 22.2964,94.6845" id="Fill-35" fill="#282D33" mask="url(#mask-2)"></path>
            <path d="M2.9927,31.3408 C2.7857,14.2338 16.4717,0.2098 33.5757,0.0018 C50.6827,-0.2052 64.7067,13.4818 64.9127,30.5888 C64.9267,31.5958 64.3587,45.9138 52.8777,61.0788 C49.5157,65.6568 50.1917,74.7568 50.2197,74.7578 C45.4247,74.8148 41.4817,74.8618 36.6797,74.9208 C35.2097,74.9398 33.7437,74.9558 32.2817,74.9758 C27.4857,75.0328 23.4687,75.0828 18.6787,75.1398 C18.7057,75.1398 19.2217,66.0248 15.7637,61.5288 C3.9037,46.6388 3.0047,32.3488 2.9927,31.3408" id="Fill-36" fill="#DBE4E9" mask="url(#mask-2)"></path>
            <path d="M24.5064,71.0302 C24.2484,67.1342 23.2044,59.8072 20.7504,56.6202 C9.4834,42.4722 8.8184,28.9632 8.8174,28.8302 C8.6384,14.0012 20.5684,1.7762 35.4124,1.5962 C50.2604,1.4152 62.4854,13.3462 62.6664,28.1892 C62.6634,28.3092 62.3224,41.8382 51.4454,56.1972 C49.0324,59.4752 48.1394,66.8392 47.9524,70.7452 L24.5064,71.0302 Z" id="Fill-37" fill="#E4EEF3" mask="url(#mask-2)"></path>
            <path d="M58.3638,33.0771 C57.0288,33.0941 55.9288,32.0271 55.9138,30.6911 C55.7668,18.5801 45.7928,8.8511 33.6838,8.9991 C32.3448,9.0151 31.2508,7.9441 31.2338,6.6101 C31.2178,5.2681 32.2868,4.1721 33.6258,4.1551 C48.4078,3.9751 60.5778,15.8531 60.7578,30.6321 C60.7728,31.9691 59.7048,33.0611 58.3638,33.0771" id="Fill-38" fill="#FFFFFF" mask="url(#mask-2)"></path>
            <polygon id="Fill-39" fill="#484F59" mask="url(#mask-2)" points="26.5894 77.4414 22.1824 45.5744 23.7924 45.0684 28.2004 76.9334"></polygon>
            <polygon id="Fill-40" fill="#484F59" mask="url(#mask-2)" points="42.354 77.249 45.988 45.284 44.363 44.818 40.73 76.781"></polygon>
            <path d="M44.7124,49.2968 C43.6014,49.3108 43.1084,48.2308 42.7474,47.4458 C42.5954,47.1158 42.2804,46.4358 42.1064,46.4388 C41.9334,46.4408 41.6374,47.1298 41.4954,47.4618 C41.1544,48.2548 40.6844,49.3458 39.5724,49.3588 C38.4624,49.3728 37.9684,48.2928 37.6044,47.5088 C37.5254,47.3268 37.3964,47.0438 37.2634,46.8218 C36.7124,47.8798 35.6974,49.4078 34.4394,49.4218 C33.3274,49.4358 32.8294,48.3558 32.4714,47.5698 C32.3174,47.2428 32.0044,46.5608 31.8314,46.5628 C31.6594,46.5668 31.3624,47.2528 31.2174,47.5848 C30.8774,48.3788 30.4094,49.4718 29.2954,49.4838 C28.1834,49.4978 27.6884,48.4188 27.3264,47.6338 C27.1754,47.3048 26.8644,46.6238 26.6884,46.6248 C26.5144,46.6268 26.2154,47.3168 26.0714,47.6478 C25.7314,48.4428 25.2614,49.5328 24.1484,49.5478 L24.1304,48.1008 C24.3004,48.0978 24.6044,47.4118 24.7454,47.0768 C25.0884,46.2808 25.5594,45.1938 26.6704,45.1818 C27.7814,45.1678 28.2784,46.2418 28.6384,47.0298 C28.7894,47.3598 29.1054,48.0388 29.2784,48.0368 C29.4504,48.0348 29.7504,47.3498 29.8934,47.0148 C30.2344,46.2188 30.7004,45.1318 31.8144,45.1188 C32.9264,45.1058 33.4204,46.1798 33.7834,46.9668 C33.9334,47.2978 34.2454,47.9768 34.4214,47.9758 C34.8444,47.9708 35.7424,46.7858 36.3004,45.4908 C36.4144,45.2318 36.6674,45.0608 36.9544,45.0558 C38.0664,45.0428 38.5594,46.1168 38.9184,46.9048 C39.0714,47.2348 39.3864,47.9138 39.5554,47.9118 C39.7294,47.9098 40.0254,47.2248 40.1674,46.8928 C40.5094,46.0938 40.9794,45.0078 42.0884,44.9938 C43.2004,44.9808 43.6974,46.0548 44.0594,46.8438 C44.2104,47.1728 44.5214,47.8528 44.6944,47.8498 L44.7124,49.2968 Z" id="Fill-41" fill="#484F59" mask="url(#mask-2)"></path>
            <path d="M50.2554,74.792 L50.4514,90.979 C50.4664,92.089 49.5794,93.001 48.4684,93.014 L20.9864,93.349 C19.8794,93.362 18.9684,92.471 18.9544,91.361 L18.7574,75.175 L50.2554,74.792 Z" id="Fill-42" fill="#282D33" mask="url(#mask-2)"></path>
            <path d="M50.9234,77.9336 L18.1284,78.3316 C17.2544,78.3426 16.5344,77.6446 16.5264,76.7656 C16.5134,75.8886 17.2164,75.1686 18.0884,75.1596 L50.8864,74.7606 C51.7644,74.7496 52.4834,75.4526 52.4924,76.3296 C52.5044,77.2066 51.8034,77.9226 50.9234,77.9336" id="Fill-43" fill="#282D33" mask="url(#mask-2)"></path>
            <path d="M36.4126,77.3037 L18.2216,77.5257 C17.7336,77.5307 17.3336,77.1417 17.3276,76.6567 C17.3216,76.1707 17.7126,75.7727 18.1996,75.7677 L36.3926,75.5457 C36.8796,75.5397 37.2806,75.9297 37.2876,76.4137 C37.2916,76.8987 36.9016,77.2977 36.4126,77.3037" id="Fill-44" fill="#484F59" mask="url(#mask-2)"></path>
            <path d="M50.9878,83.2246 L18.1928,83.6216 C17.3168,83.6316 16.5998,82.9326 16.5888,82.0526 C16.5798,81.1796 17.2798,80.4596 18.1538,80.4506 L50.9508,80.0506 C51.8298,80.0406 52.5468,80.7436 52.5578,81.6156 C52.5688,82.4956 51.8668,83.2126 50.9878,83.2246" id="Fill-45" fill="#282D33" mask="url(#mask-2)"></path>
            <path d="M51.0542,88.5136 L18.2562,88.9126 C17.3822,88.9226 16.6642,88.2206 16.6542,87.3466 C16.6422,86.4676 17.3432,85.7476 18.2172,85.7376 L51.0142,85.3386 C51.8932,85.3286 52.6102,86.0306 52.6202,86.9096 C52.6312,87.7846 51.9312,88.5026 51.0542,88.5136" id="Fill-46" fill="#282D33" mask="url(#mask-2)"></path>
            <path d="M36.4751,82.3535 L18.2821,82.5745 C17.7951,82.5795 17.3961,82.1885 17.3891,81.7045 C17.3831,81.2145 17.7741,80.8195 18.2621,80.8135 L36.4541,80.5915 C36.9421,80.5865 37.3411,80.9735 37.3461,81.4595 C37.3531,81.9465 36.9621,82.3475 36.4751,82.3535" id="Fill-47" fill="#484F59" mask="url(#mask-2)"></path>
            <path d="M36.5396,87.6992 L18.3476,87.9192 C17.8596,87.9262 17.4606,87.5352 17.4546,87.0532 C17.4486,86.5672 17.8396,86.1692 18.3256,86.1632 L36.5186,85.9422 C37.0066,85.9352 37.4056,86.3242 37.4126,86.8092 C37.4186,87.2932 37.0286,87.6922 36.5396,87.6992" id="Fill-48" fill="#484F59" mask="url(#mask-2)"></path>
            <polygon id="Fill-49" fill="#30363D" mask="url(#mask-2)" points="38.648 79.705 23.105 79.894 23.085 78.28 38.629 78.092"></polygon>
            <polygon id="Fill-50" fill="#30363D" mask="url(#mask-2)" points="38.7105 84.8564 23.1685 85.0454 23.1475 83.4304 38.6915 83.2424"></polygon>
            <polygon id="Fill-51" fill="#30363D" mask="url(#mask-2)" points="38.772 90.0009 23.23 90.1909 23.211 88.5809 38.753 88.3919"></polygon>
            <path d="M42.7603,85.3886 C42.7603,85.3886 42.2843,84.9816 41.6623,84.1546 C41.2843,83.6556 40.6643,84.1216 40.6643,84.1216 L39.8393,84.3006 L40.1153,83.1786 L41.0833,80.4066 L43.5433,79.2986 C43.5433,79.2986 44.1133,79.5046 44.2953,79.8916 C44.4763,80.2796 44.6873,82.6416 44.6873,82.6416 L42.7603,85.3886 Z" id="Fill-52" fill="#EDEEF0" mask="url(#mask-2)"></path>
            <path d="M77.1753,80.416 C77.2623,80.71 77.0513,85.535 73.2213,88.46 C71.8883,89.479 61.5413,94.209 58.4213,93.849 C55.3013,93.489 55.9123,91.057 56.8033,89.721 C57.6923,88.384 60.1423,87.685 63.7193,85.552 C67.4303,83.342 69.9043,81.527 71.5083,80.749 C73.8193,79.629 76.4263,77.872 77.1753,80.416" id="Fill-53" fill="#194866" mask="url(#mask-2)"></path>
            <path d="M60.523,92.7041 C60.523,92.7041 60.116,94.2331 57.808,93.7491 C57.169,93.6161 56.007,93.0471 55.127,92.5901 C51.06,90.4781 42.238,85.5871 42.238,85.5871 L45.101,82.1141 C45.101,82.1141 53.781,85.7971 55.657,86.6671 C57.53,87.5351 61.975,88.2391 60.523,92.7041" id="Fill-54" fill="#194866" mask="url(#mask-2)"></path>
            <path d="M40.2183,83.5957 C40.2183,83.5957 39.7113,84.2807 39.8983,84.5277 C40.0843,84.7767 40.9503,85.4717 40.9503,85.4717 C40.9503,85.4717 41.3173,85.2767 41.2693,84.9697 C41.2203,84.6627 40.7413,84.4967 40.9973,83.7967 C41.0553,83.6397 40.2183,83.5957 40.2183,83.5957" id="Fill-55" fill="#EDEEF0" mask="url(#mask-2)"></path>
            <polygon id="Fill-56" fill="#FFFFFF" mask="url(#mask-2)" points="13.0474 144.289 13.4274 152.176 18.1294 153.391 20.6304 153.465 15.7774 151.039 15.9294 143.834"></polygon>
            <path d="M13.3511,153.3906 L14.3351,153.4646 L14.8681,152.7826 L18.6401,153.8436 L21.8441,153.9956 C21.8441,153.9956 21.8381,153.7476 21.7111,153.6356 C21.2381,153.2186 18.8871,152.5176 18.8871,152.5176 C18.8871,152.5176 18.9811,153.2376 18.6781,153.3136 C18.3751,153.3906 15.4741,152.5176 14.7911,152.2516 C13.6181,151.7936 13.3461,151.4296 13.2761,151.4936 C13.0851,151.6636 13.3511,153.3906 13.3511,153.3906" id="Fill-57" fill="#161711" mask="url(#mask-2)"></path>
            <polygon id="Fill-58" fill="#FFFFFF" mask="url(#mask-2)" points="26.147 144.9541 27.513 152.3661 32.213 153.5791 34.717 153.6551 29.863 151.2281 28.763 144.9161"></polygon>
            <path d="M27.437,153.5791 L28.422,153.6551 L28.953,152.9721 L33.124,154.2051 L35.778,154.4141 C35.778,154.4141 35.58,153.9951 35.417,153.8631 C34.934,153.4701 33.01,152.7461 33.01,152.7461 C33.01,152.7461 33.047,153.3511 32.744,153.4291 C32.442,153.5031 29.56,152.7081 28.877,152.4411 C27.702,151.9851 27.433,151.6181 27.36,151.6831 C27.171,151.8551 27.437,153.5791 27.437,153.5791" id="Fill-59" fill="#161711" mask="url(#mask-2)"></path>
            <path d="M22.8521,98.4795 L27.6791,119.5565 L28.9891,145.8845 L24.6221,146.1045 C24.6221,146.1045 22.3841,123.0645 21.8871,121.0045 C21.3881,118.9455 13.9551,103.6285 15.7731,99.2845 C17.5901,94.9395 22.8521,98.4795 22.8521,98.4795" id="Fill-60" fill="#163F59" mask="url(#mask-2)"></path>
            <path d="M12.5171,97.6162 L14.6471,119.7182 C14.6471,119.7182 12.2971,125.2332 12.2251,127.1972 C12.0581,131.6202 12.2481,144.8872 12.2481,144.8872 L16.1751,145.0492 C16.1751,145.0492 19.9201,123.2442 20.2781,121.1662 C20.6341,119.0872 23.6751,100.1962 21.3541,96.0392 C19.0331,91.8822 12.5171,97.6162 12.5171,97.6162" id="Fill-61" fill="#194866" mask="url(#mask-2)"></path>
            <path d="M7.3706,49.3799 C7.3706,49.3799 7.1196,49.5289 6.9956,49.3419 C6.7876,49.0319 6.6546,48.2939 6.6206,48.0299 C6.5796,47.7349 6.6256,46.3149 6.6256,46.3149 C6.6256,46.3149 6.9516,46.7309 6.9346,47.3009 C6.9126,48.1349 7.3706,49.3799 7.3706,49.3799" id="Fill-62" fill="#D1DBEA" mask="url(#mask-2)"></path>
            <path d="M7.3267,49.1904 C7.0477,48.7334 7.1147,48.1174 7.3707,47.4104 C7.6107,46.7384 7.3557,46.3544 7.3557,46.3544 C7.3587,46.3544 7.1547,46.7704 6.8887,47.8524 C6.8147,48.1554 6.7507,48.4924 6.7927,48.7964 C6.9127,49.7224 8.0477,50.3684 7.3267,49.1904" id="Fill-63" fill="#D1DBEA" mask="url(#mask-2)"></path>
            <path d="M15.9478,63.247 C15.6598,60.279 9.6348,52.934 9.6348,52.934 C9.6348,52.934 6.6298,50.83 12.7678,61.865 C14.6108,65.18 16.0168,63.979 15.9478,63.247" id="Fill-64" fill="#FFFFFF" mask="url(#mask-2)"></path>
            <path d="M7.2837,48.6064 L7.0697,48.7694 L7.0007,49.6924 C7.0007,49.6924 7.5557,51.2654 7.9787,51.7834 C8.4007,52.3014 9.1897,54.7344 9.3667,54.9984 C9.5417,55.2624 11.0107,55.1144 11.0107,55.1144 C11.0107,55.1144 9.6147,52.8604 9.1377,51.9214 C8.6627,50.9824 8.4457,49.4064 8.2727,49.0304 C7.9767,48.3904 7.8637,48.0484 7.8637,48.0484 C7.8637,48.0484 7.5427,48.2544 7.9477,49.2874 C8.0547,49.5594 7.6917,49.5334 7.6917,49.5334 L7.2837,48.6064 Z" id="Fill-65" fill="#FFFFFF" mask="url(#mask-2)"></path>
            <path d="M7.3228,49.7636 C7.3228,49.7636 6.9908,48.9786 7.0838,48.5586 C7.1478,48.2676 7.6798,46.9496 7.6798,46.9496 C7.6798,46.9496 7.8438,47.4526 7.6318,47.9826 C7.3228,48.7576 7.3228,49.7636 7.3228,49.7636" id="Fill-66" fill="#FFFFFF" mask="url(#mask-2)"></path>
            <path d="M11.0581,61.5722 L12.4001,65.9672 C12.4001,65.9672 10.0421,76.2132 10.7881,77.3952 C11.6751,78.7992 13.7461,80.3802 13.7461,80.3802 L16.9881,67.5672 L15.9591,60.5942 L11.0581,61.5722 Z" id="Fill-67" fill="#B0BFDE" mask="url(#mask-2)"></path>
            <path d="M10.2769,74.3447 C10.9969,77.0777 9.3149,79.8907 6.5229,80.6237 C3.7319,81.3587 0.8839,79.7367 0.1669,77.0017 C-0.5531,74.2677 1.1299,71.4577 3.9219,70.7227 C6.7129,69.9897 9.5579,71.6107 10.2769,74.3447" id="Fill-68" fill="#282723" mask="url(#mask-2)"></path>
            <path d="M12.1499,81.2031 C12.8999,84.0571 11.1449,86.9951 8.2279,87.7621 C5.3119,88.5271 2.3389,86.8351 1.5889,83.9791 C0.8379,81.1231 2.5929,78.1861 5.5079,77.4211 C8.4259,76.6541 11.3979,78.3481 12.1499,81.2031" id="Fill-69" fill="#282723" mask="url(#mask-2)"></path>
            <path d="M13.2505,69.6152 C13.8035,71.7152 12.5475,73.8652 10.4475,74.4182 L9.0225,72.8602 C6.9225,73.4132 4.7725,72.1592 4.2215,70.0582 L3.8465,68.6332 C3.2935,66.5332 4.5505,64.3842 6.6485,63.8302 L7.6005,63.5812 C9.6985,63.0292 11.8505,64.2842 12.3995,66.3842 L13.2505,69.6152 Z" id="Fill-70" fill="#282723" mask="url(#mask-2)"></path>
            <path d="M10.2622,64.4238 C10.3482,64.7768 10.4132,65.1408 10.4512,65.5198 C10.7082,68.0628 9.7132,70.3058 8.1512,70.9608 C8.3922,72.0788 8.4292,73.1318 8.3882,74.0468 C8.3372,75.0888 7.4762,76.4038 7.4762,76.4038 C7.6502,78.1808 14.1112,79.1588 13.9002,78.9188 C13.6912,78.6808 11.7342,77.0488 10.7812,75.3278 C10.1182,74.1308 10.2582,72.9618 10.5562,72.1028 C11.1832,70.7958 12.5012,70.4668 12.5012,70.4668 C12.6292,70.4328 12.7292,70.3488 12.7852,70.2418 C12.7972,69.9708 12.7712,69.6928 12.6972,69.4158 L11.8712,66.2798 C11.6442,65.4118 11.0302,64.7498 10.2622,64.4238" id="Fill-71" fill="#FFFFFF" mask="url(#mask-2)"></path>
            <path d="M20.4751,98.3896 L23.5491,99.0086 C23.5491,99.0086 19.7391,91.7336 18.4501,88.8386 C17.1601,85.9426 16.9531,84.9376 16.8741,83.9596 C16.7911,82.9806 16.9431,81.7656 16.0631,80.8796 C15.1831,79.9936 13.7841,78.5086 13.3711,78.4706 C12.7081,78.4096 11.9771,78.3086 11.3511,77.9436 C11.0081,77.7426 20.4751,98.3896 20.4751,98.3896" id="Fill-72" fill="#AD5C49" mask="url(#mask-2)"></path>
            <path d="M21.7544,99.3965 C21.7544,99.3965 18.5254,92.4835 16.9754,88.9705 C15.4244,85.4585 11.9794,78.9155 11.6014,78.0735 C11.2234,77.2325 10.4004,76.1945 10.4004,76.1945 C10.4004,76.1945 8.7384,75.5335 7.5484,76.0815 C6.3594,76.6295 5.2174,78.2845 6.2654,82.5335 C6.9504,85.3055 12.1914,91.9535 12.3644,92.6135 C12.5384,93.2735 11.3634,99.5415 11.7874,101.1545 C12.2124,102.7675 12.2714,102.9885 12.2714,102.9885 C12.2714,102.9885 17.9674,98.1185 21.7544,99.3965" id="Fill-73" fill="#D1DBEA" mask="url(#mask-2)"></path>
            <polygon id="Fill-74" fill="#B0BFDE" mask="url(#mask-2)" points="7.4527 74.9687 8.6897 75.3537 10.4857 75.9937 10.6207 77.6857 7.1047 75.8837"></polygon>
            <path d="M27.9419,92.7343 C30.2029,93.5963 31.5579,92.9363 32.5759,92.9573 C33.5889,92.9793 34.6749,92.8333 34.6669,92.8403 C33.8329,93.5293 33.0919,93.2763 32.6189,93.4213 C32.1479,93.5673 32.2969,93.4603 33.0809,93.8223 C33.5269,94.0293 34.6069,93.5993 35.3379,93.4143 C35.9709,93.2553 36.2969,93.3433 36.2969,93.3433 C36.2969,93.3433 35.4349,93.8663 34.4629,94.1783 C33.2919,94.5553 31.9519,94.7373 31.6509,94.7293 C31.1049,94.7183 29.5769,94.1893 28.5469,93.6473 C27.3879,93.0353 26.3129,92.1123 27.9419,92.7343" id="Fill-75" fill="#FFFFFF" mask="url(#mask-2)"></path>
            <path d="M14.312,87.4648 C14.312,87.4648 14.703,86.5958 19.407,88.5408 C24.106,90.4878 30.573,94.4038 30.573,94.4038 L19.343,90.8358 C19.343,90.8358 15.109,89.2828 14.312,87.4648" id="Fill-76" fill="#FFFFFF" mask="url(#mask-2)"></path>
            <path d="M18.5044,87.0166 C18.5044,87.0166 14.1114,85.2276 13.2914,87.6636 C12.8244,89.0466 13.5814,89.9636 14.9174,90.4836 C17.4014,91.4486 20.2754,92.4246 20.2754,92.4246 L23.2214,89.4346 L18.5044,87.0166 Z" id="Fill-77" fill="#B0BFDE" mask="url(#mask-2)"></path>
            <path d="M16.2525,85.6875 L9.6725,77.8415 C9.6725,77.8415 8.5305,77.1595 7.7125,77.7145 C6.5245,78.5145 6.2535,79.2685 6.5385,80.0615 C7.1055,81.6325 6.5925,80.9735 10.2935,85.5705 C13.6755,89.7725 15.0225,91.5455 17.0795,90.0425 C18.9985,88.6405 16.2525,85.6875 16.2525,85.6875" id="Fill-78" fill="#B0BFDE" mask="url(#mask-2)"></path>
            <path d="M32.4859,94.5957 C32.4859,94.5957 34.3769,94.7427 34.7549,94.6287 C35.0149,94.5507 36.1829,93.9717 36.1829,93.9717 C36.1829,93.9717 35.4939,93.8607 35.0129,94.0657 C34.5279,94.2727 32.4859,94.5957 32.4859,94.5957" id="Fill-79" fill="#D1DBEA" mask="url(#mask-2)"></path>
        </g>
    </g>
</svg>