<?xml version="1.0" encoding="UTF-8"?>
<svg width="926px" height="733px" viewBox="0 0 926 733" version="1.1" xmlns="http://www.w3.org/2000/svg" xmlns:xlink="http://www.w3.org/1999/xlink">
    <!-- Generator: sketchtool 49 (51002) - http://www.bohemiancoding.com/sketch -->
    <title>A7C52D5F-E64E-4221-A65B-7CAACEAD1062</title>
    <desc>Created with sketchtool.</desc>
    <defs>
        <linearGradient x1="101.032065%" y1="97.4810939%" x2="36.9106988%" y2="0.270577524%" id="linearGradient-1">
            <stop stop-color="#002835" offset="0%"></stop>
            <stop stop-color="#00837C" offset="21%"></stop>
            <stop stop-color="#92FFC8" offset="53.3%"></stop>
            <stop stop-color="#00AA81" offset="100%"></stop>
        </linearGradient>
        <linearGradient x1="14.2367177%" y1="103.383279%" x2="93.3792242%" y2="15.2938486%" id="linearGradient-2">
            <stop stop-color="#15788A" offset="0%"></stop>
            <stop stop-color="#1FA991" offset="100%"></stop>
        </linearGradient>
        <linearGradient x1="-1.03211725%" y1="97.4811481%" x2="63.089323%" y2="0.270585331%" id="linearGradient-3">
            <stop stop-color="#054357" offset="0%"></stop>
            <stop stop-color="#17C08D" offset="21%"></stop>
            <stop stop-color="#C2FFE0" offset="48.5%"></stop>
            <stop stop-color="#74FFDE" offset="74.9%"></stop>
            <stop stop-color="#64FFAB" offset="100%"></stop>
        </linearGradient>
        <linearGradient x1="0%" y1="50%" x2="100%" y2="50%" id="linearGradient-4">
            <stop stop-color="#15A081" offset="0%"></stop>
            <stop stop-color="#0C889C" offset="100%"></stop>
        </linearGradient>
        <linearGradient x1="-0.000738116895%" y1="50.0003604%" x2="99.9993333%" y2="50.0003604%" id="linearGradient-5">
            <stop stop-color="#5FFCE9" offset="0%"></stop>
            <stop stop-color="#89FD89" offset="100%"></stop>
        </linearGradient>
        <linearGradient x1="0.000153279453%" y1="50.0001266%" x2="99.9996694%" y2="50.0001266%" id="linearGradient-6">
            <stop stop-color="#ABFFF5" offset="0%"></stop>
            <stop stop-color="#9CFFA1" offset="100%"></stop>
        </linearGradient>
        <linearGradient x1="-0.000441965889%" y1="49.9976602%" x2="99.9986607%" y2="49.9976602%" id="linearGradient-7">
            <stop stop-color="#086055" offset="0%"></stop>
            <stop stop-color="#238723" offset="100%"></stop>
        </linearGradient>
        <linearGradient x1="117.464006%" y1="45.3777654%" x2="-23.7256421%" y2="61.9383315%" id="linearGradient-8">
            <stop stop-color="#25F0D7" stop-opacity="0.418" offset="0%"></stop>
            <stop stop-color="#49C549" stop-opacity="0.484" offset="100%"></stop>
        </linearGradient>
        <linearGradient x1="107.840519%" y1="29.4808007%" x2="5.96294652%" y2="78.9547051%" id="linearGradient-9">
            <stop stop-color="#25F0D7" stop-opacity="0.418" offset="0%"></stop>
            <stop stop-color="#54C901" stop-opacity="0.484" offset="100%"></stop>
        </linearGradient>
        <linearGradient x1="47.677248%" y1="91.5449882%" x2="85.7068559%" y2="12.5741603%" id="linearGradient-10">
            <stop stop-color="#1D9687" offset="0%"></stop>
            <stop stop-color="#39BF39" offset="100%"></stop>
        </linearGradient>
        <linearGradient x1="25.000036%" y1="6.69898096%" x2="75.0001499%" y2="93.3011848%" id="linearGradient-11">
            <stop stop-color="#3CE6D1" stop-opacity="0.418" offset="0%"></stop>
            <stop stop-color="#54B754" stop-opacity="0.707" offset="100%"></stop>
        </linearGradient>
        <linearGradient x1="0%" y1="50.0018723%" x2="99.9997341%" y2="50.0018723%" id="linearGradient-12">
            <stop stop-color="#32BBAA" offset="0%"></stop>
            <stop stop-color="#54B754" offset="100%"></stop>
        </linearGradient>
        <linearGradient x1="-5.94764622e-05%" y1="50.0004192%" x2="100.000136%" y2="50.0004192%" id="linearGradient-13">
            <stop stop-color="#32BBAA" offset="0%"></stop>
            <stop stop-color="#54B754" offset="100%"></stop>
        </linearGradient>
        <linearGradient x1="0%" y1="50%" x2="100%" y2="50%" id="linearGradient-14">
            <stop stop-color="#32BBAA" offset="0%"></stop>
            <stop stop-color="#54B754" offset="100%"></stop>
        </linearGradient>
        <linearGradient x1="0%" y1="50%" x2="100%" y2="50%" id="linearGradient-15">
            <stop stop-color="#57E1D0" offset="0%"></stop>
            <stop stop-color="#6CE16C" offset="100%"></stop>
        </linearGradient>
        <linearGradient x1="14.2371116%" y1="103.383171%" x2="93.3796533%" y2="15.2938448%" id="linearGradient-16">
            <stop stop-color="#1C877A" offset="0%"></stop>
            <stop stop-color="#33BB75" offset="100%"></stop>
        </linearGradient>
        <linearGradient x1="14.2371116%" y1="103.383125%" x2="93.3796533%" y2="15.2936362%" id="linearGradient-17">
            <stop stop-color="#30C9B6" offset="0%"></stop>
            <stop stop-color="#3FDA8A" offset="100%"></stop>
        </linearGradient>
        <linearGradient x1="14.2371838%" y1="103.38385%" x2="93.3787993%" y2="15.2936137%" id="linearGradient-18">
            <stop stop-color="#7CE4D7" offset="0%"></stop>
            <stop stop-color="#BAFFDB" offset="100%"></stop>
        </linearGradient>
        <linearGradient x1="3.62341581%" y1="27.5047634%" x2="82.3898612%" y2="89.0534032%" id="linearGradient-19">
            <stop stop-color="#4FB861" offset="0%"></stop>
            <stop stop-color="#37BB9E" offset="100%"></stop>
        </linearGradient>
        <linearGradient x1="0%" y1="49.999208%" x2="100%" y2="49.999208%" id="linearGradient-20">
            <stop stop-color="#32BBAA" offset="0%"></stop>
            <stop stop-color="#54B754" offset="100%"></stop>
        </linearGradient>
        <linearGradient x1="-0.00204266571%" y1="49.9994933%" x2="99.9991849%" y2="49.9994933%" id="linearGradient-21">
            <stop stop-color="#5FFCE9" offset="0%"></stop>
            <stop stop-color="#89FD89" offset="100%"></stop>
        </linearGradient>
        <linearGradient x1="100%" y1="50.0003019%" x2="0%" y2="50.0003019%" id="linearGradient-22">
            <stop stop-color="#15A081" offset="0%"></stop>
            <stop stop-color="#0C889C" offset="100%"></stop>
        </linearGradient>
        <linearGradient x1="0.000159687366%" y1="50.0004874%" x2="100%" y2="50.0004874%" id="linearGradient-23">
            <stop stop-color="#128B7C" offset="0%"></stop>
            <stop stop-color="#238723" offset="100%"></stop>
        </linearGradient>
        <linearGradient x1="0%" y1="50.0016034%" x2="100%" y2="50.0016034%" id="linearGradient-24">
            <stop stop-color="#15A081" offset="0%"></stop>
            <stop stop-color="#0C889C" offset="100%"></stop>
        </linearGradient>
        <linearGradient x1="0.000858501166%" y1="50.0001748%" x2="99.9997156%" y2="50.0001748%" id="linearGradient-25">
            <stop stop-color="#CDFFF9" offset="0%"></stop>
            <stop stop-color="#EBFFEB" offset="100%"></stop>
        </linearGradient>
        <linearGradient x1="0%" y1="50%" x2="100%" y2="50%" id="linearGradient-26">
            <stop stop-color="#07494F" stop-opacity="0.77" offset="0%"></stop>
            <stop stop-color="#074F2F" stop-opacity="0.65" offset="100%"></stop>
        </linearGradient>
        <linearGradient x1="80.3432293%" y1="12.8541725%" x2="11.9736962%" y2="92.5397281%" id="linearGradient-27">
            <stop stop-color="#32BBAA" offset="0%"></stop>
            <stop stop-color="#0E8C62" offset="100%"></stop>
        </linearGradient>
        <linearGradient x1="-0.000134598028%" y1="50.0001891%" x2="100%" y2="50.0001891%" id="linearGradient-28">
            <stop stop-color="#27FDCD" offset="0%"></stop>
            <stop stop-color="#0C9C60" offset="100%"></stop>
        </linearGradient>
        <linearGradient x1="-0.000507921166%" y1="49.9998255%" x2="99.9998806%" y2="49.9998255%" id="linearGradient-29">
            <stop stop-color="#57E1D0" stop-opacity="0.539" offset="0%"></stop>
            <stop stop-color="#6CE16C" stop-opacity="0.539" offset="100%"></stop>
        </linearGradient>
    </defs>
    <g id="Home" stroke="none" stroke-width="1" fill="none" fill-rule="evenodd">
        <g id="Home---Approach" transform="translate(-674.000000, -292.000000)" fill-rule="nonzero">
            <g id="Hero" transform="translate(0.000000, 1.000000)">
                <g id="Hero-Concept-Option-1-For-Homepage" transform="translate(675.000000, 291.000000)">
                    <g id="Group">
                        <path d="M685.448929,27.7907365 C687.261239,29.0548709 819.103641,118.168108 819.103641,118.168108 C824.174214,122.030907 825.09348,126.316832 825.09348,129.668136 L825.174394,236.668725 C825.199117,242.316889 822.564936,245.330442 819.103641,242.737019 L685.448929,152.359648 C685.448929,152.359648 679.600688,149.467416 679.415636,142.26904 C679.352703,139.829141 679.378176,33.8582821 679.378176,33.8582821 C679.300259,27.8274324 683.636618,26.5266021 685.448929,27.7907365 Z" id="Shape" stroke="#0B4F5A" stroke-width="0.5" fill-opacity="0" fill="#000000"></path>
                        <path d="M1060.52152,487.85178 L523.72176,846.808283" id="Shape" stroke="#54B656" stroke-width="1.5" fill-opacity="0" fill="#000000"></path>
                        <path d="M433.680123,213.438009 L129.418745,418.774474" id="Shape" stroke="#54B656" stroke-width="1.5" fill-opacity="0" fill="#000000"></path>
                        <path d="M964.794222,363.214719 L291.229075,812.302207" id="Shape" stroke="#54B656" stroke-width="1.5" fill-opacity="0" fill="#000000"></path>
                        <path d="M813.249406,270.681279 L139.685008,719.768767" id="Shape" stroke="#54B656" stroke-width="1.5" fill-opacity="0" fill="#000000"></path>
                        <path d="M673.765932,180.216287 L0.201534317,629.303775" id="Shape" stroke="#54B656" stroke-width="1.5" fill-opacity="0" fill="#000000"></path>
                        <path d="M36.4072867,537.476544 L450.319815,812.302207" id="Shape" stroke="#54B656" stroke-width="1.5" fill-opacity="0" fill="#000000"></path>
                        <path d="M52.8619269,399.439508 L664.609232,798.238712" id="Shape" stroke="#54B656" stroke-width="1.5" fill-opacity="0" fill="#000000"></path>
                        <path d="M103.734733,288.337223 L849.198183,773.604567" id="Shape" stroke="#54B656" stroke-width="1.5" fill-opacity="0" fill="#000000"></path>
                        <path d="M259.823436,238.70497 L996.199861,719.768767" id="Shape" stroke="#54B656" stroke-width="1.5" fill-opacity="0" fill="#000000"></path>
                        <path d="M354.979849,193.992207 L1167.44409,710.365645" id="Shape" stroke="#54B656" stroke-width="1.5" fill-opacity="0" fill="#000000"></path>
                        <path d="M443.364259,85.7267347 L1027.56205,447.504324" id="Shape" stroke="#54B656" stroke-width="1.5" fill-opacity="0" fill="#000000"></path>
                        <polygon id="Shape" fill="#07494F" points="269.206394 126.218727 269.46262 203.649954 336.965378 161.848894 276.538797 121.253554"></polygon>
                        <path d="M428.185504,551.084711 L413.137108,540.962649 C413.137108,540.962649 412.811956,393.756895 412.062758,376.971916 C411.312811,360.186937 409.044988,333.781656 388.127374,319.310013 C367.209011,304.837622 255.116972,229.599907 255.116972,229.599907 L255.116972,210.716525 C255.116972,210.716525 497.000857,259.644068 497.000857,259.644068 L428.185504,551.084711 Z" id="Shape" fill="#0D6574"></path>
                        <path d="M635.499885,412.295785 L428.049899,551.083962 C428.049899,551.083962 427.610869,385.354295 426.86167,368.700373 C426.112472,352.045702 423.8439,325.846367 402.926286,311.486309 C382.007923,297.127001 255.116972,210.607187 255.116972,210.607187 L443.577031,81.3943784 C443.577031,81.3943784 586.114987,175.438339 606.003202,188.218228 C627.172547,201.821902 635.499885,219.204499 635.499885,246.915852 C635.499885,274.627206 635.499885,412.295785 635.499885,412.295785 Z" id="Shape" fill="url(#linearGradient-1)"></path>
                        <g transform="translate(449.518922, 306.297966)" id="Shape">
                            <path d="M113.5762,370.237854 L128.624595,360.195175 C128.624595,360.195175 129.045645,272.963911 129.795592,256.309989 C130.54479,239.655317 132.812613,213.455982 153.730976,199.096674 C174.64859,184.736616 324.46126,84.393702 324.46126,84.393702 L324.46126,65.6578523 C324.46126,65.6578523 44.8574933,139.895043 44.8574933,139.895043 L113.5762,370.237854 Z" fill="url(#linearGradient-2)"></path>
                            <path d="M0.426293778,295.530357 L113.5762,370.237854 C113.5762,370.237854 114.111877,266.187162 114.861075,249.53324 C115.610273,232.878569 117.878845,206.679233 138.796459,192.319925 C159.714073,177.959867 324.46126,65.6578523 324.46126,65.6578523 L223.601201,0.198457118 C223.601201,0.198457118 49.8111918,120.338405 29.9229763,133.118294 C8.75288262,146.721968 0.426293778,164.104565 0.426293778,191.815919 C0.426293778,219.527272 0.426293778,295.530357 0.426293778,295.530357 Z" fill="url(#linearGradient-3)"></path>
                        </g>
                        <path d="M542.06438,692.528469 C539.967374,690.485484 480.269013,657.479444 478.519636,655.29342 C476.771007,653.107396 544.121678,623.873539 544.121678,623.873539 L542.06438,692.528469 Z" id="Shape" fill="#0D6574"></path>
                        <path d="M332.5998,581.280149 C332.5998,581.280149 492.420259,631.342267 534.704257,618.152732 C544.53074,615.087506 553.765357,620.663776 553.765357,631.225439 C553.765357,638.494212 553.66047,683.365741 553.66047,683.365741 L542.06438,692.528469 C542.06438,692.528469 541.870337,645.308406 542.011936,639.394384 C542.343081,625.575777 533.899618,633.27142 533.899618,633.27142 L460.265421,685.635641 L332.5998,596.567338 L332.5998,581.280149 Z" id="Shape" fill="url(#linearGradient-4)"></path>
                        <path d="M414.563582,199.392487 C414.563582,199.392487 401.842945,194.751586 406.850586,204.595808 C411.601252,213.935275 425.327312,223.464961 430.95454,223.124963 C440.740567,222.532587 432.743625,207.641563 432.743625,207.641563 L414.563582,199.392487 Z" id="Shape" fill="#07494F"></path>
                        <path d="M416.372146,528.01276 C416.372146,528.01276 535.75688,610.847263 549.216226,620.528975 C541.836623,614.966934 534.907289,618.796033 534.907289,618.796033 L461.442412,668.916565 L332.600549,581.314598 L416.372146,528.01276 Z" id="Shape" fill="#70E8B8"></path>
                        <path d="M432.202704,142.877891 C426.340978,139.014343 410.568108,146.441882 414.305858,170.607218 C418.043607,194.772555 424.183287,214.311969 424.183287,214.311969 C424.183287,214.311969 428.372803,217.860981 433.305524,213.063561 C427.697026,185.132033 429.231384,169.612686 429.231384,169.612686 C429.231384,169.612686 433.623933,143.814759 432.202704,142.877891 Z" id="Shape" fill="#FFD7B2"></path>
                        <path d="M642.679451,15.1808462 C644.820659,16.6741424 800.627664,121.985225 800.627664,121.985225 C806.619751,126.549738 807.705339,131.615263 807.705339,135.575418 L807.801237,262.024805 C807.830455,268.698955 804.718286,272.260698 800.627664,269.195472 L642.679451,162.391094 C642.679451,162.391094 635.767348,158.973887 635.549332,150.466442 C635.47591,147.583946 635.505878,22.3515137 635.505878,22.3515137 C635.412978,15.2235332 640.537493,13.6868011 642.679451,15.1808462 Z" id="Shape" fill-opacity="0.818" fill="#07494F"></path>
                        <path d="M745.881504,183.269531 C732.574245,176.564676 724.846266,160.579517 725.055292,140.914289 C725.280801,119.740038 737.35413,108.950711 751.597137,116.402214 C772.701301,127.443919 776.802412,155.47505 772.390384,170.175855 C767.991092,184.834721 756.259397,188.499064 745.881504,183.269531 Z" id="Shape" fill="url(#linearGradient-5)" opacity="0.508"></path>
                        <polygon id="Shape" fill="#D6F2EE" points="692.227674 99.4951653 706.208462 109.389563 705.713991 195.157487 691.733203 185.263089"></polygon>
                        <polygon id="Shape" fill="#0D6574" points="482.434945 554.804471 486.234879 552.745011 508.398409 597.366408 506.676003 598.30028"></polygon>
                        <polygon id="Shape" fill="#0D6574" points="458.784257 574.087014 463.10713 574.087014 461.312801 623.873539 459.353647 623.873539"></polygon>
                        <path d="M713.156526,378.559573 C711.549496,378.99543 709.381316,382.448584 711.269296,385.387996 C713.156526,388.327408 717.708654,389.9585 721.479369,387.067767 C723.493963,385.523546 732.765291,377.618212 732.765291,377.618212 C732.765291,377.618212 732.23336,375.213511 729.446343,374.39422 C726.659325,373.57418 717.708654,377.720811 717.708654,377.720811 C717.708654,377.720811 714.057062,378.314684 713.156526,378.559573 Z" id="Shape" fill="#07494F"></path>
                        <path d="M433.253829,570.490821 C443.905929,578.531705 459.513226,579.934385 467.532644,578.644039 C476.51553,577.199421 490.144944,573.793447 499.127831,554.08029 C508.776754,532.90529 506.768154,486.272361 487.253788,482.350399 C473.237039,479.533057 468.877455,504.251078 455.807692,516.152514 C442.217986,528.526502 434.394858,521.985655 429.079297,530.354554 C420.383353,544.0451 422.60098,562.450687 433.253829,570.490821 Z" id="Shape" fill="url(#linearGradient-6)"></path>
                        <polygon id="Shape" fill="#D6F2EE" points="668.710343 107.531555 682.69113 117.426702 682.904652 179.84184 668.923864 169.947442"></polygon>
                        <path d="M703.863471,323.961399 C703.863471,323.961399 710.393483,379.172169 712.303189,380.895376 C715.204085,383.51501 719.783933,380.895376 719.783933,380.895376 L719.2078,322.424667 L703.863471,323.961399 Z" id="Shape" fill="#FFD7B2"></path>
                        <path d="M685.526096,367.112716 C683.919066,367.549322 681.750137,371.002476 683.638117,373.941888 C685.526096,376.8813 690.077475,378.512393 693.848939,375.621659 C695.862784,374.077438 705.134861,366.171355 705.134861,366.171355 C705.134861,366.171355 704.60293,363.767403 701.815164,362.948112 C699.028146,362.128073 690.077475,366.274703 690.077475,366.274703 C690.077475,366.274703 686.426632,366.868576 685.526096,367.112716 Z" id="Shape" fill="#07494F"></path>
                        <path d="M678.999081,311.376222 L684.638296,368.944513 C684.638296,368.944513 691.780403,371.845731 693.62343,368.944513 C695.274663,366.345099 693.475089,312.514542 693.475089,312.514542 L678.999081,311.376222 Z" id="Shape" fill="#FFD7B2"></path>
                        <path d="M433.80449,569.255894 C444.457339,577.296028 462.989506,579.628836 469.217591,574.417277 C478.566086,566.593573 471.89073,544.887607 491.303954,532.512869 C510.930699,520.001833 501.22184,482.677666 482.130771,479.703056 C468.00389,477.502803 461.945124,501.684615 448.87611,513.585302 C435.286404,525.959291 428.751897,517.70647 423.436336,526.07537 C414.740393,539.766664 423.151641,561.215011 433.80449,569.255894 Z" id="Shape" fill="#F0FFFD"></path>
                        <path d="M419.831194,153.062111 C419.831194,153.062111 419.154668,137.093428 431.45875,138.802406 C443.860978,140.524864 442.976174,155.979057 442.976174,155.979057 L419.831194,153.062111 Z" id="Shape" fill="url(#linearGradient-7)"></path>
                        <g transform="translate(245.737011, 301.804598)" id="Shape">
                            <path d="M62.7925491,21.3240301 C63.3274766,21.6969797 103.327169,48.9020805 103.327169,48.9020805 C104.823318,50.0418983 105.094527,51.3060327 105.094527,52.2953227 L105.118502,83.8679779 C105.125994,85.5350177 104.349075,86.4239558 103.327169,85.6585853 L62.7925491,58.0805349 C62.7925491,58.0805349 61.0671456,57.2275438 61.0124541,55.1029293 C60.9944734,54.3832414 61.0019654,23.1146375 61.0019654,23.1146375 C60.9787402,21.3345146 62.2583708,20.9510805 62.7925491,21.3240301 Z" stroke="#3FBEA2" stroke-width="0.5" fill-opacity="0" fill="#000000"></path>
                            <path d="M3.01327518,0.213435013 C3.77670815,0.745899204 60.8618653,39.5716004 60.8618653,39.5716004 C62.9970802,41.1981998 63.3844157,43.0030363 63.3844157,44.4147029 L63.4181296,89.4742042 C63.4286183,91.8519452 62.319805,93.1213218 60.8618653,92.0294332 L3.01327518,52.6712679 C3.01327518,52.6712679 0.55066068,51.453565 0.472744067,48.4220389 C0.44652213,47.3945553 0.457010904,2.76866401 0.457010904,2.76866401 C0.424046183,0.229161804 2.24984221,-0.319029178 3.01327518,0.213435013 Z" fill="url(#linearGradient-8)"></path>
                            <path d="M58.3108454,13.6583431 C58.8510173,14.0350371 99.2560257,41.5164801 99.2560257,41.5164801 C100.767908,42.6675314 101.041365,43.9451459 101.041365,44.9441715 L101.066089,76.8373537 C101.072831,78.5208691 100.288421,79.418794 99.2560257,78.6459346 L58.3108454,50.7885464 C58.3108454,50.7885464 56.5674612,49.9265685 56.5120205,47.7802361 C56.4940398,47.0530592 56.5015318,15.466924 56.5015318,15.466924 C56.4783066,13.6695765 57.7706735,13.281649 58.3108454,13.6583431 Z" fill="url(#linearGradient-9)"></path>
                            <path d="M3.65533804,23.3445482 L3.85986915,23.1970159 L4.25095061,22.9289116 L4.62480051,22.690763 L4.98516485,22.4788258 L5.33204362,22.2938488 L5.66543682,22.1335853 L5.98534445,21.9987843 L6.29101732,21.8879478 L6.58395382,21.7995782 L6.86265555,21.7344244 L7.12862091,21.6902396 L7.3818499,21.6670239 L7.62234253,21.6625305 L7.85084798,21.6767595 L8.06811546,21.7082131 L8.27564336,21.7568912 L8.57981783,21.8624854 L8.95441693,22.0594447 L9.29605131,22.3148179 L9.61745734,22.6316004 L9.92088262,23.0105411 L10.2055779,23.4493935 L10.4707941,23.9451618 L10.7165311,24.4941017 L10.9435382,25.0909708 L11.1518153,25.7312759 L11.3428608,26.4097745 L11.517424,27.1219735 L11.6770032,27.8626304 L11.8238461,28.6280009 L12.0216344,29.8127524 L12.2531366,31.4326118 L12.4614137,33.0659514 L12.6592021,34.6783218 L12.8105401,35.8540866 L12.916177,36.6149637 L12.9708685,36.9879134 L12.9708685,36.9871645 L13.0248108,37.3571185 L13.1274509,38.1217401 L13.2233483,38.9200619 L13.3147505,39.7490884 L13.4473586,41.0409319 L13.6219217,42.8203059 L13.8047261,44.6296357 L14.0070096,46.4269832 L14.1793252,47.7442891 L14.3066889,48.5987781 L14.4452906,49.4270557 L14.598127,50.2246286 L14.7651982,50.9870035 L14.949501,51.709687 L15.1525337,52.3881857 L15.3765439,53.0187551 L15.6245285,53.596153 L15.8987351,54.1166348 L16.2051572,54.5772051 L16.5490391,54.9711238 L16.937873,55.2923996 L17.274263,55.4841167 L17.5207492,55.581473 L17.7679846,55.6451291 L18.0249596,55.6795782 L18.2886774,55.6833227 L18.5583887,55.6563625 L18.8318461,55.5994465 L19.1083002,55.5133236 L19.3877511,55.3979938 L19.670948,55.2549549 L19.957891,55.083458 L20.2493291,54.884252 L20.5467607,54.6573369 L20.8509352,54.400466 L21.009016,54.258176 C21.0097652,54.2574271 21.0105144,54.2566782 21.0120128,54.2551804 L21.6001334,53.7144783 L22.7531495,52.6630301 L23.87395,51.6595111 L24.962535,50.7136569 L26.017406,49.8359523 L26.784585,49.2300964 L27.283551,48.8526534 L27.775025,48.4976773 L28.2567595,48.1659169 L28.7287543,47.8596189 L29.1910096,47.5802812 L29.6427761,47.3279036 L30.0833047,47.1039841 L30.5125953,46.9107692 L30.9306479,46.7475102 L31.3359641,46.6164536 L31.7285439,46.5183484 L32.1076382,46.4524456 L32.4739962,46.420992 L32.8268685,46.4224898 L33.1670045,46.4576879 L33.4959025,46.528084 L33.8150609,46.6321804 L34.125229,46.7737215 L34.4294035,46.9534562 L34.7283335,47.1736313 L35.0235176,47.4372423 L35.1613701,47.5787834 L35.1426402,47.5585632 L35.304467,47.7435402 L35.5561976,48.1097498 L35.7547351,48.506664 L35.9165619,48.9500097 L36.0424272,49.4367913 L36.1338294,49.9655111 L36.1937652,50.5309266 L36.2237332,51.1292935 L36.22673,51.7576163 L36.2072508,52.4099036 L36.1413214,53.4291494 L36.0072149,54.8355738 L35.8476357,56.2689584 L35.6933008,57.7038408 L35.6004003,58.7665225 L35.5569468,59.4629947 L35.5329724,60.1437401 L35.5329724,60.8065119 L35.5614419,61.4490637 L35.622127,62.0683996 L35.720272,62.6622732 L35.8618704,63.2269399 L36.0521668,63.760153 L36.2979038,64.258168 L36.6058242,64.7149938 L36.9804233,65.1231415 L37.3145657,65.3979859 L37.5625504,65.5627427 L37.8210237,65.7042838 L38.0967287,65.8278515 L38.2488159,65.8862653 C38.2555587,65.8892608 38.2630507,65.8915075 38.2705427,65.8937542 L38.4870609,65.9641503 L38.9583066,66.0719912 L39.4422886,66.1214182 L39.9217755,66.1116826 L40.3945196,66.0480265 L40.8582733,65.9341945 L41.3137858,65.7769266 L41.7603079,65.5807162 L42.2000872,65.3508055 L42.6331238,65.0916879 L43.2691931,64.6610734 L44.1105427,64.0185217 L44.9488954,63.3272918 L45.7850006,62.6188373 L46.625601,61.9223652 L47.472195,61.2663333 L48.1097627,60.8207409 L48.5345581,60.5533855 L48.9660962,60.3092458 L49.3991328,60.0950619 L49.8344169,59.9138294 L50.2726979,59.7677949 L50.7132264,59.659954 L51.1567518,59.5940513 L51.6055215,59.5708355 L52.061034,59.5940513 L52.2790507,59.6225093 L52.2558255,59.6187648 L52.5322797,59.6681919 L53.0170109,59.7940062 L53.4463015,59.9572653 L53.8358845,60.1572202 L54.1880077,60.3908753 L54.5071661,60.6559841 L54.7948582,60.9502997 L55.0540808,61.2715756 L55.2863323,61.6190628 L55.493111,61.9890168 L55.6751661,62.3799399 L55.833247,62.7888364 L55.969601,63.211962 L56.0842284,63.646321 L56.2198332,64.3165818 L56.3367081,65.2137577 L56.3921488,66.0892157 L56.4011392,66.713794 L56.3958948,67.1107082 L56.3824092,67.4903979 L56.3621809,67.8468718 L56.3382065,68.1763855 L56.3112354,68.4759434 L56.2827659,68.74255 L56.2550455,68.9717118 L56.2295728,69.1611821 L56.2078461,69.3064677 L56.1921129,69.4060707 L56.1838717,69.4547489 L56.1831225,69.4577445 C56.1381706,69.7123687 56.3082386,69.9557595 56.562966,70.0006932 C56.8169442,70.0456269 57.0604336,69.8756278 57.1053855,69.6217524 L57.1076331,69.6112679 L57.1173727,69.5521052 L57.1346042,69.4427666 L57.1578294,69.2854987 L57.1848005,69.084046 L57.2140192,68.8414041 L57.243238,68.5605685 L57.2724567,68.2452838 L57.2979294,67.8985455 L57.3181578,67.5233492 L57.3323926,67.1234394 L57.3376369,66.6988161 L57.326399,66.0285553 L57.2649647,65.0916879 L57.137601,64.130107 L56.9892598,63.4066746 L56.8603977,62.9243864 L56.7060629,62.4480893 L56.5232585,61.9830256 L56.309737,61.5299443 L56.0625016,61.0948364 L55.7800539,60.6799487 L55.4601462,60.2912723 L55.1005311,59.9318028 L54.7004593,59.6075314 L54.2584323,59.3222025 L53.7751995,59.0810584 L53.2500115,58.8870946 L52.6948557,58.7463024 L52.4184015,58.6968753 C52.4101604,58.6961264 52.4026684,58.6946286 52.3944272,58.6938798 L52.1037383,58.6586817 L51.5530776,58.6362149 L51.0144041,58.6684173 L50.4877178,58.7515447 L49.9737678,58.8803546 L49.4725542,59.0503537 L48.9825786,59.2570486 L48.5038409,59.4951972 L48.0348428,59.7610548 L47.5725876,60.0538727 L46.8983092,60.5264253 L46.0269917,61.2019284 L45.1796485,61.9043917 L44.3525337,62.6053572 L43.5419012,63.2748691 L42.7432559,63.8867162 L42.1506402,64.2896216 L41.7640539,64.5225279 L41.3812136,64.7247294 L41.0036177,64.8932308 L40.630517,65.0257851 L40.2619115,65.1208948 L39.8963028,65.176313 L39.5314432,65.1897931 L39.1628377,65.1583395 L38.7755022,65.0737144 L38.558984,65.0033183 L38.5799615,65.0108073 L38.4773214,64.9726136 L38.2675459,64.8812485 L38.0735035,64.777901 L37.9019371,64.6693112 L37.6636921,64.4835853 L37.3782476,64.1862741 L37.1355074,63.8387869 L36.9332239,63.4426216 L36.7698987,62.9977781 L36.6440334,62.507252 L36.5541296,61.9762856 L36.4971905,61.4071256 L36.4694702,60.805763 L36.4694702,60.1759425 L36.4919461,59.5214085 L36.5339012,58.8474032 L36.6245542,57.8041927 L36.7781398,56.3723059 L36.9392174,54.9246923 L37.0763207,53.489061 L37.1429994,52.4376127 L37.1632277,51.7516251 L37.1587325,51.0813643 L37.1242694,50.4313236 L37.0560924,49.802252 L36.9474586,49.1986428 L36.793873,48.6234916 L36.5885927,48.0805429 L36.3248749,47.57429 L36.0094625,47.1271998 L35.8476357,46.9422228 C35.8408929,46.9347339 35.8348993,46.9279938 35.8281565,46.9212538 L35.6438538,46.7362767 L35.2789942,46.4164987 L34.8998999,46.1431521 L34.5058217,45.9184836 L34.0997563,45.7409956 L33.6832021,45.6106879 L33.2584067,45.5260628 L32.8261193,45.4863714 L32.3878384,45.488618 L31.9450622,45.5305561 L31.4977909,45.6106879 L31.0460244,45.7267666 L30.5890135,45.8757966 L30.1267582,46.0577781 L29.6585093,46.2697153 L29.185016,46.5108594 L28.7055292,46.7797126 L28.2185504,47.0747772 L27.7255779,47.3953042 L27.2258627,47.7390469 L26.7186555,48.1060053 L26.2032072,48.4954306 L25.4180475,49.1170133 L24.3481924,50.0067003 L23.2491187,50.9615411 L22.1215754,51.9710513 L20.9663117,53.0254951 L20.3774419,53.5669461 L20.3811879,53.5639505 L20.2455831,53.6860203 L19.9766209,53.9144332 L19.7196459,54.1128904 L19.4754073,54.2813917 L19.2439051,54.421435 L19.0266376,54.5345181 L18.8228557,54.6213899 L18.6325593,54.685046 L18.4557486,54.7262352 L18.290925,54.7472042 L18.1365901,54.7501998 L17.9904965,54.7359708 L17.848898,54.7045172 L17.7230327,54.6625791 L17.5252444,54.5629761 L17.2502886,54.35029 L16.9828249,54.0544766 L16.7265991,53.6777825 L16.4846081,53.22545 L16.2590994,52.7042193 L16.0500731,52.1200813 L15.8575292,51.4782785 L15.6799692,50.7862997 L15.5181424,50.0486384 L15.369052,49.2720345 L15.2326979,48.4609814 L15.1075818,47.6229682 L14.9375138,46.3221379 L14.7367287,44.535275 L14.5539243,42.7289408 L14.3793611,40.9450734 L14.2460038,39.6464898 L14.1531033,38.8077277 L14.0557075,37.9974235 L13.9523182,37.2215685 L13.8976267,36.8516145 C13.8976267,36.8516145 13.8976267,36.8508656 13.8976267,36.8508656 L13.8436844,36.4861538 L13.7395459,35.7350124 L13.588957,34.5644898 L13.3904195,32.947626 L13.180644,31.3000575 L12.9453958,29.6584801 L12.7438614,28.4520106 L12.5925234,27.6656711 L12.4269506,26.8988028 L12.2448954,26.1558992 L12.0426119,25.4407047 L11.8186017,24.7569637 L11.5706171,24.1091698 L11.2949121,23.5018161 L10.9884901,22.9371494 L10.6483541,22.4211609 L10.2685106,21.9590928 L9.84671199,21.5576852 L9.38071071,21.225176 L8.88024631,20.975794 L8.48092367,20.8432396 L8.19622835,20.7810813 L7.90254266,20.7421388 L7.60061578,20.726412 L7.29044772,20.7353988 L6.97203849,20.7676012 L6.64613727,20.8237683 L6.31199487,20.9039001 L5.97036049,21.0079965 L5.61898653,21.1368064 L5.25937139,21.2903298 L4.89001668,21.4685668 L4.51092239,21.6722661 L4.12133932,21.9014279 L3.72126748,22.1568011 L3.31220526,22.4376366 L3.10767415,22.5851689 C2.89789865,22.7356967 2.85069917,23.0285146 3.00128801,23.2382051 C3.15262604,23.4478957 3.44556254,23.495076 3.65533804,23.3445482" fill="#54B656"></path>
                            <path d="M70.9932726,58.4025597 C66.1542014,55.9641583 63.3439589,50.1519859 63.419628,43.0007896 C63.5020398,35.3006534 67.8923412,31.3779425 73.0715484,34.0874439 C80.7455856,38.1022688 82.2372393,48.2954757 80.6324567,53.6410866 C79.0329185,58.9717197 74.766984,60.3040035 70.9932726,58.4025597 Z" fill="#EDFFFC" opacity="0.508"></path>
                        </g>
                        <path d="M745.69795,164.289542 C745.69795,164.289542 743.976292,157.86702 742.376754,155.328267 C740.776467,152.788765 740.396623,151.444499 742.376754,150.99666 C744.356136,150.548072 745.996131,156.393944 746.592493,152.639735 C747.189604,148.884776 746.443402,142.931063 748.531418,142.034636 C750.619433,141.138209 757.043808,145.296073 756.255651,150.136928 C755.534922,154.559901 752.105842,164.88716 752.105842,164.88716 L745.69795,164.289542 Z" id="Shape" fill="#FFD7B2"></path>
                        <path d="M432.023646,568.359467 C442.676495,576.399601 461.208662,578.732408 467.436747,573.52085 C476.785242,565.697146 470.109886,543.991179 489.52311,531.616442 C509.149855,519.105406 498.104426,482.540618 481.504441,480.712566 C467.292901,479.148125 463.766425,501.294441 450.696662,513.195877 C437.106956,525.569866 429.283828,519.029019 423.968267,527.397918 C415.272323,541.088463 421.370797,560.318584 432.023646,568.359467 Z" id="Shape" fill="#0D6574"></path>
                        <path d="M677.595084,262.803655 C677.595084,262.803655 673.774922,297.0596 677.120842,311.376222 C682.485101,334.3276 718.017324,335.629928 721.557285,329.086086 C724.232672,324.139636 717.615004,262.459164 717.615004,262.459164 L677.595084,262.803655 Z" id="Shape" fill="#0B4650"></path>
                        <path d="M677.435505,209.586443 C677.435505,209.586443 663.811335,221.228012 663.811335,234.675916 C663.811335,247.689461 682.904652,256.416332 682.904652,256.416332 L677.435505,209.586443 Z" id="Shape" fill="#6EC867"></path>
                        <g transform="translate(336.389994, 348.236074)" id="Shape">
                            <path d="M20.9363438,47.0231034 C20.9430866,46.5325774 18.4167903,40.0374129 18.5965978,38.1015199 C18.7764054,36.1656269 18.177796,32.513267 15.6889596,32.107366 C15.3660552,34.676824 14.9981988,38.2775102 14.9981988,38.2775102 C14.9981988,38.2775102 9.68938037,32.2938408 4.83083002,32.6458214 C-0.0277203335,32.9978019 0.602355356,39.6854324 0.602355356,39.6854324 C0.602355356,39.6854324 6.34795638,43.9623705 9.05930468,45.7424934 C12.2089339,47.809443 13.3784323,53.4126737 13.3784323,53.4126737 C21.6555741,51.8287613 20.9288518,47.5136295 20.9363438,47.0231034 Z" fill="#FFD7B2"></path>
                            <path d="M62.1167723,248.874961 C62.1167723,248.874961 45.7190712,260.020762 47.8512893,263.626691 C49.9827582,267.232619 67.8526337,262.315376 71.2996947,257.890156 C74.7467556,253.464188 71.2996947,249.038969 71.2996947,249.038969 L62.1167723,248.874961 Z" fill="#07494F"></path>
                            <path d="M80.8107659,259.856754 C80.8107659,259.856754 79.0066966,268.05191 79.9903938,276.083806 C80.743338,282.230735 82.8613214,289.852237 87.8037819,289.852237 C92.9725003,289.852237 95.3939089,281.496069 95.2448185,273.625185 C95.118204,266.92033 92.7439949,260.512037 92.7439949,260.512037 C92.7439949,260.512037 80.8107659,259.856754 80.8107659,259.856754 Z" fill="#07494F"></path>
                            <path d="M56.2782707,129.684612 C56.2782707,129.684612 59.8182322,250.185527 59.8182322,250.185527 C67.4218448,257.744122 73.2393688,251.130632 73.2393688,251.130632 L75.0779012,153.063609 L79.1235715,264.225806 C79.1235715,264.225806 85.5801616,272.000083 94.9781039,264.225806 C96.11239,245.925065 96.6128544,129.913025 96.6128544,129.913025 C96.6128544,129.913025 56.2782707,129.684612 56.2782707,129.684612 Z" fill="url(#linearGradient-10)"></path>
                            <path d="M68.1290879,47.1204598 C68.3800693,45.8683077 84.2196177,50.3983722 84.2196177,50.3983722 L89.1126312,135.304318 C89.1126312,135.304318 71.5821424,151.308949 58.4899038,132.550632 C59.2023913,107.757721 67.8781065,48.3733607 68.1290879,47.1204598 Z" fill="#D6F2EE"></path>
                            <polygon fill="#3FBEA2" points="68.5066838 61.9598099 71.009755 67.8431273 65.4566979 128.663868 70.4793226 139.029321 76.7733368 130.121218 73.0393329 68.5867798 75.9484695 62.9064129 72.1904913 59.6704385"></polygon>
                            <path d="M100.973188,58.2759965 C108.991107,67.2357737 113.813696,108.32763 107.931741,110.287488 C103.724993,111.689419 97.4159949,107.258958 97.4159949,107.258958 C97.4159949,107.258958 98.8057575,134.154016 98.8057575,134.154016 C98.8057575,134.154016 95.2448185,148.180815 79.7881103,147.918702 C70.1751482,126.344541 69.4087184,99.4382493 69.4087184,99.4382493 C69.4087184,99.4382493 83.1205439,50.2448488 83.1205439,50.2448488 C83.1205439,50.2448488 70.4103964,47.0770239 70.4103964,47.0770239 C70.4103964,47.0770239 69.7443592,48.2670177 68.8730417,52.2054553 C68.0017242,56.143893 71.8458602,101.52467 71.8458602,101.52467 C71.8458602,101.52467 69.8784657,126.344541 65.831297,141.400322 C54.8825144,138.614433 50.4030584,132.146978 50.4030584,127.072467 C56.2760231,100.208113 54.1130879,69.261534 52.8004926,68.6758983 C45.7610263,76.2921583 42.6735805,87.148137 35.3808852,86.8762882 C28.0874407,86.6044394 14.6985196,62.9498488 10.4835305,51.410878 C17.7342707,52.3747056 20.683864,44.9988408 20.683864,44.9988408 C20.683864,44.9988408 30.1762053,67.5780186 37.0868095,71.7613448 C41.3692264,63.6867613 48.7435843,48.5515977 52.1636742,46.0562803 C58.3333214,41.5561715 66.670399,45.5724943 75.2599564,47.2238073 C87.0830532,49.495954 100.973188,58.2759965 100.973188,58.2759965 Z" fill="#07494F"></path>
                            <path d="M60.4175908,12.6593174 C60.4175908,12.6593174 53.6815497,23.2921256 56.5007826,32.7034863 C59.235356,41.830267 71.4367979,40.7286428 71.4367979,40.7286428 L70.6209211,49.0675862 C70.6209211,49.0675862 69.3877409,53.2516614 69.3877409,54.2956207 C69.3877409,56.3880327 72.2616652,60.9016216 72.2616652,60.9016216 C72.2616652,60.9016216 82.7669224,52.8584916 82.9946786,51.6827268 C83.2216857,50.506962 81.7240385,41.4588152 81.7240385,41.4588152 L83.857755,32.2661317 C83.857755,32.2661317 90.6394971,24.5322953 86.753406,17.5286313 C82.8665657,10.5249673 60.4175908,12.6593174 60.4175908,12.6593174 Z" fill="#FFD7B2"></path>
                            <path d="M55.5605388,8.52916269 C55.5605388,8.52916269 46.7342348,20.6260601 69.8477486,23.3992175 C81.9428044,24.8505756 74.2170725,37.1159744 72.3260962,35.6106958 C70.4351199,34.1061662 58.1512662,31.4498364 55.9261475,33.6650672 C56.6131623,37.6491874 58.0396357,44.0095508 64.4392867,46.3842962 C69.9413983,48.4257834 78.9085516,46.4951326 79.2509352,37.1436835 C79.594068,27.7922343 80.5934984,22.6930097 83.4509403,24.0275402 C86.4290032,25.4182378 83.5236126,29.7985234 83.5236126,29.7985234 C83.5236126,29.7985234 78.2822219,34.2604385 82.2889339,38.6294907 C82.5436613,35.9349673 84.3829429,33.1505765 87.3310378,31.1547719 C90.279882,29.1589673 97.2339397,14.4693961 88.4690699,9.72215208 C84.092254,7.35115119 86.4762027,5.1973298 80.3927133,1.34127056 C74.487533,-2.40170557 55.5605388,8.52916269 55.5605388,8.52916269 Z" fill="#07494F"></path>
                            <path d="M70.2320872,47.5345986 C70.2320872,47.5345986 67.9327979,55.8907666 72.1904913,59.6704385 C79.0703784,56.2906764 83.1205439,50.2448488 83.1205439,50.2448488 C83.1205439,50.2448488 82.689755,60.9016216 75.8158614,66.5078479 C74.3848929,63.7504173 72.0593817,60.5885836 72.0593817,60.5885836 C72.0593817,60.5885836 70.6351559,61.7231592 69.0011546,63.3564987 C65.4492059,55.7574633 70.2320872,47.5345986 70.2320872,47.5345986 Z" fill="#D6F2EE"></path>
                            <path d="M97.2549173,92.6397825 L96.9874535,81.8609399" stroke="#D6F2EE" stroke-width="0.5" fill-opacity="0" fill="#000000"></path>
                            <path d="M71.0157486,94.6408294 C71.0157486,94.6408294 75.3446158,66.0308019 75.3446158,66.0308019 C75.3446158,66.0308019 39.9277691,56.1738488 39.9277691,56.1738488 C39.9277691,56.1738488 35.2902322,83.2756021 35.2902322,83.2756021 C35.2902322,83.2756021 71.0157486,94.6408294 71.0157486,94.6408294 Z" fill="#54B656"></path>
                            <path d="M54.8473021,77.6499045 C53.1735933,77.261977 52.1681693,75.4324271 52.6012059,73.5631857 C53.0349917,71.6939443 54.7424144,70.4927171 56.4161232,70.8798957 C58.0890827,71.2678232 59.0945067,73.0973731 58.6614702,74.9666145 C58.2284336,76.8358559 56.5202617,78.0370831 54.8473021,77.6499045 Z" fill="#CDE5CD"></path>
                            <path d="M82.6837614,83.4635747 C80.1544682,80.6312546 77.3442258,80.2882608 77.1644182,77.6783625 C77.088,76.5640071 77.152431,74.2566622 76.7733368,72.7057011 C76.3942425,71.1547401 74.6770802,70.258313 74.6770802,70.258313 C74.6770802,70.258313 73.8582065,76.3071362 73.8582065,76.3071362 C73.8582065,76.3071362 64.7164901,72.9108983 64.7164901,72.9108983 C64.7164901,72.9108983 61.6043207,82.4308488 68.5381501,84.9740955 C76.0203926,87.7187949 79.6652418,92.2653351 79.6652418,92.2653351 C79.6652418,92.2653351 82.8470866,90.7960035 82.6837614,83.4635747 Z" fill="#FFD7B2"></path>
                            <path d="M97.790594,107.633405 L77.8716613,93.5219805 C77.8716613,93.5219805 83.0606081,94.2866021 83.0606081,83.8380221 C90.7766004,88.2085721 102.819962,96.3213492 102.819962,96.3213492" stroke="#D6F2EE" stroke-width="0.5" fill-opacity="0" fill="#000000"></path>
                        </g>
                        <g transform="translate(251.730597, 373.698497)" id="Shape">
                            <path d="M5.0480975,0.936867374 C6.48805645,1.94113528 111.220721,72.7304147 111.220721,72.7304147 C115.24916,75.7993855 115.978879,79.2038612 115.978879,81.8661821 L116.04331,166.864991 C116.062789,171.35162 113.971028,173.745836 111.220721,171.685627 L5.0480975,99.8920796 C5.0480975,99.8920796 0.402319436,97.5944704 0.255476588,91.8759098 C0.206029506,89.938519 0.226257858,5.75750309 0.226257858,5.75750309 C0.164074407,0.966074271 3.60888775,-0.0674005305 5.0480975,0.936867374 Z" fill="url(#linearGradient-11)"></path>
                            <path d="M9.98980885,63.4388771 C9.98980885,63.4388771 40.615533,83.98855 40.615533,83.98855 C40.615533,83.98855 40.615533,120.685143 40.615533,120.685143 L9.98980885,100.13547 L9.98980885,63.4388771 Z" fill="#0D6574" opacity="0.488"></path>
                            <path d="M24.5197588,94.1727701 C21.6525773,92.7281521 19.9871097,89.2832361 20.0328108,85.0459894 C20.0807595,80.4837224 22.6827248,78.159153 25.7514407,79.7647834 C30.2983246,82.1440221 31.1823784,88.1838585 30.2316459,91.3516835 C29.2839102,94.5097728 26.7561155,95.2991079 24.5197588,94.1727701 Z" fill="#FFFFFF" opacity="0.508"></path>
                            <path d="M15.6844644,100.017894 L34.0248364,112.024175 C34.0248364,112.024175 32.3661116,102.600083 24.5909326,97.8401079 C20.4980629,95.3350548 15.6844644,100.017894 15.6844644,100.017894 Z" fill="#FFFFFF" opacity="0.5"></path>
                            <path d="M9.11099936,22.5799266 L44.6784349,47.4949072 C44.8477537,47.6139814 45.0815035,47.5727922 45.1998768,47.403542 C45.3189994,47.2342918 45.2777935,47.0006366 45.1084747,46.8815623 C45.1084747,46.8815623 45.1084747,46.8815623 45.1084747,46.8815623 L9.54103913,21.9665818 C9.37172033,21.8475075 9.13797049,21.8886967 9.01884798,22.0579469 C8.90047466,22.2279461 8.94168056,22.4608523 9.11099936,22.5799266" fill="#FFFFFF"></path>
                            <path d="M9.11174856,36.7123201 L12.1834612,38.854908 L15.255923,40.997496 L18.3283849,43.140084 L21.4000975,45.282672 L24.4725593,47.4252599 L27.544272,49.5678479 L30.6167338,51.7104359 L33.6891956,53.852275 L36.7609083,55.994863 L39.8333701,58.1374509 L42.9050827,60.2800389 L45.9775446,62.4226269 L49.0492572,64.5652149 L52.1217191,66.7078028 L55.1941809,68.8503908 L58.2658935,70.9929788 L61.3383554,73.1355668 L64.410068,75.2781547 L67.4825298,77.4207427 L70.5549917,79.5633307 L73.6267043,81.7059187 L75.1153611,82.7446357 C75.2854291,82.8629611 75.519179,82.821023 75.6375523,82.6517728 C75.7559256,82.4817737 75.7139705,82.2481185 75.5446517,82.1297931 C75.5446517,82.1297931 75.5446517,82.1297931 75.5446517,82.1297931 L74.0552457,81.0918249 L70.983533,78.949237 L67.9110712,76.806649 L64.8393586,74.664061 L61.7668967,72.521473 L58.6951841,70.3788851 L55.6227223,68.2362971 L52.5502604,66.0937091 L49.4785478,63.9511211 L46.406086,61.8085332 L43.3343733,59.6659452 L40.2619115,57.5233572 L37.1894496,55.3807692 L34.117737,53.2381813 L31.0452752,51.0955933 L27.9735625,48.9530053 L24.9011007,46.8104173 L21.8286389,44.6685782 L18.7569262,42.5259903 L15.6844644,40.3834023 L12.6127518,38.2408143 L9.54028993,36.0982263 C9.37097114,35.979901 9.1372213,36.0210902 9.01884798,36.1910893 C8.90047466,36.3603395 8.94168056,36.5939947 9.11174856,36.7123201" fill="#FFFFFF"></path>
                            <path d="M10.1501373,50.3579319 L56.5876895,82.7446357 C56.7570083,82.8629611 56.9907582,82.821023 57.1091315,82.6517728 C57.2275048,82.4817737 57.1862989,82.2481185 57.0162309,82.130542 L10.5786786,49.7438382 C10.5786786,49.7438382 10.5786786,49.7438382 10.5786786,49.7438382 C10.4093598,49.6255128 10.17561,49.6674509 10.0572367,49.8367011 C9.93886337,50.0067003 9.98081847,50.2396065 10.1501373,50.3579319" fill="#FFFFFF"></path>
                            <path d="M95.6651187,94.266382 C93.3523438,93.1011017 92.0090314,90.3219531 92.0449929,86.9039973 C92.0847004,83.2231795 94.1832046,81.3471981 96.6593047,82.642786 C100.327379,84.5622034 101.040616,89.4352617 100.273437,91.9904907 C99.5085055,94.5382308 97.4691879,95.1755402 95.6651187,94.266382 Z" fill="#FFFFFF" opacity="0.508"></path>
                            <path d="M87.860721,99.3296596 L104.733414,108.499876 C104.733414,108.499876 103.208046,101.3015 96.0539525,97.6663643 C92.2892316,95.7529381 87.860721,99.3296596 87.860721,99.3296596 Z" fill="#FFFFFF" opacity="0.5"></path>
                            <path d="M80.4803695,139.804427 C79.023179,139.069761 78.1773342,137.319594 78.1998101,135.165773 C78.2245337,132.847195 79.5468685,131.665439 81.1066992,132.481734 C83.4179756,133.69045 83.8667453,136.76017 83.3835125,138.370294 C82.9017781,139.975175 81.6169031,140.376583 80.4803695,139.804427 Z" fill="#FFFFFF" opacity="0.508"></path>
                            <path d="M91.1594407,147.631875 C89.7022502,146.89721 88.8556562,145.147042 88.8788813,142.993221 C88.9036049,140.674643 90.2259397,139.492887 91.7857704,140.309182 C94.0962976,141.517898 94.5458165,144.587618 94.0625837,146.197742 C93.5808493,147.803372 92.2959743,148.20478 91.1594407,147.631875 Z" fill="#FFFFFF" opacity="0.508"></path>
                            <path d="M100.773152,154.288052 C99.3159615,153.553386 98.4693675,151.803219 98.4925927,149.649398 C98.5173162,147.33082 99.8396511,146.149064 101.399482,146.965359 C103.710009,148.174075 104.159528,151.243795 103.676295,152.853919 C103.194561,154.459549 101.909686,154.860957 100.773152,154.288052 Z" fill="#FFFFFF" opacity="0.508"></path>
                            <path d="M81.9840103,113.019456 L103.805906,127.739732 C104.149039,127.971141 104.614291,127.881273 104.845793,127.538279 C105.077296,127.195286 104.987392,126.729473 104.644259,126.498813 L82.8223631,111.777789 C82.8223631,111.777789 82.8223631,111.777789 82.8223631,111.777789 C82.4792303,111.54638 82.0139782,111.636996 81.7824759,111.979241 C81.5509737,112.322235 81.6416267,112.788048 81.9840103,113.019456" fill-opacity="0.641" fill="#07494F"></path>
                        </g>
                        <g transform="translate(549.162284, 334.755968)" id="Shape">
                            <path d="M44.3105786,174.010945 L39.3381501,180.068006 L46.1858217,188.141841 C46.1858217,188.141841 50.9589634,182.928784 51.9291751,182.364118 C52.8993868,181.798702 44.3105786,174.010945 44.3105786,174.010945 Z" fill="#FFD7B2"></path>
                            <path d="M52.4963182,205.065365 C52.4963182,205.065365 53.7714535,205.41435 54.5408801,200.655124 C55.2054189,196.545938 49.4455831,183.049356 47.5388736,180.49937 C45.631415,177.948634 42.8878512,176.835027 39.5142117,177.615376 C37.3235561,178.122378 35.0377524,180.634171 35.0377524,180.634171 L52.4963182,205.065365 Z" fill="#3FBEA2"></path>
                            <path d="M66.1317255,235.401595 C66.1317255,235.401595 77.2206081,255.77378 86.2117357,253.376568 C95.2028634,250.980104 81.2235741,230.757698 81.2235741,230.757698 L66.1317255,235.401595 Z" fill="url(#linearGradient-12)"></path>
                            <path d="M14.3134317,125.174019 C14.3134317,125.174019 9.96433611,143.397624 20.354966,150.946484 C30.7463451,158.495343 63.242068,162.833691 63.242068,162.833691 L65.9384323,234.791995 C65.9384323,234.791995 74.9123284,244.136704 83.4539371,233.801207 C84.8774137,219.870266 86.7893675,153.328718 83.4539371,147.623637 C82.1525799,145.397173 52.8993868,125.174019 52.8993868,125.174019 L14.3134317,125.174019 Z" fill="#07494F"></path>
                            <path d="M16.9386222,65.3822591 C16.9386222,65.3822591 7.28295574,67.7135685 11.3713303,55.8345995 C14.7060115,46.1453988 23.7623194,41.0866145 29.6772393,42.3207931 C35.5921591,43.5549717 34.4571238,51.8931662 34.4571238,51.8931662 L16.9386222,65.3822591 Z" fill="#0D6574"></path>
                            <path d="M24.6306402,47.8184297 C24.6306402,47.8184297 9.97482489,52.3896835 3.77895574,66.8261282 C0.0337139192,75.5522502 -0.687763951,88.5380858 0.728220654,101.325464 C1.04063631,104.151793 11.0042232,108.899037 11.1001206,111.511931 C11.4170314,120.105499 12.1190301,126.117626 12.1190301,126.117626 C27.1494445,148.011565 54.0171905,133.959303 60.9899782,125.174019 C57.3496241,110.571319 60.9899782,88.1748718 60.9899782,88.1748718 C60.9899782,88.1748718 65.1000795,61.1143077 60.4842694,52.6203431 C55.8692085,44.1256295 41.223882,45.147122 41.223882,45.147122 L24.6306402,47.8184297 Z" fill="url(#linearGradient-13)"></path>
                            <path d="M93.8700398,125.174019 C93.8700398,125.174019 107.736949,140.142179 98.4079333,148.943939 C87.2830892,159.439699 59.0031046,177.370487 50.6660269,184.625031 C49.8299217,177.151061 41.2223836,176.271859 41.2223836,176.271859 L70.7909891,139.621697 L93.8700398,125.174019 Z" fill="#07494F"></path>
                            <path d="M56.7165516,25.4826428 C56.7165516,25.4826428 57.6253291,43.5706985 49.4957793,46.0592759 C44.5450776,47.57429 41.1062579,46.4831503 41.1062579,46.4831503 C41.1062579,46.4831503 46.9425119,57.3249001 42.1888493,59.7857683 C37.2358999,62.3492352 23.533814,49.2226074 23.533814,49.2226074 L27.2161232,35.8143952 L34.4571238,21.2364094 L56.7165516,25.4826428 Z" fill="#FFD7B2"></path>
                            <path d="M44.6851777,63.5826649 C44.6851777,63.5826649 49.4837922,72.0474226 48.9076588,84.3277993 C48.4791174,93.4755491 43.820603,113.1595 49.1961001,119.945984" stroke="#07494F" fill-opacity="0" fill="#000000"></path>
                            <path d="M38.5185273,30.5406782 C44.1465042,32.2376737 62.0823092,33.0547179 59.1566902,22.1822635 C64.0631892,20.8170283 68.3605901,10.5773899 61.6043207,3.88826172 C52.0040949,-5.61671088 41.7962694,6.76626437 38.695338,5.7567542 C12.1692264,0.259117595 6.6738576,28.5044332 21.4570366,31.3697047 C17.6848236,31.4475897 18.6984888,37.1661503 23.526322,36.5093696 C20.8082309,41.5329558 26.7868326,40.4747675 26.7868326,40.4747675 C26.7868326,40.4747675 32.6268326,39.6854324 33.8450289,34.3802617 C34.9313663,29.6509912 33.2494163,28.3097206 33.2494163,28.3097206 C33.2494163,28.3097206 35.807179,29.723634 38.5185273,30.5406782 Z" fill="#07494F"></path>
                            <path d="M31.7457755,35.8143952 C29.2442027,35.8143952 27.2161232,33.2314571 27.2161232,30.0464076 C27.2161232,26.8606092 29.2442027,24.27842 31.7457755,24.27842 C34.2473483,24.27842 36.2746786,26.8606092 36.2746786,30.0464076 C36.2746786,33.2314571 34.2473483,35.8143952 31.7457755,35.8143952 Z" fill="url(#linearGradient-14)"></path>
                            <path d="M30.3934727,35.8143952 C28.1496241,35.8143952 26.3305709,33.4209275 26.3305709,30.4695332 C26.3305709,27.5173899 28.1496241,25.1246711 30.3934727,25.1246711 C32.6380706,25.1246711 34.4571238,27.5173899 34.4571238,30.4695332 C34.4571238,33.4209275 32.6380706,35.8143952 30.3934727,35.8143952 Z" fill="url(#linearGradient-15)"></path>
                            <path d="M29.0359256,32.2376737 C28.2605055,32.2376737 27.6319282,31.3996605 27.6319282,30.3654368 C27.6319282,29.3312131 28.2605055,28.4931998 29.0359256,28.4931998 C29.8113457,28.4931998 30.439923,29.3312131 30.439923,30.3654368 C30.439923,31.3996605 29.8113457,32.2376737 29.0359256,32.2376737 Z" fill="#FAFAFA"></path>
                            <path d="M33.3175933,25.6848444 C33.3175933,25.6848444 29.3520872,10.3736905 38.695338,5.7567542 C37.8869532,5.2392679 36.3391097,5.08499558 35.2677563,5.4407206 C33.195474,6.6179832 27.4363874,13.0914297 30.613737,25.0310592 C31.8251905,25.6623775 33.3175933,25.6848444 33.3175933,25.6848444 Z" fill="#FAFAFA"></path>
                            <g transform="translate(23.225144, 78.633952)">
                                <polygon fill="url(#linearGradient-16)" points="0.307171264 52.3664677 0.307171264 50.3040115 50.9200051 18.9410469 83.767102 40.4126092 33.1542681 73.8380301"></polygon>
                                <polygon fill="url(#linearGradient-17)" points="0.307171264 50.3422051 50.9200051 16.9167843 83.767102 38.3883466 33.1542681 71.8145164"></polygon>
                                <polygon fill-opacity="0.666" fill="#07494F" points="20.1384477 39.2278576 37.3939808 28.1591927 48.5922463 35.2699487 31.3367133 46.3386136"></polygon>
                                <polygon fill="url(#linearGradient-18)" points="41.2186376 34.6318904 91.4239076 0.521979664 83.767102 40.4126092 32.9812033 73.9541088"></polygon>
                                <path d="M63.3484541,40.9248532 C60.4250827,42.1537896 59.7373188,39.0803254 60.2198024,36.9242573 C60.7562284,34.5262962 62.0186273,32.8307984 63.733542,32.1500531 C65.4589455,31.4648143 66.4471379,33.2209726 66.1579474,35.481137 C65.6192739,39.695168 63.3484541,40.9248532 63.3484541,40.9248532 C63.3484541,40.9248532 64.7764259,40.3249885 63.3484541,40.9248532 Z" fill="#FFFFFF"></path>
                            </g>
                            <path d="M52.8993868,80.4477754 L59.5560128,99.9385111 C59.5560128,99.9385111 71.4727595,108.491638 71.4727595,108.491638 C71.4727595,108.491638 83.9349224,100.126484 83.9349224,100.126484 L70.7909891,93.0928638 C70.7909891,93.0928638 59.9268659,51.8931662 59.9268659,51.8931662 C59.9268659,51.8931662 52.8993868,80.4477754 52.8993868,80.4477754 Z" fill="url(#linearGradient-19)"></path>
                            <path d="M23.5330648,118.932729 C38.03005,128.468407 50.2337396,132.200898 50.2337396,132.200898 C50.2337396,132.200898 48.1749429,124.981553 56.6139115,119.571537 C47.6415138,114.307555 29.445737,105.321567 26.0016729,102.847218 C22.5546119,100.369126 14.3726183,84.9224218 14.3726183,84.9224218 L7.62309173,107.872302 L23.5330648,118.932729 Z" fill="url(#linearGradient-20)"></path>
                            <path d="M22.0871123,85.2609222 L20.7070892,99.5820371 C20.6928544,99.7288205 20.7662758,99.8711105 20.8951379,99.9437533 L56.8042078,120.271753 L56.7959666,119.624708 L56.7907223,119.628453 L56.7435228,119.656911 L56.6551174,119.713078 L56.5285029,119.795456 L56.3674253,119.904046 L56.1741321,120.039596 L55.9523695,120.200608 L55.7051341,120.387832 L55.4354227,120.600518 L55.1462322,120.838667 L54.8413085,121.101529 L54.5228993,121.390602 L54.1940013,121.704389 L53.8576113,122.042889 L53.3496549,122.595574 L52.8409493,123.205174 L52.5053085,123.644775 L52.1801565,124.106095 L51.8669917,124.592127 L51.5688108,125.102125 L51.2878614,125.635338 L51.0286389,126.192515 L50.7933906,126.773658 L50.5858627,127.378765 L50.409052,128.006339 L50.2667043,128.656379 L50.1610674,129.329636 L50.0966363,130.02461 L50.076408,130.741302 L50.1026299,131.479713 L50.1790481,132.238343 L50.2382348,132.630764 L50.6555382,132.203894 L50.4562514,132.178431 L50.0494368,132.108784 L49.6141527,132.013675 L49.1459038,131.892354 L48.6469378,131.746319 L48.118753,131.574822 L47.5635972,131.38011 L46.9822194,131.16293 L46.3768672,130.923284 L45.7482899,130.663417 L45.0979859,130.383331 L44.4274535,130.083773 L43.7374419,129.76699 L43.0301988,129.432234 L42.3057242,129.081752 L41.5662656,128.715542 L40.4304811,128.139642 L38.8743964,127.327091 L37.2793534,126.469607 L35.6558409,125.573928 L34.0121001,124.649043 L32.3586196,123.700943 L29.8817704,122.251082 L27.4371366,120.791486 L25.8420936,119.825412 L24.286009,118.872069 L22.777873,117.938946 L21.3274253,117.03503 L20.2837922,116.379747 L19.6117614,115.955124 L18.9592097,115.541734 L18.3276357,115.141075 L17.7185375,114.752399 L17.1326645,114.377951 L16.5722643,114.018482 L16.0373368,113.674739 L15.5301296,113.346723 L15.0513919,113.036681 L14.601873,112.745361 L14.1830712,112.473512 L13.7964849,112.221134 L13.4428634,111.990475 L13.1244541,111.781533 L12.8412572,111.595807 L12.594771,111.433297 L12.3864939,111.296249 L12.2179243,111.184664 L12.0890622,111.100039 L12.0029044,111.042374 L11.9587017,111.013167 L11.9534573,111.009423 C11.7811418,110.894842 11.5488903,110.942022 11.4335138,111.113519 C11.3196357,111.285765 11.366086,111.518671 11.5384015,111.633252 C11.5384015,111.633252 11.5384015,111.633252 11.5384015,111.633252 L11.5436459,111.636996 L11.5885978,111.666203 L11.6755048,111.723868 L11.8043669,111.809242 L11.9744349,111.921576 L12.182712,112.059373 L12.4299474,112.221883 L12.7138935,112.408358 L13.033052,112.6173 L13.3874227,112.848708 L13.774009,113.101086 L14.19356,113.373683 L14.6438281,113.665752 L15.1240641,113.976544 L15.6320205,114.303811 L16.1676972,114.649051 L16.7288467,115.00927 L17.3154689,115.383717 L17.9253162,115.773142 L18.5583887,116.17455 L19.2116895,116.588689 L19.8852187,117.014061 L20.9310994,117.670093 L22.3830455,118.576256 L23.8941783,119.510127 L25.454009,120.465717 L27.0527979,121.434787 L29.5026761,122.897378 L31.9862681,124.350234 L33.6442437,125.301331 L35.2939782,126.22996 L36.9249827,127.128634 L38.5275176,127.990612 L40.0918435,128.807656 L41.2343708,129.387301 L41.9790738,129.755757 L42.7102912,130.109235 L43.4250263,130.446987 L44.1225298,130.768263 L44.8020526,131.070816 L45.4620962,131.355396 L46.1019115,131.619756 L46.72,131.863896 L47.3156126,132.087066 L47.888,132.287021 L48.4356639,132.464509 L48.957855,132.618033 L49.4545734,132.745345 L49.9243207,132.847195 L50.3618525,132.921335 L50.5611392,132.946798 C50.5956023,132.950542 50.6300654,132.950542 50.6645285,132.9453 C50.8690597,132.914595 51.0099089,132.723627 50.9784426,132.519179 L50.9245003,132.161956 L50.8510789,131.452004 L50.824857,130.762271 L50.8428377,130.09276 L50.9020244,129.444217 L50.9986709,128.815894 L51.1305298,128.207791 L51.2946042,127.620658 L51.4878974,127.054493 L51.7081616,126.508549 L51.9509019,125.983574 L52.2153688,125.479568 L52.4970674,124.997279 L52.7930006,124.536709 L53.1009211,124.098606 L53.4163335,123.684467 L53.9010648,123.102576 L54.3902912,122.570111 L54.7116972,122.24584 L55.0263605,121.945533 L55.3312842,121.668442 L55.6234715,121.416065 L55.8999256,121.187652 L56.1576498,120.984701 L56.392898,120.806464 L56.6041719,120.652941 L56.7862271,120.52488 L56.9383143,120.422281 L57.0551892,120.345894 L57.1346042,120.295718 L57.1750609,120.271004 L57.1810545,120.26726 C57.2364952,120.234309 57.2821963,120.187128 57.3144118,120.130961 C57.4163028,119.950477 57.3533701,119.722065 57.1728133,119.620215 L21.2644926,99.2922149 L21.4525414,99.653931 L22.8333137,85.3328161 C22.8333137,85.3328161 22.8333137,85.3328161 22.8333137,85.3328161 C22.8527928,85.12687 22.702204,84.9433908 22.4961745,84.9239195 C22.290145,84.9044483 22.1073406,85.0549761 22.0871123,85.2609222" fill="#053E43"></path>
                            <path d="M50.6660269,128.461667 C50.6660269,128.461667 53.1016703,128.763471 53.9767338,131.252049 C55.217406,134.78159 60.4430635,136.27863 60.4430635,136.27863 L63.242068,122.206897 C63.242068,122.206897 60.5314689,120.709857 56.6139115,119.571537 C51.0900731,124.144288 50.6660269,128.461667 50.6660269,128.461667 Z" fill="#FFD7B2"></path>
                            <polyline stroke="#043B40" fill-opacity="0" fill="#000000" points="54.9686722 82.8756923 59.9306119 100.312958 71.1655882 108.349348"></polyline>
                            <path d="M35.296975,180.217036 C35.296975,180.217036 33.6966876,184.718643 38.1177062,191.776227 C40.9871353,196.357217 51.1342758,206.544432 52.7615343,204.759816 C54.5880795,202.757271 47.5748352,189.655357 40.8702604,182.692882 C37.5048621,179.19779 35.296975,180.217036 35.296975,180.217036 Z" fill="#07494F"></path>
                            <g transform="translate(62.932649, 160.263484)">
                                <path d="M0.68401796,14.1219089 L22.7471559,0.303302387" fill="#FFD7B2"></path>
                                <path d="M0.68401796,14.1219089 L22.7471559,0.303302387" stroke="#D6F2EE" fill-opacity="0" fill="#000000"></path>
                            </g>
                            <path d="M54.0808724,161.617485 L68.144821,144.455813" stroke="#D6F2EE" fill-opacity="0" fill="#000000"></path>
                        </g>
                        <path d="M711.700085,166.298078 C711.700085,166.298078 722.562709,184.600317 711.95631,189.59245 C701.349162,194.583834 694.320934,172.569323 694.320934,172.569323 L711.700085,166.298078 Z" id="Shape" fill="#FFD7B2"></path>
                        <path d="M697.335708,194.765815 C697.335708,194.765815 708.223805,201.255737 716.575117,201.208557 C728.566035,201.141156 736.165152,194.508944 736.165152,194.508944 L744.243007,162.618758 C744.243007,162.618758 747.838409,158.839086 751.70652,162.558846 C753.880693,164.649011 748.493208,199.924951 744.710507,207.256631 C739.386704,217.578648 715.382394,221.688583 715.382394,221.688583 L719.783933,282.835093 C719.783933,282.835093 686.500054,290.612365 675.747561,270.985331 C669.595895,259.755653 677.435505,209.586443 677.435505,209.586443 L697.335708,194.765815 Z" id="Shape" fill="#7DD976"></path>
                        <path d="M708.136149,185.525202 C708.136149,185.525202 708.725019,196.252371 708.679318,201.007853 C704.842674,206.280821 698.181552,202.87335 696.976092,197.685007" id="Shape" fill="#FFD7B2"></path>
                        <path d="M689.419679,158.853315 C695.048405,156.289099 701.383625,145.040699 709.63979,150.241025 C721.463636,157.688783 716.052926,168.712515 709.407538,171.185365 C702.76215,173.657467 715.729273,180.265714 712.738473,188.034749 C709.748423,195.804532 699.904708,192.932521 703.386981,200.801158 C715.998235,229.297354 679.474822,240.827338 667.698925,222.390297 C655.404582,203.141454 676.160369,196.695717 676.615882,188.756683 C677.082632,180.623686 667.355043,178.183038 673.404818,166.004511 C677.35609,158.051248 683.790953,161.417531 689.419679,158.853315 Z" id="Shape" fill="#0B4650"></path>
                        <polygon id="Shape" fill="#D6F2EE" points="645.13757 107.531555 659.118358 117.426702 659.118358 162.747568 645.13757 152.85317"></polygon>
                        <path d="M752.480441,223.664916 L801.147607,255.065325 C801.234514,255.120744 801.349891,255.09603 801.406081,255.009158 C801.462271,254.922286 801.437547,254.806208 801.35064,254.750041 L752.683474,223.35038 C752.683474,223.35038 752.683474,223.35038 752.683474,223.35038 C752.596567,223.294213 752.480441,223.319676 752.424251,223.406547 C752.368062,223.493419 752.393534,223.609498 752.480441,223.664916" id="Shape" fill="#FFFFFF"></path>
                        <path d="M752.480441,210.118158 L801.147607,241.517819 C801.234514,241.573986 801.349891,241.549272 801.406081,241.462401 C801.462271,241.375529 801.437547,241.25945 801.35064,241.203283 L752.683474,209.803622 C752.683474,209.803622 752.683474,209.803622 752.683474,209.803622 C752.596567,209.747455 752.480441,209.772169 752.424251,209.859041 C752.368062,209.946661 752.393534,210.061991 752.480441,210.118158" id="Shape" fill="#FFFFFF"></path>
                        <path d="M752.480441,197.950116 L801.147607,229.349776 C801.234514,229.405943 801.349891,229.38123 801.406081,229.294358 C801.462271,229.207486 801.437547,229.091408 801.35064,229.03524 L752.683474,197.63558 C752.683474,197.63558 752.683474,197.63558 752.683474,197.63558 C752.596567,197.579413 752.480441,197.604875 752.424251,197.691747 C752.368062,197.778619 752.393534,197.893949 752.480441,197.950116" id="Shape" fill="#FFFFFF"></path>
                        <path d="M788.612023,158.299133 C782.804239,155.373201 779.432097,148.397246 779.5235,139.814912 C779.621645,130.574299 784.890756,125.865997 791.106104,129.117698 C800.315997,133.936836 802.105832,146.169284 800.180393,152.585065 C798.260198,158.982125 793.140926,160.581764 788.612023,158.299133 Z" id="Shape" fill="url(#linearGradient-21)" opacity="0.508"></path>
                        <path d="M765.652095,188.329813 L765.915813,188.185277 L766.407287,187.940388 L766.865796,187.744927 L767.296585,187.594399 L767.699654,187.48506 L768.0765,187.415413 L768.427125,187.382462 L768.752277,187.38321 L769.054204,187.415413 L769.335153,187.476822 L769.597373,187.564443 L769.84236,187.677526 L770.073114,187.815323 L770.291879,187.977084 L770.500157,188.162061 L770.697196,188.370254 L770.885244,188.600913 L771.062804,188.852542 L771.314535,189.272672 L771.614214,189.889012 L771.874935,190.555529 L772.102691,191.262485 L772.301978,191.995653 L772.477291,192.740055 L772.633124,193.480712 L772.704298,193.843177 L772.703548,193.836437 L772.772475,194.211633 L772.895343,195.002466 L773.009221,195.848717 L773.12235,196.735408 L773.239974,197.639324 L773.371833,198.540994 L773.52467,199.420196 L773.706725,200.257461 L773.868552,200.851334 L773.992169,201.227279 L774.128523,201.57926 L774.279861,201.909523 L774.44918,202.215821 L774.639477,202.495907 L774.853747,202.746787 L775.097237,202.964715 L775.372192,203.142952 L775.680113,203.271762 L776.015754,203.343656 L776.372372,203.351894 L776.741727,203.296476 L777.120821,203.179648 L777.508906,203.002909 L777.908978,202.768505 L778.122499,202.623968 C778.126245,202.620973 778.13074,202.618726 778.134486,202.61573 L778.506838,202.34463 L779.20584,201.799435 L779.837414,201.265473 L780.403058,200.750982 L780.912513,200.263452 L781.372521,199.807375 L781.789824,199.39024 L782.172665,199.017291 L782.527035,198.696015 L782.857432,198.432404 L783.169847,198.230202 L783.46653,198.093155 L783.75647,198.018265 L784.051654,198.001041 L784.280159,198.025754 L784.443484,198.059454 L784.631533,198.112626 L784.834566,198.185269 L784.935708,198.226458 L784.912482,198.216722 L785.048087,198.280378 L785.248123,198.409188 L785.410699,198.558218 L785.55904,198.735706 L785.693896,198.943899 L785.817514,199.184294 L785.929144,199.455394 L786.028038,199.754952 L786.115695,200.080721 L786.192113,200.428958 L786.289509,200.991378 L786.392898,201.78895 L786.479805,202.620973 L786.567461,203.470219 L786.670851,204.317219 L786.808703,205.141752 L786.945806,205.73937 L787.058935,206.125051 L787.191543,206.49201 L787.347377,206.840995 L787.530181,207.170508 L787.743702,207.476806 L787.992436,207.756144 L788.277881,208.003279 L788.601534,208.212221 L788.964895,208.376229 L789.17542,208.445127 C789.185909,208.448872 789.196398,208.451867 789.207636,208.454114 L789.487087,208.520766 L790.090191,208.600149 L790.700788,208.597153 L791.300146,208.51777 L791.887518,208.373233 L792.4644,208.176274 L793.030794,207.936628 L793.591944,207.664779 L794.425052,207.218438 L795.546602,206.592362 L796.400688,206.137782 L796.975323,205.860691 L797.561945,205.609812 L798.159056,205.394879 L798.45424,205.30576 L798.428018,205.3125 L798.565121,205.279549 L798.777144,205.257831 L798.959949,205.273558 L799.139007,205.317743 L799.318065,205.390385 L799.499371,205.492235 L799.684423,205.624041 L799.871723,205.785802 L800.058273,205.976021 L800.243325,206.191703 L800.518281,206.564653 L800.864411,207.122579 L801.181321,207.726937 L801.469763,208.358256 L801.726738,208.992569 L801.950748,209.605914 L802.139546,210.173576 L802.25717,210.554764 L802.323849,210.782428 L802.382286,210.986876 L802.430235,211.163615 L802.469193,211.310399 L802.498412,211.424231 L802.517142,211.502116 L802.526881,211.541058 L802.527631,211.544054 C802.586817,211.795683 802.839297,211.951453 803.091028,211.89229 C803.342758,211.832378 803.498591,211.58075 803.439405,211.329121 C803.439405,211.329121 803.439405,211.329121 803.439405,211.329121 L803.437157,211.321632 L803.426668,211.276698 L803.405691,211.192073 L803.374225,211.071501 L803.333768,210.91648 L803.282822,210.731503 L803.222137,210.518068 L803.151713,210.278422 L803.028095,209.878512 L802.830307,209.284638 L802.594309,208.640589 L802.320852,207.96883 L802.009935,207.290332 L801.65931,206.62756 L801.270476,206.006726 L800.952067,205.580605 L800.722063,205.315496 L800.477824,205.072105 L800.218602,204.854926 L799.941398,204.666953 L799.646214,204.51343 L799.333799,204.401844 L799.00565,204.338188 L798.667761,204.328453 L798.344108,204.369642 L798.207754,204.402593 C798.198763,204.40484 798.190522,204.407087 798.181532,204.410082 L797.840647,204.514179 L797.19259,204.749332 L796.567759,205.018185 L795.960908,205.311752 L795.089591,205.774569 L793.983025,206.393905 L793.182132,206.823021 L792.664436,207.075399 L792.157978,207.291829 L791.660511,207.465573 L791.172033,207.590638 L790.68955,207.661034 L790.207815,207.671519 L789.703605,207.61011 L789.424154,207.543458 L789.456369,207.552445 L789.340244,207.518744 L789.099002,207.419141 L788.882484,207.288834 L788.686943,207.12857 L788.508634,206.936853 L788.347556,206.712185 L788.201462,206.456812 L788.071851,206.171483 L787.957224,205.859194 L787.85833,205.528182 L787.732464,204.98748 L787.600606,204.203387 L787.498715,203.37511 L787.411058,202.522867 L787.321155,201.66763 L787.211772,200.831114 L787.106884,200.227505 L787.019228,199.835833 L786.915838,199.457641 L786.79297,199.094427 L786.646876,198.748438 L786.472313,198.423417 L786.266284,198.122362 L786.024292,197.850513 L785.744842,197.616109 L785.446661,197.433378 L785.311056,197.369722 C785.303564,197.365978 785.295323,197.362233 785.287831,197.359238 L785.145483,197.302322 L784.879518,197.210208 L784.619546,197.140561 L784.355079,197.092631 L783.971489,197.068667 L783.500244,197.117345 L783.062712,197.248401 L782.656647,197.447607 L782.272308,197.701483 L781.89696,198.003287 L781.519364,198.34703 L781.128282,198.728218 L780.712477,199.143105 L780.264457,199.587949 L779.773732,200.058255 L779.231312,200.551027 L778.629706,201.061025 L777.955428,201.587498 L777.582327,201.859347 L777.594314,201.851109 L777.430989,201.963443 L777.114827,202.154411 L776.83238,202.288463 L776.586643,202.373837 L776.37387,202.415775 L776.188818,202.424013 L776.023246,202.400798 L775.865914,202.347626 L775.712328,202.259256 L775.560241,202.131944 L775.411151,201.96569 L775.267305,201.759744 L775.130201,201.517102 L775.001339,201.24076 L774.881468,200.933713 L774.772085,200.60345 L774.621496,200.058255 L774.446933,199.259933 L774.298591,198.406193 L774.16898,197.518004 L774.051356,196.617083 L773.937478,195.723652 L773.820603,194.857929 L773.693239,194.042383 L773.624313,193.667935 C773.624313,193.665689 773.623564,193.663442 773.623564,193.661195 L773.549393,193.287497 L773.388316,192.525871 L773.205511,191.750016 L772.993488,190.97491 L772.746253,190.212535 L772.455564,189.477869 L772.116926,188.788886 L771.825488,188.309593 L771.60897,188.006291 L771.372972,187.721711 L771.118245,187.458849 L770.841791,187.219202 L770.544359,187.006516 L770.22595,186.823786 L769.885814,186.674007 L769.526199,186.560175 L769.146355,186.483788 L768.74928,186.447092 L768.334225,186.450836 L767.901937,186.49577 L767.452418,186.581893 L766.984169,186.711452 L766.497191,186.884447 L765.989234,187.103124 L765.464795,187.364488 L765.201827,187.509025 C764.97482,187.633341 764.892408,187.917921 765.016775,188.144836 C765.141142,188.371003 765.425837,188.45413 765.652095,188.329813" id="Shape" fill="#54B656"></path>
                        <g transform="translate(263.717768, 29.955791)" id="Shape">
                            <path d="M220.139156,52.2039576 C220.139156,52.2039576 61.4290083,98.4182546 19.1450109,85.2287197 C9.31852726,82.1642423 0.084659397,87.7397639 0.084659397,98.3014271 C0.084659397,105.5702 0.084659397,176.217189 0.084659397,176.217189 L11.6395433,168.290887 C11.6395433,168.290887 11.9789301,112.384393 11.8373316,106.470371 C11.506186,92.6525137 19.9496498,100.347408 19.9496498,100.347408 L93.2062502,149.460676 L220.139156,61.4543059 L220.139156,52.2039576 Z" fill="url(#linearGradient-22)"></path>
                            <path d="M145.898858,2.49157294 C142.311697,-0.62158267 132.589352,-1.18774713 123.339002,5.039313 C115.51063,10.3092856 14.9907069,80.1287462 3.52347915,88.3770734 C10.9030815,82.8157807 17.8324157,86.6441309 17.8324157,86.6441309 L93.0751405,138.231748 L220.139156,52.2039576 C220.139156,52.2039576 148.213881,4.50085765 145.898858,2.49157294 Z" fill="#91FFD2"></path>
                        </g>
                        <path d="M394.502301,218.307323 C394.502301,218.307323 381.780916,213.666422 386.789306,223.510644 C391.539972,232.850111 405.266032,242.379797 410.89326,242.03905 C420.679287,241.447423 412.682345,226.556399 412.682345,226.556399 L394.502301,218.307323 Z" id="Shape" fill="#07494F"></path>
                        <polygon id="Shape" fill="url(#linearGradient-4)" points="359.842145 121.762803 376.296785 133.444813 425.609011 100.286747 409.30496 88.6474244"></polygon>
                        <path d="M413.504965,156.80359 C407.643238,152.940042 390.767548,162.600784 394.505298,186.766121 C398.243048,210.931458 404.382727,230.470872 404.382727,230.470872 C404.382727,230.470872 408.572244,234.019884 413.504965,229.222464 C407.896467,201.290187 409.430825,185.771589 409.430825,185.771589 C409.430825,185.771589 414.926194,157.740457 413.504965,156.80359 Z" id="Shape" fill="#FFD7B2"></path>
                        <path d="M429.264349,152.014408 C429.264349,152.014408 411.374245,148.412224 407.624508,149.500368 C398.488785,152.150706 397.177688,174.32623 407.8193,179.325103 C418.460162,184.323975 432.581799,186.536959 432.581799,186.536959 C432.581799,186.536959 445.817883,173.536895 448.102189,173.536895 C450.387243,173.536895 456.159066,159.044283 456.159066,159.044283 L429.264349,152.014408 Z" id="Shape" fill="url(#linearGradient-23)"></path>
                        <path d="M407.624508,131.633236 C407.624508,131.633236 388.146104,118.522335 384.920056,115.157551 C381.694009,111.793515 380.164895,108.678113 375.611269,109.447228 C371.058391,110.215594 364.61229,114.25663 369.551754,116.772917 C374.491967,119.289203 373.812444,118.673612 378.195253,119.794707 C382.578063,120.916552 382.033396,122.132757 386.758589,127.105418 C391.484531,132.07808 413.271964,149.215788 418.465406,146.663554 C423.658848,144.111321 426.085501,123.131782 425.531094,120.24704 C425.205942,118.549295 411.965362,114.047689 411.965362,114.047689 C411.965362,114.047689 407.624508,131.633236 407.624508,131.633236 Z" id="Shape" fill="#FFD7B2"></path>
                        <polygon id="Shape" fill="#0D6574" points="472.779279 193.372122 476.22634 191.541074 502.319415 241.218261 500.757337 242.048036"></polygon>
                        <polygon id="Shape" fill="#0D6574" points="418.465406 193.61776 422.617462 197.248401 395.993955 246.399864 393.970371 245.452512"></polygon>
                        <path d="M436.223651,78.3126764 C414.61228,84.7554182 412.336216,100.377363 407.624508,120.24704 C414.858017,131.425792 425.204444,128.090215 425.204444,128.090215 L426.851931,163.641748 C426.851931,163.641748 461.192929,175.000235 468.866217,149.948956 C470.520446,95.9985756 466.179592,88.0767666 461.488862,82.4196154 C456.798132,76.7624642 451.110969,76.1940531 448.087954,76.1940531 C445.064939,76.1940531 436.223651,78.3126764 436.223651,78.3126764 Z" id="Shape" fill="#07494F"></path>
                        <path d="M419.152421,53.0127639 C419.152421,53.0127639 416.721273,60.0119346 421.005188,68.7432989 C424.672513,76.2187666 432.903205,73.3430106 432.903205,73.3430106 L432.052865,84.2821167 C432.052865,84.2821167 438.701999,88.1014801 443.358266,85.2451954 C446.499654,83.3182891 446.566332,79.4232874 446.566332,79.4232874 L439.396505,48.827191 L419.152421,53.0127639 Z" id="Shape" fill="#FFD7B2"></path>
                        <path d="M427.256498,33.1243652 C427.256498,33.1243652 428.531633,34.676824 443.490124,36.4869027 C457.737627,38.2116074 457.291854,50.2875358 454.824744,56.3386057 C452.356885,62.3896755 457.013901,63.3430186 451.570976,70.2261105 C446.872005,76.1685906 436.705386,79.0480911 430.996495,72.2825756 C426.461598,66.9085066 438.991189,60.1999072 432.121042,57.7757347 C429.883936,56.9863996 429.59999,62.3409973 427.354643,62.2099408 C423.49852,61.9845234 417.241965,56.7901892 416.199831,52.6944836 C413.11688,40.5803616 427.256498,33.1243652 427.256498,33.1243652 Z" id="Shape" fill="#07494F"></path>
                        <path d="M440.336,168.031769 C448.293983,161.901317 443.788305,132.300501 456.159066,124.780849 C484.534948,107.531555 490.693357,144.2274 491.374378,155.979057 C492.0554,167.730714 489.330566,209.675561 446.319097,205.938576 C425.115289,204.096295 413.707248,192.751288 409.302712,184.854193 C405.218833,177.532248 409.621121,169.085464 411.632718,168.449653 C421.144539,164.938834 432.378017,174.161473 440.336,168.031769 Z" id="Shape" fill="#9FFFB4"></path>
                        <polygon id="Shape" fill="#0D6574" points="446.907967 201.306662 452.144862 201.326882 449.754171 265.371615 448.105185 265.390338"></polygon>
                        <g transform="translate(318.409237, 0.000000)" id="Shape">
                            <polygon fill="url(#linearGradient-24)" points="24.130925 92.8869178 42.301229 104.022234 59.2788095 91.2460893 43.5995895 80.6694483"></polygon>
                            <path d="M0.637567672,50.4328214 C0.637567672,47.1721335 0.936497755,45.1538621 3.85687235,43.104137 C5.72612187,41.7920734 64.8798153,1.49853846 66.1534522,0.45083466 C67.4270892,-0.596120248 71.1453598,0.440350133 71.092916,2.43915031 C71.0404721,4.43795049 68.9696883,53.9638603 68.9299808,57.0103643 C68.8902733,60.0568683 67.6728262,62.3492352 65.8814933,63.6343386 C64.2077845,64.8340681 7.90479025,106.013546 6.05427069,107.164597 C4.20375112,108.316397 0.693757537,105.586676 0.722227069,103.107834 C0.7506966,100.629741 0.637567672,52.7169505 0.637567672,50.4328214 Z" fill="#07494F"></path>
                            <path d="M3.22305067,51.2378833 C3.22305067,47.9771954 3.52198076,45.958924 6.44235536,43.9091989 C8.31235407,42.5971353 67.4660475,2.30360035 68.7389352,1.25589655 C70.0125722,0.208941645 71.433052,1.08290186 71.3813573,3.08170203 C71.3289134,5.08050221 71.5559205,54.7689222 71.516213,57.8154262 C71.4757563,60.8619302 70.2590584,63.1542971 68.4669763,64.4394005 C66.7940167,65.63913 7.90479025,106.013546 6.05427069,107.164597 C4.20375112,108.316397 3.19458114,106.609666 3.22305067,104.131573 C3.25152021,101.652731 3.22305067,53.5220124 3.22305067,51.2378833 Z" fill="url(#linearGradient-25)"></path>
                            <polygon fill="url(#linearGradient-14)" points="3.22305067 51.2378833 71.0936652 5.97093811 71.0120026 53.3482688 3.22305067 99.2547701"></polygon>
                        </g>
                        <polygon id="Shape" fill="url(#linearGradient-26)" opacity="0.799" points="341.143656 50.7975332 406.516444 7.19612997 406.437778 52.8300336 341.142907 97.0470283"></polygon>
                        <path d="M352.700038,55.0857047 L372.833242,41.488771 C373.004808,41.3726923 373.04976,41.1405349 372.933634,40.969038 C372.818258,40.7975411 372.585257,40.7526074 372.413691,40.8679372 C372.413691,40.8679372 372.413691,40.8679372 372.413691,40.8679372 L352.280487,54.4648709 C352.108921,54.5809496 352.063969,54.8138559 352.179346,54.9853528 C352.295471,55.1568497 352.528472,55.2017834 352.700038,55.0857047" id="Shape" fill="#D6F2EE"></path>
                        <path d="M376.325255,38.8856127 L383.837465,33.808855 C384.009031,33.6935252 384.053983,33.4606189 383.937858,33.289122 C383.822481,33.1176251 383.58948,33.0726914 383.417914,33.1887701 C383.417914,33.1887701 383.417914,33.1887701 383.417914,33.1887701 L375.905704,38.2655279 C375.734137,38.3816065 375.689185,38.6145128 375.805311,38.7852608 C375.921437,38.9567577 376.154437,39.0016914 376.325255,38.8856127" id="Shape" fill="#FF8080"></path>
                        <path d="M353.841817,65.6061786 L391.381891,40.0044615 C391.553457,39.887634 391.596911,39.6547277 391.480785,39.4839797 C391.36391,39.3132317 391.13091,39.2690469 390.960092,39.3858744 C390.960092,39.3858744 390.960092,39.3858744 390.960092,39.3858744 L353.419269,64.9875915 C353.248452,65.1036702 353.204249,65.3365765 353.321124,65.5073245 C353.43725,65.6788214 353.67025,65.7222573 353.841817,65.6061786" id="Shape" fill="#D6F2EE"></path>
                        <path d="M394.554745,37.3840787 L402.066956,32.307321 C402.238522,32.1912423 402.283474,31.958336 402.168097,31.7868391 C402.051972,31.6160911 401.818971,31.5711574 401.647405,31.6864872 C401.647405,31.6864872 401.647405,31.6864872 401.647405,31.6864872 L394.135194,36.7632449 C394.135194,36.7632449 394.135194,36.7632449 394.135194,36.7632449 C393.964377,36.8793236 393.919425,37.1122299 394.034802,37.2837268 C394.150928,37.4544748 394.383928,37.4994085 394.554745,37.3840787" id="Shape" fill="#FF8080"></path>
                        <path d="M390.514319,29.7296251 L398.02653,24.6528674 C398.198096,24.5367887 398.243048,24.3038824 398.126922,24.1323855 C398.010797,23.9616375 397.777796,23.9167038 397.606979,24.0320336 C397.606979,24.0320336 397.606979,24.0320336 397.606979,24.0320336 L390.094768,29.1087913 C389.923202,29.22487 389.87825,29.4577763 389.994376,29.6292732 C390.109752,29.8000212 390.342753,29.8449549 390.514319,29.7296251" id="Shape" fill="#77FF7A"></path>
                        <path d="M355.189624,74.8617692 L362.701835,69.7850115 C362.872652,69.6689328 362.917604,69.4360265 362.802227,69.2652785 C362.686101,69.0937816 362.453101,69.0488479 362.282284,69.1641777 C362.282284,69.1641777 362.282284,69.1641777 362.282284,69.1641777 L354.770073,74.2409355 C354.598507,74.3570141 354.553555,74.5899204 354.668931,74.7614173 C354.785057,74.9321653 355.018058,74.9778479 355.189624,74.8617692" id="Shape" fill="#FF8080"></path>
                        <path d="M368.356783,65.6076764 L386.204182,53.6905137 C386.375749,53.5751839 386.422199,53.3430265 386.307572,53.1707807 C386.192195,52.9985349 385.959944,52.9528523 385.787628,53.0674332 C385.787628,53.0674332 385.787628,53.0674332 385.787628,53.0674332 L367.940228,64.9853448 C367.768662,65.0999257 367.722212,65.332832 367.836839,65.5043289 C367.952216,65.6765747 368.184467,65.7230062 368.356783,65.6076764" id="Shape" fill="#80FF80"></path>
                        <path d="M666.539915,658.26803 C666.539915,658.26803 656.959918,621.536239 656.959918,601.459867 C656.959918,559.077665 664.335774,505.825255 725.913873,499.742731 C787.491972,493.660208 776.761955,458.40299 787.805137,443.558398 C820.454445,399.672415 854.145888,439.04406 848.956942,481.892075 C847.755977,491.812684 820.626761,517.484798 800.949819,528.513771 C776.922284,541.982644 826.97247,609.404892 767.128765,608.508465 C707.28506,607.612038 682.462625,648.377377 676.053234,658.26803 C670.702461,662.445365 666.539915,658.26803 666.539915,658.26803 Z" id="Shape" fill="url(#linearGradient-27)"></path>
                        <path d="M674.504641,637.868885 L674.699433,636.74779 L675.106997,634.533308 L675.537786,632.347284 L675.991051,630.186722 L676.466792,628.053121 L676.965008,625.944233 L677.484203,623.861557 L678.025124,621.805092 L678.586273,619.77334 L679.1684,617.767051 L679.770006,615.785476 L680.391841,613.829363 L681.031656,611.897963 L681.690951,609.991277 L682.368226,608.109304 L683.063482,606.251296 L683.775969,604.417253 L684.505688,602.607923 L685.25114,600.822558 L686.013824,599.061157 L686.791492,597.322973 L687.584893,595.608752 L688.393278,593.917748 L689.215897,592.249959 L690.052003,590.605386 L690.902343,588.984029 L691.766168,587.385139 L692.641981,585.808715 L693.531279,584.255508 L694.431815,582.724018 L695.343589,581.214995 L696.266602,579.728439 L697.200852,578.2636 L698.144842,576.82048 L699.098571,575.399078 L700.06204,573.999393 L701.034499,572.621427 L702.015949,571.26443 L703.00489,569.928401 L704.002073,568.613342 L705.512457,566.678198 L707.548777,564.170898 L709.607574,561.747475 L711.686599,559.403434 L713.782856,557.139525 L715.891849,554.952752 L718.010581,552.843865 L720.136806,550.810615 L722.266027,548.851507 L724.394499,546.967287 L726.519974,545.154962 L728.639456,543.413782 L730.7477,541.743746 L732.843207,540.142609 L734.921483,538.609622 L736.97953,537.144034 L739.013604,535.743601 L741.020706,534.409071 L742.99784,533.137447 L744.94126,531.92948 L746.84722,530.782173 L748.713473,529.695527 L750.534774,528.668792 L752.308875,527.699722 L754.03278,526.787569 L755.289185,526.141272 L756.109557,525.727882 L756.915695,525.327224 L757.706848,524.940794 L758.483017,524.567095 L759.242704,524.206877 L759.986658,523.860139 L760.71338,523.526132 L761.42362,523.204856 L762.115879,522.896311 L762.790907,522.599749 L763.447205,522.316667 L764.084023,522.044818 L764.702112,521.7857 L765.300721,521.538565 L765.879851,521.303412 L766.437255,521.080241 L766.97443,520.868304 L767.490627,520.6676 L767.984349,520.47813 L768.456344,520.300642 L768.905863,520.133638 L769.332157,519.977119 L769.734476,519.831834 L770.11357,519.697782 L770.46869,519.573465 L770.798337,519.459633 L771.103261,519.356286 L771.382712,519.262674 L771.635941,519.178798 L771.862948,519.104657 L772.062984,519.041001 L772.236049,518.986332 L772.381393,518.940649 L772.499017,518.904702 L772.587423,518.877742 L772.648108,518.859019 L772.681072,518.849284 L772.696806,518.84479 C772.71104,518.840297 772.725275,518.835055 772.73951,518.829813 L773.864806,518.398449 L776.077188,517.505767 L778.225139,516.577886 L780.304913,515.618552 L782.318758,514.629262 L784.267423,513.610016 L786.150907,512.562312 L787.972208,511.488397 L789.731325,510.389019 L791.429008,509.265677 L793.067505,508.119119 L794.646815,506.950095 L796.168436,505.761599 L797.633868,504.552882 L799.04311,503.326942 L800.398409,502.084525 L801.700516,500.825633 L802.950178,499.55401 L804.148895,498.268157 L805.297416,496.971821 L806.39649,495.664999 L807.448364,494.349191 L808.454538,493.025145 L809.41426,491.695108 L810.329031,490.360577 L811.201098,489.021553 L812.03121,487.679534 L812.820115,486.336766 L813.569314,484.993997 L814.279554,483.652727 L814.952334,482.313703 L815.588403,480.978424 L816.18926,479.648386 L816.756403,478.325089 L817.289832,477.009281 L817.791795,475.701711 L818.26304,474.405374 L818.704318,473.119522 L819.117876,471.847149 L819.503713,470.588257 L819.863328,469.344343 L820.198219,468.116905 L820.508387,466.907439 L820.796829,465.717446 L821.063543,464.546923 L821.30928,463.398118 L821.536287,462.27253 L821.745314,461.170905 L821.937108,460.093995 L822.11317,459.044044 L822.274248,458.021803 L822.42184,457.028768 L822.556695,456.06569 L822.681062,455.134813 L822.794191,454.23614 L822.899079,453.372664 L822.995725,452.544386 L823.086378,451.752805 L823.170289,451.000165 L823.250453,450.286469 L823.326871,449.61471 L823.401042,448.984889 L823.473714,448.400003 L823.546386,447.860798 L823.583097,447.611416 C823.642284,447.201771 823.358337,446.822081 822.948526,446.762919 C822.539464,446.703756 822.158871,446.987587 822.099684,447.396484 L822.061475,447.660844 L821.987305,448.215026 L821.913134,448.809648 L821.838214,449.44546 L821.761047,450.120214 L821.681632,450.833162 L821.596972,451.583554 L821.507818,452.370643 L821.41192,453.19218 L821.307782,454.048167 L821.195402,454.937105 L821.073283,455.857497 L820.939926,456.808593 L820.793832,457.788148 L820.635002,458.79616 L820.461937,459.831133 L820.273139,460.892317 L820.067859,461.976716 L819.844598,463.08508 L819.602607,464.214414 L819.340387,465.365465 L819.057191,466.535239 L818.752267,467.722986 L818.423369,468.928706 L818.070496,470.149405 L817.692151,471.384332 L817.287584,472.633489 L816.854548,473.893879 L816.393042,475.165502 L815.901568,476.446861 L815.378627,477.735709 L814.823471,479.032046 L814.235351,480.334374 L813.613516,481.641944 L812.954971,482.95251 L812.260464,484.265323 L811.527749,485.578884 L810.756824,486.892446 L809.945442,488.204509 L809.092854,489.513577 L808.198312,490.81965 L807.260316,492.119731 L806.278117,493.413821 L805.250217,494.701172 L804.175117,495.978786 L803.052818,497.247414 L801.880323,498.504808 L800.658381,499.749471 L799.385493,500.980654 L798.059412,502.196859 L796.680139,503.398087 L795.245424,504.58134 L793.755269,505.746621 L792.207425,506.89243 L790.601894,508.016521 L788.936426,509.119643 L787.211022,510.1988 L785.422686,511.253993 L783.572167,512.282974 L781.657216,513.284996 L779.677085,514.258559 L777.630276,515.202915 L775.516038,516.116567 L773.32838,516.999514 L772.203084,517.431626 L772.245039,517.416648 L772.249534,517.41515 L772.21657,517.424886 L772.152139,517.444357 L772.05774,517.472815 L771.934871,517.511009 L771.784282,517.558189 L771.605224,517.614356 L771.399194,517.681008 L771.166194,517.756646 L770.906222,517.84202 L770.620777,517.937879 L770.309111,518.043473 L769.972721,518.159552 L769.611607,518.286115 L769.22577,518.423163 L768.816708,518.570695 L768.383672,518.729461 L767.92741,518.89946 L767.448672,519.079943 L766.947459,519.27166 L766.424518,519.474611 L765.879851,519.689544 L765.314956,519.916459 L764.729083,520.154607 L764.122981,520.404738 L763.497401,520.666851 L762.852341,520.941696 L762.188552,521.228523 L761.506032,521.52808 L760.805532,521.84037 L760.0878,522.164641 L759.352836,522.503141 L758.600641,522.853624 L757.832713,523.217587 L757.048303,523.59503 L756.248908,523.985953 L755.433781,524.391105 L754.603669,524.809737 L753.33228,525.464271 L751.591143,526.385412 L749.798312,527.364218 L747.958281,528.401437 L746.074797,529.499317 L744.149357,530.657857 L742.187207,531.877806 L740.191343,533.162161 L738.164013,534.510172 L736.109711,535.924085 L734.031436,537.40465 L731.932931,538.952615 L729.817196,540.569479 L727.687974,542.256739 L725.547515,544.015144 L723.401062,545.845443 L721.250863,547.749882 L719.100665,549.728462 L716.953462,551.782681 L714.813003,553.913286 L712.682284,556.121777 L710.565799,558.409651 L708.465796,560.777656 L706.386022,563.227291 L704.330971,565.757057 L702.807851,567.708677 L701.800929,569.037217 L700.801498,570.386725 L699.810309,571.757951 L698.82811,573.150147 L697.854902,574.564809 L696.890684,576.00044 L695.936954,577.458538 L694.993714,578.938355 L694.060962,580.440637 L693.139448,581.964638 L692.229922,583.511855 L691.332382,585.081538 L690.447579,586.673689 L689.575513,588.288306 L688.716931,589.926139 L687.871836,591.587936 L687.040975,593.272201 L686.225098,594.979681 L685.424205,596.711126 L684.638296,598.466535 L683.86887,600.24516 L683.115926,602.048499 L682.379464,603.875053 L681.660233,605.726321 L680.958235,607.602302 L680.274966,609.502248 L679.609678,611.426908 L678.96312,613.376281 L678.33679,615.350368 L677.729191,617.349917 L677.142568,619.374179 L676.576174,621.424653 L676.030758,623.499841 L675.506319,625.600491 L675.004357,627.727352 L674.52487,629.879676 L674.067859,632.057462 L673.633324,634.262208 L673.223513,636.490919 L673.027972,637.611265 C673.027972,637.611265 673.027972,637.611265 673.027972,637.611265 C672.956798,638.018664 673.229506,638.406592 673.637819,638.477737 C674.044634,638.548882 674.433468,638.276284 674.504641,637.868885" id="Shape" fill="#0B4F5A"></path>
                        <path d="M801.248749,499.782423 C801.248749,499.782423 819.956228,481.468201 840.425072,490.220534" id="Shape" stroke="#0B4F5A" stroke-width="2" fill-opacity="0" fill="#000000"></path>
                        <path d="M691.135343,586.867653 C691.135343,586.867653 697.806953,562.045535 676.209067,542.461936" id="Shape" stroke="#0B4F5A" stroke-width="2" fill-opacity="0" fill="#000000"></path>
                        <path d="M705.50946,564.347637 C705.50946,564.347637 743.397162,547.521469 770.670225,565.130233" id="Shape" stroke="#0B4F5A" stroke-width="2" fill-opacity="0" fill="#000000"></path>
                        <path d="M801.248749,453.917859 C801.248749,453.917859 818.013557,463.407854 811.912836,487.85178" id="Shape" stroke="#0B4F5A" stroke-width="2" fill-opacity="0" fill="#000000"></path>
                        <path d="M753.590753,502.865622 C753.590753,502.865622 762.78791,522.336887 743.945575,531.202303" id="Shape" stroke="#0B4F5A" stroke-width="2" fill-opacity="0" fill="#000000"></path>
                        <path d="M758.465037,525.333215 C758.465037,525.333215 776.1596,511.110205 790.881344,528.387208" id="Shape" stroke="#0B4F5A" stroke-width="2" fill-opacity="0" fill="#000000"></path>
                        <path d="M675.747561,668.916565 C675.747561,668.916565 651.237542,597.433809 606.796603,577.303517 C563.010463,557.469788 516.109906,562.989891 524.28216,581.031515 C535.593555,606.003412 584.278702,579.322538 580.666817,610.028721 C577.572629,636.336646 573.976477,668.670927 610.002422,648.133986 C646.027618,627.597044 675.747561,668.916565 675.747561,668.916565 Z" id="Shape" fill="url(#linearGradient-28)"></path>
                        <path d="M561.813994,574.461462 C561.813994,574.461462 629.461347,577.054135 662.861352,650.40089" id="Shape" stroke="#0B4F5A" stroke-width="2" fill-opacity="0" fill="#000000"></path>
                        <path d="M591.397583,617.023399 C591.397583,617.023399 622.156665,597.979004 640.831179,614.737772" id="Shape" stroke="#0B4F5A" stroke-width="2" fill-opacity="0" fill="#000000"></path>
                        <path d="M561.813994,588.703194 C561.813994,588.703194 576.921575,577.039906 589.006142,579.950111" id="Shape" stroke="#0B4F5A" stroke-width="2" fill-opacity="0" fill="#000000"></path>
                        <path d="M601.149896,14.8341079 C601.860885,15.3298762 653.563802,50.2763024 653.563802,50.2763024 C655.552174,51.7905676 655.912539,53.4718364 655.912539,54.7861468 L655.944754,96.7467215 C655.954494,98.9619523 654.92135,100.143708 653.563802,99.1267091 L601.149896,63.6845146 C601.149896,63.6845146 598.8566,62.5506879 598.783928,59.7273546 C598.759954,58.7710159 598.769693,17.2133466 598.769693,17.2133466 C598.738976,14.8483369 600.439656,14.3383395 601.149896,14.8341079 Z" id="Shape" fill="url(#linearGradient-29)"></path>
                    </g>
                </g>
            </g>
        </g>
    </g>
</svg>