<?xml version="1.0" encoding="UTF-8"?>
<svg width="198px" height="38px" viewBox="0 0 198 38" version="1.1" xmlns="http://www.w3.org/2000/svg" xmlns:xlink="http://www.w3.org/1999/xlink">
    <!-- Generator: Sketch 48 (47235) - http://www.bohemiancoding.com/sketch -->
    <title>logo_dark.76eccdfa</title>
    <desc>Created with Sketch.</desc>
    <defs>
        <linearGradient x1="-1.11022302e-14%" y1="50%" x2="100%" y2="50%" id="linearGradient-1">
            <stop stop-color="#EE0979" offset="0%"></stop>
            <stop stop-color="#F53444" offset="43.9962848%"></stop>
            <stop stop-color="#F53444" offset="43.9962848%"></stop>
            <stop stop-color="#FF6A00" offset="100%"></stop>
        </linearGradient>
        <linearGradient x1="-1.11022302e-14%" y1="50%" x2="100%" y2="50%" id="linearGradient-2">
            <stop stop-color="#EE0979" offset="0%"></stop>
            <stop stop-color="#FF6A00" offset="100%"></stop>
        </linearGradient>
    </defs>
    <g id="Page-1" stroke="none" stroke-width="1" fill="none" fill-rule="evenodd">
        <g id="logo_dark.76eccdfa" fill-rule="nonzero">
            <g id="358912">
                <g id="Group">
                    <path d="M36,34 C21,39 11,39 6,34 C-1.5,26.5 -1.5,11.5 6,4 C11,-1 21,-1 36,4 L31.261875,8.84875 C21.1061521,5.35983115 14.2649021,5.35983115 10.738125,8.84875 C5.76641564,13.7670905 5.76641564,24.233847 10.738125,29.1521875 C14.2649021,32.6411064 21.1061521,32.6411064 31.261875,29.1521875 L36,34 Z" id="Shape" fill="url(#linearGradient-1)"></path>
                    <rect id="Rectangle-path" fill="url(#linearGradient-2)" x="15.339375" y="13.339375" width="11.32125" height="11.32125" rx="5.660625"></rect>
                </g>
            </g>
            <path d="M60.8440066,13.8604269 L57.1330049,14.91133 C56.7060755,14.0246305 56.3119869,13.4663383 55.3924466,12.8423645 L51.2873563,12.8423645 C50.9589491,13.0722496 50.3021346,13.6962233 50.0065681,14.1559934 L50.0065681,23.9425287 C50.0065681,23.9753695 50.499179,24.6978654 51.2873563,25.1576355 L55.4581281,25.1576355 C56.1477833,24.6978654 56.6732348,24.0082102 57.1330049,23.1871921 L60.8768473,24.1067323 C60.5812808,24.9277504 60.1871921,25.6174056 59.7602627,26.2085386 C58.9720854,27.3251232 57.4285714,29 55.4252874,29 L51.1231527,29 C50.3349754,29 49.5139573,28.7044335 48.955665,28.3760263 C48.2660099,27.9490969 47.0180624,26.635468 46.5582923,26.0114943 C46.1642036,25.3875205 46,24.6321839 46,23.9753695 L46,14.0246305 C46,13.3021346 46.1313629,12.6124795 46.5582923,11.9885057 C46.952381,11.4630542 48.2331691,10.0837438 48.9885057,9.62397373 C49.5139573,9.32840722 50.3349754,9 51.1231527,9 L55.4252874,9 C57.4285714,9 58.9392447,10.6748769 59.727422,11.7586207 C60.2528736,12.4811166 60.5812808,13.1707718 60.8440066,13.8604269 Z M78.9392447,23.9425287 C78.9392447,24.5993432 78.7750411,25.3546798 78.3481117,25.9786535 C77.9211823,26.5697865 76.6732348,27.9490969 75.9835796,28.3760263 C75.4252874,28.7044335 74.6042693,29 73.816092,29 L69.3497537,29 C68.5287356,29 67.7405583,28.7044335 67.182266,28.3760263 C66.4597701,27.9490969 65.1789819,26.5369458 64.7848933,25.9786535 C64.3579639,25.3546798 64.226601,24.6321839 64.226601,23.9425287 L64.226601,14.0574713 C64.226601,13.3349754 64.3579639,12.6124795 64.7848933,11.9885057 C65.1789819,11.4630542 66.4597701,10.0509031 67.182266,9.62397373 C67.7405583,9.2955665 68.5287356,9 69.3497537,9 L73.816092,9 C74.5714286,9 75.4252874,9.2955665 75.9835796,9.62397373 C76.6732348,10.0509031 77.8883415,11.4302135 78.3481117,11.9885057 C78.7750411,12.6124795 78.9392447,13.3678161 78.9392447,14.0574713 L78.9392447,23.9425287 Z M74.8998358,23.909688 L74.8998358,14.0574713 C74.6699507,13.6305419 74.0788177,13.0394089 73.7504105,12.8423645 L69.4482759,12.8423645 C69.1855501,13.0394089 68.6272578,13.5320197 68.2331691,14.090312 L68.2331691,23.909688 C68.5944171,24.4022989 69.1527094,24.9605911 69.4154351,25.1247947 L73.7175698,25.1247947 C73.9802956,24.9605911 74.5385878,24.4351396 74.8998358,23.909688 Z M97.3300493,23.8768473 C97.3300493,24.4679803 97.1986864,25.2561576 96.8045977,25.8801314 C96.3448276,26.5369458 95.0968801,27.7848933 94.3743842,28.2118227 C93.816092,28.5073892 93.0279146,28.8357964 92.272578,28.8357964 L82.8801314,28.8357964 L82.8801314,9.13136289 L92.272578,9.13136289 C92.9622332,9.13136289 93.816092,9.32840722 94.4400657,9.72249589 C95.1625616,10.182266 96.3776683,11.5944171 96.771757,12.1198686 C97.2315271,12.7766831 97.3300493,13.4663383 97.3300493,14.1559934 L97.3300493,23.8768473 Z M93.3234811,23.7454844 L93.3234811,14.320197 C93.0279146,13.5977012 92.6009852,13.2692939 92.1083744,12.9737274 L86.8866995,12.9737274 L86.8866995,24.9934319 L92.1083744,24.9934319 C92.5681445,24.7307061 92.9950739,24.3694581 93.3234811,23.7454844 Z M113.881773,28.8357964 L101.270936,28.8357964 L101.270936,9.13136289 L113.881773,9.13136289 L113.881773,12.9737274 L105.277504,12.9737274 L105.277504,17.045977 L113.586207,17.045977 L113.586207,20.8883415 L105.277504,20.8883415 L105.277504,24.9934319 L113.881773,24.9934319 L113.881773,28.8357964 Z M139.891626,9.13136289 L135.326765,28.8357964 L131.024631,28.8357964 L128.167488,17.3087028 C127.247947,21.1182266 126.262726,25.0262726 125.343186,28.8357964 L121.041051,28.8357964 L116.541872,9.13136289 L120.679803,9.13136289 L123.27422,21.2824302 C124.19376,17.2758621 125.211823,13.1050903 126.131363,9.13136289 L130.203612,9.13136289 L133.060755,21.2824302 C133.914614,17.2758621 134.768473,13.1050903 135.622332,9.13136289 L139.891626,9.13136289 Z M156.509031,28.8357964 L152.502463,28.8357964 L152.502463,20.954023 L146.262726,20.954023 L146.262726,28.8357964 L142.256158,28.8357964 L142.256158,9.13136289 L146.262726,9.13136289 L146.262726,17.1116585 L152.502463,17.1116585 L152.502463,9.13136289 L156.509031,9.13136289 L156.509031,28.8357964 Z M164.850575,28.8357964 L160.811166,28.8357964 L160.811166,9.13136289 L164.850575,9.13136289 L164.850575,28.8357964 Z M181.46798,28.8357964 L169.054187,28.8357964 L169.054187,9.13136289 L173.060755,9.13136289 L173.060755,24.9934319 L181.46798,24.9934319 L181.46798,28.8357964 Z M197.067323,28.8357964 L184.456486,28.8357964 L184.456486,9.13136289 L197.067323,9.13136289 L197.067323,12.9737274 L188.463054,12.9737274 L188.463054,17.045977 L196.771757,17.045977 L196.771757,20.8883415 L188.463054,20.8883415 L188.463054,24.9934319 L197.067323,24.9934319 L197.067323,28.8357964 Z" id="Codewhile" fill="#4A4A4A"></path>
        </g>
    </g>
</svg>