<?xml version="1.0" encoding="UTF-8"?>
<svg width="204px" height="34px" viewBox="0 0 204 34" version="1.1" xmlns="http://www.w3.org/2000/svg" xmlns:xlink="http://www.w3.org/1999/xlink">
    <!-- Generator: Sketch 48 (47235) - http://www.bohemiancoding.com/sketch -->
    <title>Group 2</title>
    <desc>Created with Sketch.</desc>
    <defs></defs>
    <g id="Page-1" stroke="none" stroke-width="1" fill="none" fill-rule="evenodd">
        <g id="Group-2" transform="translate(1.000000, 1.000000)" fill="#FFFFFF">
            <path d="M63.132464,16.7405628 L58.8853809,16.7405628 C58.814001,15.5033111 58.6087869,14.7270663 58.2697323,14.4118051 C57.9306778,14.0965438 57.0771059,13.9389156 55.7089911,13.9389156 C55.1260552,13.9389156 54.6769634,13.9508121 54.3617021,13.9746054 C54.0464409,13.9983987 53.7430808,14.0876222 53.4516129,14.2422787 C53.160145,14.3969351 52.9519567,14.5724081 52.8270419,14.7687028 C52.702127,14.9649975 52.5980329,15.3129694 52.5147563,15.8126287 C52.4314798,16.312288 52.3838939,16.8297846 52.3719973,17.3651338 C52.3601006,17.9004831 52.3541524,18.6678056 52.3541524,19.6671242 C52.3541524,22.2486974 52.5177289,23.8457988 52.8448868,24.4584763 C53.1720446,25.0711538 54.0910471,25.377488 55.6019218,25.377488 C57.1365897,25.377488 58.076411,25.2049891 58.4214139,24.8599863 C58.7664167,24.5149834 58.9508121,23.6881786 58.9746054,22.379547 L63.2752231,22.379547 C63.2752231,24.7469805 62.7874677,26.4243831 61.8119423,27.4118051 C60.7650371,28.4587103 58.7426368,28.9881033 55.7446809,29 C52.6277584,29 50.5577722,28.3843576 49.5346603,27.1530542 C48.5115483,25.9217509 48,23.42944 48,19.6760467 C48,15.9226534 48.5115483,13.4243942 49.5346603,12.1811942 C50.5577722,10.9379942 52.6277584,10.3164036 55.7446809,10.3164036 C58.7426368,10.3164036 60.7531406,10.9112272 61.7762526,12.1008922 C62.5614315,13.028831 63.0134975,14.5753724 63.132464,16.7405628 Z M72.8043926,25.3417982 C73.1493955,25.3655915 73.6520214,25.377488 74.3122855,25.377488 C74.9725496,25.377488 75.4662532,25.3655915 75.7934111,25.3417982 C76.120569,25.3180049 76.4447479,25.2317555 76.7659574,25.0830474 C77.087167,24.9343392 77.3072518,24.7618404 77.4262183,24.5655456 C77.5451848,24.3692509 77.652253,24.0212791 77.7474262,23.5216198 C77.8425994,23.0219604 77.8961335,22.5104121 77.9080302,21.9869595 C77.9199268,21.4635069 77.9258751,20.6902362 77.9258751,19.6671242 C77.9258751,18.6440123 77.9199268,17.8647933 77.9080302,17.3294441 C77.8961335,16.7940948 77.8425994,16.2765982 77.7474262,15.7769389 C77.652253,15.2772796 77.5451848,14.935256 77.4262183,14.7508579 C77.3072518,14.5664598 77.087167,14.3969351 76.7659574,14.2422787 C76.4447479,14.0876222 76.120569,13.9983987 75.7934111,13.9746054 C75.4662532,13.9508121 74.9725496,13.9389156 74.3122855,13.9389156 C73.6520214,13.9389156 73.1523696,13.9508121 72.813315,13.9746054 C72.4742605,13.9983987 72.1471075,14.0876222 71.8318463,14.2422787 C71.516585,14.3969351 71.2965003,14.5664598 71.1715854,14.7508579 C71.0466706,14.935256 70.9366282,15.2772796 70.841455,15.7769389 C70.7462818,16.2765982 70.6927477,16.7940948 70.6808511,17.3294441 C70.6689544,17.8647933 70.6630062,18.6440123 70.6630062,19.6671242 C70.6630062,20.6902362 70.6689544,21.4635069 70.6808511,21.9869595 C70.6927477,22.5104121 70.7462818,23.0219604 70.841455,23.5216198 C70.9366282,24.0212791 71.0466706,24.3692509 71.1715854,24.5655456 C71.2965003,24.7618404 71.516585,24.9343392 71.8318463,25.0830474 C72.1471075,25.2317555 72.4712864,25.3180049 72.8043926,25.3417982 Z M74.321208,29 C71.085319,29 68.9409799,28.3903058 67.8881263,27.1708991 C66.8352727,25.9514924 66.3088538,23.4532333 66.3088538,19.6760467 C66.3088538,15.8988601 66.8322986,13.3946527 67.8792038,12.1633493 C68.9261091,10.932046 71.0734223,10.3164036 74.321208,10.3164036 C77.5333036,10.3164036 79.6627722,10.932046 80.7096774,12.1633493 C81.7565827,13.3946527 82.2800275,15.895886 82.2800275,19.6671242 C82.2800275,23.4145692 81.7565827,25.9068801 80.7096774,27.1441318 C79.6627722,28.3813834 77.5333036,29 74.321208,29 Z M101.356211,28.5895676 L97.1805079,28.5895676 L97.1805079,27.3047358 C96.3001557,27.9352582 95.4852474,28.3754277 94.7357584,28.6252574 C93.9862694,28.875087 93.0464481,29 91.9162663,29 C89.5488328,29 87.8952232,28.3635387 86.9553878,27.0905971 C86.0512423,25.9247254 85.5991764,23.4502591 85.5991764,19.6671242 C85.5991764,15.9672659 86.0512423,13.5106444 86.9553878,12.297186 C87.9071198,10.9766578 89.5785742,10.3164036 91.969801,10.3164036 C93.0642928,10.3164036 93.9892435,10.4383424 94.7446809,10.6822237 C95.5001182,10.9261051 96.3120524,11.351404 97.1805079,11.9581332 L97.1805079,3 L101.356211,3 L101.356211,28.5895676 Z M97.1805079,23.7357584 L97.1805079,15.4735758 C95.9194629,14.4504639 94.4740416,13.9389156 92.8442004,13.9389156 C92.3326444,13.9389156 91.943035,13.9508121 91.6753603,13.9746054 C91.4076857,13.9983987 91.1459633,14.0876222 90.8901853,14.2422787 C90.6344073,14.3969351 90.4559602,14.5724081 90.3548387,14.7687028 C90.2537172,14.9649975 90.1674678,15.3129694 90.0960879,15.8126287 C90.0247079,16.312288 89.9830703,16.8238363 89.9711736,17.3472889 C89.959277,17.8707416 89.9533288,18.6440123 89.9533288,19.6671242 C89.9533288,20.6664429 89.959277,21.4278171 89.9711736,21.9512697 C89.9830703,22.4747224 90.0247079,22.9922189 90.0960879,23.5037749 C90.1674678,24.0153309 90.2537172,24.3633027 90.3548387,24.5477008 C90.4559602,24.7320988 90.6344073,24.9045977 90.8901853,25.0652025 C91.1459633,25.2258073 91.4076857,25.3180049 91.6753603,25.3417982 C91.943035,25.3655915 92.3326444,25.377488 92.8442004,25.377488 C94.4740416,25.377488 95.9194629,24.8302503 97.1805079,23.7357584 Z M120.628689,21.0947152 L109.600549,21.0947152 C109.648136,23.3312855 109.915806,24.6339492 110.403569,25.0027454 C110.772365,25.3001616 111.59917,25.4488675 112.884008,25.4488675 C114.442469,25.4488675 115.41798,25.3269287 115.81057,25.0830474 C116.203159,24.839166 116.399451,24.1343 116.399451,22.9684283 L120.628689,22.9684283 C120.604896,24.0867134 120.503776,24.9492077 120.325326,25.5559369 C120.146876,26.162666 119.861361,26.6980073 119.468771,27.1619767 C118.421866,28.375435 116.328087,28.9881033 113.187371,29 C110.022862,29 107.914213,28.3843576 106.861359,27.1530542 C105.808505,25.9217509 105.282086,23.4264658 105.282086,19.6671242 C105.282086,15.9434726 105.799583,13.4541358 106.834592,12.1990391 C107.8696,10.9439425 109.933638,10.3164036 113.026767,10.3164036 C116.048517,10.3164036 118.070917,10.9112272 119.094029,12.1008922 C120.164727,13.3381439 120.700069,15.7650242 120.700069,19.381606 C120.700069,20.0597151 120.676276,20.6307458 120.628689,21.0947152 Z M109.600549,17.9183253 L116.54221,17.9183253 C116.494623,15.7769282 116.250746,14.5605139 115.81057,14.269046 C115.370394,13.977578 114.496003,13.8318463 113.187371,13.8318463 C111.724083,13.8318463 110.784262,13.9746039 110.367879,14.2601235 C109.927703,14.5575398 109.671929,15.7769282 109.600549,17.9183253 Z M148.074125,10.726836 L143.202471,28.5895676 L138.277282,28.5895676 L135.279341,15.8661633 L135.207962,15.8661633 L132.210021,28.5895676 L127.266987,28.5895676 L122.413178,10.726836 L126.945779,10.726836 L129.729581,24.0212766 L129.87234,24.0212766 L132.834592,11.2621826 L137.652711,11.2621826 L140.614962,24.0212766 L140.757721,24.0212766 L143.541524,10.726836 L148.074125,10.726836 Z M165.919012,28.5895676 L161.689774,28.5895676 L161.689774,17.6684969 C161.689774,16.133829 161.469689,15.1107324 161.029513,14.5991764 C160.660717,14.1590003 159.94098,13.9389156 158.870281,13.9389156 C157.264234,13.9389156 155.830709,14.4504639 154.569664,15.4735758 L154.569664,28.5895676 L150.322581,28.5895676 L150.322581,3 L154.480439,3 L154.480439,11.9581332 C156.086487,10.8636413 157.781734,10.3164036 159.566232,10.3164036 C161.826596,10.3164036 163.450464,10.9201495 164.437886,12.1276596 C165.425308,13.3351696 165.919012,15.3010616 165.919012,18.0253946 L165.919012,28.5895676 Z M174.448868,4.2134523 L174.448868,8.42484557 L170.130405,8.42484557 L170.130405,4.2134523 L174.448868,4.2134523 Z M174.395333,10.726836 L174.395333,28.5895676 L170.166095,28.5895676 L170.166095,10.726836 L174.395333,10.726836 Z M183.139327,3 L183.139327,28.5895676 L178.892244,28.5895676 L178.892244,3 L183.139327,3 Z M202.376115,21.0947152 L191.347975,21.0947152 C191.395562,23.3312855 191.663233,24.6339492 192.150995,25.0027454 C192.519791,25.3001616 193.346596,25.4488675 194.631434,25.4488675 C196.189896,25.4488675 197.165406,25.3269287 197.557996,25.0830474 C197.950585,24.839166 198.146877,24.1343 198.146877,22.9684283 L202.376115,22.9684283 C202.352322,24.0867134 202.251202,24.9492077 202.072752,25.5559369 C201.894302,26.162666 201.608787,26.6980073 201.216198,27.1619767 C200.169292,28.375435 198.075513,28.9881033 194.934798,29 C191.770288,29 189.661639,28.3843576 188.608785,27.1530542 C187.555932,25.9217509 187.029513,23.4264658 187.029513,19.6671242 C187.029513,15.9434726 187.547009,13.4541358 188.582018,12.1990391 C189.617026,10.9439425 191.681064,10.3164036 194.774194,10.3164036 C197.795943,10.3164036 199.818343,10.9112272 200.841455,12.1008922 C201.912154,13.3381439 202.447495,15.7650242 202.447495,19.381606 C202.447495,20.0597151 202.423702,20.6307458 202.376115,21.0947152 Z M191.347975,17.9183253 L198.289636,17.9183253 C198.24205,15.7769282 197.998172,14.5605139 197.557996,14.269046 C197.11782,13.977578 196.243429,13.8318463 194.934798,13.8318463 C193.471509,13.8318463 192.531688,13.9746039 192.115305,14.2601235 C191.675129,14.5575398 191.419355,15.7769282 191.347975,17.9183253 Z" id="codewhile"></path>
            <g id="Group" fill-rule="nonzero">
                <path d="M27.2,0 L4.8,0 C2.1536,0 0,2.1536 0,4.8 L0,27.2 C0,29.8464 2.1536,32 4.8,32 L27.2,32 C29.8464,32 32,29.8464 32,27.2 L32,4.8 C32,2.1536 29.8464,0 27.2,0 Z M4.8,3.2 L27.2,3.2 C28.0816,3.2 28.8,3.9168 28.8,4.8 L28.8,9.6 L3.2,9.6 L3.2,4.8 C3.2,3.9168 3.9184,3.2 4.8,3.2 Z M27.2,28.8 L4.8,28.8 C3.9184,28.8 3.2,28.0832 3.2,27.2 L3.2,12.8 L28.8,12.8 L28.8,27.2 C28.8,28.0832 28.0816,28.8 27.2,28.8 Z" id="Shape" stroke="#FFFFFF"></path>
                <rect id="Rectangle-path" x="6.4" y="4.8" width="3.2" height="3.2"></rect>
                <rect id="Rectangle-path" x="12.8" y="4.8" width="3.2" height="3.2"></rect>
            </g>
        </g>
    </g>
</svg>