<?xml version="1.0" encoding="UTF-8"?>
<svg width="198px" height="34px" viewBox="0 0 198 34" version="1.1" xmlns="http://www.w3.org/2000/svg" xmlns:xlink="http://www.w3.org/1999/xlink">
    <!-- Generator: Sketch 48 (47235) - http://www.bohemiancoding.com/sketch -->
    <title>Group 2</title>
    <desc>Created with Sketch.</desc>
    <defs></defs>
    <g id="Page-1" stroke="none" stroke-width="1" fill="none" fill-rule="evenodd">
        <g id="Group-2" transform="translate(1.000000, 1.000000)" fill="#000000">
            <path d="M57.132464,16.7405628 L52.8853809,16.7405628 C52.814001,15.5033111 52.6087869,14.7270663 52.2697323,14.4118051 C51.9306778,14.0965438 51.0771059,13.9389156 49.7089911,13.9389156 C49.1260552,13.9389156 48.6769634,13.9508121 48.3617021,13.9746054 C48.0464409,13.9983987 47.7430808,14.0876222 47.4516129,14.2422787 C47.160145,14.3969351 46.9519567,14.5724081 46.8270419,14.7687028 C46.702127,14.9649975 46.5980329,15.3129694 46.5147563,15.8126287 C46.4314798,16.312288 46.3838939,16.8297846 46.3719973,17.3651338 C46.3601006,17.9004831 46.3541524,18.6678056 46.3541524,19.6671242 C46.3541524,22.2486974 46.5177289,23.8457988 46.8448868,24.4584763 C47.1720446,25.0711538 48.0910471,25.377488 49.6019218,25.377488 C51.1365897,25.377488 52.076411,25.2049891 52.4214139,24.8599863 C52.7664167,24.5149834 52.9508121,23.6881786 52.9746054,22.379547 L57.2752231,22.379547 C57.2752231,24.7469805 56.7874677,26.4243831 55.8119423,27.4118051 C54.7650371,28.4587103 52.7426368,28.9881033 49.7446809,29 C46.6277584,29 44.5577722,28.3843576 43.5346603,27.1530542 C42.5115483,25.9217509 42,23.42944 42,19.6760467 C42,15.9226534 42.5115483,13.4243942 43.5346603,12.1811942 C44.5577722,10.9379942 46.6277584,10.3164036 49.7446809,10.3164036 C52.7426368,10.3164036 54.7531406,10.9112272 55.7762526,12.1008922 C56.5614315,13.028831 57.0134975,14.5753724 57.132464,16.7405628 Z M66.8043926,25.3417982 C67.1493955,25.3655915 67.6520214,25.377488 68.3122855,25.377488 C68.9725496,25.377488 69.4662532,25.3655915 69.7934111,25.3417982 C70.120569,25.3180049 70.4447479,25.2317555 70.7659574,25.0830474 C71.087167,24.9343392 71.3072518,24.7618404 71.4262183,24.5655456 C71.5451848,24.3692509 71.652253,24.0212791 71.7474262,23.5216198 C71.8425994,23.0219604 71.8961335,22.5104121 71.9080302,21.9869595 C71.9199268,21.4635069 71.9258751,20.6902362 71.9258751,19.6671242 C71.9258751,18.6440123 71.9199268,17.8647933 71.9080302,17.3294441 C71.8961335,16.7940948 71.8425994,16.2765982 71.7474262,15.7769389 C71.652253,15.2772796 71.5451848,14.935256 71.4262183,14.7508579 C71.3072518,14.5664598 71.087167,14.3969351 70.7659574,14.2422787 C70.4447479,14.0876222 70.120569,13.9983987 69.7934111,13.9746054 C69.4662532,13.9508121 68.9725496,13.9389156 68.3122855,13.9389156 C67.6520214,13.9389156 67.1523696,13.9508121 66.813315,13.9746054 C66.4742605,13.9983987 66.1471075,14.0876222 65.8318463,14.2422787 C65.516585,14.3969351 65.2965003,14.5664598 65.1715854,14.7508579 C65.0466706,14.935256 64.9366282,15.2772796 64.841455,15.7769389 C64.7462818,16.2765982 64.6927477,16.7940948 64.6808511,17.3294441 C64.6689544,17.8647933 64.6630062,18.6440123 64.6630062,19.6671242 C64.6630062,20.6902362 64.6689544,21.4635069 64.6808511,21.9869595 C64.6927477,22.5104121 64.7462818,23.0219604 64.841455,23.5216198 C64.9366282,24.0212791 65.0466706,24.3692509 65.1715854,24.5655456 C65.2965003,24.7618404 65.516585,24.9343392 65.8318463,25.0830474 C66.1471075,25.2317555 66.4712864,25.3180049 66.8043926,25.3417982 Z M68.321208,29 C65.085319,29 62.9409799,28.3903058 61.8881263,27.1708991 C60.8352727,25.9514924 60.3088538,23.4532333 60.3088538,19.6760467 C60.3088538,15.8988601 60.8322986,13.3946527 61.8792038,12.1633493 C62.9261091,10.932046 65.0734223,10.3164036 68.321208,10.3164036 C71.5333036,10.3164036 73.6627722,10.932046 74.7096774,12.1633493 C75.7565827,13.3946527 76.2800275,15.895886 76.2800275,19.6671242 C76.2800275,23.4145692 75.7565827,25.9068801 74.7096774,27.1441318 C73.6627722,28.3813834 71.5333036,29 68.321208,29 Z M95.3562114,28.5895676 L91.1805079,28.5895676 L91.1805079,27.3047358 C90.3001557,27.9352582 89.4852474,28.3754277 88.7357584,28.6252574 C87.9862694,28.875087 87.0464481,29 85.9162663,29 C83.5488328,29 81.8952232,28.3635387 80.9553878,27.0905971 C80.0512423,25.9247254 79.5991764,23.4502591 79.5991764,19.6671242 C79.5991764,15.9672659 80.0512423,13.5106444 80.9553878,12.297186 C81.9071198,10.9766578 83.5785742,10.3164036 85.969801,10.3164036 C87.0642928,10.3164036 87.9892435,10.4383424 88.7446809,10.6822237 C89.5001182,10.9261051 90.3120524,11.351404 91.1805079,11.9581332 L91.1805079,3 L95.3562114,3 L95.3562114,28.5895676 Z M91.1805079,23.7357584 L91.1805079,15.4735758 C89.9194629,14.4504639 88.4740416,13.9389156 86.8442004,13.9389156 C86.3326444,13.9389156 85.943035,13.9508121 85.6753603,13.9746054 C85.4076857,13.9983987 85.1459633,14.0876222 84.8901853,14.2422787 C84.6344073,14.3969351 84.4559602,14.5724081 84.3548387,14.7687028 C84.2537172,14.9649975 84.1674678,15.3129694 84.0960879,15.8126287 C84.0247079,16.312288 83.9830703,16.8238363 83.9711736,17.3472889 C83.959277,17.8707416 83.9533288,18.6440123 83.9533288,19.6671242 C83.9533288,20.6664429 83.959277,21.4278171 83.9711736,21.9512697 C83.9830703,22.4747224 84.0247079,22.9922189 84.0960879,23.5037749 C84.1674678,24.0153309 84.2537172,24.3633027 84.3548387,24.5477008 C84.4559602,24.7320988 84.6344073,24.9045977 84.8901853,25.0652025 C85.1459633,25.2258073 85.4076857,25.3180049 85.6753603,25.3417982 C85.943035,25.3655915 86.3326444,25.377488 86.8442004,25.377488 C88.4740416,25.377488 89.9194629,24.8302503 91.1805079,23.7357584 Z M114.628689,21.0947152 L103.600549,21.0947152 C103.648136,23.3312855 103.915806,24.6339492 104.403569,25.0027454 C104.772365,25.3001616 105.59917,25.4488675 106.884008,25.4488675 C108.442469,25.4488675 109.41798,25.3269287 109.81057,25.0830474 C110.203159,24.839166 110.399451,24.1343 110.399451,22.9684283 L114.628689,22.9684283 C114.604896,24.0867134 114.503776,24.9492077 114.325326,25.5559369 C114.146876,26.162666 113.861361,26.6980073 113.468771,27.1619767 C112.421866,28.375435 110.328087,28.9881033 107.187371,29 C104.022862,29 101.914213,28.3843576 100.861359,27.1530542 C99.8085054,25.9217509 99.2820865,23.4264658 99.2820865,19.6671242 C99.2820865,15.9434726 99.799583,13.4541358 100.834592,12.1990391 C101.8696,10.9439425 103.933638,10.3164036 107.026767,10.3164036 C110.048517,10.3164036 112.070917,10.9112272 113.094029,12.1008922 C114.164727,13.3381439 114.700069,15.7650242 114.700069,19.381606 C114.700069,20.0597151 114.676276,20.6307458 114.628689,21.0947152 Z M103.600549,17.9183253 L110.54221,17.9183253 C110.494623,15.7769282 110.250746,14.5605139 109.81057,14.269046 C109.370394,13.977578 108.496003,13.8318463 107.187371,13.8318463 C105.724083,13.8318463 104.784262,13.9746039 104.367879,14.2601235 C103.927703,14.5575398 103.671929,15.7769282 103.600549,17.9183253 Z M142.074125,10.726836 L137.202471,28.5895676 L132.277282,28.5895676 L129.279341,15.8661633 L129.207962,15.8661633 L126.210021,28.5895676 L121.266987,28.5895676 L116.413178,10.726836 L120.945779,10.726836 L123.729581,24.0212766 L123.87234,24.0212766 L126.834592,11.2621826 L131.652711,11.2621826 L134.614962,24.0212766 L134.757721,24.0212766 L137.541524,10.726836 L142.074125,10.726836 Z M159.919012,28.5895676 L155.689774,28.5895676 L155.689774,17.6684969 C155.689774,16.133829 155.469689,15.1107324 155.029513,14.5991764 C154.660717,14.1590003 153.94098,13.9389156 152.870281,13.9389156 C151.264234,13.9389156 149.830709,14.4504639 148.569664,15.4735758 L148.569664,28.5895676 L144.322581,28.5895676 L144.322581,3 L148.480439,3 L148.480439,11.9581332 C150.086487,10.8636413 151.781734,10.3164036 153.566232,10.3164036 C155.826596,10.3164036 157.450464,10.9201495 158.437886,12.1276596 C159.425308,13.3351696 159.919012,15.3010616 159.919012,18.0253946 L159.919012,28.5895676 Z M168.448868,4.2134523 L168.448868,8.42484557 L164.130405,8.42484557 L164.130405,4.2134523 L168.448868,4.2134523 Z M168.395333,10.726836 L168.395333,28.5895676 L164.166095,28.5895676 L164.166095,10.726836 L168.395333,10.726836 Z M177.139327,3 L177.139327,28.5895676 L172.892244,28.5895676 L172.892244,3 L177.139327,3 Z M196.376115,21.0947152 L185.347975,21.0947152 C185.395562,23.3312855 185.663233,24.6339492 186.150995,25.0027454 C186.519791,25.3001616 187.346596,25.4488675 188.631434,25.4488675 C190.189896,25.4488675 191.165406,25.3269287 191.557996,25.0830474 C191.950585,24.839166 192.146877,24.1343 192.146877,22.9684283 L196.376115,22.9684283 C196.352322,24.0867134 196.251202,24.9492077 196.072752,25.5559369 C195.894302,26.162666 195.608787,26.6980073 195.216198,27.1619767 C194.169292,28.375435 192.075513,28.9881033 188.934798,29 C185.770288,29 183.661639,28.3843576 182.608785,27.1530542 C181.555932,25.9217509 181.029513,23.4264658 181.029513,19.6671242 C181.029513,15.9434726 181.547009,13.4541358 182.582018,12.1990391 C183.617026,10.9439425 185.681064,10.3164036 188.774194,10.3164036 C191.795943,10.3164036 193.818343,10.9112272 194.841455,12.1008922 C195.912154,13.3381439 196.447495,15.7650242 196.447495,19.381606 C196.447495,20.0597151 196.423702,20.6307458 196.376115,21.0947152 Z M185.347975,17.9183253 L192.289636,17.9183253 C192.24205,15.7769282 191.998172,14.5605139 191.557996,14.269046 C191.11782,13.977578 190.243429,13.8318463 188.934798,13.8318463 C187.471509,13.8318463 186.531688,13.9746039 186.115305,14.2601235 C185.675129,14.5575398 185.419355,15.7769282 185.347975,17.9183253 Z" id="codewhile"></path>
            <g id="Group" fill-rule="nonzero">
                <path d="M27.2,0 L4.8,0 C2.1536,0 0,2.1536 0,4.8 L0,27.2 C0,29.8464 2.1536,32 4.8,32 L27.2,32 C29.8464,32 32,29.8464 32,27.2 L32,4.8 C32,2.1536 29.8464,0 27.2,0 Z M4.8,3.2 L27.2,3.2 C28.0816,3.2 28.8,3.9168 28.8,4.8 L28.8,9.6 L3.2,9.6 L3.2,4.8 C3.2,3.9168 3.9184,3.2 4.8,3.2 Z M27.2,28.8 L4.8,28.8 C3.9184,28.8 3.2,28.0832 3.2,27.2 L3.2,12.8 L28.8,12.8 L28.8,27.2 C28.8,28.0832 28.0816,28.8 27.2,28.8 Z" id="Shape" stroke="#000000"></path>
                <rect id="Rectangle-path" x="6.4" y="4.8" width="3.2" height="3.2"></rect>
                <rect id="Rectangle-path" x="12.8" y="4.8" width="3.2" height="3.2"></rect>
            </g>
        </g>
    </g>
</svg>