<?xml version="1.0" encoding="UTF-8"?>
<svg width="194px" height="32px" viewBox="0 0 194 32" version="1.1" xmlns="http://www.w3.org/2000/svg" xmlns:xlink="http://www.w3.org/1999/xlink">
    <!-- Generator: Sketch 48 (47235) - http://www.bohemiancoding.com/sketch -->
    <title>logo_dark</title>
    <desc>Created with Sketch.</desc>
    <defs>
        <linearGradient x1="-2.22044605e-14%" y1="50%" x2="100%" y2="50%" id="linearGradient-1">
            <stop stop-color="#CAACFF" offset="0%"></stop>
            <stop stop-color="#D76D77" offset="49.5157047%"></stop>
            <stop stop-color="#FFAF7B" offset="100%"></stop>
        </linearGradient>
    </defs>
    <g id="Page-1" stroke="none" stroke-width="1" fill="none" fill-rule="evenodd">
        <g id="logo_dark" fill-rule="nonzero">
            <path d="M56.8440066,10.8604269 L53.1330049,11.91133 C52.7060755,11.0246305 52.3119869,10.4663383 51.3924466,9.8423645 L47.2873563,9.8423645 C46.9589491,10.0722496 46.3021346,10.6962233 46.0065681,11.1559934 L46.0065681,20.9425287 C46.0065681,20.9753695 46.499179,21.6978654 47.2873563,22.1576355 L51.4581281,22.1576355 C52.1477833,21.6978654 52.6732348,21.0082102 53.1330049,20.1871921 L56.8768473,21.1067323 C56.5812808,21.9277504 56.1871921,22.6174056 55.7602627,23.2085386 C54.9720854,24.3251232 53.4285714,26 51.4252874,26 L47.1231527,26 C46.3349754,26 45.5139573,25.7044335 44.955665,25.3760263 C44.2660099,24.9490969 43.0180624,23.635468 42.5582923,23.0114943 C42.1642036,22.3875205 42,21.6321839 42,20.9753695 L42,11.0246305 C42,10.3021346 42.1313629,9.6124795 42.5582923,8.9885057 C42.952381,8.4630542 44.2331691,7.0837438 44.9885057,6.62397373 C45.5139573,6.32840722 46.3349754,6 47.1231527,6 L51.4252874,6 C53.4285714,6 54.9392447,7.6748769 55.727422,8.7586207 C56.2528736,9.4811166 56.5812808,10.1707718 56.8440066,10.8604269 Z M74.9392447,20.9425287 C74.9392447,21.5993432 74.7750411,22.3546798 74.3481117,22.9786535 C73.9211823,23.5697865 72.6732348,24.9490969 71.9835796,25.3760263 C71.4252874,25.7044335 70.6042693,26 69.816092,26 L65.3497537,26 C64.5287356,26 63.7405583,25.7044335 63.182266,25.3760263 C62.4597701,24.9490969 61.1789819,23.5369458 60.7848933,22.9786535 C60.3579639,22.3546798 60.226601,21.6321839 60.226601,20.9425287 L60.226601,11.0574713 C60.226601,10.3349754 60.3579639,9.6124795 60.7848933,8.9885057 C61.1789819,8.4630542 62.4597701,7.0509031 63.182266,6.62397373 C63.7405583,6.2955665 64.5287356,6 65.3497537,6 L69.816092,6 C70.5714286,6 71.4252874,6.2955665 71.9835796,6.62397373 C72.6732348,7.0509031 73.8883415,8.4302135 74.3481117,8.9885057 C74.7750411,9.6124795 74.9392447,10.3678161 74.9392447,11.0574713 L74.9392447,20.9425287 Z M70.8998358,20.909688 L70.8998358,11.0574713 C70.6699507,10.6305419 70.0788177,10.0394089 69.7504105,9.8423645 L65.4482759,9.8423645 C65.1855501,10.0394089 64.6272578,10.5320197 64.2331691,11.090312 L64.2331691,20.909688 C64.5944171,21.4022989 65.1527094,21.9605911 65.4154351,22.1247947 L69.7175698,22.1247947 C69.9802956,21.9605911 70.5385878,21.4351396 70.8998358,20.909688 Z M93.3300493,20.8768473 C93.3300493,21.4679803 93.1986864,22.2561576 92.8045977,22.8801314 C92.3448276,23.5369458 91.0968801,24.7848933 90.3743842,25.2118227 C89.816092,25.5073892 89.0279146,25.8357964 88.272578,25.8357964 L78.8801314,25.8357964 L78.8801314,6.13136289 L88.272578,6.13136289 C88.9622332,6.13136289 89.816092,6.32840722 90.4400657,6.72249589 C91.1625616,7.182266 92.3776683,8.5944171 92.771757,9.1198686 C93.2315271,9.7766831 93.3300493,10.4663383 93.3300493,11.1559934 L93.3300493,20.8768473 Z M89.3234811,20.7454844 L89.3234811,11.320197 C89.0279146,10.5977012 88.6009852,10.2692939 88.1083744,9.9737274 L82.8866995,9.9737274 L82.8866995,21.9934319 L88.1083744,21.9934319 C88.5681445,21.7307061 88.9950739,21.3694581 89.3234811,20.7454844 Z M109.881773,25.8357964 L97.270936,25.8357964 L97.270936,6.13136289 L109.881773,6.13136289 L109.881773,9.9737274 L101.277504,9.9737274 L101.277504,14.045977 L109.586207,14.045977 L109.586207,17.8883415 L101.277504,17.8883415 L101.277504,21.9934319 L109.881773,21.9934319 L109.881773,25.8357964 Z M135.891626,6.13136289 L131.326765,25.8357964 L127.024631,25.8357964 L124.167488,14.3087028 C123.247947,18.1182266 122.262726,22.0262726 121.343186,25.8357964 L117.041051,25.8357964 L112.541872,6.13136289 L116.679803,6.13136289 L119.27422,18.2824302 C120.19376,14.2758621 121.211823,10.1050903 122.131363,6.13136289 L126.203612,6.13136289 L129.060755,18.2824302 C129.914614,14.2758621 130.768473,10.1050903 131.622332,6.13136289 L135.891626,6.13136289 Z M152.509031,25.8357964 L148.502463,25.8357964 L148.502463,17.954023 L142.262726,17.954023 L142.262726,25.8357964 L138.256158,25.8357964 L138.256158,6.13136289 L142.262726,6.13136289 L142.262726,14.1116585 L148.502463,14.1116585 L148.502463,6.13136289 L152.509031,6.13136289 L152.509031,25.8357964 Z M160.850575,25.8357964 L156.811166,25.8357964 L156.811166,6.13136289 L160.850575,6.13136289 L160.850575,25.8357964 Z M177.46798,25.8357964 L165.054187,25.8357964 L165.054187,6.13136289 L169.060755,6.13136289 L169.060755,21.9934319 L177.46798,21.9934319 L177.46798,25.8357964 Z M193.067323,25.8357964 L180.456486,25.8357964 L180.456486,6.13136289 L193.067323,6.13136289 L193.067323,9.9737274 L184.463054,9.9737274 L184.463054,14.045977 L192.771757,14.045977 L192.771757,17.8883415 L184.463054,17.8883415 L184.463054,21.9934319 L193.067323,21.9934319 L193.067323,25.8357964 Z" id="Codewhile" fill="#FAFAFA"></path>
            <g id="Group" fill="url(#linearGradient-1)">
                <path d="M32,32 L5,32 C2.23857625,32 3.38176876e-16,29.7614237 0,27 L0,5 C-3.38176876e-16,2.23857625 2.23857625,5.07265313e-16 5,0 L32,0 L26.946,5.172 L10.054,5.172 C7.29257625,5.172 5.054,7.41057625 5.054,10.172 L5.054,21.829 C5.054,24.5904237 7.29257625,26.829 10.054,26.829 L26.946,26.829 L32,32 Z" id="Shape"></path>
                <path d="M12.462,9.962 L22.038,9.962 L16,16 L22.038,22.038 L12.462,22.038 C11.0812881,22.038 9.962,20.9187119 9.962,19.538 L9.962,12.462 C9.962,11.0812881 11.0812881,9.962 12.462,9.962 Z" id="Rectangle-path"></path>
            </g>
        </g>
    </g>
</svg>