<?xml version="1.0" encoding="UTF-8"?>
<svg width="182px" height="38px" viewBox="0 0 182 38" version="1.1" xmlns="http://www.w3.org/2000/svg" xmlns:xlink="http://www.w3.org/1999/xlink">
    <!-- Generator: Sketch 48 (47235) - http://www.bohemiancoding.com/sketch -->
    <title>Group 12</title>
    <desc>Created with Sketch.</desc>
    <defs>
        <linearGradient x1="-2.22044605e-14%" y1="50%" x2="100%" y2="50%" id="linearGradient-1">
            <stop stop-color="#ED1E79" offset="0%"></stop>
            <stop stop-color="#D76D77" offset="49.5157047%"></stop>
            <stop stop-color="#FFAF7B" offset="100%"></stop>
        </linearGradient>
    </defs>
    <g id="Page-1" stroke="none" stroke-width="1" fill="none" fill-rule="evenodd">
        <g id="Group-12">
            <g id="Group-11" fill="url(#linearGradient-1)" fill-rule="nonzero">
                <g id="Group" transform="translate(20.000000, 19.000000) scale(1, -1) rotate(90.000000) translate(-20.000000, -19.000000) translate(1.000000, -1.000000)">
                    <path d="M38,36 C22,41.3333333 11.3333333,41.3333333 6,36 C-2,28 -2,12 6,4 C11.3333333,-1.33333333 22,-1.33333333 38,4 L32.946,9.172 C22.1132289,5.45048656 14.8158956,5.45048656 11.054,9.172 C5.75084335,14.4182298 5.75084335,25.5827702 11.054,30.829 C14.8158956,34.5505134 22.1132289,34.5505134 32.946,30.829 L38,36 Z" id="Shape"></path>
                    <path d="M15.962,13.962 C19.1057515,10.8182485 24.0126667,11.9493333 28.038,13.962 C30.0506667,14.9683333 21.3504305,16.9684908 21.3504305,19.9874908 C21.3504305,23.0064908 30.0506667,25.0316667 28.038,26.038 C24.0126667,28.0506667 19.0446545,29.1206545 15.962,26.038 C13.0066545,23.0826545 13.0677515,16.8562485 15.962,13.962 Z" id="Rectangle-path"></path>
                </g>
            </g>
            <path d="M63.629199,23.3062016 L67.3242894,25.3669251 C66.5426357,26.7739018 65.4767442,27.8966408 64.1408269,28.7351421 C62.8049096,29.5878553 61.1989664,30 59.3087855,30 C56.3953488,30 54.1072351,29.0193798 52.4728682,27.0581395 C50.8242894,25.1111111 50,22.4534884 50,19.1136951 C50,15.7881137 50.8242894,13.1589147 52.4728682,11.2260982 C54.1072351,9.30749354 56.3953488,8.34108527 59.3087855,8.34108527 C63.0180879,8.34108527 65.618863,10.0322997 67.1679587,12.8036176 L63.4728682,14.9496124 C62.6770026,13.4715762 61.1989664,12.5904393 59.2803618,12.5904393 C56.4521964,12.5904393 55.130491,14.6085271 55.130491,19.1989664 C55.130491,23.8036176 56.4379845,25.7790698 59.2235142,25.7790698 C61.2131783,25.7790698 62.8191214,24.7842377 63.629199,23.3062016 Z M74.9069211,13.869509 C77.294518,13.869509 79.170487,14.5658915 80.54904,15.9586563 C81.913381,17.3514212 82.5955516,19.3410853 82.5955516,21.9134367 C82.5955516,24.5 81.913381,26.4896641 80.5348281,27.8966408 C79.1562751,29.3036176 77.2803061,30 74.9069211,30 C72.5335361,30 70.6575671,29.3036176 69.293226,27.8966408 C67.9288849,26.4896641 67.2467144,24.5 67.2467144,21.9134367 C67.2467144,19.3268734 67.9288849,17.3372093 69.293226,15.9444444 C70.6575671,14.5658915 72.5335361,13.869509 74.9069211,13.869509 Z M74.9069211,17.3372093 C73.7841821,17.3372093 73.0167402,17.6925065 72.6045955,18.3888889 C72.1782389,19.0852713 71.9650606,20.2648579 71.9650606,21.9134367 C71.9650606,23.5193798 72.164027,24.6989664 72.5761717,25.4237726 C72.9741046,26.1627907 73.7557583,26.5322997 74.9069211,26.5322997 C76.0580839,26.5322997 76.8539495,26.1627907 77.2660942,25.4237726 C77.6782389,24.6847545 77.8772053,23.5193798 77.8772053,21.9134367 C77.8772053,20.2648579 77.664027,19.0852713 77.2518823,18.3888889 C76.8255257,17.6925065 76.043872,17.3372093 74.9069211,17.3372093 Z M98.6134844,8 L98.6134844,27.0297158 L99.0256291,29.4457364 L95.3305387,29.4457364 L94.66258,28.5788114 L94.6057325,28.5788114 C93.5114172,29.502584 92.1754999,29.9715762 90.6121924,29.9715762 C88.7220115,29.9715762 86.9739495,29.2609819 85.666456,27.9534884 C84.3447505,26.6602067 83.5062493,24.5426357 83.5062493,21.998708 C83.5062493,19.4547804 84.3731743,17.2803618 85.7090916,15.9586563 C87.0450089,14.6369509 88.7504353,13.869509 90.5553449,13.869509 C91.8202027,13.869509 92.9855774,14.2958656 94.0798927,15.1485788 L94.1367402,15.1485788 L94.1367402,8.17054264 L98.6134844,8 Z M88.2245955,21.998708 C88.2245955,24.5568475 88.9778255,26.503876 91.5786007,26.503876 C92.5307971,26.503876 93.3835102,26.2906977 94.1367402,25.8643411 L94.1367402,19.3410853 C94.1367402,17.6925065 92.6729159,17.3372093 91.4649056,17.3372093 C90.2142596,17.3372093 89.3615464,17.6925065 88.9067661,18.4173127 C88.4519857,19.1421189 88.2245955,20.3359173 88.2245955,21.998708 Z M114.560358,21.9702842 L114.560358,23.4198966 L104.839428,23.4198966 C105.180513,25.5090439 106.217981,26.5322997 108.307128,26.5322997 C109.969919,26.5322997 111.021598,25.9354005 112.002218,24.9121447 L114.27612,27.5555556 C112.727024,29.1472868 110.50997,30 108.165009,30 C106.004802,30 104.043562,29.2609819 102.537102,27.9392765 C101.030642,26.6175711 100.064234,24.4289406 100.064234,21.8139535 C100.064234,19.4121447 100.746404,17.4935401 102.096533,16.0439276 C103.446663,14.5943152 105.23736,13.869509 107.49705,13.869509 C108.904027,13.869509 110.097825,14.0826873 111.376895,14.8217054 C112.01643,15.1912145 112.556482,15.6602067 113.011262,16.2428941 C113.920823,17.4082687 114.560358,19.4121447 114.560358,21.9702842 Z M104.811004,20.1653747 L110.311004,20.1653747 C110.311004,18.3604651 109.30196,17.3372093 107.639169,17.3372093 C105.862683,17.3372093 105.038394,18.1899225 104.811004,20.1653747 Z M130.379324,21.9702842 L132.397412,14.4237726 L136.931004,14.4237726 L132.15581,29.4457364 L128.489143,29.4457364 L125.987851,22.3397933 L125.632554,20.5633075 L125.291469,22.3397933 L122.818601,29.4457364 L119.208782,29.4457364 L114.319893,14.4237726 L118.910332,14.4237726 L120.899996,21.9702842 L121.354776,24.1162791 L121.880616,21.9702842 L124.182942,15.3049096 L127.096378,15.3049096 L129.37028,21.9702842 L129.924544,24.1162791 L130.379324,21.9702842 Z M146.411469,13.869509 C148.244802,13.869509 149.694415,14.3953488 150.760306,15.4328165 C151.826198,16.4702842 152.352037,17.8914729 152.352037,19.6963824 L152.352037,29.4457364 L147.832658,29.4457364 L147.832658,20.0374677 C147.818446,17.9483204 146.852037,17.0813953 145.189247,17.0813953 C143.824906,17.0813953 142.389505,17.6782946 142.389505,20.0090439 L142.389505,29.4457364 L137.884337,29.4457364 L137.884337,8.19896641 L142.389505,8.08527132 L142.389505,15.9728682 L142.446353,15.9728682 C143.114311,14.7222222 144.436017,13.869509 146.411469,13.869509 Z M154.470745,12.1925065 L154.470745,8.51162791 L159.032761,8.34108527 L159.032761,12.0077519 L154.470745,12.1925065 Z M154.527593,29.4457364 L154.527593,14.4237726 L159.004337,14.25323 L159.004337,29.4457364 L154.527593,29.4457364 Z M161.165681,29.4457364 L161.165681,8.17054264 L165.670849,8 L165.670849,29.4457364 L161.165681,29.4457364 Z M181.518239,21.9702842 L181.518239,23.4198966 L171.797309,23.4198966 C172.138394,25.5090439 173.175862,26.5322997 175.265009,26.5322997 C176.9278,26.5322997 177.979479,25.9354005 178.960099,24.9121447 L181.234001,27.5555556 C179.684906,29.1472868 177.467851,30 175.12289,30 C172.962683,30 171.001443,29.2609819 169.494983,27.9392765 C167.988523,26.6175711 167.022115,24.4289406 167.022115,21.8139535 C167.022115,19.4121447 167.704285,17.4935401 169.054415,16.0439276 C170.404544,14.5943152 172.195242,13.869509 174.454931,13.869509 C175.861908,13.869509 177.055707,14.0826873 178.334776,14.8217054 C178.974311,15.1912145 179.514363,15.6602067 179.969143,16.2428941 C180.878704,17.4082687 181.518239,19.4121447 181.518239,21.9702842 Z M171.768885,20.1653747 L177.268885,20.1653747 C177.268885,18.3604651 176.259841,17.3372093 174.59705,17.3372093 C172.820565,17.3372093 171.996275,18.1899225 171.768885,20.1653747 Z" id="Codewhile" fill="#FAFAFA"></path>
        </g>
    </g>
</svg>