<?xml version="1.0" encoding="UTF-8"?>
<svg width="227px" height="38px" viewBox="0 0 227 38" version="1.1" xmlns="http://www.w3.org/2000/svg" xmlns:xlink="http://www.w3.org/1999/xlink">
    <!-- Generator: Sketch 48 (47235) - http://www.bohemiancoding.com/sketch -->
    <title>Group 6</title>
    <desc>Created with Sketch.</desc>
    <defs>
        <linearGradient x1="-2.22044605e-14%" y1="50%" x2="100%" y2="50%" id="linearGradient-1">
            <stop stop-color="#ED1E79" offset="0%"></stop>
            <stop stop-color="#D76D77" offset="49.5157047%"></stop>
            <stop stop-color="#FFAF7B" offset="100%"></stop>
        </linearGradient>
    </defs>
    <g id="Page-1" stroke="none" stroke-width="1" fill="none" fill-rule="evenodd">
        <g id="Group-6">
            <path d="M55,24.2722772 C55,18.3316832 58.6757426,13.8391089 64.7277228,13.8391089 C66.9183168,13.8391089 68.8861386,14.3589109 70.8910891,15.25 L70.8910891,21.3019802 L67.1782178,21.3019802 L66.4356436,18.2574257 C65.470297,17.7376238 64.1707921,17.4034653 62.9455446,17.4034653 C62.759901,17.4034653 62.5371287,17.4034653 62.3143564,17.4405941 C61.460396,18.7772277 60.9777228,20.5222772 60.9777228,22.8613861 C60.9777228,28.2079208 63.2425743,30.0643564 65.730198,30.0643564 C67.5123762,30.0643564 68.8490099,29.1732673 69.9628713,27.799505 L71.7450495,29.5074257 C70.3712871,31.9950495 67.5866337,34 64.0965347,34 C58.3787129,34 55,30.0272277 55,24.2722772 Z M72.2648515,23.7153465 C72.2648515,17.4777228 76.3118812,13.8391089 82.029703,13.8391089 C87.8217822,13.8391089 91.2747525,18.1831683 91.2747525,24.0866337 C91.2747525,30.3242574 87.2277228,33.9628713 81.5470297,33.9628713 C75.7549505,33.9628713 72.2648515,29.6559406 72.2648515,23.7153465 Z M80.8787129,17.1806931 C80.4331683,17.1806931 80.0247525,17.2549505 79.6534653,17.4034653 C78.6509901,18.5173267 78.2054455,20.1881188 78.2054455,22.5272277 C78.2054455,27.8366337 79.7277228,31.0668317 82.6608911,31.0668317 C83.1064356,31.0668317 83.5148515,30.9925743 83.8861386,30.8440594 C84.8514851,29.8044554 85.2970297,28.2079208 85.2970297,25.7574257 C85.2970297,20.3737624 83.700495,17.1806931 80.8787129,17.1806931 Z M110.618812,12.9108911 L110.618812,26.8712871 C110.618812,27.799505 110.693069,29.7673267 110.767327,30.3613861 L113.514851,30.6584158 L113.514851,33.1460396 L105.532178,33.8886139 C105.383663,33.0346535 105.272277,32.0693069 105.160891,31.0668317 C103.527228,32.9975248 101.633663,33.9628713 99.5173267,33.9628713 C95.0618812,33.9628713 92.240099,29.8787129 92.240099,24.2722772 C92.240099,18.0346535 95.6559406,13.8391089 100.816832,13.8391089 C102.413366,13.8391089 103.712871,14.210396 104.826733,14.8044554 L104.826733,12.9108911 C104.826733,12.019802 104.789604,9.68069307 104.678218,9.16089109 L101.522277,8.67821782 L101.522277,5.7450495 L110.470297,5.18811881 C110.544554,7.23019802 110.618812,10.6089109 110.618812,12.9108911 Z M104.826733,29.0618812 L104.826733,20.8564356 C104.826733,18.740099 103.118812,17.3663366 101.002475,17.3663366 C100.705446,17.3663366 100.408416,17.4034653 100.111386,17.4405941 C98.6262376,18.7029703 97.9950495,20.8193069 97.9950495,23.789604 C97.9950495,28.2450495 99.5544554,30.1014851 102.190594,30.1014851 C103.193069,30.1014851 103.972772,29.6930693 104.826733,29.0618812 Z M129.14604,27.799505 L130.928218,29.5074257 C129.591584,31.9207921 126.806931,34 122.945545,34 C116.819307,34 113.589109,29.6559406 113.589109,23.9381188 C113.589109,18.8143564 117.116337,13.8762376 123.131188,13.8762376 C127.660891,13.8762376 130.742574,17.5148515 130.779703,22.5272277 C130.371287,23.269802 129.888614,23.9009901 129.294554,24.4579208 L119.60396,24.4579208 C120.160891,28.6905941 122.611386,30.0643564 124.50495,30.0643564 C126.621287,30.0643564 127.957921,29.1361386 129.14604,27.799505 Z M121.274752,16.9579208 C120.160891,18.1831683 119.641089,19.8168317 119.529703,21.7475248 C123.094059,21.710396 125.804455,21.6361386 125.804455,21.4876238 C125.804455,18.6287129 124.356436,16.9207921 121.943069,16.9207921 C121.720297,16.9207921 121.497525,16.9207921 121.274752,16.9579208 Z M141.435644,14.210396 L141.435644,16.8836634 C140.470297,16.9950495 139.764851,17.2178218 138.94802,17.700495 L142.475248,28.9133663 L145.631188,19.3712871 L145.111386,17.7376238 C144.294554,17.2549505 143.477723,16.9950495 142.586634,16.8836634 L142.586634,14.210396 L152.79703,14.210396 L152.79703,16.9950495 C151.868812,17.1435644 151.311881,17.2920792 150.569307,17.7747525 L153.725248,28.5792079 L156.955446,17.8118812 C156.25,17.3292079 155.618812,17.1435644 154.690594,16.9950495 L154.690594,14.210396 L163.527228,14.210396 L163.527228,16.9207921 C162.59901,17.0693069 161.596535,17.2920792 160.705446,17.7747525 L155.321782,33.6287129 L150.235149,33.6287129 L147.190594,24.2351485 L143.997525,33.6287129 L138.688119,33.6287129 L133.007426,17.700495 C132.153465,17.2920792 131.113861,16.9950495 130.185644,16.8836634 L130.185644,14.210396 L141.435644,14.210396 Z M164.826733,30.5470297 L164.826733,12.9108911 C164.826733,12.019802 164.752475,9.68069307 164.678218,9.16089109 L161.485149,8.67821782 L161.485149,5.7450495 L170.433168,5.18811881 C170.507426,7.23019802 170.618812,10.6089109 170.618812,12.9108911 L170.618812,16.549505 C172.289604,14.8415842 173.886139,13.8391089 176.336634,13.8391089 C179.975248,13.8391089 182.20297,16.7351485 182.20297,20.7821782 L182.20297,30.5470297 C183.056931,30.9925743 184.096535,31.2524752 185.024752,31.4009901 L185.024752,33.5915842 L174.294554,33.5915842 L174.294554,31.3267327 C175.148515,31.1782178 175.705446,31.029703 176.410891,30.5470297 L176.410891,21.5247525 C176.410891,18.7772277 175.111386,18.1460396 173.626238,18.1460396 C172.586634,18.1460396 171.695545,18.4430693 170.618812,19.0371287 L170.618812,30.5470297 C171.287129,31.029703 171.881188,31.1782178 172.660891,31.3267327 L172.660891,33.5915842 L161.967822,33.5915842 L161.967822,31.4009901 C162.89604,31.2524752 163.935644,30.9925743 164.826733,30.5470297 Z M188.477723,30.5470297 L188.477723,21.6732673 C188.477723,20.7450495 188.403465,18.4059406 188.329208,17.8861386 L185.136139,17.4405941 L185.136139,14.5074257 L194.084158,13.950495 C194.158416,15.9925743 194.232673,19.3712871 194.232673,21.6732673 L194.232673,30.5470297 C195.123762,30.9925743 196.126238,31.2524752 197.091584,31.4009901 L197.091584,33.5915842 L185.618812,33.5915842 L185.618812,31.4009901 C186.54703,31.2524752 187.586634,30.9925743 188.477723,30.5470297 Z M194.269802,7.34158416 C194.269802,9.1980198 192.821782,10.720297 191.002475,10.720297 C189.14604,10.720297 187.660891,9.1980198 187.660891,7.34158416 C187.660891,5.48514851 189.14604,4 191.002475,4 C192.821782,4 194.269802,5.48514851 194.269802,7.34158416 Z M200.433168,30.5470297 L200.433168,12.9108911 C200.433168,12.019802 200.358911,9.68069307 200.284653,9.16089109 L197.091584,8.67821782 L197.091584,5.7450495 L206.039604,5.18811881 C206.113861,7.23019802 206.225248,10.6089109 206.225248,12.9108911 L206.225248,30.5470297 C207.079208,30.9925743 208.081683,31.2524752 209.04703,31.4009901 L209.04703,33.5915842 L197.574257,33.5915842 L197.574257,31.4009901 C198.539604,31.2524752 199.579208,30.9925743 200.433168,30.5470297 Z M225.123762,27.799505 L226.905941,29.5074257 C225.569307,31.9207921 222.784653,34 218.923267,34 C212.79703,34 209.566832,29.6559406 209.566832,23.9381188 C209.566832,18.8143564 213.094059,13.8762376 219.108911,13.8762376 C223.638614,13.8762376 226.720297,17.5148515 226.757426,22.5272277 C226.34901,23.269802 225.866337,23.9009901 225.272277,24.4579208 L215.581683,24.4579208 C216.138614,28.6905941 218.589109,30.0643564 220.482673,30.0643564 C222.59901,30.0643564 223.935644,29.1361386 225.123762,27.799505 Z M217.252475,16.9579208 C216.138614,18.1831683 215.618812,19.8168317 215.507426,21.7475248 C219.071782,21.710396 221.782178,21.6361386 221.782178,21.4876238 C221.782178,18.6287129 220.334158,16.9207921 217.920792,16.9207921 C217.69802,16.9207921 217.475248,16.9207921 217.252475,16.9579208 Z" id="codewhile" fill="#000000"></path>
            <g id="Group" transform="translate(20.000000, 19.000000) scale(1, -1) rotate(90.000000) translate(-20.000000, -19.000000) translate(1.000000, -1.000000)" fill="url(#linearGradient-1)" fill-rule="nonzero">
                <path d="M38,36 C22,41.3333333 11.3333333,41.3333333 6,36 C-2,28 -2,12 6,4 C11.3333333,-1.33333333 22,-1.33333333 38,4 L32.946,9.172 C22.1132289,5.45048656 14.8158956,5.45048656 11.054,9.172 C5.75084335,14.4182298 5.75084335,25.5827702 11.054,30.829 C14.8158956,34.5505134 22.1132289,34.5505134 32.946,30.829 L38,36 Z" id="Shape"></path>
                <path d="M15.962,13.962 C19.1057515,10.8182485 24.0126667,11.9493333 28.038,13.962 C30.0506667,14.9683333 21.3504305,16.9684908 21.3504305,19.9874908 C21.3504305,23.0064908 30.0506667,25.0316667 28.038,26.038 C24.0126667,28.0506667 19.0446545,29.1206545 15.962,26.038 C13.0066545,23.0826545 13.0677515,16.8562485 15.962,13.962 Z" id="Rectangle-path"></path>
            </g>
        </g>
    </g>
</svg>