<?xml version="1.0" encoding="UTF-8"?>
<svg width="207px" height="38px" viewBox="0 0 207 38" version="1.1" xmlns="http://www.w3.org/2000/svg" xmlns:xlink="http://www.w3.org/1999/xlink">
    <!-- Generator: Sketch 48 (47235) - http://www.bohemiancoding.com/sketch -->
    <title>Group 12</title>
    <desc>Created with Sketch.</desc>
    <defs>
        <linearGradient x1="-2.22044605e-14%" y1="50%" x2="100%" y2="50%" id="linearGradient-1">
            <stop stop-color="#ED1E79" offset="0%"></stop>
            <stop stop-color="#D76D77" offset="49.5157047%"></stop>
            <stop stop-color="#FFAF7B" offset="100%"></stop>
        </linearGradient>
    </defs>
    <g id="Page-1" stroke="none" stroke-width="1" fill="none" fill-rule="evenodd">
        <g id="Group-12">
            <g id="Group-11" fill="url(#linearGradient-1)" fill-rule="nonzero">
                <g id="Group" transform="translate(20.000000, 19.000000) scale(1, -1) rotate(90.000000) translate(-20.000000, -19.000000) translate(1.000000, -1.000000)">
                    <path d="M38,36 C22,41.3333333 11.3333333,41.3333333 6,36 C-2,28 -2,12 6,4 C11.3333333,-1.33333333 22,-1.33333333 38,4 L32.946,9.172 C22.1132289,5.45048656 14.8158956,5.45048656 11.054,9.172 C5.75084335,14.4182298 5.75084335,25.5827702 11.054,30.829 C14.8158956,34.5505134 22.1132289,34.5505134 32.946,30.829 L38,36 Z" id="Shape"></path>
                    <path d="M15.962,13.962 C19.1057515,10.8182485 24.0126667,11.9493333 28.038,13.962 C30.0506667,14.9683333 21.3504305,16.9684908 21.3504305,19.9874908 C21.3504305,23.0064908 30.0506667,25.0316667 28.038,26.038 C24.0126667,28.0506667 19.0446545,29.1206545 15.962,26.038 C13.0066545,23.0826545 13.0677515,16.8562485 15.962,13.962 Z" id="Rectangle-path"></path>
                </g>
            </g>
            <path d="M66.1072351,24.0891473 L70.4741602,26.5245478 C69.5503876,28.1873385 68.2906977,29.5142119 66.7118863,30.505168 C65.1330749,31.5129199 63.2351421,32 61.001292,32 C57.5581395,32 54.8540052,30.8410853 52.9224806,28.5232558 C50.9741602,26.2222222 50,23.0813953 50,19.1343669 C50,15.2041344 50.9741602,12.0968992 52.9224806,9.8126615 C54.8540052,7.54521964 57.5581395,6.40310078 61.001292,6.40310078 C65.3850129,6.40310078 68.4586563,8.40180879 70.2894057,11.6770026 L65.9224806,14.2131783 C64.9819121,12.4664083 63.2351421,11.4250646 60.9677003,11.4250646 C57.625323,11.4250646 56.0633075,13.8100775 56.0633075,19.2351421 C56.0633075,24.6770026 57.6085271,27.0116279 60.9005168,27.0116279 C63.251938,27.0116279 65.1498708,25.8359173 66.1072351,24.0891473 Z M80.4354522,12.9366925 C83.2571576,12.9366925 85.4742119,13.7596899 87.1034109,15.4056848 C88.715814,17.0516796 89.5220155,19.4031008 89.5220155,22.4431525 C89.5220155,25.5 88.715814,27.8514212 87.086615,29.5142119 C85.457416,31.1770026 83.2403618,32 80.4354522,32 C77.6305426,32 75.4134884,31.1770026 73.8010853,29.5142119 C72.1886822,27.8514212 71.3824806,25.5 71.3824806,22.4431525 C71.3824806,19.3863049 72.1886822,17.0348837 73.8010853,15.3888889 C75.4134884,13.7596899 77.6305426,12.9366925 80.4354522,12.9366925 Z M80.4354522,17.0348837 C79.1085788,17.0348837 78.2016021,17.4547804 77.714522,18.2777778 C77.210646,19.1007752 76.958708,20.494832 76.958708,22.4431525 C76.958708,24.3410853 77.1938501,25.7351421 77.6809302,26.5917313 C78.1512145,27.4651163 79.0749871,27.9018088 80.4354522,27.9018088 C81.7959173,27.9018088 82.7364858,27.4651163 83.2235659,26.5917313 C83.710646,25.7183463 83.9457881,24.3410853 83.9457881,22.4431525 C83.9457881,20.494832 83.6938501,19.1007752 83.20677,18.2777778 C82.7028941,17.4547804 81.7791214,17.0348837 80.4354522,17.0348837 Z M108.4523,6 L108.4523,28.4896641 L108.93938,31.3449612 L104.572455,31.3449612 L103.783049,30.3204134 L103.715866,30.3204134 C102.422584,31.4121447 100.843773,31.9664083 98.9962274,31.9664083 C96.7623773,31.9664083 94.6964858,31.126615 93.1512661,29.5813953 C91.5892506,28.0529716 90.5982946,25.5503876 90.5982946,22.5439276 C90.5982946,19.5374677 91.6228424,16.9677003 93.2016537,15.4056848 C94.7804651,13.8436693 96.795969,12.9366925 98.9290439,12.9366925 C100.423876,12.9366925 101.801137,13.4405685 103.094419,14.4483204 L103.161602,14.4483204 L103.161602,6.20155039 L108.4523,6 Z M96.174522,22.5439276 C96.174522,25.5671835 97.0647028,27.8682171 100.138346,27.8682171 C101.263669,27.8682171 102.271421,27.6162791 103.161602,27.1124031 L103.161602,19.4031008 C103.161602,17.4547804 101.431628,17.0348837 100.003979,17.0348837 C98.5259432,17.0348837 97.5181912,17.4547804 96.9807235,18.3113695 C96.4432558,19.1679587 96.174522,20.5788114 96.174522,22.5439276 Z M127.298605,22.5103359 L127.298605,24.2235142 L115.810233,24.2235142 C116.213333,26.6925065 117.439432,27.9018088 119.908424,27.9018088 C121.87354,27.9018088 123.116434,27.1963824 124.275349,25.9870801 L126.962687,29.1111111 C125.131938,30.9922481 122.511783,32 119.740465,32 C117.187494,32 114.869664,31.126615 113.089302,29.5645995 C111.308941,28.002584 110.166822,25.4160207 110.166822,22.3255814 C110.166822,19.4870801 110.973023,17.2196382 112.56863,15.5064599 C114.164238,13.7932817 116.280517,12.9366925 118.951059,12.9366925 C120.61385,12.9366925 122.024703,13.1886305 123.536331,14.0620155 C124.292145,14.498708 124.930388,15.0529716 125.467855,15.7416021 C126.542791,17.118863 127.298605,19.4870801 127.298605,22.5103359 Z M115.776641,20.377261 L122.276641,20.377261 C122.276641,18.244186 121.084134,17.0348837 119.119018,17.0348837 C117.019535,17.0348837 116.045375,18.0426357 115.776641,20.377261 Z M145.993747,22.5103359 L148.37876,13.5917313 L153.736641,13.5917313 L148.09323,31.3449612 L143.759897,31.3449612 L140.803824,22.9470284 L140.383928,20.8475452 L139.980827,22.9470284 L137.058346,31.3449612 L132.792196,31.3449612 L127.014419,13.5917313 L132.439483,13.5917313 L134.790904,22.5103359 L135.328372,25.0465116 L135.949819,22.5103359 L138.670749,14.6330749 L142.113902,14.6330749 L144.80124,22.5103359 L145.456279,25.0465116 L145.993747,22.5103359 Z M164.940827,12.9366925 C167.107494,12.9366925 168.820672,13.5581395 170.080362,14.7842377 C171.340052,16.0103359 171.961499,17.6899225 171.961499,19.8229974 L171.961499,31.3449612 L166.620413,31.3449612 L166.620413,20.2260982 C166.603618,17.7571059 165.461499,16.7325581 163.496382,16.7325581 C161.883979,16.7325581 160.187597,17.4379845 160.187597,20.1925065 L160.187597,31.3449612 L154.863307,31.3449612 L154.863307,6.23514212 L160.187597,6.10077519 L160.187597,15.4224806 L160.25478,15.4224806 C161.044186,13.9444444 162.606202,12.9366925 164.940827,12.9366925 Z M174.465426,10.9547804 L174.465426,6.60465116 L179.856899,6.40310078 L179.856899,10.7364341 L174.465426,10.9547804 Z M174.53261,31.3449612 L174.53261,13.5917313 L179.823307,13.3901809 L179.823307,31.3449612 L174.53261,31.3449612 Z M182.377623,31.3449612 L182.377623,6.20155039 L187.701912,6 L187.701912,31.3449612 L182.377623,31.3449612 Z M206.430646,22.5103359 L206.430646,24.2235142 L194.942274,24.2235142 C195.345375,26.6925065 196.571473,27.9018088 199.040465,27.9018088 C201.005581,27.9018088 202.248475,27.1963824 203.40739,25.9870801 L206.094729,29.1111111 C204.263979,30.9922481 201.643824,32 198.872506,32 C196.319535,32 194.001705,31.126615 192.221344,29.5645995 C190.440982,28.002584 189.298863,25.4160207 189.298863,22.3255814 C189.298863,19.4870801 190.105065,17.2196382 191.700672,15.5064599 C193.296279,13.7932817 195.412558,12.9366925 198.083101,12.9366925 C199.745891,12.9366925 201.156744,13.1886305 202.668372,14.0620155 C203.424186,14.498708 204.062429,15.0529716 204.599897,15.7416021 C205.674832,17.118863 206.430646,19.4870801 206.430646,22.5103359 Z M194.908682,20.377261 L201.408682,20.377261 C201.408682,18.244186 200.216176,17.0348837 198.251059,17.0348837 C196.151576,17.0348837 195.177416,18.0426357 194.908682,20.377261 Z" id="Codewhile" fill="#000000"></path>
        </g>
    </g>
</svg>