<?xml version="1.0" encoding="UTF-8"?>
<svg width="189px" height="38px" viewBox="0 0 189 38" version="1.1" xmlns="http://www.w3.org/2000/svg" xmlns:xlink="http://www.w3.org/1999/xlink">
    <!-- Generator: Sketch 48 (47235) - http://www.bohemiancoding.com/sketch -->
    <title>Group 14</title>
    <desc>Created with Sketch.</desc>
    <defs>
        <linearGradient x1="-2.22044605e-14%" y1="50%" x2="100%" y2="50%" id="linearGradient-1">
            <stop stop-color="#ED1E79" offset="0%"></stop>
            <stop stop-color="#D76D77" offset="49.5157047%"></stop>
            <stop stop-color="#FFAF7B" offset="100%"></stop>
        </linearGradient>
    </defs>
    <g id="Page-1" stroke="none" stroke-width="1" fill="none" fill-rule="evenodd">
        <g id="Group-14">
            <path d="M61.9095607,24.5 L64.3255814,27.0581395 C63.629199,27.8966408 62.7338501,28.6072351 61.625323,29.1614987 C60.5167959,29.7157623 59.251938,30 57.8307494,30 C55.6136951,30 53.6808786,29.2609819 52.2739018,27.9250646 C50.8527132,26.5891473 50,24.4715762 50,21.9134367 C50,20.2222222 50.3552972,18.7583979 51.0516796,17.5219638 C51.748062,16.2855297 52.6860465,15.375969 53.8514212,14.7648579 C55.0167959,14.1679587 56.3385013,13.869509 57.8307494,13.869509 C59.379845,13.869509 60.7583979,14.2248062 61.7958656,14.8501292 C62.3074935,15.1770026 62.7196382,15.4612403 63.0322997,15.7170543 C63.3307494,15.9728682 63.6718346,16.2855297 64.0413437,16.6692506 L61.625323,19.3126615 C61.1705426,18.8010336 60.5878553,18.3462532 59.8630491,17.9341085 C59.1382429,17.5361757 58.3850129,17.3372093 57.6033592,17.3372093 C55.5426357,17.3372093 54.7183463,18.9005168 54.7183463,21.9702842 C54.7183463,25.0968992 55.5710594,26.5322997 57.745478,26.5322997 C59.2093023,26.5322997 60.5878553,25.8501292 61.9095607,24.5 Z M73.6343669,13.869509 C76.0219638,13.869509 77.8979328,14.5658915 79.2764858,15.9586563 C80.6408269,17.3514212 81.3229974,19.3410853 81.3229974,21.9134367 C81.3229974,24.5 80.6408269,26.4896641 79.2622739,27.8966408 C77.8837209,29.3036176 76.0077519,30 73.6343669,30 C71.2609819,30 69.3850129,29.3036176 68.0206718,27.8966408 C66.6563307,26.4896641 65.9741602,24.5 65.9741602,21.9134367 C65.9741602,19.3268734 66.6563307,17.3372093 68.0206718,15.9444444 C69.3850129,14.5658915 71.2609819,13.869509 73.6343669,13.869509 Z M73.6343669,17.3372093 C72.5116279,17.3372093 71.744186,17.6925065 71.3320413,18.3888889 C70.9056848,19.0852713 70.6925065,20.2648579 70.6925065,21.9134367 C70.6925065,23.5193798 70.8914729,24.6989664 71.3036176,25.4237726 C71.7015504,26.1627907 72.4832041,26.5322997 73.6343669,26.5322997 C74.7855297,26.5322997 75.5813953,26.1627907 75.9935401,25.4237726 C76.4056848,24.6847545 76.6046512,23.5193798 76.6046512,21.9134367 C76.6046512,20.2648579 76.3914729,19.0852713 75.9793282,18.3888889 C75.5529716,17.6925065 74.7713178,17.3372093 73.6343669,17.3372093 Z M98.2209302,8 L98.2209302,27.0297158 L98.6330749,29.4457364 L94.9379845,29.4457364 L94.2700258,28.5788114 L94.2131783,28.5788114 C93.118863,29.502584 91.7829457,29.9715762 90.2196382,29.9715762 C88.3294574,29.9715762 86.5813953,29.2609819 85.2739018,27.9534884 C83.9521964,26.6602067 83.1136951,24.5426357 83.1136951,21.998708 C83.1136951,19.4547804 83.9806202,17.2803618 85.3165375,15.9586563 C86.6524548,14.6369509 88.3578811,13.869509 90.1627907,13.869509 C91.4276486,13.869509 92.5930233,14.2958656 93.6873385,15.1485788 L93.744186,15.1485788 L93.744186,8.17054264 L98.2209302,8 Z M87.8320413,21.998708 C87.8320413,24.5568475 88.5852713,26.503876 91.1860465,26.503876 C92.1382429,26.503876 92.9909561,26.2906977 93.744186,25.8643411 L93.744186,19.3410853 C93.744186,17.6925065 92.2803618,17.3372093 91.0723514,17.3372093 C89.8217054,17.3372093 88.9689922,17.6925065 88.5142119,18.4173127 C88.0594315,19.1421189 87.8320413,20.3359173 87.8320413,21.998708 Z M115.332041,21.9702842 L115.332041,23.4198966 L105.611111,23.4198966 C105.952196,25.5090439 106.989664,26.5322997 109.078811,26.5322997 C110.741602,26.5322997 111.793282,25.9354005 112.773902,24.9121447 L115.047804,27.5555556 C113.498708,29.1472868 111.281654,30 108.936693,30 C106.776486,30 104.815245,29.2609819 103.308786,27.9392765 C101.802326,26.6175711 100.835917,24.4289406 100.835917,21.8139535 C100.835917,19.4121447 101.518088,17.4935401 102.868217,16.0439276 C104.218346,14.5943152 106.009044,13.869509 108.268734,13.869509 C109.675711,13.869509 110.869509,14.0826873 112.148579,14.8217054 C112.788114,15.1912145 113.328165,15.6602067 113.782946,16.2428941 C114.692506,17.4082687 115.332041,19.4121447 115.332041,21.9702842 Z M105.582687,20.1653747 L111.082687,20.1653747 C111.082687,18.3604651 110.073643,17.3372093 108.410853,17.3372093 C106.634367,17.3372093 105.810078,18.1899225 105.582687,20.1653747 Z M132.812661,21.9702842 L134.830749,14.4237726 L139.364341,14.4237726 L134.589147,29.4457364 L130.922481,29.4457364 L128.421189,22.3397933 L128.065891,20.5633075 L127.724806,22.3397933 L125.251938,29.4457364 L121.642119,29.4457364 L116.75323,14.4237726 L121.343669,14.4237726 L123.333333,21.9702842 L123.788114,24.1162791 L124.313953,21.9702842 L126.616279,15.3049096 L129.529716,15.3049096 L131.803618,21.9702842 L132.357881,24.1162791 L132.812661,21.9702842 Z M150.009044,13.869509 C151.842377,13.869509 153.29199,14.3953488 154.357881,15.4328165 C155.423773,16.4702842 155.949612,17.8914729 155.949612,19.6963824 L155.949612,29.4457364 L151.430233,29.4457364 L151.430233,20.0374677 C151.416021,17.9483204 150.449612,17.0813953 148.786822,17.0813953 C147.422481,17.0813953 145.98708,17.6782946 145.98708,20.0090439 L145.98708,29.4457364 L141.481912,29.4457364 L141.481912,8.19896641 L145.98708,8.08527132 L145.98708,15.9728682 L146.043928,15.9728682 C146.711886,14.7222222 148.033592,13.869509 150.009044,13.869509 Z M159.232558,12.1925065 L159.232558,8.51162791 L163.794574,8.34108527 L163.794574,12.0077519 L159.232558,12.1925065 Z M159.289406,29.4457364 L159.289406,14.4237726 L163.76615,14.25323 L163.76615,29.4457364 L159.289406,29.4457364 Z M167.091731,29.4457364 L167.091731,8.17054264 L171.596899,8 L171.596899,29.4457364 L167.091731,29.4457364 Z M188.608527,21.9702842 L188.608527,23.4198966 L178.887597,23.4198966 C179.228682,25.5090439 180.26615,26.5322997 182.355297,26.5322997 C184.018088,26.5322997 185.069767,25.9354005 186.050388,24.9121447 L188.324289,27.5555556 C186.775194,29.1472868 184.55814,30 182.213178,30 C180.052972,30 178.091731,29.2609819 176.585271,27.9392765 C175.078811,26.6175711 174.112403,24.4289406 174.112403,21.8139535 C174.112403,19.4121447 174.794574,17.4935401 176.144703,16.0439276 C177.494832,14.5943152 179.28553,13.869509 181.54522,13.869509 C182.952196,13.869509 184.145995,14.0826873 185.425065,14.8217054 C186.064599,15.1912145 186.604651,15.6602067 187.059432,16.2428941 C187.968992,17.4082687 188.608527,19.4121447 188.608527,21.9702842 Z M178.859173,20.1653747 L184.359173,20.1653747 C184.359173,18.3604651 183.350129,17.3372093 181.687339,17.3372093 C179.910853,17.3372093 179.086563,18.1899225 178.859173,20.1653747 Z" id="codewhile" fill="#FAFAFA"></path>
            <g id="Group-11" fill="url(#linearGradient-1)" fill-rule="nonzero">
                <g id="Group" transform="translate(20.000000, 19.000000) scale(1, -1) rotate(90.000000) translate(-20.000000, -19.000000) translate(1.000000, -1.000000)">
                    <path d="M38,36 C22,41.3333333 11.3333333,41.3333333 6,36 C-2,28 -2,12 6,4 C11.3333333,-1.33333333 22,-1.33333333 38,4 L32.946,9.172 C22.1132289,5.45048656 14.8158956,5.45048656 11.054,9.172 C5.75084335,14.4182298 5.75084335,25.5827702 11.054,30.829 C14.8158956,34.5505134 22.1132289,34.5505134 32.946,30.829 L38,36 Z" id="Shape"></path>
                    <path d="M15.962,13.962 C19.1057515,10.8182485 24.0126667,11.9493333 28.038,13.962 C30.0506667,14.9683333 21.3504305,16.9684908 21.3504305,19.9874908 C21.3504305,23.0064908 30.0506667,25.0316667 28.038,26.038 C24.0126667,28.0506667 19.0446545,29.1206545 15.962,26.038 C13.0066545,23.0826545 13.0677515,16.8562485 15.962,13.962 Z" id="Rectangle-path"></path>
                </g>
            </g>
        </g>
    </g>
</svg>