<?xml version="1.0" encoding="UTF-8"?>
<svg width="189px" height="38px" viewBox="0 0 189 38" version="1.1" xmlns="http://www.w3.org/2000/svg" xmlns:xlink="http://www.w3.org/1999/xlink">
    <!-- Generator: Sketch 48 (47235) - http://www.bohemiancoding.com/sketch -->
    <title>Group 16</title>
    <desc>Created with Sketch.</desc>
    <defs>
        <linearGradient x1="-2.22044605e-14%" y1="50%" x2="100%" y2="50%" id="linearGradient-1">
            <stop stop-color="#ED1E79" offset="0%"></stop>
            <stop stop-color="#D76D77" offset="49.5157047%"></stop>
            <stop stop-color="#FFAF7B" offset="100%"></stop>
        </linearGradient>
    </defs>
    <g id="Page-1" stroke="none" stroke-width="1" fill="none" fill-rule="evenodd">
        <g id="Group-16">
            <path d="M63.8012579,30.6591195 C62.6566038,31.5421384 61.0213836,32 58.8628931,32 C52.7798742,32 50,26.5056604 50,20.4226415 C50,14.4377358 52.845283,8.84528302 58.8955975,8.84528302 C61.0867925,8.84528302 62.6566038,9.33584906 63.7685535,10.1534591 L62.6893082,13.3584906 C62.0679245,12.9660377 61.2830189,12.6716981 60.0402516,12.6716981 C56.5735849,12.6716981 55.4616352,16.5308176 55.4616352,20.3899371 C55.4616352,24.2163522 56.7371069,27.9446541 60.0075472,27.9446541 C61.2503145,27.9446541 61.8716981,27.6830189 62.591195,27.2578616 L63.8012579,30.6591195 Z M79.4993711,22.8427673 C79.4993711,28.1081761 76.8176101,32 71.7157233,32 C66.6138365,32 63.9320755,28.1081761 63.9320755,22.8427673 C63.9320755,17.5773585 66.6138365,13.718239 71.6830189,13.718239 C76.8176101,13.718239 79.4993711,17.5773585 79.4993711,22.8427673 Z M74.4301887,22.7773585 C74.4301887,19.6377358 73.972327,16.890566 71.7157233,16.890566 C69.4591195,16.890566 69.0012579,19.6377358 69.0012579,22.7773585 C69.0012579,25.9496855 69.4918239,28.5333333 71.7157233,28.5333333 C73.972327,28.5333333 74.4301887,25.9496855 74.4301887,22.7773585 Z M96.2113208,30.6918239 C94.608805,31.5421384 92.5157233,32 89.4742138,32 C84.1433962,32 80.8075472,28.8603774 80.8075472,22.9735849 C80.8075472,17.3157233 84.0125786,13.8490566 88.5584906,13.8490566 C89.6050314,13.8490566 90.4880503,13.9798742 91.1421384,14.1433962 L91.1421384,6 L96.2113208,6 L96.2113208,30.6918239 Z M91.1421384,28.5006289 L91.1421384,16.890566 C90.7169811,16.7597484 90.2591195,16.6943396 89.7358491,16.6943396 C86.9232704,16.6943396 85.8440252,19.1144654 85.8440252,22.7446541 C85.8440252,26.5710692 86.9886792,28.7622642 89.572327,28.7622642 C90.2591195,28.7622642 90.7823899,28.6968553 91.1421384,28.5006289 Z M113.544654,23.1371069 L102.981132,24.6415094 C103.340881,27.2251572 104.649057,28.5006289 107.232704,28.5006289 C109.293082,28.5006289 110.862893,28.0427673 111.811321,27.5522013 L112.955975,30.7245283 C111.58239,31.4113208 109.620126,32 106.644025,32 C101.247799,32 98.1408805,28.4352201 98.1408805,22.8100629 C98.1408805,17.2830189 101.018868,13.718239 106.08805,13.718239 C111.189937,13.718239 113.773585,17.1849057 113.544654,23.1371069 Z M108.802516,21.2402516 C108.802516,18.1006289 107.755975,16.727044 105.891824,16.727044 C103.798742,16.727044 102.490566,18.5257862 102.654088,22.1559748 L108.802516,21.2402516 Z M138.759748,14.045283 L133.919497,31.672956 L129.210063,31.672956 L126.691824,22.1232704 C126.397484,20.9459119 126.332075,19.7031447 126.332075,19.7031447 L126.299371,19.7031447 C126.299371,19.7031447 126.233962,20.9459119 125.906918,22.1232704 L123.32327,31.672956 L118.646541,31.672956 L113.806289,14.045283 L118.875472,14.045283 L121.001258,24.2163522 C121.295597,25.6553459 121.328302,26.7672956 121.328302,26.7672956 L121.393711,26.7672956 C121.393711,26.7672956 121.426415,25.6880503 121.818868,24.2163522 L124.500629,14.045283 L128.686792,14.045283 L131.205031,24.2163522 C131.499371,25.4591195 131.630189,26.7672956 131.630189,26.7672956 L131.695597,26.7672956 C131.695597,26.7672956 131.728302,25.4591195 132.022642,24.1836478 L134.279245,14.045283 L138.759748,14.045283 Z M155.013836,31.672956 L149.91195,31.672956 L149.91195,19.408805 C149.91195,18.0352201 149.290566,16.9232704 147.295597,16.9232704 C146.477987,16.9232704 145.823899,17.0540881 145.137107,17.4138365 L145.137107,31.672956 L140.03522,31.672956 L140.03522,6 L145.137107,6 L145.137107,14.6339623 C146.314465,14.1106918 147.557233,13.8163522 148.930818,13.8163522 C153.345912,13.8163522 155.013836,16.3672956 155.013836,19.3106918 L155.013836,31.672956 Z M162.928302,8.97610063 C162.928302,10.3169811 161.718239,11.363522 160.213836,11.363522 C158.709434,11.363522 157.499371,10.3169811 157.499371,8.97610063 C157.499371,7.66792453 158.709434,6.58867925 160.213836,6.58867925 C161.718239,6.58867925 162.928302,7.66792453 162.928302,8.97610063 Z M162.76478,31.672956 L157.662893,31.672956 L157.662893,14.045283 L162.76478,14.045283 L162.76478,31.672956 Z M170.613836,31.672956 L165.51195,31.672956 L165.51195,6 L170.613836,6 L170.613836,31.672956 Z M188.045283,23.1371069 L177.481761,24.6415094 C177.841509,27.2251572 179.149686,28.5006289 181.733333,28.5006289 C183.793711,28.5006289 185.363522,28.0427673 186.31195,27.5522013 L187.456604,30.7245283 C186.083019,31.4113208 184.120755,32 181.144654,32 C175.748428,32 172.641509,28.4352201 172.641509,22.8100629 C172.641509,17.2830189 175.519497,13.718239 180.588679,13.718239 C185.690566,13.718239 188.274214,17.1849057 188.045283,23.1371069 Z M183.303145,21.2402516 C183.303145,18.1006289 182.256604,16.727044 180.392453,16.727044 C178.299371,16.727044 176.991195,18.5257862 177.154717,22.1559748 L183.303145,21.2402516 Z" id="Codewhile" fill="#000000"></path>
            <g id="Group-11" fill="url(#linearGradient-1)" fill-rule="nonzero">
                <g id="Group" transform="translate(20.000000, 19.000000) scale(1, -1) rotate(90.000000) translate(-20.000000, -19.000000) translate(1.000000, -1.000000)">
                    <path d="M38,36 C22,41.3333333 11.3333333,41.3333333 6,36 C-2,28 -2,12 6,4 C11.3333333,-1.33333333 22,-1.33333333 38,4 L32.946,9.172 C22.1132289,5.45048656 14.8158956,5.45048656 11.054,9.172 C5.75084335,14.4182298 5.75084335,25.5827702 11.054,30.829 C14.8158956,34.5505134 22.1132289,34.5505134 32.946,30.829 L38,36 Z" id="Shape"></path>
                    <path d="M15.962,13.962 C19.1057515,10.8182485 24.0126667,11.9493333 28.038,13.962 C30.0506667,14.9683333 21.3504305,16.9684908 21.3504305,19.9874908 C21.3504305,23.0064908 30.0506667,25.0316667 28.038,26.038 C24.0126667,28.0506667 19.0446545,29.1206545 15.962,26.038 C13.0066545,23.0826545 13.0677515,16.8562485 15.962,13.962 Z" id="Rectangle-path"></path>
                </g>
            </g>
        </g>
    </g>
</svg>