<?xml version="1.0" encoding="UTF-8"?>
<svg width="90px" height="126px" viewBox="0 0 90 126" version="1.1" xmlns="http://www.w3.org/2000/svg" xmlns:xlink="http://www.w3.org/1999/xlink">
    <!-- Generator: Sketch 48 (47235) - http://www.bohemiancoding.com/sketch -->
    <title>Page 1</title>
    <desc>Created with Sketch.</desc>
    <defs>
        <polygon id="path-1" points="0 125.616 89.283 125.616 89.283 0 0 0"></polygon>
    </defs>
    <g id="Page-1" stroke="none" stroke-width="1" fill="none" fill-rule="evenodd">
        <g>
            <path d="M72.7647,49.7556 C72.7647,49.7556 64.4297,63.1766 60.8557,64.1896 C57.3697,65.1786 59.6647,62.1786 60.9807,59.6836 C62.2967,57.1906 67.4027,50.5076 68.0747,49.5686 C68.9117,48.3986 70.2227,48.6196 72.7647,49.7556" id="Fill-1" fill="#163F59"></path>
            <path d="M77.9639,71.9993 L69.6419,101.0433 C69.6419,101.0433 64.0809,103.0303 64.1519,96.2723 C64.2229,89.5133 65.6189,72.6973 65.6189,72.6973 L77.9639,71.9993 Z" id="Fill-3" fill="#163F59"></path>
            <path d="M85.2911,48.97 C85.2911,48.97 83.0311,50.985 82.9221,54.189 C82.8171,57.393 76.3901,51.433 76.3901,51.433 C76.3901,51.433 79.9441,50.393 77.0631,46.665 C75.5291,44.679 85.2661,47.61 85.2911,48.97" id="Fill-5" fill="#EDEEF0"></path>
            <path d="M84.9468,56.2976 C84.9468,56.2976 83.3198,54.4686 79.3378,52.5526 C75.6088,50.7596 71.5938,49.4436 70.8058,49.5466 C69.1768,49.7596 67.4788,57.4846 66.6598,64.0876 C66.1418,68.2666 65.0868,71.5616 65.0868,71.5616 C65.0868,71.5616 75.6368,80.8066 76.5648,80.9336 C77.4918,81.0606 80.3968,79.1906 80.6308,77.1716 C80.8628,75.1526 82.2678,63.6086 84.2368,62.1916 C86.2048,60.7736 87.1428,57.2536 84.9468,56.2976" id="Fill-7" fill="#D1DBEA"></path>
            <path d="M69.3858,73.6795 C68.8998,73.5525 68.4158,73.4265 67.9288,73.2985 C70.0118,65.4145 73.6928,58.0495 78.7478,51.6565 C79.0848,51.9195 79.4218,52.1815 79.7588,52.4455 C74.8768,58.7375 71.3458,65.9655 69.3858,73.6795" id="Fill-9" fill="#B0BFDE"></path>
            <mask id="mask-2" fill="white">
                <use xlink:href="#path-1"></use>
            </mask>
            <g id="Clip-12"></g>
            <polygon id="Fill-11" fill="#593446" mask="url(#mask-2)" points="64.783 123.14 68.442 123.14 68.442 117.565 64.783 117.565"></polygon>
            <polygon id="Fill-13" fill="#593446" mask="url(#mask-2)" points="84.2569 119.1052 84.7819 122.6642 80.8479 123.7402 81.0769 118.3292"></polygon>
            <path d="M70.126,96.656 L68.812,121.573 L64.397,121.339 C64.397,121.339 63.157,95.959 64.783,95.03 C66.409,94.101 70.126,95.494 70.126,96.656" id="Fill-14" fill="#163F59" mask="url(#mask-2)"></path>
            <path d="M81.3931,74.7083 L81.6671,100.4653 C81.6671,100.4653 78.3581,102.7063 76.8571,101.4273 C75.6941,100.4373 72.5381,88.9373 71.1671,81.4803 C70.7681,79.3113 67.1171,76.0703 67.3521,74.1143 C67.4631,73.1983 81.3931,74.7083 81.3931,74.7083" id="Fill-15" fill="#194866" mask="url(#mask-2)"></path>
            <path d="M81.5718,96.2332 L85.0808,121.0652 L80.4128,121.1442 C80.4128,121.1442 73.2988,93.4432 76.2798,93.7322 C79.1198,94.0062 81.4198,95.4222 81.5718,96.2332" id="Fill-16" fill="#194866" mask="url(#mask-2)"></path>
            <path d="M68.2671,124.7644 L65.5961,124.7644 L65.5961,123.9524 L64.4341,124.7644 L57.6981,124.7644 C57.6981,124.7644 57.8131,123.6624 62.3431,123.4874 C63.5041,123.4424 64.3181,121.8624 64.3181,121.8624 C64.3181,121.8624 64.8991,121.3394 65.7701,122.5594 C65.9971,122.8754 68.4421,122.2684 68.4421,122.2684 C68.4421,122.2684 68.6741,123.8944 68.2671,124.7644" id="Fill-17" fill="#081832" mask="url(#mask-2)"></path>
            <path d="M84.7588,124.8006 L82.0858,124.9186 L82.0568,124.0966 L80.9238,124.9716 L74.1848,125.2746 C74.1848,125.2746 74.2608,124.1516 78.7858,123.7706 C79.9468,123.6736 80.7028,122.0326 80.7028,122.0326 C80.7028,122.0326 81.2628,121.4786 82.1798,122.6756 C82.4178,122.9866 84.8418,122.2616 84.8418,122.2616 C84.8418,122.2616 85.1338,123.8986 84.7588,124.8006" id="Fill-18" fill="#081832" mask="url(#mask-2)"></path>
            <path d="M86.3248,46.4041 C87.1468,44.4251 85.5738,40.0151 84.2968,40.1851 C83.7458,40.2581 83.2458,40.4071 82.8508,40.6291 C82.3888,40.9141 81.9288,41.1931 81.4788,41.4671 C81.3748,41.5241 81.2808,41.5991 81.1898,41.6801 C81.1828,41.6861 81.1738,41.6871 81.1668,41.6941 L76.5918,45.6541 C76.4498,45.7761 76.4358,45.9881 76.5578,46.1301 L79.1588,49.1341 C79.2708,49.2641 82.1438,49.6881 82.7138,49.6611 C83.3648,49.6731 83.9128,49.8121 84.3558,49.7101 C84.9238,49.5771 85.5878,48.1791 86.3248,46.4041" id="Fill-19" fill="#EDEEF0" mask="url(#mask-2)"></path>
            <polygon id="Fill-20" fill="#EDEEF0" mask="url(#mask-2)" points="83.4957 41.9055 82.5537 44.6175 81.6147 47.3325 79.7357 45.1605 77.8547 42.9895 80.6757 42.4475"></polygon>
            <path d="M84.4566,50.0965 L87.9026,45.9045 C87.9026,45.9045 88.4416,45.1195 86.9246,42.6895 C85.4066,40.2595 84.4126,39.8395 84.4126,39.8395 L83.0446,39.4055 L82.4606,40.7785 L84.7996,43.0595 L82.8146,44.0015 L81.5096,46.0335 L81.9916,46.6535 L81.9706,46.7165 C81.9706,46.7165 82.8446,45.6915 83.7986,45.8555 C84.7546,46.0215 84.6076,47.0515 83.7626,47.3775 C82.9166,47.7035 82.7766,47.9595 82.7766,47.9595 L82.8416,49.3475 L84.4566,50.0965 Z" id="Fill-21" fill="#194866" mask="url(#mask-2)"></path>
            <polygon id="Fill-22" fill="#B0BFDE" mask="url(#mask-2)" points="79.4043 51.3225 78.5543 52.4275 76.4303 53.2845 75.9693 51.0255 77.6333 49.8165"></polygon>
            <polygon id="Fill-23" fill="#B0BFDE" mask="url(#mask-2)" points="83.6832 52.9998 83.4992 54.7638 79.6402 55.0198 78.5552 52.4278 79.4042 51.3228"></polygon>
            <path d="M81.3931,74.6736 C81.3931,74.6736 79.7791,74.5156 77.6471,74.3386 C78.7511,78.0796 78.0231,79.6376 77.3211,81.8246 C76.5221,84.3206 77.1101,87.2516 77.1101,87.2516 L81.5101,84.6346 L81.3931,74.6736 Z" id="Fill-24" fill="#163F59" mask="url(#mask-2)"></path>
            <polygon id="Fill-25" fill="#AD5C49" mask="url(#mask-2)" points="81.1451 75.5413 65.1121 73.6463 65.2761 72.2623 81.3091 74.1573"></polygon>
            <polygon id="Fill-26" fill="#163F59" mask="url(#mask-2)" points="67.1387 74.1648 66.5617 74.0968 66.7807 72.2428 67.3577 72.3108"></polygon>
            <polygon id="Fill-27" fill="#163F59" mask="url(#mask-2)" points="72.3638 74.782 71.7878 74.714 72.0068 72.86 72.5838 72.928"></polygon>
            <polygon id="Fill-28" fill="#163F59" mask="url(#mask-2)" points="78.8814 75.5515 78.3034 75.4835 78.5234 73.6295 79.1004 73.6975"></polygon>
            <path d="M88.7159,57.428 L83.4989,54.763 C83.4989,54.763 76.6169,63.524 78.4179,69.758 C80.0599,75.442 79.4679,77.158 78.6689,79.912 C77.8689,82.669 78.4579,85.905 78.4579,85.905 L85.8579,81.044 C85.8579,81.044 87.1319,79.387 86.6639,77.709 C86.1949,76.03 84.5929,72.015 85.5079,67.588 C86.4199,63.162 87.8949,58.115 88.7159,57.428" id="Fill-29" fill="#194866" mask="url(#mask-2)"></path>
            <path d="M86.7085,56.4968 L84.6415,60.3288 L82.2105,61.3928 L82.8565,63.7928 C82.8565,63.7928 80.0535,64.9368 79.5235,72.5118 C79.5035,72.8078 76.1355,66.6508 80.7245,59.5158 C82.2945,57.0738 83.4995,54.7638 83.4995,54.7638 L86.7085,56.4968 Z" id="Fill-30" fill="#163F59" mask="url(#mask-2)"></path>
            <path d="M63.7603,80.0769 C63.7603,80.0769 68.0983,62.4359 69.2663,59.9369 C70.3503,57.6119 75.9693,51.0259 75.9693,51.0259 L70.6793,48.9619 C70.6793,48.9619 64.8823,56.7799 64.7833,59.1949 C64.7553,59.9229 64.1053,65.2649 63.9533,67.4569 C63.8693,68.6599 61.3363,74.9889 61.9773,76.0819 C62.7033,77.3269 64.0683,80.2609 63.7603,80.0769" id="Fill-31" fill="#194866" mask="url(#mask-2)"></path>
            <path d="M67.9351,62.4299 C67.9351,62.4299 68.9331,60.5599 70.8941,57.8189 C72.8551,55.0779 75.9701,51.0259 75.9701,51.0259 L72.5911,49.8929 L70.0711,52.7909 L71.0551,53.9879 L68.6901,55.5389 C68.6901,55.5389 68.0201,59.2709 67.9351,62.4299" id="Fill-32" fill="#163F59" mask="url(#mask-2)"></path>
            <path d="M40.3003,0.0003 C20.3423,0.0003 4.0993,16.2403 4.0993,36.1953 C4.0993,56.1573 20.3423,72.3903 40.3003,72.3903 C60.2573,72.3903 76.4953,56.1573 76.4953,36.1953 C76.4953,16.2403 60.2573,0.0003 40.3003,0.0003" id="Fill-33" fill="#35A3BF" mask="url(#mask-2)"></path>
            <path d="M41.8892,0.0393 C54.0532,5.8813 62.4742,18.3213 62.4742,32.6893 C62.4742,52.6503 46.2342,68.8863 26.2782,68.8863 C25.7452,68.8863 25.2152,68.8683 24.6822,68.8463 C29.4142,71.1183 34.7112,72.3903 40.3002,72.3903 C60.2572,72.3903 76.4952,56.1573 76.4952,36.1953 C76.4952,16.7753 61.1112,0.8763 41.8892,0.0393" id="Fill-34" fill="#2D8CA4" mask="url(#mask-2)"></path>
            <path d="M74.9273,46.0359 C74.4493,46.0479 73.8303,46.2699 73.8233,46.4329 C73.8123,46.5949 73.1553,46.8939 72.9343,46.9799 C72.7203,47.0679 72.2983,47.7379 72.2053,47.9609 C72.1143,48.1849 71.5783,48.1169 71.3763,48.2029 C71.1793,48.2949 70.7723,48.6219 70.7713,48.8199 C70.7713,49.0169 70.6563,48.9949 70.5253,48.7679 L70.2623,49.0439 L69.9533,49.3899 C69.7763,49.9449 69.1883,50.6409 68.9823,50.7089 C68.7843,50.7629 68.7453,51.7399 68.7453,52.1309 C68.7453,52.5269 68.9013,53.0129 69.0893,53.2099 L69.1263,53.5259 L69.1983,54.1449 C69.0893,54.6269 69.4493,55.0539 69.5583,55.1419 C69.6623,55.2229 70.5633,54.9809 70.9023,54.8979 C71.0463,54.8649 71.2243,54.7849 71.3893,54.6999 C72.9933,52.0209 74.2463,49.1179 75.1183,46.0549 C75.0523,46.0379 74.9863,46.0309 74.9273,46.0359" id="Fill-35" fill="#CDD5D7" mask="url(#mask-2)"></path>
            <path d="M15.1597,46.9612 C15.1107,47.0632 15.7557,47.7262 16.0107,47.9502 C16.2567,48.1772 16.7907,49.2652 16.8977,49.6192 C17.0077,49.9782 16.9437,50.5592 16.9087,50.6982 C16.8757,50.8342 17.0287,51.1382 17.0537,51.2612 C17.0767,51.3872 16.8337,52.4522 16.9277,52.8812 C17.0197,53.3092 16.4247,54.6452 16.4377,55.3052 C16.4547,55.9732 16.7527,56.8382 16.8757,56.7752 C16.9957,56.7082 17.0377,57.3742 16.8337,57.4552 C16.6337,57.5372 16.3947,58.0672 16.5107,58.0912 C16.6237,58.1172 16.5027,58.6412 16.5347,58.8482 C16.5607,59.0592 16.7397,60.4372 16.7787,60.7772 C16.8157,61.1252 17.3047,61.9592 17.4087,62.2422 C17.5137,62.5292 17.6177,63.0662 17.6587,63.1472 C17.6967,63.2322 17.7487,63.3112 17.7547,63.3182 C17.7597,63.3232 18.1577,63.4662 18.2697,63.5552 C18.3907,63.6402 19.1627,63.5842 19.4167,63.5322 C19.6687,63.4832 19.4377,63.2482 19.3217,63.1252 C19.2067,62.9972 19.1087,62.3872 18.9727,62.3212 C18.8457,62.2652 18.7887,61.4842 18.9037,61.3122 C19.0197,61.1402 19.4797,60.8682 19.5347,60.7192 C19.5817,60.5752 19.5957,59.8942 19.4747,59.8012 C19.3487,59.7112 19.5097,58.8872 19.4167,58.4782 C19.3217,58.0702 20.1267,57.6982 20.1727,57.3712 C20.2197,57.0442 21.0897,56.7002 21.2867,56.5362 C21.4837,56.3732 21.6527,55.4462 21.5637,55.2452 C21.4677,55.0452 21.8807,54.8822 22.0707,54.8822 C22.2537,54.8822 22.4617,54.7512 22.5327,54.7512 C22.6067,54.7492 22.8257,54.3392 22.9447,54.2442 C23.0627,54.1482 23.3097,53.1662 23.5237,53.0072 C23.7447,52.8432 23.9207,52.2522 23.9207,52.0792 C23.9207,51.9052 24.2497,51.3872 24.3587,51.2322 C24.4667,51.0762 25.2797,50.7052 25.4297,50.6412 C25.5697,50.5852 25.7907,49.2812 25.8497,48.8122 C25.9047,48.3412 26.1457,47.7142 26.1647,47.5632 C26.1797,47.4062 26.4447,47.2752 26.4877,47.2282 C26.5397,47.1762 26.7327,46.5802 26.8587,46.4412 C26.9807,46.3062 27.4327,45.7332 27.4447,45.6062 C27.4537,45.4832 27.5187,45.1552 27.5917,44.8842 L27.5917,44.5632 L27.5987,44.0572 C27.4537,43.6612 27.0187,43.1722 26.9077,43.2802 C26.7957,43.3872 26.2917,42.9302 26.0367,42.8352 C25.7787,42.7402 25.1397,42.6592 24.9787,42.6592 C24.8147,42.6592 24.2557,42.2012 24.0047,42.1242 C23.7567,42.0462 23.1147,41.9192 22.9967,41.8462 C22.8827,41.7722 22.7237,40.8192 22.2097,40.5092 C21.6947,40.1952 20.7887,39.4732 20.6897,39.2072 C20.5937,38.9412 19.6017,38.3792 19.2947,38.2112 C18.9917,38.0442 18.5267,38.0032 18.4727,38.0672 C18.4137,38.1242 18.0277,37.5502 17.8367,37.3852 C17.6387,37.2252 17.0467,37.0902 17.0197,37.2342 C16.9907,37.3842 16.5977,37.3072 16.5027,37.1822 C16.4147,37.0572 16.1077,37.2312 15.9647,37.2782 C15.8207,37.3232 15.3287,38.0752 15.1047,38.2592 C14.8757,38.4352 14.6047,38.0882 14.4577,38.0232 C14.3087,37.9602 13.7427,38.1382 13.5867,38.2482 C13.4327,38.3542 13.0747,37.4482 13.1577,37.0332 C13.2397,36.6162 12.7827,35.7892 12.4307,35.7672 C12.0787,35.7472 11.9677,34.8762 12.0377,34.5532 C12.1097,34.2342 11.4027,34.0312 11.2257,34.0102 C11.0497,33.9852 10.6077,34.4402 10.5347,34.6572 C10.4567,34.8742 8.8547,34.3622 9.0457,33.3992 C9.2307,32.4402 9.9907,31.4522 10.1817,31.3282 C10.3707,31.2122 11.3997,31.1512 11.6267,31.2832 C11.8547,31.4192 12.0607,31.2802 12.0977,31.2242 C12.1377,31.1622 12.9767,31.2312 13.2277,31.3382 C13.4777,31.4372 13.8387,32.4092 14.0937,32.5262 C14.3577,32.6462 14.4507,31.8992 14.4957,31.7182 C14.5347,31.5362 14.3677,31.0732 14.3077,30.9442 C14.2427,30.8142 14.7227,29.6402 15.1167,29.4412 C15.5077,29.2382 15.9217,28.5852 15.8877,28.4682 C15.8517,28.3542 16.2007,28.2632 16.2957,28.2122 C16.3907,28.1682 16.2787,27.2172 16.4357,27.0092 C16.5927,26.8012 17.3277,26.3652 17.5617,26.2682 C17.7917,26.1712 17.9687,25.5702 17.8877,25.4642 C17.8017,25.3592 18.4907,24.7712 18.8457,24.6592 C19.2007,24.5492 19.5097,24.8642 19.4237,24.9112 C19.4927,24.8762 19.9847,24.6202 20.1987,24.4822 C20.4407,24.3192 20.1997,23.8782 20.0417,23.7412 C19.8857,23.6172 19.9807,23.0962 20.1677,23.0512 C20.3587,23.0042 20.5227,22.5582 20.4737,22.4612 C20.4237,22.3652 21.2627,22.5392 21.5787,22.3002 C21.8897,22.0652 21.6707,22.8692 21.4347,23.1972 C21.2037,23.5172 21.6067,23.8212 21.7557,23.7612 C21.9067,23.7002 22.0637,23.9352 22.0957,24.0222 C22.1227,24.1112 22.4497,23.9322 22.6567,24.0202 C22.8657,24.1112 22.9927,23.7332 23.0107,23.5602 C23.0257,23.3832 22.5057,23.0172 22.4277,22.8062 C22.3447,22.5962 22.3117,21.3722 22.2987,21.1172 C22.2887,20.8652 21.9497,20.4562 21.8397,20.5332 C21.7307,20.6002 21.5117,19.8802 21.3377,19.7212 C21.1637,19.5652 21.1227,19.2182 21.1297,19.1022 C21.1377,18.9852 20.5347,18.3562 20.3917,18.0652 C20.2457,17.7762 20.0447,17.8352 20.0347,17.9652 C20.0157,18.1002 19.6017,18.1202 19.4267,18.1002 C19.2547,18.0862 19.1157,17.4212 19.1157,17.1702 C19.1157,16.9232 18.3357,16.8802 18.2107,16.6762 C18.0847,16.4762 17.5787,16.5692 17.4967,16.4332 C17.4167,16.2922 16.9687,16.1632 16.8847,16.2132 C16.7907,16.2642 16.8337,18.0652 16.7527,18.5502 C16.6617,19.0352 16.2547,19.4642 16.1007,19.4512 C15.9517,19.4422 16.0407,19.7992 16.1467,19.7672 C16.2497,19.7332 15.8517,20.2972 15.8017,20.6672 C15.7487,21.0342 15.3727,20.6492 15.3137,20.3162 C15.2517,19.9792 14.8877,19.5282 14.8207,19.6412 C14.7487,19.7582 14.4977,19.5062 14.3867,19.5762 C14.2777,19.6492 13.5867,19.1732 13.3047,19.0202 C13.0307,18.8762 12.8707,18.0162 12.7097,17.9392 C12.5507,17.8662 12.6867,17.7592 12.6827,17.6312 C12.6747,17.5032 13.2227,17.0052 13.3877,16.8082 C13.5497,16.6112 14.1497,15.8282 14.3867,15.6622 C14.6257,15.4952 14.8067,15.0492 14.7697,14.9652 C14.7297,14.8842 15.7827,14.5532 16.0707,14.4542 C16.3577,14.3562 16.6067,13.5592 16.6417,13.3282 C16.6857,13.1022 16.4647,12.6642 16.3317,12.6062 C16.2007,12.5532 16.7297,12.5342 16.9077,12.6242 C17.0867,12.7072 17.6287,12.4582 17.8467,12.5752 C18.0597,12.6862 18.4977,12.9432 18.8097,13.1472 L18.7407,13.7312 L18.6127,14.7232 C17.7797,15.0692 17.5407,15.6682 17.8317,15.6522 C18.1227,15.6412 19.4567,16.2332 19.8327,16.5012 C20.2047,16.7702 20.3257,16.1092 20.4337,15.8922 C20.5467,15.6722 20.5097,15.0372 20.4237,14.9092 C20.3307,14.7832 20.8547,14.8292 20.9997,14.9702 C21.1527,15.1092 21.3227,14.8242 21.4387,14.7722 C21.5537,14.7202 21.6067,14.1762 21.6707,14.0652 C21.7297,13.9562 21.4167,13.8412 21.4127,13.7082 C21.4007,13.5682 20.8027,13.3102 20.6107,13.2182 C20.4107,13.1242 20.3647,12.7112 20.4657,12.6432 C20.5567,12.5692 20.3977,12.0432 20.2997,11.8702 C20.2117,11.6962 19.5817,11.5532 19.3737,11.5532 C19.1667,11.5532 18.9517,11.0662 18.8327,11.0012 C18.7127,10.9352 17.9117,10.8442 17.7127,10.9042 C17.5137,10.9602 17.1517,10.3352 16.8157,10.5242 C16.4817,10.7152 16.1347,10.3022 15.9847,10.2182 C15.8297,10.1362 15.0507,10.9792 15.0547,11.5672 C15.0647,12.1602 15.3607,12.7322 15.4847,12.7492 C15.6067,12.7662 15.4557,13.2992 15.3197,13.4542 C15.1867,13.6022 14.8547,13.2922 14.9797,13.1572 C15.1027,13.0222 14.6397,12.4062 14.4787,12.1532 C14.3637,11.9692 13.9557,11.8092 13.6797,11.6972 C13.5177,11.8722 13.3617,12.0532 13.2067,12.2322 C13.2667,12.4482 13.3387,12.7272 13.2667,12.9392 C13.1507,13.2992 12.8507,13.3522 12.8287,13.2012 C12.8227,13.1282 12.6697,13.0762 12.4917,13.0532 C8.1077,18.3112 5.1907,24.8282 4.3537,31.9732 C4.5277,32.1722 4.7267,32.4092 4.7777,32.5772 C4.8787,32.8952 5.4317,33.1012 5.5357,33.1692 C5.6367,33.2302 5.6747,32.5592 5.5997,32.3862 C5.5277,32.2122 5.7357,32.1062 5.7307,32.2332 C5.7257,32.3632 6.2487,32.9582 6.4197,33.1692 C6.5907,33.3822 6.7707,34.7612 6.9367,35.0562 C7.1007,35.3572 8.6967,35.9692 9.2097,36.0782 C9.7227,36.1842 10.3707,36.7592 10.4707,36.9242 C10.5697,37.0902 11.2517,37.1732 11.3967,37.2402 C11.5467,37.3082 11.8937,37.7702 12.0377,37.8662 C12.1827,37.9642 12.2957,38.2392 12.2957,38.3112 C12.2957,38.3832 13.1967,38.7222 13.4177,38.9672 C13.6347,39.2052 13.9957,39.1382 14.0617,39.0372 C14.1297,38.9372 14.3087,39.5172 14.4047,39.7132 C14.4957,39.9172 14.5157,40.4072 14.4467,40.4872 C14.3747,40.5622 14.2457,41.4682 14.0937,41.6502 C13.9397,41.8312 13.6237,43.1452 13.6897,43.4062 C13.7577,43.6692 14.1797,44.2052 14.3637,44.2872 C14.5487,44.3632 14.4687,44.6432 14.3257,44.6642 C14.1797,44.6822 14.2497,45.9382 14.5887,46.1242 C14.9227,46.3102 15.2087,46.8682 15.1597,46.9612" id="Fill-36" fill="#CDD5D7" mask="url(#mask-2)"></path>
            <path d="M19.4185,24.9163 L19.4235,24.9113 C19.4115,24.9213 19.4055,24.9233 19.4185,24.9163" id="Fill-37" fill="#CDD5D7" mask="url(#mask-2)"></path>
            <path d="M16.9478,9.6482 C17.3818,9.5752 18.0998,9.4562 18.1478,9.3332 C18.1858,9.2352 18.1888,8.9362 18.1098,8.8322 C18.1768,8.8362 18.2578,8.8402 18.3198,8.8402 C18.4828,8.8402 18.7578,7.9382 18.9308,7.7302 C19.1028,7.5182 20.0938,7.2082 20.3308,7.0672 C20.5668,6.9222 21.0808,6.4232 21.2818,6.3672 C21.4798,6.3072 21.7718,5.8412 21.7228,5.7492 C21.6818,5.6582 22.3958,5.2262 22.6688,5.1132 C22.9378,4.9952 23.0798,4.6772 22.9758,4.6602 C22.9108,4.6582 21.4008,5.4482 20.0158,6.2322 C18.4338,7.3032 16.9518,8.5072 15.5638,9.8042 C15.9958,9.7762 16.6618,9.6952 16.9478,9.6482" id="Fill-38" fill="#CDD5D7" mask="url(#mask-2)"></path>
            <path d="M43.1275,54.7 C43.5895,54.425 44.3735,53.262 44.6345,53.021 C44.8925,52.775 45.0785,51.894 45.1375,51.699 C45.1885,51.511 45.5815,51.197 45.7285,51.155 C45.8745,51.112 46.3405,49.162 46.7535,48.735 C47.1675,48.309 47.6495,46.244 47.6015,45.503 C47.5485,44.763 47.8645,43.346 47.9625,43.006 C48.0605,42.671 48.5785,42.064 48.7405,41.942 C48.8995,41.813 49.8945,40.342 50.2125,39.813 C50.5305,39.283 50.8355,38.124 50.7755,37.856 C50.7145,37.581 50.0205,37.397 49.8945,37.526 C49.7655,37.661 49.1105,37.771 48.9065,37.771 C48.6905,37.771 48.2155,36.655 47.9195,36.426 C47.6235,36.196 47.3575,34.916 47.1875,34.675 C47.0155,34.432 46.5345,33.82 46.3905,33.68 C46.2415,33.538 46.2125,32.86 46.1795,32.675 C46.1455,32.49 46.4685,32.796 46.5245,33.064 C46.5815,33.334 47.3435,34.426 47.5805,34.794 C47.8195,35.162 48.4465,36.33 48.6035,36.695 C48.7705,37.06 50.1535,36.875 50.6065,36.663 C51.0595,36.45 51.6235,36.088 51.6425,35.964 C51.6655,35.837 52.3815,35.507 52.5835,35.346 C52.7815,35.185 52.9615,34.348 53.0875,34.216 C53.2205,34.077 52.9865,33.283 52.8355,33.043 C52.6865,32.805 51.9655,32.617 51.8185,32.708 C51.6705,32.805 51.3605,32.179 51.2475,31.944 C51.1405,31.71 50.5885,31.428 50.5275,31.27 C50.4695,31.111 50.6745,30.863 50.7645,30.808 C50.8495,30.754 51.8665,31.467 52.1635,31.824 C52.4525,32.179 52.7865,32.833 52.8455,32.945 C52.8965,33.057 53.7025,33.118 53.8825,32.983 C54.0615,32.851 54.2695,32.888 54.3375,33.057 L54.5905,33.014 L55.4725,32.878 C55.8895,33.331 56.0105,33.72 56.0005,33.812 C55.9895,33.897 56.2565,34.266 56.4235,34.303 C56.5945,34.346 56.7195,34.92 56.7705,35.063 C56.8255,35.205 57.3275,36.072 57.4315,36.435 C57.5385,36.798 57.9635,37.506 58.0625,37.693 C58.1695,37.888 58.2535,38.435 58.2535,38.586 C58.2535,38.735 58.5745,39.034 58.7735,39.019 C58.9705,39.005 59.3785,37.737 59.4745,37.27 C59.5665,36.801 59.8945,36.412 59.9815,36.412 C60.0765,36.412 60.1495,36.151 60.1495,36.049 C60.1495,35.951 60.6605,35.963 60.7055,35.83 C60.7495,35.702 60.9005,34.867 61.0825,34.743 C61.2655,34.616 61.9115,34.192 62.1395,34.113 C62.3675,34.033 62.9455,34.533 63.0765,34.768 C63.2035,34.999 63.3215,35.595 63.2715,35.69 C63.2235,35.789 63.5765,36.3 63.8875,36.292 C64.1945,36.283 64.2935,36.685 64.2985,36.829 C64.3125,36.975 64.7195,37.386 64.8025,37.572 C64.8825,37.757 64.8575,38.261 64.8025,38.373 C64.7485,38.49 64.7855,39.148 64.8485,39.338 C64.9035,39.521 65.8505,40.483 66.2105,40.775 C66.5635,41.064 66.7345,40.18 66.5505,39.902 C66.3685,39.626 65.7465,38.987 65.6055,38.795 C65.4565,38.602 65.4345,37.833 65.4875,37.618 C65.5405,37.401 66.0305,37.737 66.2315,37.893 C66.4355,38.047 66.7015,38.395 66.7095,38.51 C66.7165,38.629 67.9895,37.912 68.0295,37.141 C68.0795,36.365 68.5005,35.494 68.5395,35.29 C68.5855,35.083 68.4175,34.805 68.3095,34.799 C68.2015,34.788 68.4975,34.208 68.8565,34.216 C69.2125,34.227 70.0695,33.268 70.2735,32.89 C70.4775,32.513 70.8855,32.202 70.9335,32.151 C70.9835,32.108 71.2665,31.212 71.3165,30.839 C71.3685,30.468 71.1085,29.886 71.0765,29.694 C71.0465,29.504 70.7385,29.061 70.6565,28.92 C70.5805,28.782 70.5035,28.263 70.5525,28.164 C70.6015,28.068 70.9185,27.965 70.9575,27.88 C70.9905,27.793 71.3605,27.405 71.3315,27.223 C71.3045,27.054 71.5605,27.448 71.7315,27.594 C71.8975,27.738 72.0795,28.66 72.2885,28.759 C72.4965,28.862 73.3395,27.782 73.2385,27.088 C73.1375,26.389 73.4835,25.497 73.6875,25.417 C73.8405,25.356 74.2375,24.793 74.5035,24.391 C72.6515,19.027 69.5695,14.226 65.5935,10.337 C65.5475,10.343 65.4995,10.343 65.4555,10.335 L65.1465,10.27 C64.6275,10.158 64.3255,9.6 64.4135,9.473 C64.4395,9.432 64.4345,9.341 64.4105,9.23 C64.1195,8.969 63.8225,8.714 63.5245,8.461 C63.2775,8.455 63.0185,8.461 62.8685,8.455 C62.5545,8.442 61.8825,8.22 61.7615,8.099 C61.6395,7.98 61.2345,8.208 61.2095,8.431 C61.1835,8.657 60.4755,8.761 60.4075,8.93 C60.3345,9.104 59.9725,9.117 59.9015,9.018 C59.8305,8.921 59.1725,9.249 58.8455,9.299 C58.5185,9.345 57.9135,9.61 57.7625,9.673 C57.6205,9.736 57.2725,10.075 57.2155,10.218 C57.1625,10.36 56.7425,10.596 56.6075,10.648 C56.4685,10.7 56.5005,11.31 56.6725,11.398 C56.8445,11.483 56.3515,11.326 56.1325,11.213 C55.9085,11.102 55.6675,11.471 55.5995,11.601 C55.5275,11.727 55.3295,11.523 55.3385,11.34 C55.3465,11.159 54.7955,11.012 54.7225,11.159 C54.6485,11.302 54.2695,11.109 54.1125,11.03 C53.9545,10.945 53.2705,11.655 53.0215,11.908 C52.7675,12.164 51.5585,12.359 51.3345,12.262 C51.1065,12.17 50.8845,12.804 51.0805,12.843 C51.2705,12.88 50.5885,12.809 50.2125,12.848 C49.8385,12.88 48.7435,13.319 48.4855,13.511 C48.2265,13.708 48.0155,13.47 48.0155,13.321 C48.0155,13.173 47.6015,13.037 47.4755,12.992 C47.3565,12.951 47.1125,13.808 46.8985,13.973 C46.6795,14.139 46.4195,13.304 45.9065,13.166 C45.3995,13.028 44.6055,12.537 44.3775,12.479 C44.1515,12.417 43.6985,11.944 43.5685,11.809 C43.4445,11.667 42.7895,11.554 42.5815,11.554 C42.3725,11.554 41.6985,11.942 41.5185,12.095 C41.3355,12.246 41.0625,12.216 40.9745,12.273 C40.8825,12.325 40.1225,13.068 39.8265,13.306 C39.5295,13.539 39.0125,14.549 38.8465,14.788 C38.6765,15.025 38.4315,15.069 38.3355,15.077 C38.2375,15.084 38.1555,15.35 38.1555,15.449 C38.1555,15.549 37.2805,16.005 37.1885,16.401 C37.0955,16.799 37.2745,17.706 37.2745,18.032 C37.2745,18.353 37.5945,18.994 37.8395,19.004 C38.0825,19.014 37.9565,19.553 37.8955,19.7 C37.8295,19.855 38.0465,20.02 38.0355,20.149 C38.0335,20.274 37.4225,20.455 37.2345,20.529 C37.0485,20.596 36.7435,21.022 36.7035,21.181 C36.6715,21.318 36.0865,21.416 35.8945,21.603 C35.9415,21.468 36.0065,21.281 36.0545,21.181 C36.1695,20.966 36.0165,20.596 35.9235,20.521 C35.8345,20.444 35.7905,19.391 35.6435,19.165 C35.4955,18.939 35.1275,18.558 35.0355,18.483 C34.9445,18.413 35.0955,18.135 35.1505,18.014 C35.1985,17.9 34.6605,17.829 34.5125,17.921 C34.3605,18.004 34.2815,19.044 34.2205,19.33 C34.1575,19.614 34.4895,20.052 34.5795,20.072 C34.6715,20.096 34.6425,20.61 34.4555,20.625 C34.2635,20.641 34.0855,21.394 34.1835,21.562 C34.2815,21.734 34.0495,22.07 33.9355,22.149 C33.8205,22.225 34.6715,22.179 35.0565,22.169 C35.4405,22.159 35.7395,22.331 35.7005,22.366 C35.6625,22.397 34.9605,22.499 34.8375,22.664 C34.7165,22.83 34.2385,23.149 34.1485,23.275 C34.0545,23.403 34.3045,23.686 34.5065,23.673 C34.7045,23.658 34.9355,24.367 35.0915,24.493 C35.2445,24.625 35.1885,24.992 35.1245,25.093 C35.0535,25.19 34.1095,25.021 33.7505,25.114 C33.3935,25.204 32.9405,25.959 32.9085,26.243 C32.8775,26.534 32.9665,27.353 33.0185,27.583 C33.0565,27.806 33.8085,27.946 33.9585,28.059 C34.1155,28.169 34.8335,28.064 34.9825,28.133 C35.1275,28.202 35.6115,27.405 35.7105,27.033 C35.8015,26.662 36.5705,25.984 36.7305,25.729 C36.8895,25.48 37.7115,25.509 37.9105,25.377 C38.1155,25.248 38.0055,26.005 38.0995,26.416 C38.1975,26.836 38.9865,26.779 38.8705,26.391 C38.7565,26.005 38.9485,25.832 38.9795,25.974 C39.0185,26.111 39.7735,26.424 39.9185,26.644 C40.0585,26.861 40.0185,27.329 39.8535,27.321 C39.6795,27.315 39.6745,27.834 39.8565,27.891 C40.0325,27.945 40.2695,27.307 40.4585,27.213 C40.6535,27.121 40.8105,26.72 40.7145,26.694 C40.6325,26.659 40.8785,26.304 40.9885,26.421 C41.0955,26.539 40.5825,25.646 40.2595,25.322 C39.9385,24.998 40.1625,25.142 40.7675,25.645 L41.1835,26.227 C41.2645,26.331 41.3745,26.651 41.4405,26.767 L41.5405,26.938 C41.6235,27.143 41.6985,27.703 41.6985,27.852 C41.6985,28.005 42.0215,28.301 42.2185,28.288 C42.4145,28.275 42.5655,28.383 42.5295,28.393 C42.4855,28.398 42.6585,28.784 42.8565,28.791 C43.0515,28.801 43.1395,28.294 42.9385,28.28 C42.7415,28.269 42.7715,27.537 42.7465,27.217 C42.7245,26.895 42.8865,26.634 42.9555,26.634 C43.0245,26.634 42.9505,27.29 42.9525,27.443 C42.9555,27.594 43.0385,27.893 43.1305,28.104 L43.3375,28.261 L43.7945,28.612 C44.4505,28.416 45.3285,28.566 45.2965,28.7 C45.2625,28.837 45.7805,28.868 45.8095,28.652 C45.8415,28.437 45.8635,28.655 45.8635,28.808 C45.8635,28.953 45.4385,29.541 45.3675,29.81 C45.2945,30.082 43.7795,29.9 43.1285,29.846 C42.4775,29.796 41.5185,30.017 41.4405,30.216 C41.3745,30.408 40.3565,29.767 39.8875,29.569 C39.4195,29.374 39.0595,28.664 38.9615,28.573 C38.8635,28.473 39.0455,28.248 38.9995,28.11 C38.9535,27.967 37.8905,27.938 37.5815,28.054 C37.2735,28.168 35.6795,28.335 35.3025,28.501 C34.9245,28.672 34.3545,28.492 34.1755,28.46 C33.9995,28.427 33.5795,28.95 33.3645,29.045 C33.1465,29.139 32.8805,29.874 32.7625,30.686 L32.4695,31.251 L32.2845,31.613 C31.7585,32.01 31.1775,33.348 31.0035,33.617 C30.8335,33.883 30.6945,35.804 30.6945,36.455 C30.6945,37.105 31.2615,38.476 31.4185,38.854 C31.5795,39.229 32.5545,40.064 32.8815,40.267 C33.2075,40.462 34.2685,40.489 34.6165,40.487 C34.9605,40.487 35.3615,40.157 35.4955,39.756 L36.0045,39.806 L36.2405,39.833 C36.2505,40.114 37.0055,40.345 37.1885,40.442 C37.3715,40.545 37.8645,40.469 38.0155,40.425 C38.1615,40.381 38.3295,41.711 38.2195,42.095 C38.1145,42.478 38.4805,43.828 38.5875,44.232 C38.6985,44.637 39.1605,45.748 39.2055,46.147 C39.2525,46.545 38.9365,47.867 38.8835,48.331 C38.8305,48.798 39.4605,50.093 39.6305,50.543 C39.7925,50.987 39.9265,51.948 39.9265,52.166 C39.9265,52.394 40.6155,53.73 40.7705,54.284 C40.9295,54.835 42.6585,54.973 43.1275,54.7" id="Fill-39" fill="#CDD5D7" mask="url(#mask-2)"></path>
            <path d="M72.9634,38.2703 C73.0114,38.3683 73.4434,38.0203 73.7044,37.9813 C73.9654,37.9403 74.1284,37.2403 73.9254,37.1893 C73.7204,37.1343 73.4654,36.5953 73.3154,36.5313 C73.1694,36.4663 72.8794,36.7643 72.8944,36.9763 C72.9024,37.1893 72.4204,37.2753 72.3264,37.4483 C72.2414,37.6283 72.2414,37.7563 72.3424,37.7373 C72.4394,37.7193 72.9214,38.1693 72.9634,38.2703" id="Fill-40" fill="#CDD5D7" mask="url(#mask-2)"></path>
            <path d="M72.4322,42.0681 C72.5602,42.0221 72.4162,41.3301 72.1462,41.2731 C71.8752,41.2141 71.1222,42.1811 71.2662,42.7401 C71.4112,43.2941 71.5672,43.2611 71.6452,43.1431 C71.7192,43.0261 72.1702,43.2191 72.3022,43.2651 C72.4322,43.3091 72.4322,43.1721 72.3022,42.9681 C72.1702,42.7631 72.3022,42.1161 72.4322,42.0681" id="Fill-41" fill="#CDD5D7" mask="url(#mask-2)"></path>
            <path d="M70.9507,41.3928 C70.9827,41.1478 71.0307,40.3728 71.0697,40.2248 C71.1117,40.0678 70.6477,39.6238 70.4217,39.5458 C70.1987,39.4658 69.4667,41.0518 68.9407,41.3298 C68.4177,41.6118 68.2267,42.5778 68.3647,42.7988 C68.5067,43.0218 69.5977,43.1378 69.7857,43.3098 C69.9787,43.4758 70.1897,43.2798 70.3067,43.2518 C70.4217,43.2228 70.3867,43.1528 70.3417,43.1228 C70.2957,43.0938 70.7247,42.6448 70.7867,42.3558 C70.8447,42.0758 70.9187,41.6398 70.9507,41.3928" id="Fill-42" fill="#CDD5D7" mask="url(#mask-2)"></path>
            <path d="M67.9761,44.0315 C67.5651,43.8735 67.0821,44.1175 67.0471,44.2765 C67.0041,44.4335 68.6261,44.6935 69.1651,44.8365 C69.7021,44.9815 70.0371,45.0315 69.9121,44.9385 C69.7861,44.8495 68.3871,44.1855 67.9761,44.0315" id="Fill-43" fill="#CDD5D7" mask="url(#mask-2)"></path>
            <path d="M71.2608,33.4993 C71.3918,33.3203 71.0808,32.4723 70.9258,32.6643 C70.7708,32.8533 70.8798,33.3483 70.9308,33.5223 C70.9828,33.6933 71.1348,33.6803 71.2608,33.4993" id="Fill-44" fill="#CDD5D7" mask="url(#mask-2)"></path>
            <path d="M72.2413,35.3172 C72.3343,35.1012 72.1193,34.8552 71.7703,34.7842 C71.4203,34.7122 71.4743,35.7672 71.6263,35.8982 C71.7793,36.0342 72.1443,35.5372 72.2413,35.3172" id="Fill-45" fill="#CDD5D7" mask="url(#mask-2)"></path>
            <path d="M74.0616,41.8465 C74.4796,42.1365 75.4136,42.0035 75.4416,41.4355 C75.0286,41.1695 74.0236,41.2095 74.0616,41.8465" id="Fill-46" fill="#CDD5D7" mask="url(#mask-2)"></path>
            <path d="M73.8335,28.928 C73.6585,29.049 73.5685,29.36 73.6225,29.487 C73.5955,29.486 73.5745,29.484 73.5495,29.484 C73.4115,29.484 73.3945,30.037 73.5425,30.13 C73.6875,30.224 74.0395,29.699 74.2275,29.574 C74.4095,29.452 74.7815,29.372 74.8375,29.412 C74.8915,29.452 75.2165,29.355 75.5625,29.196 C75.6215,29.168 75.6925,29.075 75.7625,28.95 C75.6835,28.547 75.5865,28.148 75.4915,27.753 C75.3145,27.88 75.1185,28.017 75.0255,28.101 C74.8425,28.266 74.0615,28.773 73.8335,28.928" id="Fill-47" fill="#CDD5D7" mask="url(#mask-2)"></path>
            <path d="M64.2681,40.0393 C64.2701,40.0403 64.2721,40.0403 64.2721,40.0403 C64.2011,39.9913 64.1901,39.9843 64.2681,40.0393" id="Fill-48" fill="#CDD5D7" mask="url(#mask-2)"></path>
            <path d="M66.8746,42.4695 C66.7236,42.1265 66.2206,41.5455 65.7626,41.1785 L65.5846,40.8915 L65.3956,40.5755 C65.2206,40.2285 64.7056,39.9615 64.6596,39.8575 C64.6146,39.7555 64.4506,40.1595 64.2716,40.0415 C64.3656,40.1095 64.5586,40.2465 64.8306,40.4375 C65.3186,40.7855 66.2536,43.1425 66.4656,43.3095 C66.6786,43.4755 67.0246,42.8135 66.8746,42.4695" id="Fill-49" fill="#CDD5D7" mask="url(#mask-2)"></path>
            <path d="M59.4019,38.6599 C59.2719,38.9229 60.0919,39.4929 60.1599,39.3639 C60.2289,39.2309 60.0529,38.5789 59.9049,38.4349 C59.7589,38.2939 59.5319,38.3949 59.4019,38.6599" id="Fill-50" fill="#CDD5D7" mask="url(#mask-2)"></path>
            <path d="M48.4649,51.2527 C48.4979,51.5337 49.0689,51.7557 49.2329,51.7097 C49.3989,51.6617 49.8559,50.8167 49.9219,50.5737 C49.9869,50.3267 50.0349,49.8037 50.0349,49.6797 C50.0349,49.5557 50.1139,49.2737 50.1769,49.2387 C50.2359,49.2067 50.3449,48.9187 50.4099,48.5997 C50.4689,48.2787 50.0639,46.7967 50.0549,46.5337 C50.0469,46.2707 49.7499,46.6657 49.6749,46.9307 C49.5949,47.1947 48.8589,47.7337 48.6909,47.9587 C48.5299,48.1827 48.3469,48.9417 48.4089,49.0747 C48.4709,49.2027 48.3469,49.7197 48.2709,49.8677 C48.2009,50.0077 48.4349,50.9727 48.4649,51.2527" id="Fill-51" fill="#CDD5D7" mask="url(#mask-2)"></path>
            <path d="M21.7784,61.5423 L22.2784,61.5423 C22.3664,61.0043 21.7534,61.0963 21.7784,61.5423" id="Fill-52" fill="#CDD5D7" mask="url(#mask-2)"></path>
            <path d="M35.0474,5.5364 C34.8354,5.5604 34.2944,5.4534 34.2024,5.3534 C34.1094,5.2554 33.3014,5.1694 33.0654,5.2654 C32.8344,5.3654 32.9954,4.6974 33.3204,4.6224 C33.6444,4.5544 33.3644,4.0934 33.0254,4.0924 C32.6784,4.0894 31.8214,3.9654 31.6214,4.0074 C31.4184,4.0514 31.0304,3.8694 30.8854,3.8474 C30.7424,3.8264 29.7144,4.1564 29.2344,4.1294 C28.7484,4.1104 27.5584,4.1574 27.3024,4.2294 C27.0364,4.2984 26.8514,4.8024 26.8904,4.9824 C26.9264,5.1604 25.7374,5.1594 25.3664,5.1644 C24.9864,5.1694 22.9924,5.5934 22.4704,5.8814 C21.9494,6.1634 21.5454,6.8954 21.7154,6.9134 C21.8874,6.9234 21.4274,7.3414 21.1444,7.4364 C20.8644,7.5344 20.1994,7.5824 20.0414,7.7374 C19.8854,7.8894 20.2114,8.0014 20.2704,8.1064 C20.3314,8.2104 20.5234,8.0144 20.6984,8.1174 C20.8694,8.2134 21.4524,8.2614 21.6064,8.3224 C21.7674,8.3854 21.1134,8.5074 20.8094,8.5264 C20.5024,8.5494 20.5724,9.1464 20.8174,9.2294 C21.0704,9.3134 21.7084,9.4014 21.7754,9.2984 C21.8394,9.1934 22.5324,9.4124 22.8494,9.4484 C23.1594,9.4824 23.3984,10.2654 23.4934,10.4354 C23.5914,10.6064 23.6114,11.2034 23.5894,11.3734 C23.5664,11.5474 24.1404,11.8634 24.2454,11.7514 C24.3464,11.6454 24.3174,12.0244 24.0894,12.0024 C23.8574,11.9844 24.0044,12.6474 24.2914,12.7434 C24.5764,12.8354 24.3824,13.2464 24.2174,13.3704 C24.0544,13.4914 24.1454,13.8824 23.9754,14.0214 C23.8094,14.1614 24.5684,15.4834 24.5634,16.1634 C24.5614,16.8414 24.9854,17.3954 25.1484,17.3954 C25.3084,17.3954 25.8674,17.5334 25.9384,17.6774 C26.0164,17.8204 26.2834,17.5754 26.3874,17.4634 C26.4934,17.3534 26.7224,17.0264 26.8934,16.7404 C27.0654,16.4514 27.4474,15.0914 27.4994,14.9454 C27.5514,14.7984 28.1934,14.8904 28.3344,14.8164 C28.4784,14.7414 28.8984,14.4104 29.0164,14.3124 C29.1394,14.2144 30.0464,13.8294 30.2994,13.6494 C30.5454,13.4694 30.9604,12.6974 31.1544,12.5344 C31.3464,12.3684 31.0524,12.4174 30.8114,12.2574 C30.5714,12.0974 30.6764,11.9024 30.7474,11.8304 C30.8184,11.7514 31.5504,11.9504 31.8084,12.0504 C32.0604,12.1474 32.5424,11.8004 32.3574,11.6624 C32.1714,11.5284 32.2704,11.5314 32.3574,11.5914 C32.4494,11.6454 32.5424,11.1434 32.4444,11.0494 C32.3494,10.9524 33.1914,10.3374 33.0394,9.7584 C32.8944,9.1794 33.2744,8.5804 33.4964,8.5794 C33.7224,8.5694 33.6554,7.9224 33.3864,7.8624 C33.1184,7.8024 33.3674,7.7444 33.4704,7.6514 C33.5714,7.5594 33.7004,6.9784 33.6444,6.8684 C33.5804,6.7594 34.0544,6.6294 34.1354,6.5014 C34.2224,6.3674 34.7654,6.1074 34.9564,6.0664 C35.1424,6.0194 35.2514,5.5124 35.0474,5.5364" id="Fill-53" fill="#CDD5D7" mask="url(#mask-2)"></path>
            <path d="M39.7574,6.0095 C39.4994,5.9225 38.9794,6.2105 39.0454,6.3705 C39.1114,6.5325 38.6174,6.1605 38.2774,6.3395 C37.9294,6.5175 37.8374,7.1235 37.9924,7.2025 C38.1554,7.2825 38.2644,7.7595 38.2714,7.8515 C38.2774,7.9445 38.9364,7.8795 39.1114,7.7375 C39.2784,7.5985 39.2564,8.2265 39.0874,8.3965 C38.9194,8.5635 39.1524,8.9035 39.3334,8.9305 C39.5194,8.9585 39.7704,9.3905 39.9604,9.3905 C40.1544,9.3825 40.4764,8.6515 40.5474,8.3785 C40.6224,8.1065 41.2544,8.3225 41.5484,8.4085 C41.8354,8.4945 41.9414,7.4015 41.6284,7.2355 C41.3164,7.0715 40.9244,7.1515 40.7934,7.0305 C40.6614,6.9045 40.4424,6.7845 40.2914,6.7665 C40.1544,6.7425 40.0134,6.0955 39.7574,6.0095" id="Fill-54" fill="#CDD5D7" mask="url(#mask-2)"></path>
            <path d="M42.2867,6.533 C42.7957,6.604 43.3717,6.185 43.4957,6.067 C43.6217,5.951 42.0787,5.637 41.4947,5.616 C40.9047,5.596 40.4367,5.678 40.4417,5.793 C40.4497,5.908 41.7747,6.46 42.2867,6.533" id="Fill-55" fill="#CDD5D7" mask="url(#mask-2)"></path>
            <path d="M32.9693,20.3465 C32.8373,20.2895 32.7623,20.7965 32.7943,20.9865 C32.8233,21.1815 33.2903,21.1645 33.4913,21.1245 C33.6953,21.0965 33.8483,20.9315 33.8403,20.7645 C33.8343,20.6005 33.5503,19.8505 33.4333,19.8505 C33.3203,19.8505 33.1043,20.4025 32.9693,20.3465" id="Fill-56" fill="#CDD5D7" mask="url(#mask-2)"></path>
            <path d="M34.4834,14.4734 C34.3794,14.2874 33.5764,14.3094 33.3814,14.2954 C33.1854,14.2874 32.5854,14.0864 32.4724,13.9594 C32.3614,13.8354 32.2774,14.4524 32.0924,14.5334 C31.9074,14.6134 32.1814,14.7334 32.2574,14.6634 C32.3294,14.5994 32.2524,14.9844 32.1684,15.1174 C32.0884,15.2514 32.6994,15.3424 32.7714,15.5434 C32.8384,15.7444 33.0924,15.8724 33.3344,15.8324 C33.5794,15.7934 34.0614,15.5434 34.2334,15.5274 C34.4034,15.5094 34.5864,14.6604 34.4834,14.4734" id="Fill-57" fill="#CDD5D7" mask="url(#mask-2)"></path>
            <path d="M51.3042,9.885 C51.5802,9.607 52.7132,9.235 52.8402,8.95 C52.9712,8.666 52.7602,8.431 52.6482,8.431 C52.5322,8.431 52.3922,8.573 52.3652,8.62 C52.3402,8.666 51.0392,8.974 50.6392,9.166 C50.2362,9.356 49.7792,9.652 49.6072,9.825 C49.4432,9.995 49.1622,11.279 49.0702,11.425 C48.9732,11.573 49.5022,12.097 49.7392,12.243 C49.9702,12.385 50.2932,12.311 50.3822,12.283 C50.4742,12.256 50.2642,11.356 50.1402,11.042 C50.0142,10.73 51.0322,10.161 51.3042,9.885" id="Fill-58" fill="#CDD5D7" mask="url(#mask-2)"></path>
            <path d="M49.9126,6.5261 C50.3436,6.9521 50.5736,6.3391 51.0466,6.4001 C51.0396,5.5361 49.8726,5.8321 49.9126,6.5261" id="Fill-59" fill="#CDD5D7" mask="url(#mask-2)"></path>
            <path d="M58.2271,6.6887 C58.2141,6.8457 59.4141,6.9747 59.7591,6.9137 C60.1111,6.8517 59.6891,6.3077 59.1781,6.3387 C58.6661,6.3727 58.2431,6.5267 58.2271,6.6887" id="Fill-60" fill="#CDD5D7" mask="url(#mask-2)"></path>
            <path d="M14.9229,15.5593 C14.7969,15.6753 14.9069,16.2623 15.1469,16.2773 C15.3869,16.2943 15.7679,15.3973 16.0599,15.5723 C16.3519,15.7573 16.5509,15.8273 16.5029,15.7293 C16.4549,15.6333 15.6189,15.2703 15.5169,15.2013 C15.4139,15.1413 15.0499,15.4433 14.9229,15.5593" id="Fill-61" fill="#CDD5D7" mask="url(#mask-2)"></path>
            <path d="M17.981,35.4187 C17.981,35.5137 18.502,35.5017 18.586,35.3407 C18.67,35.1827 18.629,35.0527 18.484,35.0527 C18.348,35.0527 17.981,35.3167 17.981,35.4187" id="Fill-62" fill="#CDD5D7" mask="url(#mask-2)"></path>
            <path d="M15.6622,34.5608 C15.9122,34.5138 15.7912,34.9158 15.8522,35.0598 C15.9122,35.2058 16.5102,35.3218 16.6302,35.4188 C16.7522,35.5138 17.0572,35.2378 17.2992,35.2648 C17.5362,35.2958 17.2192,34.4398 16.8162,34.4608 C16.4172,34.4938 16.0972,34.1028 16.0042,34.0538 C15.9072,34.0098 15.4402,33.7258 15.3092,33.6208 C15.1782,33.5158 14.1602,33.4238 13.8072,33.4238 C13.4632,33.4238 13.0792,33.7738 13.0262,33.8908 C12.9712,34.0098 13.5782,34.0848 13.7522,33.9978 C13.9222,33.9058 14.7322,34.0998 14.8982,34.2938 C15.0652,34.4868 15.4092,34.6078 15.6622,34.5608" id="Fill-63" fill="#CDD5D7" mask="url(#mask-2)"></path>
            <path d="M14.5669,35.4187 C14.5669,35.5137 15.0939,35.4527 15.2199,35.4607 C15.3489,35.4607 15.3459,35.3737 15.2089,35.2647 C15.0779,35.1617 14.5669,35.3167 14.5669,35.4187" id="Fill-64" fill="#CDD5D7" mask="url(#mask-2)"></path>
            <path d="M14.9395,32.7078 C14.8035,32.6528 14.6935,32.8668 14.6935,32.9708 C14.6935,33.0738 14.7695,33.1548 14.8615,33.1548 C14.9535,33.1548 15.0785,32.7618 14.9395,32.7078" id="Fill-65" fill="#CDD5D7" mask="url(#mask-2)"></path>
            <path d="M16.0435,32.7957 C15.9995,32.6917 15.7725,32.6087 15.7045,32.6087 C15.6365,32.6087 15.5905,32.7847 15.6025,32.9947 C15.6145,33.2087 16.0915,32.8907 16.0435,32.7957" id="Fill-66" fill="#CDD5D7" mask="url(#mask-2)"></path>
            <path d="M16.8379,34.0183 C17.0499,33.9133 17.0769,33.6583 16.9519,33.6733 C16.8249,33.6853 16.5919,33.3083 16.4549,33.2523 C16.3179,33.1983 16.2059,33.4793 16.2059,33.6023 C16.2059,33.7263 16.2849,33.8123 16.3779,33.7863 C16.4709,33.7643 16.6239,34.1153 16.8379,34.0183" id="Fill-67" fill="#CDD5D7" mask="url(#mask-2)"></path>
            <path d="M75.6431,42.2835 C75.5371,42.3425 75.0051,42.4035 74.9311,42.3025 C74.8631,42.1955 74.7571,42.5185 74.6421,42.5655 C74.5331,42.6205 74.5931,42.8985 74.7641,42.8095 C74.8811,42.7515 75.3851,43.0325 75.7931,43.2895 C75.8721,42.8815 75.9451,42.4785 76.0111,42.0635 C75.8651,42.1415 75.7111,42.2505 75.6431,42.2835" id="Fill-68" fill="#CDD5D7" mask="url(#mask-2)"></path>
            <path d="M18.148,8.9129 C18.111,8.8769 17.961,8.9859 18.028,9.0539 C18.06,9.0999 18.21,8.9889 18.148,8.9129" id="Fill-69" fill="#D1ECFB" mask="url(#mask-2)"></path>
            <path d="M22.1607,20.8601 C22.1327,20.8211 21.9767,20.9311 22.0327,21.0011 C22.0707,21.0451 22.2247,20.9311 22.1607,20.8601" id="Fill-70" fill="#D1ECFB" mask="url(#mask-2)"></path>
            <path d="M26.8589,46.4412 C26.9809,46.3062 27.4329,45.7332 27.4449,45.6062 C27.4539,45.4832 27.5189,45.1552 27.5919,44.8842 L27.5919,44.5632 L27.5989,44.0572 C27.4539,43.6612 27.0189,43.1722 26.9069,43.2802 C26.7959,43.3872 26.2919,42.9302 26.0369,42.8352 C25.7789,42.7402 25.1399,42.6592 24.9789,42.6592 C24.8149,42.6592 24.2549,42.2012 24.0049,42.1242 C23.7559,42.0462 23.1149,41.9202 22.9969,41.8462 C22.8829,41.7722 22.7239,40.8192 22.2099,40.5092 C21.6949,40.1952 20.7889,39.4732 20.6899,39.2072 C20.5939,38.9412 19.6019,38.3792 19.2949,38.2112 C18.9919,38.0442 18.5269,38.0032 18.4729,38.0672 C18.4139,38.1242 18.0279,37.5502 17.8369,37.3852 C17.6389,37.2252 17.0459,37.0902 17.0199,37.2342 C16.9909,37.3842 16.5979,37.3072 16.5029,37.1822 C16.4149,37.0572 16.1079,37.2312 15.9649,37.2782 C15.8209,37.3232 15.3289,38.0752 15.1049,38.2592 C14.8759,38.4352 14.6049,38.0882 14.4579,38.0232 C14.3089,37.9602 13.7429,38.1382 13.5869,38.2482 C13.4329,38.3542 13.0739,37.4482 13.1579,37.0332 C13.2399,36.6162 12.7829,35.7892 12.4309,35.7672 C12.0789,35.7472 11.9669,34.8762 12.0379,34.5532 C12.1099,34.2342 11.4029,34.0312 11.2259,34.0102 C11.0489,33.9852 10.6079,34.4402 10.5349,34.6572 C10.4569,34.8742 8.8549,34.3622 9.0459,33.3992 C9.2309,32.4402 9.9909,31.4522 10.1819,31.3282 C10.3709,31.2122 11.3999,31.1512 11.6269,31.2832 C11.8549,31.4192 12.0609,31.2802 12.0979,31.2242 C12.1369,31.1622 12.9769,31.2312 13.2279,31.3382 C13.4779,31.4372 13.8379,32.4092 14.0939,32.5262 C14.3579,32.6462 14.4509,31.8992 14.4959,31.7182 C14.5349,31.5362 14.3679,31.0732 14.3079,30.9442 C14.2429,30.8142 14.7229,29.6402 15.1159,29.4412 C15.5069,29.2382 15.9209,28.5852 15.8879,28.4682 C15.8519,28.3542 16.2009,28.2632 16.2959,28.2122 C16.3909,28.1682 16.2789,27.2172 16.4359,27.0092 C16.5919,26.8012 17.3279,26.3652 17.5619,26.2682 C17.7919,26.1712 17.9679,25.5702 17.8869,25.4642 C17.8009,25.3592 18.4909,24.7712 18.8449,24.6592 C19.2009,24.5492 19.5089,24.8642 19.4229,24.9112 C19.4929,24.8762 19.9839,24.6202 20.1989,24.4822 C20.4409,24.3192 20.1989,23.8782 20.0419,23.7412 C19.8849,23.6172 19.9809,23.0962 20.1679,23.0512 C20.3589,23.0042 20.5229,22.5582 20.4739,22.4612 C20.4229,22.3652 21.2619,22.5392 21.5789,22.3002 C21.8899,22.0662 21.6709,22.8692 21.4349,23.1972 C21.2039,23.5172 21.6069,23.8212 21.7559,23.7612 C21.9069,23.7002 22.0639,23.9352 22.0959,24.0222 C22.1229,24.1112 22.4489,23.9322 22.6569,24.0202 C22.8659,24.1112 22.9929,23.7332 23.0099,23.5602 C23.0259,23.3832 22.5049,23.0172 22.4269,22.8062 C22.3439,22.5962 22.3119,21.3722 22.2989,21.1172 C22.2889,20.8652 21.9499,20.4562 21.8389,20.5332 C21.7309,20.6002 21.5109,19.8802 21.3379,19.7212 C21.1639,19.5652 21.1229,19.2182 21.1299,19.1022 C21.1369,18.9852 20.5339,18.3562 20.3919,18.0662 C20.2459,17.7762 20.0449,17.8352 20.0339,17.9652 C20.0159,18.1002 19.6019,18.1202 19.4269,18.1002 C19.2549,18.0862 19.1159,17.4212 19.1159,17.1702 C19.1159,16.9232 18.3359,16.8802 18.2109,16.6762 C18.0849,16.4762 17.5789,16.5692 17.4969,16.4332 C17.4169,16.2922 16.9679,16.1632 16.8849,16.2132 C16.7909,16.2642 16.8339,18.0662 16.7529,18.5502 C16.6619,19.0352 16.2549,19.4642 16.1009,19.4512 C15.9519,19.4422 16.0409,19.7992 16.1469,19.7672 C16.2499,19.7332 15.8519,20.2972 15.8009,20.6672 C15.7489,21.0342 15.3729,20.6492 15.3139,20.3162 C15.2519,19.9792 14.8879,19.5282 14.8209,19.6412 C14.7489,19.7582 14.4979,19.5062 14.3859,19.5762 C14.2779,19.6492 13.5869,19.1732 13.3049,19.0202 C13.0309,18.8762 12.8709,18.0162 12.7099,17.9392 C12.5499,17.8662 12.6869,17.7592 12.6829,17.6312 C12.6739,17.5032 13.2219,17.0052 13.3869,16.8082 C13.5489,16.6112 14.1499,15.8282 14.3859,15.6622 C14.6259,15.4952 14.8069,15.0492 14.7699,14.9652 C14.7299,14.8842 15.7829,14.5532 16.0709,14.4542 C16.3579,14.3562 16.6069,13.5592 16.6419,13.3282 C16.6859,13.1022 16.4649,12.6642 16.3319,12.6062 C16.2009,12.5532 16.7299,12.5342 16.9069,12.6242 C17.0869,12.7072 17.6289,12.4582 17.8469,12.5752 C18.0599,12.6862 18.4979,12.9432 18.8099,13.1472 L18.7409,13.7312 L18.6129,14.7232 C17.7799,15.0692 17.5409,15.6682 17.8319,15.6522 C18.1229,15.6412 19.4569,16.2332 19.8329,16.5012 C20.2049,16.7702 20.3249,16.1092 20.4339,15.8922 C20.5469,15.6722 20.5089,15.0372 20.4229,14.9092 C20.3309,14.7832 20.8549,14.8292 20.9999,14.9702 C21.1529,15.1092 21.3219,14.8242 21.4389,14.7722 C21.5529,14.7202 21.6069,14.1762 21.6709,14.0662 C21.7299,13.9562 21.4169,13.8412 21.4129,13.7082 C21.4009,13.5682 20.8029,13.3102 20.6109,13.2182 C20.4109,13.1242 20.3649,12.7122 20.4649,12.6432 C20.5569,12.5692 20.3979,12.0432 20.2989,11.8702 C20.2119,11.6962 19.5819,11.5532 19.3739,11.5532 C19.1669,11.5532 18.9519,11.0662 18.8329,11.0012 C18.7129,10.9352 17.9119,10.8442 17.7129,10.9042 C17.5139,10.9602 17.1519,10.3352 16.8159,10.5242 C16.4819,10.7152 16.1349,10.3022 15.9849,10.2182 C15.8299,10.1362 15.0499,10.9792 15.0539,11.5672 C15.0649,12.1602 15.3609,12.7322 15.4849,12.7492 C15.6069,12.7662 15.4559,13.2992 15.3199,13.4542 C15.1869,13.6022 14.8549,13.2922 14.9799,13.1572 C15.1029,13.0222 14.6399,12.4062 14.4789,12.1532 C14.3639,11.9692 13.9559,11.8092 13.6799,11.6972 C13.5179,11.8722 13.3609,12.0532 13.2069,12.2322 C13.2669,12.4482 13.3379,12.7272 13.2669,12.9392 C13.1509,13.2992 12.8509,13.3522 12.8289,13.2012 C12.8219,13.1282 12.6699,13.0762 12.4919,13.0532 C8.1079,18.3112 5.1909,24.8282 4.3539,31.9732 C4.5279,32.1722 4.7269,32.4092 4.7779,32.5772 C4.8789,32.8952 5.4319,33.1012 5.5359,33.1702 C5.6359,33.2302 5.6739,32.5592 5.5999,32.3862 C5.5269,32.2122 5.7359,32.1062 5.7309,32.2332 C5.7259,32.3632 6.2489,32.9582 6.4199,33.1702 C6.5899,33.3822 6.7709,34.7612 6.9369,35.0562 C7.1009,35.3572 8.6969,35.9692 9.2099,36.0782 C9.7229,36.1842 10.3709,36.7592 10.4709,36.9242 C10.5699,37.0902 11.2519,37.1732 11.3969,37.2402 C11.5459,37.3082 11.8939,37.7702 12.0379,37.8662 C12.1829,37.9642 12.2959,38.2392 12.2959,38.3112 C12.2959,38.3832 13.1969,38.7222 13.4179,38.9672 C13.6349,39.2052 13.9959,39.1382 14.0619,39.0372 C14.1299,38.9372 14.3089,39.5172 14.4049,39.7132 C14.4959,39.9172 14.5159,40.4072 14.4469,40.4872 C14.3749,40.5622 14.2459,41.4682 14.0939,41.6502 C13.9399,41.8312 13.6239,43.1452 13.6899,43.4062 C13.7569,43.6702 14.1799,44.2052 14.3639,44.2872 C14.5479,44.3632 14.4679,44.6432 14.3249,44.6642 C14.1799,44.6822 14.2499,45.9382 14.5879,46.1242 C14.9229,46.3102 15.2089,46.8682 15.1599,46.9612 C15.1109,47.0632 15.7549,47.7262 16.0099,47.9502 C16.2559,48.1772 16.7909,49.2652 16.8979,49.6192 C17.0069,49.9782 16.9439,50.5592 16.9089,50.6982 C16.8759,50.8342 17.0289,51.1382 17.0529,51.2612 C17.0769,51.3872 16.8339,52.4522 16.9269,52.8812 C17.0199,53.3092 16.4249,54.6452 16.4379,55.3052 C16.4549,55.9732 16.7529,56.8382 16.8759,56.7752 C16.9959,56.7082 17.0379,57.3742 16.8339,57.4552 C16.6329,57.5372 16.3949,58.0672 16.5099,58.0912 C16.6239,58.1172 16.5029,58.6412 16.5349,58.8482 C16.5609,59.0592 16.7399,60.4372 16.7779,60.7772 C16.8159,61.1252 17.3049,61.9592 17.4089,62.2422 C17.5139,62.5292 17.6169,63.0662 17.6589,63.1472 C17.6969,63.2322 17.7489,63.3112 17.7549,63.3182 C17.7589,63.3232 18.1569,63.4662 18.2699,63.5552 C18.3909,63.6402 19.1629,63.5842 19.4169,63.5322 C19.6689,63.4832 19.4379,63.2482 19.3219,63.1252 C19.2069,62.9972 19.1089,62.3872 18.9729,62.3212 C18.8449,62.2652 18.7889,61.4842 18.9039,61.3122 C19.0199,61.1402 19.4799,60.8682 19.5349,60.7192 C19.5819,60.5752 19.5959,59.8942 19.4749,59.8012 C19.3489,59.7112 19.5089,58.8872 19.4169,58.4782 C19.3219,58.0702 20.1269,57.6982 20.1719,57.3712 C20.2189,57.0452 21.0889,56.7002 21.2869,56.5362 C21.4839,56.3732 21.6529,55.4462 21.5639,55.2452 C21.4679,55.0452 21.8799,54.8822 22.0709,54.8822 C22.2539,54.8822 22.4619,54.7512 22.5329,54.7512 C22.6069,54.7492 22.8259,54.3392 22.9439,54.2442 C23.0629,54.1482 23.3099,53.1662 23.5239,53.0072 C23.7449,52.8432 23.9209,52.2522 23.9209,52.0792 C23.9209,51.9052 24.2499,51.3872 24.3589,51.2322 C24.4659,51.0762 25.2799,50.7052 25.4299,50.6412 C25.5689,50.5852 25.7909,49.2812 25.8499,48.8122 C25.9049,48.3412 26.1459,47.7142 26.1649,47.5632 C26.1789,47.4062 26.4439,47.2752 26.4869,47.2282 C26.5399,47.1762 26.7329,46.5802 26.8589,46.4412" id="Fill-71" fill="#E5E8EC" mask="url(#mask-2)"></path>
            <path d="M19.4234,24.9114 L19.4184,24.9164" id="Fill-72" fill="#E5E8EC" mask="url(#mask-2)"></path>
            <path d="M18.9312,7.7298 C19.1022,7.5178 20.0942,7.2088 20.3302,7.0678 C20.5672,6.9218 21.0802,6.4228 21.2822,6.3668 C21.4802,6.3078 21.7722,5.8418 21.7232,5.7498 C21.6822,5.6578 22.3962,5.2268 22.6682,5.1138 C22.9382,4.9958 23.0792,4.6768 22.9762,4.6598 C22.9112,4.6588 21.4012,5.4478 20.0162,6.2318 C18.4342,7.3038 16.9522,8.5068 15.5642,9.8048 C15.9952,9.7758 16.6612,9.6958 16.9482,9.6478 C17.3812,9.5758 18.0992,9.4558 18.1482,9.3328 C18.1862,9.2348 18.1892,8.9368 18.1102,8.8318 C18.1772,8.8368 18.2572,8.8408 18.3202,8.8408 C18.4832,8.8408 18.7572,7.9378 18.9312,7.7298" id="Fill-73" fill="#E5E8EC" mask="url(#mask-2)"></path>
            <path d="M55.627,11.5476 C55.62,11.5696 55.606,11.5846 55.599,11.6006 C55.528,11.7266 55.329,11.5226 55.338,11.3396 C55.347,11.1586 54.795,11.0116 54.723,11.1586 C54.649,11.3016 54.269,11.1086 54.113,11.0296 C53.954,10.9446 53.27,11.6546 53.021,11.9076 C52.768,12.1646 51.558,12.3586 51.335,12.2626 C51.106,12.1696 50.884,12.8036 51.081,12.8426 C51.27,12.8796 50.588,12.8086 50.212,12.8486 C49.839,12.8796 48.744,13.3186 48.486,13.5106 C48.226,13.7086 48.015,13.4696 48.015,13.3206 C48.015,13.1726 47.601,13.0376 47.475,12.9916 C47.356,12.9506 47.113,13.8086 46.898,13.9736 C46.679,14.1386 46.419,13.3046 45.907,13.1656 C45.4,13.0276 44.605,12.5366 44.377,12.4796 C44.152,12.4176 43.698,11.9436 43.569,11.8086 C43.445,11.6676 42.79,11.5536 42.581,11.5536 C42.373,11.5536 41.698,11.9426 41.518,12.0946 C41.335,12.2456 41.063,12.2156 40.975,12.2726 C40.882,12.3246 40.123,13.0686 39.827,13.3056 C39.529,13.5386 39.013,14.5486 38.847,14.7876 C38.676,15.0246 38.432,15.0686 38.335,15.0766 C38.238,15.0846 38.155,15.3506 38.155,15.4486 C38.155,15.5486 37.281,16.0046 37.188,16.4016 C37.096,16.7986 37.275,17.7056 37.275,18.0316 C37.275,18.3536 37.595,18.9946 37.839,19.0036 C38.083,19.0136 37.957,19.5526 37.896,19.6996 C37.83,19.8556 38.046,20.0206 38.036,20.1486 C38.034,20.2746 37.422,20.4556 37.235,20.5286 C37.048,20.5966 36.744,21.0226 36.704,21.1816 C36.672,21.3176 36.086,21.4166 35.894,21.6036 C35.942,21.4676 36.006,21.2806 36.055,21.1816 C36.169,20.9656 36.017,20.5966 35.923,20.5206 C35.834,20.4436 35.791,19.3916 35.643,19.1646 C35.495,18.9396 35.127,18.5586 35.035,18.4836 C34.945,18.4136 35.096,18.1346 35.151,18.0136 C35.199,17.9006 34.661,17.8286 34.512,17.9206 C34.361,18.0046 34.282,19.0436 34.22,19.3296 C34.157,19.6136 34.49,20.0516 34.579,20.0716 C34.671,20.0966 34.642,20.6096 34.456,20.6246 C34.264,20.6416 34.085,21.3946 34.183,21.5626 C34.282,21.7346 34.049,22.0696 33.935,22.1486 C33.821,22.2246 34.671,22.1786 35.056,22.1696 C35.44,22.1596 35.739,22.3316 35.701,22.3656 C35.662,22.3976 34.96,22.4986 34.837,22.6636 C34.717,22.8296 34.239,23.1486 34.148,23.2746 C34.055,23.4026 34.305,23.6866 34.507,23.6726 C34.705,23.6576 34.936,24.3666 35.092,24.4926 C35.244,24.6256 35.188,24.9916 35.125,25.0926 C35.053,25.1906 34.109,25.0206 33.751,25.1136 C33.393,25.2036 32.941,25.9586 32.908,26.2426 C32.877,26.5346 32.966,27.3536 33.018,27.5836 C33.056,27.8066 33.808,27.9456 33.959,28.0586 C34.116,28.1686 34.833,28.0636 34.983,28.1326 C35.127,28.2016 35.612,27.4046 35.71,27.0336 C35.802,26.6616 36.571,25.9836 36.73,25.7296 C36.889,25.4806 37.711,25.5086 37.91,25.3766 C38.116,25.2486 38.005,26.0056 38.099,26.4156 C38.198,26.8356 38.987,26.7786 38.871,26.3916 C38.756,26.0056 38.949,25.8316 38.979,25.9746 C39.019,26.1106 39.774,26.4236 39.919,26.6446 C40.059,26.8606 40.019,27.3286 39.853,27.3206 C39.679,27.3156 39.674,27.8336 39.856,27.8906 C40.032,27.9446 40.27,27.3076 40.459,27.2136 C40.654,27.1206 40.811,26.7196 40.714,26.6936 C40.632,26.6596 40.879,26.3046 40.989,26.4206 C41.096,26.5396 40.583,25.6466 40.26,25.3216 C39.938,24.9976 40.163,25.1416 40.767,25.6446 L41.183,26.2266 C41.265,26.3316 41.375,26.6516 41.441,26.7676 L41.541,26.9386 C41.624,27.1436 41.698,27.7036 41.698,27.8516 C41.698,28.0056 42.022,28.3006 42.218,28.2876 C42.415,28.2746 42.566,28.3826 42.53,28.3926 C42.485,28.3976 42.659,28.7846 42.856,28.7916 C43.052,28.8006 43.139,28.2936 42.939,28.2796 C42.742,28.2696 42.771,27.5366 42.746,27.2166 C42.724,26.8956 42.886,26.6336 42.956,26.6336 C43.025,26.6336 42.951,27.2896 42.953,27.4436 C42.956,27.5936 43.039,27.8926 43.131,28.1046 L43.337,28.2606 L43.794,28.6116 C44.45,28.4166 45.329,28.5656 45.297,28.7006 C45.263,28.8366 45.781,28.8676 45.809,28.6516 C45.841,28.4376 45.863,28.6546 45.863,28.8086 C45.863,28.9526 45.438,29.5416 45.368,29.8106 C45.294,30.0826 43.78,29.9006 43.129,29.8466 C42.478,29.7966 41.518,30.0176 41.441,30.2156 C41.375,30.4086 40.357,29.7666 39.888,29.5686 C39.419,29.3746 39.06,28.6636 38.962,28.5726 C38.863,28.4736 39.045,28.2476 38.999,28.1096 C38.954,27.9666 37.89,27.9376 37.582,28.0536 C37.273,28.1676 35.679,28.3346 35.302,28.5016 C34.924,28.6716 34.354,28.4916 34.176,28.4596 C34,28.4266 33.579,28.9496 33.365,29.0446 C33.147,29.1386 32.88,29.8736 32.762,30.6866 L32.469,31.2516 L32.285,31.6126 C31.758,32.0096 31.177,33.3486 31.003,33.6166 C30.834,33.8826 30.695,35.8046 30.695,36.4546 C30.695,37.1056 31.261,38.4766 31.419,38.8536 C31.579,39.2286 32.555,40.0646 32.881,40.2666 C33.208,40.4626 34.268,40.4886 34.617,40.4866 C34.96,40.4866 35.362,40.1566 35.495,39.7556 L36.004,39.8056 L36.241,39.8326 C36.251,40.1136 37.005,40.3446 37.188,40.4416 C37.372,40.5446 37.865,40.4686 38.015,40.4246 C38.162,40.3806 38.33,41.7116 38.22,42.0946 C38.114,42.4786 38.481,43.8276 38.588,44.2326 C38.699,44.6376 39.161,45.7476 39.205,46.1476 C39.252,46.5446 38.936,47.8666 38.883,48.3306 C38.831,48.7976 39.461,50.0926 39.63,50.5436 C39.793,50.9866 39.927,51.9476 39.927,52.1656 C39.927,52.3946 40.616,53.7296 40.771,54.2846 C40.93,54.8356 42.659,54.9726 43.127,54.6996 C43.589,54.4246 44.374,53.2616 44.634,53.0216 C44.893,52.7746 45.079,51.8946 45.137,51.6986 C45.189,51.5106 45.582,51.1966 45.728,51.1546 C45.875,51.1116 46.34,49.1616 46.753,48.7356 C47.168,48.3096 47.65,46.2436 47.601,45.5026 C47.548,44.7626 47.865,43.3456 47.962,43.0056 C48.061,42.6706 48.579,42.0636 48.741,41.9416 C48.899,41.8136 49.894,40.3416 50.212,39.8136 C50.531,39.2826 50.835,38.1236 50.775,37.8566 C50.714,37.5806 50.02,37.3966 49.894,37.5256 C49.765,37.6606 49.11,37.7716 48.906,37.7716 C48.691,37.7716 48.216,36.6546 47.919,36.4256 C47.624,36.1956 47.358,34.9166 47.187,34.6746 C47.015,34.4326 46.535,33.8196 46.39,33.6806 C46.241,33.5386 46.213,32.8596 46.179,32.6746 C46.145,32.4896 46.469,32.7956 46.525,33.0646 C46.582,33.3336 47.343,34.4256 47.581,34.7936 C47.82,35.1616 48.446,36.3306 48.603,36.6946 C48.77,37.0606 50.154,36.8746 50.607,36.6626 C51.059,36.4496 51.623,36.0876 51.643,35.9636 C51.666,35.8366 52.382,35.5066 52.583,35.3456 C52.782,35.1846 52.961,34.3486 53.087,34.2156 C53.22,34.0766 52.987,33.2826 52.836,33.0436 C52.686,32.8046 51.965,32.6166 51.819,32.7076 C51.67,32.8046 51.361,32.1786 51.248,31.9436 C51.14,31.7106 50.588,31.4276 50.528,31.2696 C50.469,31.1106 50.674,30.8626 50.764,30.8086 C50.849,30.7546 51.867,31.4666 52.164,31.8236 C52.452,32.1786 52.787,32.8326 52.846,32.9446 C52.896,33.0576 53.703,33.1176 53.882,32.9836 C54.061,32.8516 54.269,32.8886 54.337,33.0576 L54.59,33.0136 L55.473,32.8776 C55.889,33.3306 56.011,33.7196 56.001,33.8126 C55.99,33.8966 56.256,34.2666 56.423,34.3026 C56.594,34.3456 56.719,34.9206 56.771,35.0636 C56.826,35.2056 57.328,36.0716 57.431,36.4346 C57.539,36.7976 57.963,37.5056 58.062,37.6936 C58.169,37.8886 58.253,38.4356 58.253,38.5856 C58.253,38.7346 58.575,39.0346 58.774,39.0186 C58.971,39.0046 59.378,37.7366 59.474,37.2706 C59.567,36.8006 59.894,36.4126 59.981,36.4126 C60.077,36.4126 60.149,36.1516 60.149,36.0486 C60.149,35.9506 60.661,35.9636 60.706,35.8296 C60.749,35.7016 60.901,34.8666 61.083,34.7426 C61.265,34.6156 61.912,34.1916 62.139,34.1126 C62.213,34.0856 62.322,34.1256 62.437,34.1886 C62.457,33.6906 62.474,33.1936 62.474,32.6896 C62.474,24.8026 59.929,17.4996 55.627,11.5476" id="Fill-74" fill="#E5E8EC" mask="url(#mask-2)"></path>
            <path d="M60.1597,39.364 C60.2287,39.231 60.0537,38.579 59.9047,38.435 C59.7597,38.294 59.5317,38.395 59.4017,38.66 C59.2717,38.923 60.0927,39.492 60.1597,39.364" id="Fill-75" fill="#E5E8EC" mask="url(#mask-2)"></path>
            <path d="M48.4649,51.2527 C48.4979,51.5337 49.0689,51.7557 49.2329,51.7097 C49.3989,51.6617 49.8559,50.8167 49.9219,50.5737 C49.9869,50.3267 50.0349,49.8037 50.0349,49.6797 C50.0349,49.5557 50.1139,49.2737 50.1769,49.2387 C50.2359,49.2067 50.3449,48.9187 50.4099,48.5997 C50.4689,48.2787 50.0639,46.7967 50.0549,46.5337 C50.0469,46.2707 49.7499,46.6657 49.6749,46.9307 C49.5949,47.1947 48.8589,47.7337 48.6909,47.9587 C48.5299,48.1827 48.3469,48.9417 48.4089,49.0747 C48.4709,49.2027 48.3469,49.7197 48.2709,49.8677 C48.2009,50.0077 48.4349,50.9727 48.4649,51.2527" id="Fill-76" fill="#E5E8EC" mask="url(#mask-2)"></path>
            <path d="M21.7784,61.5423 L22.2784,61.5423 C22.3664,61.0043 21.7534,61.0963 21.7784,61.5423" id="Fill-77" fill="#E5E8EC" mask="url(#mask-2)"></path>
            <path d="M25.3663,5.1648 C24.9873,5.1688 22.9923,5.5928 22.4703,5.8808 C21.9493,6.1638 21.5453,6.8948 21.7153,6.9138 C21.8873,6.9238 21.4273,7.3418 21.1443,7.4358 C20.8653,7.5348 20.1993,7.5828 20.0413,7.7368 C19.8853,7.8898 20.2113,8.0008 20.2703,8.1068 C20.3313,8.2108 20.5233,8.0148 20.6993,8.1168 C20.8693,8.2128 21.4523,8.2608 21.6063,8.3218 C21.7673,8.3848 21.1133,8.5068 20.8093,8.5258 C20.5023,8.5498 20.5733,9.1458 20.8173,9.2298 C21.0713,9.3128 21.7083,9.4018 21.7753,9.2988 C21.8393,9.1938 22.5333,9.4128 22.8493,9.4478 C23.1593,9.4828 23.3983,10.2658 23.4933,10.4358 C23.5913,10.6058 23.6123,11.2038 23.5893,11.3738 C23.5663,11.5478 24.1403,11.8628 24.2453,11.7508 C24.3463,11.6448 24.3173,12.0238 24.0903,12.0018 C23.8573,11.9848 24.0043,12.6468 24.2913,12.7438 C24.5763,12.8358 24.3823,13.2468 24.2173,13.3708 C24.0543,13.4908 24.1453,13.8828 23.9753,14.0208 C23.8093,14.1618 24.5693,15.4828 24.5633,16.1638 C24.5613,16.8418 24.9863,17.3958 25.1483,17.3958 C25.3083,17.3958 25.8673,17.5328 25.9383,17.6778 C26.0163,17.8198 26.2833,17.5748 26.3873,17.4628 C26.4933,17.3528 26.7223,17.0268 26.8933,16.7398 C27.0653,16.4518 27.4473,15.0918 27.4993,14.9448 C27.5513,14.7978 28.1933,14.8898 28.3343,14.8158 C28.4783,14.7418 28.8983,14.4108 29.0163,14.3128 C29.1393,14.2138 30.0463,13.8298 30.3003,13.6498 C30.5453,13.4698 30.9603,12.6978 31.1543,12.5348 C31.3463,12.3678 31.0523,12.4168 30.8113,12.2568 C30.5723,12.0968 30.6763,11.9018 30.7473,11.8308 C30.8193,11.7508 31.5503,11.9498 31.8083,12.0498 C32.0603,12.1468 32.5423,11.8008 32.3573,11.6628 C32.1713,11.5278 32.2703,11.5318 32.3573,11.5908 C32.4493,11.6448 32.5423,11.1438 32.4443,11.0488 C32.3493,10.9518 33.1913,10.3368 33.0393,9.7578 C32.8943,9.1798 33.2743,8.5808 33.4963,8.5798 C33.7223,8.5698 33.6563,7.9218 33.3863,7.8628 C33.1183,7.8028 33.3673,7.7448 33.4703,7.6508 C33.5723,7.5598 33.7003,6.9778 33.6443,6.8678 C33.5803,6.7598 34.0543,6.6298 34.1353,6.5018 C34.2223,6.3668 34.7653,6.1068 34.9563,6.0668 C35.1423,6.0188 35.2513,5.5118 35.0473,5.5368 C34.8353,5.5608 34.2943,5.4528 34.2023,5.3538 C34.1093,5.2558 33.3023,5.1688 33.0653,5.2658 C32.8343,5.3648 32.9953,4.6968 33.3203,4.6228 C33.6443,4.5548 33.3653,4.0938 33.0253,4.0918 C32.6783,4.0888 31.8223,3.9648 31.6213,4.0078 C31.4183,4.0508 31.0303,3.8698 30.8853,3.8468 C30.7423,3.8268 29.7143,4.1568 29.2343,4.1288 C28.7483,4.1108 27.5583,4.1578 27.3023,4.2288 C27.0363,4.2988 26.8513,4.8018 26.8903,4.9818 C26.9273,5.1608 25.7383,5.1588 25.3663,5.1648" id="Fill-78" fill="#E5E8EC" mask="url(#mask-2)"></path>
            <path d="M39.3335,8.9304 C39.5195,8.9584 39.7705,9.3904 39.9605,9.3904 C40.1545,9.3824 40.4765,8.6514 40.5475,8.3784 C40.6225,8.1064 41.2545,8.3224 41.5485,8.4094 C41.8355,8.4944 41.9405,7.4014 41.6285,7.2354 C41.3155,7.0714 40.9235,7.1514 40.7935,7.0314 C40.6615,6.9044 40.4415,6.7844 40.2915,6.7664 C40.1545,6.7424 40.0135,6.0964 39.7575,6.0094 C39.4995,5.9224 38.9795,6.2104 39.0455,6.3704 C39.1115,6.5334 38.6175,6.1604 38.2775,6.3394 C37.9295,6.5174 37.8365,7.1234 37.9925,7.2024 C38.1555,7.2824 38.2645,7.7594 38.2715,7.8514 C38.2775,7.9444 38.9365,7.8794 39.1105,7.7374 C39.2775,7.5984 39.2565,8.2264 39.0865,8.3964 C38.9195,8.5634 39.1525,8.9034 39.3335,8.9304" id="Fill-79" fill="#E5E8EC" mask="url(#mask-2)"></path>
            <path d="M43.4957,6.0667 C43.6217,5.9507 42.0787,5.6367 41.4957,5.6157 C40.9047,5.5957 40.4367,5.6777 40.4417,5.7937 C40.4497,5.9087 41.7747,6.4597 42.2867,6.5327 C42.7957,6.6047 43.3717,6.1847 43.4957,6.0667" id="Fill-80" fill="#E5E8EC" mask="url(#mask-2)"></path>
            <path d="M32.9693,20.3465 C32.8373,20.2895 32.7623,20.7965 32.7943,20.9865 C32.8233,21.1815 33.2903,21.1645 33.4913,21.1245 C33.6953,21.0965 33.8483,20.9315 33.8403,20.7645 C33.8343,20.6005 33.5503,19.8505 33.4333,19.8505 C33.3203,19.8505 33.1043,20.4025 32.9693,20.3465" id="Fill-81" fill="#E5E8EC" mask="url(#mask-2)"></path>
            <path d="M34.4834,14.4734 C34.3794,14.2874 33.5764,14.3094 33.3814,14.2954 C33.1854,14.2874 32.5854,14.0864 32.4724,13.9594 C32.3614,13.8354 32.2774,14.4524 32.0924,14.5334 C31.9074,14.6134 32.1814,14.7334 32.2574,14.6634 C32.3294,14.5994 32.2524,14.9844 32.1684,15.1174 C32.0884,15.2514 32.6994,15.3424 32.7714,15.5434 C32.8384,15.7444 33.0924,15.8724 33.3344,15.8324 C33.5794,15.7934 34.0614,15.5434 34.2334,15.5274 C34.4034,15.5094 34.5864,14.6604 34.4834,14.4734" id="Fill-82" fill="#E5E8EC" mask="url(#mask-2)"></path>
            <path d="M49.6075,9.8255 C49.4425,9.9945 49.1625,11.2795 49.0695,11.4255 C48.9735,11.5735 49.5025,12.0965 49.7385,12.2425 C49.9705,12.3845 50.2935,12.3105 50.3815,12.2835 C50.4745,12.2565 50.2645,11.3565 50.1405,11.0415 C50.0145,10.7295 51.0315,10.1605 51.3045,9.8855 C51.5805,9.6075 52.7135,9.2355 52.8405,8.9505 C52.9705,8.6655 52.7595,8.4315 52.6485,8.4315 C52.5315,8.4315 52.3925,8.5725 52.3655,8.6195 C52.3405,8.6655 51.0395,8.9745 50.6395,9.1665 C50.2365,9.3565 49.7785,9.6525 49.6075,9.8255" id="Fill-83" fill="#E5E8EC" mask="url(#mask-2)"></path>
            <path d="M49.9126,6.5261 C50.3436,6.9521 50.5736,6.3391 51.0466,6.4001 C51.0466,6.3671 51.0376,6.3481 51.0316,6.3171 C50.8766,6.1731 50.7236,6.0191 50.5666,5.8791 C50.2456,5.8841 49.8896,6.1401 49.9126,6.5261" id="Fill-84" fill="#E5E8EC" mask="url(#mask-2)"></path>
            <path d="M14.9229,15.5593 C14.7969,15.6753 14.9069,16.2623 15.1469,16.2773 C15.3869,16.2943 15.7679,15.3973 16.0599,15.5723 C16.3519,15.7573 16.5509,15.8273 16.5029,15.7293 C16.4549,15.6333 15.6189,15.2703 15.5169,15.2013 C15.4139,15.1413 15.0499,15.4433 14.9229,15.5593" id="Fill-85" fill="#E5E8EC" mask="url(#mask-2)"></path>
            <path d="M17.981,35.4187 C17.981,35.5137 18.502,35.5017 18.586,35.3407 C18.67,35.1827 18.629,35.0527 18.484,35.0527 C18.348,35.0527 17.981,35.3167 17.981,35.4187" id="Fill-86" fill="#E5E8EC" mask="url(#mask-2)"></path>
            <path d="M15.6622,34.5608 C15.9122,34.5138 15.7912,34.9158 15.8522,35.0598 C15.9122,35.2058 16.5102,35.3218 16.6302,35.4188 C16.7522,35.5138 17.0572,35.2378 17.2992,35.2648 C17.5362,35.2958 17.2192,34.4398 16.8162,34.4608 C16.4172,34.4938 16.0972,34.1028 16.0042,34.0538 C15.9072,34.0098 15.4402,33.7258 15.3092,33.6208 C15.1782,33.5158 14.1602,33.4238 13.8072,33.4238 C13.4632,33.4238 13.0792,33.7738 13.0262,33.8908 C12.9712,34.0098 13.5782,34.0848 13.7522,33.9978 C13.9222,33.9058 14.7322,34.0998 14.8982,34.2938 C15.0652,34.4868 15.4092,34.6078 15.6622,34.5608" id="Fill-87" fill="#E5E8EC" mask="url(#mask-2)"></path>
            <path d="M14.5669,35.4187 C14.5669,35.5137 15.0939,35.4527 15.2199,35.4607 C15.3489,35.4607 15.3459,35.3737 15.2089,35.2647 C15.0779,35.1617 14.5669,35.3167 14.5669,35.4187" id="Fill-88" fill="#E5E8EC" mask="url(#mask-2)"></path>
            <path d="M14.9395,32.7078 C14.8035,32.6528 14.6935,32.8668 14.6935,32.9708 C14.6935,33.0738 14.7695,33.1548 14.8615,33.1548 C14.9535,33.1548 15.0785,32.7618 14.9395,32.7078" id="Fill-89" fill="#E5E8EC" mask="url(#mask-2)"></path>
            <path d="M16.0435,32.7957 C15.9995,32.6917 15.7725,32.6087 15.7045,32.6087 C15.6365,32.6087 15.5905,32.7847 15.6025,32.9947 C15.6145,33.2087 16.0915,32.8907 16.0435,32.7957" id="Fill-90" fill="#E5E8EC" mask="url(#mask-2)"></path>
            <path d="M16.8379,34.0183 C17.0499,33.9133 17.0769,33.6583 16.9519,33.6733 C16.8249,33.6853 16.5919,33.3083 16.4549,33.2523 C16.3179,33.1983 16.2059,33.4793 16.2059,33.6023 C16.2059,33.7263 16.2849,33.8123 16.3779,33.7863 C16.4709,33.7643 16.6239,34.1153 16.8379,34.0183" id="Fill-91" fill="#E5E8EC" mask="url(#mask-2)"></path>
            <polygon id="Fill-92" fill="#FFFFFF" mask="url(#mask-2)" points="14.4424 116.8816 15.0604 124.2056 19.4744 125.1776 21.8034 125.1626 17.2074 123.0686 17.1074 116.3626"></polygon>
            <path d="M15.0298,125.3382 L15.9488,125.3742 L16.4208,124.7222 L19.9648,125.5832 L22.9498,125.6162 C22.9498,125.6162 22.9358,125.3852 22.8158,125.2852 C22.3608,124.9142 20.1498,124.3392 20.1498,124.3392 C20.1498,124.3392 20.2618,125.0062 19.9828,125.0882 C19.7038,125.1692 16.9748,124.4552 16.3318,124.2312 C15.2238,123.8452 14.9588,123.5132 14.8958,123.5762 C14.7248,123.7412 15.0298,125.3382 15.0298,125.3382" id="Fill-93" fill="#161711" mask="url(#mask-2)"></path>
            <polygon id="Fill-94" fill="#FFFFFF" mask="url(#mask-2)" points="26.6499 117.0603 28.1689 123.9103 32.5829 124.8793 34.9119 124.8663 30.3159 122.7723 29.0819 116.9373"></polygon>
            <path d="M28.1377,125.0403 L29.0577,125.0773 L29.5297,124.4253 L33.4497,125.4313 L35.9267,125.5373 C35.9267,125.5373 35.7267,125.1533 35.5727,125.0373 C35.1087,124.6873 33.2947,124.0783 33.2947,124.0783 C33.2947,124.0783 33.3497,124.6413 33.0707,124.7223 C32.7907,124.8013 30.0837,124.1593 29.4407,123.9343 C28.3317,123.5493 28.0687,123.2163 28.0037,123.2793 C27.8337,123.4453 28.1377,125.0403 28.1377,125.0403" id="Fill-95" fill="#161711" mask="url(#mask-2)"></path>
            <path d="M22.024,73.9412 L27.222,93.3852 L29.324,117.8312 L25.27,118.1822 C25.27,118.1822 22.415,96.8262 21.882,94.9272 C21.349,93.0272 13.921,79.0302 15.465,74.9282 C17.01,70.8262 22.024,73.9412 22.024,73.9412" id="Fill-96" fill="#163F59" mask="url(#mask-2)"></path>
            <path d="M12.3809,73.4861 L15.1039,93.9721 C15.1039,93.9721 13.1049,99.1821 13.1019,101.0111 C13.0969,105.1311 13.7189,117.4651 13.7189,117.4651 L17.3769,117.4831 C17.3769,117.4831 20.1279,97.0761 20.3909,95.1311 C20.6529,93.1851 22.8469,75.5111 20.5469,71.7221 C18.2499,67.9331 12.3809,73.4861 12.3809,73.4861" id="Fill-97" fill="#194866" mask="url(#mask-2)"></path>
            <path d="M5.9742,28.7903 C5.9742,28.7903 5.7452,28.9373 5.6242,28.7673 C5.4192,28.4873 5.2732,27.8053 5.2292,27.5603 C5.1822,27.2873 5.1772,25.9643 5.1772,25.9643 C5.1772,25.9643 5.4952,26.3403 5.4992,26.8723 C5.5062,27.6463 5.9742,28.7903 5.9742,28.7903" id="Fill-98" fill="#D1DBEA" mask="url(#mask-2)"></path>
            <path d="M5.9283,28.615 C5.6523,28.2 5.6943,27.624 5.9073,26.958 C6.1093,26.325 5.8593,25.976 5.8593,25.976 C5.8613,25.976 5.6853,26.37 5.4743,27.386 C5.4163,27.669 5.3683,27.986 5.4163,28.267 C5.5593,29.125 6.6373,29.686 5.9283,28.615" id="Fill-99" fill="#BDCFE8" mask="url(#mask-2)"></path>
            <path d="M14.4185,41.4011 C14.0505,38.6511 8.1985,32.0201 8.1985,32.0201 C8.1985,32.0201 5.3325,30.1651 11.4145,40.2231 C13.2395,43.2441 14.5075,42.0811 14.4185,41.4011" id="Fill-100" fill="#FFFFFF" mask="url(#mask-2)"></path>
            <path d="M5.8658,28.074 L5.6738,28.233 L5.6408,29.095 C5.6408,29.095 6.2108,30.538 6.6198,31.005 C7.0308,31.473 7.8468,33.71 8.0188,33.949 C8.1908,34.188 9.5518,34.002 9.5518,34.002 C9.5518,34.002 8.1788,31.953 7.7028,31.095 C7.2298,30.237 6.9748,28.779 6.8018,28.435 C6.5058,27.85 6.3878,27.535 6.3878,27.535 C6.3878,27.535 6.0958,27.738 6.5068,28.685 C6.6168,28.935 6.2788,28.923 6.2788,28.923 L5.8658,28.074 Z" id="Fill-101" fill="#FFFFFF" mask="url(#mask-2)"></path>
            <path d="M5.9424,29.1492 C5.9424,29.1492 5.6074,28.4292 5.6784,28.0372 C5.7294,27.7642 6.1794,26.5182 6.1794,26.5182 C6.1794,26.5182 6.3484,26.9822 6.1694,27.4822 C5.9084,28.2132 5.9424,29.1492 5.9424,29.1492" id="Fill-102" fill="#FFFFFF" mask="url(#mask-2)"></path>
            <path d="M9.813,40.0086 L11.209,44.0496 C11.209,44.0496 9.361,53.6606 10.094,54.7356 C10.966,56.0116 12.945,57.4116 12.945,57.4116 L15.531,45.3856 L14.34,38.9336 L9.813,40.0086 Z" id="Fill-103" fill="#B0BFDE" mask="url(#mask-2)"></path>
            <path d="M9.5162,51.9148 C10.2772,54.4328 8.8072,57.1048 6.2352,57.8808 C3.6632,58.6578 0.9602,57.2448 0.2002,54.7258 C-0.5598,52.2068 0.9102,49.5358 3.4822,48.7588 C6.0532,47.9828 8.7552,49.3948 9.5162,51.9148" id="Fill-104" fill="#282723" mask="url(#mask-2)"></path>
            <path d="M11.4878,58.2307 C12.2818,60.8607 10.7478,63.6517 8.0598,64.4637 C5.3738,65.2737 2.5518,63.7987 1.7588,61.1687 C0.9628,58.5357 2.4978,55.7467 5.1838,54.9367 C7.8728,54.1257 10.6928,55.6007 11.4878,58.2307" id="Fill-105" fill="#282723" mask="url(#mask-2)"></path>
            <path d="M12.1231,47.4153 C12.7071,49.3503 11.6111,51.3933 9.6771,51.9763 L8.3001,50.5763 C6.3651,51.1603 4.3221,50.0663 3.7401,48.1293 L3.3411,46.8173 C2.7581,44.8823 3.8541,42.8403 5.7881,42.2563 L6.6641,41.9923 C8.5971,41.4083 10.6411,42.5033 11.2241,44.4383 L12.1231,47.4153 Z" id="Fill-106" fill="#282723" mask="url(#mask-2)"></path>
            <path d="M9.1685,42.6873 C9.2605,43.0123 9.3345,43.3493 9.3825,43.6993 C9.7065,46.0573 8.8555,48.1763 7.4245,48.8383 C7.6865,49.8703 7.7575,50.8483 7.7485,51.7023 C7.7355,52.6723 6.9795,53.9233 6.9795,53.9233 C7.2015,55.5713 13.2445,56.2633 13.0405,56.0473 C12.8365,55.8333 10.9615,54.3803 10.0185,52.8123 C9.3605,51.7213 9.4525,50.6283 9.6995,49.8193 C10.2395,48.5833 11.4545,48.2313 11.4545,48.2313 C11.5725,48.1973 11.6625,48.1153 11.7115,48.0143 C11.7135,47.7603 11.6785,47.5033 11.6025,47.2493 L10.7295,44.3603 C10.4875,43.5593 9.8935,42.9643 9.1685,42.6873" id="Fill-107" fill="#FFFFFF" mask="url(#mask-2)"></path>
            <path d="M19.8091,73.9383 L22.6901,74.4103 C22.6901,74.4103 18.9011,67.7713 17.6041,65.1223 C16.3081,62.4713 16.0811,61.5433 15.9751,60.6363 C15.8651,59.7293 15.9651,58.5933 15.1171,57.7983 C14.2691,57.0043 12.9181,55.6693 12.5331,55.6483 C11.9131,55.6133 11.2301,55.5433 10.6361,55.2253 C10.3091,55.0503 19.8091,73.9383 19.8091,73.9383" id="Fill-108" fill="#AD5C49" mask="url(#mask-2)"></path>
            <path d="M21.0328,74.8318 C21.0328,74.8318 17.7968,68.5098 16.2368,65.2948 C14.6778,62.0788 11.2528,56.1078 10.8728,55.3388 C10.4928,54.5688 9.6928,53.6308 9.6928,53.6308 C9.6928,53.6308 8.1248,53.0718 7.0358,53.6208 C5.9498,54.1708 4.9418,55.7488 6.0588,59.6658 C6.7898,62.2228 11.8878,68.2288 12.0718,68.8368 C12.2558,69.4448 11.3728,75.3138 11.8218,76.8018 C12.2708,78.2888 12.3318,78.4908 12.3318,78.4908 C12.3318,78.4908 17.4688,73.7698 21.0328,74.8318" id="Fill-109" fill="#D1DBEA" mask="url(#mask-2)"></path>
            <polygon id="Fill-110" fill="#B0BFDE" mask="url(#mask-2)" points="6.9102 52.5896 8.0742 52.9046 9.7652 53.4416 9.9472 55.0106 6.6182 53.4526"></polygon>
            <path d="M26.565,68.427 C28.697,69.154 29.936,68.493 30.882,68.479 C31.827,68.465 32.832,68.293 32.824,68.3 C32.072,68.968 31.374,68.758 30.939,68.908 C30.505,69.061 30.64,68.955 31.382,69.267 C31.804,69.443 32.794,69.008 33.467,68.81 C34.052,68.64 34.358,68.713 34.358,68.713 C34.358,68.713 33.573,69.227 32.679,69.552 C31.603,69.942 30.362,70.155 30.083,70.158 C29.574,70.167 28.134,69.725 27.158,69.256 C26.06,68.726 25.028,67.903 26.565,68.427" id="Fill-111" fill="#FFFFFF" mask="url(#mask-2)"></path>
            <path d="M13.709,63.9832 C13.709,63.9832 14.044,63.1612 18.485,64.8132 C22.92,66.4662 29.07,69.8912 29.07,69.8912 L18.503,66.9502 C18.503,66.9502 14.512,65.6482 13.709,63.9832" id="Fill-112" fill="#FFFFFF" mask="url(#mask-2)"></path>
            <path d="M17.5943,63.4246 C17.5943,63.4246 13.4483,61.9086 12.7663,64.2006 C12.3793,65.5046 13.1143,66.3326 14.3733,66.7696 C16.7183,67.5846 19.4233,68.3966 19.4233,68.3966 L22.0643,65.5156 L17.5943,63.4246 Z" id="Fill-113" fill="#B0BFDE" mask="url(#mask-2)"></path>
            <path d="M15.4546,62.2634 L9.0716,55.1874 C9.0716,55.1874 7.9866,54.5914 7.2426,55.1354 C6.1656,55.9184 5.9376,56.6304 6.2306,57.3584 C6.8096,58.8004 6.3106,58.2044 9.9096,62.3554 C13.1956,66.1514 14.5076,67.7554 16.3716,66.2874 C18.1086,64.9194 15.4546,62.2634 15.4546,62.2634" id="Fill-114" fill="#B0BFDE" mask="url(#mask-2)"></path>
            <path d="M30.854,70.0047 C30.854,70.0047 32.618,70.0787 32.965,69.9607 C33.206,69.8787 34.272,69.3017 34.272,69.3017 C34.272,69.3017 33.626,69.2217 33.186,69.4267 C32.744,69.6367 30.854,70.0047 30.854,70.0047" id="Fill-115" fill="#BDCFE8" mask="url(#mask-2)"></path>
            <path d="M60.7315,62.2117 C60.7315,62.2117 60.3365,61.8747 59.8195,61.1887 C59.5075,60.7747 58.9935,61.1607 58.9935,61.1607 L58.3085,61.3097 L58.5375,60.3787 L59.3405,58.0797 L61.3805,57.1617 C61.3805,57.1617 61.8525,57.3317 62.0035,57.6527 C62.1545,57.9747 62.3295,59.9327 62.3295,59.9327 L60.7315,62.2117 Z" id="Fill-116" fill="#EDEEF0" mask="url(#mask-2)"></path>
            <path d="M89.2715,58.0877 C89.3425,58.3317 89.1685,62.3337 85.9925,64.7587 C84.8875,65.6037 76.3055,69.5257 73.7185,69.2277 C71.1315,68.9297 71.6385,66.9127 72.3765,65.8037 C73.1135,64.6947 75.1455,64.1147 78.1125,62.3477 C81.1895,60.5137 83.2405,59.0097 84.5715,58.3637 C86.4885,57.4347 88.6505,55.9787 89.2715,58.0877" id="Fill-117" fill="#194866" mask="url(#mask-2)"></path>
            <path d="M75.462,68.2786 C75.462,68.2786 75.124,69.5466 73.21,69.1456 C72.68,69.0346 71.717,68.5626 70.986,68.1836 C67.614,66.4326 60.298,62.3756 60.298,62.3756 L62.672,59.4966 C62.672,59.4966 69.871,62.5496 71.426,63.2716 C72.98,63.9916 76.666,64.5766 75.462,68.2786" id="Fill-118" fill="#194866" mask="url(#mask-2)"></path>
            <path d="M58.6231,60.7244 C58.6231,60.7244 58.2021,61.2924 58.3571,61.4974 C58.5121,61.7034 59.2291,62.2814 59.2291,62.2814 C59.2291,62.2814 59.5341,62.1184 59.4941,61.8644 C59.4541,61.6104 59.0581,61.4724 59.2691,60.8914 C59.3171,60.7614 58.6231,60.7244 58.6231,60.7244" id="Fill-119" fill="#EDEEF0" mask="url(#mask-2)"></path>
        </g>
    </g>
</svg>