<svg id="Layer_1" data-name="Layer 1" xmlns="http://www.w3.org/2000/svg" viewBox="0 0 144.85 143.19">
  <defs>
    <style>
      .cls-1 {
        fill: #363636;
      }
    </style>
  </defs>
  <title>software_prototyping</title>
  <path class="cls-1" d="M419.33,301.3a6.95,6.95,0,1,1,6.95-6.95A7,7,0,0,1,419.33,301.3Zm0-10.89a3.95,3.95,0,1,0,3.95,3.94A3.95,3.95,0,0,0,419.33,290.41Z" transform="translate(-346.7 -201.12)"/>
  <path class="cls-1" d="M439.74,262.21H398.92a1.5,1.5,0,0,1-1.5-1.5v-5a1.5,1.5,0,0,1,1.5-1.5h40.82a1.5,1.5,0,0,1,1.5,1.5v5A1.5,1.5,0,0,1,439.74,262.21Zm-39.32-3h37.82v-2H400.42Z" transform="translate(-346.7 -201.12)"/>
  <path class="cls-1" d="M439.74,241.85H398.92a1.5,1.5,0,0,1-1.5-1.5v-5a1.5,1.5,0,0,1,1.5-1.5h40.82a1.5,1.5,0,0,1,1.5,1.5v5A1.5,1.5,0,0,1,439.74,241.85Zm-39.32-3h37.82v-2H400.42Z" transform="translate(-346.7 -201.12)"/>
  <path class="cls-1" d="M446.39,236.82H392.27a1.5,1.5,0,0,1-1.5-1.5V220a1.5,1.5,0,0,1,1.5-1.5h54.12a1.5,1.5,0,0,1,1.5,1.5v15.33A1.5,1.5,0,0,1,446.39,236.82Zm-52.62-3h51.12V221.49H393.77Z" transform="translate(-346.7 -201.12)"/>
  <path class="cls-1" d="M446.39,257.17H392.27a1.5,1.5,0,0,1-1.5-1.5V240.35a1.5,1.5,0,0,1,1.5-1.5h54.12a1.5,1.5,0,0,1,1.5,1.5v15.32A1.5,1.5,0,0,1,446.39,257.17Zm-52.62-3h51.12V241.85H393.77Z" transform="translate(-346.7 -201.12)"/>
  <path class="cls-1" d="M446.39,277.53H392.27a1.5,1.5,0,0,1-1.5-1.5V260.71a1.5,1.5,0,0,1,1.5-1.5h54.12a1.5,1.5,0,0,1,1.5,1.5V276A1.5,1.5,0,0,1,446.39,277.53Zm-52.62-3h51.12V262.21H393.77Z" transform="translate(-346.7 -201.12)"/>
  <path class="cls-1" d="M396.65,236.22a1.5,1.5,0,0,1-1.5-1.5v-3.17a1.5,1.5,0,0,1,3,0v3.17A1.5,1.5,0,0,1,396.65,236.22Z" transform="translate(-346.7 -201.12)"/>
  <path class="cls-1" d="M403.13,236.22a1.5,1.5,0,0,1-1.5-1.5v-3.17a1.5,1.5,0,0,1,3,0v3.17A1.5,1.5,0,0,1,403.13,236.22Z" transform="translate(-346.7 -201.12)"/>
  <path class="cls-1" d="M409.61,236.22a1.5,1.5,0,0,1-1.5-1.5v-3.17a1.5,1.5,0,0,1,3,0v3.17A1.5,1.5,0,0,1,409.61,236.22Z" transform="translate(-346.7 -201.12)"/>
  <path class="cls-1" d="M416.09,236.22a1.5,1.5,0,0,1-1.5-1.5v-3.17a1.5,1.5,0,0,1,3,0v3.17A1.5,1.5,0,0,1,416.09,236.22Z" transform="translate(-346.7 -201.12)"/>
  <path class="cls-1" d="M422.57,236.22a1.5,1.5,0,0,1-1.5-1.5v-3.17a1.5,1.5,0,0,1,3,0v3.17A1.5,1.5,0,0,1,422.57,236.22Z" transform="translate(-346.7 -201.12)"/>
  <path class="cls-1" d="M429.05,236.22a1.5,1.5,0,0,1-1.5-1.5v-3.17a1.5,1.5,0,0,1,3,0v3.17A1.5,1.5,0,0,1,429.05,236.22Z" transform="translate(-346.7 -201.12)"/>
  <path class="cls-1" d="M435.53,236.22a1.5,1.5,0,0,1-1.5-1.5v-3.17a1.5,1.5,0,1,1,3,0v3.17A1.5,1.5,0,0,1,435.53,236.22Z" transform="translate(-346.7 -201.12)"/>
  <path class="cls-1" d="M442,236.22a1.51,1.51,0,0,1-1.5-1.5v-3.17a1.5,1.5,0,1,1,3,0v3.17A1.5,1.5,0,0,1,442,236.22Z" transform="translate(-346.7 -201.12)"/>
  <path class="cls-1" d="M396.65,256.64a1.5,1.5,0,0,1-1.5-1.5V252a1.5,1.5,0,0,1,3,0v3.16A1.5,1.5,0,0,1,396.65,256.64Z" transform="translate(-346.7 -201.12)"/>
  <path class="cls-1" d="M403.13,256.64a1.5,1.5,0,0,1-1.5-1.5V252a1.5,1.5,0,0,1,3,0v3.16A1.5,1.5,0,0,1,403.13,256.64Z" transform="translate(-346.7 -201.12)"/>
  <path class="cls-1" d="M409.61,256.64a1.5,1.5,0,0,1-1.5-1.5V252a1.5,1.5,0,0,1,3,0v3.16A1.5,1.5,0,0,1,409.61,256.64Z" transform="translate(-346.7 -201.12)"/>
  <path class="cls-1" d="M416.09,256.64a1.5,1.5,0,0,1-1.5-1.5V252a1.5,1.5,0,1,1,3,0v3.16A1.5,1.5,0,0,1,416.09,256.64Z" transform="translate(-346.7 -201.12)"/>
  <path class="cls-1" d="M422.57,256.64a1.5,1.5,0,0,1-1.5-1.5V252a1.5,1.5,0,1,1,3,0v3.16A1.5,1.5,0,0,1,422.57,256.64Z" transform="translate(-346.7 -201.12)"/>
  <path class="cls-1" d="M429.05,256.64a1.5,1.5,0,0,1-1.5-1.5V252a1.5,1.5,0,1,1,3,0v3.16A1.5,1.5,0,0,1,429.05,256.64Z" transform="translate(-346.7 -201.12)"/>
  <path class="cls-1" d="M435.53,256.64a1.5,1.5,0,0,1-1.5-1.5V252a1.5,1.5,0,0,1,3,0v3.16A1.5,1.5,0,0,1,435.53,256.64Z" transform="translate(-346.7 -201.12)"/>
  <path class="cls-1" d="M442,256.64a1.5,1.5,0,0,1-1.5-1.5V252a1.5,1.5,0,0,1,3,0v3.16A1.5,1.5,0,0,1,442,256.64Z" transform="translate(-346.7 -201.12)"/>
  <path class="cls-1" d="M396.65,277.06a1.5,1.5,0,0,1-1.5-1.5V272.4a1.5,1.5,0,0,1,3,0v3.16A1.5,1.5,0,0,1,396.65,277.06Z" transform="translate(-346.7 -201.12)"/>
  <path class="cls-1" d="M403.13,277.06a1.5,1.5,0,0,1-1.5-1.5V272.4a1.5,1.5,0,0,1,3,0v3.16A1.5,1.5,0,0,1,403.13,277.06Z" transform="translate(-346.7 -201.12)"/>
  <path class="cls-1" d="M409.61,277.06a1.5,1.5,0,0,1-1.5-1.5V272.4a1.5,1.5,0,0,1,3,0v3.16A1.5,1.5,0,0,1,409.61,277.06Z" transform="translate(-346.7 -201.12)"/>
  <path class="cls-1" d="M416.09,277.06a1.5,1.5,0,0,1-1.5-1.5V272.4a1.5,1.5,0,0,1,3,0v3.16A1.5,1.5,0,0,1,416.09,277.06Z" transform="translate(-346.7 -201.12)"/>
  <path class="cls-1" d="M422.57,277.06a1.5,1.5,0,0,1-1.5-1.5V272.4a1.5,1.5,0,0,1,3,0v3.16A1.5,1.5,0,0,1,422.57,277.06Z" transform="translate(-346.7 -201.12)"/>
  <path class="cls-1" d="M429.05,277.06a1.5,1.5,0,0,1-1.5-1.5V272.4a1.5,1.5,0,0,1,3,0v3.16A1.5,1.5,0,0,1,429.05,277.06Z" transform="translate(-346.7 -201.12)"/>
  <path class="cls-1" d="M435.53,277.06a1.5,1.5,0,0,1-1.5-1.5V272.4a1.5,1.5,0,0,1,3,0v3.16A1.5,1.5,0,0,1,435.53,277.06Z" transform="translate(-346.7 -201.12)"/>
  <path class="cls-1" d="M442,277.06a1.5,1.5,0,0,1-1.5-1.5V272.4a1.5,1.5,0,0,1,3,0v3.16A1.5,1.5,0,0,1,442,277.06Z" transform="translate(-346.7 -201.12)"/>
  <path class="cls-1" d="M419.33,290.41a1.5,1.5,0,0,1-1.5-1.5V276a1.5,1.5,0,0,1,3,0v12.88A1.5,1.5,0,0,1,419.33,290.41Z" transform="translate(-346.7 -201.12)"/>
  <path class="cls-1" d="M485.36,315H352.89a6.2,6.2,0,0,1-6.19-6.19V207.31a6.2,6.2,0,0,1,6.19-6.19H485.36a6.19,6.19,0,0,1,6.19,6.19V308.78A6.19,6.19,0,0,1,485.36,315ZM352.89,204.12a3.19,3.19,0,0,0-3.19,3.19V308.78a3.19,3.19,0,0,0,3.19,3.19H485.36a3.19,3.19,0,0,0,3.19-3.19V207.31a3.19,3.19,0,0,0-3.19-3.19ZM480.67,305.59H357.58a1.5,1.5,0,0,1-1.5-1.5V212a1.5,1.5,0,0,1,1.5-1.5H480.67a1.5,1.5,0,0,1,1.5,1.5v92.09A1.5,1.5,0,0,1,480.67,305.59Zm-121.59-3H479.17V213.5H359.08Z" transform="translate(-346.7 -201.12)"/>
  <path class="cls-1" d="M430.23,332.33H407.45a1.5,1.5,0,0,1-1.5-1.5V313.47a1.5,1.5,0,0,1,1.5-1.5h22.78a1.5,1.5,0,0,1,1.5,1.5v17.36A1.5,1.5,0,0,1,430.23,332.33Zm-21.28-3h19.78V315H409Z" transform="translate(-346.7 -201.12)"/>
  <path class="cls-1" d="M455.28,344.31h-73a1.5,1.5,0,0,1-1.5-1.5,13.49,13.49,0,0,1,13.48-13.48h49a13.49,13.49,0,0,1,13.48,13.48A1.5,1.5,0,0,1,455.28,344.31Zm-71.36-3h69.75a10.49,10.49,0,0,0-10.37-9h-49A10.5,10.5,0,0,0,383.92,341.31Z" transform="translate(-346.7 -201.12)"/>
  <path class="cls-1" d="M389.92,344.31a1.5,1.5,0,0,1-1.5-1.5v-4.25a1.5,1.5,0,0,1,3,0v4.25A1.5,1.5,0,0,1,389.92,344.31Z" transform="translate(-346.7 -201.12)"/>
  <path class="cls-1" d="M399.55,344.31a1.5,1.5,0,0,1-1.5-1.5v-4.25a1.5,1.5,0,0,1,3,0v4.25A1.5,1.5,0,0,1,399.55,344.31Z" transform="translate(-346.7 -201.12)"/>
  <path class="cls-1" d="M409.17,344.31a1.5,1.5,0,0,1-1.5-1.5v-4.25a1.5,1.5,0,0,1,3,0v4.25A1.5,1.5,0,0,1,409.17,344.31Z" transform="translate(-346.7 -201.12)"/>
  <path class="cls-1" d="M418.8,344.31a1.5,1.5,0,0,1-1.5-1.5v-4.25a1.5,1.5,0,0,1,3,0v4.25A1.5,1.5,0,0,1,418.8,344.31Z" transform="translate(-346.7 -201.12)"/>
  <path class="cls-1" d="M428.42,344.31a1.5,1.5,0,0,1-1.5-1.5v-4.25a1.5,1.5,0,0,1,3,0v4.25A1.5,1.5,0,0,1,428.42,344.31Z" transform="translate(-346.7 -201.12)"/>
  <path class="cls-1" d="M438.05,344.31a1.5,1.5,0,0,1-1.5-1.5v-4.25a1.5,1.5,0,0,1,3,0v4.25A1.5,1.5,0,0,1,438.05,344.31Z" transform="translate(-346.7 -201.12)"/>
  <path class="cls-1" d="M447.67,344.31a1.5,1.5,0,0,1-1.5-1.5v-4.25a1.5,1.5,0,0,1,3,0v4.25A1.5,1.5,0,0,1,447.67,344.31Z" transform="translate(-346.7 -201.12)"/>
  <path class="cls-1" d="M471.38,236.82H456.06a1.5,1.5,0,0,1-1.5-1.5V220a1.5,1.5,0,0,1,1.5-1.5h15.32a1.5,1.5,0,0,1,1.5,1.5v15.33A1.5,1.5,0,0,1,471.38,236.82Zm-13.82-3h12.32V221.49H457.56Z" transform="translate(-346.7 -201.12)"/>
  <path class="cls-1" d="M471.38,245.24H455.52a1.5,1.5,0,0,1,0-3h15.86a1.5,1.5,0,0,1,0,3Z" transform="translate(-346.7 -201.12)"/>
  <path class="cls-1" d="M471.38,254.26H455.52a1.5,1.5,0,0,1,0-3h15.86a1.5,1.5,0,0,1,0,3Z" transform="translate(-346.7 -201.12)"/>
  <path class="cls-1" d="M471.38,263.28H455.52a1.5,1.5,0,0,1,0-3h15.86a1.5,1.5,0,0,1,0,3Z" transform="translate(-346.7 -201.12)"/>
  <path class="cls-1" d="M471.38,272.3H455.52a1.5,1.5,0,0,1,0-3h15.86a1.5,1.5,0,0,1,0,3Z" transform="translate(-346.7 -201.12)"/>
  <path class="cls-1" d="M471.38,281.33H455.52a1.5,1.5,0,0,1,0-3h15.86a1.5,1.5,0,0,1,0,3Z" transform="translate(-346.7 -201.12)"/>
  <path class="cls-1" d="M471.38,290.35H455.52a1.5,1.5,0,0,1,0-3h15.86a1.5,1.5,0,0,1,0,3Z" transform="translate(-346.7 -201.12)"/>
  <path class="cls-1" d="M471.38,299.37H455.52a1.5,1.5,0,0,1,0-3h15.86a1.5,1.5,0,0,1,0,3Z" transform="translate(-346.7 -201.12)"/>
  <path class="cls-1" d="M383.33,235.63H368a1.5,1.5,0,0,1-1.5-1.5V218.8a1.5,1.5,0,0,1,1.5-1.5h15.32a1.5,1.5,0,0,1,1.5,1.5v15.33A1.5,1.5,0,0,1,383.33,235.63Zm-13.82-3h12.32V220.3H369.51Z" transform="translate(-346.7 -201.12)"/>
  <path class="cls-1" d="M383.33,244.05H367.48a1.5,1.5,0,0,1,0-3h15.85a1.5,1.5,0,0,1,0,3Z" transform="translate(-346.7 -201.12)"/>
  <path class="cls-1" d="M383.33,253.07H367.48a1.5,1.5,0,0,1,0-3h15.85a1.5,1.5,0,0,1,0,3Z" transform="translate(-346.7 -201.12)"/>
  <path class="cls-1" d="M383.33,262.09H367.48a1.5,1.5,0,0,1,0-3h15.85a1.5,1.5,0,0,1,0,3Z" transform="translate(-346.7 -201.12)"/>
  <path class="cls-1" d="M383.33,271.11H367.48a1.5,1.5,0,0,1,0-3h15.85a1.5,1.5,0,1,1,0,3Z" transform="translate(-346.7 -201.12)"/>
  <path class="cls-1" d="M383.33,280.13H367.48a1.5,1.5,0,0,1,0-3h15.85a1.5,1.5,0,1,1,0,3Z" transform="translate(-346.7 -201.12)"/>
  <path class="cls-1" d="M383.33,289.15H367.48a1.5,1.5,0,0,1,0-3h15.85a1.5,1.5,0,1,1,0,3Z" transform="translate(-346.7 -201.12)"/>
  <path class="cls-1" d="M383.33,298.18H367.48a1.5,1.5,0,0,1,0-3h15.85a1.5,1.5,0,0,1,0,3Z" transform="translate(-346.7 -201.12)"/>
</svg>
