<?xml version="1.0" encoding="UTF-8"?>
<svg width="461px" height="411px" viewBox="0 0 461 411" version="1.1" xmlns="http://www.w3.org/2000/svg" xmlns:xlink="http://www.w3.org/1999/xlink">
    <!-- Generator: Sketch 48 (47235) - http://www.bohemiancoding.com/sketch -->
    <title>bigstock--205743241 [Converted]</title>
    <desc>Created with Sketch.</desc>
    <defs>
        <linearGradient x1="-25.7953125%" y1="114.028094%" x2="112.371652%" y2="-2.56923077%" id="linearGradient-1">
            <stop stop-color="#EA8E45" offset="0%"></stop>
            <stop stop-color="#F2D8CB" offset="100%"></stop>
        </linearGradient>
        <linearGradient x1="-25.8700893%" y1="114.029766%" x2="112.297098%" y2="-2.56755853%" id="linearGradient-2">
            <stop stop-color="#EA8E45" offset="0%"></stop>
            <stop stop-color="#F2D8CB" offset="100%"></stop>
        </linearGradient>
        <linearGradient x1="-0.0176744186%" y1="50.3431579%" x2="99.8302326%" y2="50.3431579%" id="linearGradient-3">
            <stop stop-color="#EA8E45" offset="0%"></stop>
            <stop stop-color="#F2D8CB" offset="100%"></stop>
        </linearGradient>
        <linearGradient x1="-25.6727679%" y1="114.027425%" x2="112.49308%" y2="-2.56856187%" id="linearGradient-4">
            <stop stop-color="#EA8E45" offset="0%"></stop>
            <stop stop-color="#F2D8CB" offset="100%"></stop>
        </linearGradient>
        <linearGradient x1="-25.8198661%" y1="113.790635%" x2="112.346875%" y2="-2.80602007%" id="linearGradient-5">
            <stop stop-color="#EA8E45" offset="0%"></stop>
            <stop stop-color="#F2D8CB" offset="100%"></stop>
        </linearGradient>
        <linearGradient x1="-0.512658228%" y1="49.942029%" x2="99.9379747%" y2="49.942029%" id="linearGradient-6">
            <stop stop-color="#E04037" offset="0%"></stop>
            <stop stop-color="#F95830" offset="100%"></stop>
        </linearGradient>
        <linearGradient x1="-0.144094488%" y1="49.753937%" x2="99.8169291%" y2="49.753937%" id="linearGradient-7">
            <stop stop-color="#E04037" offset="0%"></stop>
            <stop stop-color="#F95830" offset="100%"></stop>
        </linearGradient>
    </defs>
    <g id="Page-1" stroke="none" stroke-width="1" fill="none" fill-rule="evenodd">
        <g id="bigstock--205743241-[Converted]" fill-rule="nonzero">
            <g id="Layer_4" transform="translate(62.000000, 69.000000)">
                <g id="Group">
                    <path d="M397.6,242.1 L397.6,11.4 C397.6,5.4 392.7,0.5 386.7,0.5 L12.1,0.5 C6.1,0.5 1.2,5.4 1.2,11.4 L1.2,242.1 L397.6,242.1 Z" id="Shape" fill="#484F59"></path>
                    <rect id="Rectangle-path" fill="#E5E8EC" x="19.7" y="19.2" width="359.5" height="202.4"></rect>
                    <path d="M0.5,242.5 L0.5,275.8 C0.5,282.2 5.7,287.4 12.1,287.4 L386.7,287.4 C393.1,287.4 398.3,282.2 398.3,275.8 L398.3,242.5 L0.5,242.5 Z" id="Shape" fill="#F3F3F3"></path>
                    <path d="M267.9,336.6 C267.9,336.6 265,335.2 261.7,333.9 C258.2,332.6 253.9,330.9 251.4,329.7 C247,327.6 246.6,326.2 245,319 C243.2,311.2 241.5,294.6 240.9,287.4 L157.9,287.4 C157.2,294.6 155.5,311.2 153.8,319 C152.2,326.2 151.8,327.6 147.4,329.7 C144.9,330.9 140.7,332.5 137.2,333.8 C133.8,335.1 131.1,336.1 131.1,336.1 C131.1,336.1 128.4,337.6 132.7,337.8 L266.1,337.8 C270.1,337.9 267.9,336.6 267.9,336.6 Z" id="Shape" fill="#E5E8EC"></path>
                    <path d="M241.8,296.2 C241.4,292.8 241.1,289.7 240.9,287.5 L157.9,287.5 C157.7,289.7 157.4,292.8 157,296.2 L241.8,296.2 Z" id="Shape" fill="#CDD5D7"></path>
                </g>
            </g>
            <g id="Layer_3">
                <g id="Group" transform="translate(101.000000, 22.000000)">
                    <rect id="Rectangle-path" fill="#5FB4C9" x="111.5" y="116.2" width="228.9" height="127.7"></rect>
                    <g transform="translate(0.000000, 79.000000)" fill="#9AC6DA">
                        <rect id="Rectangle-path" x="27.5" y="6.4" width="65.8" height="7.2"></rect>
                        <path d="M19,10 C19,15.1 14.8,19.3 9.7,19.3 C4.6,19.3 0.4,15.1 0.4,10 C0.4,4.9 4.6,0.7 9.7,0.7 C14.8,0.7 19,4.8 19,10 Z" id="Shape"></path>
                    </g>
                    <rect id="Rectangle-path" fill="#9AC6DA" x="288.8" y="87.5" width="32.7" height="2.9"></rect>
                    <rect id="Rectangle-path" fill="#9AC6DA" x="252.1" y="87.5" width="32.7" height="2.9"></rect>
                    <rect id="Rectangle-path" fill="#9AC6DA" x="215.4" y="87.5" width="32.7" height="2.9"></rect>
                    <rect id="Rectangle-path" fill="#9AC6DA" x="178.7" y="87.5" width="32.7" height="2.9"></rect>
                    <rect id="Rectangle-path" fill="#5FB4C9" x="142" y="87.5" width="32.7" height="2.9"></rect>
                    <g transform="translate(0.000000, 183.000000)" id="Rectangle-path">
                        <rect fill="#BCD0E2" x="0.4" y="17" width="98.8" height="2.9"></rect>
                        <rect fill="#BCD0E2" x="0.4" y="27" width="98.8" height="2.9"></rect>
                        <rect fill="#BCD0E2" x="0.4" y="37.1" width="98.8" height="2.9"></rect>
                        <rect fill="#BCD0E2" x="0.4" y="47.1" width="98.8" height="2.9"></rect>
                        <rect fill="#BCD0E2" x="0.4" y="57.1" width="70.6" height="2.9"></rect>
                        <rect fill="#9AC6DA" x="0.4" y="0.2" width="65.8" height="7.2"></rect>
                    </g>
                    <rect id="Rectangle-path" fill="#194866" transform="translate(67.085100, 56.424170) rotate(-27.446573) translate(-67.085100, -56.424170) " x="66.5851231" y="-6.47292301" width="1" height="125.794186"></rect>
                </g>
                <g id="Group" transform="translate(35.000000, 378.000000)">
                    <rect id="Rectangle-path" fill="url(#linearGradient-1)" x="0.8" y="0.4" width="44.8" height="29.9"></rect>
                    <rect id="Rectangle-path" fill="#EA8E45" x="29.1" y="0.4" width="16.5" height="29.9"></rect>
                </g>
                <g id="Group" transform="translate(129.000000, 0.000000)">
                    <g transform="translate(6.000000, 24.000000)" id="Shape">
                        <path d="M43.8,7 C43.8,7 47.4,11.4 34.3,22.3 C21.2,33.2 19.3,29.8 19.3,29.8 L15.8,27.3 L14.1,14.7 L20.1,13.6 L20.7,14.4 C20.7,14.4 21.9,14.6 22.7,13.7 C23.4,12.8 27.7,10 34.1,2.9 C37,-0.6 43.2,6.2 43.8,7 Z" fill="#D1DBEA"></path>
                        <path d="M15.1,15.4 C15.1,15.4 2.9,14.8 2.9,2.2 C2.9,-1.5 1.7,2 0.7,5.6 C-0.3,9.1 1.1,19.2 7.3,23.5 C13.5,27.7 16.2,28.8 18.9,27.3 C21.6,25.6 15.1,15.4 15.1,15.4 Z" fill="#EDEEF0"></path>
                        <path d="M24.4,17.8 L23,14.9 L22.4,13.8 C21.7,14.3 20.7,14.2 20.7,14.2 L22.1,16.1 L23.3,18.7 L23.8,22.6 L24.4,17.8 Z" fill="#B0BFDE"></path>
                    </g>
                    <path d="M85.2,46.6 L39.2,70.1 L43.2,81.8 C43.2,81.8 55.3,81.3 67.4,75 C79.5,68.7 85.2,46.6 85.2,46.6 Z" id="Shape" fill="#163F59"></path>
                    <path d="M75.2,59.4 L91.2,45.1 C91.2,45.1 84.4,21.7 78.7,16 C71.5,8.8 57.5,7.7 50.5,16 C43.4,24.3 38.9,28.1 38.9,28.1 C38.9,28.1 39.1,37.7 75.2,59.4 Z" id="Shape" fill="#B0BFDE"></path>
                    <path d="M28.6,7.4 C28.6,7.4 34.8,21.2 38.6,21.1 C38.8,21.1 40.9,20 42.6,20.3 C44.2,20.6 44.8,21.7 45.4,21.9 C45.6,22 46,22 46.3,22.2 C48,23 49.2,21.6 49.3,20.8 C49.4,19.8 50.4,17.5 50.3,16.7 C50.2,16.2 50.3,15.7 49.6,15.4 C48.1,14.6 45.8,12.9 45.3,11.9 C43.9,8.9 44,1.8 37.1,1.5 C35.2,1.4 28.5,6.4 28.6,7.4 Z" id="Shape" fill="#EDEEF0"></path>
                    <path d="M49.8,23 C49.8,23 42.3,40.5 47.3,58.3 C47.7,59.7 49.5,60.5 49.5,60.5 L51.6,58.2 C51.6,58.2 48.8,37.7 49.8,23 Z" id="Shape" fill="#163F59"></path>
                    <polygon id="Shape" fill="#D1DBEA" points="48.6 21.9 51.7 23.8 51.7 15.1 50.2 14.8"></polygon>
                    <polygon id="Shape" fill="#D1DBEA" points="45.5 21.9 44.7 21 45.6 23.3 48.5 25.8 48.4 22.3"></polygon>
                    <path d="M38.5,20.9 C38.5,20.9 38.8,20.4 39.2,19.5 C39.4,19.2 39.8,18.3 40.1,18 C41.6,16.4 41.6,16.6 42.3,15.5 C43.1,14.2 44.2,11.2 44.2,11.2 C44.2,11.2 44.3,12.9 44.3,13.6 C44.4,14.9 43.9,15.8 43.3,16.5 C41,19.5 41.3,19.6 40.9,19.9 C41,20 40.8,20 38.5,20.9 Z" id="Shape" fill="#DEE7EC"></path>
                    <path d="M31.8,12.7 C31.9,12.9 32.3,15.5 32.4,16 C32.5,16.5 32.5,17.1 32.7,17.2 C32.8,17.3 33.5,17.5 33.7,17.5 C34,17.5 35,17.8 34.5,16.7 C34.1,15.6 31.8,12.7 31.8,12.7 Z" id="Shape" fill="#EDEEF0"></path>
                    <path d="M37.1,0.8 C33.6,0.3 29,3.6 27.5,8.7 C27.5,8.7 28.1,9.4 29.6,9.4 C29.6,9.4 30.1,5.8 33.5,4.3 C37,2.8 35.7,5.7 36.9,6.1 C37.9,6.4 38.9,6.6 38.9,6.6 L40.5,8.2 L41.4,7.8 C41.4,7.8 40.7,5.6 41.5,5.9 C42.4,6.3 43.1,7.9 43.2,8.1 C43.3,8.3 43.5,8.7 43.6,8.7 C43.7,8.7 44.1,10 45.5,11.8 C45.9,11.6 46.1,10.7 45.6,9.4 C44.4,6.2 41.4,1.4 37.1,0.8 Z" id="Shape" fill="#163F59"></path>
                    <path d="M41.1,5.8 C41.8,5.3 42.8,5.6 43.2,6.3 C43.7,7 43.4,8 42.7,8.4" id="Shape" fill="#EDEEF0"></path>
                    <path d="M35.1,15.8 C35.1,15.8 33.3,16.3 33.2,16.5 C33.1,16.6 32.7,16.9 32.8,17.1 C32.9,17.3 33.4,17.5 34.4,17.5 C34.5,17.4 34.2,17.1 35.1,15.8 Z" id="Shape" fill="#DEE7EC"></path>
                    <rect id="Rectangle-path" fill="#593446" transform="translate(88.908470, 113.601315) rotate(-39.851788) translate(-88.908470, -113.601315) " x="86.2084863" y="109.45134" width="5.39996741" height="8.29994991"></rect>
                    <rect id="Rectangle-path" fill="#593446" transform="translate(56.107800, 119.325150) rotate(-22.333388) translate(-56.107800, -119.325150) " x="53.9077725" y="115.175098" width="4.400055" height="8.30010375"></rect>
                    <path d="M95,117 L92,119.5 L91.2,118.6 L90.7,120.6 L83,127 C83,127 82.1,125.6 87.1,121.1 C88.4,119.9 87.8,117.4 87.8,117.4 C87.8,117.4 88,116.3 90.1,116.8 C90.7,116.9 92.9,113.9 92.9,113.9 C92.9,113.9 94.7,115.6 95,117 Z" id="Shape" fill="#081832"></path>
                    <path d="M60.2,120.2 C59.3,111.3 58.4,92.9 57,87.5 C54.2,77.4 50.6,70.9 50.6,70.9 L39.6,70.4 L54.3,122.1 L60.2,120.2 Z" id="Shape" fill="#163F59"></path>
                    <path d="M53,126.8 L55.6,127.5 L56.6,126.9 L57.5,125 L58.1,126 L61.5,124 C61.4,122.6 59.9,120.7 59.9,120.7 C59.9,120.7 57.2,123.3 56.7,123.1 C54.7,122.2 54.3,123.3 54.3,123.3 C54.3,123.3 54.4,125.9 53,126.8 Z" id="Shape" fill="#081832"></path>
                    <path d="M55.8,124.3 C55.4,125 54.9,125.7 54.1,126 C47.6,127.9 47.9,129.5 47.9,129.5 L56.6,127.3 L55.8,124.3 Z" id="Shape" fill="#081832"></path>
                    <g transform="translate(22.000000, 10.000000)" id="Shape">
                        <path d="M38,14.1 L35.2,36.5 L36.3,37.7 L34.9,38.6 L42.2,43.8 L48.7,39.2 L52,8.6 C52,8.6 52,1.6 43.5,0.6 C37,-1.88737914e-15 38.3,12.3 38,14.1 Z" fill="#D1DBEA"></path>
                        <path d="M35.7,38.5 L12.3,52 C12.3,52 13.4,53.8 15,53.7 C19.2,53.6 28.3,51.3 32.4,49.4 C38.1,46.7 43.1,43 43.1,43 L35.7,38.5 Z" fill="#EDEEF0"></path>
                        <path d="M44.8,39.7 C44.8,39.7 38.9,38.2 35.8,37.2 L36.3,37.7 L34.9,38.6 L37.4,40.4 L41.4,42.4 L42.8,41.2 L41.8,40.3 L44.8,39.7 Z" fill="#B0BFDE"></path>
                        <g transform="translate(0.000000, 49.000000)" fill="#EDEEF0">
                            <g transform="translate(0.000000, 1.000000)">
                                <path d="M17,3.5 L14.2,5.3 C14.2,5.3 12.9,6.2 11.1,6.7 C9.3,7.2 8,6.2 7.1,4.5 C6.3,2.8 6.5,1.8 6.5,1.8 C6.5,1.8 8.1,3.33066907e-16 9.8,0.9 C11.6,1.8 16.2,1.2 16.3,2 C16.4,2.7 17,3.5 17,3.5 Z"></path>
                                <polygon points="7.1 1 3.8 2.6 0.7 4.2 1.3 4.7 3.6 3.8 7.7 4.3 7.5 3.2"></polygon>
                                <polygon points="4.3 5 2.1 7.1 2.6 7.7 5.1 6 8.2 5.2 7.5 3.2"></polygon>
                                <polygon points="3.6 8.6 5.2 6.8 6.1 5.4 7.8 4.8 8.8 6.2 7 6.8 4.5 8.8"></polygon>
                                <polygon points="5.7 9.8 8 6.1 9.2 5.7 10 6.6 8.4 7.9 6.5 9.7"></polygon>
                            </g>
                            <path d="M17.7,2 C16,2.9 14.1,2 14.1,2 C14.1,2 9.4,-0.2 8.3,0.3 C7.3,0.8 5,0.5 5,0.5 C5,0.5 4,0.9 5.9,1.8 C7.2,2.4 8.4,2.5 8.4,2.5 C8.4,2.5 10.7,4.7 11.6,4.9 C13.5,5.3 17.7,3 17.7,3 C17.7,3 17.9,1.9 17.7,2 Z"></path>
                        </g>
                    </g>
                    <path d="M91.2,44.4 L55.6,73.3 L62.4,81.7 C62.4,81.7 75.9,75.7 87.7,68.9 C102.6,60.4 91.2,44.4 91.2,44.4 Z" id="Shape" fill="#194866"></path>
                    <path d="M91.8,111.9 C87.5,104 80.4,87.3 76.9,82.9 C70.4,74.7 64.4,70.2 64.4,70.2 L54.1,74.1 L87,116 L91.8,111.9 Z" id="Shape" fill="#194866"></path>
                    <polygon id="Shape" fill="#EDEEF0" points="9.1 28.7 0.8 21.9 6.9 17.2 7.2 19.5 10.2 20.6 9 25.7"></polygon>
                </g>
                <g id="Group" transform="translate(124.000000, 368.000000)">
                    <g>
                        <rect id="Rectangle-path" fill="url(#linearGradient-2)" x="4.8" y="10.4" width="44.8" height="29.9"></rect>
                        <rect id="Rectangle-path" fill="#EA8E45" x="33.1" y="10.4" width="16.5" height="29.9"></rect>
                        <polygon id="Shape" fill="url(#linearGradient-3)" points="54.6 0.9 38.1 0.9 33.1 10.4 49.6 10.4"></polygon>
                        <polygon id="Shape" fill="#EA8E45" points="0.5 0.9 17 0.9 22 10.4 5.5 10.4"></polygon>
                    </g>
                    <g transform="translate(14.000000, 24.000000)" fill="#EA8E45">
                        <g transform="translate(8.000000, 0.000000)">
                            <polygon id="Shape" points="0.5 5.2 4 8.7 7.5 5.2"></polygon>
                            <rect id="Rectangle-path" x="2.7" y="0.1" width="2.6" height="5.2"></rect>
                        </g>
                        <g>
                            <polygon id="Shape" points="0.5 5.2 4 8.7 7.5 5.2"></polygon>
                            <rect id="Rectangle-path" x="2.7" y="0.1" width="2.6" height="5.2"></rect>
                        </g>
                        <rect id="Rectangle-path" x="0.3" y="9.8" width="15" height="2.6"></rect>
                    </g>
                </g>
                <g id="Group" transform="translate(68.000000, 378.000000)">
                    <rect id="Rectangle-path" fill="url(#linearGradient-4)" x="0" y="0.4" width="44.8" height="29.9"></rect>
                    <rect id="Rectangle-path" fill="#EA8E45" x="28.4" y="0.4" width="16.5" height="29.9"></rect>
                </g>
                <g id="Group" transform="translate(48.000000, 348.000000)">
                    <rect id="Rectangle-path" fill="url(#linearGradient-5)" x="0.5" y="0.3" width="44.8" height="29.9"></rect>
                    <rect id="Rectangle-path" fill="#EA8E45" x="28.8" y="0.3" width="16.5" height="29.9"></rect>
                </g>
                <g id="Group" transform="translate(230.000000, 245.000000)">
                    <g transform="translate(0.000000, 1.000000)" id="Shape">
                        <path d="M29.2,24.9 C29.2,24.9 24.2,27.9 33.1,42.9 C42,57.9 45,55.3 45,55.3 L49.2,54.1 L55.2,42.5 L49.8,39.3 L49,39.8 C49,39.8 47.7,39.5 47.4,38.5 C47,37.4 43.9,33.2 40.2,24.1 C38.4,20 30.1,24.4 29.2,24.9 Z" fill="#B0BFDE"></path>
                        <path d="M33.5,27.9 C33.5,27.9 29.2,31.8 40.8,44.8 C42.9,47.1 44.7,48.9 46.2,50.3 C44.1,49 41.4,47.1 37.9,44 C24.8,32.5 28.5,28.1 28.5,28.1 C29.4,27.3 34,27.5 33.5,27.9 Z" fill="#B0BFDE"></path>
                        <path d="M54,43 C54,43 66.7,44.9 68.9,41.9 C71.2,38.8 71.5,38.7 71.2,42.5 C70.9,46.2 66.1,51.5 58.6,53.4 C51.1,55.3 48.2,55.4 46.1,53 C44.2,50.6 54,43 54,43 Z" fill="#FFFFFF"></path>
                        <path d="M42.8,161 C42.8,161 40.2,163.7 39,161.4 C35.9,155.3 33.3,139.6 33.1,132.3 C32.9,122.2 34.1,113.4 34.1,113.4 L42.7,111.7 L42.8,161 Z" fill="#163F59"></path>
                        <path d="M42.4,68.5 L42.9,111.7 L33.8,116.7 C33.8,116.7 28.3,106.4 27.6,93.2 C26.9,80.1 42.4,68.5 42.4,68.5 Z" fill="#163F59"></path>
                        <path d="M42.4,68.5 L22.3,115.9 L18.6,120.9 L4.2,158.8 L0.8,158.6 C0.8,158.6 0.7,134.3 6.2,125.1 C11.7,115.9 12.1,113.7 12.1,113.7 L23.5,67.1 L42.4,68.5 Z" fill="#194866"></path>
                        <path d="M42.8,68.6 L22.5,70.2 L11.3,42.9 C11.3,42.9 4.2,26.4 14.6,25.2 C25,23.9 37.1,22.8 37.1,22.8 C37.1,22.8 44.8,28.1 42.8,68.6 Z" fill="#D1DBEA"></path>
                        <path d="M31.8,63.3 L57.5,66.4 C57.5,66.4 56.2,68.9 54.4,69.7 C50.3,71.5 42.9,72.6 38.6,72.2 C32.4,71.7 26.4,69.9 26.4,69.9 L31.8,63.3 Z" fill="#FFFFFF"></path>
                        <path d="M23,0.2 C23,0.2 32.5,13.5 30.7,16.7 C28.9,19.9 28.3,19.6 28.4,23 C28.4,24.1 29.2,26.1 28.4,26.7 C26.2,28.4 19.8,26.4 20.4,24.9 C21.2,23.1 19.7,17.9 19.7,17.9 C19.7,17.9 11.9,11.6 14.8,5.7 C15.8,3.7 22.2,-0.4 23,0.2 Z" fill="#FFFFFF"></path>
                        <path d="M27.4,27.7 C27.4,27.7 38.1,42.6 37.3,60.3 C37.2,61.7 35.7,62.8 35.7,62.8 L33.3,61.1 C33.2,61.1 31.5,41.3 27.4,27.7 Z" fill="#AD5C49"></path>
                        <polygon fill="#B0BFDE" points="27.1 27.3 26.9 30.8 20.4 25.7 20.3 24.9"></polygon>
                        <polygon fill="#B0BFDE" points="28.7 24.8 30.2 29.3 27.3 27.2"></polygon>
                        <path d="M44.2,42.1 L46.5,39.8 L47.5,38.9 C48,39.7 49,39.9 49,39.9 L46.9,41.3 L44.8,43.4 L43,47 L44.2,42.1 Z" fill="#D1DBEA"></path>
                        <path d="M21.4,41.5 L31.7,61.3 L31.1,62.8 L32.7,63.2 L27.8,70.5 L20.2,68.4 L6.7,41.1 C6.7,41.1 5.1,34.1 10.5,27.1 C14.2,22.1 20.4,39.9 21.4,41.5 Z" fill="#B0BFDE"></path>
                        <path d="M23.8,67.6 C23.8,67.6 28.8,64.1 31.3,62.2 L31,62.9 L32.6,63.3 L30.9,65.8 L27.9,69 L26.2,68.3 L26.9,67.1 L23.8,67.6 Z" fill="#D1DBEA"></path>
                        <path d="M38.6,161.2 L39.2,164.2 L42.2,164.2 C42.2,164.2 42.4,163.8 42.6,163.8 C42.8,163.8 43.1,164.2 43.4,164.2 C44,164.2 44.7,164.2 45,164.2 C45.6,164.2 51.1,164.2 51.1,164.2 C51.1,164.2 51.2,163.6 51.1,163.4 C51,163.3 50.5,163.1 50.2,163 C48.6,162.6 44.2,161.2 43.4,159.7 C42.4,157.8 38.6,161.2 38.6,161.2 Z" fill="#163F59"></path>
                        <path d="M0.8,158.4 L0.2,159.7 L0,161.1 L0.2,163.3 L1.4,163.4 L2.3,163.1 L2.9,163.5 C2.9,163.5 6.4,163.9 7.6,163.8 C9.7,163.7 10.9,163.4 11.2,162.9 C11.4,162.7 10.4,162.3 10.1,162.3 C8.2,162.2 6.1,161.1 6.1,161.1 L4.4,159.5 L4,158.3 L0.8,158.4 Z" fill="#194866"></path>
                    </g>
                    <g transform="translate(11.000000, 0.000000)" id="Shape">
                        <path d="M8.9,0.7 L7.5,1.5 L5.2,2.9 L4.3,3.4 L5,4.6 L8.6,2.4 C9.9,1.6 11.7,2 12.5,3.4 L13.2,4.5 L13.5,4.3 L14.4,3.8 L13.1,1.7 C12.4,0.3 10.4,-0.2 8.9,0.7 Z" fill="#163F59"></path>
                        <path d="M4.3,3.5 C3.3,4.1 2.8,5.1 2.8,6.1 L1.9,6.7 C0.7,7.4 0.4,8.9 1.1,10.1 L4.3,15.3 L5.8,14.4 L4.5,12.3 C4,11.5 4.3,10.4 5.1,9.9 L6,9.4 L8.3,8 L9.7,7.2 C11.2,6.3 11.7,4.3 10.8,2.8 L9.4,0.6 L4.3,3.5 Z" fill="#163F59"></path>
                        <path d="M7.6,14.1 C7.2,13.4 6.2,13.2 5.5,13.6 L5.4,13.7 C4.7,14.1 4.5,15.1 4.9,15.8 L5.9,17.4 C6.3,18.1 7.3,18.3 8,17.9 L8.1,17.8 C8.6,17.5 8.9,16.9 8.8,16.3" fill="#FFFFFF"></path>
                    </g>
                </g>
                <g id="Group" transform="translate(321.000000, 210.000000)">
                    <g transform="translate(0.000000, 48.000000)" id="Shape">
                        <g transform="translate(0.000000, 4.000000)" fill="#FFFFFF">
                            <path d="M26.6,0.2 C26.6,0.2 28.1,1.5 21.3,9.6 C14.5,17.6 2.8,27.9 2.8,27.9 L16.8,8 C16.8,8 22.5,0.7 26.6,0.2 Z"></path>
                            <path d="M8.6,22.1 C5.5,26 6,29.1 5.3,31.1 C4.6,33.1 4.2,35.3 4.2,35.3 C3.4,33.2 4.3,31.9 4.3,30.9 C4.3,29.9 4.4,30.2 3.2,31.6 C2.5,32.4 2.7,34.7 2.6,36.3 C2.5,37.6 2.1,38.2 2.1,38.2 C2.1,38.2 1.6,36.2 1.6,34.1 C1.6,31.6 2.1,28.8 2.3,28.2 C2.7,27.1 4.7,24.4 6.4,22.8 C8.4,20.8 10.9,19.2 8.6,22.1 Z"></path>
                            <path d="M2.6,28 C2.6,28 0.9,31.5 0.9,32.4 C0.9,33 1.1,35.6 1.1,35.6 C1.1,35.6 1.8,34.3 1.8,33.3 C1.8,32.2 2.6,28 2.6,28 Z"></path>
                        </g>
                        <path d="M20.4,5.3 C20.4,5.3 26.8,-2 30.5,1.8 C32.6,3.9 32,6.3 30.1,8.4 C26.4,12.4 22,16.8 22,16.8 L14,14 L20.4,5.3 Z" fill="#854638"></path>
                    </g>
                    <path d="M23.8,47.7 L28.8,27.4 C28.8,27.4 31.5,22.2 33.5,22.5 C36.4,22.9 36.4,26.9 36.6,28.6 C37,32 37.3,30.3 34.7,42.1 C32.3,52.9 31.4,57.3 26.3,56.4 C21.5,55.6 23.8,47.7 23.8,47.7 Z" id="Shape" fill="#854638"></path>
                    <g transform="translate(28.000000, 57.000000)" id="Shape">
                        <polygon fill="#EDEEF0" points="14.9 1.3 16.9 19.3 7.7 21.8 2.7 22 12.3 17.1 9.2 0.5"></polygon>
                        <path d="M17.1,21.7 L15.2,21.9 L14.1,20.6 L6.7,22.8 L0.4,23.2 C0.4,23.2 0.4,22.7 0.7,22.5 C1.6,21.7 6.3,20.2 6.3,20.2 C6.3,20.2 6.1,21.6 6.7,21.8 C7.3,21.9 13,20.2 14.4,19.6 C16.7,18.7 17.2,17.9 17.4,18.1 C17.6,18.3 17.1,21.7 17.1,21.7 Z" fill="#161711"></path>
                    </g>
                    <path d="M42.4,48.5 L44.1,64.7 L35.1,64 L32.8,39.8 C32.8,39.8 34.3,33.9 38.4,35.5 C41.1,36.6 42.4,48.5 42.4,48.5 Z" id="Shape" fill="#163F59"></path>
                    <path d="M46.3,41.7 L59.6,65.7 C59.6,65.7 65.8,72.2 63.7,73.7 C60.7,75.8 51.7,73 50,71.5 C46.7,68.6 49.2,70.2 41.3,56.5 C34.1,44 30.9,38.9 36.5,35.4 C41.5,32 46.3,41.7 46.3,41.7 Z" id="Shape" fill="#163F59"></path>
                    <path d="M95.8,79.4 C95.8,79.4 73.8,80.2 74.3,80.2 C74.8,80.2 77.8,74.6 77.8,74.6 L92.7,76.8 L95.8,79.4 Z" id="Shape" fill="#FFFFFF"></path>
                    <polygon id="Shape" fill="#FFFFFF" points="89.9 79.1 91.5 75.4 100.9 77.3 105.4 79.4 94.7 79.4"></polygon>
                    <path d="M92.5,73.2 L94.3,73.9 L94.6,75.6 L102.2,77 L108,79.5 C108,79.5 107.8,79.9 107.5,80 C106.3,80.3 101.5,79.5 101.5,79.5 C101.5,79.5 102.3,78.3 101.8,77.9 C101.3,77.5 95.4,76.5 94,76.4 C91.5,76.2 90.7,76.6 90.6,76.4 C90.5,76 92.5,73.2 92.5,73.2 Z" id="Shape" fill="#161711"></path>
                    <path d="M46.8,71.3 L81,73 L78.2,81.4 L35.2,80.8 C35.2,80.8 29.3,77.1 31.9,72.9 C33.4,70.4 46.8,71.3 46.8,71.3 Z" id="Shape" fill="#194866"></path>
                    <path d="M39.6,33.7 C42.3,38.9 48.7,40.9 54,38.2 C59.3,35.5 61.4,29.1 58.8,23.9 C56.1,18.7 49.7,16.7 44.4,19.4 C39.1,22.1 36.9,28.5 39.6,33.7 Z" id="Shape" fill="#282723"></path>
                    <path d="M33.3,21.2 C35.8,26.2 42,28.1 47.1,25.5 C52.2,22.9 54.2,16.8 51.7,11.8 C49.2,6.8 43,4.9 37.9,7.5 C32.8,10 30.7,16.2 33.3,21.2 Z" id="Shape" fill="#282723"></path>
                    <path d="M22.7,18.1 C24.7,21.9 29.3,23.4 33.1,21.5 L33.1,17.3 C36.9,15.3 38.4,10.7 36.5,6.9 L35.2,4.3 C33.2,0.5 28.6,-1 24.8,0.9 L23.1,1.8 C19.3,3.8 17.8,8.4 19.7,12.2 L22.7,18.1 Z" id="Shape" fill="#282723"></path>
                    <path d="M20.2,6.5 C20.5,7.1 20.9,7.8 21.4,8.4 C24.4,12.5 28.8,14.5 32,13.4 C33.1,15.4 34.4,17 35.7,18.3 C37.1,19.8 40.1,20.6 40.1,20.6 C42.2,23.4 34.6,32.9 34,32.8 C32.7,32.5 32.5,27.6 32.9,25.9 C33.2,24.4 33.3,23 33.1,22.2 C32.5,19.6 31.5,19.2 30,18.3 C27.4,17.2 25,18.5 25,18.5 C24.8,18.6 24.5,18.6 24.3,18.5 C23.9,18.1 23.6,17.7 23.3,17.2 L20.4,11.5 C19.5,9.8 19.5,8 20.2,6.5 Z" id="Shape" fill="#FFFFFF"></path>
                    <path d="M65.5,62.2 C65.5,62.2 64.4,66.6 63.7,67.3 C62.8,68.3 59.1,69 59.1,69 C59.1,69 51.4,57.9 47.6,52.9 C43.8,47.9 41.4,44.6 40.5,42.9 C39,40.2 38.9,39.4 38.2,37.1 C37.5,34.7 34.7,30.3 35.6,30.5 C36.7,30.7 37.7,27.6 37.6,26.2 C37.6,25.4 65.5,62.2 65.5,62.2 Z" id="Shape" fill="#B0BFDE"></path>
                    <path d="M30.9,21.6 C30.9,21.6 32.2,29.7 32.6,31.2 C33.2,33.5 34.4,37.7 38.5,43.1 C42.6,48.5 44.1,49.5 46.6,53.7 C49.1,57.9 48.6,59.4 51.8,64.5 C54.3,68.5 56.9,71.8 56.9,71.8 C56.9,71.8 59.1,71.3 59.6,69 C60.2,66.7 49.7,54.2 47.2,51 C44.8,47.8 39.3,39.4 38,36.9 C36.8,34.4 34.1,25 34.1,24 C34.3,21.3 31.3,21.6 30.9,21.6 Z" id="Shape" fill="#AD5C49"></path>
                    <path d="M30.7,21.2 C30.7,21.2 31.1,21.4 31.5,21.5 C32.2,21.6 33.2,21.9 33.2,21.9 C33.2,21.9 32.2,21.9 32.3,22.8 C32.4,23.8 33.2,25.9 33.2,25.9 C33.2,25.9 30.4,24.3 30.4,23.3 C30.2,21.5 30.7,21.2 30.7,21.2 Z" id="Shape" fill="#854638"></path>
                    <path d="M39.4,66.3 L71.3,59.1 C71.3,59.1 80.6,54.5 81.8,57.1 C83.6,60.7 78.1,69.1 75.9,70.4 C71.6,73 74.1,70.9 55.9,75.3 C39.2,79.4 32.4,81.2 29.4,74.7 C26.6,68.6 39.4,66.3 39.4,66.3 Z" id="Shape" fill="#194866"></path>
                    <path d="M64.1,66.2 C64.1,66.2 56.2,52.9 51.6,46.8 C47,40.8 39,28.5 37.9,27.1 C36.8,25.6 35.8,23.2 35.8,23.2 C35.8,23.2 35.5,18.7 37.9,17.5 C39.9,16.5 44,16.3 47.7,15.8 C50.2,15.4 63.7,39.1 64.5,40.1 C67.5,43.9 74.3,47 77.6,49.5 C80.2,51.5 83.3,55 83.3,55 C83.3,55 69.7,60.5 64.1,66.2 Z" id="Shape" fill="#AD5C49"></path>
                    <polygon id="Shape" fill="#854638" points="36.5 17 36 19.5 35.4 23.2 38.2 25.1 38.4 17.3"></polygon>
                    <path d="M52.2,48.1 L44.6,23.3 C44.6,23.3 44.7,16.7 46.8,16 C49.9,14.9 51.9,19 52.9,20.6 C55,23.8 54.5,22 57.8,35.2 C60.8,47.3 61.1,50.9 57,52 C53.3,53 52.2,48.1 52.2,48.1 Z" id="Shape" fill="#854638"></path>
                    <path d="M51.3,67.7 C51.3,67.7 49.5,75.6 49.1,76.2 C48.7,76.9 48.1,77 46.8,78 C45.4,79.1 45.2,79.3 44.2,80.2 C43.2,81.1 43.1,81.2 43.1,81.2 C43.1,81.2 43.7,81.7 44.2,81.4 C44.6,81.2 45.5,80.4 45.9,80.2 C46.3,80 45.2,80.9 44,82.5 C42.8,84.1 41.8,85.9 41.5,86.7 C41.3,87.2 41.2,87.3 41.3,87.3 C41.5,87.5 41.7,87.6 41.9,87.4 C42.1,87.3 42.5,86.6 42.5,86.7 C42.5,86.9 42,88.1 41.9,88.3 C41.8,88.5 41.6,88.8 41.6,88.9 C41.5,89.3 41.9,89.4 42.5,89.1 C42.5,89.1 42.8,89.2 43,89.1 C43.1,89 43.2,89 43.2,89 C43.3,88.9 43.4,88.8 43.5,88.8 C43.9,88.5 44.2,88.2 44.5,87.9 C44.6,87.8 45.5,86.6 45.6,86.6 C45.6,86.6 45,87.7 45.1,87.7 C45.3,87.8 45.6,87.8 45.7,87.6 C45.9,87.3 46.3,86.8 47.2,85.5 C48.2,84 48.3,83.7 49.9,82.1 C51.4,80.8 51.5,80.1 51.7,78.6 C52.3,73.5 56.5,65.8 56.7,64.3 C56.8,63.1 51.3,67.7 51.3,67.7 Z" id="Shape" fill="#FFFFFF"></path>
                    <path d="M52.6,44.8 C52.6,44.8 51.9,43.3 57.1,44.4 C60,45 60.5,43.2 60.4,46.1 C60.2,52.4 58,66.9 58,66.9 L49.7,69 L52.6,44.8 Z" id="Shape" fill="#854638"></path>
                </g>
                <g id="Group" transform="translate(284.000000, 286.000000)">
                    <polygon id="Shape" fill="url(#linearGradient-6)" points="25.1 9.5 25.1 16.4 33 23.3 33 2.6"></polygon>
                    <path d="M25.9,23.3 C25.9,24.6 24.8,25.7 23.5,25.7 L2.9,25.7 C1.6,25.7 0.5,24.6 0.5,23.3 L0.5,2.7 C0.5,1.4 1.6,0.3 2.9,0.3 L23.5,0.3 C24.8,0.3 25.9,1.4 25.9,2.7 L25.9,23.3 Z" id="Shape" fill="url(#linearGradient-7)"></path>
                    <polygon id="Shape" fill="#FFFFFF" points="11.6 9 11.6 16.9 17.1 12.9"></polygon>
                </g>
                <rect id="Rectangle-path" fill="#194866" transform="translate(117.094740, 81.686870) rotate(-74.359960) translate(-117.094740, -81.686870) " x="53.9430615" y="81.1868567" width="126.303357" height="1.00002658"></rect>
                <rect id="Rectangle-path" fill="#194866" transform="translate(134.675895, 21.098990) rotate(-34.805676) translate(-134.675895, -21.098990) " x="133.525885" y="20.5989855" width="2.30002053" height="1.00000892"></rect>
                <g id="Group" transform="translate(0.000000, 370.000000)">
                    <polygon id="Shape" fill="#FFFFFF" points="0.5 38 7.1 0.3 57.7 0.3 51.1 38"></polygon>
                    <polygon id="Shape" fill="#5FB4C9" points="10.7 4.7 7.8 21.6 17.3 11.4 23.1 21.5 29.2 14.9 33.9 23.2 35 25.1 48.9 25.1 52.5 4.7"></polygon>
                    <path d="M44.9,12.5 C44.6,14.5 42.7,16.1 40.7,16.1 C38.7,16.1 37.4,14.5 37.8,12.5 C38.1,10.5 40,8.9 42,8.9 C43.9,8.9 45.3,10.5 44.9,12.5 Z" id="Shape" fill="#FFFFFF"></path>
                </g>
                <path d="M305,286.4 C305,287.4 304.2,288.2 303.2,288.2 L299.2,288.2 C298.2,288.2 297.4,287.4 297.4,286.4 C297.4,285.4 298.2,284.6 299.2,284.6 L303.2,284.6 C304.2,284.7 305,285.4 305,286.4 Z" id="Shape" fill="#FFFFFF"></path>
                <g id="Group" transform="translate(282.000000, 305.000000)" fill="#FFFFFF">
                    <path d="M0.6,7.6 L2.6,6.5 C2.6,6.5 5.2,2.4 6.3,2.2 C7.4,2 9.1,0.7 9.1,0.7 C9.1,0.7 10,0.7 9.1,2.4 C8.1,4.1 8.1,4.1 8.1,4.1 C8.1,4.1 7.4,7.4 6.6,7.8 C5.8,8.2 0.3,9.2 0.3,9.2 L0.6,7.6 Z" id="Shape"></path>
                    <path d="M2.5,10.5 L4.9,9.9 C4.9,9.9 6.4,9.9 8.2,9.4 C9.9,8.8 10.4,7.4 10.2,5.6 C9.9,3.9 9.3,3.2 9.3,3.2 C9.3,3.2 7.1,2.6 6.1,4.2 C5.2,5.8 1.1,7.8 1.5,8.4 C1.7,9 2.5,10.5 2.5,10.5 Z" id="Shape"></path>
                    <polygon id="Shape" points="8.2 2.9 11.7 2.3 15 2 14.8 2.7 12.5 3.3 9.5 5.8 9 4.8"></polygon>
                    <polygon id="Shape" points="12.6 4.5 15.5 5 15.5 5.7 12.5 5.7 9.6 6.7 9 4.8"></polygon>
                    <polygon id="Shape" points="15.1 6.9 12.9 6.4 11.4 5.8 9.7 6.2 9.6 7.8 11.4 7.3 14.6 7.6"></polygon>
                    <polygon id="Shape" points="14.1 8.9 10.2 7.3 9 7.7 8.9 8.8 10.9 8.9 13.4 9.3"></polygon>
                </g>
                <rect id="Rectangle-path" fill="#5FB4C9" transform="translate(150.800932, 163.945511) rotate(-5.308812) translate(-150.800932, -163.945511) " x="101.401452" y="138.195782" width="98.7989602" height="51.499458"></rect>
                <g id="Group" transform="translate(68.000000, 180.000000)">
                    <g transform="translate(0.000000, 10.000000)">
                        <path d="M60.8,18.5 C60.8,18.5 62,9.2 55.8,3.1 C54.7,2.1 54.7,0.3 55.6,0.2 C56.7,0.1 57.8,0.5 59.6,1.5 C63.4,3.6 67.9,7.6 69.6,13 C72.1,21 72.5,24.3 70.5,26.6 C68.7,29 60.8,18.5 60.8,18.5 Z" id="Shape" fill="#FFFFFF"></path>
                        <path d="M45.4,76.1 L80,91.1 L69.2,92.5 C69.2,92.5 36.3,98 35.8,85.8 C35.2,73.6 45.4,76.1 45.4,76.1 Z" id="Shape" fill="#163F59"></path>
                        <path d="M22.4,90.3 C22.3,91.1 22.7,95.7 23.9,97.1 C27.4,101.4 33.5,96.3 38.9,95.1 C39.2,95 45.7,85.4 45.7,85.4 L47.7,79.5 L24.6,80.3 C24.6,80.3 23.1,83.3 22.4,90.3 Z" id="Shape" fill="#194866"></path>
                        <path d="M34.3,100.8 C34.3,100.8 32.1,98.9 33.9,97.9 C39.1,95.1 54,90.7 60.8,90.5 C69.8,90.2 72.7,90.2 72.7,90.2 C72.7,90.2 78.4,90 80.3,91.3 C84.3,93.9 79.2,101 79.2,101 L34.3,100.8 Z" id="Shape" fill="#163F59"></path>
                        <path d="M33.7,97.6 L31.1,98.1 L31.1,100.8 L31.9,101 C31.9,101 31.1,102.9 31.1,103.4 C31.1,103.9 31.1,110.3 31.1,110.3 L32.1,110.3 C32.1,110.3 33.7,103 35.1,101.9 C35.1,101.9 34.5,101.5 34.4,101.1 C34,99.8 33.7,97.6 33.7,97.6 Z" id="Shape" fill="#282723"></path>
                        <path d="M1.1,154.6 C1.1,154.6 0.9,153.2 2.5,151.5 C4.3,149.6 4.7,150 4.7,150 L5.4,153.6 L1.1,154.6 Z" id="Shape" fill="#D1DBEA"></path>
                        <path d="M63.1,46.3 C63.1,46.3 65.7,52.3 71.8,38.3 C75.2,30.5 73.8,22.7 73.8,22.7 L71,16.4 L59.4,19 L60.5,24.4 L61.4,24.6 C61.4,24.6 62,25.6 61.5,26.5 C61,27.4 60,31.8 56,39.5 C54.1,43 62.1,46 63.1,46.3 Z" id="Shape" fill="#C9C8B6"></path>
                        <path d="M65.7,26.5 L62.7,26.3 L61.5,26.1 C61.7,25.3 61.3,24.6 61.3,24.6 L63.5,25.2 L66.2,25.4 L69.8,24.6 L65.7,26.5 Z" id="Shape" fill="#DBDAC6"></path>
                        <path d="M49,86.1 C49,86.1 49.4,84.1 47.5,83.7 C45.6,83.3 40.9,84.8 40.9,84.8 C40.9,84.8 41.9,85.2 43.2,85.6 C44.6,86 46.2,86.3 46.2,86.3 L49,86.1 Z" id="Shape" fill="#FFFFFF"></path>
                        <path d="M44.8,86.9 L23.8,81.4 C23.8,81.4 30.8,58.3 32.7,54.1 C35.2,48.9 41.4,43.6 41.4,43.6 C41.4,43.6 51,38.2 57.4,40.3 C66.6,43.4 65.4,44.4 65.4,44.4 C65.4,44.4 65.5,70.8 44.8,86.9 Z" id="Shape" fill="#C9C8B6"></path>
                        <path d="M46.9,80.3 C47.6,80.6 48.2,80.9 48.9,81.2 C54.4,69.2 57.7,56.4 58.4,43.5 C57.8,43.5 57.1,43.5 56.5,43.5 C55.7,56.2 52.4,68.7 46.9,80.3 Z" id="Shape" fill="#DBDAC6"></path>
                        <path d="M6.7,152.8 L2.3,151.2 C2.3,151.2 10.4,133.1 14.9,128.1 C20.9,121.4 26.3,117.9 26.3,117.9 L35.2,122 L6.7,152.8 Z" id="Shape" fill="#194866"></path>
                        <path d="M41.2,91.3 L35.1,122 L26.4,118.3 C26.4,118.3 16.3,83.6 28.5,83.4 C38.8,83.2 41.2,91.3 41.2,91.3 Z" id="Shape" fill="#194866"></path>
                        <path d="M59.9,96 L66.2,100 L70.3,100.2 C70.3,100.2 70.2,100.7 70,100.8 C68.9,101.2 65.6,100.8 65.6,100.8 C65.6,100.8 63.1,100 62.3,100.1 C61.4,100.2 59.1,101.2 59,101 C58.5,100.2 59.7,100.4 60,99.8 C60.5,99.1 60.3,97.8 60.3,97.8 L59.9,96 Z" id="Shape" fill="#FFFFFF"></path>
                        <path d="M47.7,82.1 L60.6,96.6 L61.7,98.3 C61.7,98.3 60.7,97.4 60.1,97.2 C57.4,96.4 48.5,92.4 45.8,89.9 C42.4,86.8 40,83.2 40,83.2 L47.7,82.1 Z" id="Shape" fill="#FFFFFF"></path>
                        <path d="M46.3,60.7 L48.6,80 L47.6,81.1 L48.8,81.9 L42.3,86.6 L36.6,82.7 L34,56.2 C34,56.2 34.3,48.6 41.7,45.7 C45.3,44.2 46,59.1 46.3,60.7 Z" id="Shape" fill="#DBDAC6"></path>
                        <path d="M40,82.9 C40,82.9 45.3,81.5 48,80.6 L47.6,81.1 L48.8,81.9 L46.5,83.5 L43,85.3 L41.8,84.3 L42.7,83.5 L40,82.9 Z" id="Shape" fill="#C9C8B6"></path>
                        <g transform="translate(39.000000, 23.000000)">
                            <g id="Shape">
                                <path d="M10.8,6.3 C11.6,7.3 11.4,8.7 10.4,9.5 L3.7,14.9 C2.7,15.7 1.3,15.5 0.5,14.5 C-0.3,13.5 -0.1,12.1 0.9,11.3 L7.6,5.9 C8.5,5.2 10,5.3 10.8,6.3 Z" fill="#163F59"></path>
                                <path d="M12,10.4 C13.5,12.2 13.2,14.9 11.4,16.3 L7.9,19.1 C6.1,20.6 3.4,20.3 2,18.5 C0.5,16.7 0.8,14 2.6,12.6 L6.1,9.8 C7.9,8.3 10.5,8.6 12,10.4 Z" fill="#163F59"></path>
                                <path d="M18.9,13.5 L10.6,3.2 C9.3,1.6 9.3,4.3 7.6,5.6 L6,6.9 C4.4,8.2 4.1,10.6 5.4,12.2 L11.3,19.5 L18.9,13.5 Z" fill="#FFFFFF"></path>
                                <path d="M8.6,13.5 C9.2,14.2 9.1,15.3 8.3,15.8 C7.6,16.4 6.5,16.3 5.9,15.5 C5.3,14.8 5.4,13.7 6.2,13.2 C7,12.6 8.1,12.8 8.6,13.5 Z" fill="#FFFFFF"></path>
                                <path d="M15.4,11 C15.7,11.4 16.3,11.5 16.7,11.2 L17.3,10.7 C17.7,10.4 17.8,9.8 17.4,9.4 C17.4,9.4 12.9,6.6 12.5,6.9 C12.5,6.9 12.4,7.5 12.8,7.9 L15.4,11 Z" fill="#FFFFFF"></path>
                                <path d="M14.3,16.3 C11.3,18.7 10.3,18 9.4,17.1 C9.4,17.1 10.7,20.3 11.4,21.2 L12.2,22.1 C13.7,23.9 16.7,23.9 19,22 L23.2,18.7 L19.5,14.1 L18.6,13 L14.3,16.3 Z" fill="#163F59"></path>
                                <path d="M16.9,11 L14.5,12.9 C13.4,13.8 13.2,15.4 14.1,16.5 C14.2,16.7 14.4,16.8 14.6,16.9 L18.9,13.5 L16.9,11 Z" fill="#163F59"></path>
                                <path d="M15.5,15.6 L16,16.3 C16.1,16.5 16.4,16.5 16.6,16.4 L18.5,14.9 C18.7,14.8 18.7,14.5 18.6,14.3 L18.1,13.6 L15.5,15.6 Z" fill="#FFFFFF"></path>
                                <path d="M8.1,2.2 L2,7.1 C1.3,7.6 1.2,8.6 1.8,9.2 L3.7,11.6 L11,5.8 L8.1,2.2 Z" fill="#163F59"></path>
                                <path d="M13.3,1 C14.1,2 13.9,3.4 12.9,4.2 L8.8,7.5 C7.8,8.3 6.4,8.1 5.6,7.1 C4.8,6.1 5,4.7 6,3.9 L10.1,0.6 C11.1,-0.2 12.5,-1.6417423e-14 13.3,1 Z" fill="#163F59"></path>
                            </g>
                            <rect id="Rectangle-path" fill="#163F59" transform="translate(6.235495, 11.720365) rotate(-38.764505) translate(-6.235495, -11.720365) " x="5.18553002" y="8.92045838" width="2.09992996" height="5.59981324"></rect>
                            <rect id="Rectangle-path" fill="#163F59" transform="translate(7.229110, 8.544250) rotate(-38.797603) translate(-7.229110, -8.544250) " x="4.12896753" y="5.29410063" width="6.20028495" height="6.50029873"></rect>
                            <path d="M8,12.2 C6.9,10.8 7.1,8.9 8.5,7.8 L9.8,6.8 C11.2,5.7 12.8,6.2 13.8,7.6 C14.9,9 14.7,10.9 13.3,12 L12.4,12.7 C11.1,13.8 9.1,13.5 8,12.2 Z" id="Shape" fill="#FFFFFF"></path>
                        </g>
                        <path d="M1.1,152.6 L0.4,155.1 L2.4,156.1 L2.9,155.4 C2.9,155.4 4.2,156.9 4.7,157.2 C4.8,157.3 5.3,157.6 5.9,157.8 C7,158.2 11.5,157.9 11.5,157.9 L11.9,157 C11.9,157 8.8,157.4 6.9,155.5 C5.9,154.5 5.1,153.5 5,152.9 C5,152.9 4.4,153.3 3.9,153.2 C2.8,153.1 1.9,152.7 1.1,152.6 Z" id="Shape" fill="#282723"></path>
                    </g>
                    <g transform="translate(54.000000, 0.000000)" fill="#FFFFFF" id="Shape">
                        <path d="M2.5,13.5 L3.7,12.3 C3.7,12.3 8.6,11.7 9.2,10.8 C9.8,9.9 11.8,8.9 11.8,8.9 C11.8,8.9 12.2,8.1 10.3,8.2 C8.3,8.3 8.3,8.3 8.3,8.3 C8.3,8.3 5,7.5 4.3,8.1 C3.6,8.7 1,11.5 1,11.5 L2.5,13.5 Z"></path>
                        <path d="M0,10.8 L1.6,8.9 C1.6,8.9 2.2,7.5 3.5,6.2 C4.8,4.9 6.3,5.1 7.7,6 C9.1,7 9.5,7.9 9.5,7.9 C9.5,7.9 9.1,10.2 7.2,10.4 C5.4,10.6 1.8,13.4 1.4,12.8 C1,12.1 0,10.8 0,10.8 Z"></path>
                        <polygon points="9.3 8.9 11.3 5.9 13 3 12.3 2.9 10.8 4.8 7.2 6.4 7.9 7.3"></polygon>
                        <polygon points="9.7 4.2 10.5 1.3 9.8 1 8.6 3.7 6.4 6 7.9 7.3"></polygon>
                        <polygon points="8.6 0.8 8.1 3.1 8 4.7 6.9 6 5.4 5.4 6.7 4 7.8 1"></polygon>
                        <polygon points="6.3 0.9 6.2 5.1 5.3 6 4.3 5.7 5 3.8 5.7 1.3"></polygon>
                    </g>
                </g>
            </g>
        </g>
    </g>
</svg>