<?xml version="1.0" encoding="UTF-8"?>
<svg width="102px" height="115px" viewBox="0 0 102 115" version="1.1" xmlns="http://www.w3.org/2000/svg" xmlns:xlink="http://www.w3.org/1999/xlink">
    <!-- Generator: Sketch 48 (47235) - http://www.bohemiancoding.com/sketch -->
    <title>Page 1</title>
    <desc>Created with Sketch.</desc>
    <defs>
        <polygon id="path-1" points="0.732045098 0.246 67.6727912 0.246 67.6727912 81.4763 0.732045098 81.4763"></polygon>
        <polygon id="path-3" points="6.48637596e-06 0.273606121 11.424491 0.273606121 11.424491 11 6.48637596e-06 11"></polygon>
        <polygon id="path-5" points="0 0.494 11.424872 0.494 11.424872 8.99978371 0 8.99978371"></polygon>
    </defs>
    <g id="Page-1" stroke="none" stroke-width="1" fill="none" fill-rule="evenodd">
        <g transform="translate(0.000000, -1.000000)">
            <path d="M55.6008,103.3569 L82.4798,103.0309 C83.4248,103.0189 84.1858,102.2489 84.1748,101.2969 C84.1638,100.3479 83.3838,99.5879 82.4378,99.5989 L55.5588,99.9269 C54.6088,99.9389 53.8518,100.7149 53.8638,101.6679 C53.8758,102.6169 54.6508,103.3699 55.6008,103.3569" id="Fill-1" fill="#282D33"></path>
            <g id="Group-5" transform="translate(34.000000, 0.754000)">
                <mask id="mask-2" fill="white">
                    <use xlink:href="#path-1"></use>
                </mask>
                <g id="Clip-4"></g>
                <path d="M0.7346,34.1273 C0.5086,15.6333 15.3046,0.4733 33.7956,0.2483 C52.2886,0.0233 67.4476,14.8193 67.6726,33.3133 C67.6856,34.4023 67.0716,49.8813 54.6616,66.2733 C51.0266,71.2243 51.7566,81.0613 51.7866,81.0613 C46.6046,81.1223 42.3406,81.1753 37.1486,81.2383 C35.5606,81.2593 33.9756,81.2763 32.3956,81.2963 C27.2126,81.3593 22.8696,81.4133 17.6896,81.4763 C17.7206,81.4763 18.2776,71.6213 14.5406,66.7603 C1.7176,50.6643 0.7466,35.2163 0.7346,34.1273" id="Fill-3" fill="#DBE4E9" mask="url(#mask-2)"></path>
            </g>
            <path d="M57.9924,77.7866 C57.7114,73.5736 56.5824,65.6536 53.9304,62.2086 C41.7494,46.9146 41.0334,32.3096 41.0294,32.1656 C40.8354,16.1356 53.7334,2.9196 69.7794,2.7246 C85.8314,2.5306 99.0474,15.4276 99.2424,31.4746 C99.2394,31.6026 98.8714,46.2266 87.1134,61.7516 C84.5044,65.2966 83.5394,73.2556 83.3364,77.4776 L57.9924,77.7866 Z" id="Fill-6" fill="#E4EEF3"></path>
            <path d="M94.592,36.7593 C93.147,36.7773 91.959,35.6223 91.944,34.1783 C91.784,21.0853 81.002,10.5703 67.911,10.7283 C66.464,10.7453 65.28,9.5883 65.263,8.1473 C65.245,6.6973 66.402,5.5103 67.85,5.4923 C83.828,5.2973 96.985,18.1393 97.18,34.1143 C97.196,35.5603 96.04,36.7393 94.592,36.7593" id="Fill-8" fill="#FFFFFF"></path>
            <polygon id="Fill-10" fill="#484F59" points="60.2414 84.7173 55.4774 50.2683 57.2194 49.7213 61.9844 84.1673"></polygon>
            <polygon id="Fill-12" fill="#484F59" points="77.2834 84.5093 81.2134 49.9543 79.4554 49.4513 75.5294 84.0043"></polygon>
            <path d="M79.8332,54.2905 C78.6322,54.3065 78.0992,53.1405 77.7092,52.2905 C77.5452,51.9355 77.2052,51.1985 77.0172,51.2015 C76.8302,51.2035 76.5092,51.9485 76.3562,52.3085 C75.9882,53.1655 75.4792,54.3445 74.2772,54.3595 C73.0772,54.3755 72.5432,53.2065 72.1502,52.3585 C72.0652,52.1635 71.9262,51.8555 71.7812,51.6165 C71.1852,52.7605 70.0882,54.4105 68.7282,54.4265 C67.5262,54.4415 66.9882,53.2745 66.6012,52.4265 C66.4362,52.0715 66.0952,51.3345 65.9092,51.3355 C65.7242,51.3395 65.4002,52.0815 65.2452,52.4415 C64.8772,53.3005 64.3722,54.4795 63.1672,54.4945 C61.9662,54.5095 61.4302,53.3435 61.0412,52.4925 C60.8762,52.1385 60.5402,51.4015 60.3482,51.4025 C60.1602,51.4055 59.8382,52.1515 59.6842,52.5105 C59.3132,53.3685 58.8062,54.5475 57.6042,54.5635 L57.5842,52.9975 C57.7682,52.9965 58.0962,52.2545 58.2492,51.8935 C58.6192,51.0305 59.1292,49.8565 60.3302,49.8435 C61.5312,49.8295 62.0682,50.9895 62.4562,51.8425 C62.6212,52.1975 62.9612,52.9325 63.1482,52.9305 C63.3352,52.9275 63.6582,52.1865 63.8132,51.8245 C64.1842,50.9645 64.6872,49.7895 65.8912,49.7755 C67.0932,49.7615 67.6262,50.9225 68.0192,51.7725 C68.1812,52.1315 68.5192,52.8645 68.7092,52.8635 C69.1662,52.8585 70.1382,51.5775 70.7392,50.1775 C70.8632,49.8975 71.1382,49.7135 71.4472,49.7085 C72.6472,49.6935 73.1822,50.8545 73.5712,51.7065 C73.7352,52.0625 74.0752,52.7975 74.2592,52.7955 C74.4462,52.7935 74.7682,52.0525 74.9212,51.6935 C75.2892,50.8295 75.7972,49.6555 76.9972,49.6405 C78.2002,49.6255 78.7352,50.7865 79.1272,51.6405 C79.2912,51.9965 79.6282,52.7305 79.8142,52.7275 L79.8332,54.2905 Z" id="Fill-14" fill="#484F59"></path>
            <path d="M85.8264,81.853 L86.0384,99.352 C86.0534,100.55 85.0974,101.539 83.8944,101.552 L54.1854,101.914 C52.9884,101.928 52.0034,100.964 51.9884,99.765 L51.7754,82.267 L85.8264,81.853 Z" id="Fill-16" fill="#282D33"></path>
            <path d="M86.549,85.2485 L51.096,85.6805 C50.149,85.6915 49.373,84.9375 49.363,83.9865 C49.35,83.0395 50.109,82.2605 51.052,82.2485 L86.508,81.8185 C87.457,81.8075 88.234,82.5665 88.245,83.5145 C88.257,84.4645 87.499,85.2375 86.549,85.2485" id="Fill-18" fill="#282D33"></path>
            <path d="M70.8625,84.5679 L51.1965,84.8069 C50.6695,84.8129 50.2355,84.3919 50.2295,83.8689 C50.2235,83.3429 50.6465,82.9139 51.1725,82.9079 L70.8405,82.6679 C71.3675,82.6609 71.7995,83.0829 71.8055,83.6059 C71.8115,84.1309 71.3905,84.5619 70.8625,84.5679" id="Fill-20" fill="#484F59"></path>
            <path d="M86.6174,90.9683 L51.1654,91.3983 C50.2194,91.4093 49.4424,90.6533 49.4304,89.7013 C49.4214,88.7583 50.1784,87.9803 51.1234,87.9703 L86.5764,87.5383 C87.5274,87.5273 88.3034,88.2863 88.3154,89.2283 C88.3264,90.1813 87.5674,90.9553 86.6174,90.9683" id="Fill-22" fill="#282D33"></path>
            <path d="M86.6887,96.686 L51.2347,97.118 C50.2887,97.129 49.5127,96.371 49.5007,95.425 C49.4897,94.475 50.2487,93.697 51.1917,93.685 L86.6467,93.255 C87.5967,93.244 88.3717,94.002 88.3817,94.952 C88.3957,95.898 87.6377,96.675 86.6887,96.686" id="Fill-24" fill="#282D33"></path>
            <path d="M70.9279,90.0269 L51.2609,90.2649 C50.7359,90.2719 50.3029,89.8479 50.2959,89.3249 C50.2909,88.7979 50.7129,88.3689 51.2399,88.3629 L70.9069,88.1239 C71.4339,88.1179 71.8659,88.5359 71.8709,89.0609 C71.8759,89.5869 71.4559,90.0209 70.9279,90.0269" id="Fill-26" fill="#484F59"></path>
            <path d="M70.9992,95.8062 L51.3322,96.0442 C50.8062,96.0522 50.3732,95.6292 50.3672,95.1072 C50.3602,94.5822 50.7832,94.1522 51.3102,94.1452 L70.9762,93.9062 C71.5032,93.8992 71.9362,94.3202 71.9412,94.8442 C71.9492,95.3682 71.5262,95.7982 70.9992,95.8062" id="Fill-28" fill="#484F59"></path>
            <polygon id="Fill-30" fill="#30363D" points="73.2785 87.1636 56.4765 87.3686 56.4545 85.6236 73.2575 85.4206"></polygon>
            <polygon id="Fill-32" fill="#30363D" points="73.3469 92.7339 56.5439 92.9379 56.5229 91.1929 73.3259 90.9879"></polygon>
            <polygon id="Fill-34" fill="#30363D" points="73.4133 98.2944 56.6103 98.5004 56.5903 96.7594 73.3923 96.5544"></polygon>
            <path d="M23.7229,69.6772 C22.8409,74.5982 26.2019,79.3162 31.2269,80.2142 C36.2509,81.1142 41.0389,77.8532 41.9169,72.9352 C42.7999,68.0132 39.4389,63.2952 34.4139,62.3982 C29.3889,61.4972 24.6019,64.7582 23.7229,69.6772" id="Fill-36" fill="#194866"></path>
            <path d="M31.9738,61.8843 C31.1578,66.4373 34.2688,70.8043 38.9198,71.6353 C43.5728,72.4683 48.0008,69.4503 48.8168,64.8973 C49.6308,60.3413 46.5228,55.9763 41.8708,55.1443 C37.2178,54.3113 32.7868,57.3303 31.9738,61.8843" id="Fill-38" fill="#194866"></path>
            <path d="M36.009,55.0356 C35.233,59.3816 37.902,63.4926 41.972,64.2216 C46.042,64.9476 49.97,62.0166 50.749,57.6716 C51.526,53.3276 48.855,49.2156 44.786,48.4886 C40.715,47.7596 36.786,50.6916 36.009,55.0356" id="Fill-40" fill="#194866"></path>
            <path d="M35.8957,65.6772 C34.9057,71.2112 38.6847,76.5182 44.3377,77.5302 C49.9917,78.5402 55.3757,74.8732 56.3647,69.3382 C57.3547,63.8042 53.5757,58.4972 47.9227,57.4862 C42.2707,56.4752 36.8837,60.1422 35.8957,65.6772" id="Fill-42" fill="#163F59"></path>
            <path d="M27.2893,68.9165 C26.6263,72.6175 29.1533,76.1645 32.9313,76.8405 C36.7103,77.5175 40.3103,75.0635 40.9723,71.3635 C41.6343,67.6655 39.1063,64.1185 35.3283,63.4405 C31.5503,62.7645 27.9513,65.2165 27.2893,68.9165" id="Fill-44" fill="#163F59"></path>
            <path d="M33.3469,62.9761 C32.6849,66.6751 35.2139,70.2221 38.9929,70.8991 C42.7719,71.5741 46.3709,69.1231 47.0339,65.4221 C47.6959,61.7231 45.1679,58.1751 41.3889,57.4981 C37.6109,56.8231 34.0089,59.2761 33.3469,62.9761" id="Fill-46" fill="#163F59"></path>
            <path d="M41.4494,51.1841 C41.5744,51.1711 41.7024,51.1651 41.8294,51.1651 C41.8274,52.6571 42.6724,54.5731 44.2094,56.2381 C44.5834,56.6401 44.9774,57.0001 45.3804,57.3231 L45.1374,58.6791 C44.7774,60.6881 42.7834,62.0111 40.6844,61.6361 C38.5834,61.2611 37.1734,59.3271 37.5334,57.3191 L38.0804,54.2601 C39.2484,53.7521 40.4734,52.6671 41.4494,51.1841" id="Fill-48" fill="#FFFFFF"></path>
            <path d="M34.8498,66.8706 C34.7488,66.2716 34.1738,65.2276 32.7568,65.7436 C31.2688,66.2856 30.2778,67.6436 30.0828,71.3776 C29.8908,75.1136 29.1178,78.0746 28.5388,80.1366 C27.9578,82.1976 30.5978,86.1896 32.0808,83.7426 C33.5618,81.2966 34.3988,75.1786 34.5278,73.5036 C34.6558,71.8286 34.9118,67.2566 34.8498,66.8706" id="Fill-50" fill="#FFFFFF"></path>
            <path d="M47.9875,60.8823 C47.9875,60.8823 44.7015,73.5683 46.1825,81.4893 C47.2305,87.0883 49.2545,83.2993 50.9165,82.7443 C50.9165,82.7443 50.8215,82.0353 50.8215,79.4283 C50.8215,75.1063 50.9695,71.1353 51.3365,68.7373 C51.9145,64.9393 51.9145,62.5563 51.1415,61.6543 C50.3705,60.7523 49.7245,60.2373 47.9875,60.8823" id="Fill-52" fill="#FFFFFF"></path>
            <path d="M50.2395,81.231 C50.2395,81.231 50.3705,80.202 51.7875,86.061 C53.2035,91.921 54.1055,102.032 55.5865,103.963 C57.0675,105.897 57.5825,104.737 57.3245,104.995 C56.4095,105.91 56.0375,106.796 55.0705,106.603 C54.1055,106.411 51.9795,102.546 49.7885,95.85 C47.5995,89.152 46.2485,84.581 46.6345,82.519 C47.0195,80.459 50.0475,80.717 50.2395,81.231" id="Fill-54" fill="#FFFFFF"></path>
            <path d="M37.8449,65.8394 C37.8449,65.8394 42.8979,64.1274 43.5939,63.7304 C44.2909,63.3314 41.7169,63.7304 43.8619,59.5114 C43.8889,59.4594 39.9729,57.2014 39.6249,57.1344 C39.2769,57.0684 38.9259,57.9984 38.9259,57.9984 C38.9259,57.9984 39.7619,62.0064 37.8449,65.8394" id="Fill-56" fill="#FFFFFF"></path>
            <path d="M53.01,103.8345 C53.01,103.8345 53.976,106.2175 54.554,106.4105 C55.135,106.6035 56.68,106.4105 57.646,106.0895 C58.612,105.7675 59.32,105.3155 59.836,105.2515 C60.349,105.1875 63.25,106.1125 64.084,106.1525 C64.966,106.1965 65.224,106.1965 65.697,106.0245 C66.167,105.8535 65.997,105.5105 65.997,105.5105 C65.997,105.5105 65.588,105.4675 64.322,105.2085 C62.54,104.8475 60.072,103.6225 59.428,103.2765 C58.311,102.6755 58.231,102.5885 57.582,102.8485 C56.831,103.1475 55.842,103.3805 54.92,103.5775 C53.717,103.8355 53.01,103.8345 53.01,103.8345" id="Fill-58" fill="#FFFFFF"></path>
            <path d="M53.9328,105.6392 C53.9328,105.6392 54.3368,106.7832 56.0368,107.3992 C57.2828,107.8482 57.4918,107.7642 58.1398,107.7422 C58.7828,107.7202 58.9988,107.6562 58.9988,107.6562 C58.9988,107.6562 59.1058,107.0982 58.3108,107.0112 C57.8668,106.9642 57.0248,106.4122 57.4108,106.1532 C57.7948,105.8972 53.9328,105.6392 53.9328,105.6392" id="Fill-60" fill="#FFFFFF"></path>
            <path d="M33.9485,94.1753 C33.9485,94.1753 32.6605,89.2803 32.5945,86.5123 C32.5315,83.7423 32.8515,78.8493 32.7885,78.6553 C32.7235,78.4613 30.9215,77.2393 31.0495,75.9503 C31.1775,74.6623 32.8515,71.2503 33.1755,70.2193 C33.4965,69.1893 33.4965,65.5813 33.4965,65.5813 C33.4965,65.5813 36.4595,66.2903 40.0005,65.0033 C43.5425,63.7143 47.9875,60.8823 47.9875,60.8823 C47.9875,60.8823 50.3705,61.1393 48.5665,71.8943 C46.7635,82.6483 46.2065,83.2873 46.1185,86.4473 C45.9895,91.0853 48.8235,96.3013 49.0805,100.2293 C49.3405,104.1563 34.8495,95.5923 33.9485,94.1753" id="Fill-62" fill="#AD5C49"></path>
            <path d="M36.3293,93.5962 C31.2513,91.5512 27.9583,91.7272 15.8523,93.0172 C13.0773,93.3122 7.4413,93.6942 4.6463,95.2702 C2.1353,96.6872 1.4313,100.3942 13.9993,102.8722 C25.4833,105.1352 40.3073,106.2062 44.1233,103.1272 C47.9393,100.0462 41.2893,95.5922 36.3293,93.5962" id="Fill-64" fill="#AEC4DB"></path>
            <path d="M33.6897,107.8276 C33.6897,107.8276 34.2047,108.1496 34.4637,107.9566 C34.7197,107.7646 35.4277,106.9266 36.5877,107.5706 C37.7467,108.2146 38.0697,108.9866 39.1647,109.0526 C40.2587,109.1146 42.9627,108.6646 43.7367,109.3086 C44.5087,109.9526 45.7337,112.3356 45.4107,114.0106 C45.0877,115.6836 44.5747,115.8776 44.0577,115.1046 C43.5427,114.3316 43.0917,113.8806 42.8347,113.7526 C42.5767,113.6226 39.6797,112.5296 38.7127,112.0136 C37.7467,111.4976 36.3947,110.9186 36.0087,110.7896 C35.6227,110.6626 33.4967,110.2746 33.3027,110.2746 C33.1107,110.2746 33.6897,107.8276 33.6897,107.8276" id="Fill-66" fill="#E4EEF3"></path>
            <path d="M43.7365,109.3091 C42.9635,108.6641 40.2585,109.1151 39.1645,109.0521 C38.0695,108.9871 37.7465,108.2141 36.5885,107.5711 C35.6715,107.0611 35.0335,107.3591 34.4555,107.9371 C34.4695,107.9471 34.6545,107.8431 34.8045,107.8601 C35.4435,107.9371 36.8325,109.0491 37.8435,109.4721 C38.9365,109.9261 40.9425,110.2901 41.8095,110.8831 C42.3595,111.2611 42.6315,112.5711 42.6895,113.6901 C42.7575,113.7181 42.8105,113.7401 42.8345,113.7521 C43.0915,113.8801 43.5425,114.3311 44.0575,115.1051 C44.5745,115.8771 45.0885,115.6841 45.4105,114.0101 C45.7335,112.3351 44.5085,109.9531 43.7365,109.3091" id="Fill-68" fill="#AD5C49"></path>
            <path d="M33.9485,110.5962 C33.9485,110.5962 15.4395,106.8752 11.2795,105.2512 C7.1195,103.6272 0.5895,102.5462 2.2765,98.0202 C3.8045,93.9142 8.4165,93.4342 14.4795,95.9712 C20.5435,98.5112 20.6185,98.6832 25.1255,101.4522 C30.8685,104.9812 34.2045,108.0222 34.2045,108.0222 L33.9485,110.5962 Z" id="Fill-70" fill="#C4D1E1"></path>
            <polygon id="Fill-72" fill="#163F59" points="43.3264 78.7017 43.8614 79.2347 41.6634 82.8017 38.3074 82.8967 37.7874 82.2107 39.7624 79.4737"></polygon>
            <path d="M32.469,81.7319 L37.045,80.5149 L38.707,80.6689 L37.982,81.8609 L39.472,82.7659 L41.205,82.5969 L42.18,81.8009 L42.256,82.9489 C42.256,82.9489 42.026,83.4609 41.496,83.7949 C40.97,84.1269 38.925,86.1469 38.925,86.1469 L37.792,85.6619 L35.251,84.4049 L33.262,85.1929 L32.469,81.7319 Z" id="Fill-74" fill="#FFFFFF"></path>
            <g id="Group-78" transform="translate(0.000000, 104.754000)">
                <mask id="mask-4" fill="white">
                    <use xlink:href="#path-3"></use>
                </mask>
                <g id="Clip-77"></g>
                <path d="M10.7004,1.2709 C10.7004,1.2709 10.2494,1.7219 10.5714,2.2369 C10.8934,2.7509 11.5374,3.1379 11.4074,3.7829 C11.2794,4.4259 11.1514,4.5549 10.4424,5.0699 C9.7344,5.5839 8.5114,6.2289 7.8024,7.7099 C7.0934,9.1899 6.1284,10.6079 4.3884,10.8659 C2.6494,11.1239 1.2974,10.9949 0.4604,10.6079 C-0.3766,10.2209 0.0744,9.7719 0.6544,9.5139 C1.2334,9.2559 2.4574,8.6129 3.2954,7.3239 C4.1314,6.0359 5.0324,4.9419 5.6124,3.9109 C6.1924,2.8799 6.9004,1.7859 7.4794,0.7559 C8.0594,-0.2751 10.7004,0.5619 10.7004,1.2709" id="Fill-76" fill="#FFFFFF" mask="url(#mask-4)"></path>
            </g>
            <g id="Group-81" transform="translate(0.000000, 106.754000)">
                <mask id="mask-6" fill="white">
                    <use xlink:href="#path-5"></use>
                </mask>
                <g id="Clip-80"></g>
                <path d="M8.3479,2.976 C7.2009,4.149 6.5769,5.452 4.9359,6.131 C4.0859,6.483 2.9779,6.499 2.5449,6.235 C1.8379,6.93 1.0759,7.327 0.6549,7.514 C0.0749,7.772 -0.3771,8.221 0.4599,8.608 C1.2969,8.995 2.6499,9.123 4.3889,8.866 C6.1279,8.608 7.0929,7.19 7.8019,5.71 C8.5109,4.229 9.7349,3.584 10.4429,3.07 C11.1519,2.555 11.2799,2.426 11.4079,1.783 C11.5149,1.25 11.0939,0.893 10.7639,0.494 C10.3619,1.122 9.4509,1.851 8.3479,2.976" id="Fill-79" fill="#AD5C49" mask="url(#mask-6)"></path>
            </g>
            <path d="M48.5666,97.0093 C48.5666,97.0093 41.7406,86.9623 36.2026,83.7423 C30.6636,80.5233 16.6246,68.8023 26.6706,89.1523 C31.8506,99.6473 35.4276,106.0253 40.1946,107.1823 C44.9596,108.3433 53.5896,107.1823 48.5666,97.0093" id="Fill-82" fill="#E4EEF3"></path>
            <path d="M5.9348,106.5396 C5.9348,106.5396 14.5638,89.6686 17.0108,85.9326 C19.4568,82.1976 23.7088,74.7276 25.5128,78.7196 C27.3158,82.7116 28.7308,85.6746 24.9968,91.0856 C21.2608,96.4936 21.2608,96.4936 16.4968,101.2606 C11.7308,106.0246 10.1858,106.9266 10.1858,106.9266 L5.9348,106.5396 Z" id="Fill-84" fill="#E4EEF3"></path>
        </g>
    </g>
</svg>