<?xml version="1.0" encoding="UTF-8"?>
<svg width="505px" height="386px" viewBox="0 0 505 386" version="1.1" xmlns="http://www.w3.org/2000/svg" xmlns:xlink="http://www.w3.org/1999/xlink">
    <!-- Generator: Sketch 48 (47235) - http://www.bohemiancoding.com/sketch -->
    <title>Data, Synchronization, Cloud, Web, Mobile, Computer, Optimization</title>
    <desc>Created with Sketch.</desc>
    <defs></defs>
    <g id="Desktop-HD" stroke="none" stroke-width="1" fill="none" fill-rule="evenodd" transform="translate(-830.000000, -200.000000)">
        <g id="Data,-Synchronization,-Cloud,-Web,-Mobile,-Computer,-Optimization" transform="translate(830.000000, 199.000000)" fill="#ED1E79">
            <g id="svg4624">
                <g id="layer1" transform="translate(0.000000, 0.024217)">
                    <g id="g8542" transform="translate(0.000000, -0.000315)">
                        <path d="M118.753848,1.0222525 C118.240367,0.964554043 117.818164,1.0167875 117.507695,1.05302134 C117.135904,1.10028288 117.075473,1.12369231 116.907694,1.16071385 C116.660638,1.15289359 116.413393,1.16834643 116.169233,1.20686789 L108.276926,2.46840596 C108.142353,2.48713099 108.008839,2.51280654 107.87692,2.54532962 C104.799406,3.37027978 102.839762,6.66781026 103.676921,9.79148288 L105.753845,17.5607158 C104.51961,18.3729841 103.355228,19.2612884 102.246157,20.2376409 L95.2923067,16.2376369 C92.5424729,14.6520123 88.8264005,15.6468724 87.2307722,18.4068706 C87.2256443,18.4068606 87.2205164,18.4068606 87.2153886,18.4068706 L83.2461519,25.2684032 C81.6470577,28.0370629 82.6175813,31.7465738 85.4153856,33.3607129 L92.3384606,37.3607168 C92.0399252,38.8162934 91.860607,40.2778014 91.7692268,41.7607109 L84.0461558,43.8222513 C84.0410279,43.8222413 84.0359001,43.8222413 84.0307722,43.8222513 C80.9534159,44.6469652 79.0092306,47.9448911 79.8461568,51.0684062 C79.8461468,51.073534 79.8461468,51.0786619 79.8461568,51.0837898 L80.3692318,52.991486 L81.3846144,56.8068706 L81.8923057,58.714559 C81.8922657,58.7248147 81.8922657,58.7350706 81.8923057,58.7453263 C82.7287562,61.866242 86.0182774,63.7706457 89.1538442,62.9299417 L96.8923067,60.8530255 C97.7133184,62.0911124 98.5982671,63.2652938 99.5846154,64.3760975 L95.5846193,71.2991724 C93.9840207,74.0705103 94.9442018,77.776319 97.7384615,79.3914821 L104.615386,83.3607109 C107.385384,84.9582297 111.09206,84.0011284 112.707695,81.2068687 C112.707705,81.2017408 112.707705,81.1966129 112.707695,81.191485 L116.723075,74.2530186 C118.174871,74.5468278 119.629116,74.7494144 121.107693,74.8376359 L123.169234,82.5760985 C124.008677,85.7082782 127.337977,87.574849 130.430772,86.7453302 L138.076925,84.6991734 C141.154754,83.8742233 143.114556,80.5772426 142.276924,77.4530186 L140.215384,69.7299476 C141.447728,68.9106688 142.601776,68.0054528 143.707688,67.0222553 L150.661538,71.0222513 C153.462494,72.6373356 157.150579,71.6311296 158.753848,68.8530176 C158.753858,68.8478897 158.753858,68.8427618 158.753848,68.837634 L162.707693,61.991485 L162.69231,61.991485 C164.2929,59.2201472 163.332719,55.5144172 160.53846,53.8991754 L153.615385,49.8991714 C153.906831,48.4480926 154.083376,46.9920354 154.169235,45.514561 L161.907689,43.4222533 C164.985282,42.5974607 166.945557,39.3004012 166.107688,36.1760985 C166.107698,36.1709706 166.107698,36.1658427 166.107688,36.1607148 L165.584613,34.2530186 L165.092306,32.3607138 C165.087223,32.3504357 165.082095,32.3401799 165.076922,32.3299466 L164.569231,30.4222503 L164.061539,28.5299456 C164.061549,28.5248177 164.061549,28.5196898 164.061539,28.514562 C163.221781,25.3816734 159.892481,23.5011367 156.800001,24.3299466 L149.061538,26.4068706 C148.247065,25.1645223 147.349749,23.9997932 146.36923,22.8837908 L150.369234,15.945329 C151.968092,13.1767481 150.997883,9.46723958 148.2,7.85302174 L141.33846,3.89917578 C138.536087,2.28062484 134.849112,3.29108204 133.246158,6.06840635 L129.246154,12.9914829 C127.792468,12.6945229 126.327013,12.5136246 124.846152,12.4222523 L122.784611,4.68379057 L122.876921,5.16071385 C122.72017,4.02147446 121.871235,2.37229332 120.53846,1.62225191 C119.872032,1.24731116 119.267321,1.07995097 118.753848,1.0222525 Z M301.446153,8.17609846 C289.918276,8.17609846 279.419952,13.7412234 272.030768,22.4530255 C268.488752,20.6760625 264.823659,19.0097073 260.830768,19.0068716 C247.564927,19.0111961 236.959044,29.33043 235.723076,42.2837937 C234.120595,41.8064522 232.740637,40.6701351 231.046153,40.6684101 C223.910369,40.6718759 218.268783,45.4852903 215.600003,51.8837937 C202.421989,52.9114959 191.907691,63.6609831 191.907691,77.0991793 C191.907691,91.2140662 203.392797,102.699179 217.507691,102.699179 L237.153848,102.699179 L268.692308,102.699179 L268.692308,134.760714 L116.415387,134.760714 C106.478884,134.760714 98.3692298,142.907461 98.3692298,152.853022 L98.3692298,233.222252 L87.5230769,233.222252 L87.5230769,185.406872 C87.5228596,183.231809 85.7596776,181.468627 83.5846154,181.46841 L28.4461538,181.46841 C26.2710916,181.468627 24.5079097,183.231809 24.5076923,185.406872 L24.5076923,279.929949 C24.5079097,282.105011 26.2710916,283.868193 28.4461538,283.86841 L83.5846154,283.86841 C85.7596776,283.868193 87.5228596,282.105011 87.5230769,279.929949 L87.5230769,241.099175 L98.3692298,241.099175 L98.3692298,339.791484 L78.6769229,339.791484 C76.5018607,339.791702 74.7386788,341.554883 74.7384613,343.729946 C74.7384613,367.541884 94.0318494,386.822252 117.846151,386.822252 L425.476924,386.822252 C449.291226,386.822252 468.584614,367.541884 468.584614,343.729946 C468.584397,341.554883 466.821215,339.791702 464.646153,339.791484 L444.953845,339.791484 L444.953845,236.606872 L461.676923,236.606872 C463.097274,236.626959 464.418413,235.880717 465.13445,234.653895 C465.850487,233.427074 465.850487,231.909746 465.13445,230.682925 C464.418413,229.456104 463.097274,228.709861 461.676923,228.729949 L456.584618,228.729949 C452.34258,228.729949 448.953849,225.333884 448.953849,220.853025 L448.953849,219.483788 L448.953849,212.976102 L496.53846,212.976102 C501.287535,212.976102 505,208.889515 505,204.237633 L505,111.437633 C505,106.785759 501.287535,102.699179 496.53846,102.699179 L363.800002,102.699179 C359.050926,102.699179 355.338462,106.785759 355.338462,111.437633 L355.338462,134.760714 L276.569231,134.760714 L276.569231,102.699179 L306.184618,102.699179 L325.815384,102.699179 C339.930278,102.699179 351.415384,91.2140662 351.415384,77.0991793 C351.415384,68.0975813 346.295707,60.7368645 339.261536,56.191486 C339.946828,53.2698565 340.583197,50.3207129 340.584614,47.3145639 C340.582645,25.748415 323.012144,8.17783138 301.446153,8.17609846 Z M114.83077,8.51455961 C115.386881,8.8327873 115.294737,8.5383873 115.676925,8.63763653 L115.692309,8.66840615 L114.83077,8.51455961 Z M115.846153,9.23763673 L117.907693,16.9299476 C118.382228,18.7141108 120.032307,19.929283 121.876922,19.8530186 C124.68347,19.7269878 127.492026,20.0940682 130.169227,20.9453273 C131.93599,21.5116933 133.858459,20.7683408 134.784615,19.1607158 L139.092308,11.6991752 L142.569229,13.6991756 L138.27692,21.1607138 C137.3571,22.7547451 137.663709,24.7732541 139.015382,26.0222484 C141.084492,27.9265024 142.809711,30.1812953 144.092311,32.6837937 C144.941441,34.3318398 146.824894,35.1646595 148.615382,34.6837918 L156.953845,32.4530235 C156.953805,32.4632792 156.953805,32.4735351 156.953845,32.4837908 L157.47692,34.3760955 L157.969228,36.2837918 C157.974311,36.2940699 157.979439,36.3043257 157.984611,36.314559 L149.646156,38.5607109 C147.85641,39.043688 146.645659,40.7092708 146.738461,42.5607148 C146.875519,45.3653721 146.517158,48.173763 145.676919,50.8530196 C145.126922,52.6105097 145.86808,54.5145168 147.461538,55.4376409 L154.907696,59.7299417 L152.892307,63.2222543 L145.415382,58.914562 C143.81081,57.9939011 141.781757,58.3139405 140.538464,59.6837908 C138.65194,61.7601477 136.410452,63.4786087 133.923077,64.7760955 C132.287851,65.628779 131.463166,67.5019024 131.938463,69.2837908 L134.169231,77.591487 L130.27692,78.6376369 L128.046152,70.314557 C127.570395,68.5245532 125.911799,67.307824 124.061539,67.391486 C121.256016,67.5230306 118.447467,67.1606213 115.769235,66.314561 C114.007102,65.7564004 112.093883,66.49865 111.16923,68.0991724 L106.876921,75.5607138 L103.384616,73.5453322 L107.692309,66.0837908 C108.625123,64.4791003 108.311066,62.440935 106.938464,61.1914811 C104.86061,59.2999956 103.126521,57.0539146 101.830767,54.5607109 C100.97666,52.9186022 99.0944156,52.0927188 97.3076962,52.5760965 L89,54.8222484 L89,54.8068647 C89.00001,54.8017369 89.00001,54.796609 89,54.7914811 L87.9692337,50.9453292 C87.9692437,50.9402014 87.9692437,50.9350735 87.9692337,50.9299456 L96.2769221,48.714561 C98.0669321,48.2388064 99.2836659,46.5802051 99.200001,44.7299407 C99.0739702,41.9233142 99.4410506,39.1147658 100.29231,36.4376359 C100.850465,34.6755035 100.108212,32.762289 98.5076903,31.8376389 L91.0461568,27.5299466 L93.0615385,24.0530176 L100.52308,28.3299426 C102.117111,29.2497625 104.13562,28.9431533 105.384614,27.5914811 C107.283898,25.5238676 109.534256,23.7987348 112.030768,22.51456 C113.678818,21.6654288 114.511638,19.7819708 114.030766,17.9914811 L111.846157,9.86840576 L115.846153,9.23763673 Z M301.446153,16.0530215 C318.755613,16.0543606 332.706116,30.0048679 332.707691,47.3145639 C332.706273,50.4064926 332.242969,53.4796977 331.338462,56.4376399 C330.768525,58.3047273 331.652141,60.3075881 333.415386,61.1453302 C339.407676,63.9909474 343.538461,69.9743449 343.538461,77.0991793 C343.538461,86.9851904 335.701316,94.8222562 325.815384,94.8222562 L306.184618,94.8222562 L284.538464,94.8222562 L284.538464,83.0068716 L293.723074,83.0068716 C295.337616,83.0012155 296.785212,82.0108239 297.375471,80.5080362 C297.965731,79.0052485 297.579111,77.29442 296.399999,76.1914821 L275.323078,56.4991744 C274.543091,55.7673074 273.49901,55.3841098 272.430766,55.4376409 C271.485844,55.4868721 270.59022,55.87461 269.907693,56.5299417 L249.261537,76.2222494 C248.101161,77.3326519 247.731182,79.0363718 248.326495,80.5280389 C248.921808,82.0197059 250.36317,83.0005334 251.96923,83.0068716 L261.169232,83.0068716 L261.169232,94.8222562 L237.153848,94.8222562 L217.507691,94.8222562 C207.621759,94.8222562 199.784614,86.9851904 199.784614,77.0991793 C199.784614,67.2140268 207.619553,59.3761024 217.507691,59.3761024 L217.784612,59.3761024 C219.653313,59.3784108 221.26643,58.0673516 221.646156,56.2376369 C222.562478,51.7461366 226.461705,48.5475387 231.046153,48.5453332 C233.194111,48.5475308 235.265112,49.2795254 236.953845,50.6068657 C238.22008,51.6068123 239.96811,51.7334073 241.365212,50.9263439 C242.762313,50.1192804 243.525937,48.5417785 243.292311,46.9453253 C243.182034,46.172607 243.130952,45.3898378 243.123075,44.6068716 C243.121578,34.7729979 250.997769,26.8870164 260.830768,26.8837947 C264.373414,26.8863074 267.822136,27.9556943 270.753848,29.9453263 C272.518978,31.1484442 274.921399,30.725293 276.169233,28.991486 C282.043054,20.8714023 291.432772,16.0530215 301.446153,16.0530215 Z M123.353845,23.8376389 L123.353845,23.8530225 C123.088829,23.8675086 122.825956,23.9087438 122.569233,23.9760994 C122.558952,23.9811825 122.548694,23.9863104 122.538458,23.9914831 C120.965208,24.0229908 119.384467,24.0935129 117.861535,24.4991744 C108.266584,27.0784729 102.039711,36.4702937 103.384616,46.314557 C103.455509,46.813954 103.537452,47.3077898 103.646154,47.8068716 C103.701292,48.0857068 103.750373,48.3484574 103.799998,48.5761004 C103.818466,48.6484649 103.838988,48.7202895 103.86154,48.791487 C103.924556,49.0269991 104.005664,49.267647 104.092311,49.5299486 L104.076919,49.5299486 C104.247856,50.056127 104.447284,50.5729713 104.661536,51.0837898 C104.661536,51.0837898 104.67692,51.0991734 104.67692,51.0991734 C108.429644,60.298947 118.505489,65.3219742 128.107694,62.7607138 C128.112822,62.7607239 128.11795,62.7607239 128.123078,62.7607138 C137.718746,60.1704665 143.929495,50.77555 142.569229,40.9299476 C142.545598,40.7416891 142.521818,40.5255621 142.476919,40.2530206 C142.477169,40.2273818 142.477169,40.2017412 142.476919,40.1761024 C142.380033,39.6128945 142.251836,39.0483554 142.107696,38.4991764 C142.102661,38.4837612 142.09753,38.4683773 142.092305,38.4530255 C141.926102,37.8528039 141.729037,37.2625073 141.507695,36.6837898 C141.50273,36.6632373 141.497599,36.6427251 141.492304,36.6222553 L141.446153,36.5299456 C141.446163,36.5248177 141.446163,36.5196898 141.446153,36.514562 C141.406768,36.4216143 141.351386,36.2831774 141.292309,36.1453312 C138.650546,29.6723909 132.620257,25.5860795 125.815384,24.5299417 C125.511841,24.3205586 125.1804,24.1548379 124.830768,24.037634 L124.800001,24.191486 C124.417183,24.1521014 124.126477,23.852605 123.73846,23.8376389 C123.610331,23.8313758 123.481973,23.8313758 123.353845,23.8376389 Z M123.430771,31.7299456 C123.430771,31.7299456 123.446155,31.7299456 123.446155,31.7299456 C128.115831,31.9245056 132.233445,34.8014966 134.000003,39.1299446 C134.01453,39.1763792 134.029916,39.2225406 134.046154,39.2684052 C134.061908,39.2999129 134.093565,39.3664256 134.138464,39.4837918 L134.184614,39.5761014 C134.307494,39.9045691 134.414747,40.2408586 134.507694,40.5761004 C134.588039,40.8888143 134.653339,41.2149504 134.707689,41.5299407 C134.723443,41.6339161 134.730217,41.749565 134.753848,41.9299466 C134.758721,41.9556364 134.763849,41.9812771 134.769232,42.0068647 C135.594497,47.980093 131.895447,53.5832793 126.076921,55.1607119 C120.242327,56.7169556 114.228146,53.7238981 111.953842,48.1299436 C111.94888,48.1093912 111.943752,48.088879 111.938459,48.0684091 C111.802976,47.748606 111.677142,47.430402 111.569228,47.0991774 C111.569238,47.0940495 111.569238,47.0889216 111.569228,47.0837937 C111.529843,46.9664276 111.487111,46.831874 111.446151,46.6837878 C111.446151,46.6837878 111.446151,46.6684042 111.446151,46.6684042 C111.414643,46.5344965 111.392864,46.3893406 111.369233,46.2837898 C111.365112,46.2324127 111.359983,46.1811214 111.353849,46.1299456 C111.290834,45.8353487 111.227149,45.5439734 111.184613,45.2376399 C110.368643,39.265278 114.074255,33.685376 119.892308,32.11456 C121.044938,31.80736 122.239465,31.6826841 123.430771,31.7299456 Z M44.030769,63.3914821 C43.7963204,63.4168188 43.5646207,63.4631584 43.3384615,63.5299426 L34.1538464,65.9914811 C30.8638919,66.8731451 28.7828135,70.3787618 29.6769231,73.71456 L32.3076925,83.514563 C30.5088396,84.6570319 28.8235869,85.9432862 27.2461535,87.3760985 L18.4769231,82.3453282 C15.5371766,80.6480876 11.5663409,81.6875737 9.86153846,84.6376389 L5.10769235,92.8837927 C3.39989658,95.8415774 4.41141662,99.7907751 7.4,101.514561 L16.1692304,106.576098 C15.7084304,108.661514 15.4201996,110.765629 15.3230771,112.899172 L5.56923073,115.514563 C2.27959142,116.396069 0.183128615,119.902072 1.07692308,123.237634 C1.08203711,123.242776 1.08716533,123.247904 1.09230769,123.253018 L1.70769231,125.545328 L2.93846154,130.129942 L3.5384615,132.422252 C3.54357555,132.427394 3.54870378,132.432522 3.55384615,132.437636 C4.44701046,135.770756 7.94453658,137.812454 11.2923075,136.914564 C11.2974359,136.914574 11.3025643,136.914574 11.3076927,136.914564 L21.0769229,134.28379 C22.2299469,136.083509 23.5096909,137.769628 24.953846,139.345327 L19.8923077,148.099172 C18.1833305,151.059084 19.2148821,155.005131 22.1999996,156.729941 L30.4461535,161.499173 C33.4059081,163.208072 37.3523497,162.175817 39.0769233,159.191479 L44.1384615,150.42225 C46.2238769,150.878324 48.328783,151.16031 50.4615387,151.253022 L53.0615385,161.022249 C53.0666524,161.027394 53.0717806,161.032525 53.0769229,161.037641 C53.9730804,164.381946 57.5106215,166.370184 60.8153846,165.483794 L69.9999998,163.022255 C73.2898755,162.14067 75.3718203,158.635526 74.4769231,155.299176 L71.8615389,145.529949 C73.6564525,144.376523 75.3364033,143.080769 76.9076927,141.637638 L85.6923067,146.699175 C88.6830956,148.414848 92.5974538,147.33719 94.3076913,144.376097 C94.3128192,144.376107 94.3179471,144.376107 94.323075,144.376097 L99.0615404,136.145327 L99.0461568,136.145327 C100.755213,133.185416 99.7384911,129.23929 96.7538462,127.514559 L88.000001,122.453022 C88.4529241,120.365243 88.7262927,118.264515 88.8153807,116.129948 L98.5846164,113.499173 C101.874492,112.617588 103.956197,109.112373 103.061536,105.776095 C103.061547,105.770967 103.061547,105.765839 103.061536,105.760711 L102.446152,103.483792 L101.846151,101.191481 C101.841068,101.181203 101.83594,101.170947 101.830767,101.160714 L101.215383,98.8837868 L100.615382,96.5914841 C100.610268,96.586342 100.60514,96.5812141 100.599998,96.5761004 C99.7035254,93.2310863 96.165826,91.2289536 92.8615355,92.1145639 C92.8564076,92.1145539 92.8512797,92.1145539 92.8461519,92.1145639 L83.0923077,94.7453302 C81.9455852,92.9341105 80.6561487,91.2404539 79.2153846,89.6530255 L84.2615424,80.9145561 C85.9691806,77.9568502 84.9429041,74.0075737 81.9538481,72.2837878 L73.7076927,67.514563 C70.7149338,65.7865236 66.7901536,66.8718218 65.0769229,69.837633 L60.0153846,78.6068697 C57.9284726,78.1460697 55.8272687,77.8727483 53.6923075,77.7760985 L51.0923077,67.991487 L51.1846158,68.4684032 C51.0097481,67.1976192 50.2599532,65.869696 49.3692308,65.0991754 C48.4785083,64.3288123 47.5952398,64.0153423 46.9384611,63.8376389 C46.3035811,63.665922 45.8438445,63.6269312 45.584615,63.591485 C45.5743812,63.5863124 45.5641248,63.5811845 45.5538462,63.5761014 C45.5538462,63.5761014 45.5384617,63.5761014 45.5384617,63.5761014 C45.1799436,63.4619733 44.8069227,63.3998018 44.4307694,63.3914821 C44.297522,63.3847076 44.1640164,63.3847076 44.030769,63.3914821 Z M272.661536,64.791487 L283.73846,75.1299486 L280.600002,75.1299486 C278.42494,75.130166 276.661758,76.8933479 276.66154,79.0684101 L276.66154,94.8222562 L269.046155,94.8222562 L269.046155,79.0684101 C269.045937,76.8933479 267.282755,75.130166 265.107693,75.1299486 L261.815384,75.1299486 L272.661536,64.791487 Z M43.8769233,71.5299426 L46.7538465,82.2837937 C47.2296038,84.0737985 48.8882012,85.2905279 50.7384613,85.2068647 C54.1982423,85.0509017 57.6536515,85.5108746 60.953846,86.5607109 C62.7159774,87.118869 64.6291933,86.3766197 65.5538462,84.7760994 L71.1230773,75.114557 L76.6615389,78.314557 L71.1076921,87.9453322 C70.1916432,89.5428228 70.5047154,91.5618157 71.8615389,92.8068667 C74.4122441,95.1543473 76.5265575,97.9373351 78.1076923,101.022253 C78.9568231,102.670301 80.8402788,103.503121 82.6307673,103.022251 L93.400002,100.129948 L93.599997,100.899176 C93.599957,100.909432 93.599957,100.919688 93.599997,100.929944 L94.2307653,103.222254 L94.8307663,105.499173 C94.8307262,105.509429 94.8307262,105.519685 94.8307663,105.529941 L95.0461529,106.299177 L84.276926,109.191481 C82.4871801,109.674458 81.2764295,111.340041 81.3692308,113.191485 C81.5377969,116.648824 81.0975084,120.104076 80.0615355,123.40687 C79.5115426,125.164357 80.2526999,127.06836 81.8461548,127.991483 L91.4615385,133.560712 L88.2615385,139.099173 L78.6,133.529945 C76.9954269,132.609281 74.9663709,132.929321 73.7230771,134.299173 C71.3974156,136.858858 68.6355592,138.991992 65.5692306,140.59148 C63.9340044,141.444163 63.1093192,143.317287 63.5846154,145.099175 L66.4615387,155.822251 L60.2769229,157.483794 L57.3999996,146.729943 C56.9242423,144.939938 55.2656449,143.723208 53.4153848,143.806872 C49.956943,143.969136 46.5015337,143.526461 43.2000002,142.483793 C41.4378687,141.925635 39.5246528,142.667884 38.6,144.268404 L33.046154,153.899179 L27.4923073,150.699179 L33.0615385,141.053021 C33.985946,139.451921 33.6723835,137.423366 32.3076925,136.176102 C29.7461959,133.844297 27.6127455,131.065058 26.0153842,127.991483 C25.1612765,126.349372 23.2790288,125.523488 21.4923077,126.006869 L10.7538458,128.899172 L10.553846,128.11456 C10.553856,128.109432 10.553856,128.104304 10.553846,128.099176 L9.32307673,123.499171 C9.32308674,123.494044 9.32308674,123.488916 9.32307673,123.483788 L9.1076925,122.714559 L19.8461536,119.853023 C21.6300312,119.37126 22.8392245,117.714215 22.7538465,115.868402 C22.5978827,112.408708 23.0578564,108.938065 24.1076927,105.637634 C24.6658483,103.875502 23.9235971,101.962288 22.3230765,101.037637 L12.6923077,95.4837918 L15.8923077,89.9453302 L25.5230765,95.4837918 C27.1205679,96.3998436 29.1395637,96.0867719 30.3846158,94.7299466 C32.7260304,92.181053 35.5069442,90.0668948 38.5846156,88.4837908 C40.2326658,87.6346601 41.0654869,85.751202 40.5846152,83.9607119 L37.6923075,73.191485 L43.8769233,71.5299426 Z M52.5692308,91.5607138 L52.5692308,91.5760975 C52.3093837,91.591604 52.0517137,91.6328313 51.8000004,91.6991744 C51.7897215,91.7042575 51.7794649,91.7093854 51.7692308,91.714558 C49.8789268,91.7381888 47.982159,91.8431488 46.1538464,92.3299426 C46.1487182,92.3299326 46.1435901,92.3299326 46.1384619,92.3299426 C35.0034064,95.3231734 27.7931916,106.198038 29.3538464,117.622254 C29.434191,118.202784 29.5355079,118.782706 29.6615387,119.360715 C29.7166771,119.672641 29.7804062,120.000321 29.8615385,120.34533 C29.8758759,120.39692 29.8912637,120.448212 29.9076925,120.499174 C29.9967017,120.816614 30.0730827,121.071898 30.1384619,121.283787 C30.1434248,121.304342 30.1485531,121.324857 30.1538464,121.345329 C30.3578587,121.975483 30.5893662,122.599162 30.8461538,123.206867 C30.8461538,123.206867 30.8615383,123.22225 30.8615383,123.22225 C35.2258263,133.879964 46.8975264,139.684003 58.0307694,136.714561 C58.0358976,136.714571 58.0410257,136.714571 58.0461538,136.714561 C69.1767975,133.709987 76.3850982,122.826908 74.815385,111.406866 C74.7838773,111.129598 74.752591,110.858569 74.7076925,110.576102 C74.7027296,110.555547 74.6976013,110.535033 74.6923081,110.51456 C74.5804558,109.865502 74.4454894,109.217357 74.2769233,108.576096 C74.2719601,108.555544 74.2668315,108.535032 74.2615381,108.514562 C74.0685542,107.81903 73.8390404,107.136132 73.5846158,106.468405 C73.5795824,106.45299 73.5744539,106.437606 73.5692306,106.422254 L73.5230765,106.299177 C73.5179626,106.294035 73.5128344,106.288907 73.5076921,106.283794 C73.4367998,106.106563 73.3805783,105.956949 73.3230767,105.822253 L73.3076923,105.80687 C69.9049403,97.4926986 61.9471905,91.9165145 52.9692304,91.5607138 C52.8359832,91.5539393 52.7024779,91.5539393 52.5692308,91.5607138 Z M52.6461536,99.4222533 L52.6461536,99.4376369 C52.6461536,99.4376369 52.6615389,99.4376369 52.6615389,99.4376369 C58.5749813,99.6778831 63.7939596,103.341566 66.0307694,108.82225 C66.0408463,108.842854 66.051103,108.863369 66.0615383,108.883793 C66.1245536,109.030304 66.1614035,109.1585 66.2000004,109.253024 L66.2000004,109.222248 L66.2461536,109.345333 C66.4084183,109.774625 66.5410215,110.201255 66.6615385,110.637637 L66.6615385,110.591486 C66.7718154,111.008963 66.8490336,111.424282 66.9230767,111.853023 C66.9467075,112.004259 66.9688613,112.156237 66.9846152,112.314563 C66.9887363,112.36594 66.9938654,112.417231 66.9999996,112.468407 C68.0435344,120.021904 63.358543,127.105999 56.0000002,129.099175 C48.6231042,131.066752 41.0138539,127.279559 38.1384619,120.20687 C38.1283848,120.186266 38.1181278,120.165751 38.1076923,120.145327 C37.9438523,119.756995 37.7922956,119.358423 37.6615387,118.960717 L37.6461542,118.899174 C37.5831381,118.684134 37.5301169,118.496199 37.4923077,118.360716 C37.4529231,118.191362 37.4216367,118.022323 37.3846152,117.822249 C37.3753813,117.770769 37.365123,117.719477 37.3538464,117.668405 C37.2719264,117.293464 37.2074088,116.915363 37.1538465,116.529946 C36.1302396,108.979127 40.8243399,101.90847 48.1846156,99.9299446 C49.6394833,99.5424 51.1437881,99.3647518 52.6461536,99.4222533 Z M363.800002,110.576102 L496.53846,110.576102 C496.803124,110.576102 497.123077,110.771489 497.123077,111.437633 L497.123077,204.237633 C497.123077,204.904029 496.803124,205.099179 496.53846,205.099179 L445.723074,205.099179 C445.469297,205.053537 445.211651,205.032924 444.953845,205.037637 C444.721712,205.037711 444.49004,205.058305 444.261535,205.099179 L416.000001,205.099179 C415.746224,205.053537 415.488578,205.032924 415.230772,205.037637 C414.998639,205.037711 414.766967,205.058305 414.538462,205.099179 L363.800002,205.099179 C363.535337,205.099179 363.215385,204.903863 363.215385,204.237633 L363.215385,111.437633 C363.215385,110.771245 363.535337,110.576102 363.800002,110.576102 Z M375.030769,118.453025 C372.855707,118.453243 371.092525,120.216425 371.092308,122.391487 L371.092308,185.406872 C371.092525,187.581934 372.855707,189.345116 375.030769,189.345333 L485.307692,189.345333 C487.482755,189.345116 489.245937,187.581934 489.246154,185.406872 L489.246154,122.391487 C489.245937,120.216425 487.482755,118.453243 485.307692,118.453025 L375.030769,118.453025 Z M378.969231,126.329949 L481.369231,126.329949 L481.369231,181.46841 L378.969231,181.46841 L378.969231,126.329949 Z M116.415387,142.637637 L268.692308,142.637637 L268.692308,158.51456 L125.938461,158.51456 C123.763398,158.514777 122.000216,160.277959 121.999999,162.453022 L121.999999,233.222252 L106.246153,233.222252 L106.246153,152.853022 C106.246153,147.125159 110.715094,142.637637 116.415387,142.637637 Z M276.569231,142.637637 L355.338462,142.637637 L355.338462,158.51456 L276.569231,158.51456 L276.569231,142.637637 Z M129.876922,166.391483 L268.692308,166.391483 L268.692308,174.314557 C265.90353,174.464297 263.108318,174.733334 260.338461,175.237638 C252.122042,176.733623 244.067817,179.79914 236.615382,184.529942 C209.502461,201.741279 198.950417,235.546346 210.184618,264.729945 L153.507691,264.729945 L153.507691,237.160714 C153.507474,234.985652 151.744292,233.22247 149.56923,233.222252 L129.876922,233.222252 L129.876922,166.391483 Z M276.569231,166.391483 L355.338462,166.391483 L355.338462,204.237633 C355.338462,208.889515 359.050926,212.976102 363.800002,212.976102 L411.353845,212.976102 L411.353845,219.483788 C411.353685,219.504302 411.353685,219.524816 411.353845,219.54533 L411.384612,220.853025 C411.384612,225.333884 407.995881,228.729949 403.753843,228.729949 L398.661538,228.729949 C397.241188,228.709861 395.920049,229.456104 395.204011,230.682925 C394.487974,231.909746 394.487974,233.427074 395.204011,234.653895 C395.920049,235.880717 397.241188,236.626959 398.661538,236.606872 L413.446153,236.606872 L413.446153,244.483795 L374.061537,244.483795 L374.061537,229.283791 C374.06132,227.108729 372.298138,225.345547 370.123076,225.345329 L337.184611,225.345329 C335.233978,217.141498 331.707314,209.187893 326.507694,201.94533 C314.438169,185.133661 295.870331,175.651759 276.569231,174.406867 L276.569231,166.391483 Z M154.415389,173.591487 C153.392278,173.607798 152.415669,174.021613 151.692305,174.74533 L143.86154,182.591486 C142.832654,183.579317 142.41819,185.046199 142.777996,186.426402 C143.137801,187.806604 144.215651,188.884454 145.595854,189.24426 C146.976056,189.604065 148.442938,189.189602 149.430769,188.160715 L150.538462,187.053023 L150.538462,204.022254 C150.518374,205.442605 151.264617,206.763744 152.491438,207.479781 C153.718259,208.195819 155.235587,208.195819 156.462408,207.479781 C157.68923,206.763744 158.435472,205.442605 158.415385,204.022254 L158.415385,187.053023 L159.523077,188.160715 C160.510908,189.189602 161.97779,189.604065 163.357993,189.24426 C164.738195,188.884454 165.816045,187.806604 166.175851,186.426402 C166.535656,185.046199 166.121193,183.579317 165.092306,182.591486 L157.261541,174.74533 C156.508022,173.991463 155.481147,173.575164 154.415389,173.591487 Z M272.692304,182.006869 C290.898575,182.117886 308.731598,190.684087 320.107694,206.529944 C338.309531,231.883238 333.582085,266.943155 309.307692,286.560711 L314.261536,292.68379 C332.586261,277.874473 341.019783,255.194858 338.523074,233.222252 L366.184614,233.222252 L366.184614,248.422256 C366.184832,250.597318 367.948014,252.3605 370.123076,252.360718 L413.446153,252.360718 L413.446153,316.053022 L129.876922,316.053022 L129.876922,241.099175 L145.630768,241.099175 L145.630768,268.668406 C145.630986,270.843468 147.394168,272.60665 149.56923,272.606868 L213.769233,272.606868 C213.892601,272.834267 213.981406,273.072646 214.107688,273.299178 C231.300727,304.138986 269.676395,316.229118 301.446153,300.82225 L297.999999,293.729948 C269.917587,307.348596 236.182112,296.713395 220.984612,269.453019 C205.787113,242.192563 214.481047,207.918362 240.830772,191.191479 C250.711915,184.918904 261.768547,181.940254 272.692304,182.006869 Z M32.3846154,189.345333 L79.6461538,189.345333 L79.6461538,205.099179 L32.3846154,205.099179 L32.3846154,189.345333 Z M272.630769,189.345333 C244.400428,189.345254 221.430769,212.314984 221.430769,240.545333 C221.430769,268.775587 244.400428,291.745333 272.630769,291.745333 C300.86111,291.745333 323.830769,268.775587 323.830769,240.545333 C323.830769,212.314984 300.86111,189.345254 272.630769,189.345333 Z M430.323075,192.853022 C429.166232,192.854769 428.057498,193.316151 427.24093,194.135605 C426.424363,194.955059 425.966897,196.065415 425.969232,197.222256 C425.972864,199.625311 427.92002,201.572467 430.323075,201.576099 C431.479916,201.578434 432.590272,201.120968 433.409726,200.304401 C434.229181,199.487833 434.690562,198.379099 434.69231,197.222256 C434.694651,196.062747 434.235074,194.950054 433.415175,194.130156 C432.595277,193.310257 431.482584,192.85068 430.323075,192.853022 Z M48.1846156,193.283795 L48.1846156,201.160718 L63.8461536,201.160718 L63.8461536,193.283795 L48.1846156,193.283795 Z M170.169235,197.222256 C169.124682,197.238553 168.129389,197.669142 167.402319,198.419291 C166.675249,199.169441 166.275965,200.177701 166.292308,201.222252 L166.292308,218.668408 L165.076922,217.529941 C164.309501,216.7947 163.277532,216.400778 162.215386,216.43764 C160.609979,216.490844 159.197709,217.513574 158.646326,219.022262 C158.094943,220.53095 158.514922,222.223314 159.707688,223.299172 L167.553844,230.591486 C169.064179,231.990755 171.39736,231.990755 172.907694,230.591486 L180.75385,223.299172 C182.346979,221.816499 182.436522,219.323069 180.953849,217.72994 C179.471176,216.136811 176.977746,216.047268 175.384616,217.529941 L174.169231,218.668408 L174.169231,201.222252 C174.185908,200.156362 173.769839,199.129229 173.016049,198.375438 C172.262258,197.621648 171.235125,197.205579 170.169235,197.222256 Z M272.630769,197.222256 C282.662944,197.222217 291.850966,200.647481 299.184617,206.345332 C298.885294,206.485581 298.580883,206.599198 298.338463,206.991484 C298.008419,207.525539 297.08496,207.960716 296.292306,207.960716 C295.49973,207.960716 293.921888,208.839568 292.784617,209.899171 C291.307537,211.273143 290.369742,211.537241 289.507691,210.822252 C288.156957,209.700815 286.640806,211.203637 287.584619,212.729949 C287.883942,213.216742 287.26165,213.391043 286.199998,213.114563 C285.138189,212.833357 283.497347,212.949541 282.553849,213.360717 C281.610351,213.77268 280.508551,214.031972 280.107694,213.945326 C279.706759,213.860256 279.384616,214.240073 279.384616,214.776097 C279.384616,215.310941 278.515366,214.859435 277.446153,213.791482 C274.786746,211.131681 273.23448,211.341625 269.738458,214.83764 C266.491117,218.084665 265.954242,220.097589 268.123074,220.929944 C269.026321,221.276528 269.857533,220.472042 270.507694,218.606866 C271.648352,215.334871 273.644198,214.668278 272.815389,217.837637 C272.423898,219.335906 272.620703,219.721364 273.476924,219.191483 C274.357485,218.647188 274.325119,218.994056 273.384614,220.499178 C272.681993,221.624082 271.678189,222.567036 271.138463,222.622253 C266.845539,222.94757 263.830765,224.764123 263.830765,227.037639 C263.830765,227.774131 263.357425,228.376101 262.784615,228.376101 C262.211175,228.376101 261.880345,229.406048 262.046154,230.668404 C262.210782,231.930287 261.779725,233.639832 261.092306,234.468405 C259.220276,236.723962 258.522483,242.688471 259.923079,244.376101 C260.580014,245.168756 262.555019,246.092286 264.323073,246.42225 C267.702588,247.056343 268.649749,248.708905 268.676924,253.991485 C268.683698,255.514016 269.38899,258.230435 270.246157,260.037638 C271.583895,262.856237 272.078904,263.185902 273.707694,262.314557 C274.751387,261.755296 275.831289,260.55375 276.10769,259.653024 C276.38417,258.753243 277.012316,257.258163 277.507695,256.329947 C278.003154,255.401888 278.415385,253.566423 278.415385,252.253024 C278.415385,250.940335 279.372777,248.223703 280.553843,246.222255 C282.602867,242.750344 282.61744,242.613254 280.799997,243.253025 C279.52874,243.700435 279.784953,243.253215 281.569234,241.899171 C284.21462,239.893006 285.263991,236.890149 283.15385,237.360717 C282.552045,237.494624 281.848124,237.054383 281.600001,236.376101 C281.237663,235.385578 281.697824,235.369013 283.907695,236.314559 C288.082858,238.100651 288.920853,238.945396 289.600001,242.03764 C290.204161,244.807402 292.406675,247.388749 291.892304,244.745332 C291.507122,242.761765 292.977035,239.06841 294.153847,239.06841 C294.724136,239.06841 296.225856,240.178922 297.492308,241.545332 C299.97346,244.222777 302.1676,243.909354 301.24615,241.006866 C300.855462,239.77397 301.280564,239.028758 302.615388,238.60687 C304.83857,237.901097 305.790985,235.647265 305.184611,232.499174 C304.810458,230.55515 304.985262,230.421415 306.769228,231.376098 C308.060886,232.070843 308.556202,232.101295 308.153849,231.453024 C307.810415,230.896914 308.468422,229.567919 309.615381,228.499178 C311.115233,227.104254 311.536042,225.88311 311.107695,224.176095 C310.814674,223.008656 310.858336,222.100407 311.323074,221.391484 C310.6772,219.998433 309.963527,218.637831 309.184615,217.314562 C313.451931,224.027213 315.953846,231.981259 315.953846,240.545333 C315.953846,245.890873 314.945482,250.976648 313.184619,255.699178 C312.184156,255.866421 310.684697,256.791566 309.107689,258.437638 C306.882931,260.759282 306.521735,261.796287 307.06154,264.253021 C307.256352,265.140254 307.417703,265.692835 307.599999,266.083791 C299.727605,276.852521 287.028713,283.86841 272.630769,283.86841 C261.587937,283.86841 251.564561,279.717303 243.923079,272.945331 C244.265749,272.198914 244.681619,271.512251 245.123073,271.145328 C247.898042,268.838808 252.879156,260.941286 253.584613,257.729944 C254.115518,255.313697 253.882322,254.685158 252.230767,254.160713 C251.129258,253.810977 250.230769,252.953992 250.230769,252.253024 C250.230769,251.551978 248.798949,250.451123 247.061536,249.80687 C245.324202,249.162537 243.215841,248.275753 242.36923,247.837639 C242.073845,247.684039 241.807432,247.603718 241.569234,247.606869 C240.855584,247.613485 240.344199,248.373152 239.692305,250.1761 C238.092817,254.599465 238.273198,256.63027 240.476925,258.976096 C242.225996,260.83765 242.328987,261.71276 241.538459,268.760716 C241.452057,269.530094 241.473954,269.904272 241.415382,270.576102 C233.926885,262.793293 229.307692,252.230055 229.307692,240.545333 C229.307692,239.75208 229.388935,238.974076 229.430769,238.19148 C231.747128,241.28129 234.525374,244.170569 236.723075,245.314558 C238.001578,245.981733 239.271275,246.317393 239.538461,246.068403 C239.805488,245.818705 239.496421,245.419518 238.861541,245.191481 C238.22036,244.96305 237.924857,244.19791 238.199998,243.483788 C238.511924,242.667108 238.032227,242.238257 236.923078,242.329945 C235.754694,242.426831 235.15385,241.815456 235.15385,240.529942 C235.15385,239.046166 235.793559,238.567115 237.830767,238.622253 C239.327776,238.645884 240.507692,238.142588 240.507692,237.468402 C240.507692,235.821968 244.78806,231.314099 246.446152,231.222254 C247.432579,231.159239 247.474705,231.010633 246.584612,230.653021 C244.183726,229.684159 245.357734,228.170939 248.030768,228.791483 C250.013862,229.250708 250.327813,229.154018 249.246154,228.422252 C248.443889,227.881108 248.214308,227.422253 248.723079,227.422253 C249.23114,227.415558 248.136374,225.919139 246.292308,224.099176 C242.754703,220.610802 241.476924,220.469364 241.476924,223.576101 C241.476924,225.83985 240.541437,225.958532 238.015387,224.006867 C236.302628,222.683701 236.276587,222.436413 237.692307,221.329942 C238.549946,220.659616 239.557137,219.130784 239.938459,217.929947 C240.689917,215.562852 241.940552,215.108157 242.999998,216.822254 C243.36785,217.416174 243.140577,218.237643 242.492307,218.637641 C241.64601,219.160661 241.79052,219.551687 243.015382,220.022254 C244.75823,220.691793 246.557004,219.004225 246.015387,217.206869 C245.664162,216.041974 241.19085,213.584579 239.07692,213.114563 C239.502368,212.594213 239.966563,212.106561 240.415383,211.606865 C240.415383,211.606865 240.430766,211.606865 240.430766,211.606865 C241.766173,210.120812 243.179938,208.711072 244.707691,207.422249 C246.218509,208.39716 248.264421,211.546622 248.815381,214.114562 C249.178507,215.808337 249.892566,217.992481 250.399997,218.960713 C251.576888,221.2054 253.535477,220.593166 253.938461,217.853021 C254.10939,216.692513 254.5867,215.729946 255.000002,215.729946 C255.41354,215.729946 256.539854,214.265129 257.507691,212.468403 L259.276927,209.206869 L256.44615,205.668405 C254.423277,203.133139 253.420198,202.122514 252.138465,202.360712 C252.082673,202.371062 252.010796,202.422593 251.953846,202.437638 C258.093065,199.107795 265.139099,197.222225 272.630769,197.222256 Z M269.723074,204.053022 C269.519062,204.029391 269.294325,204.134225 269.076922,204.345326 C268.756331,204.665917 268.844064,205.483061 269.261541,206.160713 C269.874366,207.148006 270.101355,207.148479 270.430768,206.160713 C270.783654,205.104969 270.334323,204.112335 269.723074,204.053022 Z M249.246154,204.083789 C248.938615,204.32435 248.596237,204.486205 248.261538,204.699173 C248.581428,204.481621 248.920183,204.292921 249.246154,204.083789 Z M285.784616,206.991484 C284.969985,206.991484 283.824688,207.912706 283.230768,209.022249 C282.249225,210.856312 282.338163,210.931253 284.123074,209.976097 C286.74672,208.572036 287.619073,206.991484 285.784616,206.991484 Z M32.3846154,212.976102 L79.6461538,212.976102 L79.6461538,252.422252 L32.3846154,252.422252 L32.3846154,212.976102 Z M419.230768,212.976102 L441.076926,212.976102 L441.076926,219.483788 L441.076926,220.853025 C441.076926,223.724763 441.900395,226.39604 443.246152,228.729949 L417.09231,228.729949 C418.438066,226.39604 419.261536,223.724763 419.261536,220.853025 C419.261696,220.832512 419.261696,220.811997 419.261536,220.791483 L419.230768,219.453021 L419.230768,212.976102 Z M238.092305,214.42225 C238.207576,214.678636 238.287526,214.92917 238.492311,215.176096 C239.468892,216.35338 239.347004,216.586561 237.738458,216.468407 C237.333773,216.437797 237.059191,216.29502 236.800001,216.160711 C237.206663,215.563388 237.657026,214.997565 238.092305,214.42225 Z M258.492307,215.099177 C256.96891,215.099177 256.585367,215.961464 257.646152,217.022249 C258.372404,217.748502 259.938463,216.946261 259.938463,215.853023 C259.938463,215.441059 259.293626,215.099177 258.492307,215.099177 Z M308.230767,215.853023 C308.507342,216.251603 308.767406,216.660194 309.030771,217.068408 C308.770383,216.659181 308.503683,216.254004 308.230767,215.853023 Z M263.507693,221.191481 C263.224912,221.152096 262.861864,221.436997 262.276924,222.022252 C260.705714,223.59425 260.455795,224.895147 261.89231,224.006867 C262.426365,223.676824 262.859887,223.964946 262.861541,224.637635 C262.862408,225.478496 263.171837,225.542804 263.86154,224.853022 C264.413713,224.301637 264.599458,223.130433 264.261538,222.253023 C263.998449,221.56773 263.790475,221.2248 263.507693,221.191481 Z M281.353847,226.914562 C281.994241,226.518353 283.223726,229.507251 283.261536,231.545326 C283.268231,231.944686 282.88839,232.268404 282.415389,232.268404 C281.322938,232.268404 280.379078,227.517147 281.353847,226.914562 Z M277.061538,227.08379 C277.737378,227.131051 278.084451,227.608188 278.153847,228.529946 C278.224739,229.520705 278.210096,230.26713 278.107688,230.206872 C278.007659,230.143856 277.166309,229.897994 276.230767,229.653022 C274.027198,229.077218 274.05138,227.758204 276.276926,227.176099 C276.574674,227.09733 276.836258,227.068036 277.061538,227.08379 Z M268.569231,227.991487 C269.372362,227.959971 270.043499,228.256569 270.307691,228.945327 C270.599137,229.706238 271.664814,230.329941 272.67692,230.329941 C273.688711,230.329941 274.523074,230.763699 274.523074,231.299172 C274.523074,231.833228 275.21262,232.268404 276.046156,232.268404 C276.879534,232.268404 277.284282,232.702084 276.953845,233.237636 C276.623802,233.771691 274.629759,234.206868 272.523076,234.206868 C270.416393,234.206868 268.692308,233.773976 268.692308,233.237636 C268.692308,232.703581 267.585836,232.268404 266.230769,232.268404 C264.122511,232.268404 263.903903,232.011939 264.738463,230.453025 C265.530487,228.973259 267.23039,228.036149 268.569231,227.991487 Z M312.646153,228.391485 C312.257821,228.396132 311.433248,229.490111 310.815383,230.822248 C310.197044,232.154795 310.017049,233.237636 310.415385,233.237636 C310.813957,233.237636 311.637347,232.1435 312.246155,230.806865 C312.855829,229.471017 313.036139,228.391485 312.646153,228.391485 Z M276.553847,236.283792 C276.718246,236.244171 277.332898,237.120589 278.046154,238.437634 C278.868268,239.954729 279.360671,241.371008 279.138463,241.591483 C278.708383,242.021563 276.441451,237.500635 276.507696,236.345326 C276.510382,236.30502 276.534746,236.295584 276.553847,236.283792 Z M421.323076,236.606872 L426.230769,236.606872 L426.230769,244.483795 L421.323076,244.483795 L421.323076,236.606872 Z M434.107692,236.606872 L437.076922,236.606872 L437.076922,339.791484 L106.246153,339.791484 L106.246153,241.099175 L121.999999,241.099175 L121.999999,319.991483 C122.000216,322.166545 123.763398,323.929727 125.938461,323.929945 L417.384614,323.929945 C419.559677,323.929727 421.322858,322.166545 421.323076,319.991483 L421.323076,252.360718 L430.169231,252.360718 C432.344293,252.3605 434.107475,250.597318 434.107692,248.422256 L434.107692,236.606872 Z M240.199996,241.037641 C239.504464,241.044336 239.630991,241.424973 240.507692,241.991481 C242.374996,243.198068 242.715098,243.198068 241.969232,241.991481 C241.639189,241.45585 240.836688,241.037641 240.199996,241.037641 Z M298.446156,245.23764 C298.097208,245.174624 297.846155,245.398471 297.846155,245.822249 C297.846155,246.387025 298.296163,246.853024 298.83077,246.853024 C299.365613,246.853024 299.800002,246.661709 299.800002,246.42225 C299.800002,246.185943 299.364826,245.721291 298.83077,245.391484 C298.696863,245.307989 298.561947,245.257332 298.446156,245.23764 Z M304.000001,245.283791 C303.914599,245.284917 303.809238,245.335038 303.676921,245.406868 C303.147592,245.732972 302.707689,246.411616 302.707689,246.914558 C302.707689,248.312869 303.39985,247.99888 304.046152,246.314557 C304.294275,245.671012 304.267029,245.291746 304.000001,245.283791 Z M306.953847,249.206869 C306.9492,249.25413 306.996579,249.36295 307.076924,249.529941 C307.415632,250.197904 307.227885,250.745326 306.661535,250.745326 C306.095192,250.745326 305.630768,251.230537 305.630768,251.822251 C305.630768,252.411445 306.291067,252.638639 307.092308,252.329943 C307.894257,252.024318 308.538464,252.193892 308.538464,252.714557 C308.538464,253.234434 308.763744,253.653022 309.030771,253.653022 C309.978365,253.653022 309.493123,252.067554 307.984613,250.206868 C307.353672,249.427052 306.966135,249.058152 306.953847,249.206869 Z M301.984611,249.94533 C301.641973,249.984715 302.263462,251.221415 303.953842,253.406868 C304.470568,254.074831 305.272699,254.622253 305.738462,254.622253 C306.203988,254.622253 305.638929,253.543422 304.476925,252.206866 C303.10831,250.632899 302.251332,249.918391 301.984611,249.94533 Z M281.261537,254.237639 C281.112664,254.206131 280.926248,254.238182 280.692312,254.329949 C279.973936,254.606421 279.384616,255.671609 279.384616,256.683794 C279.384616,259.329258 281.024285,258.946101 281.553842,256.176095 C281.794088,254.917764 281.709734,254.31184 281.261537,254.237639 Z M32.3846154,260.299175 L79.6461538,260.299175 L79.6461538,275.991487 L32.3846154,275.991487 L32.3846154,260.299175 Z M55.7384619,263.468408 C53.6711575,263.616871 52.070455,265.372261 52.0769231,267.483788 C52.0838365,269.69499 53.8451206,271.483796 56.0153846,271.483792 C58.1856487,271.483796 59.9469327,269.69499 59.9538462,267.483788 C59.9545214,266.419084 59.539876,265.397751 58.8011983,264.644647 C58.0625207,263.891543 57.0603718,263.468411 56.0153846,263.468408 C55.9231056,263.465101 55.830741,263.465101 55.7384619,263.468408 Z M360.830772,268.699173 L360.830772,272.945331 C367.642026,272.905238 374.206812,275.604651 379.046157,280.422256 C383.618789,285.012525 386.278842,291.161598 386.492307,297.62225 L390.738464,297.637634 C390.521928,290.052 387.398421,282.811642 382.03077,277.422251 C376.398849,271.802697 368.766772,268.659789 360.830772,268.699173 Z M182.630771,275.991487 C180.791904,275.920587 178.923852,276.168789 177.09231,276.776099 C169.766377,279.204712 165.262172,286.633911 166.492311,294.253023 C167.722686,301.872055 174.328187,307.483867 182.046154,307.483788 C182.756329,307.493831 183.416899,307.12071 183.774917,306.5073 C184.132936,305.893889 184.132936,305.135225 183.774917,304.521814 C183.416899,303.908404 182.756329,303.535283 182.046154,303.545326 C176.233378,303.545405 171.311255,299.360199 170.384613,293.622254 C169.458208,287.884231 172.805609,282.343658 178.323079,280.514558 C183.840627,278.685379 189.837833,281.128974 192.523076,286.28379 C195.060863,291.155745 193.807054,296.966426 189.738458,300.529946 C189.617161,300.394463 189.523079,300.222698 189.523079,300.006871 L189.523079,299.176099 C189.52406,299.140208 189.52406,299.104297 189.523079,299.068406 C189.5238,299.03764 189.5238,299.006862 189.523079,298.976096 C189.523259,298.960713 189.523259,298.945329 189.523079,298.929946 L189.523079,296.606868 C189.526466,296.540243 189.526466,296.473489 189.523079,296.406865 L189.523079,287.329948 C189.526463,287.263323 189.526463,287.196569 189.523079,287.129945 L189.523079,284.837634 C189.531418,284.304687 189.323382,283.79112 188.946485,283.414224 C188.569588,283.037329 188.056019,282.829295 187.523073,282.837636 C186.607852,282.852897 185.823793,283.49672 185.630768,284.391485 C184.606453,284.214254 183.564691,284.213467 182.553845,284.391485 C180.554131,284.743584 178.673838,285.779596 177.292305,287.422249 C174.529632,290.70732 174.529632,295.537182 177.292305,298.822252 C179.447431,301.384615 182.809065,302.401376 185.953848,301.729948 C186.538316,303.181428 187.827744,304.214416 189.384618,304.545333 C189.917369,304.818999 190.545558,304.835976 191.092312,304.591484 C191.139238,304.572754 191.185425,304.552224 191.230772,304.529942 C191.246299,304.519903 191.261684,304.509646 191.276923,304.499174 C191.282079,304.494075 191.287207,304.488947 191.292307,304.483791 C191.32884,304.46441 191.364756,304.443886 191.4,304.422248 C191.580314,304.310385 191.741365,304.170116 191.876924,304.006867 C197.711519,299.328289 199.493759,291.130681 196.015389,284.45302 C193.341244,279.319392 188.147453,276.204794 182.630771,275.991487 Z M360.846156,277.191481 L360.861539,281.422255 C365.42409,281.378302 369.826959,283.172366 373.061538,286.406867 C376.04445,289.400491 377.809007,293.379929 378.015383,297.591483 L382.26154,297.606867 C382.050518,292.27033 379.82038,287.202838 376.046152,283.40687 C372.00915,279.381526 366.532664,277.152096 360.846156,277.191481 Z M360.876923,285.14533 L360.876923,289.39148 C363.016926,289.4734 365.051424,290.365989 366.569229,291.883794 C368.083095,293.404197 368.965806,295.436963 369.046151,297.576099 L373.292309,297.591483 C373.208577,294.327286 371.883474,291.213412 369.569234,288.899172 C367.252946,286.584617 364.142695,285.231976 360.876923,285.14533 Z M183.230772,288.253021 C184.0098,288.117537 184.808583,288.249003 185.584617,288.499174 L185.584617,296.468407 C185.582994,296.514546 185.582994,296.560728 185.584617,296.606868 L185.584617,297.729944 C183.702112,298.338042 181.625503,297.851296 180.307693,296.283788 C178.758696,294.442006 178.758696,291.787112 180.307693,289.94533 C181.081995,289.024282 182.120205,288.446241 183.230772,288.253021 Z M361.523075,293.776098 C360.664146,293.761026 359.837354,294.093965 359.230772,294.699179 C358.633436,295.295156 358.29927,296.105693 358.302157,296.951587 C358.305043,297.797481 358.644745,298.609052 359.246156,299.206867 C359.843971,299.808277 360.655542,300.147979 361.501436,300.150866 C362.347329,300.153753 363.157867,299.819587 363.753843,299.22225 C364.35118,298.626274 364.685346,297.815736 364.682459,296.969843 C364.679572,296.123949 364.33987,295.312378 363.73846,294.714563 C363.149578,294.124861 362.354369,293.788001 361.523075,293.776098 Z M83.3999961,347.668407 L232.276922,347.668407 L232.276922,354.191484 C232.276922,362.031543 238.56136,368.5761 246.353842,368.5761 L296.984616,368.5761 C304.777099,368.5761 311.046153,362.031464 311.046153,354.191484 L311.046153,347.668407 L459.923079,347.668407 C457.900994,365.27207 443.664818,378.945329 425.476924,378.945329 L117.846151,378.945329 C99.6578629,378.945329 85.421695,365.272543 83.3999961,347.668407 Z M240.153845,347.668407 L303.16923,347.668407 L303.16923,354.191484 C303.16923,357.936882 300.413362,360.699177 296.984616,360.699177 L246.353842,360.699177 C242.925175,360.699177 240.153845,357.936803 240.153845,354.191484 L240.153845,347.668407 Z" id="circle17881"></path>
                    </g>
                </g>
            </g>
        </g>
    </g>
</svg>